/* XPM */
static char * geoUtils_xpm[] = {
"32 32 448 2",
"  	c None",
". 	c #AEADAF",
"+ 	c #8B8B8B",
"@ 	c #BFBFC0",
"# 	c #C9C9CA",
"$ 	c #E3D9EC",
"% 	c #CBD4D7",
"& 	c #CCD4D8",
"* 	c #C0C5CA",
"= 	c #1E973A",
"- 	c #14B037",
"; 	c #AFCFBF",
"> 	c #1E7E35",
", 	c #0A8225",
"' 	c #0AA62D",
") 	c #37B756",
"! 	c #BAC2C5",
"~ 	c #1B7C31",
"{ 	c #0A7E24",
"] 	c #0A6C20",
"^ 	c #0A4A18",
"/ 	c #81A991",
"( 	c #1A7D31",
"_ 	c #0A7D24",
": 	c #0A6A1F",
"< 	c #0F421B",
"[ 	c #96969D",
"} 	c #B8C7D4",
"| 	c #7DB5B8",
"1 	c #66AEAE",
"2 	c #6EAEAF",
"3 	c #9BBAC3",
"4 	c #DBD5E6",
"5 	c #1A7E31",
"6 	c #0A671F",
"7 	c #0F411D",
"8 	c #80999D",
"9 	c #E0D8EA",
"0 	c #CACEDE",
"a 	c #49A9A4",
"b 	c #0AA796",
"c 	c #0AB3A0",
"d 	c #0AB4A1",
"e 	c #0AAF9D",
"f 	c #0AA190",
"g 	c #1A8E83",
"h 	c #90B0B8",
"i 	c #E2D8EB",
"j 	c #A5778C",
"k 	c #7C3E7B",
"l 	c #9B9190",
"m 	c #DACDD9",
"n 	c #B9C2C4",
"o 	c #0A7C24",
"p 	c #0A641E",
"q 	c #0A3F1F",
"r 	c #0A7C6E",
"s 	c #0A9384",
"t 	c #1E998D",
"u 	c #7BB7BA",
"v 	c #DFD7EA",
"w 	c #209F93",
"x 	c #0AB4A2",
"y 	c #0AC2AE",
"z 	c #0AC9B4",
"A 	c #0AC3AF",
"B 	c #0AB9A6",
"C 	c #0AA997",
"D 	c #0A8C7E",
"E 	c #54607F",
"F 	c #250A98",
"G 	c #BC0A95",
"H 	c #2778BE",
"I 	c #397A79",
"J 	c #197E31",
"K 	c #0A7B23",
"L 	c #0A611D",
"M 	c #0C4024",
"N 	c #0A776B",
"O 	c #36A199",
"P 	c #BDCCDA",
"Q 	c #3D9E98",
"R 	c #0AB09E",
"S 	c #0AC3AE",
"T 	c #0ACDB8",
"U 	c #0AD2BC",
"V 	c #0ACDB7",
"W 	c #0AC4AF",
"X 	c #0AB6A3",
"Y 	c #0A9B8D",
"Z 	c #0D1483",
"` 	c #AB0A96",
" .	c #D30A90",
"..	c #5558B1",
"+.	c #0A4497",
"@.	c #0A527C",
"#.	c #0A5A27",
"$.	c #302612",
"%.	c #1F645A",
"&.	c #0A8073",
"*.	c #0A8A7C",
"=.	c #0F9486",
"-.	c #7EB8BB",
";.	c #AFC1CD",
">.	c #0A9C8C",
",.	c #0AD2BB",
"'.	c #0AD5BE",
").	c #0AD4BE",
"!.	c #0AD0BA",
"~.	c #0AC8B3",
"{.	c #0ABBA7",
"].	c #0A6B85",
"^.	c #610A97",
"/.	c #CE0A8D",
"(.	c #C70A88",
"_.	c #6D3E9B",
":.	c #0A2D95",
"<.	c #0A32BF",
"[.	c #21226B",
"}.	c #B50A0A",
"|.	c #AF0D0C",
"1.	c #53453E",
"2.	c #0C7E71",
"3.	c #0A9586",
"4.	c #5FAEAD",
"5.	c #6BA3A5",
"6.	c #0AC9B3",
"7.	c #0AD3BD",
"8.	c #0ACEB9",
"9.	c #0AC7B2",
"0.	c #192A88",
"a.	c #C10A8C",
"b.	c #C30A85",
"c.	c #B70A7D",
"d.	c #731D79",
"e.	c #0A2EA9",
"f.	c #0A31BB",
"g.	c #211D55",
"h.	c #800A0A",
"i.	c #AD0A0A",
"j.	c #BC0A0A",
"k.	c #8F211E",
"l.	c #278073",
"m.	c #0A9485",
"n.	c #71B4B5",
"o.	c #519594",
"p.	c #0A9E8D",
"q.	c #0ACBB5",
"r.	c #0ACEB8",
"s.	c #0AC1AD",
"t.	c #0A9497",
"u.	c #6E0A8E",
"v.	c #C20A85",
"w.	c #B20A7A",
"x.	c #A20A6F",
"y.	c #55156E",
"z.	c #0A31B7",
"A.	c #0A30B2",
"B.	c #0A4C88",
"C.	c #184A6A",
"D.	c #551215",
"E.	c #960A0A",
"F.	c #B60A0A",
"G.	c #B40B0B",
"H.	c #5E4C44",
"I.	c #0F9989",
"J.	c #0A9788",
"K.	c #589191",
"L.	c #0AAC9A",
"M.	c #0AC5B0",
"N.	c #0AC4B0",
"O.	c #0AC0AC",
"P.	c #0AB8A5",
"Q.	c #164F8C",
"R.	c #BA0A87",
"S.	c #B20A7B",
"T.	c #9A0A6A",
"U.	c #790A54",
"V.	c #241F74",
"W.	c #0A32BE",
"X.	c #0A2CA4",
"Y.	c #0A5281",
"Z.	c #0A6C9D",
"`.	c #0B6999",
" +	c #2A2F40",
".+	c #720A0A",
"++	c #A70A0A",
"@+	c #BB0A0A",
"#+	c #981D1B",
"$+	c #1B8F80",
"%+	c #0A9B8B",
"&+	c #0A8E80",
"*+	c #829FA6",
"=+	c #0A8174",
"-+	c #0A9D8D",
";+	c #0AB8A4",
">+	c #0AB7A4",
",+	c #0AA797",
"'+	c #5C1485",
")+	c #B80A7E",
"!+	c #9C0A6B",
"~+	c #670F49",
"{+	c #584B6B",
"]+	c #122E94",
"^+	c #0A33C0",
"/+	c #0A288E",
"(+	c #0A4767",
"_+	c #0A608B",
":+	c #0A6C9C",
"<+	c #0B6EA0",
"[+	c #146968",
"}+	c #442220",
"|+	c #8B0A0A",
"1+	c #AC0F0F",
"2+	c #199384",
"3+	c #0A8376",
"4+	c #0A695F",
"5+	c #0A6E63",
"6+	c #0A786D",
"7+	c #CECADB",
"8+	c #10675E",
"9+	c #0A887A",
"0+	c #0A9989",
"a+	c #0AA291",
"b+	c #0AA795",
"c+	c #0B6B84",
"d+	c #A50A84",
"e+	c #A60A72",
"f+	c #740B51",
"g+	c #2C6813",
"h+	c #15685C",
"i+	c #0A2DA7",
"j+	c #0A327E",
"k+	c #0A5456",
"l+	c #0A5073",
"m+	c #0A6490",
"n+	c #0A6D9E",
"o+	c #0C7091",
"p+	c #1E5C53",
"q+	c #27786B",
"r+	c #0A8D7F",
"s+	c #317D78",
"t+	c #7C929A",
"u+	c #0A665C",
"v+	c #0A7E71",
"w+	c #0A9081",
"x+	c #0A9082",
"y+	c #392F7B",
"z+	c #B30A7B",
"A+	c #8D0A62",
"B+	c #425324",
"C+	c #30B70A",
"D+	c #124E6A",
"E+	c #0A2DA5",
"F+	c #0A30B5",
"G+	c #0A4373",
"H+	c #0A8274",
"I+	c #0A505E",
"J+	c #0A5B83",
"K+	c #0A6897",
"L+	c #0C8889",
"M+	c #0A9686",
"N+	c #0A6B61",
"O+	c #23766F",
"P+	c #CCCDDD",
"Q+	c #E1D7EA",
"R+	c #61797E",
"S+	c #0A544C",
"T+	c #0A675D",
"U+	c #0A7065",
"V+	c #0A7166",
"W+	c #0A6560",
"X+	c #780C7D",
"Y+	c #A40A71",
"Z+	c #690D48",
"`+	c #32A30C",
" @	c #2AAC31",
".@	c #0A2E75",
"+@	c #0A1C5C",
"@@	c #0A1D63",
"#@	c #0A486F",
"$@	c #0A8F7D",
"%@	c #0A887C",
"&@	c #0A5071",
"*@	c #0A6592",
"=@	c #0A6B9C",
"-@	c #0B6E8C",
";@	c #0A6F64",
">@	c #187068",
",@	c #BEC6D4",
"'@	c #9C9FAA",
")@	c #315251",
"!@	c #0A3E38",
"~@	c #0A423C",
"{@	c #0F294E",
"]@	c #AA0A7B",
"^@	c #920A65",
"/@	c #492F29",
"(@	c #4A761F",
"_@	c #3A6F6B",
":@	c #0A4C60",
"<@	c #0A2852",
"[@	c #0A2563",
"}@	c #0A4EA7",
"|@	c #0A5BA3",
"1@	c #0A7482",
"2@	c #0A5463",
"3@	c #0A6390",
"4@	c #0A6A9B",
"5@	c #0A6694",
"6@	c #0A6E6B",
"7@	c #0F6C62",
"8@	c #ADBDC9",
"9@	c #CDC5D6",
"0@	c #AEA8B6",
"a@	c #6F3A8A",
"b@	c #AB0A75",
"c@	c #800A59",
"d@	c #5B544E",
"e@	c #D7CEDF",
"f@	c #92B7BE",
"g@	c #0A7F72",
"h@	c #0A6765",
"i@	c #0A426A",
"j@	c #0A4998",
"k@	c #0A4DA1",
"l@	c #0C4076",
"m@	c #0A6896",
"n@	c #0A5F6C",
"o@	c #98B2BB",
"p@	c #DBD1E6",
"q@	c #77127C",
"r@	c #A10A6F",
"s@	c #6E0A4C",
"t@	c #CDC2D4",
"u@	c #DDD6E8",
"v@	c #1F887E",
"w@	c #0A9A8B",
"x@	c #0A526A",
"y@	c #0A448C",
"z@	c #3D277D",
"A@	c #0A6D9F",
"B@	c #0A5B73",
"C@	c #81A6AC",
"D@	c #A49CC5",
"E@	c #980A77",
"F@	c #9B0A6B",
"G@	c #721D57",
"H@	c #7AAEB1",
"I@	c #124570",
"J@	c #5B2A7D",
"K@	c #0A71A4",
"L@	c #0A6FA2",
"M@	c #0A556E",
"N@	c #67999B",
"O@	c #7E64A4",
"P@	c #A70A73",
"Q@	c #980A69",
"R@	c #7A2660",
"S@	c #D6D4E5",
"T@	c #49B1AB",
"U@	c #296A5F",
"V@	c #7CA615",
"W@	c #57A13F",
"X@	c #1D7884",
"Y@	c #0A628D",
"Z@	c #276578",
"`@	c #E1D8EA",
" #	c #643080",
".#	c #A40A70",
"+#	c #990A69",
"@#	c #7B1057",
"##	c #DACEE2",
"$#	c #86BFC2",
"%#	c #2D946E",
"&#	c #619D37",
"*#	c #89C00B",
"=#	c #84C10A",
"-#	c #77AD0A",
";#	c #69980A",
">#	c #447121",
",#	c #B7BAC8",
"'#	c #DDD3E7",
")#	c #550C66",
"!#	c #A00A6E",
"~#	c #900A63",
"{#	c #927C69",
"]#	c #C0BFB2",
"^#	c #C1B7AC",
"/#	c #BBB089",
"(#	c #AFAC57",
"_#	c #9DAD1B",
":#	c #9AC60A",
"<#	c #8DCE0A",
"[#	c #79B10A",
"}#	c #6C9D0A",
"|#	c #587F0A",
"1#	c #8F9A7E",
"2#	c #CFC6DC",
"3#	c #5B0A60",
"4#	c #971961",
"5#	c #769E10",
"6#	c #83BF0A",
"7#	c #89C70A",
"8#	c #8ACA0A",
"9#	c #89C80A",
"0#	c #85C30A",
"a#	c #7FB90A",
"b#	c #76AC0A",
"c#	c #69990A",
"d#	c #5A7E14",
"e#	c #9DA592",
"f#	c #DFD5E9",
"g#	c #61165E",
"h#	c #910A64",
"i#	c #961164",
"j#	c #767D1F",
"k#	c #71A40A",
"l#	c #7BB30A",
"m#	c #7DB70A",
"n#	c #7DB60A",
"o#	c #7BB20A",
"p#	c #75AA0A",
"q#	c #6C9E0A",
"r#	c #5F870F",
"s#	c #85965F",
"t#	c #D0CAD4",
"u#	c #A57DA3",
"v#	c #702442",
"w#	c #636F19",
"x#	c #638F0A",
"y#	c #68960A",
"z#	c #6B9C0A",
"A#	c #6D9E0A",
"B#	c #6A9A0A",
"C#	c #628D0A",
"D#	c #6E8C2F",
"E#	c #99A47E",
"F#	c #D1CBD4",
"G#	c #C5C1C5",
"H#	c #869268",
"I#	c #728745",
"J#	c #688131",
"K#	c #6E8738",
"L#	c #7B914B",
"M#	c #8E9D6C",
"N#	c #A8AD96",
"O#	c #CDC7CE",
". + @ # # # # # # # # # # # # # # # # # # # # # # # # # # # # # ",
"$ $ $ $ $ $ $ $ $ $ $ $ $ $ $ $ $ $ $ $ $ $ $ $ $ $ $ $ $ $ $ $ ",
"$ $ $ $ $ $ $ $ $ $ $ $ $ $ $ $ $ $ $ $ $ $ $ $ % & $ $ $ $ $ $ ",
"$ $ $ $ $ $ $ $ $ $ $ $ $ $ $ $ $ $ $ $ $ $ $ * = - ; $ $ $ $ $ ",
"$ $ $ $ $ $ $ $ $ $ $ $ $ $ $ $ $ $ $ $ $ $ * > , ' ) $ $ $ $ $ ",
"$ $ $ $ $ $ $ $ $ $ $ $ $ $ $ $ $ $ $ $ $ ! ~ { ] ^ / $ $ $ $ $ ",
"$ $ $ $ $ $ $ $ $ $ $ $ $ $ $ $ $ $ $ $ ! ( _ : < [ $ $ $ $ $ $ ",
"$ $ $ $ $ $ } | 1 2 3 4 $ $ $ $ $ $ $ ! 5 _ 6 7 8 9 $ $ $ $ $ $ ",
"$ $ $ $ 0 a b c d e f g h i j k l m n 5 o p q r s t u v $ $ $ $ ",
"$ $ $ 0 w x y z z A B C D E F G H I J K L M N s s s s O P $ $ $ ",
"$ $ $ Q R S T U U V W X Y Z `  ...+.@.#.$.%.&.*.s s s s =.-.9 $ ",
"$ $ ;.>.B z ,.'.).!.~.{.].^./.(._.:.<.[.}.|.1.2.3.s s s s s 4.i ",
"$ $ 5.f {.6.!.7.U 8.9.{.0.a.b.c.d.e.f.g.h.i.j.k.l.>.m.s s s s n.",
"$ $ o.p.X S q.r.T z s.t.u.v.w.x.y.z.A.B.C.D.E.F.G.H.I.J.s s s s ",
"$ $ K.s L.B s.M.N.O.P.Q.R.S.T.U.V.W.X.Y.Z.`. +.+++@+#+$+%+&+s s ",
"$ $ *+=+-+L.d ;+>+c ,+'+)+!+~+{+]+^+/+(+_+:+<+[+}+|+1+2+3+4+5+6+",
"$ $ 7+8+9+0+a+b+b+a+c+d+e+f+g+h+i+W.j+k+l+m+n+o+>.p+q+r+4+4+4+s+",
"$ $ $ t+u+v+*.w+x+D y+z+A+B+C+D+E+F+G+H+I+J+K+:+L+f M+N+4+4+O+P+",
"$ $ $ Q+R+S+T+U+V+W+X+Y+Z+`+ @.@+@@@#@$@%@&@*@=@-@%+;@4+4+>@,@$ ",
"$ $ $ $ $ '@)@!@~@{@]@^@/@(@_@:@<@[@}@|@1@2@3@4@5@6@4+4+7@8@$ $ ",
"$ $ $ $ $ $ $ 9@0@a@b@c@d@e@f@&.g@h@i@j@k@l@3@=@m@n@4+4+o@$ $ $ ",
"$ $ $ $ $ $ $ $ p@q@r@s@t@$ u@v@H+>.w@x@y@z@K+A@m@B@4+C@$ $ $ $ ",
"$ $ $ $ $ $ $ $ D@E@F@G@$ $ $ H@m.f f p.I@J@K@L@5@M@N@$ $ $ $ $ ",
"$ $ $ $ $ $ $ $ O@P@Q@R@$ $ $ S@T@f f f U@V@W@X@Y@Z@`@$ $ $ $ $ ",
"$ $ $ $ $ $ $ $  #.#+#@###$ $ $ i $#%#&#*#=#-#;#>#,#$ $ $ $ $ $ ",
"$ $ $ $ $ $ $ '#)#!#F@~#{#]#^#/#(#_#:#<#=#[#}#|#1#$ $ $ $ $ $ $ ",
"$ $ $ $ $ $ $ 2#3#T.!+4#5#[#6#7#8#9#0#a#b#c#d#e#$ $ $ $ $ $ $ $ ",
"$ $ $ $ $ $ $ f#g#h#i#j#k#b#l#m#n#o#p#q#r#s#t#$ $ $ $ $ $ $ $ $ ",
"$ $ $ $ $ $ $ $ u#v#w#x#y#z#A#A#B#C#D#E#F#$ $ $ $ $ $ $ $ $ $ $ ",
"$ $ $ $ $ $ $ $ $ G#H#I#J#K#L#M#N#O#$ $ $ $ $ $ $ $ $ $ $ $ $ $ ",
"$ $ $ $ $ $ $ $ $ $ $ $ $ $ $ $ $ $ $ $ $ $ $ $ $ $ $ $ $ $ $ $ ",
"$ $ $ $ $ $ $ $ $ $ $ $ $ $ $ $ $ $ $ $ $ $ $ $ $ $ $ $ $ $ $ $ "};
