/* XPM */
static char * geoUtils_xpm[] = {
"32 32 320 2",
"  	c None",
". 	c #E3D9EC",
"+ 	c #BECBC6",
"@ 	c #9DC1A3",
"# 	c #C4C8CC",
"$ 	c #DBD3E4",
"% 	c #0B740B",
"& 	c #0A920A",
"* 	c #548A57",
"= 	c #177418",
"- 	c #0A930A",
"; 	c #468748",
"> 	c #2C7B2E",
", 	c #368037",
"' 	c #428344",
") 	c #287D29",
"! 	c #578C5B",
"~ 	c #187719",
"{ 	c #6D9571",
"] 	c #0A900A",
"^ 	c #0C760D",
"/ 	c #E0D7E9",
"( 	c #839F87",
"_ 	c #0A8E0A",
": 	c #0A7B0A",
"< 	c #D5CEDD",
"[ 	c #98A99E",
"} 	c #0A8A0A",
"| 	c #0A810A",
"1 	c #C4C2CC",
"2 	c #AEB5B4",
"3 	c #0A860A",
"4 	c #B7BBBE",
"5 	c #E0C7D8",
"6 	c #D6959F",
"7 	c #D3858D",
"8 	c #B47877",
"9 	c #0A800A",
"0 	c #A19991",
"a 	c #DFC9DA",
"b 	c #E3D8EB",
"c 	c #DBA7B4",
"d 	c #CC4D4E",
"e 	c #C94747",
"f 	c #C84747",
"g 	c #BD4543",
"h 	c #0A780A",
"i 	c #0A8D0A",
"j 	c #834A31",
"k 	c #C34545",
"l 	c #C54F50",
"m 	c #CB6A6F",
"n 	c #988ACD",
"o 	c #B3ADE0",
"p 	c #DAD1EA",
"q 	c #DCA4B0",
"r 	c #D04B4B",
"s 	c #CF4949",
"t 	c #CE4848",
"u 	c #CD4848",
"v 	c #13700D",
"w 	c #0A8F0A",
"x 	c #7C4F2F",
"y 	c #CA4848",
"z 	c #9C4774",
"A 	c #4747C9",
"B 	c #4A4ACA",
"C 	c #6D6BD3",
"D 	c #9D98DE",
"E 	c #D0C7E8",
"F 	c #DFA6B2",
"G 	c #D64D4D",
"H 	c #D64B4B",
"I 	c #D54B4B",
"J 	c #286913",
"K 	c #0A910A",
"L 	c #634F30",
"M 	c #CD484C",
"N 	c #CF4A4F",
"O 	c #5C4BC3",
"P 	c #4A4AD3",
"Q 	c #4A4AD1",
"R 	c #4949D1",
"S 	c #4949D0",
"T 	c #4A4AD0",
"U 	c #6E6CD9",
"V 	c #B0A9E4",
"W 	c #E2D8EC",
"X 	c #C5CABA",
"Y 	c #B8734F",
"Z 	c #C1684D",
"` 	c #CD5C4D",
" .	c #D9514D",
"..	c #DD4E4E",
"+.	c #DC4D4D",
"@.	c #6D3314",
"#.	c #475514",
"$.	c #0A15AF",
"%.	c #0B0AB5",
"&.	c #1E13A8",
"*.	c #1D1DB6",
"=.	c #2828BA",
"-.	c #3333BF",
";.	c #3E3EC5",
">.	c #4848D3",
",.	c #4C4CD8",
"'.	c #4C4CD7",
").	c #7572DE",
"!.	c #E0D6EC",
"~.	c #BCDCC2",
"{.	c #53E354",
"].	c #50E450",
"^.	c #50E650",
"/.	c #52E651",
"(.	c #5EDC51",
"_.	c #6FCB51",
":.	c #88542C",
"<.	c #A20A0A",
"[.	c #890E0D",
"}.	c #342E90",
"|.	c #140DAA",
"1.	c #0A0AB8",
"2.	c #0A0AC0",
"3.	c #0A0AC5",
"4.	c #0A0AC1",
"5.	c #0A0AB7",
"6.	c #1111B3",
"7.	c #1C1CB5",
"8.	c #2727B9",
"9.	c #3232BF",
"0.	c #3D3DC6",
"a.	c #AEA7DE",
"b.	c #C5DCCC",
"c.	c #59E859",
"d.	c #51E951",
"e.	c #52E952",
"f.	c #52EB52",
"g.	c #53EC53",
"h.	c #53EE53",
"i.	c #53EF53",
"j.	c #5BB340",
"k.	c #990C0B",
"l.	c #9B0A0A",
"m.	c #5F722C",
"n.	c #56F555",
"o.	c #C27BA6",
"p.	c #A845BB",
"q.	c #6130AC",
"r.	c #201B9B",
"s.	c #0B0B8C",
"t.	c #0A0A9F",
"u.	c #0A0AAF",
"v.	c #0A0ABB",
"w.	c #0A0AC2",
"x.	c #0A0AC6",
"y.	c #4946C0",
"z.	c #CEDCD6",
"A.	c #5FEC5F",
"B.	c #53F053",
"C.	c #54F154",
"D.	c #55F355",
"E.	c #55F555",
"F.	c #57E14F",
"G.	c #882111",
"H.	c #A30A0A",
"I.	c #702011",
"J.	c #56EE53",
"K.	c #8FC47D",
"L.	c #FD58C7",
"M.	c #FE58C7",
"N.	c #F358CA",
"O.	c #B653CE",
"P.	c #6643BC",
"Q.	c #3535AC",
"R.	c #272798",
"S.	c #191988",
"T.	c #0C0C7F",
"U.	c #0A0A92",
"V.	c #0A0AA5",
"W.	c #6864CF",
"X.	c #D6DBDF",
"Y.	c #67EE68",
"Z.	c #54F254",
"`.	c #55F455",
" +	c #56F756",
".+	c #57F957",
"++	c #754C1F",
"@+	c #A50A0A",
"#+	c #880A0A",
"$+	c #53A63D",
"%+	c #63F460",
"&+	c #EF6AC1",
"*+	c #FF5ACC",
"=+	c #FF5ACB",
"-+	c #FF59CA",
";+	c #DB59D3",
">+	c #9057E7",
",+	c #5856F6",
"'+	c #5454F2",
")+	c #4949D2",
"!+	c #4D4BB5",
"~+	c #BAB2D2",
"{+	c #E0DAE9",
"]+	c #75EF77",
"^+	c #55F655",
"/+	c #56F856",
"(+	c #56F956",
"_+	c #57FB57",
":+	c #57FC57",
"<+	c #58FD58",
"[+	c #668D34",
"}+	c #A00A0A",
"|+	c #990A0A",
"1+	c #594F21",
"2+	c #5BFF5B",
"3+	c #BD9DA1",
"4+	c #FF5CD0",
"5+	c #FF5CCF",
"6+	c #FF5BCE",
"7+	c #FF5BCD",
"8+	c #FF5ACA",
"9+	c #E959CF",
"0+	c #9A58E5",
"a+	c #5B57F7",
"b+	c #918CF2",
"c+	c #9BE99F",
"d+	c #57FA57",
"e+	c #58FE58",
"f+	c #59FF59",
"g+	c #5DC748",
"h+	c #940E0B",
"i+	c #6E160E",
"j+	c #56E152",
"k+	c #83D878",
"l+	c #FE5ED2",
"m+	c #FF5DD2",
"n+	c #FF5DD3",
"o+	c #FF5CD2",
"p+	c #EC59CE",
"q+	c #D1B2E9",
"r+	c #5FF95F",
"s+	c #58FF58",
"t+	c #5AFF5A",
"u+	c #5BEF55",
"v+	c #832814",
"w+	c #A60A0A",
"x+	c #870A0A",
"y+	c #539A3A",
"z+	c #61FB60",
"A+	c #E578C2",
"B+	c #FF5ED5",
"C+	c #FF5DD4",
"D+	c #FE5FCC",
"E+	c #E4D4EB",
"F+	c #80F283",
"G+	c #59FE59",
"H+	c #5BFE5B",
"I+	c #715824",
"J+	c #980A0A",
"K+	c #59451E",
"L+	c #5DFD5D",
"M+	c #B0AE9B",
"N+	c #FF5ED6",
"O+	c #FF5FD7",
"P+	c #FF5FD6",
"Q+	c #FF5CD1",
"R+	c #FF5BCF",
"S+	c #F684D8",
"T+	c #E2D9EB",
"U+	c #B9E5BF",
"V+	c #8AF28D",
"W+	c #65FC66",
"X+	c #54B041",
"Y+	c #820A0A",
"Z+	c #6E130D",
"`+	c #57DC52",
" @	c #7AE373",
".@	c #FB63D4",
"+@	c #FF5FD8",
"@@	c #FF60D8",
"#@	c #FF5ED4",
"$@	c #FF5DD1",
"%@	c #ECAFE3",
"&@	c #C9E0D0",
"*@	c #A4EBA9",
"=@	c #82D475",
"-@	c #9D1D13",
";@	c #9C0A0A",
">@	c #578E37",
",@	c #60FD5F",
"'@	c #DC82BD",
")@	c #FF60D9",
"!@	c #FF60DA",
"~@	c #FD64D4",
"{@	c #DEC8D9",
"]@	c #BE9E9E",
"^@	c #89F08B",
"/@	c #A8B998",
"(@	c #F48DDE",
"_@	c #E4D3EB",
":@	c #EDAEE5",
"<@	c #F781DE",
"[@	c #FF61DA",
"}@	c #E9BDE7",
"|@	c #E6CCEA",
"1@	c #F19EE3",
"2@	c #FC6FDC",
"3@	c #FF60DB",
"4@	c #F97BDC",
"5@	c #E3D8EC",
"6@	c #EBB5E7",
"7@	c #F782DF",
"8@	c #FE63D9",
"9@	c #E8C3E8",
"0@	c #E7C9EA",
"a@	c #F09FE3",
"b@	c #F87FDE",
"c@	c #FC6FDB",
"d@	c #F87EDE",
"e@	c #E9BDE8",
". . . . . . . . . . . . . . . . . . . . . . . . . . . . . . . . ",
". . . . . . . . . . . . . . . . . . . . . . . . . . . . . . . . ",
". . . . . . . . . . . . . . + @ # . . . . . . . . . . . . . . . ",
". . . . . . . . . . . . . $ % & * . . . . . . . . . . . . . . . ",
". . . . . . . . . . . . . . = - ; . . . . . . . . . . . . . . . ",
". . . . . . . . . . . . . . > - , . . . . . . . . . . . . . . . ",
". . . . . . . . . . . . . . ' - ) . . . . . . . . . . . . . . . ",
". . . . . . . . . . . . . . ! & ~ . . . . . . . . . . . . . . . ",
". . . . . . . . . . . . . . { ] ^ / . . . . . . . . . . . . . . ",
". . . . . . . . . . . . . . ( _ : < . . . . . . . . . . . . . . ",
". . . . . . . . . . . . . . [ } | 1 . . . . . . . . . . . . . . ",
". . . . . . . . . . . . . . 2 3 3 4 . . . . . . . . . . . . . . ",
". . . . . . . . . . . 5 6 7 8 9 } 0 a b . . . . . . . . . . . . ",
". . . . . . . . . . c d e f g h i j k l m n o p . . . . . . . . ",
". . . . . . . . . q r s t u u v w x y e z A A B C D E . . . . . ",
". . . . . . . . F G H I I I I J K L M N O P Q R S T Q U V W . . ",
". . . . . . . X Y Z `  .....+.@.#.$.%.&.*.=.-.;.>.,.'.'.,.).!.. ",
". . . . . . ~.{.].].^./.(._.:.<.[.}.|.1.2.3.3.4.5.6.7.8.9.0.a.. ",
". . . . . b.c.d.e.f.g.h.i.j.k.l.m.n.o.p.q.r.s.t.u.v.w.x.x.w.y.. ",
". . . . z.A.h.h.B.C.D.E.F.G.H.I.J.K.L.M.M.N.O.P.Q.R.S.T.U.V.W.. ",
". . . X.Y.Z.D.`.E. +.+.+++@+#+$+%+&+*+*+=+=+-+-+;+>+,+'+)+!+~+. ",
". . {+]+E.^+/+(+_+:+<+[+}+|+1+2+3+4+4+4+4+5+6+7+*+8+9+0+a+b+. . ",
". . c+/+(+d+:+<+e+f+g+h+H.i+j+k+l+m+n+n+n+m+o+4+5+7+*+8+p+q+. . ",
". . r+_+:+<+s+f+t+u+v+w+x+y+z+A+B+B+B+B+B+B+C+n+m+4+6+7+D+E+. . ",
". . F+e+G+f+f+t+H+I+H.J+K+L+M+N+N+O+O+O+O+O+P+B+C+m+Q+R+S+. . . ",
". . T+U+V+W+2+2+X+Y+H.Z+`+ @.@O++@@@+@+@@@@@O+P+N+#@n+$@%@. . . ",
". . . . . T+&@*@=@-@;@>@,@'@O++@)@)@!@!@)@)@+@+@O+N+#@~@E+. . . ",
". . . . . . . . . {@]@^@/@+@+@)@!@!@!@!@!@!@)@+@+@O+N+(@. . . . ",
". . . . . . . . . . . . _@:@<@[@!@!@!@!@!@!@!@)@+@O+O+}@. . . . ",
". . . . . . . . . . . . . . . |@1@2@3@!@!@!@)@)@+@+@4@. . . . . ",
". . . . . . . . . . . . . . . . . 5@6@7@[@!@)@)@)@8@9@. . . . . ",
". . . . . . . . . . . . . . . . . . . . 0@a@b@c@d@e@. . . . . . "};
