/* XPM */
static char * igBrushOff_xpm[] = {
"32 32 4 1",
" 	c None",
".	c #444444",
"+	c #EAECCE",
"@	c #A07409",
"................................",
"................................",
"................................",
"................+++.............",
"...............+++++............",
"..............+++++++...........",
".............+++++++++..........",
"............+++++++++++.........",
"............++++++++++++........",
".........@@@+++++++++++++.......",
".........@@@@+++++++++++++......",
"........@@@@@@+++++++++++++.....",
".......@@@@@@@@+++++++++++++....",
"......@@@@@@@@@@++++++++++++....",
"......@@@@@@@@@@@+++++++++++....",
"......@@@@@@@@@@@@+++++++++.....",
".......@@@@@@@@@@@@+++++++......",
"........@@@@@@@@@@@@+++++.......",
".........@@@@@@@@@@@@+++........",
"........@@@@@@@@@@@@@++.........",
"........@@@@@@@@@@@@@...........",
".......@@@@@@@@@@@@@............",
"......@@@@@..@@@@@@.............",
".....@@@@@@....@@@..............",
".....@@@@@......@...............",
"....@@@@@.......................",
"....@@@@........................",
"....@@@@........................",
"................................",
"................................",
"................................",
"................................"};
