/* XPM */
static char * igBrushOn_xpm[] = {
"32 32 5 1",
" 	c None",
".	c #6387AB",
"+	c #444444",
"@	c #EAECCE",
"#	c #A07409",
"................................",
"................................",
"..++++++++++++++++++++++++++++..",
"..++++++++++++++@@@+++++++++++..",
"..+++++++++++++@@@@@++++++++++..",
"..++++++++++++@@@@@@@+++++++++..",
"..+++++++++++@@@@@@@@@++++++++..",
"..++++++++++@@@@@@@@@@@+++++++..",
"..++++++++++@@@@@@@@@@@@++++++..",
"..+++++++###@@@@@@@@@@@@@+++++..",
"..+++++++####@@@@@@@@@@@@@++++..",
"..++++++######@@@@@@@@@@@@@+++..",
"..+++++########@@@@@@@@@@@@@++..",
"..++++##########@@@@@@@@@@@@++..",
"..++++###########@@@@@@@@@@@++..",
"..++++############@@@@@@@@@+++..",
"..+++++############@@@@@@@++++..",
"..++++++############@@@@@+++++..",
"..+++++++############@@@++++++..",
"..++++++#############@@+++++++..",
"..++++++#############+++++++++..",
"..+++++#############++++++++++..",
"..++++#####++######+++++++++++..",
"..+++######++++###++++++++++++..",
"..+++#####++++++#+++++++++++++..",
"..++#####+++++++++++++++++++++..",
"..++####++++++++++++++++++++++..",
"..++####++++++++++++++++++++++..",
"..++++++++++++++++++++++++++++..",
"..++++++++++++++++++++++++++++..",
"................................",
"................................"};
