/* XPM */
static char * igClearMaskOff_xpm[] = {
"32 32 6 1",
" 	c None",
".	c #444444",
"+	c #00CC00",
"@	c #CF2C2C",
"#	c #00FF00",
"$	c #FFFFFF",
"................................",
"................................",
"........................++++....",
".......................++++++...",
"...........@@@@@@@@@@.+++###+...",
".........@@@@@@@@@@@@@@+####++..",
".......@@@@@@@@@@@@@@@@@@##+++..",
"......@@@@@@@@...+@@@@@@@@#+++..",
"......@@@@@@....+++##@@@@@+++...",
".....@@@@@@@...+++####@@@@@+....",
".....@@@@@@@@+++++#####@@@@+....",
"....@@@@@@@@@@+++####$#@@@@@....",
"....@@@@..@@@@@+###$$###@@@@....",
"....@@@@..+@@@@@##$$####@@@@....",
"....@@@..+++@@@@@$$$###++@@@....",
"....@@@..+++#@@@@@$###+++@@@....",
"....@@@++++###@@@@@##++++@@@....",
"....@@@+++####$@@@@@+++..@@@....",
"....@@@@+#####$$@@@@@+..@@@@....",
"....@@@@+###$$$$#@@@@@..@@@@....",
"....@@@@@##$$$$###@@@@@@@@@@....",
"....+@@@@#$$$$####+@@@@@@@@.....",
"....+@@@@@$##$###++.@@@@@@@.....",
"....++@@@@@@####+++.@@@@@@......",
"...++#@@@@@@@@#+++@@@@@@@.......",
"...++##@@@@@@@@@@@@@@@@@........",
"..+++#+++@@@@@@@@@@@@@@.........",
"..++++++++.@@@@@@@@@@...........",
"...++++.........................",
"................................",
"................................",
"................................"};
