/* XPM */
static char * igEraserOff_xpm[] = {
"32 32 5 1",
" 	c None",
".	c #444444",
"+	c #F990A8",
"@	c #D4768B",
"#	c #F9D3DC",
"................................",
"................................",
"................................",
"................................",
"...............+++++++++++......",
".............++++++++++++++.....",
"............++++++++++++++++....",
"............+++++++++++++++@....",
"...........++++++++++++++++@....",
"..........++++++++++++++++@@....",
"..........++++++++++++++++@@....",
".........++++++++++++++++@@.....",
"........+++++++++++++++++@@.....",
"........++++++++++++++++@@......",
".......++++++++++++++++#@@......",
".......++++++++++++++++@@.......",
"......++++++++++++++++#@@.......",
".....+++++++++++++++++@@........",
".....++++++++++++++++#@@........",
"....+++++++++++++++++@@.........",
"....++++++++++++++++#@@.........",
"....################@@..........",
"...@@@@@@@@@@@@@@@@@@@..........",
"...@@@@@@@@@@@@@@@@@@...........",
"...@@@@@@@@@@@@@@@@@@...........",
"....@@@@@@@@@@@@@@@@............",
"................................",
"................................",
"................................",
"................................",
"................................",
"................................"};
