/* XPM */
static char * igEraserOn_xpm[] = {
"32 32 6 1",
" 	c None",
".	c #6387AB",
"+	c #444444",
"@	c #F990A8",
"#	c #D4768B",
"$	c #F9D3DC",
"................................",
"................................",
"..++++++++++++++++++++++++++++..",
"..++++++++++++++++++++++++++++..",
"..+++++++++++++@@@@@@@@@@@++++..",
"..+++++++++++@@@@@@@@@@@@@@+++..",
"..++++++++++@@@@@@@@@@@@@@@@++..",
"..++++++++++@@@@@@@@@@@@@@@#++..",
"..+++++++++@@@@@@@@@@@@@@@@#++..",
"..++++++++@@@@@@@@@@@@@@@@##++..",
"..++++++++@@@@@@@@@@@@@@@@##++..",
"..+++++++@@@@@@@@@@@@@@@@##+++..",
"..++++++@@@@@@@@@@@@@@@@@##+++..",
"..++++++@@@@@@@@@@@@@@@@##++++..",
"..+++++@@@@@@@@@@@@@@@@$##++++..",
"..+++++@@@@@@@@@@@@@@@@##+++++..",
"..++++@@@@@@@@@@@@@@@@$##+++++..",
"..+++@@@@@@@@@@@@@@@@@##++++++..",
"..+++@@@@@@@@@@@@@@@@$##++++++..",
"..++@@@@@@@@@@@@@@@@@##+++++++..",
"..++@@@@@@@@@@@@@@@@$##+++++++..",
"..++$$$$$$$$$$$$$$$$##++++++++..",
"..+###################++++++++..",
"..+##################+++++++++..",
"..+##################+++++++++..",
"..++################++++++++++..",
"..++++++++++++++++++++++++++++..",
"..++++++++++++++++++++++++++++..",
"..++++++++++++++++++++++++++++..",
"..++++++++++++++++++++++++++++..",
"................................",
"................................"};
