/* XPM */
static char * igMaskOff_xpm[] = {
"32 32 5 1",
" 	c None",
".	c #444444",
"+	c #EAECCE",
"@	c #00FF00",
"#	c #A07409",
"................................",
"................................",
"................................",
"................+@@.............",
"...............++@@@............",
"..............+++@@@@...........",
".............+++++@@@@..........",
"............+++++++@@@@.........",
"............++++++++@@@@........",
".........###++++++++@@@@@.......",
".........####+++++++@@@@@@......",
"........######+++++++@@@@@@.....",
".......########++++++@@@@@@@....",
"......##########++++++@@@@@@....",
"......###########+++++@@@@@@....",
"......############++++@@@@@@....",
".......############+++@@@@@@....",
"........############+++@@@@.....",
".........############++@@@@.....",
"........#############++.@@......",
"........#############...........",
".......#############............",
"......#####..######.............",
".....######....###..............",
".....#####......#...............",
"....#####.......................",
"....####........................",
"....####........................",
"................................",
"................................",
"................................",
"................................"};
