/* XPM */
static char * igMaskOn_xpm[] = {
"32 32 6 1",
" 	c None",
".	c #6387AB",
"+	c #444444",
"@	c #EAECCE",
"#	c #00FF00",
"$	c #A07409",
"................................",
"................................",
"..++++++++++++++++++++++++++++..",
"..++++++++++++++@##+++++++++++..",
"..+++++++++++++@@###++++++++++..",
"..++++++++++++@@@####+++++++++..",
"..+++++++++++@@@@@####++++++++..",
"..++++++++++@@@@@@@####+++++++..",
"..++++++++++@@@@@@@@####++++++..",
"..+++++++$$$@@@@@@@@#####+++++..",
"..+++++++$$$$@@@@@@@######++++..",
"..++++++$$$$$$@@@@@@@######+++..",
"..+++++$$$$$$$$@@@@@@#######++..",
"..++++$$$$$$$$$$@@@@@@######++..",
"..++++$$$$$$$$$$$@@@@@######++..",
"..++++$$$$$$$$$$$$@@@@######++..",
"..+++++$$$$$$$$$$$$@@@######++..",
"..++++++$$$$$$$$$$$$@@@####+++..",
"..+++++++$$$$$$$$$$$$@@####+++..",
"..++++++$$$$$$$$$$$$$@@+##++++..",
"..++++++$$$$$$$$$$$$$+++++++++..",
"..+++++$$$$$$$$$$$$$++++++++++..",
"..++++$$$$$++$$$$$$+++++++++++..",
"..+++$$$$$$++++$$$++++++++++++..",
"..+++$$$$$++++++$+++++++++++++..",
"..++$$$$$+++++++++++++++++++++..",
"..++$$$$++++++++++++++++++++++..",
"..++$$$$++++++++++++++++++++++..",
"..++++++++++++++++++++++++++++..",
"..++++++++++++++++++++++++++++..",
"................................",
"................................"};
