/* XPM */
static char * igVisible_xpm[] = {
"20 20 18 1",
" 	c None",
".	c #444444",
"+	c #393939",
"@	c #292929",
"#	c #6C6C6C",
"$	c #666666",
"%	c #636363",
"&	c #626262",
"*	c #656565",
"=	c #646464",
"-	c #616161",
";	c #C8C8C8",
">	c #606060",
",	c #5F5F5F",
"'	c #5E5E5E",
")	c #5D5D5D",
"!	c #5C5C5C",
"~	c #575757",
".+@@@@@@@@@@@@@@@@+.",
"+@################@+",
"@#$$$$$$$$$$$$$$$$%@",
"@#$$$$$$$$$$$$$$$$&@",
"@#****************&@",
"@#======@@@@======&@",
"@#=====@@@@@@=====-@",
"@#%%%%@@;@@;@@%%%%-@",
"@#&&&&@;@@@@;@&&&&>@",
"@#&&&@;;@@@@;;@&&&>@",
"@#---@;;@@@@;;@---,@",
"@#----@;@@@@;@----,@",
"@#>>>>@@;@@;@@>>>>'@",
"@#,,,,,@@@@@@,,,,,'@",
"@#,,,,,,@@@@,,,,,,)@",
"@#'''''''''''''''')@",
"@#)))))))))))))))))@",
"@#))))))))))))))))!@",
"+@~~~~~~~~~~~~~~~~@+",
".+@@@@@@@@@@@@@@@@+."};
