/* XPM */
static char * point_xpm[] = {
"20 20 3 1",
" 	c #000000",
".	s bg c #0000FF",
"+	c #FFFFFF",
"....................",
"..  .  .++.++.  .  .",
"..  .  .++.++.  .  .",
"....................",
"..  .  .++.++.  .  .",
"..  .  .++.++.  .  .",
"....................",
"..++.++.  .  .++.++.",
"..++.++.  .  .++.++.",
"....................",
"..++.++.  .  .++.++.",
"..++.++.  .  .++.++.",
"....................",
"..  .  .++.++.  .  .",
"..  .  .++.++.  .  .",
"....................",
"..  .  .++.++.  .  .",
"..  .  .++.++.  .  .",
"....................",
"...................."};
