/* XPM */
static char * q:\Maya\src\AWplugins\XGen\src\xgen\src\xgmaya\icons\xgBindFaces_xpm[] = {
"32 32 248 2",
"  	c None",
". 	c #231D08",
"+ 	c #2A230D",
"@ 	c #322B14",
"# 	c #393219",
"$ 	c #443E23",
"% 	c #544C30",
"& 	c #665E3F",
"* 	c #60583B",
"= 	c #241D08",
"- 	c #2B240E",
"; 	c #383119",
"> 	c #463E25",
", 	c #5A5336",
"' 	c #6C6445",
") 	c #332C14",
"! 	c #9A916E",
"~ 	c #A89F79",
"{ 	c #ACA37C",
"] 	c #ABA27B",
"^ 	c #AAA17A",
"/ 	c #A9A079",
"( 	c #6A6344",
"_ 	c #241E09",
": 	c #8F8764",
"< 	c #A49B76",
"[ 	c #ACA37D",
"} 	c #AEA57E",
"| 	c #4E462A",
"1 	c #746C4C",
"2 	c #AAA17B",
"3 	c #8E8663",
"4 	c #A79E78",
"5 	c #A49B75",
"6 	c #484027",
"7 	c #231C08",
"8 	c #211C07",
"9 	c #8E8765",
"0 	c #ADA47D",
"a 	c #837B59",
"b 	c #383118",
"c 	c #A89F78",
"d 	c #27210C",
"e 	c #A59C76",
"f 	c #A39A74",
"g 	c #342D15",
"h 	c #211B07",
"i 	c #201A07",
"j 	c #5A533A",
"k 	c #413A1F",
"l 	c #7B7252",
"m 	c #A69D77",
"n 	c #A59C75",
"o 	c #9E9570",
"p 	c #7C7452",
"q 	c #564E32",
"r 	c #271E09",
"s 	c #1B1706",
"t 	c #332C18",
"u 	c #ABA27C",
"v 	c #A9A07A",
"w 	c #797150",
"x 	c #4B4428",
"y 	c #7E7655",
"z 	c #5C5437",
"A 	c #3E371D",
"B 	c #2B240D",
"C 	c #2D260F",
"D 	c #281D0A",
"E 	c #7F130D",
"F 	c #83090C",
"G 	c #211B08",
"H 	c #A89F7A",
"I 	c #837B58",
"J 	c #5F5739",
"K 	c #2B240C",
"L 	c #28210A",
"M 	c #2D260E",
"N 	c #B90C11",
"O 	c #807959",
"P 	c #A9A07B",
"Q 	c #887F5D",
"R 	c #645C3E",
"S 	c #463F24",
"T 	c #2E270F",
"U 	c #332B13",
"V 	c #2E2812",
"W 	c #58140B",
"X 	c #930B0E",
"Y 	c #BA0C11",
"Z 	c #1F1806",
"` 	c #37230F",
" .	c #352E15",
"..	c #373017",
"+.	c #373018",
"@.	c #231E0B",
"#.	c #A70B0F",
"$.	c #86090C",
"%.	c #B10C10",
"&.	c #73140D",
"*.	c #530A09",
"=.	c #910A0D",
"-.	c #9A0A0E",
";.	c #BA0E13",
">.	c #A20B0F",
",.	c #88090D",
"'.	c #8F0A0D",
").	c #AD0C10",
"!.	c #AC0C10",
"~.	c #B00C10",
"{.	c #990A0E",
"].	c #930A0E",
"^.	c #4E190B",
"/.	c #2C250D",
"(.	c #2A230B",
"_.	c #2F2810",
":.	c #463E23",
"<.	c #403920",
"[.	c #241E08",
"}.	c #9D0B0F",
"|.	c #87090C",
"1.	c #8E0B0E",
"2.	c #272009",
"3.	c #2F270F",
"4.	c #41391E",
"5.	c #5A5234",
"6.	c #79704E",
"7.	c #867D59",
"8.	c #847B58",
"9.	c #837A57",
"0.	c #3F381F",
"a.	c #231C07",
"b.	c #80090C",
"c.	c #A30B0F",
"d.	c #331E0B",
"e.	c #361F0B",
"f.	c #362F16",
"g.	c #524A2E",
"h.	c #6E6545",
"i.	c #877E5A",
"j.	c #857C58",
"k.	c #847B57",
"l.	c #837A56",
"m.	c #827956",
"n.	c #817855",
"o.	c #2E2811",
"p.	c #BD0D12",
"q.	c #261F08",
"r.	c #342D14",
"s.	c #484025",
"t.	c #61593B",
"u.	c #3C341A",
"v.	c #645C3D",
"w.	c #89805C",
"x.	c #887F5B",
"y.	c #857C59",
"z.	c #807754",
"A.	c #766D4B",
"B.	c #28210C",
"C.	c #900F0E",
"D.	c #431709",
"E.	c #29220B",
"F.	c #3C341B",
"G.	c #756D4B",
"H.	c #8A815D",
"I.	c #8C835F",
"J.	c #8B825E",
"K.	c #696041",
"L.	c #423A20",
"M.	c #857D59",
"N.	c #7F7653",
"O.	c #7E7552",
"P.	c #6F6646",
"Q.	c #321D09",
"R.	c #4A2916",
"S.	c #645D3E",
"T.	c #8F8662",
"U.	c #8E8561",
"V.	c #8D845F",
"W.	c #3D351B",
"X.	c #6A6242",
"Y.	c #807753",
"Z.	c #4E462D",
"`.	c #251E0B",
" +	c #817959",
".+	c #908762",
"++	c #8F8661",
"@+	c #8D8460",
"#+	c #5F5738",
"$+	c #443D21",
"%+	c #827955",
"&+	c #817854",
"*+	c #786F4E",
"=+	c #5A5337",
"-+	c #2D2715",
";+	c #2A2412",
">+	c #261F0C",
",+	c #5E563C",
"'+	c #8E8560",
")+	c #877E5B",
"!+	c #7C7451",
"~+	c #3F371D",
"{+	c #6C6443",
"]+	c #696142",
"^+	c #413A23",
"/+	c #2B2513",
"(+	c #282210",
"_+	c #1F1A0B",
":+	c #37301B",
"<+	c #8C835E",
"[+	c #554D30",
"}+	c #463F23",
"|+	c #746D4D",
"1+	c #4F482F",
"2+	c #312B17",
"3+	c #241E0D",
"4+	c #231D09",
"5+	c #89805D",
"6+	c #766D4C",
"7+	c #362E15",
"8+	c #5B5336",
"9+	c #3C361F",
"0+	c #2C2614",
"a+	c #272110",
"b+	c #787050",
"c+	c #867D5A",
"d+	c #4B442A",
"e+	c #2A230E",
"f+	c #221D0E",
"g+	c #201A06",
"h+	c #524C31",
"i+	c #7B7253",
"j+	c #5A5238",
"k+	c #37311C",
"l+	c #262010",
"m+	c #322C17",
"n+	c #817956",
"o+	c #7F7754",
"p+	c #716949",
"q+	c #433C24",
"r+	c #292311",
"s+	c #6D6547",
"t+	c #554E32",
"u+	c #332D18",
"v+	c #241E0A",
"w+	c #2B2412",
"x+	c #282311",
"y+	c #211C0E",
"                                                                ",
"                                                                ",
"                                .                               ",
"                  . + @ # $ % & * .                             ",
"    = - @ ; > , ' ' ) ! ~ { ] ^ / ( =                           ",
"    _ : < [ } } } [ | 1 ] 2 : 3 4 5 6 7                         ",
"    8 9 } } } } 0 { a b 4 / c d e 5 f g h                       ",
"    i j } } 0 d { ] ^ k l 4 m n f o p q r                       ",
"    s t } 0 { u 2 v ~ w x f y z A B C D E F                     ",
"      G H { ] ^ / c I J K L M +           N                     ",
"      h O P Q R S T U V W X                 Y                   ",
"      Z `  ...+.@.        #.                $.%.                ",
"        &.*.              =.-.      ;.;.      -.>.              ",
"        ,.'.                ).                  !.=.            ",
"          ~.      ;.;.      {.].                  ^.            ",
"          Y                   Y             /.(._.:.<.[.        ",
"          }.|.                #.1.  2.M 3.4.5.6.7.8.9.0.a.      ",
"          b.c.                d.e.f.g.h.8.i.7.j.k.l.m.n.o.8     ",
"            p.        q.T r.s.t.u.v.w.x.i.y.8.9.m.n.z.z.A.B.    ",
"            C.D.E._.F.q G.H.I.J.K.L.M.7.j.k.l.d n.z.N.N.O.P.q.  ",
"            Q.R.S.y.T.U.V.J.H.w.x.W.X.8.9.m.n.z.Y.N.O.O.O.O.Z.`.",
"            .  +.+++@+I.J.w.x.i.7.#+$+l.%+&+z.N.O.O.O.*+=+-+;+>+",
"            7 ,+'+I.J.H.w.)+7.j.k.!+~+{+z.N.N.O.O.]+^+/+(+_+    ",
"              :+<+H.w.x.d y.8.9.m.n.[+}+N.O.|+1+2+;+3+          ",
"              4+5+x.i.7.j.k.l.%+n.z.6+7+8+9+0+a+                ",
"              7 b+c+y.8.9.m.n.z.Y.G.d+e+d f+                    ",
"              g+h+j.k.l.%+n.i+j+k+/+l+                          ",
"                m+9.n+o+p+q+;+r+f+                              ",
"                G s+t+u+/+l+                                    ",
"                v+w+x+y+                                        ",
"                                                                ",
"                                                                "};
