/* XPM */
static char * q:\Maya\src\AWplugins\XGen\src\xgen\src\xgmaya\icons\xgCreateDescription_xpm[] = {
"32 32 288 2",
"  	c None",
". 	c #3EDD90",
"+ 	c #FFFFFF",
"@ 	c #3ACF87",
"# 	c #D23638",
"$ 	c #3FDF91",
"% 	c #2DA169",
"& 	c #D03537",
"* 	c #3BD389",
"= 	c #CE3336",
"- 	c #3FE091",
"; 	c #33B676",
"> 	c #CB3135",
", 	c #3EDC8F",
"' 	c #1E6B45",
") 	c #C82F34",
"! 	c #3FE192",
"~ 	c #3AD087",
"{ 	c #C62C32",
"] 	c #F1FDF7",
"^ 	c #278B5A",
"/ 	c #C32A31",
"( 	c #0F3723",
"_ 	c #C12830",
": 	c #38C882",
"< 	c #227B50",
"[ 	c #3DD589",
"} 	c #103925",
"| 	c #143420",
"1 	c #211B07",
"2 	c #282D12",
"3 	c #39BD7A",
"4 	c #120F05",
"5 	c #05110B",
"6 	c #3BC37C",
"7 	c #1D2113",
"8 	c #686142",
"9 	c #88A174",
"0 	c #4A835B",
"a 	c #3D3721",
"b 	c #2A230B",
"c 	c #34B676",
"d 	c #151105",
"e 	c #29220A",
"f 	c #424326",
"g 	c #43B87A",
"h 	c #6E684F",
"i 	c #ACA37C",
"j 	c #7ABD85",
"k 	c #516448",
"l 	c #9A906E",
"m 	c #534B2F",
"n 	c #2A230C",
"o 	c #303B1D",
"p 	c #328858",
"q 	c #59533C",
"r 	c #60583A",
"s 	c #5C6241",
"t 	c #4A9D6A",
"u 	c #7D775A",
"v 	c #AAA07A",
"w 	c #5AD08B",
"x 	c #51533D",
"y 	c #A09672",
"z 	c #9D936E",
"A 	c #5E5638",
"B 	c #315630",
"C 	c #383118",
"D 	c #302810",
"E 	c #50492D",
"F 	c #77825B",
"G 	c #4F815A",
"H 	c #918A69",
"I 	c #ADA47D",
"J 	c #4F5A38",
"K 	c #4E7F59",
"L 	c #8D8565",
"M 	c #A3A078",
"N 	c #44B97A",
"O 	c #676149",
"P 	c #A09771",
"Q 	c #9E956F",
"R 	c #9C936C",
"S 	c #559D67",
"T 	c #113723",
"U 	c #28210A",
"V 	c #5E5639",
"W 	c #837B59",
"X 	c #A9A07A",
"Y 	c #AEA57E",
"Z 	c #99B082",
"` 	c #536C4E",
" .	c #9D9572",
"..	c #889E73",
"+.	c #425C3F",
"@.	c #978E6C",
"#.	c #9DA077",
"$.	c #A09772",
"%.	c #9E9570",
"&.	c #9C936D",
"*.	c #9A916B",
"=.	c #988E69",
"-.	c #51C783",
";.	c #15190B",
">.	c #251F08",
",.	c #847B59",
"'.	c #8FB684",
").	c #536248",
"!.	c #A19874",
"~.	c #8AB17F",
"{.	c #1A2A16",
"].	c #8A8260",
"^.	c #97A076",
"/.	c #968D69",
"(.	c #9D946F",
"_.	c #978E68",
":.	c #807654",
"<.	c #61583A",
"[.	c #484629",
"}.	c #3FE092",
"|.	c #3BAF72",
"1.	c #3E3925",
"2.	c #2D260E",
"3.	c #302912",
"4.	c #9A916D",
"5.	c #ABA27B",
"6.	c #A99F79",
"7.	c #A79D77",
"8.	c #80B580",
"9.	c #3D4C34",
"0.	c #4D462A",
"a.	c #7E9569",
"b.	c #6E6648",
"c.	c #5C5435",
"d.	c #4A4227",
"e.	c #4D4529",
"f.	c #655C3D",
"g.	c #7B7E59",
"h.	c #429663",
"i.	c #665F43",
"j.	c #756D4A",
"k.	c #29220B",
"l.	c #1D1806",
"m.	c #3B341D",
"n.	c #AAA07B",
"o.	c #A89E78",
"p.	c #A69C77",
"q.	c #A59B75",
"r.	c #7AB780",
"s.	c #39412D",
"t.	c #3C341B",
"u.	c #355E36",
"v.	c #463F27",
"w.	c #6C6344",
"x.	c #877D5A",
"y.	c #928863",
"z.	c #8F8661",
"A.	c #848F65",
"B.	c #42744E",
"C.	c #71684A",
"D.	c #857B57",
"E.	c #736A48",
"F.	c #312A11",
"G.	c #6F6748",
"H.	c #8E8462",
"I.	c #696041",
"J.	c #448A58",
"K.	c #2C3220",
"L.	c #6E6647",
"M.	c #4F472B",
"N.	c #61593A",
"O.	c #918762",
"P.	c #8E8560",
"Q.	c #8C835E",
"R.	c #7C9365",
"S.	c #425B3E",
"T.	c #786F4D",
"U.	c #827854",
"V.	c #807652",
"W.	c #736A47",
"X.	c #2E270F",
"Y.	c #27200A",
"Z.	c #877E5B",
"`.	c #60573A",
" +	c #3B331A",
".+	c #60AC73",
"++	c #40DE90",
"@+	c #4C4F3A",
"#+	c #928965",
"$+	c #8D835F",
"%+	c #393118",
"&+	c #6F6646",
"*+	c #8D845F",
"=+	c #8B825C",
"-+	c #89805A",
";+	c #739968",
">+	c #414F36",
",+	c #79704D",
"'+	c #7E7551",
")+	c #7C734F",
"!+	c #7B724D",
"~+	c #776E4A",
"{+	c #383117",
"]+	c #261F08",
"^+	c #1E1806",
"/+	c #4B4428",
"(+	c #6A6243",
"_+	c #8B8260",
":+	c #6AB97E",
"<+	c #42DA8E",
"[+	c #4E4E38",
"}+	c #908661",
"|+	c #7B7350",
"1+	c #484024",
"2+	c #766D4A",
"3+	c #877D59",
"4+	c #837955",
"5+	c #817753",
"6+	c #807651",
"7+	c #7D7450",
"8+	c #7B724E",
"9+	c #786F4C",
"0+	c #605839",
"a+	c #241E09",
"b+	c #6C6545",
"c+	c #9B926C",
"d+	c #998F6A",
"e+	c #978D68",
"f+	c #67B97D",
"g+	c #42D98D",
"h+	c #4D4C37",
"i+	c #8A815B",
"j+	c #6C6241",
"k+	c #3A3218",
"l+	c #847A55",
"m+	c #7E7550",
"n+	c #6C6343",
"o+	c #484025",
"p+	c #2E2710",
"q+	c #261F09",
"r+	c #312A13",
"s+	c #88805B",
"t+	c #968C67",
"u+	c #948A65",
"v+	c #65B97D",
"w+	c #42D68C",
"x+	c #4B4D37",
"y+	c #887F5A",
"z+	c #877D58",
"A+	c #857B56",
"B+	c #534A2D",
"C+	c #443C21",
"D+	c #7A714E",
"E+	c #7E7552",
"F+	c #786E4B",
"G+	c #595132",
"H+	c #322B13",
"I+	c #251E09",
"J+	c #1D1706",
"K+	c #1C1706",
"L+	c #413A20",
"M+	c #62B87B",
"N+	c #43D389",
"O+	c #4C4934",
"P+	c #867C58",
"Q+	c #383018",
"R+	c #262009",
"S+	c #1F1A07",
"T+	c #29230D",
"U+	c #635A3B",
"V+	c #887E59",
"W+	c #867C57",
"X+	c #6E6543",
"Y+	c #3D361D",
"Z+	c #272009",
"`+	c #251E08",
" @	c #2B240C",
".@	c #4A4328",
"+@	c #2B240D",
"@@	c #1E1908",
"#@	c #463E23",
"$@	c #655C3C",
"%@	c #261F0A",
"&@	c #1F1906",
"*@	c #29220D",
"=@	c #26200B",
"-@	c #27210B",
";@	c #201A07",
"                            .         .                         ",
"                                                                ",
"      + + + +             @         @         .                 ",
"      + # # +           $ %       $ %                           ",
"      + & & +           *         *         @             .     ",
"+ + + + = = + + + +   - ;       - ;       $ %                   ",
"+ > > > > > > > > +   , '       , '       *             @       ",
"+ ) ) ) ) ) ) ) ) + ! ~       ! ~       - ;           $ %       ",
"+ + + + { { + + + ] ! ^       ! ^       , '           *         ",
"      + / / +     ! - (     ! - (     ! ~           - ;         ",
"      + _ _ +     ! :       ! :       ! ^           , '         ",
"      + + + +     ! <       ! <     [ $ (         ! ~           ",
"                  ! }       ! | 1 2 ! 3 4         ! ^           ",
"                ! ! 5     6 ! 7 8 9 ! 0 a b     ! - (           ",
"                ! c d e f ! g h i j ! k l m n   ! :             ",
"              o ! p q r s ! t u v w ! x y z A B ! <             ",
"        C D E F ! G H I J ! K L M ! N O P Q R S ! T             ",
"    U V W X Y Z ! `  .i ..! +.@.#.z $.%.&.*.=.-.! ;.            ",
"    >.,.Y Y Y '.! ).!.v ~.! {.].^./.(._.:.<.[.}.|.1.2.          ",
"      3.4.Y I i 5.v 6.7.8.! 9.0.a.b.c.d.e.f.g.! h.i.j.k.        ",
"      l.m.I i n.6.o.p.q.r.! s.t.u.v.w.x.y.z.A.! B.C.D.E.F.      ",
"        1 G.v o.7.q.H.I.J.! K.L.M.N.y.O.P.Q.R.! S.T.U.V.W.X.    ",
"          Y.P Z.`. +C A .+++@+#+$+%+&+*+=+-+;+! >+,+'+)+!+~+{+]+",
"          ^+n /+(+_+&.*.:+<+[+}+z.|+1+2+3+D.4+5+6+7+8+)+9+0+%+]+",
"            a+b+(.c+d+e+f+g+h+Q.Q.i+j+k+l+U.V.m+7+)+n+o+p+q+    ",
"              r+s+=.t+u+v+w+x+y+-+z+A+B+C+D+E+F+G+H+I+J+        ",
"              K+L+u+y.z.M+N+O+P+D.4+5+V.1+C+Q+R+S+              ",
"                T+U+P.Q.i+V+W+l+U.4+X+Y+Z+`+                    ",
"                   @7+-+z+l+5+&+.@+@a+l.                        ",
"                  @@#@V.V.$@H+%@&@                              ",
"                    *@=@-@;@                                    ",
"                                                                "};
