/* XPM */
static char * q:\Maya\src\AWplugins\XGen\src\xgen\src\xgmaya\icons\xgCullPrimContextSelect_xpm[] = {
"32 32 136 2",
"  	c None",
". 	c #D23638",
"+ 	c #000000",
"@ 	c #3DDA8D",
"# 	c #3DD88C",
"$ 	c #000201",
"% 	c #3DD98D",
"& 	c #020906",
"* 	c #3EDC8F",
"= 	c #030A06",
"- 	c #3EDD8F",
"; 	c #3EDE90",
"> 	c #030B07",
", 	c #3FDF91",
"' 	c #030C08",
") 	c #3FE091",
"! 	c #3FE192",
"~ 	c #040D09",
"{ 	c #261F08",
"] 	c #BF3333",
"^ 	c #28210A",
"/ 	c #2F2810",
"( 	c #40391F",
"_ 	c #564E31",
": 	c #696041",
"< 	c #776E4D",
"[ 	c #807655",
"} 	c #837B59",
"| 	c #827A57",
"1 	c #7A7251",
"2 	c #6F6747",
"3 	c #615A3B",
"4 	c #4F472B",
"5 	c #3C351B",
"6 	c #2D260E",
"7 	c #282109",
"8 	c #3ABA76",
"9 	c #1C1706",
"0 	c #4B2613",
"a 	c #2D2712",
"b 	c #585133",
"c 	c #856C4E",
"d 	c #8E8662",
"e 	c #8D8561",
"f 	c #8C8360",
"g 	c #8B825F",
"h 	c #8A815E",
"i 	c #88805D",
"j 	c #877F5B",
"k 	c #857D5A",
"l 	c #847C59",
"m 	c #807755",
"n 	c #7E7654",
"o 	c #7C7352",
"p 	c #7A7150",
"q 	c #69412C",
"r 	c #532D1A",
"s 	c #292C12",
"t 	c #327D4B",
"u 	c #0F0C03",
"v 	c #2B4825",
"w 	c #304A27",
"x 	c #3F3820",
"y 	c #746C4C",
"z 	c #928966",
"A 	c #928965",
"B 	c #918965",
"C 	c #908864",
"D 	c #908763",
"E 	c #8F8663",
"F 	c #8D8562",
"G 	c #8C8461",
"H 	c #8B835F",
"I 	c #89815E",
"J 	c #887F5C",
"K 	c #867E5B",
"L 	c #807856",
"M 	c #7E7554",
"N 	c #797150",
"O 	c #776F4E",
"P 	c #756D4C",
"Q 	c #534D32",
"R 	c #3D5935",
"S 	c #26200B",
"T 	c #2B4523",
"U 	c #3BC37C",
"V 	c #35965C",
"W 	c #28210C",
"X 	c #444629",
"Y 	c #747C57",
"Z 	c #948C67",
"` 	c #958C67",
" .	c #948B67",
"..	c #948B68",
"+.	c #938B67",
"@.	c #938B66",
"#.	c #928A66",
"$.	c #918865",
"%.	c #8E8663",
"&.	c #8D8462",
"*.	c #8C835F",
"=.	c #89825F",
"-.	c #827957",
";.	c #7B7351",
">.	c #766E4D",
",.	c #746C4B",
"'.	c #726A49",
").	c #595134",
"!.	c #393C20",
"~.	c #2F4D29",
"{.	c #171305",
"].	c #332C14",
"^.	c #635B3F",
"/.	c #968D69",
"(.	c #978E69",
"_.	c #978E6A",
":.	c #978F6A",
"<.	c #968E69",
"[.	c #958D68",
"}.	c #958C68",
"|.	c #8F8763",
"1.	c #8E8562",
"2.	c #8B8360",
"3.	c #887F5D",
"4.	c #867D5A",
"5.	c #847B59",
"6.	c #817957",
"7.	c #7F7754",
"8.	c #7C7453",
"9.	c #7A7351",
"0.	c #78704E",
"a.	c #736B4A",
"b.	c #716848",
"c.	c #6E6646",
"d.	c #4E5F3B",
"e.	c #2B240E",
"          . .     . .     . .     . .     . .     .             ",
"            + +     + +     + +     + +     + +   . +           ",
"                                                    +           ",
"          .                                                     ",
"          . +                                     .             ",
"            +                                     . +           ",
"                                                    +           ",
"          .                                                     ",
"          . +                                     .             ",
"      @     +                                     . +           ",
"      #                                             $           ",
"@     #   .                                           @         ",
"#     %   . +                                     .   #         ",
"#     @     +                                     . & #     @   ",
"%     *                                             = %     #   ",
"@     -   .                                           @     #   ",
"*     -   . +                                     .   *     %   ",
"-     ;     +                                     . > -     @   ",
"-     ,                                             ' -     *   ",
";     )   .                                           ;     -   ",
",     )   . +                                     .   ,     -   ",
")     !     +                                     . ~ )     ;   ",
")     !                                             ~ )     ,   ",
"!     !   .                                           !     )   ",
"!     !   . +                                     .   !     )   ",
"!     !     +                                     . ~ !     !   ",
"!     !               { { { { { { { { { {           ~ !     !   ",
"!     !   ]   { ^ / ( _ : < [ } | 1 2 3 4 5 6 7 {     !     !   ",
"!     8 9 0 a b c d e f g h i j k l | m n o p : q r s t u   !   ",
"!   v w x y z A B C D E F G H I J K l | L M o N O P Q R S T U   ",
"V W X Y Z `  ...+.@.#.$.C %.&.*.=.i K l -.m n ;.N >.,.'.).!.~.{.",
"].^./.(._.:._._.<.[.}. .#.C |.1.2.h 3.4.5.6.7.8.9.0.P a.b.c.d.e."};
