/* XPM */
static char * xgDEditor_xpm[] = {
"32 32 534 2",
"  	c None",
". 	c #0F00FF",
"+ 	c #3E57F0",
"@ 	c #6E98AE",
"# 	c #00004F",
"$ 	c #3249FF",
"% 	c #3C58D9",
"& 	c #0000BA",
"* 	c #0000C6",
"= 	c #5985D7",
"- 	c #00001A",
"; 	c #76A5F2",
"> 	c #3248DF",
", 	c #2C3FCB",
"' 	c #77A6EC",
") 	c #0000FF",
"! 	c #4A5EFF",
"~ 	c #5170E4",
"{ 	c #00007E",
"] 	c #4462A2",
"^ 	c #04069E",
"/ 	c #4E6796",
"( 	c #000038",
"_ 	c #000082",
": 	c #2837B3",
"< 	c #000073",
"[ 	c #091280",
"} 	c #5469AF",
"| 	c #0000C0",
"1 	c #6E97D1",
"2 	c #1B2E93",
"3 	c #04013B",
"4 	c #567FD8",
"5 	c #3445C3",
"6 	c #97B487",
"7 	c #505DDE",
"8 	c #4951FF",
"9 	c #00006C",
"0 	c #000025",
"a 	c #1112B2",
"b 	c #486392",
"c 	c #0E1C9B",
"d 	c #000062",
"e 	c #7BA6E2",
"f 	c #0607FF",
"g 	c #1022B2",
"h 	c #2126B5",
"i 	c #7298FF",
"j 	c #749EB5",
"k 	c #000078",
"l 	c #2B3FC5",
"m 	c #293CC7",
"n 	c #000000",
"o 	c #3448FF",
"p 	c #5E7CFF",
"q 	c #0A16AD",
"r 	c #1C31EA",
"s 	c #527C86",
"t 	c #000087",
"u 	c #0000AA",
"v 	c #7A8EBA",
"w 	c #474DFF",
"x 	c #5171FF",
"y 	c #182BE5",
"z 	c #1C1781",
"A 	c #4E65BB",
"B 	c #2E32A6",
"C 	c #374D86",
"D 	c #37542B",
"E 	c #000054",
"F 	c #000384",
"G 	c #374CB7",
"H 	c #000094",
"I 	c #516A82",
"J 	c #3E58C7",
"K 	c #120522",
"L 	c #0106D3",
"M 	c #00004C",
"N 	c #000031",
"O 	c #7C90CB",
"P 	c #2332D9",
"Q 	c #101CFF",
"R 	c #74A5FF",
"S 	c #4B64AE",
"T 	c #0C0FB6",
"U 	c #0000ED",
"V 	c #05086E",
"W 	c #7CA0C1",
"X 	c #3545B9",
"Y 	c #3F63FF",
"Z 	c #6B7778",
"` 	c #00002E",
" .	c #586BAC",
"..	c #6D8F7E",
"+.	c #5069F8",
"@.	c #6379FF",
"#.	c #21219D",
"$.	c #2B4496",
"%.	c #7EC2EC",
"&.	c #2D259D",
"*.	c #1A248D",
"=.	c #19217C",
"-.	c #000052",
";.	c #223FC5",
">.	c #5E88FF",
",.	c #3F5EE4",
"'.	c #3E5F9A",
").	c #00004A",
"!.	c #111D95",
"~.	c #97D9B1",
"{.	c #3F5EF4",
"].	c #2B57D6",
"^.	c #3F6F92",
"/.	c #8F965B",
"(.	c #566A9B",
"_.	c #6A7B81",
":.	c #1421B5",
"<.	c #0000DE",
"[.	c #2738E1",
"}.	c #3452ED",
"|.	c #313D69",
"1.	c #85B0A7",
"2.	c #384665",
"3.	c #2552C4",
"4.	c #5F93ED",
"5.	c #4362BB",
"6.	c #303E54",
"7.	c #465EF8",
"8.	c #000067",
"9.	c #70B0EB",
"0.	c #597BCA",
"a.	c #7BB3E8",
"b.	c #2142CA",
"c.	c #0006FF",
"d.	c #182695",
"e.	c #000057",
"f.	c #7D8561",
"g.	c #3F5632",
"h.	c #A3BEB5",
"i.	c #5B74FF",
"j.	c #3D68FC",
"k.	c #3957B9",
"l.	c #18222C",
"m.	c #16223D",
"n.	c #3E40B6",
"o.	c #1F2BC7",
"p.	c #251769",
"q.	c #13096A",
"r.	c #111A39",
"s.	c #485263",
"t.	c #2D35BB",
"u.	c #5984E9",
"v.	c #162085",
"w.	c #304FF8",
"x.	c #000011",
"y.	c #151DFC",
"z.	c #091183",
"A.	c #000050",
"B.	c #00004D",
"C.	c #000079",
"D.	c #1321D9",
"E.	c #001AA9",
"F.	c #0000A0",
"G.	c #000027",
"H.	c #4D543D",
"I.	c #344490",
"J.	c #4B76F1",
"K.	c #90B7E0",
"L.	c #2542AB",
"M.	c #5387E8",
"N.	c #141BC5",
"O.	c #140234",
"P.	c #2735E6",
"Q.	c #2132E6",
"R.	c #1E2DDA",
"S.	c #2E49D1",
"T.	c #334EA8",
"U.	c #5171EB",
"V.	c #000064",
"W.	c #0000FC",
"X.	c #00006F",
"Y.	c #0F082A",
"Z.	c #3A4F31",
"`.	c #131B95",
" +	c #0000D6",
".+	c #3F5795",
"++	c #81B0FF",
"@+	c #000005",
"#+	c #3B3904",
"$+	c #0C1470",
"%+	c #1B2FF5",
"&+	c #405D51",
"*+	c #2E4182",
"=+	c #4361D4",
"-+	c #1119CC",
";+	c #618680",
">+	c #A3F2ED",
",+	c #080F6E",
"'+	c #000061",
")+	c #3250D2",
"!+	c #000158",
"~+	c #0D16C9",
"{+	c #293389",
"]+	c #414BFF",
"^+	c #241C41",
"/+	c #3E271E",
"(+	c #789F8B",
"_+	c #3B50C4",
":+	c #2D4099",
"<+	c #85B6DE",
"[+	c #435A5C",
"}+	c #00000F",
"|+	c #00002F",
"1+	c #131DDA",
"2+	c #466798",
"3+	c #5A79E1",
"4+	c #3D5154",
"5+	c #1D2371",
"6+	c #0000A4",
"7+	c #2845BB",
"8+	c #020B60",
"9+	c #5E7092",
"0+	c #304457",
"a+	c #151ED3",
"b+	c #282300",
"c+	c #526361",
"d+	c #2C48BD",
"e+	c #4D62C3",
"f+	c #2E436F",
"g+	c #131C6E",
"h+	c #5776FF",
"i+	c #6E9CD7",
"j+	c #5E7DFF",
"k+	c #0000AF",
"l+	c #698B72",
"m+	c #5B75FF",
"n+	c #161D18",
"o+	c #708C4B",
"p+	c #00008F",
"q+	c #0C19C2",
"r+	c #3D4AB2",
"s+	c #6E9394",
"t+	c #3A5FE7",
"u+	c #1823FF",
"v+	c #587DFF",
"w+	c #000003",
"x+	c #000002",
"y+	c #000004",
"z+	c #6DACCA",
"A+	c #5590FF",
"B+	c #5E73DB",
"C+	c #000099",
"D+	c #425E7E",
"E+	c #5D94FF",
"F+	c #00009E",
"G+	c #0C0EA6",
"H+	c #0F1BA6",
"I+	c #2B40C0",
"J+	c #5E8AD3",
"K+	c #70AAFF",
"L+	c #20399C",
"M+	c #88B3A9",
"N+	c #0D151B",
"O+	c #00000B",
"P+	c #343B2A",
"Q+	c #142D13",
"R+	c #4F7FB2",
"S+	c #04006D",
"T+	c #0006F1",
"U+	c #00009D",
"V+	c #0000A6",
"W+	c #191725",
"X+	c #3A3494",
"Y+	c #4F479A",
"Z+	c #1D1BC0",
"`+	c #000077",
" @	c #00006E",
".@	c #2544D3",
"+@	c #091ACA",
"@@	c #627CE0",
"#@	c #719760",
"$@	c #496279",
"%@	c #00009C",
"&@	c #2026CC",
"*@	c #00069A",
"=@	c #5D9CFF",
"-@	c #466584",
";@	c #1621B1",
">@	c #000063",
",@	c #00007D",
"'@	c #A19A41",
")@	c #484B9D",
"!@	c #000292",
"~@	c #717831",
"{@	c #0D0B8F",
"]@	c #344E8D",
"^@	c #5F89F9",
"/@	c #21329D",
"(@	c #80B9FF",
"_@	c #88AAB0",
":@	c #E4E6E9",
"<@	c #E6DED7",
"[@	c #0000F4",
"}@	c #020368",
"|@	c #567CE2",
"1@	c #0718BD",
"2@	c #0026FF",
"3@	c #355383",
"4@	c #9E8F2C",
"5@	c #D4CD6D",
"6@	c #0000D5",
"7@	c #787797",
"8@	c #7A6CBB",
"9@	c #162AA5",
"0@	c #0006DE",
"a@	c #0D1798",
"b@	c #2E55C6",
"c@	c #F6ECDF",
"d@	c #41454D",
"e@	c #505158",
"f@	c #51555E",
"g@	c #95DDFF",
"h@	c #A9FAFA",
"i@	c #000043",
"j@	c #00007A",
"k@	c #263DCF",
"l@	c #000065",
"m@	c #212089",
"n@	c #7A671B",
"o@	c #252A97",
"p@	c #3B4E5E",
"q@	c #2E59FF",
"r@	c #3F58F6",
"s@	c #352C83",
"t@	c #9AA420",
"u@	c #888A62",
"v@	c #000080",
"w@	c #F4F5F5",
"x@	c #EAECED",
"y@	c #C5C8CB",
"z@	c #C0C4C8",
"A@	c #A8ADB1",
"B@	c #383FFF",
"C@	c #5A81B1",
"D@	c #69829E",
"E@	c #353665",
"F@	c #0000C1",
"G@	c #5652A0",
"H@	c #D6CEA8",
"I@	c #5C64C6",
"J@	c #0000F6",
"K@	c #00007F",
"L@	c #1E29D1",
"M@	c #4B5C99",
"N@	c #213878",
"O@	c #000068",
"P@	c #556D70",
"Q@	c #A3B7C9",
"R@	c #E9EAEA",
"S@	c #B8BABC",
"T@	c #3A4A4B",
"U@	c #1A0B09",
"V@	c #46595C",
"W@	c #3259D5",
"X@	c #5089AC",
"Y@	c #2540EC",
"Z@	c #0000FD",
"`@	c #2E2A19",
" #	c #63682A",
".#	c #1A1334",
"+#	c #0000C4",
"@#	c #000056",
"##	c #436C6A",
"$#	c #567FFF",
"%#	c #00004E",
"&#	c #3E6292",
"*#	c #294FF2",
"=#	c #D4D5D3",
"-#	c #90CEDC",
";#	c #0D12E0",
">#	c #3A5DF5",
",#	c #76B0FF",
"'#	c #4160C6",
")#	c #4060A3",
"!#	c #020D99",
"~#	c #000047",
"{#	c #5D5858",
"]#	c #888D4D",
"^#	c #5477A4",
"/#	c #2C4CE2",
"(#	c #2C51E2",
"_#	c #4880E7",
":#	c #000066",
"<#	c #F5F6F6",
"[#	c #E3E6E8",
"}#	c #F3F5F5",
"|#	c #4F3A29",
"1#	c #0000A7",
"2#	c #253AFF",
"3#	c #0000E5",
"4#	c #5891FA",
"5#	c #436CFF",
"6#	c #2E4EFF",
"7#	c #000095",
"8#	c #0000F0",
"9#	c #B8AB8F",
"0#	c #D6C3BC",
"a#	c #0000FA",
"b#	c #0007BF",
"c#	c #648ED4",
"d#	c #0107B2",
"e#	c #65A1D0",
"f#	c #323D81",
"g#	c #E0E3E5",
"h#	c #EDEFF0",
"i#	c #F2F3F3",
"j#	c #9E9D9A",
"k#	c #674C39",
"l#	c #5A4130",
"m#	c #0000E6",
"n#	c #020CAE",
"o#	c #3F4EAA",
"p#	c #6EB1C4",
"q#	c #3757D2",
"r#	c #0C1EBD",
"s#	c #162E88",
"t#	c #2511AB",
"u#	c #E5D46D",
"v#	c #9AB9BB",
"w#	c #617AE6",
"x#	c #0001E7",
"y#	c #2537CB",
"z#	c #556F89",
"A#	c #000029",
"B#	c #CBCECE",
"C#	c #D6D6D5",
"D#	c #D9D9D9",
"E#	c #F0F0F0",
"F#	c #606568",
"G#	c #0000CD",
"H#	c #2B1E8F",
"I#	c #986E4E",
"J#	c #0000EF",
"K#	c #1418DA",
"L#	c #233DC0",
"M#	c #94E3E8",
"N#	c #6496FF",
"O#	c #8BDBFF",
"P#	c #8CBCFF",
"Q#	c #766AB3",
"R#	c #00007B",
"S#	c #4D8098",
"T#	c #7CC8EC",
"U#	c #364C47",
"V#	c #49737F",
"W#	c #CCCFCF",
"X#	c #D4D4D4",
"Y#	c #D6D6D6",
"Z#	c #E6E6E7",
"`#	c #48595A",
" $	c #120B36",
".$	c #1229D0",
"+$	c #A06C46",
"@$	c #856046",
"#$	c #121887",
"$$	c #0000B7",
"%$	c #0000C2",
"&$	c #1D47D8",
"*$	c #0000CB",
"=$	c #2B63A5",
"-$	c #3A5ADB",
";$	c #416CC7",
">$	c #01013B",
",$	c #7F8B91",
"'$	c #D0D2D4",
")$	c #D2D2D3",
"!$	c #D3D3D3",
"~$	c #D7D8D8",
"{$	c #76AE6A",
"]$	c #71A4CC",
"^$	c #936A49",
"/$	c #A76F47",
"($	c #0B18E9",
"_$	c #141BB6",
":$	c #547AFF",
"<$	c #0000DC",
"[$	c #0C125A",
"}$	c #638B67",
"|$	c #5390BC",
"1$	c #2141D3",
"2$	c #04054B",
"3$	c #C6CACD",
"4$	c #D0D4D5",
"5$	c #D6D9DA",
"6$	c #3A58B3",
"7$	c #8B6D53",
"8$	c #AF6F40",
"9$	c #986D4D",
"0$	c #020041",
"a$	c #E2FFFF",
"b$	c #212D77",
"c$	c #2935FF",
"d$	c #3F55F3",
"e$	c #82A87F",
"f$	c #1D343B",
"g$	c #091400",
"h$	c #00000A",
"i$	c #506365",
"j$	c #00000D",
"k$	c #091437",
"l$	c #000024",
"m$	c #B26F3F",
"n$	c #B06E3D",
"o$	c #7E634D",
"p$	c #173BCE",
"q$	c #6B9C97",
"r$	c #1C2E3D",
"s$	c #01081B",
"t$	c #00002D",
"u$	c #00011E",
"v$	c #00076C",
"w$	c #393C18",
"x$	c #AB7049",
"y$	c #AD7042",
"z$	c #725843",
"A$	c #36537A",
"B$	c #111C1D",
"C$	c #060E42",
"D$	c #000866",
"E$	c #0B1150",
"F$	c #101EB1",
"G$	c #00021C",
"H$	c #000009",
"I$	c #000014",
"                                                                ",
"                                        .     + @ #             ",
"    $ % &                                     * = - ; >         ",
"      , ' ) !     ~                           { ] ^ / (         ",
"      _ : < [ } | 1                         2 3 4 5 6 7 8       ",
"      9 0 a b c d e f                     g h i j k l m n       ",
"    o p q r s t u v w             x y ) z A B C D E F G k       ",
"    H I J K L M N O P Q       R   S T U V W X Y Z `  ...        ",
"    ) +.@.#.$.%.t &.*.=.-.  ;.>.,.'.).!.~.{.].^./.(._.:.        ",
"      <.[.}.|.1.2.3.4.5.6.7.8.9.0.a.b.c.d.e.f.g.h.i.j.k.        ",
"      l.m.n.o.p.q.k r.s.t.u.v.w.x.y.z.A.B.C.D.E.F.G.H.I.        ",
"      n J.K.L.M.N.O.P.Q.R.S.T.U.V.W.X.Y.Z.`. +.+++@+#+$+        ",
"        %+&+*+=+-+;+>+,+'+)+!+~+{+]+^+/+(+_+:+<+[+n }+          ",
"        |+n n 1+2+3+4+5+6+7+8+9+0+a+b+c+d+e+f+g+n @+            ",
"          n n h+i+j+k+l+m+H n+o+p+q+r+s+t+u+v+n w+x+            ",
"            y+z+A+B+C+D+E+9 F+G+) H+I+J+K+L+M+N+O+P+            ",
"            n Q+R+S+T+U+V+W+X+Y+Z+`+ @.@+@@@#@$@%@              ",
"            &@*@=@-@;@>@,@'@)@!@~@{@]@^@/@(@_@:@:@:@<@          ",
"          [@V.}@|@1@2@3@4@5@) 6@7@8@9@0@a@b@c@<@d@d@e@f@        ",
"      g@h@) i@j@k@l@m@n@o@p@q@r@F.s@t@u@v@<@<@d@w@x@y@z@A@      ",
"      B@C@D@E@F@) G@H@I@J@K@L@M@N@O@P@Q@c@<@<@R@S@T@U@U@V@T@    ",
"      W@X@Y@) Z@`@ #.#+#@###$#%#&#U+*#c@=#=#c@<@U@U@-#;#Z@>#    ",
"  ,#  '#)#!#~#{#]#^#/#F@(#_#:#<#<#c@c@[#}#}#c@U@|#1#2#J@3#4#5#  ",
"  6#) 7#8#6+9#0#a#b#c#d#e#f#<#<#c@g#h#i#[#j#U@k#l#|#m#n#o#p#    ",
"  q#r#s#t#u#v#w#x#y#z#A#n A#<#B#C#D#E#<#F#G#H#|#I#|#F.J#K#L#    ",
"  M#N#O#P#Q#R#S#T#U#V#n n n <#W#X#X#Y#Z#`# $.$|#+$@$|#t V.#$    ",
"    $$%$&$$$*$=$-$n ;$n >$    ,$'$)$!$~$`#{$]$|#^$/$|#F@($_$    ",
"    :$<$M [$}$|$1$n 2$n       ,$,$3$4$5$`#n 6$|#7$8$9$|#F.0$    ",
"    a$b$c$d$e$f$g$n h$          `#`#i$`#`#j$k$l$|#m$n$o$|#p$    ",
"      n q$r$s$t$n n u$                    v$n w$|#x$y$z$|#A$    ",
"      n B$n n C$                            D$E$|#|#|#|#F$      ",
"          G$                                  n H$I$n n         "};
