/* XPM */
static char * q:\Maya\src\AWplugins\XGen\src\xgen\src\xgmaya\icons\xgFlipGuides_xpm[] = {
"32 32 245 2",
"  	c None",
". 	c #B23032",
"+ 	c #AD2F30",
"@ 	c #9A2C2D",
"# 	c #C23335",
"$ 	c #D23638",
"% 	c #39CA83",
"& 	c #CE3537",
"* 	c #BD3638",
"= 	c #53ABE7",
"- 	c #2DA068",
"; 	c #1E1111",
"> 	c #C43436",
", 	c #5C2424",
"' 	c #281313",
") 	c #438ABB",
"! 	c #94292A",
"~ 	c #5B2020",
"{ 	c #2B1314",
"] 	c #4FA3DD",
"^ 	c #36BF7C",
"/ 	c #240E0F",
"( 	c #1A0808",
"_ 	c #55B0EE",
": 	c #3E81AF",
"< 	c #3BD389",
"[ 	c #227A4F",
"} 	c #52A9E5",
"| 	c #1D3C51",
"1 	c #3CD68B",
"2 	c #38C983",
"3 	c #57B4F4",
"4 	c #4793C7",
"5 	c #3DDA8D",
"6 	c #1F6D47",
"7 	c #57B3F3",
"8 	c #28526F",
"9 	c #3EDC8F",
"0 	c #3BD188",
"a 	c #020705",
"b 	c #59B8F9",
"c 	c #52AAE6",
"d 	c #070F14",
"e 	c #3FDF91",
"f 	c #12402A",
"g 	c #000000",
"h 	c #5AB9FB",
"i 	c #356D93",
"j 	c #3FE091",
"k 	c #56B3F2",
"l 	c #142937",
"m 	c #3EDD8F",
"n 	c #3FE192",
"o 	c #05130D",
"p 	c #5ABAFC",
"q 	c #12412A",
"r 	c #2E5F80",
"s 	c #34B978",
"t 	c #258456",
"u 	c #142A39",
"v 	c #54AEEC",
"w 	c #4187B7",
"x 	c #3ACF87",
"y 	c #21744C",
"z 	c #35BC7A",
"A 	c #58B5F5",
"B 	c #060C11",
"C 	c #51A7E2",
"D 	c #3CD58A",
"E 	c #37C47F",
"F 	c #3DDB8E",
"G 	c #040F0A",
"H 	c #4A9AD1",
"I 	c #448EC0",
"J 	c #3CD78C",
"K 	c #081D13",
"L 	c #3B7BA6",
"M 	c #27516E",
"N 	c #2C9E66",
"O 	c #0C291B",
"P 	c #2A5675",
"Q 	c #4D9FD7",
"R 	c #13422B",
"S 	c #193547",
"T 	c #3E80AD",
"U 	c #14472E",
"V 	c #1A5D3C",
"W 	c #112430",
"X 	c #56B1F0",
"Y 	c #234963",
"Z 	c #3DD98D",
"` 	c #268858",
" .	c #207149",
"..	c #11222E",
"+.	c #54ADEA",
"@.	c #10212C",
"#.	c #34BA79",
"$.	c #237C51",
"%.	c #0B161E",
"&.	c #020805",
"*.	c #268758",
"=.	c #091219",
"-.	c #59B9FA",
";.	c #458EC1",
">.	c #3EDE90",
",.	c #04100A",
"'.	c #28905D",
").	c #070E13",
"!.	c #39759F",
"~.	c #06170F",
"{.	c #2A9561",
"].	c #56B2F1",
"^.	c #58B6F7",
"/.	c #050A0E",
"(.	c #285371",
"_.	c #0A2417",
":.	c #3DD086",
"<.	c #245C38",
"[.	c #1C1706",
"}.	c #25220A",
"|.	c #2C4E29",
"1.	c #272E13",
"2.	c #251E08",
"3.	c #261F08",
"4.	c #282410",
"5.	c #2D342A",
"6.	c #211B09",
"7.	c #241D08",
"8.	c #365157",
"9.	c #4B8EB7",
"0.	c #0C1214",
"a.	c #13301E",
"b.	c #26210A",
"c.	c #2C4121",
"d.	c #2E361B",
"e.	c #3A341C",
"f.	c #554F31",
"g.	c #62764F",
"h.	c #6F734F",
"i.	c #7D7353",
"j.	c #827A58",
"k.	c #827A57",
"l.	c #797457",
"m.	c #6C705B",
"n.	c #575136",
"o.	c #4D452A",
"p.	c #3F4537",
"q.	c #35413A",
"r.	c #241E09",
"s.	c #54A9E1",
"t.	c #122431",
"u.	c #327D4B",
"v.	c #26260E",
"w.	c #332D15",
"x.	c #585133",
"y.	c #757F58",
"z.	c #8E8662",
"A.	c #8D8561",
"B.	c #8C8360",
"C.	c #8B825F",
"D.	c #8A815E",
"E.	c #88805D",
"F.	c #877F5B",
"G.	c #857D5A",
"H.	c #847C59",
"I.	c #807755",
"J.	c #7E7654",
"K.	c #7C7352",
"L.	c #7A7150",
"M.	c #625A3D",
"N.	c #4A4228",
"O.	c #34311C",
"P.	c #32403A",
"Q.	c #1E2016",
"R.	c #2C280F",
"S.	c #44613B",
"T.	c #6B6949",
"U.	c #928966",
"V.	c #928965",
"W.	c #918965",
"X.	c #908864",
"Y.	c #908763",
"Z.	c #8F8663",
"`.	c #8D8562",
" +	c #8C8461",
".+	c #8B835F",
"++	c #89815E",
"@+	c #887F5C",
"#+	c #867E5B",
"$+	c #807856",
"%+	c #7E7554",
"&+	c #797150",
"*+	c #776F4E",
"=+	c #756D4C",
"-+	c #5D6352",
";+	c #352F1B",
">+	c #29220C",
",+	c #2C250D",
"'+	c #443C22",
")+	c #7A7050",
"!+	c #948C67",
"~+	c #958C67",
"{+	c #948B67",
"]+	c #948B68",
"^+	c #938B67",
"/+	c #938B66",
"(+	c #928A66",
"_+	c #918865",
":+	c #8E8663",
"<+	c #8D8462",
"[+	c #8C835F",
"}+	c #89825F",
"|+	c #827957",
"1+	c #7B7351",
"2+	c #766E4D",
"3+	c #746C4B",
"4+	c #726A49",
"5+	c #5C5436",
"6+	c #393219",
"7+	c #2A230B",
"8+	c #342D14",
"9+	c #6A6143",
"0+	c #968D69",
"a+	c #978E69",
"b+	c #978E6A",
"c+	c #978F6A",
"d+	c #968E69",
"e+	c #958D68",
"f+	c #958C68",
"g+	c #8F8763",
"h+	c #8E8562",
"i+	c #8B8360",
"j+	c #887F5D",
"k+	c #867D5A",
"l+	c #847B59",
"m+	c #817957",
"n+	c #7F7754",
"o+	c #7C7453",
"p+	c #7A7351",
"q+	c #78704E",
"r+	c #736B4A",
"s+	c #716848",
"t+	c #6E6646",
"u+	c #50492C",
"v+	c #2E270F",
"                                . +                             ",
"                                @ # $                           ",
"            %         $ $ $ $ $ $ & $ $ *       =               ",
"              -         ; ; ; ; @ # > , '       )               ",
"              %                 ! ~ {         ]                 ",
"                ^               / (         _ :                 ",
"    %           < [                         } |         =       ",
"      -         1 2                       3 4           )       ",
"      %           5 6                     7 8         ]         ",
"        ^         9 0 a                 b c d       _ :         ",
"        < [         e f       g         h i         } |         ",
"        1 2         j -       g       k h l       3 4           ",
"          5 6       m n o     g       p ]         7 8           ",
"          9 0 a       n q     g       p r       b c d           ",
"  s         e f       n t     g       p u       h i       v w   ",
"  x y       j -       n z     g     A p B     k h l       C     ",
"  D E       m n o     F n G   g     p H       p ]       3 I     ",
"    x         n q     J n K   g     p L       p r       v M     ",
"    1 N       n t       n O   g     p P       p u       Q       ",
"    D x       n z       n R   g     p S     A p B     A T       ",
"      1 U     F n G     n V   g     p W     p H       X Y       ",
"      Z `     J n K     n  .  g     p ..    p L       +.@.      ",
"      m #.      n O     n $.  g     p %.    p P     A c         ",
"      Z F &.    n R     n *.  g     p =.    p S     -.;.        ",
"      1 >.,.    n V     j '.  g   X -.).    p W     h !.        ",
"        j ~.    n  .    j {.  g   ].^./.    p ..    p (.        ",
"        n _.    :.<.[.}.|.1.2.3.3.4.5.6.7.8.9.0.    p S         ",
"        n a.  b.c.d.e.f.g.h.i.j.k.l.m.n.o.p.q.r.7.  s.t.        ",
"        u.v.w.x.y.z.A.B.C.D.E.F.G.H.k.I.J.K.L.M.N.O.P.Q.        ",
"    3.R.S.T.U.V.W.X.Y.Z.`. +.+++@+#+H.k.$+%+K.&+*+=+-+;+>+3.    ",
"  ,+'+)+!+~+{+]+^+/+(+_+X.:+<+[+}+E.#+H.|+I.J.1+&+2+3+4+5+6+7+  ",
"8+9+0+a+b+c+b+b+d+e+f+{+(+X.g+h+i+D.j+k+l+m+n+o+p+q+=+r+s+t+u+v+"};
