/* XPM */
static char * q:\Maya\src\AWplugins\XGen\src\xgen\src\xgmaya\icons\xgGuideContext_xpm[] = {
"32 32 134 2",
"  	c None",
". 	c #43FFA3",
"+ 	c #42FAA0",
"@ 	c #35C980",
"# 	c #FFFFFF",
"$ 	c #3FF19A",
"% 	c #3FEE98",
"& 	c #41F99F",
"* 	c #1B6742",
"= 	c #D23638",
"- 	c #2CA96C",
"; 	c #3CE592",
"> 	c #D03537",
", 	c #42FBA0",
"' 	c #248958",
") 	c #CE3336",
"! 	c #2FB272",
"~ 	c #3CE391",
"{ 	c #CB3135",
"] 	c #41F69D",
"^ 	c #42FCA1",
"/ 	c #258E5B",
"( 	c #C82F34",
"_ 	c #40F39B",
": 	c #3FEF99",
"< 	c #3ADB8C",
"[ 	c #3ADE8E",
"} 	c #C62C32",
"| 	c #1F764B",
"1 	c #41F89F",
"2 	c #2CA66A",
"3 	c #C32A31",
"4 	c #C12830",
"5 	c #33C27C",
"6 	c #3ADD8D",
"7 	c #43FEA2",
"8 	c #1D6E46",
"9 	c #289A62",
"0 	c #39DA8B",
"a 	c #3DE794",
"b 	c #2BA569",
"c 	c #31BB78",
"d 	c #B2252B",
"e 	c #B0252C",
"f 	c #A42229",
"g 	c #851E23",
"h 	c #30B674",
"i 	c #40F19A",
"j 	c #1E7249",
"k 	c #350E10",
"l 	c #C62730",
"m 	c #BD262E",
"n 	c #BA252C",
"o 	c #AC252B",
"p 	c #217E50",
"q 	c #41F79D",
"r 	c #4F1517",
"s 	c #C12C30",
"t 	c #C2252D",
"u 	c #53191B",
"v 	c #40F29B",
"w 	c #952E31",
"x 	c #BE272F",
"y 	c #74191C",
"z 	c #39D98B",
"A 	c #340E0F",
"B 	c #B83235",
"C 	c #761E21",
"D 	c #721C1F",
"E 	c #B6262C",
"F 	c #31BA77",
"G 	c #32C07B",
"H 	c #1C0707",
"I 	c #370F10",
"J 	c #000000",
"K 	c #030101",
"L 	c #441314",
"M 	c #A4262B",
"N 	c #C1262F",
"O 	c #C3282F",
"P 	c #52D38A",
"Q 	c #268A58",
"R 	c #41F39B",
"S 	c #467851",
"T 	c #821B1F",
"U 	c #040101",
"V 	c #451113",
"W 	c #9E2329",
"X 	c #A02026",
"Y 	c #54D78C",
"Z 	c #47553C",
"` 	c #51E092",
" .	c #54523C",
"..	c #6D161A",
"+.	c #521416",
"@.	c #4AE695",
"#.	c #4E392C",
"$.	c #9D2126",
"%.	c #4FE394",
"&.	c #413A2B",
"*.	c #2E0B0C",
"=.	c #57C280",
"-.	c #45CD85",
";.	c #48D489",
">.	c #5BBF80",
",.	c #3D271F",
"'.	c #3C0F10",
").	c #C02A32",
"!.	c #C5272F",
"~.	c #C92730",
"{.	c #400E10",
"].	c #300B0C",
"^.	c #4E1013",
"/.	c #77171C",
"(.	c #C12D32",
"_.	c #CD2A31",
":.	c #8C2225",
"<.	c #B93235",
"[.	c #802023",
"}.	c #B7262C",
"|.	c #431012",
"1.	c #C03B3F",
"2.	c #75191C",
"3.	c #140C0C",
"4.	c #762326",
"5.	c #260F0F",
"6.	c #62171A",
"7.	c #421012",
"8.	c #23090A",
"9.	c #070101",
"0.	c #0D0605",
"a.	c #150405",
"b.	c #020000",
"c.	c #010101",
"                                        . + @                   ",
"                # # # #                 $   % & *               ",
"                # = = #               . -     ;                 ",
"                # > > #               $     , '                 ",
"          # # # # ) ) # # # #       . !     ~                   ",
"          # { { { { { { { { #       ]     ^ /                   ",
"          # ( ( ( ( ( ( ( ( #     . _ : < [                     ",
"          # # # # } } # # # #     ^ |   1 2                     ",
"                # 3 3 #           $     &                       ",
"                # 4 4 #         . 5     6                       ",
"                # # # #         7 8   . 9                       ",
"                                ]     +                         ",
"                                0     a                         ",
"                              . b   . c                         ",
"      d e f g                 . ~ h i j             g f e d     ",
"      k l l l l m n o         , p a q       o n m l l l l k     ",
"        r s t l l l u         %     v       u l l l t s r       ",
"          w l l l l x y       z     [     y x l l l l w         ",
"          A B C D l l l E   . F   . G H E l l l D C B A         ",
"            I J K L M N l O P Q   R S T l N M L K J I           ",
"                    U V W X Y Z   `  ...W V U                   ",
"                        J +.@.#.$.%.&.*.J                       ",
"                            =.-.;.>.,.'.                        ",
"                        ).!.~.{.].^./.!.).                      ",
"                    (.N l _.:.      :._.l N (.                  ",
"            <.C [.l l l }.|.          |.}.l l l [.C <.          ",
"          1.l l l l 4 2.3.              3.2.4 l l l l 1.        ",
"          s t l l l 4.                      4.l l l t s         ",
"        l l l l m n o 5.                  5.o n m l l l l       ",
"      E e f g 6.7.8.9.0.                  0.9.8.7.6.g f e E     ",
"        a.b.c.                                      c.b.a.      ",
"                                                                "};
