/* XPM */
static char * q:\Maya\src\AWplugins\XGen\src\xgen\src\xgmaya\icons\xgHidePreview_xpm[] = {
"32 32 54 1",
" 	c None",
".	c #080000",
"+	c #040000",
"@	c #000000",
"#	c #040202",
"$	c #060202",
"%	c #060606",
"&	c #050505",
"*	c #FF0000",
"=	c #EB0202",
"-	c #F60101",
";	c #EC0101",
">	c #EA0101",
",	c #EE0101",
"'	c #F00000",
")	c #EE0403",
"!	c #E60909",
"~	c #E10304",
"{	c #EC0302",
"]	c #F92B2C",
"^	c #FE0A0A",
"/	c #F60203",
"(	c #D30D0B",
"_	c #F80202",
":	c #F40000",
"<	c #F50100",
"[	c #F30000",
"}	c #F20000",
"|	c #F40101",
"1	c #D21412",
"2	c #F50302",
"3	c #A80001",
"4	c #AB0A06",
"5	c #F60303",
"6	c #D0110D",
"7	c #F00B0B",
"8	c #DF0B09",
"9	c #E10707",
"0	c #EE0707",
"a	c #EE0505",
"b	c #C61C1C",
"c	c #CA1F1F",
"d	c #EF0606",
"e	c #E50101",
"f	c #E00101",
"g	c #E10000",
"h	c #F70000",
"i	c #040404",
"j	c #030303",
"k	c #050303",
"l	c #040303",
"m	c #020000",
"n	c #030000",
"o	c #080808",
"                                ",
"                                ",
"                                ",
"                                ",
"                                ",
".+@@@                     @@@+. ",
"#                             $ ",
"%                             % ",
"&                             & ",
"%                             & ",
"       *               =        ",
"        -=           ;>         ",
"          ,         '           ",
"           )!     ~{            ",
"            ]^   /(             ",
"              _:<               ",
"              [}|               ",
"            123 456             ",
"           78     90            ",
"          ab       cd           ",
"        [e           fg         ",
"                       h        ",
"i                             j ",
"i                             i ",
"i                             i ",
"k                             l ",
"m+@@@                     @@@no ",
"                                ",
"                                ",
"                                ",
"                                ",
"                                "};
