/* XPM */
static char * xgPointsContext_xpm[] = {
"32 32 4 1",
" 	c None",
".	c #656565",
"+	c #FFFF00",
"@	c #C12B2B",
"                                ",
"                    ...         ",
"                   .+++.        ",
"              ...  .+++.        ",
"             .+++. .+++.        ",
"     ...     .+++.  ...         ",
"    .+++.    .+++.              ",
"    .+++. ... ...               ",
"    .+++..+++.                  ",
" ... ... .+++.                  ",
".+++.    .+++.    @@            ",
".+++.     ...     @@            ",
".+++.             @@            ",
" ...              @@            ",
"   ...            @@            ",
"  .+++.           @@            ",
"  .+++.           @@            ",
"  .+++....        @@            ",
"   ....+++.       @@            ",
"      .+++.       @@            ",
"      .+++.       @@            ",
"       ... @@@@@@@@@@@@@@@      ",
"         @@@@@@@@@@@@@@@@@@@@   ",
"        @@@@@     @@    @@@@@@  ",
"       @@@@       @@       @@@@ ",
"       @@@        @@        @@@ ",
"        @@@@              @@@@  ",
"         @@@@@@@      @@@@@@@   ",
"          @@@@@@@@@@@@@@@@@@    ",
"             @@@@@@@@@@@@       ",
"                                ",
"                                "};
