/* XPM */
static char * q:\Maya\src\AWplugins\XGen\src\xgen\src\xgmaya\icons\xgPreview_xpm[] = {
"32 32 158 2",
"  	c None",
". 	c #000000",
"+ 	c #161616",
"@ 	c #151515",
"# 	c #171717",
"$ 	c #191818",
"% 	c #181817",
"& 	c #121212",
"* 	c #0A0B0B",
"= 	c #0F100F",
"- 	c #010101",
"; 	c #080001",
"> 	c #020001",
", 	c #141414",
"' 	c #0C0C0D",
") 	c #0A0909",
"! 	c #100F0F",
"~ 	c #161A18",
"{ 	c #1C1919",
"] 	c #0F1310",
"^ 	c #000600",
"/ 	c #010905",
"( 	c #050405",
"_ 	c #060405",
": 	c #020302",
"< 	c #171515",
"[ 	c #0C0C0C",
"} 	c #010102",
"| 	c #0D0D0D",
"1 	c #303131",
"2 	c #343A39",
"3 	c #B8B0B4",
"4 	c #92ADA3",
"5 	c #004424",
"6 	c #245945",
"7 	c #1B2E23",
"8 	c #1A1B1C",
"9 	c #201F1E",
"0 	c #050605",
"a 	c #000101",
"b 	c #131314",
"c 	c #0B0C0C",
"d 	c #000202",
"e 	c #292728",
"f 	c #3F4944",
"g 	c #5F756B",
"h 	c #E8DDE1",
"i 	c #FFFFFF",
"j 	c #AFAFB0",
"k 	c #0E2E24",
"l 	c #1C4B38",
"m 	c #224239",
"n 	c #333A3B",
"o 	c #686868",
"p 	c #272628",
"q 	c #0B0B0B",
"r 	c #050506",
"s 	c #0A080A",
"t 	c #6F686C",
"u 	c #6F7F7B",
"v 	c #1B5240",
"w 	c #92C2B1",
"x 	c #8C9394",
"y 	c #2F2327",
"z 	c #134938",
"A 	c #205E4A",
"B 	c #1B1012",
"C 	c #959795",
"D 	c #606163",
"E 	c #111010",
"F 	c #090909",
"G 	c #020203",
"H 	c #040506",
"I 	c #2A2A2A",
"J 	c #9E9799",
"K 	c #859692",
"L 	c #032916",
"M 	c #00532E",
"N 	c #124434",
"O 	c #195F46",
"P 	c #090707",
"Q 	c #868686",
"R 	c #787A78",
"S 	c #2E2D2D",
"T 	c #000001",
"U 	c #010001",
"V 	c #0B0B0A",
"W 	c #424344",
"X 	c #908B8B",
"Y 	c #868C8A",
"Z 	c #34574F",
"` 	c #265D53",
" .	c #1C4B3D",
"..	c #030202",
"+.	c #0A1E12",
"@.	c #205547",
"#.	c #1F4E43",
"$.	c #242523",
"%.	c #696A6A",
"&.	c #5A5756",
"*.	c #222223",
"=.	c #010302",
"-.	c #050505",
";.	c #292929",
">.	c #4C4B4C",
",.	c #6A696B",
"'.	c #63726D",
").	c #0F5847",
"!.	c #085747",
"~.	c #1A5543",
"{.	c #1B5047",
"].	c #1D5B48",
"^.	c #033A2B",
"/.	c #1D3834",
"(.	c #515051",
"_.	c #606061",
":.	c #454544",
"<.	c #151616",
"[.	c #090908",
"}.	c #181819",
"|.	c #403A3B",
"1.	c #565655",
"2.	c #3C5751",
"3.	c #39675C",
"4.	c #2F776A",
"5.	c #267C65",
"6.	c #2E6757",
"7.	c #304641",
"8.	c #494D50",
"9.	c #605D5F",
"0.	c #1E1E1F",
"a.	c #040304",
"b.	c #080607",
"c.	c #161515",
"d.	c #232020",
"e.	c #433A3B",
"f.	c #404A4C",
"g.	c #2B4940",
"h.	c #1E3D36",
"i.	c #2E3F3A",
"j.	c #434448",
"k.	c #4C4949",
"l.	c #3D3C3A",
"m.	c #221F1F",
"n.	c #0A0B0A",
"o.	c #161214",
"p.	c #1E1819",
"q.	c #231D20",
"r.	c #292727",
"s.	c #272526",
"t.	c #161415",
"u.	c #020202",
"v.	c #010100",
"w.	c #030404",
"x.	c #060402",
"y.	c #050604",
"z.	c #060604",
"A.	c #030002",
"                                                                ",
"                                                                ",
"                                                                ",
"                                                                ",
"                                                                ",
". . . . .                                           . . . . .   ",
".                                                           .   ",
".                                                           .   ",
".                                                           .   ",
".                           + + + @ @ +                     .   ",
"                      # + #               $ %                   ",
"                    & * = - . ; >                               ",
"                , ' ) ! ~ { ] ^ / ( _ : .                       ",
"              < [ } | 1 2 3 4 5 6 7 8 9 0 a .                   ",
"            b c d e f g h i j . k l m n o p . .                 ",
"          & q r s t u v w x y . . z A B C D E . .               ",
"          F G H I J K L M . . . . N O P Q R S T U U             ",
"              V W X Y Z `  .... +.@.#.$.%.&.*.=.                ",
"              -.;.>.,.'.).!.~.{.].^./.(._.:.<..                 ",
"                [.}.|.1.2.3.4.5.6.7.8.9.:.0.a.                  ",
"                  b.c.d.e.f.g.h.i.j.k.l.m...                    ",
"                        n.o.p.q.r.s.t.u.v.                      ",
".                           w.x.y.z.A.                      .   ",
".                                                           .   ",
".                                                           .   ",
".                                                           .   ",
". . . . .                                           . . . . .   ",
"                                                                ",
"                                                                ",
"                                                                ",
"                                                                ",
"                                                                "};
