/* XPM */
static char * xgPrimSelection_xpm[] = {
"32 32 23 1",
" 	c None",
".	c #C1C1C1",
"+	c #FF0000",
"@	c #000000",
"#	c #3AA399",
"$	c #FEFE4D",
"%	c #0283EC",
"&	c #0089EA",
"*	c #FAFC51",
"=	c #0094FC",
"-	c #0090F6",
";	c #F9F958",
">	c #009CFE",
",	c #00A0FF",
"'	c #F3F362",
")	c #EEEE6B",
"!	c #EEF858",
"~	c #008DF2",
"{	c #0177D7",
"]	c #007ED8",
"^	c #0084E3",
"/	c #007BD4",
"(	c #0081DC",
"................................",
"................................",
"................................",
"................................",
"................................",
"..+++++++++++++++...............",
"..+.............+...............",
"..+.............+...............",
"..+.............+...............",
"..+.............+...............",
"..+...@@@.......+...############",
"..+..@$$$@@.....+..#%%&%&&&&&&#.",
"..+..@@@$$*@@...+.#=========-#..",
"..+.....@@;$;@..+.#>>>>>>>>>>#..",
"..+.......@@;$@.+#>>,>>>>>>>>#..",
"..+.........@'$@+#>>,>,>>>>>#...",
"..+..........@)$+@,>,,,,>>>>#...",
"..+++++++++++++++@,,,,,,,,>>#...",
"...............@;$@,,,,,,,>#....",
"...............#@$;@>,,,>,,#....",
"..............#=@@;@,>>>,>,#....",
"..............#==@!;@,>>>=#.....",
".............#~-=&@;@,,,,,#.....",
"...........##{&%&%@;@,,,,#......",
"..........#]]^^^^%@@@,,,,#......",
"........###]///](===,,,,#.......",
"..........#####]]]//]((##.......",
"..............######]]##........",
"...................####.........",
"................................",
"................................",
"................................"};
