/* XPM */
static char * q:\Maya\src\AWplugins\XGen\src\xgen\src\xgmaya\icons\xgSelectionToggle_xpm[] = {
"32 32 247 2",
"  	c None",
". 	c #3ACE86",
"+ 	c #2FA76C",
"@ 	c #37C680",
"# 	c #3CD58A",
"$ 	c #2C9C65",
"% 	c #39CD85",
"& 	c #14482F",
"* 	c #3DDA8D",
"= 	c #32B173",
"- 	c #3DD98D",
"; 	c #1C6340",
"> 	c #E901EA",
", 	c #3EDE90",
"' 	c #3ACE85",
") 	c #05120B",
"! 	c #BD00BD",
"~ 	c #3FE091",
"{ 	c #258355",
"] 	c #E000E0",
"^ 	c #3DD88C",
"/ 	c #0E3120",
"( 	c #AD2F30",
"_ 	c #B23032",
": 	c #F100F1",
"< 	c #B100B1",
"[ 	c #3FE192",
"} 	c #D23638",
"| 	c #C23335",
"1 	c #9A2C2D",
"2 	c #E800E8",
"3 	c #520052",
"4 	c #20734A",
"5 	c #4D1F20",
"6 	c #BC3638",
"7 	c #CE3537",
"8 	c #BD3638",
"9 	c #F700F7",
"0 	c #C900C9",
"a 	c #0E3321",
"b 	c #281313",
"c 	c #5C2424",
"d 	c #C43436",
"e 	c #1E1111",
"f 	c #740767",
"g 	c #F600F6",
"h 	c #700070",
"i 	c #3DD68B",
"j 	c #111609",
"k 	c #211B07",
"l 	c #2B1314",
"m 	c #5B2020",
"n 	c #94292A",
"o 	c #FC00FC",
"p 	c #E900E9",
"q 	c #140014",
"r 	c #303117",
"s 	c #37AE70",
"t 	c #3B3726",
"u 	c #3F371E",
"v 	c #1A0808",
"w 	c #240E0F",
"x 	c #FE00FE",
"y 	c #950095",
"z 	c #302911",
"A 	c #2F2810",
"B 	c #332B13",
"C 	c #5B5336",
"D 	c #7B7F59",
"E 	c #3F9362",
"F 	c #5F5941",
"G 	c #867D5B",
"H 	c #F500F5",
"I 	c #380038",
"J 	c #2B240C",
"K 	c #474025",
"L 	c #6A6243",
"M 	c #8B8260",
"N 	c #9C936D",
"O 	c #9A916B",
"P 	c #8C966D",
"Q 	c #40724D",
"R 	c #6C6449",
"S 	c #8B825E",
"T 	c #7B7350",
"U 	c #362F16",
"V 	c #FF00FF",
"W 	c #27200A",
"X 	c #6D6546",
"Y 	c #9D946F",
"Z 	c #9B926C",
"` 	c #998F6A",
" .	c #978D68",
"..	c #839A6D",
"+.	c #405A3E",
"@.	c #736C4E",
"#.	c #8A815D",
"$.	c #8A815B",
"%.	c #6B6241",
"&.	c #2C250E",
"*.	c #820082",
"=.	c #312A13",
"-.	c #88805B",
";.	c #988E69",
">.	c #968C67",
",.	c #948A65",
"'.	c #789F6F",
").	c #49573D",
"!.	c #776F4F",
"~.	c #877E59",
"{.	c #877D58",
"].	c #857B56",
"^.	c #52492C",
"/.	c #2D260F",
"(.	c #3A003A",
"_.	c #1C1706",
":.	c #413920",
"<.	c #928863",
"[.	c #8F8661",
"}.	c #8D845F",
"|.	c #887F5A",
"1.	c #7D7552",
"2.	c #857C58",
"3.	c #857B57",
"4.	c #837955",
"5.	c #817753",
"6.	c #807652",
"7.	c #463E22",
"8.	c #2E2710",
"9.	c #F109F4",
"0.	c #235A45",
"a.	c #38C781",
"b.	c #29220D",
"c.	c #635A3B",
"d.	c #8E8560",
"e.	c #8C835E",
"f.	c #887E59",
"g.	c #867C57",
"h.	c #847A55",
"i.	c #827854",
"j.	c #6E6543",
"k.	c #3C351C",
"l.	c #272009",
"m.	c #251F08",
"n.	c #3EDC8F",
"o.	c #48D394",
"p.	c #FE01FF",
"q.	c #C217CA",
"r.	c #204F35",
"s.	c #38BD7B",
"t.	c #39CA83",
"u.	c #2A240C",
"v.	c #7D7450",
"w.	c #89805A",
"x.	c #807653",
"y.	c #6E6545",
"z.	c #484127",
"A.	c #2A230D",
"B.	c #241D08",
"C.	c #1D1706",
"D.	c #41DB8F",
"E.	c #40DF91",
"F.	c #45C381",
"G.	c #517864",
"H.	c #970F92",
"I.	c #373325",
"J.	c #414F38",
"K.	c #3FDD90",
"L.	c #1D1908",
"M.	c #453E23",
"N.	c #655C3C",
"O.	c #302913",
"P.	c #251E0A",
"Q.	c #1E1806",
"R.	c #3FDF91",
"S.	c #43D78C",
"T.	c #46B478",
"U.	c #3E6A49",
"V.	c #3B3A29",
"W.	c #534E3A",
"X.	c #7E5B60",
"Y.	c #7B266E",
"Z.	c #665F45",
"`.	c #6D664A",
" +	c #41704C",
".+	c #3FD58A",
"++	c #28220D",
"@+	c #251F0B",
"#+	c #26200B",
"$+	c #1F1907",
"%+	c #3BD489",
"&+	c #3E9E69",
"*+	c #5F5943",
"=+	c #766F52",
"-+	c #857C5C",
";+	c #8D8461",
">+	c #A46C7F",
",+	c #623151",
"'+	c #867D5A",
")+	c #645E42",
"!+	c #459261",
"~+	c #1D6843",
"{+	c #3DD48A",
"]+	c #749C6D",
"^+	c #958B67",
"/+	c #AF5F8E",
"(+	c #5F3D4A",
"_+	c #7F7653",
":+	c #59523A",
"<+	c #3FBB7A",
"[+	c #3FDA8D",
"}+	c #31B072",
"|+	c #42D68B",
"1+	c #918763",
"2+	c #746B4B",
"3+	c #47442E",
"4+	c #3FCA84",
"5+	c #3ED389",
"6+	c #3CD087",
"7+	c #54BD7D",
"8+	c #669D6A",
"9+	c #42CF87",
"0+	c #103824",
"a+	c #709365",
"b+	c #6D9263",
"c+	c #4CC682",
"d+	c #3FDE90",
"e+	c #34B877",
"f+	c #0B281A",
"g+	c #000000",
"h+	c #2C9C66",
"i+	c #43D088",
"j+	c #7D7F58",
"k+	c #7C8A5F",
"l+	c #5CB075",
"m+	c #41D98D",
"n+	c #38C881",
"o+	c #1F6E48",
"p+	c #040C08",
"q+	c #3BCE85",
"r+	c #3ED98D",
"s+	c #3FDB8F",
"t+	c #3BD289",
"u+	c #2A9863",
"v+	c #0C2B1C",
"w+	c #195A3A",
"x+	c #164E32",
"                          .                                     ",
"                          +                                     ",
"                        @                                       ",
"                      # $                                       ",
"                      % &                                       ",
"                    * =                                         ",
"                    - ;                                   >     ",
"                  , ' )                                   !     ",
"                  ~ {                                   ]       ",
"                ^ ~ /       ( _         _ (           : <       ",
"                [ @       } | 1         1 | }         2 3       ",
"                [ 4 5 6 } } 7 } } } } } } 7 } } 8   9 0         ",
"                [ a   b c d | 1 e e e e 1 | d c b f g h         ",
"              i [ j k     l m n         n m l     o p q         ",
"            r ~ s t u       v w         w v       x y           ",
"    z A B C D [ E F G z                         H x I           ",
"J K L M N O P [ Q R S T U                       V ]             ",
"W X Y Z `  ...[ +.@.#.$.%.&.                    V *.            ",
"  =.-.;.>.,.'.[ ).!.~.{.].^./.                  V (.            ",
"  _.:.,.<.[.}.|.1.2.3.4.5.6.7.8.              9.V 0.a.          ",
"    b.c.d.e.$.f.g.h.i.4.j.k.l.m.          n.o.p.q.r.s.t.        ",
"      u.v.w.{.h.x.y.z.A.B.C.        D.E.E.F.G.V H.I.J.K.%       ",
"      L.M.6.6.N.O.P.Q.          R.S.T.U.V.W.X.V Y.Z.`. +.+      ",
"        ++@+#+$+                %+&+*+=+-+;+>+V ,+@.'+)+!+K.    ",
"                                ~+{+]+^+>.,./+p.(+!.~._+:+<+[+  ",
"                                  }+|+1+<.[.}.|.1.2.3.4.2+3+4+5+",
"                                    6+7+d.e.$.f.g.h.i.4.8+9+~ n.",
"                                    0+~ a+w.{.h.i.b+c+d+n.e+f+g+",
"                                      h+i+j+k+l+m+n.n+o+p+      ",
"                                        q+r+s+t+u+v+            ",
"                                        w+h+x+                  ",
"                                                                "};
