/* XPM */
static char * xgSFINHide_xpm[] = {
"32 32 250 2",
"  	c None",
". 	c #BFBFBF",
"+ 	c #A1A1A1",
"@ 	c #353535",
"# 	c #080808",
"$ 	c #040404",
"% 	c #242424",
"& 	c #868686",
"* 	c #000000",
"= 	c #323232",
"- 	c #414141",
"; 	c #0A0A0A",
"> 	c #ADADAD",
", 	c #202020",
"' 	c #131313",
") 	c #787878",
"! 	c #838383",
"~ 	c #2A2A2A",
"{ 	c #030303",
"] 	c #A9A9A9",
"^ 	c #2F2F2F",
"/ 	c #8C8C8C",
"( 	c #9A9A9A",
"_ 	c #424242",
": 	c #1A1A1A",
"< 	c #989898",
"[ 	c #BEBEBE",
"} 	c #A6A6A6",
"| 	c #717171",
"1 	c #AAAAAA",
"2 	c #3F3F3F",
"3 	c #B9B9B9",
"4 	c #020202",
"5 	c #8D8D8D",
"6 	c #6B6B6B",
"7 	c #010101",
"8 	c #0E0E0E",
"9 	c #3C3C3C",
"0 	c #898989",
"a 	c #9E9E9E",
"b 	c #3A3A3A",
"c 	c #191919",
"d 	c #1D1D1D",
"e 	c #BABABA",
"f 	c #A4A4A4",
"g 	c #696969",
"h 	c #3B3B3B",
"i 	c #808080",
"j 	c #959595",
"k 	c #B8B8B8",
"l 	c #888888",
"m 	c #626262",
"n 	c #3D3D3D",
"o 	c #777777",
"p 	c #484848",
"q 	c #3E3E3E",
"r 	c #060606",
"s 	c #B7B7B7",
"t 	c #111111",
"u 	c #0B0B0B",
"v 	c #6E6E6E",
"w 	c #4A4A4A",
"x 	c #ABABAB",
"y 	c #090909",
"z 	c #9C9C9C",
"A 	c #333333",
"B 	c #616161",
"C 	c #BDBDBD",
"D 	c #C1BBB7",
"E 	c #D99C6D",
"F 	c #D89F73",
"G 	c #C9B2A0",
"H 	c #D6A178",
"I 	c #D99B6D",
"J 	c #D99C6E",
"K 	c #D89E72",
"L 	c #D2A583",
"M 	c #C3B9B1",
"N 	c #C1BBB6",
"O 	c #CFAA8D",
"P 	c #D69F75",
"Q 	c #D89C6F",
"R 	c #D6A077",
"S 	c #CEAB91",
"T 	c #C0BCB9",
"U 	c #C4B8AE",
"V 	c #FD7004",
"W 	c #F87612",
"X 	c #F47B1D",
"Y 	c #FC6F04",
"Z 	c #FC7005",
"` 	c #F9730C",
" .	c #F17C24",
"..	c #D99D6F",
"+.	c #D5A17A",
"@.	c #ED8332",
"#.	c #F87410",
"$.	c #FB7108",
"%.	c #F67512",
"&.	c #EB8538",
"*.	c #D3A480",
"=.	c #BFBEBE",
"-.	c #C4B7AD",
";.	c #FF6F00",
">.	c #FA720A",
",.	c #F17F27",
"'.	c #EE8331",
").	c #E9873C",
"!.	c #D0A889",
"~.	c #F5791A",
"{.	c #FD6E00",
"].	c #F57B1D",
"^.	c #ED8231",
"/.	c #EE822F",
"(.	c #F37B1F",
"_.	c #FB6E03",
":.	c #F67817",
"<.	c #CCAD95",
"[.	c #F37B20",
"}.	c #FB7107",
"|.	c #F07F28",
"1.	c #F37B1E",
"2.	c #FA7007",
"3.	c #F27C22",
"4.	c #C5B6AA",
"5.	c #F17C23",
"6.	c #D1A686",
"7.	c #C6B5A7",
"8.	c #FD6F02",
"9.	c #DD9762",
"0.	c #C8B2A2",
"a.	c #F87511",
"b.	c #FB6F05",
"c.	c #DF965F",
"d.	c #DE9660",
"e.	c #CEAA8F",
"f.	c #D79F75",
"g.	c #F57818",
"h.	c #FE6F01",
"i.	c #F17E26",
"j.	c #CCAE97",
"k.	c #BFBEBD",
"l.	c #FD7003",
"m.	c #D99D6E",
"n.	c #C0BDBA",
"o.	c #E9883E",
"p.	c #FC6D02",
"q.	c #E88941",
"r.	c #E58D4A",
"s.	c #FD6E01",
"t.	c #E9893F",
"u.	c #C3B9B2",
"v.	c #BFBEBC",
"w.	c #C2BAB5",
"x.	c #E58E4B",
"y.	c #DB9A68",
"z.	c #CBAE98",
"A.	c #E19256",
"B.	c #EA863A",
"C.	c #E29154",
"D.	c #F9730D",
"E.	c #C6B5A9",
"F.	c #C3B9B3",
"G.	c #C2B9B3",
"H.	c #C2BAB3",
"I.	c #C1BCB8",
"J.	c #CDAB92",
"K.	c #FC6F03",
"L.	c #BFBDBC",
"M.	c #E78B44",
"N.	c #D4A27B",
"O.	c #FA7209",
"P.	c #F47C20",
"Q.	c #CCAE96",
"R.	c #F77614",
"S.	c #F57616",
"T.	c #E19255",
"U.	c #FD7002",
"V.	c #DC9864",
"W.	c #C5B7AC",
"X.	c #C8B3A3",
"Y.	c #F9720B",
"Z.	c #DB9967",
"`.	c #FD6E02",
" +	c #F77613",
".+	c #DD9863",
"++	c #FE6E00",
"@+	c #E58D49",
"#+	c #F47A1D",
"$+	c #F47A1C",
"%+	c #FC6D01",
"&+	c #C5B6AB",
"*+	c #D79F74",
"=+	c #ED8230",
"-+	c #FC7207",
";+	c #F97510",
">+	c #D1A786",
",+	c #DC9966",
"'+	c #D3A481",
")+	c #FE6F02",
"!+	c #FA740C",
"~+	c #EE802D",
"{+	c #C3B8B0",
"]+	c #CAB09D",
"^+	c #E29253",
"/+	c #F97611",
"(+	c #E9883D",
"_+	c #F17D25",
":+	c #C2BAB4",
"<+	c #E48E4D",
"[+	c #D2A684",
"}+	c #D1A788",
"|+	c #D5A27B",
"1+	c #DE945C",
"2+	c #C7B3A4",
"3+	c #E38F4F",
"4+	c #FC7105",
"5+	c #F67918",
"6+	c #F07E27",
"7+	c #CBAD97",
"8+	c #DA9B6B",
"9+	c #C1BCB9",
"0+	c #C0BDBB",
"a+	c #E68C47",
"b+	c #DD9965",
"c+	c #F67715",
"d+	c #EF802C",
"e+	c #CDAC92",
"f+	c #CAAF9B",
"g+	c #EB8537",
"h+	c #D5A27A",
"i+	c #F77512",
"j+	c #EA873B",
"k+	c #E29153",
"l+	c #E78943",
"m+	c #D4A27C",
"n+	c #C5B5AA",
"o+	c #E09459",
"p+	c #F8740F",
"q+	c #FA730B",
"r+	c #E29052",
"s+	c #DE965F",
"t+	c #C6B4A7",
"u+	c #E19357",
"v+	c #E68D49",
"w+	c #C7B4A5",
"x+	c #E39151",
"y+	c #E39051",
"z+	c #DA9D6E",
"A+	c #C4B8AF",
". . . . . . . . . . . . . . . . . . . . . . . . . . . . . . . . ",
". . . . . . . . . . . . . . . . . . . . . . . . . . . . . . . . ",
". . . + @ # $ % & . . * * * * * = . * - . * ; > . . * - . . . . ",
". . . , ' ) ! ~ { ] . * ^ / / / ( . * - . * * _ . . * - . . . . ",
". . . ; : < [ } | 1 . * 2 3 3 3 [ . * - . * 4 * 5 . * - . . . . ",
". . . 6 7 * 8 9 0 . . * * * * * a . * - . * b c d e * - . . . . ",
". . . . f g h # * i . * = j j j k . * - . * - l * m * - . . . . ",
". . + n o . . 1 * p . * - . . . . . * - . * - . q r * - . . . . ",
". . s t u v & w * v . * - . . . . . * - . * - . x y * - . . . . ",
". . . z A # { c B C . * - . . . . . * - . * - . . 6 * - . . . . ",
". . . . . . . . . . . . . . . . . . . . . . . . . . . . . . . . ",
". . . . . . . . . . . . . . . . . . . . . . . . . . . . . . . . ",
". . . . . . . . . . . . . . . . . . . . . . . . . . . . . . . . ",
". D E E E E E E F G . H E E I J K L M . . . N O P Q R S T . . . ",
". U V V V V V V W R . X V V Y Z `  ...D . N +.@.#.$.%.&.*.=.. . ",
". -.;.>.,.'.'.'.).!.. ~.{.].^./.(._.:.<.. <.[.}.|./.1.2.3.4.. . ",
". -.;.5.6.7.7.7.4.N . ~.8.9.7.0.H a.b.c.. d.$.1.e.0.f.g.h.R . . ",
". -.;.i.j.k.k.k.k.=.. ~.l.m.k.k.n.o.p.q.. r.s.t.u.v.w.x.(.y.. . ",
". -.;.,.z.. . . . . . ~.l.... . . A.{.B.. C.Y D.R E.F.G.H.I.. . ",
". -.;.i.J.D D I.n.. . ~.K.m.=.k.L.B.p.M.. N.a.{.O.P.A.Q.T . . . ",
". -.;.K.#.R.R.S.T.. . ~.U.V.W.X.m.Y.}.Z.. w.r.{.;.`.$. +.+. . . ",
". -.;.++h.h.h._.@+. . ~.++a.#+$+a.%+~.X.. =.&+*+=+-+{.h.;+>+. . ",
". -.;.~.,+*.*.'+z.. . ~.++s.)+V !+~+6.n.. . k.{+]+>+^+/+s.(+. . ",
". -.;._+e.:+:+:+I.. . ~.`.<+L [+}+<.w.. {+|+1+7.L.N 2+3+4+5+. . ",
". -.;.6+7+=.=.=.=.. . ~.l.8+T 9+T 0+=.. 4.a+S.*+. =.v.b+$.c+. . ",
". -.;.,.z.. . . . . . ~.l.... . . . . . w.@+Y d+e+U f+(+_.g+. . ",
". -.;.,.z.. . . . . . ~.l.... . . . . . k.h+i+Z j+k+l+i+>.m+. . ",
". -.;.,.z.. . . . . . ~.l.... . . . . . . n+o+[.p+q+p+P.r+{+. . ",
". :+a+s+t+. . . . . . u+v+O . . . . . . . v.w+..x+@+y+z+2+k.. . ",
". k.-.M L.. . . . . . {+-.I.. . . . . . . . v.H.A+-.A+H.v.. . . ",
". . . . . . . . . . . . . . . . . . . . . . . . . . . . . . . . ",
". . . . . . . . . . . . . . . . . . . . . . . . . . . . . . . . "};
