/* XPM */
static char * xgTMTear_xpm[] = {
"12 12 2 1",
" 	c #000000",
".	c #D8D8D8",
"            ",
" .......... ",
" .......... ",
" .......... ",
" .......... ",
" .  .  .  . ",
" .......... ",
" .......... ",
" .......... ",
" .......... ",
" .......... ",
"            "};
