/* XPM */
static char * q:\Maya\src\AWplugins\XGen\src\xgen\src\xgmaya\icons\xgToggleGuideReference_xpm[] = {
"32 32 112 2",
"  	c None",
". 	c #43FFA3",
"+ 	c #42FAA0",
"@ 	c #35C980",
"# 	c #3FF19A",
"$ 	c #3FEE98",
"% 	c #41F99F",
"& 	c #1B6742",
"* 	c #2CA96C",
"= 	c #3CE592",
"- 	c #42FBA0",
"; 	c #248958",
"> 	c #2FB272",
", 	c #3CE391",
"' 	c #41F69D",
") 	c #42FCA1",
"! 	c #258E5B",
"~ 	c #40F39B",
"{ 	c #3FEF99",
"] 	c #3ADB8C",
"^ 	c #3ADE8E",
"/ 	c #1F764B",
"( 	c #41F89F",
"_ 	c #2CA66A",
": 	c #5BBCFF",
"< 	c #4B9CD3",
"[ 	c #295674",
"} 	c #58B5F6",
"| 	c #57B5F5",
"1 	c #234963",
"2 	c #33C27C",
"3 	c #3ADD8D",
"4 	c #3B79A4",
"5 	c #54AEEC",
"6 	c #43FEA2",
"7 	c #1D6E46",
"8 	c #289A62",
"9 	c #58B6F7",
"0 	c #5BBBFE",
"a 	c #2F6183",
"b 	c #3E81AF",
"c 	c #53ACE9",
"d 	c #39DA8B",
"e 	c #3DE794",
"f 	c #AD2F30",
"g 	c #B23032",
"h 	c #59B8FA",
"i 	c #316589",
"j 	c #2BA569",
"k 	c #31BB78",
"l 	c #D23638",
"m 	c #C23335",
"n 	c #9A2C2D",
"o 	c #59B7F8",
"p 	c #50A4DF",
"q 	c #52AAE6",
"r 	c #30B674",
"s 	c #40F19A",
"t 	c #1E7249",
"u 	c #BD3638",
"v 	c #CE3537",
"w 	c #234861",
"x 	c #5ABBFD",
"y 	c #217E50",
"z 	c #41F79D",
"A 	c #281313",
"B 	c #5C2424",
"C 	c #C43436",
"D 	c #1E1111",
"E 	c #38506B",
"F 	c #112330",
"G 	c #40F29B",
"H 	c #2B1314",
"I 	c #5B2020",
"J 	c #94292A",
"K 	c #4690C3",
"L 	c #51A8E4",
"M 	c #39D98B",
"N 	c #1A0808",
"O 	c #240E0F",
"P 	c #21455D",
"Q 	c #366F97",
"R 	c #31BA77",
"S 	c #32C07B",
"T 	c #5AB9FB",
"U 	c #0C1922",
"V 	c #27955F",
"W 	c #299C64",
"X 	c #4FA3DD",
"Y 	c #55AFEE",
"Z 	c #1F754B",
"` 	c #37729B",
" .	c #438BBD",
"..	c #134A2F",
"+.	c #144E32",
"@.	c #54ADEA",
"#.	c #4083B2",
"$.	c #254C67",
"%.	c #3BE190",
"&.	c #3DE894",
"*.	c #0C2C1C",
"=.	c #264E6A",
"-.	c #54ADEB",
";.	c #010304",
">.	c #57B3F3",
",.	c #4288B9",
"'.	c #32688D",
").	c #37729A",
"!.	c #20425A",
"~.	c #0F202B",
"{.	c #162D3D",
"].	c #57B4F4",
"                                                                ",
"                . + @                                           ",
"                #   $ % &                                       ",
"              . *     =                                         ",
"              #     - ;                                         ",
"            . >     ,                                           ",
"            '     ) !                                           ",
"          . ~ { ] ^                                             ",
"          ) /   ( _                                   : : < [   ",
"          #     %                                     }   | : 1 ",
"        . 2     3                                   : 4     5   ",
"        6 7   . 8                                   9     0 a   ",
"        '     +                                   : b     c     ",
"        d     e         f g         g f           h     : i     ",
"      . j   . k       l m n         n m l       : h o p q       ",
"      . , r s t   u l l v l l l l l l v l l u   : w   x 4       ",
"      - y e z     A B C m n D D D D n m C B A E }     x F       ",
"      $     G         H I J         J I H     : K     L         ",
"      M     ^           N O         O N       : P   : Q         ",
"    . R   . S                                 T     0 U         ",
"    . V   . W                                 X     Y           ",
"    . 7   . Z                               : `   :  .          ",
"    . ..  . +.                              : @.#.o $.          ",
"    . %.&.. *.                              0 =.-.: ;.          ",
"                                            >.    o             ",
"                                            X     L             ",
"                                          : ,.  : K             ",
"                                          : '.  : ).            ",
"                                          : !.  : =.            ",
"                                          : ~.  : {.            ",
"                                          : >.].p               ",
"                                                                "};
