/* XPM */
static char * 3D_xpm[] = {
"32 32 2 1",
" 	c #C1C1C1C1C1C1",
".	c #FFFF00000000",
"                                ",
"                                ",
"                                ",
"                                ",
"                                ",
"                                ",
"                   .....        ",
"   ......        .........      ",
"  .........      ..........     ",
"  ..........     ....  ....     ",
"  .... .....      ...   ...     ",
"  ...   ....      ...   ....    ",
"         ...      ...   ....    ",
"         ...      ...   ....    ",
"        ....      ...    ...    ",
"      ......      ...    ...    ",
"      .......     ...    ...    ",
"      ........    ...    ...    ",
"         .....    ...   ....    ",
"          ....    ...  .....    ",
"  ....     ...   .........      ",
"  .....   ....   ........       ",
"  ............   ........       ",
"   ..........    ......         ",
"    ........                    ",
"    ......                      ",
"                                ",
"                                ",
"                                ",
"                                ",
"                                ",
"                                "};
