/* XPM */
static char * fur_xpm[] = {
"32 32 344 2",
"  	c #C1C1C0C0C1C1",
". 	c #B8B8B3B3B2B2",
"X 	c #C1C1BFBFC0C0",
"o 	c #BDBDBCBCBEBE",
"O 	c #6F6F4D4D3434",
"+ 	c #62624E4E4545",
"@ 	c #DBDBC0C0AAAA",
"# 	c #BFBFB9B9B6B6",
"$ 	c #ACACAFAFB5B5",
"% 	c #BDBDBABAB9B9",
"& 	c #C1C1C1C1C1C1",
"* 	c #BFBFBEBEBFBF",
"= 	c #BDBDB9B9BABA",
"- 	c #BBBBB6B6B1B1",
"; 	c #BBBBBBBBBEBE",
": 	c #979785857474",
"> 	c #9A9A6C6C4D4D",
", 	c #B6B682826464",
"< 	c #4F4F29291414",
"1 	c #222216160000",
"2 	c #5B5B36361F1F",
"3 	c #707049493838",
"4 	c #6C6C49493737",
"5 	c #C0C099997A7A",
"6 	c #C2C2C1C1C3C3",
"7 	c #C0C0BFBFBFBF",
"8 	c #C5C5C0C0C0C0",
"9 	c #C5C5BABAB4B4",
"0 	c #A2A275755555",
"q 	c #949454543333",
"w 	c #858558583A3A",
"e 	c #46462E2E1B1B",
"r 	c #67674C4C4040",
"t 	c #1C1C15151A1A",
"y 	c #303020200A0A",
"u 	c #6E6E54543B3B",
"i 	c #979761614444",
"p 	c #9C9C63634444",
"a 	c #A6A66F6F4F4F",
"s 	c #B8B899998D8D",
"d 	c #C3C3C4C4C6C6",
"f 	c #C0C0BEBEBEBE",
"g 	c #BDBDB5B5B2B2",
"h 	c #B0B09E9E9696",
"j 	c #A4A46E6E5252",
"k 	c #A4A465654242",
"l 	c #7E7E4C4C3C3C",
"z 	c #86865C5C4343",
"x 	c #9F9F6C6C4242",
"c 	c #535336362525",
"v 	c #0B0B00000707",
"b 	c #121210100606",
"n 	c #7D7D50503939",
"m 	c #878762625151",
"M 	c #7C7C50503434",
"N 	c #96966B6B4040",
"B 	c #838351513232",
"V 	c #B2B295958B8B",
"C 	c #BABABBBBBABA",
"Z 	c #C0C0BBBBBBBB",
"A 	c #C0C0BFBFC0C0",
"S 	c #C1C1C3C3C6C6",
"D 	c #A8A887877575",
"F 	c #C6C680804F4F",
"G 	c #B4B476765C5C",
"H 	c #828263634646",
"J 	c #717157574242",
"K 	c #000000000000",
"L 	c #858565655353",
"P 	c #959566664242",
"I 	c #181821211C1C",
"U 	c #0A0A00000000",
"Y 	c #101005050101",
"T 	c #6E6E55554545",
"R 	c #BABA7C7C4E4E",
"E 	c #565636361818",
"W 	c #7F7F4F4F3939",
"Q 	c #B5B59E9E9191",
"! 	c #B5B5AFAFADAD",
"~ 	c #BEBEBDBDBEBE",
"^ 	c #C1C1BFBFC1C1",
"/ 	c #BFBFBCBCBBBB",
"( 	c #BABAB1B1ACAC",
") 	c #AAAA73735656",
"_ 	c #84845C5C4B4B",
"` 	c #54543F3F3030",
"' 	c #92925F5F3636",
"] 	c #262612121919",
"[ 	c #535339392B2B",
"{ 	c #6B6B47473131",
"} 	c #72725E5E4D4D",
"| 	c #131314140C0C",
" .	c #9C9C6E6E5050",
"..	c #444428281A1A",
"X.	c #48482C2C2121",
"o.	c #8D8D65654E4E",
"O.	c #76764F4F2B2B",
"+.	c #BDBDA7A79D9D",
"@.	c #BFBFBBBBBBBB",
"#.	c #C0C0BEBEBFBF",
"$.	c #ABAB95958282",
"%.	c #8E8E65654646",
"&.	c #9E9E62624242",
"*.	c #71714B4B3737",
"=.	c #69694B4B3838",
"-.	c #55552E2E1818",
";.	c #CBCB95956A6A",
":.	c #4C4C34342A2A",
">.	c #232312120E0E",
",.	c #383816161010",
"<.	c #A8A87E7E5E5E",
"1.	c #A6A67D7D6363",
"2.	c #12120A0A0909",
"3.	c #7D7D61614E4E",
"4.	c #62623E3E2929",
"5.	c #6A6A4D4D3636",
"6.	c #BABAB4B4B2B2",
"7.	c #C1C1BBBBB7B7",
"8.	c #91915C5C4343",
"9.	c #AFAF8B8B6666",
"0.	c #A3A37F7F6B6B",
"q.	c #989866664B4B",
"w.	c #787857573D3D",
"e.	c #898960603E3E",
"r.	c #70705B5B4949",
"t.	c #88885C5C3F3F",
"y.	c #414132322727",
"u.	c #939360604242",
"i.	c #2C2C16160B0B",
"p.	c #050502021313",
"a.	c #9F9F6E6E4242",
"s.	c #C0C089896565",
"d.	c #17170C0C0303",
"f.	c #3E3E23231C1C",
"g.	c #C3C3B4B4A5A5",
"h.	c #C0C0C2C2C3C3",
"j.	c #C1C1B3B3B0B0",
"k.	c #93935F5F4343",
"l.	c #6F6F3E3E2E2E",
"z.	c #4F4F4B4B3B3B",
"x.	c #C7C784846767",
"c.	c #818152522D2D",
"v.	c #75754F4F3C3C",
"b.	c #58582F2F1616",
"n.	c #1F1F27272D2D",
"m.	c #81815E5E4D4D",
"M.	c #929267674646",
"N.	c #020200000606",
"B.	c #BDBD89896666",
"V.	c #50502B2B0E0E",
"C.	c #2A2A19191616",
"Z.	c #CCCC8E8E6666",
"A.	c #FFFFDEDEBABA",
"S.	c #73734F4F3C3C",
"D.	c #90907F7F7474",
"F.	c #C6C6C6C6C8C8",
"G.	c #C1C1B6B6ACAC",
"H.	c #9D9D79795959",
"J.	c #BBBB91917E7E",
"K.	c #82826E6E4F4F",
"L.	c #19190C0C0303",
"P.	c #9F9F74745757",
"I.	c #7E7E5C5C4646",
"U.	c #4D4D2A2A1A1A",
"Y.	c #70704C4C3636",
"T.	c #CFCF84845353",
"R.	c #40402A2A1616",
"E.	c #141414141919",
"W.	c #4C4C30301A1A",
"Q.	c #E7E7B2B28A8A",
"!.	c #000002020808",
"~.	c #353527271B1B",
"^.	c #7A7A56563B3B",
"/.	c #9B9B6C6C5858",
"(.	c #8C8C71715E5E",
").	c #BEBEBCBCBCBC",
"_.	c #C4C4B9B9ADAD",
"`.	c #95956E6E5353",
"'.	c #A6A685857171",
"].	c #A8A87A7A6D6D",
"[.	c #5B5B3D3D3131",
"{.	c #434326261010",
"}.	c #B3B38B8B6F6F",
"|.	c #4B4B42423F3F",
" X	c #64643F3F2525",
".X	c #C6C68D8D6464",
"XX	c #45453A3A3131",
"oX	c #52523B3B2D2D",
"OX	c #616146463434",
"+X	c #909064644E4E",
"@X	c #E5E5B4B49595",
"#X	c #1D1D14140F0F",
"$X	c #65654E4E3F3F",
"%X	c #9B9B79796666",
"&X	c #C4C4BEBEBABA",
"*X	c #C0C0BDBDBEBE",
"=X	c #C6C6BBBBABAB",
"-X	c #A8A888887676",
";X	c #5F5F33331A1A",
":X	c #696954544444",
">X	c #121201010000",
",X	c #E0E0B7B7A6A6",
"<X	c #5A5A40402F2F",
"1X	c #464628281B1B",
"2X	c #C0C095957B7B",
"3X	c #49492C2C2020",
"4X	c #A4A487877474",
"5X	c #4C4C2E2E1B1B",
"6X	c #85855F5F4747",
"7X	c #7D7D6C6C6161",
"8X	c #FBFBBABA8E8E",
"9X	c #030300000000",
"0X	c #3F3F3D3D3E3E",
"qX	c #51513E3E3838",
"wX	c #88887A7A6D6D",
"eX	c #CDCDC8C8C3C3",
"rX	c #C3C3BFBFC0C0",
"tX	c #C8C8C1C1B8B8",
"yX	c #8D8D6E6E5A5A",
"uX	c #868662624747",
"iX	c #676750504242",
"pX	c #2C2C25251A1A",
"aX	c #A7A780806262",
"sX	c #898973736161",
"dX	c #C1C19B9B7D7D",
"fX	c #25251D1D1919",
"gX	c #3D3D28282323",
"hX	c #696951514040",
"jX	c #BFBF92927070",
"kX	c #66664B4B3737",
"lX	c #2F2F1B1B0707",
"zX	c #C7C7A2A28383",
"xX	c #686860605D5D",
"cX	c #94948D8D8A8A",
"vX	c #C8C8C7C7C7C7",
"bX	c #C2C2C1C1C2C2",
"nX	c #CFCFC5C5BABA",
"mX	c #919177776464",
"MX	c #828275756969",
"NX	c #363623231515",
"BX	c #858563634949",
"VX	c #23231E1E1F1F",
"CX	c #40402D2D1A1A",
"ZX	c #9B9B74745F5F",
"AX	c #676755554A4A",
"SX	c #656545452F2F",
"DX	c #434337373636",
"FX	c #69694F4F4242",
"GX	c #232325251C1C",
"HX	c #5F5F4F4F4C4C",
"JX	c #111106060404",
"KX	c #56565B5B5858",
"LX	c #DDDDD5D5CACA",
"PX	c #C4C4C3C3C2C2",
"IX	c #C3C3BDBDB3B3",
"UX	c #6B6B5C5C5353",
"YX	c #60604A4A3B3B",
"TX	c #565638382626",
"RX	c #050504040C0C",
"EX	c #151507070707",
"WX	c #6D6D56564D4D",
"QX	c #1C1C12120303",
"!X	c #414136363434",
"~X	c #84846A6A5050",
"^X	c #3A3A29292525",
"/X	c #1D1D18181D1D",
"(X	c #12120C0C0808",
")X	c #717162625D5D",
"_X	c #666663635F5F",
"`X	c #CDCDC9C9C7C7",
"'X	c #C3C3C2C2C2C2",
"]X	c #B2B2ACACA1A1",
"[X	c #AAAA9A9A9090",
"{X	c #76766B6B6363",
"}X	c #131306060000",
"|X	c #080803030404",
" o	c #202018181010",
".o	c #333329291E1E",
"Xo	c #67674D4D3B3B",
"oo	c #0E0E13131515",
"Oo	c #3F3F2B2B1E1E",
"+o	c #020202020202",
"@o	c #7F7F76767070",
"#o	c #BABAB7B7B2B2",
"$o	c #C2C2C0C0C1C1",
"%o	c #C8C8C3C3BDBD",
"&o	c #D5D5D0D0CACA",
"*o	c #5F5F53534A4A",
"=o	c #8E8E83837777",
"-o	c #1A1A1E1E1B1B",
";o	c #141407070101",
":o	c #39392E2E2323",
">o	c #1E1E13131313",
",o	c #303026261E1E",
"<o	c #3A3A2B2B2828",
"1o	c #181813130C0C",
"2o	c #464645454343",
"3o	c #5E5E5B5B5555",
"4o	c #787872726D6D",
"5o	c #DEDEDADAD2D2",
"6o	c #CCCCCACAC4C4",
"7o	c #CDCDCACAC8C8",
"8o	c #8C8C81817777",
"9o	c #BABAB8B8B4B4",
"0o	c #666665656161",
"qo	c #4C4C3F3F3C3C",
"wo	c #3C3C36362B2B",
"eo	c #090907070707",
"ro	c #4F4F4D4D4B4B",
"to	c #181812120D0D",
"yo	c #393933332929",
"uo	c #606054544F4F",
"io	c #5B5B57575151",
"po	c #858582828282",
"ao	c #B2B2AEAEA8A8",
"so	c #B3B3B0B0A9A9",
"do	c #C3C3C2C2BFBF",
"fo	c #C3C3C1C1C1C1",
"go	c #C6C6C3C3C2C2",
"ho	c #C3C3BCBCB5B5",
"jo	c #B9B9B7B7B5B5",
"ko	c #919190908989",
"lo	c #707066665E5E",
"zo	c #808078786E6E",
"xo	c #52524F4F4E4E",
"co	c #858580807D7D",
"vo	c #4E4E49494141",
"bo	c #747470706A6A",
"no	c #93938B8B8383",
"mo	c #7E7E79797474",
"Mo	c #BBBBB9B9B1B1",
"No	c #D0D0CDCDC7C7",
"Bo	c #C7C7C6C6C4C4",
"Vo	c #C4C4C2C2BFBF",
"Co	c #BABAB7B7B3B3",
"Zo	c #B7B7B3B3A9A9",
"Ao	c #B6B6AFAFA7A7",
"So	c #92928F8F8A8A",
"Do	c #979794948E8E",
"Fo	c #A5A5A2A29999",
"Go	c #A9A9A5A59D9D",
"Ho	c #C2C2C0C0BEBE",
"Jo	c #B3B3ADADA9A9",
"Ko	c #CACAC8C8C0C0",
"                            .   X                               ",
"                      o     O + @ #   $ %                       ",
"&             * = - ; : > , < 1 2 3 4 5     6                   ",
"              7 8 9 0 q w e r t y u i p a s d                 & ",
"            f g h j k l z x c v b n m M N B V C Z             & ",
"            A S D F G H J K L P I U Y T R E W Q ! ~           & ",
"          ^ / ( ) _ ` ' ] [ { K } |  ...X.o.O.+.X @.#.        & ",
"              $.%.&.*.=.-.;.:.>.,.<.K 1.2.3.4.5.6.            & ",
"            7.8.9.0.q.w.e.r.K t.y.u.i.p.a.s.d.f.g.h.          & ",
"          & j.k.l.z.x.c.v.b.n.m.M.N.B.V.C.Z.A.S.D.F.          & ",
"            G.H.J.K.L.P.I.U.Y.T.R.E.W.Q.!.~.^./.(.).          & ",
"          ^ _.`.'.].[.{.}.|. X.XXXoXOX+X@X#X$XK %X&X            ",
"          *X=X-X;X:X>X,X<X1X2X3X4X5X6X7X8X9X0XqXwXeX            ",
"          rXtXyXuXiXpXaXK sXdXfXgXhXjXkXlXzXK xXcXvX            ",
"          bXnXmXMXNXBXK VXCXZXK AXSXDXFXGXHXJXKXLX              ",
"            PXIXUXYXTXRXEXWXQX!XK ~X^X/XK (X)X_X`X          &   ",
"            'X]X[X{X}X|X o.oK XoK ooOoK K +o@o#o            & & ",
"            $o%o&o*o=o-o;o:oK >o,oK <o1o2o3o4o5o6o            & ",
"                7o8o9o0oqowoeorotoyouoiopoaosodofo            & ",
"                gohojokolozoxocovobonomoMoNoBo                & ",
"                    VoCoZoAoSoDoFoGoHoJoKo                      ",
"                                                                ",
"& & & & & & & & & & & & & & & & & & & & & & & & & & & & & & & & ",
"& & & & & & & & & & & & & & & & & & & & & & & & & & & & & & & & ",
"& & & & & & & & & & & & & & & & & & & & & & & & & & & & & & & & ",
"& & & & & & & & & & & & & & & & & & & & & & & & & & & & & & & & ",
"& & & & & & & & & & & & & & & & & & & & & & & & & & & & & & & & ",
"& & & & & & & & & & & & & & & & & & & & & & & & & & & & & & & & ",
"& & & & & & & & & & & & & & & & & & & & & & & & & & & & & & & & ",
"& & & & & & & & & & & & & & & & & & & & & & & & & & & & & & & & ",
"& & & & & & & & & & & & & & & & & & & & & & & & & & & & & & & & ",
"& & & & & & & & & & & & & & & & & & & & & & & & & & & & & & & & "};
