/* XPM */
static char * image_name[] = {
"32 32 243 2",
"  	c #C1C1C1C1C1C1",
". 	c #9D9DB5B59D9D",
"X 	c #8C8CB1B18C8C",
"o 	c #8C8CAFAF8C8C",
"O 	c #9D9DB1B19D9D",
"+ 	c #4F4F96964F4F",
"@ 	c #000071710000",
"# 	c #000067670000",
"$ 	c #000069690000",
"% 	c #00006A6A0000",
"& 	c #111174741111",
"* 	c #6A6A9A9A6A6A",
"= 	c #AFAFB9B9AFAF",
"- 	c #A8A8B8B8A8A8",
"; 	c #343494943434",
": 	c #46468A8A4646",
"> 	c #7A7AA2A27A7A",
", 	c #000064640000",
"< 	c #000061610000",
"1 	c #000062620000",
"2 	c #000063630000",
"3 	c #000066660000",
"4 	c #000068680000",
"5 	c #23237D7D2323",
"6 	c #AFAFB3B3AFAF",
"7 	c #0B0B75750B0B",
"8 	c #000043430000",
"9 	c #000040400000",
"0 	c #9D9DADAD9D9D",
"q 	c #171780801717",
"w 	c #000069690A0A",
"e 	c #00006A6A0C0C",
"r 	c #00006E6E0E0E",
"t 	c #00003C3C0000",
"y 	c #00003B3B0000",
"u 	c #57577C7C5757",
"i 	c #00006C6C0101",
"p 	c #00006D6D1212",
"a 	c #000071711515",
"s 	c #00006C6C0505",
"d 	c #00006B6B0000",
"f 	c #9D9DA3A39D9D",
"g 	c #000032320000",
"h 	c #000039390000",
"j 	c #9D9DA9A99D9D",
"k 	c #080879790808",
"l 	c #000066660505",
"z 	c #00006E6E0A0A",
"x 	c #00006C6C0000",
"c 	c #000041410000",
"v 	c #6A6A93936A6A",
"b 	c #141484841414",
"n 	c #000065650000",
"m 	c #000069690303",
"M 	c #000067670101",
"N 	c #000066660101",
"B 	c #00006B6B0101",
"V 	c #575795955757",
"C 	c #00003E3E0000",
"Z 	c #000046460000",
"A 	c #7A7A95957A7A",
"S 	c #41418E8E4141",
"D 	c #00006D6D0000",
"F 	c #696984846969",
"G 	c #00004B4B0000",
"H 	c #00004E4E0000",
"J 	c #111172721111",
"K 	c #00006E6E0000",
"L 	c #00006F6F0000",
"P 	c #000052520000",
"I 	c #000049490000",
"U 	c #00005A5A3D3D",
"Y 	c #11116C6C6868",
"T 	c #8C8CAEAEC6C6",
"R 	c #9D9DB8B8CBCB",
"E 	c #050572720505",
"W 	c #000070700000",
"Q 	c #000072720000",
"! 	c #000073730101",
"~ 	c #474785854747",
"^ 	c #000057570000",
"/ 	c #000050504040",
"( 	c #00005F5FA1A1",
") 	c #00007373C4C4",
"_ 	c #00008080DADA",
"` 	c #00008989E9E9",
"' 	c #00008F8FF3F3",
"] 	c #4646A4A4E5E5",
"[ 	c #070779790707",
"{ 	c #000073730000",
"} 	c #000074740000",
"| 	c #000075750000",
" .	c #7B7B9D9D7B7B",
"..	c #000050500707",
"X.	c #000042424F4F",
"o.	c #000056569393",
"O.	c #00006D6DBABA",
"+.	c #00007C7CD3D3",
"@.	c #00009292F8F8",
"#.	c #01019999FFFF",
"$.	c #00009D9DFFFF",
"%.	c #00009999FBFB",
"&.	c #7A7AB0B0D5D5",
"*.	c #9D9DA5A59D9D",
"=.	c #03036E6E0303",
"-.	c #000076760000",
";.	c #000077770000",
":.	c #AFAFB5B5AFAF",
">.	c #00005E5E0000",
",.	c #000035353030",
"<.	c #000046467777",
"1.	c #00005A5A9999",
"2.	c #00007B7BD1D1",
"3.	c #06068D8DECEC",
"4.	c #0101A4A4FFFF",
"5.	c #1616B1B1FFFF",
"6.	c #8C8CB5B5D0D0",
"7.	c #000070700707",
"8.	c #000078780000",
"9.	c #232381812323",
"0.	c #00005C5C0404",
"q.	c #00002A2A4848",
"w.	c #000044447373",
"e.	c #00005D5D9E9E",
"r.	c #0A0A9090EDED",
"t.	c #4444D5D5FFFF",
"y.	c #5E5EF3F3FFFF",
"u.	c #1717B7B7FFFF",
"i.	c #0000A1A1FFFF",
"p.	c #3434A2A2EBEB",
"a.	c #000070700101",
"s.	c #000074740101",
"d.	c #303094943030",
"f.	c #34347A7A3434",
"g.	c #000040400B0B",
"h.	c #00002A2A4747",
"j.	c #000058589797",
"k.	c #00006969B2B2",
"l.	c #00007676CACA",
"z.	c #07078989E4E4",
"x.	c #4040D6D6FFFF",
"c.	c #23239F9FF2F2",
"v.	c #AFAFBBBBC3C3",
"b.	c #11116C6C1111",
"n.	c #000073730202",
"m.	c #000076760202",
"M.	c #575770705757",
"N.	c #000078780202",
"B.	c #232371712323",
"V.	c #000031310D0D",
"C.	c #000026264242",
"Z.	c #00003F3F6B6B",
"A.	c #000051518A8A",
"S.	c #00006363A8A8",
"D.	c #00007171C1C1",
"F.	c #0C0C9C9CF9F9",
"G.	c #232369692323",
"H.	c #34348A8A3434",
"J.	c #343461613434",
"K.	c #8C8CA1A18C8C",
"L.	c #11116A6A1111",
"P.	c #00001D1D3232",
"I.	c #000037375E5E",
"U.	c #00004A4A7E7E",
"Y.	c #00005B5B9A9A",
"T.	c #00007575C7C7",
"R.	c #00007F7FD8D8",
"E.	c #00008888E7E7",
"W.	c #00009292F9F9",
"Q.	c #00009393FAFA",
"!.	c #69698C8C6969",
"~.	c #00007A7A0D0D",
"^.	c #7D7DAEAE7D7D",
"/.	c #6969A2A26969",
"(.	c #000049490808",
").	c #000014142323",
"_.	c #000041416F6F",
"`.	c #00004E4E8585",
"'.	c #00006969B4B4",
"].	c #00007C7CD4D4",
"[.	c #00008383DFDF",
"{.	c #00008787E5E5",
"}.	c #23238A8AD3D3",
"|.	c #00007B7B0909",
" X	c #8C8CA9A98C8C",
".X	c #0D0D81810D0D",
"XX	c #34347F7F3434",
"oX	c #8C8C92929090",
"OX	c #111122222D2D",
"+X	c #000032325656",
"@X	c #000043437272",
"#X	c #00006767AFAF",
"$X	c #00007070BFBF",
"%X	c #69699999BBBB",
"&X	c #232356562323",
"*X	c #000077770606",
"=X	c #24247C7C2424",
"-X	c #000060600000",
";X	c #575761616868",
":X	c #000016162626",
">X	c #000022223A3A",
",X	c #00002E2E4F4F",
"<X	c #00006161A5A5",
"1X	c #00006464ABAB",
"2X	c #23237171A8A8",
"3X	c #000069690505",
"4X	c #8C8CABAB8C8C",
"5X	c #464655555F5F",
"6X	c #000023233C3C",
"7X	c #00002F2F5151",
"8X	c #00003C3C6666",
"9X	c #00004D4D8383",
"0X	c #232362628F8F",
"qX	c #AFAFB5B5BABA",
"wX	c #8C8CA6A68C8C",
"eX	c #8C8C94949999",
"rX	c #111133334B4B",
"tX	c #000030305151",
"yX	c #111141416262",
"uX	c #696982829393",
"iX	c #AFAFB4B4B7B7",
"pX	c #9D9DA5A5AAAA",
"aX	c #00007B7B0000",
"sX	c #00007F7F0000",
"dX	c #000081810000",
"fX	c #111189891111",
"gX	c #00007A7A0000",
"hX	c #00007C7C0000",
"jX	c #00007D7D0000",
"kX	c #00007E7E0000",
"lX	c #57579D9D5757",
"zX	c #696988886969",
"xX	c #000079790000",
"cX	c #57579B9B5757",
"vX	c #000059590000",
"bX	c #000080800000",
"nX	c #000082820000",
"mX	c #000083830000",
"MX	c #000084840000",
"NX	c #111185851111",
"BX	c #000085850000",
"VX	c #57578D8D5757",
"CX	c #34348C8C3434",
"                                                                ",
"              . X o                                             ",
"        O + @ # $ % & * =                   - ; : =             ",
"      > & , < 1 2 , 3 4 5 O               6 7 8 9 9             ",
"    0 q < < < 1 w e r # $ 5 O               t y t u             ",
"    + i < < 1 w p p a r s d :           f g h h 9 9             ",
"  j k 2 1 1 2 l w l l w z d x O           y h t c u             ",
"  v b , 2 n n m M N N N m B x V         h t C 8 Z A             ",
"  S d n n # $ % B % $ 4 4 i D &       F 8 c Z G H 0             ",
"  J # 3 # d D K L K K D x D D x O     P I G P U Y T R           ",
"6 E 4 $ % D W @ Q ! ! @ L L D x O   ~ ^ P / ( ) _ ` ' ] R       ",
"j [ % d D W Q { } | | } Q W D &    .4 ..X.o.O.+.` @.#.$.%.&.    ",
"*.=.d K L @ Q { | -.;.-.| Q $  .:.& >.,.<.1.O.2.3.4.5.4.4.$.6.  ",
"j 7.K W Q Q Q { | -.;.8.;.9.:.  * , 0.q.w.e.O.+.r.t.y.u.4.i.p.  ",
"*.3 a.s.{ { Q Q J v A A  . .d.; f.K g.h.<.j.k.l.z.z.x.5.i.i.c.v.",
"6 b.n.m.} { Q Q O         M.7 N.B.K V.C.Z.A.S.D.+.3.F.#.#.#.@.v.",
"  G.N.N.| Q @ H.      . o f J.K.L.x V.P.I.U.Y.k.T.R.E.' W.Q.`   ",
"  !.~.m.| Q W >     ^.{ @ /.=   G.3 (.).C._.`.e.'.l.].[.{.{.}.  ",
"  j l |.m.Q W 0    X.Xx D n XX    0 oXOXP.+X@XA.e.#X$Xl.2.l.%X  ",
"    &X7.*XQ 5     =Xx x < -X$ =       ;X:X>X,X_.A.Y.<X1Xk.2X    ",
"    f f.3XQ  X  A } x < >.3 D 4X        5XP.6X7X8X@XU.9X0XqX    ",
"        oXwX    f.x 4 >., D W H.=         eXeXrXh.tXyXuXiX      ",
"                , % , 1 % W { 8.+ X . =         pXpX            ",
"              0 D 4 , 4 K Q | 8.aXsXdXfX+ =                     ",
"              A x 4 4 x @ | 8.gXaXhXjXkXsXlX                    ",
"              zXd $ d L -.xXaXaXhXhXhXhXjXcX                    ",
"              F # d L { xXjXkXkXjXhXaXgX8.=                     ",
"              6 vXK Q ;.kXbXnXnXdXsXhXxX>                       ",
"                ~ W | aXsXmXMXMXmXdXNXO                         ",
"                6 B.| kXnXBXBXMXdXlXO                           ",
"                    VXH.; CXV wX:.                              ",
"                                                                "};
