/* XPM */
static char * airGroup7_xpm[] = {
"15 15 3 1",
" 	c #FFFFFFFFFFFF",
".	c #000000000000",
"X	c #000011110000",
"    .......    ",
"  ...     ...  ",
" ..         .. ",
".. ....   .. ..",
". ......  .X. .",
". ......  ... .",
". ..  .. .... .",
".      .....  .",
".     .. ..   .",
".    ...      .",
"..   .....   ..",
" .   .....   . ",
" ..   ...   .. ",
"  ...     ...  ",
"    .......    "};
