/* XPM */
static char * airIcon_xpm[] = {
"11 11 3 1",
" 	c #FFFFFFFFFFFF",
".	c #000000000000",
"X	c #000011110000",
"           ",
" ....   .. ",
"......  .X.",
"......  ...",
"..  .. ....",
"     ..... ",
"    .. ..  ",
"   ...     ",
"   .....   ",
"   .....   ",
"    ...    "};
