/* XPM */
static char * image_name[] = {
"32 32 254 2",
"  	c #C1C1C1C1C1C1",
". 	c #AEAEB1B1B9B9",
"X 	c #8989B0B0C1C1",
"o 	c #7C7CAEAEC8C8",
"O 	c #8989B6B6CCCC",
"+ 	c #BBBBCACAC7C7",
"@ 	c #AEAEB7B7B0B0",
"# 	c #181865659999",
"$ 	c #00006666AFAF",
"% 	c #00007575C7C7",
"& 	c #01018181DADA",
"* 	c #02028B8BECEC",
"= 	c #18189797EDED",
"- 	c #6363B0B0DFDF",
"; 	c #89899B9B9E9E",
": 	c #000047477A7A",
"> 	c #00005B5B9A9A",
", 	c #00006969B3B3",
"< 	c #06069898FCFC",
"1 	c #01019898FEFE",
"2 	c #2525A0A0F2F2",
"3 	c #BBBBCCCCCACA",
"4 	c #AEAEAEAEA1A1",
"5 	c #000032325555",
"6 	c #000058589696",
"7 	c #00007272C2C2",
"8 	c #2020A8A8FAFA",
"9 	c #4141D0D0FFFF",
"0 	c #1F1FB5B5FFFF",
"q 	c #04049C9CFFFF",
"w 	c #5757B0B0E6E6",
"e 	c #00002F2F5050",
"r 	c #000044447575",
"t 	c #000054548E8E",
"y 	c #00006161A5A5",
"u 	c #00006D6DBABA",
"i 	c #03037B7BCFCF",
"p 	c #2222A4A4F4F4",
"a 	c #5F5FE8E8FFFF",
"s 	c #4949DBDBFFFF",
"d 	c #0E0EA3A3FFFF",
"f 	c #00009696FEFE",
"g 	c #9595C0C0D2D2",
"h 	c #BBBBBDBDB1B1",
"j 	c #00001B1B2E2E",
"k 	c #00002A2A4848",
"l 	c #00003E3E6A6A",
"z 	c #00004D4D8484",
"x 	c #08088585DCDC",
"c 	c #5151B7B7EEEE",
"v 	c #25259E9EF1F1",
"b 	c #5757ABABDFDF",
"n 	c #95959D9D9696",
"m 	c #00001D1D3131",
"M 	c #000026264242",
"N 	c #000037375D5D",
"B 	c #000053538D8D",
"V 	c #31317C7CACAC",
"C 	c #8989AFAFC0C0",
"Z 	c #B7B7B7B7A9A9",
"A 	c #C7C7CFCFC6C6",
"S 	c #C1C1C1C1B3B3",
"D 	c #CCCCCCCCBDBD",
"F 	c #00001E1E3535",
"G 	c #8989A4A4ACAC",
"H 	c #8C8C8C8C8282",
"J 	c #414141413D3D",
"K 	c #262626262424",
"L 	c #222222222222",
"P 	c #3D3D3D3D3B3B",
"I 	c #777777777272",
"U 	c #C6C6C6C6B7B7",
"Y 	c #A0A0A0A09595",
"T 	c #2C2C2C2C2B2B",
"R 	c #1B1B1B1B1B1B",
"E 	c #363636363333",
"W 	c #595959595555",
"Q 	c #9B9B9B9B9090",
"! 	c #AEAEB3B3AAAA",
"~ 	c #00002C2C4B4B",
"^ 	c #121212121212",
"/ 	c #393939393636",
"( 	c #1D1D1D1D1D1D",
") 	c #7A7A7B7B7474",
"_ 	c #7D7D7D7D7575",
"` 	c #565656565050",
"' 	c #616161615A5A",
"] 	c #252525252323",
"[ 	c #1F1F1F1F1E1E",
"{ 	c #6D6D6D6D6868",
"} 	c #252542425353",
"| 	c #575771717D7D",
" .	c #CBCBCBCBBCBC",
"..	c #2D2D2D2D2C2C",
"X.	c #9595B2B2BBBB",
"o.	c #656565655F5F",
"O.	c #BABABABAACAC",
"+.	c #484848484444",
"@.	c #1A1A1A1A1919",
"#.	c #6B6B6B6B6767",
"$.	c #CACACACABABA",
"%.	c #898994949292",
"&.	c #BDBDC3C3B3B3",
"*.	c #0F0F0F0F0F0F",
"=.	c #C2C2C5C5B9B9",
"-.	c #66668F8FA4A4",
";.	c #000054549090",
":.	c #31317B7BA3A3",
">.	c #BEBEBFBFB1B1",
",.	c #767676766E6E",
"<.	c #333333333131",
"1.	c #919191918787",
"2.	c #AEAEBDBDA1A1",
"3.	c #70709C9C6767",
"4.	c #878787878080",
"5.	c #9595A0A09D9D",
"6.	c #C1C1C1C1B5B5",
"7.	c #353560607A7A",
"8.	c #00003B3B6262",
"9.	c #00003F3F6C6C",
"0.	c #000043437A7A",
"q.	c #9595AAAAB4B4",
"w.	c #707070706868",
"e.	c #959595958A8A",
"r.	c #3A3A3A3A3838",
"t.	c #181865651717",
"y.	c #000062620000",
"u.	c #0B0B87870B0B",
"i.	c #B2B2C2C2A4A4",
"p.	c #B9B9B9B9ABAB",
"a.	c #515151514D4D",
"s.	c #9595A5A5A5A5",
"d.	c #000040406767",
"f.	c #000037376C6C",
"g.	c #464646464242",
"h.	c #545454544E4E",
"j.	c #171717171717",
"k.	c #3E3E78783939",
"l.	c #3A3A9E9E3838",
"z.	c #2020A4A42020",
"x.	c #6363ACAC5C5C",
"c.	c #7B7B7B7B7373",
"v.	c #8A8A8A8A8282",
"b.	c #868686867C7C",
"n.	c #7C7C90909595",
"m.	c #25254F4F6A6A",
"M.	c #3E3E64647979",
"N.	c #7C7C7C7C9898",
"B.	c #4E4E4E4E4D4D",
"V.	c #9595A7A78A8A",
"C.	c #70708A8A6868",
"Z.	c #010175750101",
"A.	c #A5A5A6A69A9A",
"S.	c #141416161818",
"D.	c #8A8A8A8A7F7F",
"F.	c #2A2A2A2A2929",
"G.	c #575776765050",
"H.	c #25255C5C2222",
"J.	c #00005D5D0000",
"K.	c #4A4A89894545",
"L.	c #A0A0A3A39999",
"P.	c #1B1B1D1D1F1F",
"I.	c #737373736C6C",
"U.	c #25254D4D2222",
"Y.	c #000032320000",
"T.	c #000039390000",
"R.	c #00004A4A0000",
"E.	c #1A1A1A1A1A1A",
"W.	c #252525252525",
"Q.	c #C5C5C5C5C2C2",
"!.	c #090918185B5B",
"~.	c #57576E6E5C5C",
"^.	c #BBBBC1C1ACAC",
"/.	c #26262C2C2E2E",
"(.	c #292929292727",
").	c #303030302F2F",
"_.	c #AAAAAAAA9E9E",
"`.	c #B2B2B2B2A5A5",
"'.	c #191920209F9F",
"].	c #000005058585",
"[.	c #676767676060",
"{.	c #B8B8B8B8B2B2",
"}.	c #4E4E4E4E4A4A",
"|.	c #BCBCBCBCAEAE",
" X	c #202020201F1F",
".X	c #8F8F8F8F8484",
"XX	c #999999998E8E",
"oX	c #898989899393",
"OX	c #4C4C4C4C4747",
"+X	c #575757576F6F",
"@X	c #000000006767",
"#X	c #7C7C7C7CB8B8",
"$X	c #BBBBBBBBC6C6",
"%X	c #3E3E6B6B3B3B",
"&X	c #000004045050",
"*X	c #000000008686",
"=X	c #00000000A3A3",
"-X	c #00000000B9B9",
";X	c #BBBBBEBEACAC",
":X	c #0C0C36360B0B",
">X	c #00005A5A0000",
",X	c #030345452828",
"<X	c #010107079696",
"1X	c #00000000AFAF",
"2X	c #63636363C9C9",
"3X	c #89898989C4C4",
"4X	c #7C7C92927373",
"5X	c #57579A9A5050",
"6X	c #AEAEC6C6A1A1",
"7X	c #7C7C86867373",
"8X	c #00002D2D0000",
"9X	c #AEAEB5B5A1A1",
"0X	c #343478784F4F",
"qX	c #07072222B4B4",
"wX	c #03030303E3E3",
"eX	c #0C0C0D0DE8E8",
"rX	c #00000202D3D3",
"tX	c #080883830808",
"yX	c #161698981515",
"uX	c #000027270000",
"iX	c #191985851717",
"pX	c #000025257878",
"aX	c #0B0B0B0BB7B7",
"sX	c #0B0B0B0BBEBE",
"dX	c #0B0B0B0BC9C9",
"fX	c #00000000BFBF",
"gX	c #04040404CBCB",
"hX	c #000035350808",
"jX	c #636387875C5C",
"kX	c #6161ACAC5B5B",
"lX	c #2D2DB6B62D2D",
"zX	c #18183D3D1717",
"xX	c #000034340000",
"cX	c #00004C4C0000",
"vX	c #000015155050",
"bX	c #000000006B6B",
"nX	c #000000007171",
"mX	c #000000007878",
"MX	c #000000007E7E",
"NX	c #000000008E8E",
"BX	c #000000009696",
"VX	c #00000C0C5E5E",
"CX	c #0C0C31311D1D",
"ZX	c #0C0C89890B0B",
"AX	c #313153532E2E",
"SX	c #57577B7B5050",
"DX	c #95959595A3A3",
"FX	c #313131317474",
"GX	c #0C0C1E1E3939",
"HX	c #31315C5C2E2E",
"JX	c #000066660000",
"KX	c #00003D3D0000",
"LX	c #C7C7CACAB8B8",
"PX	c #898999997E7E",
"                                                                ",
"            . X o O +                                           ",
"        @ # $ % & * = -                                         ",
"      ; : > , % & * < 1 2 3                                     ",
"    4 5 : 6 $ 7 & 8 9 0 q w                                     ",
"      e r t y u i p a s d f g                                   ",
"  h j k l z > $ 7 x c c c v b                                   ",
"  n m M N r B V C     Z Z Z A           S D                     ",
"  n F M e l G   H J K L L P I S U Y T R R E W Q D               ",
"  ! F M ~ ; S J ^ ^ ^ E / K ( P ) U _ ` ' J ] [ { S             ",
"    } M |  ...^ E H   X.X. ._ T [ o.U       O.+.@.#.$.          ",
"    %.M &.o.*.P =.-.t ;.:.>.,.Z <.@.1.  2.3.3.&.' ^ 4.          ",
"      5. .^ @.6.7.8.9.0.q.w.L e.Z [ r.D t.y.u.u.i...<.p.        ",
"        e.*.a.s.N 8.d.f. .g.T D   h.j.Q Q k.l.z.x.c.R v.        ",
"        b.^ ,.n.m.M.N.@   @.B.    b.^ H V.  C.Z.l.A.S.)         ",
"        D.^ ,.            F.a.    ,.^ e.G.o.H.J.K.L.P.I.        ",
"        >.[ g.D           g.B.p.  g.^ $.U.Y.T.R.2.) E._         ",
"          P L 1.          D.W.I.O./ P Q.!.F ~.^.$./.L Z         ",
"          $.(.).Q D        .<.F.v._.`.'.].].   .[.R a.          ",
"            A.F.T 4.Q `._.4 4 (.W.#.`.{..   _.}.( ).$.          ",
"              |.' T E.L ^  X.XA./ [ L <.E T R E.J S             ",
"                  >.XXb.,.XX`.oX>.e.OXK K L }.1.                ",
"                            +X@X@X#X$X   .                      ",
"                        ^.%X&X*X=X-Xq.                          ",
"                      ;X:X>X,X<X1X1X2X3X3X3XQ.Q.  4XK.5X6X      ",
"                      7X8Xk.9X0XqXwXeXwXeXrXrXrX'.T.J.tXyX6X    ",
"                      XXuX%X2.iXpXaXsX-XdXfXgXgX<XhXjXkXlXlX    ",
"                      ;XzXxXcXJ.vXbXnXmXMX*XNXBXVXCX^.V.Z.ZX    ",
"                        9XAXU.SX! DXDXN.N.FXFX!.GX8XHXt.JXJX    ",
"                                                A.zXY.KXR.2.    ",
"                                                  LXPX4X^.      ",
"                                                                "};
