<?xml version="1.0" encoding="utf-8"?>
<!-- Generator: Adobe Illustrator 13.0.2, SVG Export Plug-In . SVG Version: 6.00 Build 14948)  -->
<svg version="1.2" baseProfile="tiny" id="Layer_2" xmlns="http://www.w3.org/2000/svg" xmlns:xlink="http://www.w3.org/1999/xlink"
	 x="0px" y="0px" width="245.811px" height="245.809px" viewBox="0 0 245.811 245.809" xml:space="preserve">
<g>
	<path fill="none" stroke="#FFFFFF" stroke-width="8.3854" stroke-linecap="round" stroke-linejoin="round" d="M237.696,122.847
		c0,63.396-51.394,114.785-114.789,114.785c-63.396,0-114.79-51.389-114.79-114.785C8.117,59.448,59.511,8.06,122.907,8.06
		C186.302,8.06,237.696,59.448,237.696,122.847z"/>
	<path fill="none" stroke="#2EA249" stroke-width="8.6537" stroke-linecap="round" stroke-linejoin="round" d="M241.369,122.847
		c0,65.425-53.038,118.457-118.462,118.457c-65.424,0-118.462-53.032-118.462-118.457c0-65.427,53.038-118.459,118.462-118.459
		C188.331,4.388,241.369,57.421,241.369,122.847z"/>
	<path fill="#F9A11F" d="M219.49,122.768c0,53.415-43.302,96.729-96.711,96.729c-53.426,0-96.733-43.314-96.733-96.729
		c0-53.417,43.307-96.719,96.733-96.719C176.188,26.049,219.49,69.351,219.49,122.768z"/>
	<path fill="#D68228" d="M185.111,51.225c4.436,10.926,6.9,22.851,6.9,35.361c0,51.998-42.156,94.153-94.146,94.153
		c-24.314,0-46.482-9.231-63.181-24.355c13.341,36.267,48.196,62.131,89.089,62.131c52.416,0,94.869-42.484,94.869-94.914
		C218.643,94.588,205.639,68.636,185.111,51.225z"/>
	<path fill="#FFFFFF" d="M102.787,90.888c0,5.843-4.726,10.561-10.568,10.561c-5.846,0-10.574-4.718-10.574-10.561
		c0-5.846,4.728-10.578,10.574-10.578C98.061,80.31,102.787,85.043,102.787,90.888z"/>
	<path fill="none" stroke="#000000" stroke-width="5.8721" stroke-linecap="round" stroke-linejoin="round" d="M219.49,122.768
		c0,53.415-43.302,96.729-96.711,96.729c-53.426,0-96.733-43.314-96.733-96.729c0-53.417,43.307-96.719,96.733-96.719
		C176.188,26.049,219.49,69.351,219.49,122.768z"/>
	<path stroke="#000000" stroke-width="1.7171" stroke-linecap="round" stroke-linejoin="round" d="M151.048,122.772
		c0,15.623-12.661,28.285-28.276,28.285c-15.627,0-28.289-12.662-28.289-28.285c0-15.619,12.662-28.278,28.289-28.278
		C138.386,94.494,151.048,107.153,151.048,122.772z"/>
</g>
</svg>
