<?xml version="1.0" encoding="utf-8"?>
<!-- Generator: Adobe Illustrator 13.0.1, SVG Export Plug-In . SVG Version: 6.00 Build 14948)  -->
<svg version="1.2" baseProfile="tiny" id="Layer_2" xmlns="http://www.w3.org/2000/svg" xmlns:xlink="http://www.w3.org/1999/xlink"
	 x="0px" y="0px" width="245.811px" height="245.809px" viewBox="0 0 245.811 245.809" xml:space="preserve">
<g>
	<path stroke="#000000" stroke-width="2.4225" stroke-linecap="round" stroke-linejoin="round" d="M180.788,163.268
		c-3.01-67.055-22.559-111.176-22.559-128.04c0-16.257,13.221-27.887,28.865-27.887c15.646,0,28.866,11.63,28.866,27.887
		c0,16.863-19.546,60.984-22.54,128.04H180.788z"/>
	<path stroke="#000000" stroke-width="2.4225" stroke-linecap="round" stroke-linejoin="round" d="M187.096,186.573
		c15.041,0,27.375,12.559,27.375,28.182c0,15.327-12.334,27.906-27.375,27.906c-15.333,0-27.673-12.579-27.673-27.906
		C159.423,199.131,171.763,186.573,187.096,186.573z"/>
	<path fill="#F9A11F" stroke="#F9A11F" stroke-width="2.4225" stroke-linecap="round" stroke-linejoin="round" d="M173.921,158.043
		c-3-67.057-22.549-111.178-22.549-128.038c0-16.262,13.224-27.893,28.861-27.893c15.652,0,28.877,11.631,28.877,27.893
		c0,16.858-19.556,60.979-22.546,128.038H173.921z"/>
	<path fill="#F9A11F" stroke="#F9A11F" stroke-width="2.4225" stroke-linecap="round" stroke-linejoin="round" d="M180.235,181.345
		c15.037,0,27.384,12.563,27.384,28.181c0,15.327-12.347,27.906-27.384,27.906c-15.331,0-27.665-12.579-27.665-27.906
		C152.57,193.907,164.904,181.345,180.235,181.345z"/>
</g>
<g>
	<path fill="#2EA249" stroke="#231F20" stroke-width="6.25" stroke-linecap="round" stroke-linejoin="round" d="M62.357,235.193
		C19.962,170.616,18.577,90.469,61.315,9.424l65.617,23.679c-43.883,68.778-44.009,109.698,0.671,177.54L62.357,235.193z"/>
	<path fill="#5FBB5D" stroke="#231F20" stroke-width="6.25" stroke-linecap="round" stroke-linejoin="round" d="M127.252,32.85
		c-2.474,6.896-19.318,7.177-37.629,0.618c-18.29-6.553-30.662-17.515-28.188-24.413c2.474-6.897,18.849-7.12,37.154-0.563
		C116.883,15.047,129.722,25.952,127.252,32.85z"/>
	<path fill="#206C36" stroke="#231F20" stroke-width="6.25" stroke-linecap="round" stroke-linejoin="round" d="M62.235,235.09
		c2.474,6.895,19.304,7.175,37.613,0.616c18.29-6.551,30.676-17.516,28.202-24.413c-2.473-6.896-18.86-7.12-37.17-0.563
		C72.59,217.284,59.765,228.189,62.235,235.09z"/>
</g>
</svg>
