<?xml version="1.0" encoding="utf-8"?>
<!-- Generator: Adobe Illustrator 13.0.1, SVG Export Plug-In . SVG Version: 6.00 Build 14948)  -->
<svg version="1.2" baseProfile="tiny" id="Layer_2" xmlns="http://www.w3.org/2000/svg" xmlns:xlink="http://www.w3.org/1999/xlink"
	 x="0px" y="0px" width="245.811px" height="245.809px" viewBox="0 0 245.811 245.809" xml:space="preserve">
<g>
	<g>
		<path stroke="#000000" stroke-width="2.4225" stroke-linecap="round" stroke-linejoin="round" d="M196.077,163.268
			c-3.009-67.055-22.558-111.176-22.558-128.04c0-16.257,13.22-27.887,28.865-27.887c15.646,0,28.866,11.63,28.866,27.887
			c0,16.863-19.546,60.984-22.54,128.04H196.077z"/>
		<path stroke="#000000" stroke-width="2.4225" stroke-linecap="round" stroke-linejoin="round" d="M202.385,186.573
			c15.041,0,27.375,12.559,27.375,28.182c0,15.327-12.334,27.906-27.375,27.906c-15.333,0-27.673-12.579-27.673-27.906
			C174.712,199.131,187.052,186.573,202.385,186.573z"/>
		<path fill="#F9A11F" stroke="#F9A11F" stroke-width="2.4225" stroke-linecap="round" stroke-linejoin="round" d="M189.21,158.043
			c-3-67.056-22.549-111.178-22.549-128.038c0-16.262,13.224-27.892,28.862-27.892c15.652,0,28.877,11.63,28.877,27.892
			c0,16.858-19.556,60.98-22.546,128.038H189.21z"/>
		<path fill="#F9A11F" stroke="#F9A11F" stroke-width="2.4225" stroke-linecap="round" stroke-linejoin="round" d="M195.524,181.345
			c15.037,0,27.383,12.563,27.383,28.181c0,15.327-12.346,27.906-27.383,27.906c-15.331,0-27.665-12.579-27.665-27.906
			C167.859,193.907,180.193,181.345,195.524,181.345z"/>
	</g>
	<g>
		<path fill="#FFFFFF" d="M139.609,236.173l6.463-3.149c2.783-1.362,6.142-3.678,7.011-8.374
			c15.461-72.551-36.003-113.554-61.162-131.571c-10.894-7.757-17.69-17.683-18.977-32.466c-1.107-12.819-7.148-72.114-45.15-53.573
			c-38.002,18.538,5.011,59.795,14.417,68.559c10.854,10.119,14.496,21.588,13.901,34.946
			c-1.284,30.894-0.622,96.679,66.102,129.153c4.244,2.214,8.14,0.989,10.923-0.363L139.609,236.173z"/>
		
			<line fill="none" stroke="#CA2129" stroke-width="10.8878" stroke-linecap="round" stroke-linejoin="round" x1="50.474" y1="77.853" x2="69.521" y2="68.56"/>
		
			<line fill="none" stroke="#CA2129" stroke-width="10.8878" stroke-linecap="round" stroke-linejoin="round" x1="58.883" y1="95.082" x2="77.926" y2="85.791"/>
		<path fill="none" stroke="#000000" stroke-width="6.1862" d="M139.609,236.173l6.463-3.149c2.783-1.362,6.142-3.678,7.011-8.374
			c15.461-72.551-36.003-113.554-61.162-131.571c-10.894-7.757-17.69-17.683-18.977-32.466c-1.107-12.819-7.148-72.114-45.15-53.573
			c-38.002,18.538,5.011,59.795,14.417,68.559c10.854,10.119,14.496,21.588,13.901,34.946
			c-1.284,30.894-0.622,96.679,66.102,129.153c4.244,2.214,8.14,0.989,10.923-0.363L139.609,236.173z"/>
	</g>
</g>
</svg>
