<?xml version="1.0" encoding="utf-8"?>
<!-- Generator: Adobe Illustrator 13.0.2, SVG Export Plug-In . SVG Version: 6.00 Build 14948)  -->
<svg version="1.2" baseProfile="tiny" id="Layer_1" xmlns="http://www.w3.org/2000/svg" xmlns:xlink="http://www.w3.org/1999/xlink"
	 x="0px" y="0px" width="239.561px" height="239.559px" viewBox="0 0 239.561 239.559" xml:space="preserve">
<g>
	<g>
		<path fill="#FFFFFF" d="M15.495,197.248l-0.003,6.139c0.002,2.643,0.519,6.082,3.791,8.506
			c49.799,39.002,100.441,14.932,123.666,2.406c10.021-5.441,20.17-6.934,31.977-2.387c10.237,3.949,57.929,21.518,57.947-14.549
			c0.021-36.057-47.688-18.545-57.924-14.617c-11.816,4.529-21.966,3.025-31.979-2.43c-23.173-12.535-73.823-36.65-123.664,2.287
			c-3.283,2.418-3.803,5.861-3.81,8.5L15.495,197.248z"/>
		
			<line fill="none" stroke="#CA2129" stroke-width="10" stroke-linecap="round" stroke-linejoin="round" x1="170.129" y1="188.234" x2="170.119" y2="206.316"/>
		
			<line fill="none" stroke="#CA2129" stroke-width="10" stroke-linecap="round" stroke-linejoin="round" x1="153.779" y1="188.226" x2="153.77" y2="206.306"/>
		<path fill="none" stroke="#000000" stroke-width="6.25" d="M15.495,197.248l-0.003,6.139c0.002,2.643,0.519,6.082,3.791,8.506
			c49.799,39.002,100.441,14.932,123.666,2.406c10.021-5.441,20.17-6.934,31.977-2.387c10.237,3.949,57.929,21.518,57.947-14.549
			c0.021-36.057-47.688-18.545-57.924-14.617c-11.816,4.529-21.966,3.025-31.979-2.43c-23.173-12.535-73.823-36.65-123.664,2.287
			c-3.283,2.418-3.803,5.861-3.81,8.5L15.495,197.248z"/>
	</g>
	<g>
		<path fill="#FFFFFF" d="M14.949,224.025l4.14,4.521c1.786,1.946,4.491,4.135,8.541,3.711
			c63.066-4.888,84.141-56.851,92.799-81.771c3.712-10.782,10.187-18.739,21.963-23.363c10.216-4,57.245-23.267,32.902-49.861
			c-24.345-26.596-47.689,18.547-52.578,28.356c-5.652,11.32-14.155,17.065-25.223,19.81c-25.55,6.409-79.186,22.848-89.626,85.228
			c-0.787,3.999,1.157,6.892,2.934,8.841L14.949,224.025z"/>
		
			<line fill="none" stroke="#CA2129" stroke-width="10" stroke-linecap="round" stroke-linejoin="round" x1="122.869" y1="112.919" x2="135.068" y2="126.246"/>
		
			<line fill="none" stroke="#CA2129" stroke-width="10" stroke-linecap="round" stroke-linejoin="round" x1="110.807" y1="123.957" x2="123.01" y2="137.282"/>
		<path fill="none" stroke="#000000" stroke-width="6.25" d="M14.949,224.025l4.14,4.521c1.786,1.946,4.491,4.135,8.541,3.711
			c63.066-4.888,84.141-56.851,92.799-81.771c3.712-10.782,10.187-18.739,21.963-23.363c10.216-4,57.245-23.267,32.902-49.861
			c-24.345-26.596-47.689,18.547-52.578,28.356c-5.652,11.32-14.155,17.065-25.223,19.81c-25.55,6.409-79.186,22.848-89.626,85.228
			c-0.787,3.999,1.157,6.892,2.934,8.841L14.949,224.025z"/>
	</g>
	<path fill="none" stroke="#F9A11F" stroke-width="6.25" d="M224.23,37.843c0,15.854-12.842,28.678-28.693,28.678
		c-15.853,0-28.703-12.826-28.703-28.678c0-15.854,12.851-28.708,28.703-28.708C211.388,9.134,224.23,21.989,224.23,37.843z"/>
	<path fill="#FFFFFF" stroke="#FFFFFF" stroke-width="2" stroke-linecap="round" stroke-linejoin="round" d="M100.094,25.329
		l-6.822,2.169l-1.164-4.549l9.201-2.644h4.493v35.219h-5.708V25.329z"/>
	<path fill="#FFFFFF" stroke="#FFFFFF" stroke-width="2" stroke-linecap="round" stroke-linejoin="round" d="M132.838,52.224
		c6.451-6.083,15.866-14.86,15.866-22.311c0-3.961-2.433-5.705-5.446-5.705c-3.439,0-5.768,1.584-7.565,3.38l-2.803-3.59
		c2.434-2.38,5.818-4.497,10.951-4.497c6.821,0,10.998,3.862,10.998,9.67c0,7.77-7.405,15.276-14.069,21.626
		c0,0,2.221-0.159,3.968-0.159h10.896v4.707h-22.795V52.224L132.838,52.224z"/>
	<path fill="#FFFFFF" stroke="#FFFFFF" stroke-width="2" stroke-linecap="round" stroke-linejoin="round" d="M186.302,55.78
		l0.843-4.601c0.637,0.157,2.168,0.526,4.656,0.526c5.71,0,8.99-2.325,8.99-6.399c0-4.653-4.073-6.238-10.42-6.292v-3.966
		c5.236-0.106,9.414-2.486,9.414-6.346c0-2.595-1.85-4.073-5.077-4.073c-3.014,0-5.022,1.059-6.662,2.326l-2.486-3.702
		c1.904-1.534,5.235-3.385,9.995-3.385c6.717,0,10.153,3.385,10.153,8.039c0,4.497-3.596,7.246-7.35,8.304v0.104
		c4.335,0.53,8.514,3.757,8.514,8.834c0,7.191-6.135,11.211-14.912,11.211C188.837,56.36,186.932,55.99,186.302,55.78z"/>
</g>
</svg>
