<?xml version="1.0" encoding="utf-8"?>
<!-- Generator: Adobe Illustrator 13.0.2, SVG Export Plug-In . SVG Version: 6.00 Build 14948)  -->
<svg version="1.2" baseProfile="tiny" id="Layer_1" xmlns="http://www.w3.org/2000/svg" xmlns:xlink="http://www.w3.org/1999/xlink"
	 x="0px" y="0px" width="239.561px" height="239.559px" viewBox="0 0 239.561 239.559" xml:space="preserve">
<g>
	<circle fill="none" stroke="#000000" stroke-width="5.8125" cx="119.78" cy="119.564" r="111.396"/>
	
		<circle fill="none" stroke="#FFFFFF" stroke-width="6.2455" stroke-linecap="round" stroke-linejoin="round" cx="119.933" cy="119.647" r="106.196"/>
	<g>
		<path fill="#FFFFFF" d="M178.772,190.647l5.255,0.003c2.266-0.001,5.214-0.443,7.289-3.248
			c33.433-42.687,12.8-86.068,2.064-105.97c-4.665-8.588-5.944-17.288-2.047-27.408c3.385-8.773,18.441-49.651-12.462-49.668
			c-30.905-0.018-15.895,40.876-12.528,49.649c3.881,10.128,2.594,18.828-2.084,27.41c-10.742,19.854-31.421,63.245,1.962,105.967
			c2.073,2.814,5.023,3.259,7.286,3.263L178.772,190.647z"/>
		
			<line fill="none" stroke="#CA2129" stroke-width="10" stroke-linecap="round" stroke-linejoin="round" x1="171.047" y1="58.137" x2="186.537" y2="58.145"/>
		
			<line fill="none" stroke="#CA2129" stroke-width="10" stroke-linecap="round" stroke-linejoin="round" x1="171.043" y1="72.15" x2="186.529" y2="72.158"/>
		<path fill="none" stroke="#000000" stroke-width="6.25" d="M178.772,190.647l5.255,0.003c2.266-0.001,5.214-0.443,7.289-3.248
			c33.433-42.687,12.8-86.068,2.064-105.97c-4.665-8.588-5.944-17.288-2.047-27.408c3.385-8.773,18.441-49.651-12.462-49.668
			c-30.905-0.018-15.895,40.876-12.528,49.649c3.881,10.128,2.594,18.828-2.084,27.41c-10.742,19.854-31.421,63.245,1.962,105.967
			c2.073,2.814,5.023,3.259,7.286,3.263L178.772,190.647z"/>
	</g>
	<g>
		<path fill="#FFFFFF" d="M121.412,213.965l5.733,0.003c2.471-0.002,5.688-0.484,7.953-3.545
			c36.471-46.566,13.962-93.915,2.251-115.625c-5.09-9.37-6.483-18.86-2.232-29.901c3.693-9.572,20.119-54.167-13.599-54.185
			c-33.715-0.02-17.34,44.593-13.668,54.164c4.234,11.049,2.83,20.541-2.271,29.901c-11.723,21.661-34.272,69.019,2.139,115.624
			c2.261,3.07,5.481,3.557,7.948,3.562L121.412,213.965z"/>
		
			<line fill="none" stroke="#CA2129" stroke-width="10" stroke-linecap="round" stroke-linejoin="round" x1="112.982" y1="69.383" x2="129.885" y2="69.392"/>
		
			<line fill="none" stroke="#CA2129" stroke-width="10" stroke-linecap="round" stroke-linejoin="round" x1="112.977" y1="84.67" x2="129.876" y2="84.679"/>
		<path fill="none" stroke="#000000" stroke-width="6.25" d="M121.412,213.965l5.733,0.003c2.471-0.002,5.688-0.484,7.953-3.545
			c36.471-46.566,13.962-93.915,2.251-115.625c-5.09-9.37-6.483-18.86-2.232-29.901c3.693-9.572,20.119-54.167-13.599-54.185
			c-33.715-0.02-17.34,44.593-13.668,54.164c4.234,11.049,2.83,20.541-2.271,29.901c-11.723,21.661-34.272,69.019,2.139,115.624
			c2.261,3.07,5.481,3.557,7.948,3.562L121.412,213.965z"/>
	</g>
	<g>
		<path fill="#FFFFFF" d="M59.345,235.24l6.13,0.003c2.643-0.002,6.083-0.52,8.505-3.791c39.003-49.8,14.933-100.441,2.408-123.675
			C70.945,97.757,69.454,87.609,74,75.801c3.95-10.237,21.517-57.928-14.539-57.947c-36.056-0.021-18.543,47.688-14.616,57.924
			c4.529,11.816,3.026,21.966-2.429,31.979c-12.535,23.18-36.651,73.831,2.287,123.671c2.418,3.283,5.861,3.803,8.5,3.811
			L59.345,235.24z"/>
		
			<line fill="none" stroke="#CA2129" stroke-width="10" stroke-linecap="round" stroke-linejoin="round" x1="50.333" y1="80.599" x2="68.405" y2="80.609"/>
		
			<line fill="none" stroke="#CA2129" stroke-width="10" stroke-linecap="round" stroke-linejoin="round" x1="50.327" y1="96.948" x2="68.396" y2="96.957"/>
		<path fill="none" stroke="#000000" stroke-width="6.25" d="M59.345,235.24l6.13,0.003c2.643-0.002,6.083-0.52,8.505-3.791
			c39.003-49.8,14.933-100.441,2.408-123.675C70.945,97.757,69.454,87.609,74,75.801c3.95-10.237,21.517-57.928-14.539-57.947
			c-36.056-0.021-18.543,47.688-14.616,57.924c4.529,11.816,3.026,21.966-2.429,31.979c-12.535,23.18-36.651,73.831,2.287,123.671
			c2.418,3.283,5.861,3.803,8.5,3.811L59.345,235.24z"/>
	</g>
</g>
</svg>
