<?xml version="1.0" encoding="utf-8"?>
<!-- Generator: Adobe Illustrator 13.0.2, SVG Export Plug-In . SVG Version: 6.00 Build 14948)  -->
<svg version="1.2" baseProfile="tiny" id="Layer_2" xmlns="http://www.w3.org/2000/svg" xmlns:xlink="http://www.w3.org/1999/xlink"
	 x="0px" y="0px" width="245.811px" height="245.809px" viewBox="0 0 245.811 245.809" xml:space="preserve">
<g>
	<g>
		<path fill="#FFFFFF" d="M157.374,236.747l6.463-3.149c2.783-1.362,6.142-3.678,7.011-8.374
			c15.461-72.551-35.972-113.522-61.119-131.539c-10.894-7.757-17.691-17.683-18.977-32.466C89.645,48.4,83.604-10.895,45.602,7.646
			C7.6,26.184,50.613,67.441,60.019,76.204c10.853,10.119,14.496,21.588,13.901,34.947c-1.284,30.861-0.622,96.646,66.065,129.121
			c4.238,2.214,8.133,0.989,10.917-0.364L157.374,236.747z"/>
		
			<line fill="none" stroke="#CA2129" stroke-width="10.8878" stroke-linecap="round" stroke-linejoin="round" x1="68.282" y1="78.459" x2="87.329" y2="69.166"/>
		
			<line fill="none" stroke="#CA2129" stroke-width="10.8878" stroke-linecap="round" stroke-linejoin="round" x1="76.692" y1="95.689" x2="95.735" y2="86.398"/>
		<path fill="none" stroke="#000000" stroke-width="6.1862" d="M157.374,236.747l6.463-3.149c2.783-1.362,6.142-3.678,7.011-8.374
			c15.461-72.551-35.972-113.522-61.119-131.539c-10.894-7.757-17.691-17.683-18.977-32.466C89.645,48.4,83.604-10.895,45.602,7.646
			C7.6,26.184,50.613,67.441,60.019,76.204c10.853,10.119,14.496,21.588,13.901,34.947c-1.284,30.861-0.622,96.646,66.065,129.121
			c4.238,2.214,8.133,0.989,10.917-0.364L157.374,236.747z"/>
	</g>
	<g>
		<path fill="#F9A11F" d="M209.944,93.374c0,27.268-22.089,49.327-49.355,49.327c-27.265,0-49.368-22.06-49.368-49.327
			c0-27.267,22.104-49.378,49.368-49.378C187.855,43.996,209.944,66.107,209.944,93.374z"/>
		<path fill="#D68228" d="M192.592,56.228c2.31,5.687,3.591,11.888,3.591,18.398c0,27.052-21.932,48.98-48.982,48.98
			c-12.648,0-24.174-4.799-32.861-12.667c6.94,18.834,25.066,32.278,46.339,32.278c27.273,0,49.355-22.057,49.355-49.332
			C210.034,78.789,203.27,65.287,192.592,56.228z"/>
		<path fill="none" stroke="#000000" stroke-width="6.1862" stroke-linecap="round" stroke-linejoin="round" d="M209.944,93.374
			c0,27.268-22.089,49.327-49.355,49.327c-27.265,0-49.368-22.06-49.368-49.327c0-27.267,22.104-49.378,49.368-49.378
			C187.855,43.996,209.944,66.107,209.944,93.374z"/>
		<g>
			<path fill="#FFFFFF" d="M150.585,77.227c0,3.089-2.505,5.596-5.594,5.596c-3.093,0-5.593-2.507-5.593-5.596
				c0-3.09,2.5-5.597,5.593-5.597C148.08,71.63,150.585,74.137,150.585,77.227z"/>
		</g>
	</g>
</g>
</svg>
