<?xml version="1.0" encoding="utf-8"?>
<!-- Generator: Adobe Illustrator 13.0.2, SVG Export Plug-In . SVG Version: 6.00 Build 14948)  -->
<svg version="1.2" baseProfile="tiny" id="Layer_1" xmlns="http://www.w3.org/2000/svg" xmlns:xlink="http://www.w3.org/1999/xlink"
	 x="0px" y="0px" width="239.561px" height="239.559px" viewBox="0 0 239.561 239.559" xml:space="preserve">
<g>
	<g>
		<path fill="#FFFFFF" d="M121.267,226.592l6.139,0.003c2.643-0.002,6.083-0.519,8.506-3.791
			c39.003-49.799,14.933-100.441,2.407-123.662c-5.442-10.021-6.934-20.169-2.387-31.977c3.949-10.237,21.517-57.928-14.549-57.947
			c-36.057-0.021-18.544,47.688-14.618,57.924c4.529,11.816,3.026,21.965-2.429,31.979c-12.535,23.168-36.651,73.819,2.287,123.66
			c2.418,3.283,5.862,3.803,8.5,3.81L121.267,226.592z"/>
		
			<line fill="none" stroke="#CA2129" stroke-width="10" stroke-linecap="round" stroke-linejoin="round" x1="112.254" y1="71.962" x2="130.336" y2="71.972"/>
		
			<line fill="none" stroke="#CA2129" stroke-width="10" stroke-linecap="round" stroke-linejoin="round" x1="112.247" y1="88.312" x2="130.327" y2="88.321"/>
		<path fill="none" stroke="#000000" stroke-width="6.25" d="M121.267,226.592l6.139,0.003c2.643-0.002,6.083-0.519,8.506-3.791
			c39.003-49.799,14.933-100.441,2.407-123.662c-5.442-10.021-6.934-20.169-2.387-31.977c3.949-10.237,21.517-57.928-14.549-57.947
			c-36.057-0.021-18.544,47.688-14.618,57.924c4.529,11.816,3.026,21.965-2.429,31.979c-12.535,23.168-36.651,73.819,2.287,123.66
			c2.418,3.283,5.862,3.803,8.5,3.81L121.267,226.592z"/>
	</g>
	<g>
		<path fill="#FFFFFF" d="M56.467,224.879l6.13,0.003c2.642-0.002,6.083-0.519,8.505-3.791
			c39.003-49.799,14.932-100.441,2.408-123.662c-5.443-10.021-6.934-20.169-2.388-31.977c3.95-10.237,21.517-57.928-14.539-57.947
			C20.528,7.485,38.04,55.194,41.967,65.429c4.529,11.816,3.026,21.965-2.429,31.979c-12.535,23.168-36.651,73.819,2.287,123.66
			c2.418,3.283,5.862,3.803,8.5,3.81L56.467,224.879z"/>
		
			<line fill="none" stroke="#CA2129" stroke-width="10" stroke-linecap="round" stroke-linejoin="round" x1="47.454" y1="70.249" x2="65.526" y2="70.259"/>
		
			<line fill="none" stroke="#CA2129" stroke-width="10" stroke-linecap="round" stroke-linejoin="round" x1="47.448" y1="86.599" x2="65.517" y2="86.608"/>
		<path fill="none" stroke="#000000" stroke-width="6.25" d="M56.467,224.879l6.13,0.003c2.642-0.002,6.083-0.519,8.505-3.791
			c39.003-49.799,14.932-100.441,2.408-123.662c-5.443-10.021-6.934-20.169-2.388-31.977c3.95-10.237,21.517-57.928-14.539-57.947
			C20.528,7.485,38.04,55.194,41.967,65.429c4.529,11.816,3.026,21.965-2.429,31.979c-12.535,23.168-36.651,73.819,2.287,123.66
			c2.418,3.283,5.862,3.803,8.5,3.81L56.467,224.879z"/>
	</g>
	<path fill="none" stroke="#F9A11F" stroke-width="6.25" d="M218.317,69.226c0,15.854-12.842,28.678-28.693,28.678
		c-15.853,0-28.703-12.826-28.703-28.678c0-15.854,12.851-28.708,28.703-28.708C205.475,40.517,218.317,53.372,218.317,69.226z"/>
	<path fill="#FFFFFF" stroke="#FFFFFF" stroke-width="2" stroke-linecap="round" stroke-linejoin="round" d="M187.416,56.712
		l-6.822,2.169l-1.164-4.549l9.201-2.644h4.493v35.219h-5.708V56.712z"/>
	<path fill="#FFFFFF" stroke="#FFFFFF" stroke-width="2" stroke-linecap="round" stroke-linejoin="round" d="M178.798,138.764
		c6.451-6.083,15.866-14.86,15.866-22.311c0-3.961-2.433-5.705-5.446-5.705c-3.439,0-5.768,1.584-7.565,3.38l-2.803-3.59
		c2.434-2.38,5.818-4.497,10.951-4.497c6.821,0,10.998,3.862,10.998,9.67c0,7.77-7.405,15.276-14.069,21.626
		c0,0,2.221-0.159,3.968-0.159h10.896v4.707h-22.795V138.764L178.798,138.764z"/>
	<path fill="#FFFFFF" stroke="#FFFFFF" stroke-width="2" stroke-linecap="round" stroke-linejoin="round" d="M180.388,193.727
		l0.843-4.601c0.637,0.157,2.168,0.526,4.656,0.526c5.71,0,8.99-2.325,8.99-6.399c0-4.653-4.073-6.238-10.42-6.292v-3.966
		c5.236-0.106,9.414-2.486,9.414-6.346c0-2.595-1.85-4.073-5.077-4.073c-3.014,0-5.022,1.059-6.662,2.326l-2.486-3.702
		c1.904-1.534,5.235-3.385,9.995-3.385c6.717,0,10.153,3.385,10.153,8.039c0,4.497-3.596,7.246-7.35,8.304v0.104
		c4.335,0.53,8.514,3.757,8.514,8.834c0,7.191-6.135,11.211-14.912,11.211C182.924,194.307,181.019,193.938,180.388,193.727z"/>
</g>
</svg>
