/* XPM */
static char * image_name[] = {
"32 32 180 2",
"  	c #C1C1C1C1C1C1",
". 	c #9D9DABAB9D9D",
"X 	c #575791915757",
"o 	c #232379792323",
"O 	c #00003C3C0000",
"+ 	c #7A7A8A8A7A7A",
"@ 	c #575790905757",
"# 	c #000068680000",
"$ 	c #000069690000",
"% 	c #00002B2B0000",
"& 	c #57576F6F5757",
"* 	c #9D9DADAD9D9D",
"= 	c #46467B7B4646",
"- 	c #AFAFB7B7AFAF",
"; 	c #9D9DB0B09D9D",
": 	c #464687874646",
"> 	c #000067670000",
", 	c #00005F5F0000",
"< 	c #8C8C98988C8C",
"1 	c #11115D5D1111",
"2 	c #000053530000",
"3 	c #57578F8F5757",
"4 	c #000066660000",
"5 	c #9D9DA0A09D9D",
"6 	c #111157571111",
"7 	c #464675754646",
"8 	c #AFAFB1B1AFAF",
"9 	c #232376762323",
"0 	c #00004A4A0000",
"q 	c #232346462323",
"w 	c #7A7A86867A7A",
"e 	c #00003F3F0000",
"r 	c #000048480000",
"t 	c #000014140000",
"y 	c #575762625757",
"u 	c #34347F7F3434",
"i 	c #000035350000",
"p 	c #57576C6C5757",
"a 	c #00001B1B0000",
"s 	c #343441413434",
"d 	c #464653534646",
"f 	c #11116E6E1111",
"g 	c #7A7A80807A7A",
"h 	c #111122221111",
"j 	c #696972726969",
"k 	c #000051510000",
"l 	c #00003B3B0000",
"z 	c #000055550000",
"x 	c #46464F4F4646",
"c 	c #000012120000",
"v 	c #7A7A9F9F7A7A",
"b 	c #000065650000",
"n 	c #000018180000",
"m 	c #343446463434",
"M 	c #696999996969",
"N 	c #11114F4F1111",
"B 	c #23233B3B2323",
"V 	c #00005B5B0000",
"C 	c #000023230000",
"Z 	c #111127271111",
"A 	c #111121211111",
"S 	c #00004E4E0000",
"D 	c #9D9DA2A29D9D",
"F 	c #696971716969",
"G 	c #00001F1F0000",
"H 	c #00005E5E0000",
"J 	c #232353532323",
"K 	c #232336362323",
"L 	c #7A7A83837A7A",
"P 	c #34343F3F3434",
"I 	c #232333332323",
"U 	c #8C8C91918C8C",
"Y 	c #9D9DA8A89D9D",
"T 	c #B1B1B1B1B1B1",
"R 	c #B0B0B0B0B0B0",
"E 	c #626262626262",
"W 	c #333333333333",
"Q 	c #434343434343",
"! 	c #555555555555",
"~ 	c #939393939393",
"^ 	c #B2B2B2B2B2B2",
"/ 	c #AFAFB0B0AFAF",
"( 	c #7E7E7E7E7E7E",
") 	c #3F3F3F3F3F3F",
"_ 	c #212121212121",
"` 	c #272727272727",
"' 	c #444444444444",
"] 	c #808080808080",
"[ 	c #A3A3A3A3A3A3",
"{ 	c #414141414141",
"} 	c #1B1B1B1B1B1B",
"| 	c #111111111111",
" .	c #121212121212",
"..	c #393939393939",
"X.	c #A2A2A2A2A2A2",
"o.	c #AFAFAFAFAFAF",
"O.	c #3A3A3A3A3A3A",
"+.	c #171717171717",
"@.	c #0F0F0F0F0F0F",
"#.	c #0E0E0E0E0E0E",
"$.	c #1F1F1F1F1F1F",
"%.	c #161616161616",
"&.	c #2A2A2A2A2A2A",
"*.	c #575757575757",
"=.	c #888888888888",
"-.	c #9D9D9D9D9D9D",
";.	c #9B9B9B9B9B9B",
":.	c #0D0D0D0D0D0D",
">.	c #292929292929",
",.	c #959595959595",
"<.	c #252525252525",
"1.	c #151515151515",
"2.	c #1E1E1E1E1E1E",
"3.	c #AEAEAEAEAEAE",
"4.	c #515151515151",
"5.	c #242424242424",
"6.	c #2F2F2F2F2F2F",
"7.	c #767676767676",
"8.	c #232323232323",
"9.	c #404040404040",
"0.	c #919191919191",
"q.	c #565656565656",
"w.	c #141414141414",
"e.	c #313131313131",
"r.	c #8D8D8D8D8D8D",
"t.	c #7A7A7A7A7A7A",
"y.	c #757575757575",
"u.	c #222222222222",
"i.	c #747474747474",
"p.	c #636363636363",
"a.	c #101010101010",
"s.	c #4E4E4E4E4E4E",
"d.	c #3D3D3D3D3D3D",
"f.	c #898989898989",
"g.	c #494949494949",
"h.	c #343434343434",
"j.	c #595959595959",
"k.	c #2D2D2D2D2D2D",
"l.	c #1D1D1D1D1D1D",
"z.	c #929292929292",
"x.	c #535353535353",
"c.	c #464646464646",
"v.	c #6E6E6E6E6E6E",
"b.	c #666666666666",
"n.	c #717171717171",
"m.	c #424242424242",
"M.	c #656565656565",
"N.	c #606060606060",
"B.	c #7F7F7F7F7F7F",
"V.	c #737373737373",
"C.	c #646464646464",
"Z.	c #131313131313",
"A.	c #6D6D6D6D6D6D",
"S.	c #181818181818",
"D.	c #383838383838",
"F.	c #454545454545",
"G.	c #787878787878",
"H.	c #5C5C5C5C5C5C",
"J.	c #303030303030",
"K.	c #9E9E9E9E9E9E",
"L.	c #282828282828",
"P.	c #2C2C2C2C2C2C",
"I.	c #9F9F9F9F9F9F",
"U.	c #9A9A9A9A9A9A",
"Y.	c #2B2B2B2B2B2B",
"T.	c #676767676767",
"R.	c #A0A0A0A0A0A0",
"E.	c #6C6C6C6C6C6C",
"W.	c #1C1C1C1C1C1C",
"Q.	c #909090909090",
"!.	c #484848484848",
"~.	c #A1A1A1A1A1A1",
"^.	c #4B4B4B4B4B4B",
"/.	c #777777777777",
"(.	c #4F4F4F4F4F4F",
").	c #525252525252",
"_.	c #202020202020",
"`.	c #191919191919",
"'.	c #6A6A6A6A6A6A",
"].	c #9C9C9C9C9C9C",
"                                                                ",
"                                        .                       ",
"                                    X o O +                     ",
"                                @ # $ $ % &                     ",
"    * = -                 ; : > # # $ , % <                     ",
"    1 2 = -             3 4 > > # # $ , %                       ",
"  5 6 2 2 7 8         ; 9 4 > > # $ $ 0 q                       ",
"    w e r t y             u > > # $ $ i &                       ",
"      p a t t 8         ; 4 > # # $ $ % +                       ",
"        s t t d 8       f 4 > # # $ $ % <                       ",
"        g h t t j     9 4 4 > k l $ z %                         ",
"          x c t t 8 v b 4 4 > n m M N q                         ",
"            s c t B b b 4 V C Z 8   + +                         ",
"            5 A t t S b 4 C n D                                 ",
"              F c t G H J K L                                   ",
"                P I U Y   T T         R E W W Q ! ~ ^           ",
"                /   ( ) _ _ ` ' ] [   { } | _ _  .} ..X.        ",
"                o.O.+.@.#.$._ %.&.*.=.o.-.      ;.) :.>.,.      ",
"              o.<.1.2.;.      3.4.5.6.7.            =.8.9.0.    ",
"              q.w.e.          r.t.y.u.<.i.            p.u.Q     ",
"              a.<.3.          s.d.  =.@.' T             _ ) X.  ",
"            f. .g.            h.j.    k.l.z.            x.c.y.  ",
"            f.1.v.          ;...b.    y.%.n.            ! m.M.  ",
"            f.+.N.          ;.>.N.    y.| B.            h.O.V.  ",
"            3.| m.            5...X.  C.Z.A.            S.D.]   ",
"              F.u.~           G.<.H.T J.%.K.          j.L.W     ",
"              7.P.D.I.        U.5.Y.T.R.r.          A.u.5.E.    ",
"                M.W.s.Q.[       7.5.8.!.i.~.  R ] 9.8.$.^.      ",
"                  /.J.(.O.g.! ).R.=.e.S._.<.<.5.8.$.`.'.        ",
"                    3.t.<.S.1.Z.q.  3.C.Q | a.Z.a.' ].          ",
"                          3.;.3.          3.;.;.                ",
"                                                                "};
