/* XPM */
static char * image_name[] = {
"32 32 252 2",
"  	c #C1C1C1C1C1C1",
". 	c #AFAFAFAFAFAF",
"X 	c #9D9D9D9D9D9D",
"o 	c #232323232323",
"O 	c #000000000000",
"+ 	c #111111111111",
"@ 	c #7A7A7A7A7A7A",
"# 	c #696969696969",
"$ 	c #C2C2AFAFAFAF",
"% 	c #C8C869696969",
"& 	c #CBCB46464646",
"* 	c #CECE23232323",
"= 	c #CFCF11111111",
"- 	c #CDCD34343434",
"; 	c #C7C77A7A7A7A",
": 	c #575757575757",
"> 	c #CACA46464646",
", 	c #D0D000000000",
"< 	c #D1D100000000",
"1 	c #D2D200000000",
"2 	c #CCCC46464646",
"3 	c #C4C49D9D9D9D",
"4 	c #C9C957575757",
"5 	c #D3D300000000",
"6 	c #C9C969696969",
"7 	c #CDCD46464646",
"8 	c #8D8D00000000",
"9 	c #797923232323",
"0 	c #878746464646",
"q 	c #888834343434",
"w 	c #7A7A11111111",
"e 	c #868600000000",
"r 	c #BFBF00000000",
"t 	c #CECE34343434",
"y 	c #CFCF34343434",
"u 	c #D4D400000000",
"i 	c #C6C68C8C8C8C",
"p 	c #464646464646",
"a 	c #C3C39D9D9D9D",
"s 	c #9C9C23232323",
"d 	c #747469696969",
"f 	c #A2A29D9D9D9D",
"g 	c #B1B1AFAFAFAF",
"h 	c #717169696969",
"j 	c #686811111111",
"k 	c #C2C200000000",
"l 	c #CBCB57575757",
"z 	c #C6C67A7A7A7A",
"x 	c #868657575757",
"c 	c #848457575757",
"v 	c #9E9E00000000",
"b 	c #D5D500000000",
"n 	c #AFAF00000000",
"m 	c #93938C8C8C8C",
"M 	c #C8C87A7A7A7A",
"N 	c #8C8C8C8C8C8C",
"B 	c #787846464646",
"V 	c #AFAF11111111",
"C 	c #7F7F00000000",
"Z 	c #A1A19D9D9D9D",
"A 	c #969657575757",
"S 	c #B1B100000000",
"D 	c #D6D600000000",
"F 	c #343434343434",
"G 	c #818157575757",
"H 	c #606057575757",
"J 	c #C1C111111111",
"K 	c #CCCC35353535",
"L 	c #9B9B8C8C8C8C",
"P 	c #C3C3C1C1C1C1",
"I 	c #818169696969",
"U 	c #9F9F00000000",
"Y 	c #B0B03B3B3B3B",
"T 	c #C3C3C0C0C0C0",
"R 	c #737346464646",
"E 	c #C4C400000000",
"W 	c #B2B23D3D3D3D",
"Q 	c #C9C9BBBBBBBB",
"! 	c #D2D2ACACACAC",
"~ 	c #D1D197979797",
"^ 	c #CACA9F9F9F9F",
"/ 	c #B0B0AFAFAFAF",
"( 	c #9D9D11111111",
") 	c #CDCD57575757",
"_ 	c #B6B62C2C2C2C",
"` 	c #BDBDBBBBBBBB",
"' 	c #CBCBA9A9A9A9",
"] 	c #E4E493939393",
"[ 	c #EAEA7A7A7A7A",
"{ 	c #E2E266666666",
"} 	c #D7D777777777",
"| 	c #C9C9A5A5A5A5",
" .	c #727246464646",
"..	c #B6B67A7A7A7A",
"X.	c #C2C2AEAEAEAE",
"o.	c #BABA0A0A0A0A",
"O.	c #B8B8AEAEAEAE",
"+.	c #C0C0BDBDBDBD",
"@.	c #B5B59C9C9C9C",
"#.	c #B2B27A7A7A7A",
"$.	c #E4E467676767",
"%.	c #F9F955555555",
"&.	c #F6F647474747",
"*.	c #F3F338383838",
"=.	c #E0E068686868",
"-.	c #D3D391919191",
";.	c #CDCD9D9D9D9D",
":.	c #C7C7AEAEAEAE",
">.	c #D0D00D0D0D0D",
",.	c #B2B28B8B8B8B",
"<.	c #BEBEB7B7B7B7",
"1.	c #B7B7A1A1A1A1",
"2.	c #9C9C5F5F5F5F",
"3.	c #BEBE46464646",
"4.	c #F0F03A3A3A3A",
"5.	c #FFFF2D2D2D2D",
"6.	c #FDFD26262626",
"7.	c #FFFF1C1C1C1C",
"8.	c #ECEC48484848",
"9.	c #E0E067676767",
"0.	c #FFFF0C0C0C0C",
"q.	c #F2F22F2F2F2F",
"w.	c #CFCF12121212",
"e.	c #B9B947474747",
"r.	c #BCBCB3B3B3B3",
"t.	c #A2A276767676",
"y.	c #7E7E39393939",
"u.	c #B2B221212121",
"i.	c #DDDD1B1B1B1B",
"p.	c #FFFF15151515",
"a.	c #FFFF0F0F0F0F",
"s.	c #FFFF0B0B0B0B",
"d.	c #FFFF0A0A0A0A",
"f.	c #F2F22E2E2E2E",
"g.	c #C5C58D8D8D8D",
"h.	c #CFCF15151515",
"j.	c #BFBF17171717",
"k.	c #BCBC9F9F9F9F",
"l.	c #B8B8B1B1B1B1",
"z.	c #7D7D4A4A4A4A",
"x.	c #50500F0F0F0F",
"c.	c #C6C60D0D0D0D",
"v.	c #C6C67D7D7D7D",
"b.	c #CFCF19191919",
"n.	c #CFCF1C1C1C1C",
"m.	c #C4C43E3E3E3E",
"M.	c #BCBCA1A1A1A1",
"N.	c #C2C255555555",
"B.	c #ECEC41414141",
"V.	c #C7C76E6E6E6E",
"C.	c #CECE1D1D1D1D",
"Z.	c #CECE1F1F1F1F",
"A.	c #CECE22222222",
"S.	c #BCBC45454545",
"D.	c #C2C2B2B2B2B2",
"F.	c #B7B79C9C9C9C",
"G.	c #8D8D07070707",
"H.	c #A0A007070707",
"J.	c #C2C207070707",
"K.	c #D6D608080808",
"L.	c #E6E653535353",
"P.	c #BDBDA0A0A0A0",
"I.	c #C4C430303030",
"U.	c #CECE26262626",
"Y.	c #CECE2B2B2B2B",
"T.	c #CBCB4D4D4D4D",
"R.	c #B5B592929292",
"E.	c #BABAB2B2B2B2",
"W.	c #989888888888",
"Q.	c #70704F4F4F4F",
"!.	c #454523232323",
"~.	c #2F2F11111111",
"^.	c #202000000000",
"/.	c #494901010101",
"(.	c #5D5D02020202",
").	c #717103030303",
"_.	c #868604040404",
"`.	c #AEAE06060606",
"'.	c #EAEA09090909",
"].	c #BCBC92929292",
"[.	c #C7C736363636",
"{.	c #CECE2F2F2F2F",
"}.	c #CDCD35353535",
"|.	c #C8C83A3A3A3A",
" X	c #B0B05E5E5E5E",
".X	c #AEAE7F7F7F7F",
"XX	c #B0B097979797",
"oX	c #B4B4A7A7A7A7",
"OX	c #B6B6AAAAAAAA",
"+X	c #B1B19F9F9F9F",
"@X	c #B3B39A9A9A9A",
"#X	c #B8B894949494",
"$X	c #A3A377777777",
"%X	c #93936F6F6F6F",
"&X	c #727254545454",
"*X	c #616146464646",
"=X	c #4C4C32323232",
"-X	c #212100000000",
";X	c #BEBE93939393",
":X	c #C5C54C4C4C4C",
">X	c #CDCD32323232",
",X	c #CDCD38383838",
"<X	c #CDCD3D3D3D3D",
"1X	c #CCCC44444444",
"2X	c #B7B74B4B4B4B",
"3X	c #A4A454545454",
"4X	c #9E9E5E5E5E5E",
"5X	c #A1A166666666",
"6X	c #A5A570707070",
"7X	c #AAAA7B7B7B7B",
"8X	c #B5B585858585",
"9X	c #C2C291919191",
"0X	c #C5C59A9A9A9A",
"qX	c #C4C4A5A5A5A5",
"wX	c #C0C0ACACACAC",
"eX	c #C0C0BEBEBEBE",
"rX	c #A4A49D9D9D9D",
"tX	c #95958C8C8C8C",
"yX	c #BDBDA1A1A1A1",
"uX	c #BDBD55555555",
"iX	c #C1C13B3B3B3B",
"pX	c #CCCC41414141",
"aX	c #CCCC48484848",
"sX	c #B5B54E4E4E4E",
"dX	c #9F9F57575757",
"fX	c #9E9E5F5F5F5F",
"gX	c #A2A268686868",
"hX	c #A6A671717171",
"jX	c #A9A979797979",
"kX	c #B5B584848484",
"lX	c #C2C28B8B8B8B",
"zX	c #C1C196969696",
"xX	c #BBBBA4A4A4A4",
"cX	c #BFBFB2B2B2B2",
"vX	c #BCBC60606060",
"bX	c #B7B758585858",
"nX	c #A5A550505050",
"mX	c #9F9F58585858",
"MX	c #A2A260606060",
"NX	c #A5A56F6F6F6F",
"BX	c #A9A978787878",
"VX	c #A7A782828282",
"CX	c #B8B89D9D9D9D",
"ZX	c #BEBEB9B9B9B9",
"AX	c #BBBBB2B2B2B2",
"SX	c #B2B297979797",
"DX	c #A7A78D8D8D8D",
"FX	c #ABAB91919191",
"GX	c #ACAC94949494",
"HX	c #AAAA9E9E9E9E",
"JX	c #B3B3ABABABAB",
"KX	c #BABAB7B7B7B7",
"                                                                ",
"                                                                ",
"        . X .                                                   ",
"    . o O O + @                                                 ",
"    # O O O O o           $ % & * = * * - ; $                   ",
"    : O O O O O       $ > , , < < < < 1 1 1 1 2 3               ",
"    # O O O O +     4 , , , < < < < 1 1 1 1 5 5 5 6 $ $ 7       ",
"    @ O O O O o   > , , , < < 8 9 0 q w e r 5 5 5 5 t y u i     ",
"    X O O O O p a , , , , s d f         g h j k 5 u u u u l     ",
"    X O O O O : z , , , x                     c v u u u b b $   ",
"      O O O O # z , n m                       M u u b b b b 3   ",
"      + O O O N z , B                         V u u b b b b i   ",
"      o O O O @ % C                           Z A S b b b D M   ",
"      F O O O X & G                               H J D D D M   ",
"      F O O O X K L   P                             I U D D $   ",
"      F O O O   Y           T                         R E D     ",
"      : O O +   W       P Q ! ~ ^                     / ( )     ",
"      : O O o   _       ` ' ] [ { } |                    ...    ",
"      @ O O o X.o.O.    +.@.#.$.%.&.*.=.-.    ;.:.      /       ",
"      @ O O o $ >.,.      <.1.2.3.4.5.6.7.8.9.0.q.:.            ",
"      @ O O F a w.e.          r.t.y.u.i.p.a.0.s.d.f.:.          ",
"      X O O p g.h.j.k.            l.z.x.c.s.s.d.d.d.f.:.        ",
"      X O O : v.b.n.m.M.              N.s.s.d.d.d.d.d.B.:.      ",
"        # # N V.C.Z.A.S.D.          F.G.H.J.K.d.d.d.d.d.L.:.    ",
"          .   P.I.* U.Y.T.R.E.      W.Q.!.~.^./.(.)._.`.'.L.:.  ",
"    . p O O F N ].[.Y.{.}.|. X.XXXoXOX+X@X#X$X%X&X*X=X~.-X-X:.  ",
"    : O O O O O N ;X:X>X,X<X1X2X3X4X5X6X7X8X9X0XqXwXeX  rXtX    ",
"    + O O O O O N   yXuXiXpXaXsXdXfXgXhXjXkXlXzXxX              ",
"    : O O O O o .       cXvXbXnXmXMXgXNXBXVXCXZX                ",
"      # o O p               AXSXDXFXGXHXJXKX                    ",
"                                                                ",
"                                                                "};
