/* XPM */
static char * createNoise_xpm[] = {
"32 32 129 2",
"  	c #C1C1C1C1C1C1",
". 	c #A8A8A8A8A8A8",
"X 	c #606088886060",
"o 	c #606090906060",
"O 	c #B8B8C0C0B8B8",
"+ 	c #B8B8B8B8B8B8",
"@ 	c #000028280000",
"# 	c #000030300000",
"$ 	c #000038380000",
"% 	c #000051510000",
"& 	c #A8A8B0B0A8A8",
"* 	c #808098988080",
"= 	c #8080A0A08080",
"- 	c #707080807070",
"; 	c #A0A0A0A0A0A0",
": 	c #000040400000",
"? 	c #707090907070",
"> 	c #282860602828",
", 	c #000048480000",
"< 	c #080858580808",
"1 	c #686898986868",
"2 	c #8888A8A88888",
"3 	c #383870703838",
"4 	c #282868682828",
"5 	c #404078784040",
"6 	c #787898987878",
"7 	c #707088887070",
"8 	c #101048481010",
"9 	c #606070706060",
"0 	c #080848480808",
"q 	c #585888885858",
"w 	c #383860603838",
"e 	c #282850502828",
"r 	c #000058580000",
"t 	c #080850500808",
"y 	c #101040401010",
"u 	c #909098989090",
"i 	c #9898A8A89898",
"p 	c #606080806060",
"a 	c #000050500000",
"s 	c #484868684848",
"d 	c #989898989898",
"f 	c #383850503838",
"g 	c #808088888080",
"h 	c #282858582828",
"j 	c #080860600808",
"k 	c #484878784848",
"l 	c #808090908080",
"z 	c #484888884848",
"x 	c #A0A0B0B0A0A0",
"c 	c #181838381818",
"v 	c #080838380808",
"b 	c #383858583838",
"n 	c #202068682020",
"m 	c #505080805050",
"M 	c #505068684848",
"N 	c #383878783838",
"B 	c #484860604848",
"V 	c #9898A0A09898",
"C 	c #383858584040",
"Z 	c #181858581818",
"A 	c #505088885050",
"S 	c #9090A0A09090",
"D 	c #8080B0B08888",
"F 	c #686890906868",
"G 	c #484858584848",
"H 	c #101040400808",
"J 	c #505078785050",
"K 	c #000040400808",
"L 	c #9090B0B09898",
"P 	c #000088881010",
"I 	c #7070A8A87878",
"U 	c #606078786060",
"Y 	c #606068686060",
"T 	c #404058583838",
"R 	c #505068685050",
"E 	c #484880804848",
"W 	c #6060A0A06868",
"Q 	c #282848482828",
"! 	c #505090905050",
"~ 	c #383868683838",
"^ 	c #080840400808",
"/ 	c #202070702020",
"( 	c #000058588888",
") 	c #B0B050500808",
"_ 	c #E8E848481818",
"` 	c #E8E860603838",
"' 	c #E0E070704848",
"] 	c #D8D880806060",
"[ 	c #D0D078786060",
"{ 	c #C0C0B8B8B8B8",
"} 	c #707098987070",
"| 	c #686878786868",
" .	c #000050500808",
"..	c #909090909090",
"X.	c #A0A0B0B0A8A8",
"o.	c #B8B8B8B8C0C0",
"O.	c #20204040F0F0",
"+.	c #00002828F8F8",
"@.	c #686840406060",
"#.	c #888840402828",
"$.	c #FFFF00000000",
"%.	c #A8A828280000",
"&.	c #101050501010",
"*.	c #A0A0A8A8A0A0",
"=.	c #383870704040",
"-.	c #585880805858",
";.	c #70708080D8D8",
":.	c #48486060E0E0",
"?.	c #60607070E0E0",
">.	c #9898A0A0C8C8",
",.	c #181850501818",
"<.	c #202048482020",
"1.	c #282870702828",
"2.	c #9090A8A89090",
"3.	c #707088887878",
"4.	c #101060601010",
"5.	c #606098986060",
"6.	c #585870705858",
"7.	c #101038381010",
"8.	c #080858581010",
"9.	c #585890905858",
"0.	c #181840401818",
"q.	c #686888886868",
"w.	c #181848481818",
"e.	c #7878A0A07878",
"r.	c #202050502020",
"t.	c #404068684040",
"y.	c #707078787070",
"                                                                ",
"                          . X o O                               ",
"                        + @ # $ % &     + * X = +               ",
"                        + @ - ; : ? & > , : $ , < 1 +           ",
"            2 3 4 4 5 o 6 +   7 : * 8 $ - 2 + 2 9 0 q           ",
"        + w % # % e # : < r t : y u $ 7 i p &     - a &         ",
"        - : s d     + u 9 f % 9 d g : 7 h # j +   + % k         ",
"        w , + l 3 z x             u $ % .   # *     c %         ",
"        v 3 u @ # # % +           + b n m % : &     M s         ",
"        e N - B V 9 , 2             d C v e l + 2 Z A S         ",
"        f % 1 + + w : 2     + D               F % G H J         ",
"        2 f a < a K p       L P I             % k   @ U         ",
"          2 Y B B l         L P I             T % x R V         ",
"      2 * E 4 o x           L P W             . Q % ! = +       ",
"    * % 8 s 9 w % 2         L P I               + B # : z x     ",
"  ~ ^ U +     2 - % 2       L P I                   + 2 $ / i   ",
"  w ~     7 4 4 i 7 a +     L ( ) _ ` ' ] [ {     V } & + e %   ",
"+ % 2   V 0 l |  ...: X.  o.O.+.@.#.$.$.$.%.{   . &.# &.i - , + ",
"*.K 2   - =.R -.K *.% +   ;.+.:.    + + +       - :   @ b 9 , + ",
"+ K +   u >   b U - % +   ?.+.>.                - % F U + &.,.  ",
"+ 8 *   + <.1.o X 0 U     >.>.        + 2.X = & + Q % m % $ 2   ",
"  % m     + 9 w e -                 3., % % y 4.5.*.9 b b 2     ",
"  g , 6                   + &     + : 6.x } x % % E             ",
"  + 7.a + k % A 2.    + p , 8.9.+ u &.g 0 0.n 2.l t 2.          ",
"  + u s > % - b % +   * , U g $ X u , *.Z   s X   e X           ",
"      d % q.  F $ l + % w   X 8 7 . w.e.g   % 7   s k           ",
"      u , S # $ r.+ t.$ S f # # &   - % Z &.7.+   % 7           ",
"      . $ E u g + * : l   + u +       + g u +   2 ^ l           ",
"        - % % m % : b +       + + +           + % w             ",
"          g Q 0.w y.+         7 : % k F + 2 k % b +             ",
"            2 2                 2 b v $ : : Q g +               ",
"                                    + u + +                     "};
