/* XPM */
static char * createCluster_xpm[] = {
"30 30 8 1",
" 	c #C1C1C1C1C1C1",
".	c #DEDED9D9CDCD",
"X	c #9C9CB4B49090",
"o	c #1717B3B31515",
"O	c #8F8FD9D98484",
"+	c #0B0B62620A0A",
"@	c #00009D9D0000",
"#	c #030328280303",
"                              ",
"                              ",
"                 .....        ",
"                .XoooO        ",
"               .X+@@ooO.      ",
"           .... #++@oo@X.     ",
"    ..  ... OooX##+@@@@O.     ",
"   . oooO  +@@oo@##++@@O.     ",
"  .X+@@ooo++@@ooo+##+++X.     ",
"   ++@@ooo@++@@o@@####+       ",
" .X#+@@oo@@#++@@@@###+..      ",
" .X#++@@@@@##++++++@ooO.      ",
" .X##++++@+####+++@@oooO.     ",
"  .+###++++######++@oooo.     ",
"  . ######+@@@@X##++@@@o      ",
"   ..X++++@@oooo###+++@o.     ",
"     ...X#+@oooo+###+++X.     ",
"       .+#+@@@@@o+####X.      ",
"       .+#++@@@@@@@o@O..      ",
"       .X##++++++@oooo        ",
"         X######+@@oo@O.      ",
"        . X###+#++@@@@O.      ",
"          .. .X##++@@@X.      ",
"              .###++++        ",
"              .X####+X.       ",
"               ..XXX..        ",
"                 ...          ",
"                              ",
"                              ",
"                              "};
