/* XPM */
static char * curveEndsIcon_xpm[] = {
"7 7 2 1",
" 	c #FFFFFFFFFFFF",
".	c #000000000000",
"   .   ",
"  ...  ",
" ..... ",
".......",
" ..... ",
"  ...  ",
"   .   "};
