/* XPM */
static char * image_name[] = {
"32 32 236 2",
"  	c #C7C7CDCDC3C3",
". 	c #C7C7D0D0B8B8",
"X 	c #AEAEC8C8A1A1",
"o 	c #4A4AA9A94545",
"O 	c #3131A1A12E2E",
"+ 	c #7C7CB8B87373",
"@ 	c #3E3EA5A53939",
"# 	c #9595C0C08A8A",
"$ 	c #BBBBCCCCACAC",
"% 	c #25259D9D2222",
"& 	c #5757ADAD5050",
"* 	c #C7C7CBCBBEBE",
"= 	c #41418787B2B2",
"- 	c #C7C7CCCCC1C1",
"; 	c #181899991717",
": 	c #8989BCBC7E7E",
"> 	c #8989A2A2A9A9",
", 	c #06066F6FB9B9",
"< 	c #8989ADADBCBC",
"1 	c #6363B1B15C5C",
"2 	c #7070B4B46767",
"3 	c #0C0C95950B0B",
"4 	c #3E3E71719090",
"5 	c #1A1A7A7ABDBD",
"6 	c #BBBBC5C5BEBE",
"7 	c #000091910000",
"8 	c #BBBBC2C2BABA",
"9 	c #00004D4D8383",
"0 	c #02026C6CB7B7",
"q 	c #07077979C9C9",
"w 	c #63639A9AB9B9",
"e 	c #63639797B3B3",
"r 	c #31318282B7B7",
"t 	c #89899F9FA4A4",
"y 	c #0C0C59598F8F",
"u 	c #01016969B2B2",
"i 	c #57579696BCBC",
"p 	c #0C0C33334E4E",
"a 	c #000043437272",
"s 	c #000055559090",
"d 	c #18185E5E8C8C",
"f 	c #BBBBC7C7C2C2",
"g 	c #AEAEC1C1C1C1",
"h 	c #181839394E4E",
"j 	c #00003D3D6868",
"k 	c #00004E4E8686",
"l 	c #575784849C9C",
"z 	c #7070A3A3BDBD",
"x 	c #A2A2C4C49595",
"c 	c #57579696BBBB",
"v 	c #00006A6AB4B4",
"b 	c #00006B6BB5B5",
"n 	c #3E3E8080AAAA",
"m 	c #252543435555",
"M 	c #00003C3C6767",
"N 	c #00004E4E8585",
"B 	c #C7C7CACABDBD",
"V 	c #18187A7ABCBC",
"C 	c #000051518A8A",
"Z 	c #00004E4E8484",
"A 	c #313167678888",
"S 	c #3E3E57576464",
"D 	c #0C0C46466E6E",
"F 	c #63638D8DA3A3",
"G 	c #636381818E8E",
"H 	c #00005A5A9999",
"J 	c #01016F6FBCBC",
"K 	c #9595B3B3BDBD",
"L 	c #00004A4A7D7D",
"P 	c #00004A4A7E7E",
"I 	c #25255C5C8181",
"U 	c #BBBBC0C0B5B5",
"Y 	c #00003F3F6B6B",
"T 	c #00005D5D9F9F",
"R 	c #02027070BDBD",
"E 	c #31318484BBBB",
"W 	c #3E3E72729292",
"Q 	c #000049497D7D",
"! 	c #181854547C7C",
"~ 	c #4A4A69697979",
"^ 	c #00006060A3A3",
"/ 	c #00006F6FBDBD",
"( 	c #25255E5E8484",
") 	c #A2A2AAAAA4A4",
"_ 	c #000038386060",
"` 	c #000050508989",
"' 	c #00006161A6A6",
"] 	c #01016E6EBABA",
"[ 	c #00007171C0C0",
"{ 	c #3E3E8888B8B8",
"} 	c #BBBBC8C8B5B5",
"| 	c #A2A2B3B3B3B3",
" .	c #AEAEBBBBB7B7",
"..	c #A2A2BBBBC1C1",
"X.	c #AEAEC1C1C2C2",
"o.	c #9595A3A3A1A1",
"O.	c #0C0C4B4B7676",
"+.	c #000055559191",
"@.	c #00006363A8A8",
"#.	c #00006D6DB9B9",
"$.	c #00006868B2B2",
"%.	c #57578787A2A2",
"&.	c #18186A6AA2A2",
"*.	c #00006666ADAD",
"=.	c #25258181BEBE",
"-.	c #63639E9EC0C0",
";.	c #BBBBC8C8C3C3",
":.	c #7070A4A4BFBF",
">.	c #00006E6EBBBB",
",.	c #A2A2BCBCC2C2",
"<.	c #9595AFAFB6B6",
"1.	c #7C7CA6A6BABA",
"2.	c #7D7DAAAAC0C0",
"3.	c #4A4A8080A0A0",
"4.	c #00005C5C9C9C",
"5.	c #00006767B0B0",
"6.	c #00007070BEBE",
"7.	c #00007676C9C9",
"8.	c #00007A7ACFCF",
"9.	c #18188181C8C8",
"0.	c #00007272A5A5",
"q.	c #00006E6EBCBC",
"w.	c #898997979696",
"e.	c #00003E3E6A6A",
"r.	c #000051518B8B",
"t.	c #00007272C2C2",
"y.	c #04047C7CD0D0",
"u.	c #07078484DBDB",
"i.	c #04048282DBDB",
"p.	c #00007D7DD5D5",
"a.	c #0C0C7B7BC8C8",
"s.	c #A2A2AFAF9D9D",
"d.	c #000075755353",
"f.	c #00008B8B2121",
"g.	c #00008D8D1616",
"h.	c #00007E7E4444",
"j.	c #4A4A81818484",
"k.	c #C7C7C8C8BABA",
"l.	c #0C0C32324C4C",
"z.	c #000042427171",
"x.	c #000052528C8C",
"c.	c #00005F5FA2A2",
"v.	c #02027373C3C3",
"b.	c #1F1F9D9DEEEE",
"n.	c #04048282DADA",
"m.	c #00007A7AD1D1",
"M.	c #00005F5F1717",
"N.	c #00003E3E4E4E",
"B.	c #00006C6C2F2F",
"V.	c #000076763636",
"C.	c #000058587979",
"Z.	c #00006F6F4949",
"A.	c #0C0C91911313",
"S.	c #898992928D8D",
"D.	c #00002B2B4A4A",
"F.	c #000040406E6E",
"G.	c #000050508888",
"H.	c #00006666AEAE",
"J.	c #18188C8CDDDD",
"K.	c #4646BFBFFCFC",
"L.	c #08088383DADA",
"P.	c #00007171C1C1",
"I.	c #9595B2B2BBBB",
"U.	c #0C0C29293C3C",
"Y.	c #00003B3B4949",
"T.	c #000053537171",
"R.	c #181861616666",
"E.	c #636371717373",
"W.	c #000028284545",
"Q.	c #00004B4B8080",
"!.	c #000057579595",
"~.	c #00006969B2B2",
"^.	c #05057474C2C2",
"/.	c #15158989DADA",
"(.	c #12128888DBDB",
").	c #02027A7ACECE",
"_.	c #00007575C7C7",
"`.	c #25253D3D4C4C",
"'.	c #000058582727",
"].	c #000080801919",
"[.	c #000049497C7C",
"{.	c #00004F4F8787",
"}.	c #313160607D7D",
"|.	c #4A4A5B5B6161",
" X	c #000024243E3E",
".X	c #000036365C5C",
"XX	c #000045457676",
"oX	c #00005A5A9A9A",
"OX	c #00006262A7A7",
"+X	c #01017070BFBF",
"@X	c #00006969B3B3",
"#X	c #57578D8DADAD",
"$X	c #3E3E52525C5C",
"%X	c #000086860707",
"&X	c #00005F5F3434",
"*X	c #000048487B7B",
"=X	c #313162628181",
"-X	c #00001E1E3434",
";X	c #00002D2D4D4D",
":X	c #000053538D8D",
">X	c #00006060A4A4",
",X	c #57578888A4A4",
"<X	c #63638E8E6969",
"1X	c #000085850606",
"2X	c #000031313939",
"3X	c #00005A5A5151",
"4X	c #636389899C9C",
"5X	c #95959C9C9696",
"6X	c #00001C1C3030",
"7X	c #000024243D3D",
"8X	c #000033335656",
"9X	c #00003F3F6C6C",
"0X	c #00005B5B9B9B",
"qX	c #00005F5FA1A1",
"wX	c #00005C5C9D9D",
"eX	c #000079790D0D",
"rX	c #00007A7A2F2F",
"tX	c #313146465151",
"yX	c #00001F1F3535",
"uX	c #000026264141",
"iX	c #0C0C26263838",
"pX	c #000020203636",
"aX	c #000026264040",
"sX	c #000036365D5D",
"dX	c #000041416F6F",
"fX	c #00003B3B6464",
"gX	c #9595A4A4A3A3",
"hX	c #181831314040",
"jX	c #00001E1E3333",
"kX	c #000020203737",
"lX	c #00002A2A4848",
"zX	c #00002E2E4E4E",
"xX	c #00002E2E4F4F",
"cX	c #25253C3C4949",
"vX	c #0C0C27273939",
"bX	c #575768686D6D",
"                                          . X .                 ",
"                                      . o O O O +               ",
"                                      @ #     $ % &             ",
"          * = -                     X % # .     $ ; :           ",
"          > , <                     + o o % @ 1 # 2 3 1 % $     ",
"          4 , 5 6                   2 #     X : 1 % 7 7 7 $     ",
"        8 9 0 q w   e r r e         + #       X o 3 7 ; .       ",
"        t y u q i   p a s d     6   : 2   + O o & % 2 7 .       ",
"        f f g g     h j k d     l z   O x @ # : O . + 7 $       ",
"      c v b b n     m M N d   B N V   & # $ # O .   2 7         ",
"      y C C Z A     S D N F   G H J K $ O : ; .     2 3         ",
"        L L P I             U Y T R E - : ; X       1 &         ",
"      W Q Q L !             ~ P ^ J / g   : O + x 1 O .         ",
"      l Q Q Q (           ) _ ` ' ] [ { -   } } & + .           ",
"      8 | |  .| ..X.      o.O.+.@.#.[ $.%.&.*.0 =.-.;.          ",
"          :.V >.>.>.V ,.    - <.1.2.3.L 4.5.6.7.8.8.9.9.        ",
"        ,.>.>.>.0.q.q.c           w.e.r.^ v t.y.u.i.p.a...      ",
"        s.d.f.7 7 g.h.j.        k.l.z.x.c.v v.v.v.b.n.m.m.      ",
"      $ % M.N.B.V.C.Z.A.:       S.D.F.G.T H.R J.K.K.L.8.P.I.    ",
"    . ; 2 U.Y.7 T.G.C R.; #     E.W.M Q.!.' ~.^./.(.)._./ e     ",
"    & o   `.'.].[.{.C }.# ; .   |. X.XXXC oXOX$.] +X6./ @X#X    ",
"  $ 3 $   $X%X&X*Xk ` =X  O :   E.-X;Xj Q :XH >X*.$.~.H.>X,X    ",
"  # @     <X1X2X3XN ` 4X  2 1   5X6X7X8X9X[.C !.0XqXqXwXs >     ",
"  + ; & 1 % eX1X7 rXrX2 1 @ o   k.tXyXuX8Xj XXQ.G.x.x.N O.*     ",
"  + o o 7 7 3 % % % @ @ o % o     5XiXpXaX;XsXM F.a dXfXgX      ",
"  x ; + o O @             & 2       5XhXjXkXuXlXzXxXlXw.        ",
"  . % #   # 3 $         $ 3 $         k.E.cXvX6XvXbXbX          ",
"    + % $   ; :         o &                   k.                ",
"      & % x & @     $ o ; .                                     ",
"      . 1 3 3 7 1 o 7 1 .                                       ",
"          $ + & & 2 .                                           ",
"                                                                "};
