/* XPM */
static char *downloadUnderline[] = {
/* width height num_colors chars_per_pixel */
"    85    21        8            1",
/* colors */
"` s bg c #ff00fc",
". c #0c00ff",
"# c #000000",
"a c #000000",
"b c #000000",
"c c #000000",
"d c #000000",
"e c #000000",
/* pixels */
"`````````````````````````````````````````````````````````````````````````````````````",
"`````````````````````````````````````````````````````````````````````````````````````",
"`````````````````````````````````````````````````````````````````````````````````````",
"`````````````````````````````````````````````````````````````````````````````````````",
"`````````````````````````````````````````````````````````````````````````````````````",
"``````````````````````````````````.```````````````````.``````````````````````````````",
"``````....````````````````````````.```````````````````.``````````````````````````````",
"``````.```.```````````````````````.```````````````````.``````````````````````````````",
"``````.````.``...```.``.``.`....``.```...```...````....````....````...``.``.``.``````",
"``````.````.`.```.``.``.``.`.```.`.``.```.`````.``.```.````.```.``.```.`.``.``.``````",
"``````.````.`.```.``.`.`.`.`.```.`.``.```.``....``.```.````.```.``.```.`.`.`.`.``````",
"``````.````.`.```.``.`.`.`.`.```.`.``.```.`.```.``.```.````.```.``.```.`.`.`.`.``````",
"``````.```.``.```.```.```.``.```.`.``.```.`.```.``.```.````.```.``.```.``.```.```````",
"``````....````...````.```.``.```.`.```...```....```....````.```.```...```.```.```````",
"`````````````````````````````````````````````````````````````````````````````````````",
"`````````````````````````````````````````````````````````````````````````````````````",
"``````..........................................................................`````",
"`````````````````````````````````````````````````````````````````````````````````````",
"`````````````````````````````````````````````````````````````````````````````````````",
"`````````````````````````````````````````````````````````````````````````````````````",
"`````````````````````````````````````````````````````````````````````````````````````"
};
