/* XPM */
static char * image_name[] = {
"32 32 247 2",
"  	c #C1C1C1C1C1C1",
". 	c #8C8CA0A0AEAE",
"X 	c #69698B8BA3A3",
"o 	c #8C8CA2A2B2B2",
"O 	c #AFAFB5B5B9B9",
"+ 	c #464678789B9B",
"@ 	c #000058589595",
"# 	c #00005E5EA1A1",
"$ 	c #00006464ABAB",
"% 	c #00006666AEAE",
"& 	c #00006969B3B3",
"* 	c #00005F5FA2A2",
"= 	c #34347777A6A6",
"- 	c #9D9DAEAEB9B9",
"; 	c #57577D7D9797",
": 	c #000057579494",
"> 	c #00007070BFBF",
", 	c #00007474C6C6",
"< 	c #00007777CBCB",
"1 	c #00007979CECE",
"2 	c #00007878CDCD",
"3 	c #00007272C3C3",
"4 	c #57578D8DB2B2",
"5 	c #AFAFB7B7BDBD",
"6 	c #232361618D8D",
"7 	c #00005C5C9C9C",
"8 	c #00006868B1B1",
"9 	c #00007474C5C5",
"0 	c #00007B7BD2D2",
"q 	c #00008181DBDB",
"w 	c #00008282DEDE",
"e 	c #00008484E1E1",
"r 	c #00008080DADA",
"t 	c #9D9DA6A69D9D",
"y 	c #575776767070",
"u 	c #00004A4A5555",
"i 	c #00005B5B8383",
"p 	c #00007070B6B6",
"a 	c #00007E7ED7D7",
"s 	c #00008383DFDF",
"d 	c #00008989E9E9",
"f 	c #00008C8CEEEE",
"g 	c #00008D8DF1F1",
"h 	c #00008888E8E8",
"j 	c #00008686E4E4",
"k 	c #00007171C0C0",
"l 	c #AFAFB4B4AFAF",
"z 	c #232359592323",
"x 	c #000046460000",
"c 	c #000045450000",
"v 	c #000047470000",
"b 	c #00004D4D0000",
"n 	c #000057572626",
"m 	c #000057573C3C",
"M 	c #00007E7EC0C0",
"N 	c #00008E8EF2F2",
"B 	c #00009191F7F7",
"V 	c #00009292F8F8",
"C 	c #00009191F6F6",
"Z 	c #00008F8FF4F4",
"A 	c #00008B8BEDED",
"S 	c #00008787E5E5",
"D 	c #00007D7DD4D4",
"F 	c #7A7A8D8D7A7A",
"G 	c #00003C3C0000",
"H 	c #23234A4A2323",
"J 	c #23234F4F4E4E",
"K 	c #00004C4C6E6E",
"L 	c #00005D5D8B8B",
"P 	c #00005E5E7373",
"I 	c #00004A4A2828",
"U 	c #000056561616",
"Y 	c #000051510000",
"T 	c #000055552D2D",
"R 	c #00008F8FE6E6",
"E 	c #02029999FEFE",
"W 	c #06069D9DFFFF",
"Q 	c #01019494FBFB",
"! 	c #00009090F5F5",
"~ 	c #00008B8BECEC",
"^ 	c #00008282DDDD",
"/ 	c #46468484AFAF",
"( 	c #111146461111",
") 	c #464665654646",
"_ 	c #00008787E6E6",
"` 	c #00007E7EC6C6",
"' 	c #00005E5E5A5A",
"] 	c #000061612E2E",
"[ 	c #09098787A2A2",
"{ 	c #1D1DB6B6FFFF",
"} 	c #1616AEAEFFFF",
"| 	c #00009393FBFB",
" .	c #00008888E7E7",
"..	c #00006363A8A8",
"X.	c #9D9DA3A39D9D",
"o.	c #00003D3D0000",
"O.	c #AFAFB3B3B7B7",
"+.	c #00004E4E8585",
"@.	c #00006868B2B2",
"#.	c #00007676C8C8",
"$.	c #00009494FCFC",
"%.	c #00007474A2A2",
"&.	c #000052521616",
"*.	c #000053530000",
"=.	c #29299E9E8B8B",
"-.	c #2E2EC9C9FFFF",
";.	c #02029797FDFD",
":.	c #00008080D9D9",
">.	c #00006A6AB5B5",
",.	c #8C8C9A9A8C8C",
"<.	c #000038380000",
"1.	c #9D9DA7A7AFAF",
"2.	c #00008484E0E0",
"3.	c #00008A8AEBEB",
"4.	c #00009595FDFD",
"5.	c #0F0F9595D0D0",
"6.	c #0F0F6B6B4545",
"7.	c #000052520000",
"8.	c #19197F7F5C5C",
"9.	c #1717B0B0FFFF",
"0.	c #00007F7FD8D8",
"q.	c #8C8CA4A4B4B4",
"w.	c #9D9DAAAA9D9D",
"e.	c #000040400000",
"r.	c #AFAFB2B2AFAF",
"t.	c #00004F4F8686",
"y.	c #0D0DA6A6FFFF",
"u.	c #09095D5D2E2E",
"i.	c #01019797FEFE",
"p.	c #00008F8FF3F3",
"a.	c #00006E6EBCBC",
"s.	c #00003A3A0000",
"d.	c #343470703434",
"f.	c #232356562323",
"g.	c #000046464646",
"h.	c #00005A5A8484",
"j.	c #00007575C7C7",
"k.	c #0E0E9292D0D0",
"l.	c #010163634545",
"z.	c #00008C8CE2E2",
"x.	c #00008D8DEFEF",
"c.	c #00006767B0B0",
"v.	c #9D9DABABB4B4",
"b.	c #111151511111",
"n.	c #00004C4C0000",
"m.	c #00004A4A0000",
"M.	c #000050503636",
"N.	c #00006B6B9E9E",
"B.	c #00008585E3E3",
"V.	c #01017878B8B8",
"C.	c #00005A5A4242",
"Z.	c #00008181D5D5",
"A.	c #23237373ABAB",
"S.	c #696985856969",
"D.	c #23234F4F2323",
"F.	c #AFAFB5B5AFAF",
"G.	c #575775757D7D",
"H.	c #000047471D1D",
"J.	c #000062627979",
"K.	c #00009292F9F9",
"L.	c #000063636E6E",
"P.	c #00004F4F0000",
"I.	c #00007171A2A2",
"U.	c #00006D6DBABA",
"Y.	c #69699090ACAC",
"T.	c #46466A6A4646",
"R.	c #343459593434",
"E.	c #23236A6A2323",
"W.	c #575783835757",
"Q.	c #111152527F7F",
"!.	c #000054546F6F",
"~.	c #000056562222",
"^.	c #00005F5F6666",
"/.	c #00007777BEBE",
"(.	c #00005B5B4D4D",
").	c #00007373C4C4",
"_.	c #00005E5EA0A0",
"`.	c #57577D7D5757",
"'.	c #000036360000",
"].	c #AFAFB3B3AFAF",
"[.	c #7A7A94947A7A",
"{.	c #111164641111",
"}.	c #8C8C9B9B8C8C",
"|.	c #9D9DA8A8B0B0",
" X	c #000061619898",
".X	c #00004B4B3939",
"XX	c #000052522222",
"oX	c #00006060A4A4",
"OX	c #111155551111",
"+X	c #575771715757",
"@X	c #7A7A99997A7A",
"#X	c #7A7A8F8F7A7A",
"$X	c #8C8C9D9DA9A9",
"%X	c #11115D5D9292",
"&X	c #00005A5A9292",
"*X	c #00006A6A9696",
"=X	c #00007A7ACFCF",
"-X	c #000054546363",
";X	c #000048480000",
":X	c #7A7A9797A3A3",
">X	c #696982826969",
",X	c #11114B4B1111",
"<X	c #46467C7C4646",
"1X	c #111159591111",
"2X	c #7A7A92927A7A",
"3X	c #00004C4C7171",
"4X	c #000052520F0F",
"5X	c #000049491111",
"6X	c #00006767A7A7",
"7X	c #000049495A5A",
"8X	c #8C8C99998C8C",
"9X	c #000041410000",
"0X	c #46467A7A4646",
"qX	c #000055550000",
"wX	c #69698B8B6969",
"eX	c #575779799090",
"rX	c #11114E4E4444",
"tX	c #00004B4B4A4A",
"yX	c #000052528B8B",
"uX	c #696989899F9F",
"iX	c #343456563B3B",
"pX	c #575779795757",
"aX	c #000035350000",
"sX	c #11115F5F1111",
"dX	c #111162621111",
"fX	c #000032320000",
"gX	c #7A7A91917A7A",
"hX	c #000043430000",
"jX	c #57576E6E5757",
"kX	c #000057570000",
"lX	c #575784845757",
"zX	c #57576A6A5757",
"xX	c #00002E2E0000",
"cX	c #232364642323",
"vX	c #00003F3F0000",
"bX	c #000054540000",
"nX	c #232353532323",
"mX	c #000044440000",
"MX	c #000037370000",
"NX	c #575776765757",
"BX	c #8C8C9F9F8C8C",
"VX	c #232363632323",
"CX	c #11114D4D1111",
"ZX	c #696979796969",
"AX	c #69697F7F6969",
"SX	c #343476763434",
"DX	c #00004B4B0000",
"                                                                ",
"                                                                ",
"                                  . X o o O                     ",
"                            O + @ # $ % & * = -                 ",
"                          ; : % > , < 1 1 2 3 & 4 5             ",
"                        6 7 8 9 0 q w e e w r 0 3 = 5           ",
"                    t y u i p a s d f f g f h j a k 4           ",
"                l z x c v b n m M N B V V C Z A S D & -         ",
"              F G H J K L P I U Y T R E W E Q ! ~ ^ < /         ",
"              ( )   + $ , r _ ` ' U ] [ { } W | g  .D ..5       ",
"            X.o.X.O.+.@.#.w d ! $.%.&.*.=.-.} ;.! h :.>.5       ",
"            ,.<.  1.+.& 1 2.3.B 4.E 5.6.7.8.9.;.C d 0.> q.      ",
"            w.e.r.O t.& < s ~ C $.E y.-.u.*.[ i.p. .0.a.-       ",
"            ,.s.d.f.g.h.j.r  .N | i.E y.k.l.7.z.x.j 0 c.v.      ",
"            s.s.b.b.n.m.M.N.B.A ! | 4.4.i.V.&.C.Z.^ #.A.        ",
"          S.D.X.b F.G.H.b b J._ A ! V K.V ! L.P.I.D U.Y.        ",
"          T.R.  E.W.  Q.!.~.7.^._ d A f g ~ /.&.(.)._.          ",
"          `.'.].[.{.}.|.|. X~.7.J.w s j j e 0..XXXoXo           ",
"          w.OX+X  @XY #X$X%X&X~.*.*X2 =X0 2 3 -X;X:X            ",
"        l >X,X,XF.  <X1X2X$X$X3X4X5X6XU.>.8 _.7Xc               ",
"      8X9Xv m.c ) r.  0XqXwX1.eXrXb tXyXyX6 uXiXz               ",
"      pXaXF 0XsXP.d.l   @XdXb.w.X.b.f.O     X.fXS.              ",
"      gXhXjX  w.d.kX,Xt     lX1Xd.( b.X.X.zXxX( l               ",
"        cXvX8X  ].0XbXz F r.  w.wXnXmXG MX'.NXl                 ",
"        BXsX9Xt     VXb G CXT.ZXZXaXT.t r.                      ",
"    +XD.AXwXdXCXF   w.1Xe.d.CXs.<.NXr.                          ",
"  ,.9Xb n.D.gXSXDXR.t pXmXX.                                    ",
"    ,Xx qXbXH r.W.b.G fXnX                                      ",
"    [.dX*.bXDXjX    S.>X                                        ",
"      F.sXhXmXR.                                                ",
"          S.T.t                                                 ",
"                                                                "};
