/* XPM */
static char * dragPtIcon_xpm[] = {
/* play pixmap
 * width height ncolors chars_per_pixel */
"10 10 2 1 7 9",
" 	s c1	m white	c white",
".	s c0	m black	c black",
/* pixels */
"       .  ",
"      ..  ",
"     ...  ",
" .......  ",
"  ......  ",
"   .....  ",
"    ....  ",
"     ...  ",
"      ..  ",
"       .  "};
