/* XPM */
static char * image_name[] = {
"32 32 2 1",
" 	c #D4D4D4D4C4C4",
".	c #000000000000",
"                                ",
"                                ",
"                                ",
"   ..........................   ",
"   ..........................   ",
"                                ",
"                                ",
"   ......................       ",
"   ......................       ",
"                                ",
"                                ",
"   ........................     ",
"   ........................     ",
"                                ",
"                                ",
"   .......................      ",
"   .......................      ",
"                                ",
"                                ",
"   .........................    ",
"   .........................    ",
"                                ",
"                                ",
"   .....................        ",
"   .....................        ",
"                                ",
"                                ",
"   ..........................   ",
"   ..........................   ",
"                                ",
"                                ",
"                                "};
