/* XPM */
static char * EditPercent_xpm[] = {
"30 30 9 1",
" 	c #F7F7F7F7E5E5",
".	c #FEFEFEFEF1F1",
"X	c #C0C0CACAB2B2",
"o	c #7F7F7F7F7575",
"O	c #0404CDCD0404",
"+	c #5B5B83835454",
"@	c #3E3E68683A3A",
"#	c #1C1C24241C1C",
"$	c #FFFFFFFF0000",
"                              ",
"                ........    .X",
"           ..................X",
"         ...........  ...... o",
"       ...........XOOO+ .... o",
"      ...........XOOOOOO ...Xo",
"     ............@OOOOOOX...oo",
"    ...  ... +OOO#OOOOOO+..Xoo",
"    . +OOOXX@OOOOOOOOOOO+. ooo",
"   . OOOOOOOOOOOOOO#OOOOX.Xooo",
"   .@OOOOOOOOOOOOOO####o.ooooo",
"    #OOOOOOOOOOOOOO@OO+ Xooooo",
"   X##OOOOOO#@OOOOOOOO+ooooooo",
"    @#@OOOOO###OOOOOOOoooooooo",
"   .o###OOO@@#####OO@+oooooooo",
"    .o#####OOOOO+@#$$$oo$ooooo",
"     .XooX@OOOOO@#$#o$$$$ooooo",
"     ... X#@@@###$oo#$o$$ooooo",
"X   o@@########@#$oo#$#$oooooo",
"XX  o#########@o#$oo$o$$oooooo",
"XXX X########+ooo#$$o#$oo$$$oo",
"XXXX #######@ooooo##o$$o$#o$oo",
"XXXX ######@oooooooo#$o$oo#$oo",
"XXXXX@####@ooooooooo$$#$oo#$oo",
"XXXXX+####ooooooooo#$o#$oo$ooo",
"XXXXXo###oooooooooo#$oo#$$oooo",
"XXXXXo##+ooooooooooo#ooo#ooooo",
"XXXXXo#@oooooooooooooooooooooo",
"Xooooo#ooooooooooooooooooooooo",
"ooooo+@ooooooooooooooooooooooo"};
