/* XPM */
static char * editCluster_xpm[] = {
"30 30 8 1",
" 	c #F7F7F7F7E5E5",
".	c #FEFEFEFEF1F1",
"X	c #C0C0CACAB2B2",
"o	c #7F7F7F7F7575",
"O	c #0404CDCD0404",
"+	c #5B5B83835454",
"@	c #3E3E68683A3A",
"#	c #1C1C24241C1C",
"                              ",
"                ........    .X",
"           ..................X",
"         ...........  ...... o",
"       ...........XOOO+ .... o",
"      ...........XOOOOOO ...Xo",
"     ............@OOOOOOX...oo",
"    ...  ... +OOO#OOOOOO+..Xoo",
"    . +OOOXX@OOOOOOOOOOO+. ooo",
"   . OOOOOOOOOOOOOO#OOOOX.Xooo",
"   .@OOOOOOOOOOOOOO####o.ooooo",
"    #OOOOOOOOOOOOOO@OO+ Xooooo",
"   X##OOOOOO#@OOOOOOOO+ooooooo",
"    @#@OOOOO###OOOOOOOoooooooo",
"   .o###OOO@@#####OO@+oooooooo",
"    .o#####OOOOO+@#+oooooooooo",
"     .XooX@OOOOO@#+ooooooooooo",
"     ... X#@@@###ooooooooooooo",
"X   o@@########@oooooooooooooo",
"XX  o#########@ooooooooooooooo",
"XXX X########+oooooooooooooooo",
"XXXX #######@ooooooooooooooooo",
"XXXX ######@oooooooooooooooooo",
"XXXXX@####@ooooooooooooooooooo",
"XXXXX+####oooooooooooooooooooo",
"XXXXXo###ooooooooooooooooooooo",
"XXXXXo##+ooooooooooooooooooooo",
"XXXXXo#@oooooooooooooooooooooo",
"Xooooo#ooooooooooooooooooooooo",
"ooooo+@ooooooooooooooooooooooo"};
