/* XPM */
static char * timefwd_xpm[] = {
/* forward pixmap
 * width height ncolors chars_per_pixel */
"20 20 4 1",
" 	s bg	c #bbbbbb",
".	s c0	c black",
"X	s c3	c white",
"o	s c2	c #888888",
/* pixels */
"                    ",
"                    ",
"                    ",
"                    ",
"                    ",
"                    ",
" ..     ..     ...X ",
" .o..   .o..   .ooX ",
" .ooo.. .ooo.. .ooX ",
" .oooooX.oooooX.ooX ",
" .oooXX .oooXX .ooX ",
" .oXX   .oXX   .ooX ",
" .X     .X     .XXX ",
"                    ",
"                    ",
"                    ",
"                    ",
"                    ",
"                    ",
"                    "};
