/* XPM */
static char * ffdPtIcon_xpm[] = {
"5 5 2 1",
" 	c #FFFFFFFFFFFF",
".	c #000000000000",
" ... ",
".....",
".....",
".....",
" ... "};
