/* XPM */
static char * RV_mask_xpm[] = {
"20 20 93 1",
" 	c #000000000000",
".	c #4B524B524B52",
"X	c #AE2AB02BB02B",
"o	c #D534D534D534",
"O	c #EE3AEE3AED3A",
"+	c #ED3AED3AEF3A",
"@	c #DA35DB35DA35",
"#	c #BC2EBB2EBC2E",
"$	c #5B165C165B16",
"%	c #2C0A2D0B2C0A",
"&	c #B82DB72DB72D",
"*	c #F43CF43CF43C",
"=	c #FD3EFD3EFD3E",
"-	c #FF3EFF3EFF3E",
";	c #FE3EFF3EFE3E",
":	c #FF3EFF3EFE3E",
"?	c #FE3EFE3EFE3E",
">	c #F83DF63CF73C",
",	c #D534D434D534",
"<	c #421043104210",
"1	c #400F41104110",
"2	c #D233D233D233",
"3	c #FD3EFD3EFE3E",
"4	c #FE3EFE3EFF3E",
"5	c #FF3EFE3EFE3E",
"6	c #FF3EFE3EFF3E",
"7	c #E638E438E538",
"8	c #771D771D761D",
"9	c #280926092709",
"0	c #D3F4D3F4D3F4",
"q	c #FD3EFE3EFD3E",
"w	c #FE3EFF3EFF3E",
"e	c #FF3EFD3EFE3E",
"r	c #EA39E939E939",
"t	c #451045104510",
"y	c #A628A628A528",
"u	c #FC3EFD3EFD3E",
"i	c #D634D534D534",
"p	c #240824082408",
"a	c #E237E137E237",
"s	c #F93DFA3DFA3D",
"d	c #6A1A6B1A6919",
"f	c #681969196919",
"g	c #F93DF93DFA3D",
"h	c #FE3EFE3EFD3E",
"j	c #BE2EBF2FBD2E",
"k	c #C430C430C530",
"l	c #FF3EFE3EFD3E",
"z	c #EC3AED3AED3A",
"x	c #D634D434D534",
"c	c #F73CF63CF63C",
"v	c #D935D935D835",
"b	c #ED3AEC3AED3A",
"n	c #1B061C061C06",
"m	c #BE2EBE2EBD2E",
"M	c #FF3EFD3EFD3E",
"N	c #EB39EB39EB39",
"B	c #721C721C711B",
"V	c #FA3DFA3DFB3D",
"C	c #C630C530C530",
"Z	c #250926092509",
"A	c #E839E738E839",
"S	c #F73CF63CF83D",
"D	c #5C165D165B16",
"F	c #9A259B269A25",
"G	c #FA3DFB3DFA3D",
"H	c #C731C731C831",
"J	c #150516051605",
"K	c #BF2FBE2EBF2F",
"L	c #DD36DD36DE36",
"P	c #310C310C300B",
"I	c #340C340C340C",
"U	c #C430C430C330",
"Y	c #FB3DFB3DFC3E",
"T	c #FE3EFD3EFD3E",
"R	c #D9F5D9F5D9F5",
"E	c #4D124E134E13",
"W	c #180517051906",
"Q	c #9E269D269E26",
"!	c #E337E337E438",
"~	c #FB3DFB3DFB3D",
"^	c #FF3EFF3EFD3E",
"/	c #F43CF33BF33B",
"(	c #C731C731C630",
")	c #380D390E370D",
"_	c #250925092509",
"`	c #7C1E7D1E7D1E",
"'	c #D033CF32D033",
"]	c #ED3AED3AEE3A",
"[	c #EA39EB39EA39",
"{	c #D534D634D534",
"}	c #AF2BAF2BB02B",
"|	c #4A124B124B12",
"                    ",
"      .XoO+@#$      ",
"    %&*=-;;:?>,<    ",
"   123455;;;:4678   ",
"  90q?w?4-4;4;:ert  ",
"  yu;4::w654:w55?i  ",
" pa?56w--w5;5;564sd ",
" fg;;:6::?6-w-;45hj ",
" kl:4;?-454;?55?4;z ",
" x4456:-w;5;;65:56c ",
" vh5-??6?:4ww56;-;bn",
" mM;:4;?4-;w-4-:-?N ",
" BV:5w6w55w:4::5-hC ",
" ZA-?4w;?:5:-?46:SD ",
"  FGw;:6-5w644-?3H  ",
"  JK3:5w?;6--6wwLP  ",
"   IUY?-w6w;;6TRE   ",
"    WQ!~;w:^:/()    ",
"      _`'][{}|      ",
"                    "};
