/* XPM */
static char * timeplay_xpm[] = {
"20 20 4 1",
" 	s bg c #bbbbbb",
".	s c1 c #000000000000",
"X	s c2 c #888888888888",
"o	s c3 c #FFFFFFFFFFFF",
"                    ",
"                    ",
"   ..               ",
"   .X..             ",
"   .XXX..           ",
"   .XXXXX..         ",
"   .XXXXXXX..       ",
"   .XXXXXXXXX..     ",
"   .XXXXXXXXXXX..   ",
"   .XXXXXXXXXXXXXo  ",
"   .XXXXXXXXXXXoo   ",
"   .XXXXXXXXXoo     ",
"   .XXXXXXXoo       ",
"   .XXXXXoo         ",
"   .XXXoo           ",
"   .Xoo             ",
"   .o               ",
"                    ",
"                    ",
"                    "};
