/* XPM */
static char * timerev_xpm[] = {
"20 20 4 1",
" 	s bg c #bbbbbb",
".	s c1 c #000000000000",
"X	s c2 c #FFFFFFFFFFFF",
"o	s c3 c #888888888888",
"                    ",
"                    ",
"               .X   ",
"             ..oX   ",
"           ..oooX   ",
"         ..oooooX   ",
"       ..oooooooX   ",
"     ..oooooooooX   ",
"   ..oooooooooooX   ",
"  XoooooooooooooX   ",
"   XXoooooooooooX   ",
"     XXoooooooooX   ",
"       XXoooooooX   ",
"         XXoooooX   ",
"           XXoooX   ",
"             XXoX   ",
"               XX   ",
"                    ",
"                    ",
"                    "};
