/* XPM */
static char * rvAllplanes_xpm[] = {
"20 20 134 2",
"  	c #000000000000",
". 	c #200708010801",
"X 	c #501318051805",
"o 	c #5013380D1805",
"O 	c #2007801F1805",
"+ 	c #1805801F2007",
"@ 	c #28095815400F",
"# 	c #280928095815",
"$ 	c #100310032809",
"% 	c #180500000000",
"& 	c #601718051805",
"* 	c #801F28092809",
"= 	c #8821300B2809",
"- 	c #400F801F2809",
"; 	c #2007A0272007",
": 	c #28099023300B",
"? 	c #380D4811801F",
"> 	c #380D380D8821",
", 	c #300B300B701B",
"< 	c #100310032007",
"1 	c #781D20072007",
"2 	c #982528092809",
"3 	c #781D48112809",
"4 	c #280998252007",
"5 	c #2007A0272809",
"6 	c #380D6017781D",
"7 	c #400F400F9023",
"8 	c #380D380D801F",
"9 	c #18051805400F",
"0 	c #801F20072007",
"q 	c #A027300B2809",
"w 	c #98252809300B",
"e 	c #9825300B2809",
"r 	c #5815701B2809",
"t 	c #2809A0272809",
"y 	c #2809A8292809",
"u 	c #2007A8292809",
"i 	c #380D68196819",
"p 	c #400F400F9825",
"a 	c #400F400F8821",
"s 	c #A027300B300B",
"d 	c #A0272809300B",
"f 	c #400F88212809",
"g 	c #2809A0272007",
"h 	c #300B801F5013",
"j 	c #400F48119023",
"k 	c #100300000000",
"l 	c #882128092809",
"z 	c #9023380D2809",
"x 	c #300B98252007",
"c 	c #28098821380D",
"v 	c #18051805380D",
"b 	c #380D10031003",
"n 	c #300B90232007",
"m 	c #200798252007",
"M 	c #400F48118821",
"N 	c #300B300B6819",
"B 	c #681920072007",
"V 	c #8821380D2809",
"C 	c #280990232007",
"Z 	c #200790232809",
"A 	c #902328092809",
"S 	c #781D400F2809",
"D 	c #200790232007",
"F 	c #200788212809",
"G 	c #380D400F781D",
"H 	c #400F380D8821",
"J 	c #701B20072007",
"K 	c #701B400F2809",
"L 	c #280988212007",
"P 	c #200788212007",
"I 	c #300B50136017",
"U 	c #380D400F8821",
"Y 	c #000000000801",
"T 	c #581518051805",
"R 	c #6819400F2007",
"E 	c #2007801F2007",
"W 	c #1805801F1805",
"Q 	c #2007781D2007",
"! 	c #300B48116017",
"~ 	c #380D380D781D",
"^ 	c #300B10030801",
"/ 	c #801F28092007",
"( 	c #581548112007",
") 	c #1805781D1805",
"_ 	c #1805701B1805",
"` 	c #1805701B2007",
"' 	c #300B380D6819",
"] 	c #200720075013",
"[ 	c #080100000000",
"{ 	c #5815400F2007",
"} 	c #2007781D1805",
"| 	c #180568191805",
" .	c #180568192007",
"..	c #2809300B6017",
"X.	c #280928096017",
"o.	c #080110032007",
"O.	c #681918051805",
"+.	c #601728092007",
"@.	c #200768191805",
"#.	c #100360171003",
"$.	c #180560171003",
"%.	c #180558152007",
"&.	c #2809300B5815",
"*.	c #20071805400F",
"=.	c #400F10031003",
"-.	c #581520071805",
";.	c #180558151805",
":.	c #100358151003",
"?.	c #180548112007",
">.	c #200728095013",
",.	c #300B08010801",
"<.	c #481110031003",
"1.	c #481118051805",
"2.	c #2007400F1003",
"3.	c #100350131003",
"4.	c #100348111003",
"5.	c #1805300B2809",
"6.	c #20072007400F",
"7.	c #18051805300B",
"8.	c #000008011003",
"9.	c #300B10031003",
"0.	c #200728091003",
"q.	c #1003400F0801",
"w.	c #0801400F1003",
"e.	c #0801400F0801",
"r.	c #1003380D1003",
"t.	c #100320072809",
"y.	c #10031003300B",
"u.	c #100308010000",
"i.	c #080118050801",
"p.	c #080128090801",
"a.	c #080120070801",
"s.	c #080108011805",
"                                        ",
"            . X o O + @ # $             ",
"        % & * = - ; ; : ? > , <         ",
"      . 1 2 2 3 4 ; ; 5 6 7 7 8 9       ",
"    % 0 q w e r t y u t i p 7 p a $     ",
"    & s s d e f 5 t g 5 h j 7 p p 8     ",
"  k l s s d z x ; 5 ; ; c j 7 p p 7 v   ",
"  b 2 s e 2 z n ; m ; m : M 7 7 p p N   ",
"  B 2 q 2 2 V C m m m m Z ? a 7 7 7 8   ",
"  1 2 2 2 A S C D D D D F G H a a 7 8   ",
"  J A A A A K L P P P P P I 8 8 U 8 , Y ",
"  T l l l l R E + O W W Q ! ~ 8 8 8 ,   ",
"  ^ 1 / 0 0 ( E ) ) _ ) ` ' , , , , ]   ",
"  [ & 1 1 1 { } _ _ | |  ...N N N X.o.  ",
"    b O.B B +.@.| #.#.$.%.&.X.# # *.    ",
"      =.X T -.;.#.:.:.:.?.>.>.] 9 Y     ",
"      [ ,.<.1.2.3.4.4.4.5.6.*.7.8.      ",
"          . 9.0.q.w.e.r.t.y.< Y         ",
"              u.i.p.p.a.s.Y             ",
"                                        "};
