/* XPM */
static char * timerew_xpm[] = {
/* rewind pixmap
 * width height ncolors chars_per_pixel */
"20 20 4 1",
" 	s bg	c #bbbbbb",
".	s c0	c black",
"X	s c3	c white",
"o	s c2	c #888888",
/* pixels */
"                    ",
"                    ",
"                    ",
"                    ",
"                    ",
"                    ",
" ...X     .X     .X ",
" .ooX   ..oX   ..oX ",
" .ooX ..oooX ..oooX ",
" .ooXXoooooXXoooooX ",
" .ooX XXoooX XXoooX ",
" .ooX   XXoX   XXoX ",
" .XXX     XX     XX ",
"                    ",
"                    ",
"                    ",
"                    ",
"                    ",
"                    ",
"                    "};
