/* XPM */
static char * timenext_xpm[] = {
"20 20 5 1",
" 	s bg c #bbbbbb",
".	c #2F2F2F2F2F2F",
"X	c #AAAA00000000",
"o	c #FFFFFFFFFFFF",
"O	c #888888888888",
"                    ",
"              ...   ",
"              .Xo   ",
"              .Xo   ",
"  ..          .Xo   ",
"  .O..        .Xo   ",
"  .OOO..      .Xo   ",
"  .OOOOO..    .Xo   ",
"  .OOOOOOO..  .Xo   ",
"  .OOOOOOOOOo .Xo   ",
"  .OOOOOOOoo  .Xo   ",
"  .OOOOOoo    .Xo   ",
"  .OOOoo      .Xo   ",
"  .Ooo        .Xo   ",
"  .o          .Xo   ",
"              .Xo   ",
"              .Xo   ",
"              .Xo   ",
"              .oo   ",
"                    "};
