/* XPM */
static char * timeprev_xpm[] = {
"20 20 5 1",
" 	s bg c #bbbbbb",
".	c #2F2F2F2F2F2F",
"X	c #FFFFFFFFFFFF",
"o	c #AAAA00000000",
"O	c #888888888888",
"                    ",
"   ..X              ",
"   .oX              ",
"   .oX              ",
"   .oX          .X  ",
"   .oX        ..OX  ",
"   .oX      ..OOOX  ",
"   .oX    ..OOOOOX  ",
"   .oX  ..OOOOOOOX  ",
"   .oX .OOOOOOOOOX  ",
"   .oX  XXOOOOOOOX  ",
"   .oX    XXOOOOOX  ",
"   .oX      XXOOOX  ",
"   .oX        XXOX  ",
"   .oX          XX  ",
"   .oX              ",
"   .oX              ",
"   .oX              ",
"   .XX              ",
"                    "};
