/* XPM */
static char * timestop_xpm[] = {
"20 20 4 1",
" 	s bg c #BBBBBBBBBBBB",
".	s c1 c #000000000000",
"X	s c2 c #FFFFFFFFFFFF",
"o	s c3 c #AAAA00000000",
"                    ",
"                    ",
"                    ",
"                    ",
"    ...........X    ",
"    .ooooooooooX    ",
"    .ooooooooooX    ",
"    .ooooooooooX    ",
"    .ooooooooooX    ",
"    .ooooooooooX    ",
"    .ooooooooooX    ",
"    .ooooooooooX    ",
"    .ooooooooooX    ",
"    .ooooooooooX    ",
"    .ooooooooooX    ",
"    .XXXXXXXXXXX    ",
"                    ",
"                    ",
"                    ",
"                    "};
