/* XPM */
static char *magick[] = {
/* columns rows colors chars-per-pixel */
"20 20 63 1",
"  c Gray0",
". c #020202",
"X c #040404",
"o c Gray4",
"O c #0c0c0c",
"+ c Gray6",
"@ c #151515",
"# c #161616",
"$ c Gray11",
"% c #1d1d1d",
"& c #272727",
"* c Gray18",
"= c Gray19",
"- c #313131",
"; c #323232",
": c Gray24",
"> c Gray26",
", c #464646",
"< c #4b4b4b",
"1 c #4e4e4e",
"2 c #505050",
"3 c Gray32",
"4 c #585858",
"5 c Gray35",
"6 c #595a5a",
"7 c #5a5959",
"8 c #5a595a",
"9 c #646464",
"0 c #646465",
"q c #646564",
"w c Gray41",
"e c Gray42",
"r c #6f6f6f",
"t c #706f6f",
"y c #717171",
"u c Gray48",
"i c Gray51",
"p c Gray52",
"a c Gray55",
"s c #909090",
"d c #9b9a9b",
"f c #9b9b9b",
"g c #a6a6a5",
"h c Gray65",
"j c #aeaeae",
"k c Gray69",
"l c #b6b6b6",
"z c Gray72",
"x c Gray73",
"c c #bbbbba",
"v c #bbbbbb",
"b c Gray74",
"n c Gray75",
"m c #c0c0c0",
"M c Gray77",
"N c #cdcecd",
"B c #cdcece",
"V c Gray84",
"C c #d6d7d6",
"Z c #d6d7d7",
"A c #d7d6d6",
"S c #d7d6d7",
"D c #d7d7d6",
/* pixels */
"                    ",
"                    ",
"                    ",
"      37777777%     ",
"      999999997     ",
"      OOOOo,rt@     ",
"          Xuu*      ",
"          pp>       ",
"         ssi        ",
"        add         ",
"       <hhO         ",
"      :kk&          ",
"     ;vv3           ",
"    $vMj;;;;;;;@    ",
"    eNNvnnnnnml1    ",
"    eSSSSSSSSSSy    ",
"                    ",
"                    ",
"                    ",
"                    "
};
