/* XPM */
static char * image_name[] = {
"32 32 234 2",
"  	c #C1C1C1C1C1C1",
". 	c #BCBCBDBDBCBC",
"X 	c #BCBCBFBFC1C1",
"o 	c #60609C9CC6C6",
"O 	c #3D3D9898D8D8",
"+ 	c #1A1A9C9CF4F4",
"@ 	c #2B2BA3A3F0F0",
"# 	c #ABABBCBCC7C7",
"$ 	c #ABABB1B1ABAB",
"% 	c #ACACB3B3ACAC",
"& 	c #080836360808",
"* 	c #080847470808",
"= 	c #ABABB5B5BDBD",
"- 	c #15157777BCBC",
"; 	c #00007F7FD8D8",
": 	c #00008E8EF1F1",
"> 	c #00009696FDFD",
", 	c #00009C9CFFFF",
"< 	c #0101A1A1FFFF",
"1 	c #04049D9DFDFD",
"2 	c #8787B4B4D2D2",
"3 	c #BCBCBCBCBCBC",
"4 	c #040425250404",
"5 	c #070743430707",
"6 	c #010141410101",
"7 	c #B8B8BABAB8B8",
"8 	c #9999A9A9B4B4",
"9 	c #04046060A0A0",
"0 	c #00007373C4C4",
"q 	c #00008080D9D9",
"w 	c #02028A8AEAEA",
"e 	c #02029595F9F9",
"r 	c #1616AEAEFFFF",
"t 	c #1D1DBBBBFFFF",
"y 	c #0E0EAFAFFFFF",
"u 	c #B8B8B8B8B8B8",
"i 	c #000025250000",
"p 	c #020240400202",
"a 	c #A6A6AEAEA6A6",
"s 	c #080837370808",
"d 	c #040449490C0C",
"f 	c #BCBCBDBDBEBE",
"g 	c #272762628787",
"h 	c #00005D5D9E9E",
"j 	c #00007070BEBE",
"k 	c #00007D7DD5D5",
"l 	c #00008686E4E4",
"z 	c #06069595F6F6",
"x 	c #6767F6F6FFFF",
"c 	c #4949E3E3FFFF",
"v 	c #0A0AA7A7FFFF",
"b 	c #00009A9AFFFF",
"n 	c #04049393F6F6",
"m 	c #000029290F0F",
"M 	c #01013D3D0101",
"N 	c #03034C4C1212",
"B 	c #95959E9EA5A5",
"V 	c #00004D4D7979",
"C 	c #00005A5A9A9A",
"Z 	c #00006B6BB6B6",
"A 	c #00007575C7C7",
"S 	c #1818A6A6FCFC",
"D 	c #3C3CCDCDFEFE",
"F 	c #3F3FD5D5FFFF",
"G 	c #6060A2A2CFCF",
"H 	c #00002A2A0808",
"J 	c #01013F3F0101",
"K 	c #000043430606",
"L 	c #A6A6ADADA6A6",
"P 	c #606078788484",
"I 	c #000041416E6E",
"U 	c #000054549090",
"Y 	c #00006161A5A5",
"T 	c #00006C6CB8B8",
"R 	c #01018888E6E6",
"E 	c #00008D8DEFEF",
"W 	c #0D0D9999F6F6",
"Q 	c #000033331818",
"! 	c #3D3D5C5C6A6A",
"~ 	c #000037375D5D",
"^ 	c #00004B4B8080",
"/ 	c #000058589696",
"( 	c #00006262A7A7",
") 	c #00007272C3C3",
"_ 	c #00007A7AD0D0",
"` 	c #00008181DCDC",
"' 	c #00008484E1E1",
"] 	c #00008383E0E0",
"[ 	c #1A1A8181C1C1",
"{ 	c #000031311414",
"} 	c #00003F3F0000",
"| 	c #080834340808",
" .	c #000043430707",
"..	c #2B2B50505E5E",
"X.	c #000031315151",
"o.	c #00003D3D6868",
"O.	c #00004D4D8282",
"+.	c #00006969B3B3",
"@.	c #00006D6DBABA",
"#.	c #00007777CACA",
"$.	c #00007979CDCD",
"%.	c #2B2B7D7DB2B2",
"&.	c #000030301313",
"*.	c #00003E3E0000",
"=.	c #3D3D5A5A6868",
"-.	c #00002E2E4D4D",
";.	c #000033335656",
":.	c #000048487B7B",
">.	c #000052528C8C",
",.	c #00006666ADAD",
"<.	c #00006969A9A9",
"1.	c #2B2B6F6F9C9C",
"2.	c #00002E2E0F0F",
"3.	c #00003D3D0000",
"4.	c #000044440404",
"5.	c #000034344949",
"6.	c #000035355959",
"7.	c #000039396161",
"8.	c #000043437272",
"9.	c #000058588C8C",
"0.	c #606081819999",
"q.	c #000027270C0C",
"w.	c #BCBCBDBDBDBD",
"e.	c #272748485B5B",
"r.	c #00003C3C4E4E",
"t.	c #000037375454",
"y.	c #00003C3C6767",
"u.	c #000046467777",
"i.	c #000046467878",
"p.	c #00004D4D7777",
"a.	c #000026260A0A",
"s.	c #9999A1A1A6A6",
"d.	c #15153F3F5252",
"f.	c #00003A3A4D4D",
"g.	c #000032325353",
"h.	c #000036365A5A",
"j.	c #00003F3F5555",
"k.	c #040434344E4E",
"l.	c #000023230202",
"z.	c #15153C3C4F4F",
"x.	c #00002E2E4A4A",
"c.	c #000036364D4D",
"v.	c #00003D3D5050",
"b.	c #04042E2E4343",
"n.	c #878792929999",
"m.	c #000023230505",
"M.	c #00003C3C0000",
"N.	c #000043430404",
"B.	c #606072727F7F",
"V.	c #393953536565",
"C.	c #00002E2E2C2C",
"Z.	c #000037373F3F",
"A.	c #272747475959",
"S.	c #727280808B8B",
"D.	c #000025250202",
"F.	c #000041410000",
"G.	c #B8B8B9B9B8B8",
"H.	c #000026260000",
"J.	c #000022220000",
"K.	c #000024240000",
"L.	c #87878D8D8787",
"P.	c #4E4E69694E4E",
"I.	c #040439390404",
"U.	c #27274E4E2727",
"Y.	c #4E4E6C6C4E4E",
"T.	c #4E4E6E6E4E4E",
"R.	c #727281817272",
"E.	c #000028280000",
"W.	c #000040400000",
"Q.	c #72727D7D7272",
"!.	c #3D3D59593D3D",
"~.	c #3B3B53533B3B",
"^.	c #000027270000",
"/.	c #000039390000",
"(.	c #4A4A68684A4A",
").	c #4E4E6B6B4E4E",
"_.	c #606069696060",
"`.	c #000015150000",
"'.	c #00001C1C0000",
"].	c #000023230000",
"[.	c #00002B2B0000",
"{.	c #000030300000",
"}.	c #000031310000",
"|.	c #72727C7C7272",
" X	c #00002D2D0000",
".X	c #99999D9D9999",
"XX	c #040422220404",
"oX	c #000019190000",
"OX	c #00001D1D0000",
"+X	c #606071716060",
"@X	c #151527271515",
"#X	c #000018180000",
"$X	c #000020200000",
"%X	c #272746462727",
"&X	c #00002A2A0000",
"*X	c #2B2B3D3D2B2B",
"=X	c #00001E1E0000",
"-X	c #151536361515",
";X	c #72727A7A7272",
":X	c #000017170000",
">X	c #60606C6C6060",
",X	c #04041C1C0404",
"<X	c #040417170404",
"1X	c #00001B1B0000",
"2X	c #272742422727",
"3X	c #76768C8C7676",
"4X	c #4E4E70704E4E",
"5X	c #272753532727",
"6X	c #000035350000",
"7X	c #000047470000",
"8X	c #272754542727",
"9X	c #2B2B57572B2B",
"0X	c #9999A5A59999",
"qX	c #838388888383",
"wX	c #83838E8E8383",
"eX	c #00001F1F0000",
"rX	c #000021210000",
"tX	c #000033330000",
"yX	c #727280807272",
"uX	c #04041A1A0404",
"iX	c #151528281515",
"pX	c #272737372727",
"aX	c #000029290000",
"sX	c #00001A1A0000",
"dX	c #72727F7F7272",
"fX	c #151538381515",
"gX	c #ABABAEAEABAB",
"hX	c #878792928787",
"jX	c #000016160000",
"kX	c #9999A0A09999",
"lX	c #272738382727",
"zX	c #040429290404",
"xX	c #04041D1D0404",
"cX	c #838390908383",
"                                                                ",
"          . .           X o O O + @ @ #           $ %           ",
"          & * .       = - ; : > , < < 1 2       3 4 5 $         ",
"          & 6 7     8 9 0 q w e r t y < 1 2     u i p a         ",
"          s d 7   f g h j k l z z x c v b n X   u m M a         ",
"          & N 7   B V C Z A ; w S D F r > : G   u H J a         ",
"          s K L   P I U Y T A ; R E W n E R O   u Q M a         ",
"          & K 7   ! ~ ^ / ( T ) _ q ` ' ] ; [   u { } a         ",
"          |  .7   ..X.o.O./ Y +.@.) #.$.#.) %.  u &.*.a         ",
"          |  .L   =.-.;.o.:.>.C ( ,.+.Z +.<.1.  u 2.3.a         ",
"          | 4.L   B 5.X.6.7.8.O.>./ C h C 9.0.  u q.3.7         ",
"          s K 7   w.e.r.t.6.~ y.I u.i.p.p.! f   u a.*.a         ",
"          & K L     s.d.f.g.;.6.6.h.6.j.k.s.    u l.3.a         ",
"          | K 7         z.x.c.v.v.c.x.b.n.      u m.M.a         ",
"          | N.L         f B.V.C.Z.A.S.f         u D.*.a         ",
"          | F.L             G.H.} 7             u J.*.7         ",
"          s F.L             G.H.*.7             u K.*.7         ",
"  L.P.P.P.I.M.U.Y.T.R.      G.E.W.7       Q.P.!.~.^./.(.Y.).R.  ",
"  _.`.'.].^.[.[.{.}.|.      G. XW.7       .XXXJ.oXOXJ.^.E.E.+X  ",
"  . @X#X$XE.[.[.}.%X.       G.&X} 7         *X=XoX'.].H.E.-X.   ",
"    ;X:X=X^.&X[.^.>X        G.E.W.7         .X,XoX'.].E.^.P.    ",
"    . <X1Xi &X&X2X.   3X4X4X5X6X7X8X9X4X0X    *XoX'.J.E.-X.     ",
"      qX#XK.&XE.|.    wXeXrXi tX*.}.[.[.yX    .XuX1XK.E.yX      ",
"      3 iXrX&X-X.     . pX:X1X].^.aXE.%X.         sXi %X.       ",
"        .XXXaXwX        ;X`.oXrXH.aX^.dX        .X,Xi wX        ",
"          ~.fX.         . pX#X$X^.aX%X.           ~.%X.         ",
"          gXhX            ;XjX$X^.E.yX            .XkX          ",
"                          . lX'.E.zX.                           ",
"                            ;XsX^.R.                            ",
"                            . xX%X.                             ",
"                              Q.cX                              ",
"                              . .                               "};
