/* XPM */
static char * hsHypershadeOpen_xpm[] = {
"20 20 6 1",
" 	c #000000000000",
".	s bg c #FFFFFFFFFFFF",
"X	c #FFFF00000000",
"o	c #00000000FFFF",
"O	c #0000FFFF0000",
"+	c #FFFFFFFF0000",
"                    ",
" .................. ",
" .................. ",
" ....  ......  .... ",
" ... XX .... oo ... ",
" .. XXXX .. oooo .. ",
" .. XXXX .. oooo .. ",
" ... XX .... oo ... ",
" ....  ......  .... ",
" .................. ",
" .................. ",
" ....  ......  .... ",
" ... OO .... ++ ... ",
" .. OOOO .. ++++ .. ",
" .. OOOO .. ++++ .. ",
" ... OO .... ++ ... ",
" ....  ......  .... ",
" .................. ",
" .................. ",
"                    "};
