/* XPM */
static char * hsVisorOpen_xpm[] = {
"20 20 6 1",
" 	c #000000000000",
".	s bg c #A9A9A6A6ABAB",
"X	c #00000000FFFF",
"o	c #4C4C4C4C4C4C",
"O	c #FFFF00000000",
"+	c #0000FFFF0000",
"                    ",
" .................. ",
" .................. ",
" ..  .............. ",
" . XX ..        ... ",
" . XX ...oooooooo.. ",
" ..  .............. ",
" .................. ",
" ..  .............. ",
" . OO ..        ... ",
" . OO ...oooooooo.. ",
" ..  .............. ",
" .................. ",
" ..  .............. ",
" . ++ ..        ... ",
" . ++ ...oooooooo.. ",
" ..  .............. ",
" .................. ",
" .................. ",
"                    "};
