/* XPM */
static char * hwTestRender_xpm[] = {
"20 20 3 1",
" 	s bg c #0000FFFF0000",
".	c #000000000000",
"X	c #FFFFFFFFFFFF",
"                    ",
"                    ",
"                    ",
"  ................  ",
"  .XXX...XXX...XX.  ",
"  .XX...XXX...XXX.  ",
"  .X...XXX...XXX..  ",
"  ....XXX...XXX...  ",
"  ................  ",
"  ..                ",
"  ..                ",
"  ................  ",
"  .XXX...XXX...XX.  ",
"  .XX...XXX...XXX.  ",
"  .X...XXX...XXX..  ",
"  ....XXX...XXX...  ",
"  ................  ",
"                    ",
"                    ",
"                    "};
