/* XPM */
static char * image_name[] = {
"32 32 253 2",
"  	c #C1C1C1C1C1C1",
". 	c #9D9DAAAA9D9D",
"X 	c #9D9DAEAE9D9D",
"o 	c #AFAFBABAAFAF",
"O 	c #575773735757",
"+ 	c #23236B6B2323",
"@ 	c #00005F5F0000",
"# 	c #00006D6D0000",
"$ 	c #000078780000",
"% 	c #8C8CA8A88C8C",
"& 	c #46465E5E4646",
"* 	c #00003B3B0606",
"= 	c #02023D3D1515",
"- 	c #00003F3F1010",
"; 	c #121250501B1B",
": 	c #000054540B0B",
"> 	c #1111A1A11111",
", 	c #4F4FB0B04F4F",
"< 	c #AFAFBDBDAFAF",
"1 	c #8C8C92928C8C",
"2 	c #00002E2E1515",
"3 	c #5A5A80805B5B",
"4 	c #22226B6B1414",
"5 	c #2727ADAD2929",
"6 	c #4949ADAD4949",
"7 	c #8C8C8C8CB9B9",
"8 	c #696969699F9F",
"9 	c #7B7B7B7BABAB",
"0 	c #57576F6F5757",
"q 	c #000041411313",
"w 	c #7A7A99997A7A",
"e 	c #B4B4B4B4AFAF",
"r 	c #1B1B5E5E1414",
"t 	c #080892920B0B",
"y 	c #5858ACAC5858",
"u 	c #454545457777",
"i 	c #000000007A7A",
"p 	c #000000009999",
"a 	c #00000000A6A6",
"s 	c #000008088A8A",
"d 	c #00004A4A3434",
"f 	c #9D9DB9B99D9D",
"g 	c #11118B8B1111",
"h 	c #7B7BB0B07B7B",
"j 	c #13136A6A1111",
"k 	c #25259F9F2424",
"l 	c #696969697D7D",
"z 	c #000000006363",
"x 	c #000000008E8E",
"c 	c #10101010C4C4",
"v 	c #0C0C0C0CCBCB",
"b 	c #000018189595",
"n 	c #69697A7A6B6B",
"m 	c #000058580808",
"M 	c #1A1AACAC1A1A",
"N 	c #0404A0A00404",
"B 	c #23234F4F2323",
"V 	c #000076760000",
"C 	c #000000002E2E",
"Z 	c #000000006565",
"A 	c #000000007E7E",
"S 	c #9D9D9D9DABAB",
"D 	c #22222222D0D0",
"F 	c #00000000BEBE",
"G 	c #232368685F5F",
"H 	c #737379796B6B",
"J 	c #B0B000000000",
"K 	c #4F4F51510101",
"L 	c #232392922323",
"P 	c #000068680000",
"I 	c #6969A7A76969",
"U 	c #111111113434",
"Y 	c #000000005959",
"T 	c #343434348D8D",
"R 	c #05050505B1B1",
"E 	c #00000000B9B9",
"W 	c #000041415F5F",
"Q 	c #79794E4E3434",
"! 	c #CECE00000000",
"~ 	c #000056560000",
"^ 	c #343434345050",
"/ 	c #000000004646",
"( 	c #00000000AAAA",
") 	c #232323239D9D",
"_ 	c #131335355757",
"` 	c #101070700B0B",
"' 	c #929200000101",
"] 	c #C7C723232323",
"[ 	c #000032320000",
"{ 	c #7A7A7A7A8888",
"} 	c #111111113C3C",
"| 	c #000000003535",
" .	c #00000000B7B7",
"..	c #00000000B1B1",
"X.	c #232323238B8B",
"o.	c #C4C401010000",
"O.	c #63633D3D0101",
"+.	c #11117B7B1111",
"@.	c #232371712B2B",
"#.	c #131357571717",
"$.	c #00002E2E0000",
"%.	c #00003D3D0101",
"&.	c #000000002020",
"*.	c #000000006B6B",
"=.	c #AFAFAFAFB4B4",
"-.	c #757534343737",
";.	c #696983836969",
":.	c #343468683535",
">.	c #23235D5D2727",
",.	c #AFAFAFAFC0C0",
"<.	c #5D5D00000202",
"1.	c #C4C413131111",
"2.	c #AFAFB3B3AFAF",
"3.	c #232323234545",
"4.	c #00000000ADAD",
"5.	c #4E4E00000101",
"6.	c #BBBB13131111",
"7.	c #69696E6E6969",
"8.	c #00001E1E0000",
"9.	c #111165651111",
"0.	c #232323236161",
"q.	c #000000007272",
"w.	c #000000008282",
"e.	c #000000009595",
"r.	c #000000009D9D",
"t.	c #484811111212",
"y.	c #A9A901010000",
"u.	c #C0C0AFAFAFAF",
"i.	c #232336362323",
"p.	c #030324240202",
"a.	c #5757A3A35757",
"s.	c #9D9D9D9DA1A1",
"d.	c #000000004141",
"f.	c #000000006E6E",
"g.	c #707057575959",
"h.	c #7D7D00000000",
"j.	c #AFAF34343434",
"k.	c #BABAAFAFAFAF",
"l.	c #9D9DA3A39D9D",
"z.	c #00001A1A0000",
"x.	c #000035350000",
"c.	c #000000005757",
"v.	c #242424248F8F",
"b.	c #23232323ABAB",
"n.	c #5A5A11111414",
"m.	c #A8A835353434",
"M.	c #AFAF8C8C8C8C",
"N.	c #000027270000",
"B.	c #5757AAAA5757",
"V.	c #000000002929",
"C.	c #000000005D5D",
"Z.	c #000000008181",
"A.	c #575757578C8C",
"S.	c #11111111BABA",
"D.	c #00000000C4C4",
"F.	c #00000000B5B5",
"G.	c #AFAFAFAFBDBD",
"H.	c #8D8D00000000",
"J.	c #9A9A02020000",
"K.	c #A9A959595858",
"L.	c #343451513434",
"P.	c #00002A2A0808",
"I.	c #000045450000",
"U.	c #000000003232",
"Y.	c #9D9D9D9DB3B3",
"T.	c #040404048484",
"R.	c #00000000C2C2",
"E.	c #838369696969",
"W.	c #606011111313",
"Q.	c #7A7A00000101",
"!.	c #9D9D00000000",
"~.	c #A3A323232323",
"^.	c #AAAA57575757",
"/.	c #000024240505",
"(.	c #000053530000",
").	c #2D2DB3B32D2D",
"_.	c #000000007474",
"`.	c #232323238686",
"'.	c #696969699393",
"].	c #343434348989",
"[.	c #00000000BABA",
"{.	c #A8A89D9D9D9D",
"}.	c #7B7B57575757",
"|.	c #6D6D11111212",
" X	c #777700000303",
".X	c #8B8B00000606",
"XX	c #A3A300000000",
"oX	c #858523232323",
"OX	c #A3A357575757",
"+X	c #36362D2D0707",
"@X	c #010163630101",
"#X	c #000000003E3E",
"$X	c #00000000A1A1",
"%X	c #000000005B5B",
"&X	c #343434347676",
"*X	c #575757578686",
"=X	c #696969697878",
"-X	c #000000003A3A",
";X	c #000000005252",
":X	c #0E0E00005C5C",
">X	c #2A2A00005151",
",X	c #646400002525",
"<X	c #949400000404",
"1X	c #A4A400000101",
"2X	c #050571710505",
"3X	c #000000004B4B",
"4X	c #000000008989",
"5X	c #000000005A5A",
"6X	c #232323233333",
"7X	c #000000009191",
"8X	c #8C8C46464747",
"9X	c #676705050303",
"0X	c #0B0BA0A00B0B",
"qX	c #343434347171",
"wX	c #7A7A7A7A9C9C",
"eX	c #111111116565",
"rX	c #000000005C5C",
"tX	c #000000001F1F",
"yX	c #0B0B31310C0C",
"uX	c #01017C7C0101",
"iX	c #000000000C0C",
"pX	c #1B1B1B1BAAAA",
"aX	c #23232323B9B9",
"sX	c #000038380101",
"dX	c #000022221A1A",
"fX	c #00004D4D0000",
"gX	c #000082820000",
"hX	c #000000001515",
"jX	c #000000005E5E",
"kX	c #69696969AAAA",
"lX	c #77777777AEAE",
"zX	c #03031F1F2525",
"xX	c #6969ACAC6969",
"cX	c #575757577474",
"vX	c #000000001212",
"bX	c #69696969A6A6",
"nX	c #000026260B0B",
"mX	c #000026261717",
"MX	c #000088880000",
"NX	c #575757577A7A",
"BX	c #7A7A80807A7A",
"VX	c #000018181515",
"CX	c #000028280707",
"ZX	c #343434344747",
"AX	c #000000004D4D",
"SX	c #00000000B6B6",
"DX	c #57575757B3B3",
"FX	c #000014140505",
"GX	c #111174741111",
"HX	c #343434345757",
"JX	c #000000008484",
"KX	c #343434349999",
"LX	c #11114C4C1111",
"                          . X o                                 ",
"                      O + @ # $ $ %                             ",
"                    & * = - ; : # > , <                         ",
"                  1 2 = X     1 3 4 5 6 <                       ",
"            7 8 9 0 q w           e r t y                       ",
"          u i p a s d f     + g h   w j k <                     ",
"        l z x a c v b %   n m M N     B V %                     ",
"        C Z A S 9 D F G < H J K L     0 P I                     ",
"        U Y T   S R E W 6 Q ! Q       O ~ ~                     ",
"        ^ / Y ( ) ( a _ ` ' ] o     1 [ +                       ",
"        { } |  ...x X.    o.O.+.@.#.$.%.w                       ",
"          &.*. . . .=.  -.o.;.:.>.:.;..                         ",
"        1 C  . . .,.    <.1.                            2.2.    ",
"        3.Y 4.4.E ,.    5.6.                          7.8.9.9.  ",
"    =.0.q.w.e.r...,.    t.y.u.                        i.p.P a.  ",
"  s.d.f.x r.( ..4.4.    g.h.j.k.                    l.z.x.V 6   ",
"  3.c.i p v.R v F b.    1 n.' m.M.                  n N.%.V B.  ",
"  V.C.Z.A.  { S.D.F.G.    g.<.H.J.K.M.              L.P.I.g B.  ",
"s.U.C.Z.Y.  =.T.R.F.7       E.W.Q.' !.~.^.^.M.k.    $./.(.).B.  ",
"s.U c._.`.'.].[.E p =.        {.}.|. X.X!.XXXX~.oXOX+X8.@X@X%   ",
"  & #XZ A e.$X( %X%XY &X*X7 =.  =X-X;X:X>X,X<X!.1Xy.J.p.2X5 f   ",
"  s.3.3Xz A 4Xi %X%X%X%X5X5X;X6X-Xc.q.Z.7Xe.e.8XoXQ.9Xx.# 0X    ",
"      l qXqX&XwXwXeX%X%XrXrX-XtX/ z A x $X( ( 7     yX%.uXk     ",
"                  wX&X%XrXrXiXC ;Xf.*X*XpXc [.aX  sXdXfXgXB.    ",
"                      *XeX;XhX| jXkX    lXlXR.S.2.%.zXfXgXxX    ",
"                        wXcXvXU.c.bX    u c R.E 1 nXmX~ MXf     ",
"                          s.hXC c.f.NXcXx E F aXBXVXCX@ L       ",
"                            ZXV.AXZ Z.e.a ..SXDXDXFXsX# a.      ",
"                            1 U -XY q.4Xp $Xb.  1 8.%.GXo       ",
"                              1 HX/ z i JXKX      & LX%         ",
"                                  1 '.wXY.                      ",
"                                                                "};
