/* XPM */
static char * jiggle_xpm[] = {
"32 32 244 2",
"  	c #C1C1C1C1C1C1",
". 	c #ABABB6B6ABAB",
"X 	c #BCBCBEBEBCBC",
"o 	c #BCBCBCBCBCBC",
"O 	c #85859A9A8585",
"+ 	c #B5B5BFBFB5B5",
"@ 	c #808095958080",
"# 	c #6B6B9D9D6B6B",
"$ 	c #3D3D77773D3D",
"% 	c #9F9FBABA9F9F",
"& 	c #ACACB7B7ACAC",
"* 	c #9999A2A29999",
"= 	c #A6A6BABAA6A6",
"- 	c #80809F9F8080",
"; 	c #7171AAAA7171",
": 	c #8686A4A48686",
"> 	c #797983837979",
", 	c #6F6FA5A56F6F",
"< 	c #31318B8B3131",
"1 	c #59599D9D5959",
"2 	c #9D9DABAB9D9D",
"3 	c #161660601616",
"4 	c #00007D7D0000",
"5 	c #6363A2A26363",
"6 	c #BCBCBDBDBCBC",
"7 	c #606075756060",
"8 	c #2B2B61612B2B",
"9 	c #08085D5D0808",
"0 	c #4E4E8C8C4E4E",
"q 	c #BCBCBFBFBCBC",
"w 	c #4F4FA5A54F4F",
"e 	c #05056E6E0505",
"r 	c #7979B2B27979",
"t 	c #8888B8B88888",
"y 	c #52528C8C5252",
"u 	c #575778785757",
"i 	c #8B8BB3B38B8B",
"p 	c #484890904848",
"a 	c #A7A7ADADA6A6",
"s 	c #181868681818",
"d 	c #04048A8A0404",
"f 	c #95959A9A9595",
"g 	c #151531311515",
"h 	c #000049490000",
"j 	c #010166660101",
"k 	c #000077770000",
"l 	c #000086860000",
"z 	c #27278A8A2727",
"x 	c #080898980808",
"c 	c #61618B8B6161",
"v 	c #BDBDC0C0BDBD",
"b 	c #7D7DA2A27D7D",
"n 	c #A1A1B8B8A1A1",
"m 	c #535399995353",
"M 	c #ABABB1B1ABAB",
"N 	c #474773734747",
"B 	c #B8B8BBBBB8B8",
"V 	c #2A2A69692A2A",
"C 	c #7777B0B07777",
"Z 	c #ABABAEAEABAB",
"A 	c #272744442727",
"S 	c #000047470000",
"D 	c #000063630000",
"F 	c #01017A7A0101",
"G 	c #00008D8D0000",
"H 	c #00009A9A0000",
"J 	c #000093930000",
"K 	c #9595B2B29595",
"L 	c #7373BDBD7373",
"P 	c #BABAC0C0BABA",
"I 	c #6969B8B86969",
"U 	c #A1A1AEAEA1A1",
"Y 	c #838399998383",
"T 	c #6B6BB1B16B6B",
"R 	c #27273A3A2727",
"E 	c #00003C3C0000",
"W 	c #000056560000",
"Q 	c #010171710000",
"! 	c #00009D9D0000",
"~ 	c #0000A5A50000",
"^ 	c #6363B3B36363",
"/ 	c #0B0B7F7F0B0B",
"( 	c #A6A6A9A9A6A6",
") 	c #5C5CA0A05C5C",
"_ 	c #A5A5B5B5A5A5",
"` 	c #696984846969",
"' 	c #07079A9A0707",
"] 	c #606069696060",
"[ 	c #000021210000",
"{ 	c #01014B4B0101",
"} 	c #01016D6D0101",
"| 	c #010194940101",
" .	c #0404AFAF0404",
"..	c #0000A6A60000",
"X.	c #000090900000",
"o.	c #6464BABA6464",
"O.	c #0C0C7C7C0C0C",
"+.	c #8080BDBD8080",
"@.	c #5C5C9A9A5C5C",
"#.	c #4D4D81814D4D",
"$.	c #000036360000",
"%.	c #040463630404",
"&.	c #000080800000",
"*.	c #0C0CA7A70C0C",
"=.	c #0C0CB9B90C0C",
"-.	c #0101A1A10101",
";.	c #04048C8C0404",
":.	c #0B0B6D6D0C0C",
">.	c #B5B5C5C5B5B5",
",.	c #9393B2B29393",
"<.	c #33337A7A3333",
"1.	c #51516D6D5151",
"2.	c #8484B9B98484",
"3.	c #000019190000",
"4.	c #00008A8A0000",
"5.	c #1D1DBBBB1D1D",
"6.	c #1616C5C51616",
"7.	c #4C4CC0C04C4C",
"8.	c #07075A5A0707",
"9.	c #ACACBBBBACAC",
"0.	c #B9B9BEBEB9B9",
"q.	c #72727C7C7272",
"w.	c #000041410000",
"e.	c #4F4F74744F4F",
"r.	c #60606C6C6060",
"t.	c #000075750000",
"y.	c #2929D3D32929",
"u.	c #1010A6A61010",
"i.	c #000025250000",
"p.	c #00008E8E0000",
"a.	c #3434E1E13434",
"s.	c #0101ADAD0101",
"d.	c #2B2B91912B2B",
"f.	c #727288887272",
"g.	c #1414A0A01414",
"h.	c #A4A4BEBEA4A4",
"j.	c #00005F5F0000",
"k.	c #0101B2B20101",
"l.	c #AAAAC0C0AAAA",
"z.	c #000031310000",
"x.	c #0000AAAA0000",
"c.	c #8383ACAC8383",
"v.	c #606072726060",
"b.	c #00002E2E0000",
"n.	c #070756560000",
"m.	c #010186861515",
"M.	c #020299990000",
"N.	c #040486860404",
"B.	c #131346460606",
"V.	c #010161611C1C",
"C.	c #1B1B6C6C0000",
"Z.	c #2C2C80802727",
"A.	c #76769C9C7474",
"S.	c #787888887272",
"D.	c #656580806464",
"F.	c #686882826161",
"G.	c #BFBFBCBCBCBC",
"H.	c #A9A983838383",
"J.	c #7F7F4F4F5656",
"K.	c #2E2E32328888",
"L.	c #87872B2B5151",
"P.	c #AFAF60606060",
"I.	c #B6B699999999",
"U.	c #A3A386868686",
"Y.	c #929204040404",
"T.	c #ADAD04040404",
"R.	c #00001010C0C0",
"E.	c #626204044848",
"W.	c #B8B860606060",
"Q.	c #C0C0BCBCBCBC",
"!.	c #A6A604040404",
"~.	c #BBBB39393939",
"^.	c #656560609090",
"/.	c #00000808E6E6",
"(.	c #2B2B2F2FCDCD",
").	c #AAAA99999999",
"_.	c #40403D3D9494",
"`.	c #00000000EDED",
"'.	c #08080A0AE9E9",
"].	c #C1C187878787",
"[.	c #9B9B60606060",
"{.	c #C9C904040404",
"}.	c #3B3B3C3C9C9C",
"|.	c #05050101F5F5",
" X	c #09090A0AF5F5",
".X	c #BDBDBCBCBCBC",
"XX	c #8F8F27272727",
"oX	c #C5C52B2B2B2B",
"OX	c #94941A1A1A1A",
"+X	c #9C9C42423939",
"@X	c #0C0C2E2EC6C6",
"#X	c #171751518E8E",
"$X	c #9898BCBC9898",
"%X	c #838355554A4A",
"&X	c #BEBEABABABAB",
"*X	c #141419190404",
"=X	c #000062624343",
"-X	c #02028B8B2424",
";X	c #0C0CABAB0C0C",
":X	c #303068680000",
">X	c #51510F0F0404",
",X	c #383835350404",
"<X	c #050571710303",
"1X	c #111191911717",
"2X	c #09091A1A6C6C",
"3X	c #07070A0AF4F4",
"4X	c #000071710A0A",
"5X	c #0A0A67670909",
"6X	c #020258581010",
"7X	c #4E4E47470000",
"8X	c #B9B997979595",
"9X	c #818108080808",
"0X	c #CACA3B3B3B3B",
"qX	c #00000000F5F5",
"wX	c #11111515F4F4",
"eX	c #9595A4A49696",
"rX	c #8B8B60606060",
"tX	c #AEAE00000000",
"yX	c #2B2B2B2B9292",
"uX	c #00000000F2F2",
"iX	c #1D1D1F1FF4F4",
"pX	c #B3B3ABABABAB",
"aX	c #A7A715151515",
"sX	c #C1C13D3D3D3D",
"dX	c #05050000E4E4",
"fX	c #2C2C3131ECEC",
"gX	c #959527272727",
"hX	c #BBBB99999999",
"jX	c #A6A699999999",
"kX	c #BDBD27272727",
"lX	c #B8B872727272",
"zX	c #4E4E4A4A7C7C",
"xX	c #06060000C9C9",
"cX	c #2B2B2929DADA",
"vX	c #A0A027272727",
"bX	c #7D7D27272727",
"nX	c #A4A400000000",
"mX	c #4C4C00001E1E",
"MX	c #060600009A9A",
"NX	c #979700001818",
"BX	c #ABAB27272727",
"VX	c #7E7E60606767",
"CX	c #656560607F7F",
"ZX	c #999960606464",
"                                                    . X         ",
"        o O +   @ #   X $ %             & *   = -   ; :         ",
"        > , + > < 1 2 3 4 5 6 7 8 9 0 q w e * r r & t y         ",
"      o u i * p 5 a s d ; f g h j k l z = x c v w b n m 6       ",
"      M ; + N w B V d C Z A S D F G H J K K s o L p P I U       ",
"      & = M < i Y F T o R E W Q l ! ~ H K ^ / ( L ) v % _       ",
"          ` ` B V ' v ] [ { } 4 |  ...X._ o.O.( +.@.            ",
"          #.T f } ^ 6 R $.%.} &.*.=.-.;.q o.:.B >.,.            ",
"          <.i 1.;.2.f 3.E j Q 4.5.6.-.d q 7.8.6                 ",
"          + 9.u *.0.q.[ w.j Q 4.4.6.~ G _ q q                   ",
"              e.' 0.r.[ S D t.G G y...J ;                       ",
"              e.u.= q.i.w.} t.p.5.a.s.! d.                      ",
"              f.g.h.f i.w.j.t.G -.6.k.~ ;..                     ",
"              Z 2.l.6 A z.W } l H s.k.x.H c.                    ",
"                      v.b.h j 4 J ! ..x.H K                     ",
"                      6 6 $.n.Q m.J M.M.N.q                     ",
"                        6 6 B.n.V.:.C.Z.A.                      ",
"                            M S.D.F.a X                         ",
"                          G.H.J.K.L.P.I.                        ",
"                        U.Y.T.T.R.E.Y.T.W.Q.                    ",
"                      U.!.~.I.^./.(.).).T.T.                    ",
"                    ).Y.~.Q.  _.`.'.      T.].                  ",
"                    [.{.Q.    }.|. X    .XXXoX                  ",
"                    OX+XY A.A.A.@X#X$Xc.K %X{.&X                ",
"                  6 *Xb.h j.k =X-X;X5.k.x.M.:X:X                ",
"                  6 >X,X:.<X1X2X3X3X4X5X6XB.7X8X                ",
"                    9X0X6 B _ }.qXwXeXeXa a {.&X                ",
"                    rXtX&X    yXuXiX    pXaXsX                  ",
"                    pXY.0X&X  K.dXfX  G.gXT.hX                  ",
"                      jXY.kXlXzXxXcXcXvXT.lX                    ",
"                        ).bXnXmXMXNXtXBXhX                      ",
"                          .X( VXCXZXH..X                        "};
