/* XPM */
static char *jpHelpIcon[] = {
/* width height num_colors chars_per_pixel */
"    32    32      256            2",
/* colors */
"`` c #040205",
"`. c #6c8274",
"`# c #84060c",
"`a c #acc2b4",
"`b c #44424c",
"`c c #9c4e54",
"`d c #d48284",
"`e c #e4e2e4",
"`f c #c40604",
"`g c #74060c",
"`h c #142e24",
"`i c #4c665c",
"`j c #94a69c",
"`k c #041208",
"`l c #e4c2c4",
"`m c #dc262c",
"`n c #ecf2ef",
"`o c #8c2e34",
"`p c #8c828c",
"`q c #bcb6b4",
"`r c #040a0c",
"`s c #644644",
"`t c #6c6268",
"`u c #d46664",
"`v c #a4060c",
"`w c #e40604",
"`x c #ecfaf4",
"`y c #c4d2cc",
"`z c #a4b6bc",
"`A c #dcd2d4",
"`B c #e4a6ac",
"`C c #140608",
"`D c #6c7274",
"`E c #a4a694",
"`F c #849694",
"`G c #c4cac4",
"`H c #3c5644",
"`I c #c42224",
"`J c #e43234",
"`K c #94929c",
"`L c #847a7c",
"`M c #f4e2e4",
"`N c #241224",
"`O c #f4d2d4",
"`P c #040214",
"`Q c #7c8280",
"`R c #841a24",
"`S c #2c2a2c",
"`T c #fcf2e8",
"`U c #140a0c",
"`V c #5c5654",
"`W c #dc6a6c",
"`X c #fcfafa",
"`Y c #a4aeb4",
"`Z c #e48a8c",
"`0 c #d40604",
"`1 c #141214",
"`2 c #c44244",
"`3 c #dcb6b0",
"`4 c #0c0a0a",
"`5 c #b40607",
"`6 c #e4bebc",
"`7 c #4c5254",
"`8 c #7c8a88",
".` c #343a3c",
".. c #442a2c",
".# c #5c7664",
".a c #ac363c",
".b c #6c6a64",
".c c #dcdadc",
".d c #747e7c",
".e c #d4cacc",
".f c #b46a6c",
".g c #f4eeec",
".h c #fcf2f8",
".i c #6c5654",
".j c #0c0207",
".k c #948a7c",
".l c #ec1614",
".m c #c4ced4",
".n c #9c9694",
".o c #4c5a5c",
".p c #94060c",
".q c #bccac0",
".r c #cc9294",
".s c #5c6664",
".t c #0c1a0c",
".u c #fcc2c4",
".v c #cc2e34",
".w c #ccbebc",
".x c #040a14",
".y c #f4faf8",
".z c #d4dedc",
".A c #ecaeac",
".B c #a4a2a7",
".C c #947e84",
".D c #94222c",
".E c #645e64",
".F c #ec6e6c",
".G c #040605",
".H c #4c4244",
".I c #ac5254",
".J c #eceeec",
".K c #cc0604",
".L c #8caeac",
".M c #0c1214",
".N c #c4b6bc",
".O c #7c665c",
".P c #f45254",
".Q c #ac060a",
".R c #f40604",
".S c #d4d4d4",
".T c #b4bab4",
".U c #140414",
".V c #7c7680",
".W c #d41614",
".X c #e44244",
".Y c #847e8c",
".Z c #fce2e4",
".0 c #f4dedc",
".1 c #0c0218",
".2 c #848284",
".3 c #3c3234",
".4 c #645654",
".5 c #c1c1c1",
".6 c #b4aaac",
".7 c #dc0604",
".8 c #bc0606",
"#` c #848a7c",
"#. c #d47e84",
"## c #f4b2b4",
"#a c #443a3e",
"#b c #fc6264",
"#c c #d43e44",
"#d c #c48c8c",
"#e c #ac4244",
"#f c #e42224",
"#g c #dc2224",
"#h c #8c9e94",
"#i c #f4cecc",
"#j c #f4a2a4",
"#k c #fc7274",
"#l c #9c3234",
"#m c #ecd5d4",
"#n c #bc3a3c",
"#o c #ecdbdc",
"#p c #748a84",
"#q c #accac4",
"#r c #9c9e9c",
"#s c #646a64",
"#t c #f44244",
"#u c #cccad4",
"#v c #eccacc",
"#w c #acbeb4",
"#x c #7c9e8c",
"#y c #1c1a1c",
"#z c #ec9294",
"#A c #3c3e3c",
"#B c #bc7274",
"#C c #d49a9c",
"#D c #644e54",
"#E c #3c5e54",
"#F c #8c8a90",
"#G c #342e34",
"#H c #647274",
"#I c #646254",
"#J c #4c364c",
"#K c #141a1c",
"#L c #842224",
"#M c #cccec4",
"#N c #94ae9c",
"#O c #9ca2a4",
"#P c #746664",
"#Q c #ec0604",
"#R c #eca2a4",
"#S c #aca29c",
"#T c #ccc6bc",
"#U c #acaaac",
"#V c #3c3634",
"#W c #746a6c",
"#X c #a49a8c",
"#Y c #545c54",
"#Z c #9c1e24",
"#0 c #f47274",
"#1 c #b4565c",
"#2 c #8c060c",
"#3 c #7c060c",
"#4 c #747674",
"#5 c #ec8e8c",
"#6 c #fcedec",
"#7 c #d43034",
"#8 c #b4bec4",
"a` c #dc4244",
"a. c #646664",
"a# c #b4c2bc",
"aa c #ece2e0",
"ab c #7c7e80",
"ac c #948a8c",
"ad c #a44e54",
"ae c #1c2e24",
"af c #041214",
"ag c #ecc2c4",
"ah c #942e34",
"ai c #ccd2cc",
"aj c #fcd2d4",
"ak c #2c2a3c",
"al c #5c5664",
"am c #dcb6bc",
"an c #545254",
"ao c #9c060c",
"ap c #f4aeac",
"aq c #fc5254",
"ar c #dc1614",
"as c #ec4244",
"at c #fcdedc",
"au c #fcb2b4",
"av c #b44244",
"aw c #241a1c",
"ax c #ccced4",
"ay c #c40a0c",
"az c #8c8684",
"aA c #bcbabc",
"aB c #040e07",
"aC c #e40a0c",
"aD c #ecfefc",
"aE c #847e80",
"aF c #7c8684",
"aG c #fcf6ec",
"aH c #d40a0c",
"aI c #0c0e0c",
"aJ c #7c8e84",
"aK c #6c6e6c",
"aL c #fcf6f8",
"aM c #f4fefc",
"aN c #a4a6a4",
"aO c #4c464c",
"aP c #cc0a0c",
"aQ c #c4bab4",
"aR c #ac0a0c",
"aS c #fce6e7",
"aT c #645a5c",
"aU c #b4aeb4",
"aV c #dc0a0c",
"aW c #3c3a3c",
"aX c #9c222c",
"aY c #840a0c",
"aZ c #44464c",
"a0 c #740a0c",
"a1 c #94969c",
"a2 c #040614",
"a3 c #141614",
"a4 c #dcdedc",
"a5 c #6c5a54",
"a6 c #4c5e5c",
"a7 c #cc3234",
"a8 c #040e14",
/* pixels */
".5.5.5.5.5.5.5.5.5.5.5.5.5.5.5.5.5.5.5.5.5.5.5.5.5.5.5.5.5.5.5.5",
".5.5.5.5.5.5.5.5.5.5.5#6au.F`JaC`J.FapaS.5.5.5.5.5.5.5.5.5.5.5.5",
".5.5.5.5.5.5.5.5.5#6#z`w`w`w`w`w`w.7.7aH`Z#6.5.5.5.5.5.5.5.5.5.5",
".5.5.5.5.5.5.5.5aj.X`w`w#Q.l#tasas`w.7`0`0#c#i.5.5.5.5.5.5.5.5.5",
".5.5.5.5.5.5.5aj`m.7`w#t.u`X.5.5.5`X#j#f`0`f`I#v.5.5.5.5.5.5.5.5",
".5.5.5.5.5.5#6a`.7`w.P`X.5.5.5.5.5.5.5#6#g`f.8#n.Z.5.5.5.5.5.5.5",
".5.5.5.5.5.5#5`0.7`wat.5.5.5.5.5.5.5.5.5##.K.8.Q#..5.5.5.5.5.5.5",
".5.5.5.5.5aS.K.7`w.P.5.5.5.5#b.R#k.5.5.5.5.K.8`vao.0.5.5.5.5.5.5",
".5.5.5.5.5ap`0.7`wasau.uataj.R.R#b.5.5.5#6.K`5.Q.p#C.5.5.5.5.5.5",
".5.5.5.5.5`W`0.7`w#Q.R.R.R.R.Raq#6.5.5.5#R`f`5`v.p#1.5.5.5.5.5.5",
".5.5.5.5.5#7`0.7`w#Q#Q.R.R.R#k.5.5.5.5aj.W`f`5`v.p#Z.5.5.5.5.5.5",
".5.5.5.5.5aP.K.7.7`w#Q#Q#Q#k`X.5.5.5#jar`f.8.Qao#2`#.5.5.5.5.5.5",
".5.5.5.5.5.v.K`0.7.7`w`w`w#6.5.5.5#j`0.K.8`5`v.p#2.D.5.5.5.5.5.5",
".5.5.5.5.5`u`f.K`0`0.7.7`w`X.5.5.h`0`f`f`5.Qao#2#2.I.5.5.5.5`X.5",
".5.5.5.5.5#R`5.8`f.K.K`0.Ka`.Xa`#7`f.8.Q`vao.p#2#3.r.5.5.5.5.5.5",
".5.5.5.5.5`M`5`5`5.8.8`f.v.uagagag`5.Q`vao.p#2`##3#m.5.5.5.5.5.5",
".5.5.5.5.5.5#.`v`v.Q.Q.Q`2.5.5.5.5`vao.p#2#2#3#3.f.5.5.5.5.5.5.5",
".5.5.5.5.5.5`M.aao.paoaoav.5.5.5.5.p.p#2`##3#3ah.0.5.5.5.5.5.5.5",
".5.5.5.5.5.5.5`6#Z#2#2#2#e.5.5.5.5#2`##3#3#3`R`3`X.5.5.5.5.5.5.5",
".5.5.5.5.5.5.5.5`6#l#3`#`#`#`##3#3#3`g#3`g#L`3.5.5.5.5.5.5.5.5.5",
".5.5.5.5.5.5.5.5.5.0.f#3`g`g`g#3`g`g`g`g.f.0.5.5.5.5.5.5.5.5.5.5",
".5.5a1#p.d#Ya5.i.A.5.5#m#dad`R`g`R`c#d#v.5.5`s.5.T#s`i`ia6`8.5.5",
".5aMa8``a2``#y.M``ai.5.5.h.e#J.U.baE.w.5.C...j.j.s#Yae`h`8.q.5.5",
"`x`n```7`X.5`X#r```E#I```U.j.j.j`4``.j.j.5#D.k#W`y``aB`k.G`y.5.5",
"`X.S`4`t.haL.ya1aB`.`j`H`D``.1.1.G`Q.SaA`X.3#a.H`n#F```D``aN.5.5",
".5.c``.j`N`P`1``aB.#aDaD.da8.j`P#K.M.BaL.h.EaW.HaW`r`r```r.j.5.5",
"aGaQ.j#a.Y.V`K#F```Q`x#```aZal`P#u````#O.JaE.Y#U`q`S.H.H`V`A.5.5",
"`X#S.U`p`X`X`X#u``#Y.q.t.M.`ak``aW`K`baZ`e```4``.B``#a.4```L.5.5",
".5#X.Gan`Y`z`K.d`C#PaG.O.2#V.G`raWaU`ea4ai``#O#y.n``aL.NaI#W.5.5",
"#6.k````.x.x````.j.4aGaG.5aG#saf`e`X.5.5ai.Ga3``.E``aw.3``#4.5.5",
"aG#T#p#h.L#q#8.mat`l.5.5.5.5#x#Eaa.g.5`n`a`j#w.T`G#4.2a.#Oa4.5.5",
".5.5.5.5.5.5.5.5.5.5.5.5.5.5.5.5.5.5.5.5.5.5.5.5.5.5.5.5.5.5.5.5"
};

