/* XPM */
static char * image_name[] = {
"32 32 251 2",
"  	c #C1C1C1C1C1C1",
". 	c #9D9D9D9DAEAE",
"X 	c #232323238585",
"o 	c #111111118C8C",
"O 	c #232323239999",
"+ 	c #9D9D9D9DB9B9",
"@ 	c #7A7A7A7A8080",
"# 	c #000000005C5C",
"$ 	c #000000007C7C",
"% 	c #11111111A5A5",
"& 	c #1C1C1C1CB8B8",
"* 	c #121212129C9C",
"= 	c #AFAFAFAFBDBD",
"- 	c #000000002B2B",
"; 	c #87878787C1C1",
": 	c #4F4F4F4FC7C7",
"> 	c #000000009898",
", 	c #57575757A0A0",
"< 	c #AFAFAFAFBABA",
"1 	c #575757578D8D",
"2 	c #000000002A2A",
"3 	c #000000004C4C",
"4 	c #777777779F9F",
"5 	c #58585858A3A3",
"6 	c #000000008787",
"7 	c #343434348B8B",
"8 	c #000000006F6F",
"9 	c #000000006E6E",
"0 	c #000000003F3F",
"q 	c #000000003838",
"w 	c #292929296565",
"e 	c #111111117878",
"r 	c #000000006C6C",
"t 	c #000000007979",
"y 	c #14141414A7A7",
"u 	c #4D4D4D4DAFAF",
"i 	c #8C8C8C8CAAAA",
"p 	c #000000006D6D",
"a 	c #000000004848",
"s 	c #000000003A3A",
"d 	c #000000004343",
"f 	c #000000004949",
"g 	c #000000004E4E",
"h 	c #000000004F4F",
"j 	c #000000008B8B",
"k 	c #01010101A2A2",
"l 	c #01010101A4A4",
"z 	c #27272727AAAA",
"x 	c #61616161B3B3",
"c 	c #9E9E9E9EB8B8",
"v 	c #575757579F9F",
"b 	c #343434349393",
"n 	c #575757579E9E",
"m 	c #8C8C8C8CAFAF",
"M 	c #AFAFAFAFB5B5",
"N 	c #575757579999",
"B 	c #69696969ACAC",
"V 	c #575757579494",
"C 	c #000000006666",
"Z 	c #000000005757",
"A 	c #111111114F4F",
"S 	c #343434346262",
"D 	c #232323235B5B",
"F 	c #000000004444",
"G 	c #010101019797",
"H 	c #26262626A4A4",
"J 	c #84848484C0C0",
"K 	c #B8B8B8B8DCDC",
"L 	c #8B8B8B8BC6C6",
"P 	c #2C2C2C2C9595",
"I 	c #69696969A3A3",
"U 	c #000000005A5A",
"Y 	c #000000008181",
"T 	c #07070707B8B8",
"R 	c #000000009E9E",
"E 	c #000000005E5E",
"W 	c #000000004A4A",
"Q 	c #8C8C8C8CA0A0",
"! 	c #4D4D4D4D7171",
"~ 	c #000000007272",
"^ 	c #222222229F9F",
"/ 	c #F8F8F8F8F8F8",
"( 	c #FFFFFFFFFFFF",
") 	c #FEFEFEFEFEFE",
"_ 	c #171717178C8C",
"` 	c #9D9D9D9DB5B5",
"' 	c #232323234141",
"] 	c #000000005B5B",
"[ 	c #000000007E7E",
"{ 	c #63636363D2D2",
"} 	c #2D2D2D2DDADA",
"| 	c #01010101B6B6",
" .	c #000000006565",
"..	c #232323235F5F",
"X.	c #696969698B8B",
"o.	c #000000004242",
"O.	c #C8C8C8C8C8C8",
"+.	c #F3F3F3F3F3F3",
"@.	c #B9B9B9B9DDDD",
"#.	c #FCFCFCFCFCFC",
"$.	c #93939393C2C2",
"%.	c #343434349292",
"&.	c #9D9D9D9D9F9F",
"*.	c #000000001A1A",
"=.	c #8C8C8C8CA7A7",
"-.	c #00000000A8A8",
";.	c #232323239292",
":.	c #8C8C8C8C9E9E",
">.	c #111111115B5B",
",.	c #888888889696",
"<.	c #B8B8B8B8B8B8",
"1.	c #73737373AFAF",
"2.	c #000000008383",
"3.	c #6C6C6C6CB3B3",
"4.	c #E9E9E9E9E9E9",
"5.	c #C7C7C7C7C7C7",
"6.	c #232323238D8D",
"7.	c #000000000E0E",
"8.	c #000000002C2C",
"9.	c #696969698787",
"0.	c #000000008F8F",
"q.	c #464646469898",
"w.	c #686868689191",
"e.	c #989898989898",
"r.	c #333333338F8F",
"t.	c #77777777A7A7",
"y.	c #BDBDBDBDBDBD",
"u.	c #343434344040",
"i.	c #000000001E1E",
"p.	c #000000003030",
"a.	c #000000006060",
"s.	c #000000006767",
"d.	c #8C8C8C8CA8A8",
"f.	c #69696969A5A5",
"g.	c #8E8E8E8E8E8E",
"h.	c #898989898989",
"j.	c #878787878787",
"k.	c #8F8F8F8F8F8F",
"l.	c #828282828282",
"z.	c #9D9D9D9DA2A2",
"x.	c #343434344949",
"c.	c #000000002323",
"v.	c #000000003C3C",
"b.	c #7A7A7A7A9494",
"n.	c #5B5B5B5B8888",
"m.	c #727272727272",
"M.	c #696969696D6D",
"N.	c #292929296A6A",
"B.	c #8C8C8C8C9898",
"V.	c #9D9D9D9DA6A6",
"C.	c #7A7A7A7AACAC",
"Z.	c #3F3F3F3F9494",
"A.	c #1B1B1B1B8787",
"S.	c #8C8C8C8CB0B0",
"D.	c #57575757A6A6",
"F.	c #69696969B7B7",
"G.	c #8C8C8C8CC0C0",
"H.	c #282828289696",
"J.	c #8B8B8B8BC7C7",
"K.	c #393939399999",
"L.	c #000000009C9C",
"P.	c #05050505BDBD",
"I.	c #02020202CACA",
"U.	c #57575757C1C1",
"Y.	c #F5F5F5F5F5F5",
"T.	c #CFCFCFCFE7E7",
"R.	c #111111114444",
"E.	c #14141414CFCF",
"W.	c #00000000C4C4",
"Q.	c #9D9D9D9DBFBF",
"!.	c #343434349797",
"~.	c #EDEDEDEDEDED",
"^.	c #E6E6E6E6F2F2",
"/.	c #E7E7E7E7F3F3",
"(.	c #69696969B0B0",
").	c #000000002020",
"_.	c #000000005353",
"`.	c #00000000AEAE",
"'.	c #57575757B0B0",
"].	c #0D0D0D0D8D8D",
"[.	c #83838383BFBF",
"{.	c #EAEAEAEAEAEA",
"}.	c #93939393B6B6",
"|.	c #000000003333",
" X	c #9D9D9D9DB3B3",
".X	c #000000009393",
"XX	c #0F0F0F0F8686",
"oX	c #B9B9B9B9B9B9",
"OX	c #747474749797",
"+X	c #111111111A1A",
"@X	c #000000001515",
"#X	c #000000002929",
"$X	c #00000000AAAA",
"%X	c #01010101D1D1",
"&X	c #4D4D4D4DCBCB",
"*X	c #87878787C6C6",
"=X	c #111111119C9C",
"-X	c #000000009696",
";X	c #787878787878",
":X	c #7A7A7A7A7A7A",
">X	c #7C7C7C7C7C7C",
",X	c #212121217777",
"<X	c #8C8C8C8C8E8E",
"1X	c #111111111D1D",
"2X	c #000000001C1C",
"3X	c #000000002727",
"4X	c #343434344B4B",
"5X	c #000000001717",
"6X	c #01010101BEBE",
"7X	c #27272727CECE",
"8X	c #7B7B7B7BC7C7",
"9X	c #8C8C8C8CBFBF",
"0X	c #AFAFAFAFC1C1",
"qX	c #8C8C8C8CB6B6",
"wX	c #565656566565",
"eX	c #555555555555",
"rX	c #191919196969",
"tX	c #8C8C8C8C9292",
"yX	c #000000007373",
"uX	c #00000000B3B3",
"iX	c #00000000C9C9",
"pX	c #57575757BDBD",
"aX	c #000000008A8A",
"sX	c #111111112E2E",
"dX	c #343434348282",
"fX	c #181818187676",
"gX	c #0B0B0B0B7B7B",
"hX	c #696969697575",
"jX	c #111111112727",
"kX	c #000000007F7F",
"lX	c #000000009D9D",
"zX	c #37373737E7E7",
"xX	c #000000008C8C",
"cX	c #000000001D1D",
"vX	c #000000001818",
"bX	c #000000006262",
"nX	c #000000009B9B",
"mX	c #111111116868",
"MX	c #000000001F1F",
"NX	c #000000003B3B",
"BX	c #7A7A7A7A9595",
"VX	c #000000007A7A",
"CX	c #232323237171",
"ZX	c #343434344545",
"AX	c #111111113B3B",
"SX	c #000000004646",
"DX	c #575757577474",
"FX	c #111111112121",
"GX	c #000000001111",
"HX	c #AFAFAFAFB0B0",
"JX	c #575757575B5B",
"                                                                ",
"                                                                ",
"                          . X o O +                             ",
"                        @ # $ % & * =                           ",
"                        - # X ; : > ,                           ",
"                    < 1 2 3 4   5 6 7 =                         ",
"                  < 8 9 0 q w 4 e r t y u +                     ",
"                i 9 p p a s d f g f h j k l z x c v b n m       ",
"    M N B B = V 9 C Z f f f A A S @ D F h G k l H J K L P I     ",
"  M U Y k T R 9 E f W W S Q           ! F h ~ ^ ^ / ( ( ) _ `   ",
"  ' ] [ { } |  .a ..X.                  ! A o.! O.+.L @.#.$.%.  ",
"&.*.W =.  u -.;.Q                         :.>.,.<.1.2.3.4.5.6.  ",
"  7.8.9.M o 0.q.                            q.w.e.4 r.t.y.,.6.  ",
"  u.i.p.3 a.s.d.                            f.f.g.h.j.k.l.S n   ",
"  z.x.c.p.v.b.                                ;.n.@ m.M.N.b     ",
"      z.B.V.                                    C.Z.A.6.n       ",
"                                                  C.f.S.<       ",
"    < D.F.G.                                  C.H.J.J.L K.`     ",
"  b.8 L.P.I.U.                              ` ;.Y.( ( ( T._ `   ",
"  R.r * { E.W.Q.                            !.. ~.^.@./.( (.I   ",
"&.)._.<     `.'.                            ].].O.K.2.[.{.}.%.  ",
"&.7.|. X. 6.j ^ $.                      = ^ .X@ e.V XX< oXOXq.  ",
"  +X@X#Xo.h Z $X%XE.&X*X              = =X> -Xw ;X:Xl.>Xm.,XI   ",
"  <X1X@X2X3X4X5Xa.6X%X%X7X8X+ 9X0X  qX=X> 9 - i.4XwXeXeXrXq.    ",
"      @ tX    wX5X5XyX6X%X0.uXW.iXpX> aXq i.i.sXdXfXgXY n       ",
"                hXjX5X#Xp kXlXE.zX| xXcXi.4XhX      `           ",
"                  z.jXvX|.bXI   pXnXmXmXz.                      ",
"                      hXMXNXBX  q.VXCX                          ",
"                        ZXcXAX4XW SXDX                          ",
"                        @ FXGX@X@XFX                            ",
"                          HXM.JX:X                              ",
"                                                                "};
