/* XPM */
static char * image_name[] = {
"32 32 233 2",
"  	c #C1C1C1C1C1C1",
". 	c #97979797B3B3",
"X 	c #90909090B5B5",
"o 	c #B3B3B3B3BDBD",
"O 	c #89898989A4A4",
"+ 	c #0D0D0D0D8383",
"@ 	c #000000009A9A",
"# 	c #00000000ACAC",
"$ 	c #0D0D0D0DB0B0",
"% 	c #60606060B4B4",
"& 	c #BABABABABFBF",
"* 	c #909090909F9F",
"= 	c #060606066868",
"- 	c #000000008C8C",
"; 	c #00000000A5A5",
": 	c #18181818CCCC",
"> 	c #00000000B6B6",
", 	c #67676767AFAF",
"< 	c #303030305959",
"1 	c #000000006565",
"2 	c #000000008888",
"3 	c #45454545ABAB",
"4 	c #75757575D9D9",
"5 	c #42424242E4E4",
"6 	c #02020202B7B7",
"7 	c #0D0D0D0DA3A3",
"8 	c #0D0D0D0D3B3B",
"9 	c #000000005858",
"0 	c #1B1B1B1B8282",
"q 	c #63636363B8B8",
"w 	c #00000000A6A6",
"e 	c #000000009696",
"r 	c #9E9E9E9EB4B4",
"t 	c #000000004444",
"y 	c #0D0D0D0D6868",
"u 	c #ACACACACB8B8",
"i 	c #292929299A9A",
"p 	c #000000009090",
"a 	c #000000007F7F",
"s 	c #97979797A4A4",
"d 	c #ACACACACB6B6",
"f 	c #444444446767",
"g 	c #000000003939",
"h 	c #000000004646",
"j 	c #0D0D0D0D6262",
"k 	c #1B1B1B1B7777",
"l 	c #000000007272",
"z 	c #000000006E6E",
"x 	c #292929297171",
"c 	c #444444448A8A",
"v 	c #0D0D0D0D6565",
"b 	c #000000004141",
"n 	c #000000004343",
"m 	c #000000004848",
"M 	c #000000004B4B",
"N 	c #0D0D0D0D4545",
"B 	c #898989899999",
"V 	c #BABABABABDBD",
"C 	c #000000006161",
"Z 	c #000000006262",
"A 	c #000000006060",
"S 	c #595959597171",
"D 	c #757575759B9B",
"F 	c #000000006666",
"G 	c #000000006D6D",
"H 	c #595959599393",
"J 	c #303030307979",
"K 	c #000000006C6C",
"L 	c #606060609696",
"P 	c #B3B3B3B3BABA",
"I 	c #000000006868",
"U 	c #676767679494",
"Y 	c #000000006363",
"T 	c #292929297E7E",
"R 	c #0D0D0D0D7272",
"E 	c #ACACACACB7B7",
"W 	c #C1C1BABABABA",
"Q 	c #C3C3A5A5A5A5",
"! 	c #89898989AAAA",
"~ 	c #303030309999",
"^ 	c #0D0D0D0DA8A8",
"/ 	c #000000007575",
"( 	c #060606067070",
") 	c #A5A5A5A5AAAA",
"_ 	c #C3C31B1B1B1B",
"` 	c #D1D100000000",
"' 	c #6E6E6E6E9090",
"] 	c #060606067C7C",
"[ 	c #000000009E9E",
"{ 	c #0A0A0A0ACBCB",
"} 	c #02020202C2C2",
"| 	c #75757575A1A1",
" .	c #797900000000",
"..	c #909000000000",
"X.	c #9B9B37373737",
"o.	c #B3B3B3B3B5B5",
"O.	c #000000004E4E",
"+.	c #000000007979",
"@.	c #33333333B9B9",
"#.	c #5F5F5F5FF8F8",
"$.	c #00000000B8B8",
"%.	c #494906060606",
"&.	c #575700000000",
"*.	c #868637373737",
"=.	c #757575758383",
"-.	c #000000004242",
";.	c #60606060A4A4",
":.	c #B0B0B0B0C4C4",
">.	c #07070707BCBC",
",.	c #00000000ADAD",
"<.	c #38383838C6C6",
"1.	c #ACACACACC1C1",
"2.	c #484806060606",
"3.	c #565600000000",
"4.	c #89893E3E3E3E",
"5.	c #BDBDB3B3B3B3",
"6.	c #C3C3B3B3B3B3",
"7.	c #000000003333",
"8.	c #676767679898",
"9.	c #000000009C9C",
"0.	c #000000009797",
"q.	c #01010101ABAB",
"w.	c #01010101C8C8",
"e.	c #0F0F0F0FC8C8",
"r.	c #555500000000",
"t.	c #828230303030",
"y.	c #BABA90909090",
"u.	c #CDCD15151515",
"i.	c #EDED11111111",
"p.	c #060606063838",
"a.	c #000000003D3D",
"s.	c #000000005C5C",
"d.	c #373737378C8C",
"f.	c #000000007E7E",
"g.	c #000000007C7C",
"h.	c #01010101C2C2",
"j.	c #01010101C9C9",
"k.	c #3F3F3F3FC6C6",
"l.	c #91919191C2C2",
"z.	c #545400000000",
"x.	c #88883E3E3E3E",
"c.	c #BBBBBABABABA",
"v.	c #ECEC0F0F0F0F",
"b.	c #BEBE03030303",
"n.	c #000000005252",
"m.	c #010101018888",
"M.	c #08080808C8C8",
"N.	c #61616161C4C4",
"B.	c #BABABABABEBE",
"V.	c #3E3E00000909",
"C.	c #707022223535",
"Z.	c #97979797BBBB",
"A.	c #BDBD97979797",
"S.	c #CACA23232323",
"D.	c #A2A200000000",
"F.	c #909052525252",
"G.	c #B6B6B3B3B3B3",
"H.	c #BABABABABBBB",
"J.	c #606060607676",
"K.	c #000000003535",
"L.	c #000000003636",
"P.	c #373737375C5C",
"I.	c #000000003A3A",
"U.	c #000000003B3B",
"Y.	c #000000003C3C",
"T.	c #000000007D7D",
"R.	c #01010101B7B7",
"E.	c #38383838BBBB",
"W.	c #0D0D0D0D8585",
"Q.	c #3B3B00001111",
"!.	c #535300000000",
"~.	c #4A4A00003F3F",
"^.	c #9B9B23234646",
"/.	c #81810D0D0D0D",
"(.	c #9A9A89898989",
").	c #909090909B9B",
"_.	c #ACACACACB1B1",
"`.	c #141414144949",
"'.	c #000000007171",
"].	c #01010101A6A6",
"[.	c #000000007B7B",
"{.	c #000000008585",
"}.	c #0A0A00008A8A",
"|.	c #24240E0E9494",
" X	c #0D0D0D0DCECE",
".X	c #07070000ACAC",
"XX	c #878700001E1E",
"oX	c #84843E3E3E3E",
"OX	c #B2B2ACACACAC",
"+X	c #606060607E7E",
"@X	c #000000005353",
"#X	c #3C3C00006464",
"$X	c #B7B70F0F2828",
"%X	c #A1A13E3E8F8F",
"&X	c #0B0B0B0BC1C1",
"*X	c #BABABABABCBC",
"=X	c #303030305757",
"-X	c #737300001E1E",
";X	c #B1B100000000",
":X	c #BABA02020808",
">X	c #00000000A1A1",
",X	c #757575758686",
"<X	c #000000003737",
"1X	c #232300004545",
"2X	c #6B6B00001717",
"3X	c #484800004242",
"4X	c #000000008282",
"5X	c #000000007878",
"6X	c #CACA7C7C7C7C",
"7X	c #000000005151",
"8X	c #000000005B5B",
"9X	c #191900004343",
"0X	c #C5C513131313",
"qX	c #1B1B1B1B4545",
"wX	c #60603E3E4545",
"eX	c #66660D0D0D0D",
"rX	c #8F8F00000000",
"tX	c #ECEC22222222",
"yX	c #C9C983838383",
"uX	c #6E6E6E6E8080",
"iX	c #676767677A7A",
"pX	c #ACACACACB0B0",
"aX	c #A3A397979797",
"sX	c #676737373737",
"dX	c #616100000000",
"fX	c #919101010101",
"gX	c #CBCB15151515",
"hX	c #C5C597979797",
"jX	c #989801010101",
"kX	c #616129292929",
"lX	c #646400000000",
"zX	c #949460606060",
"xX	c #90907C7C7C7C",
"                        . X o                                   ",
"                    O + @ # $ % &                               ",
"                  * = - ; : : > ,                               ",
"                  < 1 2 3 4 5 6 7 o                             ",
"                  8 9 0     q w e r                             ",
"                    t y u   i p a s                             ",
"                d f g h j k l z x                               ",
"                c v h b n m M N B                               ",
"              V y C Z A m m S s                                 ",
"              D C Z F G G H                                     ",
"              J Z Z K G K L                                     ",
"            P C Z I G G c                                       ",
"            U Z Y K G T V                                       ",
"            x Z I G R E             W Q W                       ",
"      ! ~ ^ @ / G ( )               _ ` `                       ",
"    ' ] [ 6 { } @ |                  ...X.                      ",
"  o.O.+.@ @.#.#.$.|                 %.&.*.                      ",
"  =.-.G ;.  :.>.,.,.<.1.            2.3.4.          5.5.6.      ",
"  =.7.9 8.  & 9.0.q.w.e.4 :.        2.r.t.        y.u.i.i.      ",
"  ) p.a.s.s.d.f.g.h.j.j.w.k.l.      2.z.x.    c.c.` v.b.X.      ",
"      7.a.m n.n.t O.m.h.j.j.M.N.:.B.V.z.C.Z.A.S.v.` D.F.G.      ",
"    H.J.p.K.L.P.I.U.Y.-.T.R.j.w.E.W.Q.!.~.>.^.i.b./.(.          ",
"        H.)._.s `.U.U.U.U.-.'.].[.{.}.|.5  X.XXXoXOX            ",
"                  s +X+XN U.U.I.@Xg.#X$X%X&Xq.c                 ",
"                        *X* +X=X-.I -X;X:X>X0.c                 ",
"                              ,X<XM 1X2X3X4X5X^.6XW             ",
"                              H.H.I.t 7Xs.8X9X0Xi.i.6XW         ",
"                                _.qXK.<XL.p.wXeXrX0XtXtXyX      ",
"                                  H.uXS iXpX  aXsXdXfXgXtXtXhX  ",
"                                                  aXsXdXjXgXS.  ",
"                                                      (.kXlXzX  ",
"                                                        c.xXc.  "};
