/* XPM */
static char * image_name[] = {
"32 32 140 2",
"  	c #C1C1C1C1C1C1",
". 	c #3C3C3C3C3C3C",
"X 	c #737373737373",
"o 	c #191919191919",
"O 	c #434343434343",
"+ 	c #B0B0B0B0B0B0",
"@ 	c #9F9F9F9F9F9F",
"# 	c #535353535353",
"$ 	c #B1B1B1B1B1B1",
"% 	c #9E9E9E9E9E9E",
"& 	c #212121212121",
"* 	c #484848484848",
"= 	c #A0A0A0A0A0A0",
"- 	c #717171717171",
"; 	c #9C9C9C9C9C9C",
": 	c #242424242424",
"> 	c #222222222222",
", 	c #545454545454",
"< 	c #262626262626",
"1 	c #353535353535",
"2 	c #474747474747",
"3 	c #858585858585",
"4 	c #B2B2B2B2B2B2",
"5 	c #323232323232",
"6 	c #383838383838",
"7 	c #1B1B1B1B1B1B",
"8 	c #111111111111",
"9 	c #1D1D1D1D1D1D",
"0 	c #373737373737",
"q 	c #464646464646",
"w 	c #232323232323",
"e 	c #181818181818",
"r 	c #7B7B7B7B0707",
"t 	c #FFFFFDFD0000",
"y 	c #FFFFFEFE0000",
"u 	c #E8E8E7E70000",
"i 	c #BCBCBCBC0303",
"p 	c #505050500B0B",
"a 	c #171717171717",
"s 	c #4B4B4B4B4B4B",
"d 	c #202020202020",
"f 	c #BDBDBCBC0404",
"g 	c #656565650808",
"h 	c #565656565656",
"j 	c #5D5D5D5D5D5D",
"k 	c #808080800C0C",
"l 	c #3D3D3D3D0F0F",
"z 	c #252525252525",
"x 	c #A2A2A2A2A2A2",
"c 	c #2A2A2A2A2A2A",
"v 	c #A7A7A7A70505",
"b 	c #727272727272",
"n 	c #363636363636",
"m 	c #272727272727",
"M 	c #373737372020",
"N 	c #D2D2D2D20202",
"B 	c #1C1C1C1C1C1C",
"V 	c #838383838383",
"C 	c #454545454545",
"Z 	c #343434343434",
"A 	c #2C2C2C2C2C2C",
"S 	c #393939392222",
"D 	c #7B7B7B7B7B7B",
"F 	c #282828282828",
"G 	c #EBEBEBEB0303",
"H 	c #939393930808",
"J 	c #5E5E5E5E5E5E",
"K 	c #686868686868",
"L 	c #777777771A1A",
"P 	c #303030301919",
"I 	c #AFAFAFAFAFAF",
"U 	c #AEAEAEAEAEAE",
"Y 	c #292929292929",
"T 	c #9F9F9F9F1414",
"R 	c #D5D5D5D50404",
"E 	c #6B6B6B6B2626",
"W 	c #313131313131",
"Q 	c #6D6D6D6D6D6D",
"! 	c #909090909090",
"~ 	c #666665652020",
"^ 	c #9D9D9D9D1212",
"/ 	c #EEEEEEEE3434",
"( 	c #D7D7D7D77A7A",
") 	c #707070707070",
"_ 	c #4E4E4E4E4E4E",
"` 	c #3E3E3E3E3E3E",
"' 	c #616161616161",
"] 	c #787878787878",
"[ 	c #8F8F8F8F8F8F",
"{ 	c #1E1E1E1E1E1E",
"} 	c #3F3F3F3F3F3F",
"| 	c #505050505050",
" .	c #878787878787",
"..	c #A1A1A1A1A1A1",
"X.	c #1A1A1A1A1A1A",
"o.	c #6E6E6E6E6E6E",
"O.	c #595959595959",
"+.	c #1F1F1F1F1F1F",
"@.	c #151515151515",
"#.	c #141414141414",
"$.	c #5A5A5A5A5A5A",
"%.	c #161616161616",
"&.	c #797979797979",
"*.	c #696969696969",
"=.	c #444444444444",
"-.	c #7F7F7F7F7F7F",
";.	c #7A7A7A7A7A7A",
":.	c #9D9D9D9D9D9D",
">.	c #929292929292",
",.	c #7D7D7D7D7D7D",
"<.	c #585858585858",
"1.	c #7C7C7C7C7C7C",
"2.	c #828282828282",
"3.	c #676767676767",
"4.	c #818181818181",
"5.	c #8A8A8A8A8A8A",
"6.	c #5B5B5B5B5B5B",
"7.	c #808080808080",
"8.	c #4F4F4F4F4F4F",
"9.	c #3A3A3A3A3A3A",
"0.	c #666666666666",
"q.	c #7E7E7E7E7E7E",
"w.	c #2F2F2F2F2F2F",
"e.	c #575757575757",
"r.	c #949494949494",
"t.	c #494949494949",
"y.	c #656565656565",
"u.	c #525252525252",
"i.	c #8D8D8D8D8D8D",
"p.	c #2E2E2E2E2E2E",
"a.	c #888888888888",
"s.	c #8B8B8B8B8B8B",
"d.	c #757575757575",
"f.	c #646464646464",
"g.	c #414141414141",
"h.	c #2B2B2B2B2B2B",
"j.	c #3B3B3B3B3B3B",
"k.	c #5C5C5C5C5C5C",
"l.	c #2D2D2D2D2D2D",
"z.	c #8C8C8C8C8C8C",
"                                                                ",
"                      . X                                       ",
"                      o O                                       ",
"        + @           o #           + $                         ",
"      % & * +         o #         = & -                         ",
"      ; : > * @ = X , < 1 2 3 4 = 5 & *                         ",
"        ; : & 6 > 7 8 8 8 8 9 0 & 9 q                           ",
"          ; < w e r t y u i p a : s                             ",
"          + d o f y y y y y y g o h                             ",
"          j & k y y y y y y y y l z x                           ",
"          c > y y y y y y y y y v 9 b                           ",
"  n m < < d M y y y y y y y y y N B m < m < V                   ",
"  C * Z w A S y y y y y y y y y i 7 o * w * D                   ",
"          6 F G y y y y y y y y H > J                           ",
"          K d L y y y y y y y y P & I                           ",
"          U Y F T y y y y y R E W Q                             ",
"          ! > & Y ~ ^ / (       + 4   + ) _ . ` ' ] =           ",
"        [ > { Z z } + + - , F 5 | D  ...X X.1 Z : F 0 o.$       ",
"      = > d O.    U Q +.B @.#.m @.9 Z * x         ] q { ] $     ",
"        | q       $.7 %.&.;       *.2 +.1 $         U =.{ -.    ",
"          U     ;.X.z :.>.      ,.<.= C 9 #           U : 6 x   ",
"                n e ;.- #       J W I   w +.$           &.B 1.  ",
"              ; @.6   o.2.      c Z     3.e 4.          ; a C   ",
"              5.#.6.            Y n     5.@.7.          U @.8.  ",
"              ; @._             0 9.x   0.%.q.          ; a |   ",
"              ; : w.$           1.Z &.  n 9 +           &.w 0.  ",
"                e.7 X           U 9._ r.,.t.            ` A q.  ",
"                U m w y.x         ] d u.i.          U ` p.w.    ",
"                  ; m : n a.s.d.f...K m g.<.d.2.4.X F w.d %     ",
"                    U D h.j.0 w B k.  3.z c Z p.l.Y w 6 %       ",
"                          5.z.z.; U     U &.<.* 6.*.%           ",
"                                                                "};
