/* XPM */
static char * lock_xpm[] = {
"10 10 2 1 5 4",
" 	c #FFFFFFFFFFFF",
".	c #000000000000",
"   ....   ",
"  ..  ..  ",
" ..    .. ",
" ..    .. ",
"..........",
"..........",
"....  ....",
"....  ....",
"..........",
".........."};
