/* XPM */
static char * lightList_xpm[] = {
"16 16 13 1",
" 	s bg	c #FFFF0000FFFF",
".	s c1	c #FFFFFFFFFFFF",
"X	s c2	c #000000000000",
"o	s c3	c #FFFFFFFF0000",
"O	s c4	c #000000000505",
"+	s c5	c #000000003131",
"@	s c6	c #0B0B0B0B3E3E",
"#	s c7	c #0D0D0D0D1D1D",
"$	s c8	c #F9F9F9F9F9F9",
"%	s c9	c #1E1E1E1E1E1E",
"&	s c10	c #070707070707",
"*	s c11	c #111111111111",
"=	s c12	c #060606060606",
"                ",
"    .XX         ",
" .X .XX .X      ",
"  .XXooXX.      ",
"  .XooooO.      ",
".X+ooooooXX     ",
".X@ooooooXX     ",
" ..XooooX..     ",
"  .XXoXX.XXXX   ",
" .X..X#.XX...X  ",
"  . XXX.X.X...X ",
"    X...X.X..$% ",
"    X...X.X...& ",
"     X...X...X  ",
"      XXX X*=   ",
"                "};
