/* XPM */
static char *lock_mono[] = {
/* width height num_colors chars_per_pixel */
"   20 20 2 1 10 7",
" 	s bg c #FFFFFFFFFFFF",
"o	c #000000000000",
"                    ",
"                    ",
"       oooooo       ",
"      oooooooo      ",
"     oooooooooo     ",
"    oooo    oooo    ",
"    ooo      ooo    ",
"    ooo      ooo    ",
"   oooooooooooooo   ",
"   oooooooooooooo   ",
"   oooo      oooo   ",
"   oooo oooo oooo   ",
"   oooo oooo oooo   ",
"   oooo oooo oooo   ",
"   oooo      oooo   ",
"   oooooooooooooo   ",
"   oooooooooooooo   ",
"                    ",
"                    ",
"                    "};
