/* XPM */
static char * image_name[] = {
"32 32 68 1",
" 	c #C1C1C1C1C1C1",
".	c #414141414141",
"X	c #2B2B2B2B2B2B",
"o	c #1A1A1A1A1A1A",
"O	c #000000000000",
"+	c #3D3D3D3D3D3D",
"@	c #8686C5C5DFDF",
"#	c #8A8ACACAE4E4",
"$	c #8A8ACBCBE5E5",
"%	c #8B8BCBCBE5E5",
"&	c #8787C7C7E0E0",
"*	c #5C5C87879999",
"=	c #4F4F74748383",
"-	c #8787C6C6DFDF",
";	c #9191D4D4EFEF",
":	c #9191D5D5F0F0",
">	c #9191D5D5F1F1",
",	c #7373AAAABFBF",
"<	c #1D1D2B2B3131",
"1	c #030304040505",
"2	c #66669696A9A9",
"3	c #9191D4D4F0F0",
"4	c #9191D6D6F1F1",
"5	c #8E8ED1D1EBEB",
"6	c #040403030000",
"7	c #80805F5F0000",
"8	c #BBBB8B8B0000",
"9	c #181812120000",
"0	c #7373A9A9BFBF",
"q	c #63639292A4A4",
"w	c #D9D9A1A10000",
"e	c #D8D8A1A10000",
"r	c #93936E6E0000",
"t	c #2E2E43434C4C",
"y	c #8D8DD0D0EAEA",
"u	c #9292D6D6F1F1",
"i	c #56567E7E8E8E",
"p	c #CFCF9A9A0000",
"a	c #D9D9A2A20000",
"s	c #D4D49E9E0000",
"d	c #2C2C21210000",
"f	c #8181BEBED6D6",
"g	c #49496B6B7878",
"h	c #8E8ED1D1ECEC",
"j	c #8F8F6A6A0000",
"k	c #A7A77D7D0000",
"l	c #000003030101",
"z	c #000012120909",
"x	c #000045452323",
"c	c #00000F0F0808",
"v	c #3B3B57576262",
"b	c #454566667373",
"n	c #000048482525",
"m	c #000064643333",
"M	c #000054542B2B",
"N	c #00002B2B1616",
"B	c #000038381D1D",
"V	c #000061613131",
"C	c #000006060303",
"Z	c #00001F1F1010",
"A	c #000061613232",
"S	c #000065653333",
"D	c #000052522929",
"F	c #101018181B1B",
"G	c #000055552B2B",
"H	c #000038381C1C",
"J	c #BCBCBCBCBCBC",
"K	c #B8B8B8B8B8B8",
"                                ",
" .XXXXXXXoXXXoXXXXXXXXXXoXXXXX. ",
" XOOOOOOOOOOOOOOOOOOOOOOOOOOOOX ",
" +O@#$$$$$$$$$$%%$$&*=*-$$$#@OX ",
" XO#;::::::::>>>>>,<OOO12::;#O+ ",
" +O$3:::::>>>>>445<6787910:3$OX ",
" XO$:::::>>444444qO7wwerO1ty$OX ",
" +O$:::>>4444uuuuiOpas7dOOO1<O+ ",
" XO$::>>444uufgqhqOjkdOlzxxcOO+ ",
" +O$::>>44uhv1OO<bOOOOcnmmmMNl+ ",
" XO$:>>44hg1OlzcOOOOlBVmmmmmmCX ",
" XO$:>4hi<OlZASABccDAmmmmmmmmCX ",
" +O$>5iFOlzGSSSSSAGSSSmmmmmmmCX ",
" XO&i<OOcGSSSSSSSSSSSSmmmmmmmCX ",
" XOOOOcxVSSSSSSSSSSSSSSmmmmmmC+ ",
" XOOcxVmmSSSSSSSSSSSSSSmmmmmmCX ",
" +lHVmmmmSSSSSSSSSSSSSSmmmmmmCX ",
" XCmmmmmmSSSSSSSSSSSSSmmmmmmmCX ",
" XlZZzZzZZZzzZZZZZZZZZZzzzZZZlX ",
" XOOOOOOOOOOOOOOOOOOOOOOOOOOOOX ",
" JKKKKKKKKKKKKKKKKKKKKKKKKKKKKJ ",
"                                ",
"                                ",
"                                ",
"                                ",
"                                ",
"                                ",
"                                ",
"                                ",
"                                ",
"                                ",
"                                "};
