/* XPM */
static char * image_name[] = {
"32 32 239 2",
"  	c #C1C1C1C1C1C1",
". 	c #B6B69D9D9D9D",
"X 	c #989834343434",
"o 	c #CBCBC1C1C1C1",
"O 	c #DFDFBFBFBFBF",
"+ 	c #ACAC7A7A7A7A",
"@ 	c #898900000000",
"# 	c #B1B18C8C8C8C",
"$ 	c #EAEABCBCBCBC",
"% 	c #C6C6A9A9A9A9",
"& 	c #C3C3B2B2B2B2",
"* 	c #C6C69A9A9A9A",
"= 	c #C8C88D8D8D8D",
"- 	c #C5C5A1A1A1A1",
"; 	c #BBBBAFAFAFAF",
": 	c #A2A257575757",
"> 	c #C5C598989898",
", 	c #C6C68C8C8C8C",
"< 	c #C8C87F7F7F7F",
"1 	c #C9C976767676",
"2 	c #C4C490909090",
"3 	c #9B9B9C9C9C9C",
"4 	c #8A8A00000000",
"5 	c #C6C680808080",
"6 	c #CDCD69696969",
"7 	c #D4D461616161",
"8 	c #B7B7B7B7B7B7",
"9 	c #9F9FA0A0A1A1",
"0 	c #A3A3A4A4A5A5",
"q 	c #9A9A9B9B9B9B",
"w 	c #AAAAACACADAD",
"e 	c #A0A088888989",
"r 	c #999981818282",
"t 	c #717135353636",
"y 	c #4F4F0A0A3F3F",
"u 	c #96967D7D8F8F",
"i 	c #C8C895959595",
"p 	c #D4D45E5E5E5E",
"a 	c #DADA55555555",
"s 	c #DEDE4E4E4E4E",
"d 	c #C5C584848484",
"f 	c #9D9D9D9D9D9D",
"g 	c #939395959696",
"h 	c #9E9E9F9FA0A0",
"j 	c #919193939494",
"k 	c #A0A0A1A1A2A2",
"l 	c #A5A5A6A6A6A6",
"z 	c #868687878888",
"x 	c #84845D5D5E5E",
"c 	c #2C2C0D0D5757",
"v 	c #686868689B9B",
"b 	c #CDCD77777777",
"n 	c #E4E444444444",
"m 	c #E3E339393939",
"M 	c #909092929393",
"N 	c #929293939494",
"B 	c #8D8D8E8E8F8F",
"V 	c #9F9FA0A0A0A0",
"C 	c #737376767878",
"Z 	c #76765C5C5E5E",
"A 	c #363608083F3F",
"S 	c #565656569191",
"D 	c #D0D080808080",
"F 	c #E3E343434343",
"G 	c #E8E83C3C3C3C",
"H 	c #E9E933333333",
"J 	c #E8E83B3B3B3B",
"K 	c #C6C669696969",
"L 	c #979798989999",
"P 	c #88888A8A8B8B",
"I 	c #A7A7A7A7A8A8",
"U 	c #707073737575",
"Y 	c #A0A07B7B7B7B",
"T 	c #9E9E46464646",
"R 	c #090909094848",
"E 	c #333333338282",
"W 	c #B7B7B8B8B8B8",
"Q 	c #D6D665656565",
"! 	c #E8E832323232",
"~ 	c #EBEB2B2B2B2B",
"^ 	c #E8E81C1C1C1C",
"/ 	c #ECEC1B1B1C1C",
"( 	c #B3B36A6A6B6B",
") 	c #A9A9AAAAAAAA",
"_ 	c #BCBCBCBCBDBD",
"` 	c #CECE8B8B8B8B",
"' 	c #B4B4B4B4B5B5",
"] 	c #6E6E70707272",
"[ 	c #080808083E3E",
"{ 	c #343434348585",
"} 	c #A5A5A6A6A7A7",
"| 	c #D9D943434444",
" .	c #E7E71C1C1C1C",
"..	c #F2F216161616",
"X.	c #FEFE15151515",
"o.	c #C1C17B7B7C7C",
"O.	c #C8C898989999",
"+.	c #FFFF12121212",
"@.	c #B4B4B4B4B4B4",
"#.	c #7B7B7E7E8080",
"$.	c #6F6F72727474",
"%.	c #B4B4B5B5B5B5",
"&.	c #080808084242",
"*.	c #BBBBBBBBBBBB",
"=.	c #BCBCBCBCBCBC",
"-.	c #8E8E8F8F9090",
";.	c #D8D833333333",
":.	c #FDFD19191919",
">.	c #F3F320202020",
",.	c #FFFF0F0F0F0F",
"<.	c #FFFF0D0D0D0D",
"1.	c #A9A9A9A9AAAA",
"2.	c #6F6F72727575",
"3.	c #AEAEAEAEB0B0",
"4.	c #444444448888",
"5.	c #B6B6B6B6B6B6",
"6.	c #8D8D8F8F9090",
"7.	c #D5D557575757",
"8.	c #FFFF0E0E0E0E",
"9.	c #FFFF0B0B0B0B",
"0.	c #F8F81C1C1C1C",
"q.	c #A2A28A8A8A8A",
"w.	c #6F6F71717373",
"e.	c #9A9A9B9B9E9E",
"r.	c #0B0B0B0B5656",
"t.	c #919193939393",
"y.	c #8C8C8E8E8F8F",
"u.	c #A9A9AAAAABAB",
"i.	c #ABABABABACAC",
"p.	c #FFFF09090909",
"a.	c #8C8C5D5D5F5F",
"s.	c #6B6B6E6E7070",
"d.	c #AFAFAFAFAFAF",
"f.	c #505050506363",
"g.	c #232323235F5F",
"h.	c #676767679393",
"j.	c #B5B5B6B6B6B6",
"k.	c #D1D171717272",
"l.	c #FFFF08080808",
"z.	c #AFAFB0B0B0B0",
"x.	c #B9B9B9B9B9B9",
"c.	c #696969696969",
"v.	c #A2A298980606",
"b.	c #D3D3D3D31515",
"n.	c #878787875F5F",
"m.	c #8B8B8D8D8E8E",
"M.	c #F8F81F1F1F1F",
"N.	c #DADA37373737",
"B.	c #909092929494",
"V.	c #A8A8A9A9AAAA",
"C.	c #232323232323",
"Z.	c #D0D0CACA0404",
"A.	c #FFFFFFFF0000",
"S.	c #8A8A8B8B8C8C",
"D.	c #B7B7B7B7B8B8",
"F.	c #C6C6AEAEAEAE",
"G.	c #D7D777777777",
"H.	c #D3D340404141",
"J.	c #EEEE13131414",
"K.	c #5C5C4A4A0000",
"L.	c #8B8B8B8B0000",
"P.	c #8C8C8C8C8C8C",
"I.	c #B8B8B8B8B8B8",
"U.	c #6D6D70707272",
"Y.	c #B5B59D9D9D9D",
"T.	c #D6D65B5B5B5B",
"R.	c #D7D744444545",
"E.	c #CDCD9C9C9C9C",
"W.	c #767678787A7A",
"Q.	c #575757575757",
"!.	c #B9B9B3B30505",
"~.	c #3F3F3E3E1111",
"^.	c #757578787979",
"/.	c #454545450000",
"(.	c #A2A2A2A20000",
").	c #B5B5B5B5B5B5",
"_.	c #878788888989",
"`.	c #858586868787",
"'.	c #515151512323",
"].	c #5C5C5C5C0000",
"[.	c #7B7B00000000",
"{.	c #757577777979",
"}.	c #575757571111",
"|.	c #737371710000",
" X	c #888800000000",
".X	c #888853535353",
"XX	c #6D6D6E6E6F6F",
"oX	c #666668686A6A",
"OX	c #69696C6C6E6E",
"+X	c #7E7E23232424",
"@X	c #676769696A6A",
"#X	c #B9B9B9B90202",
"$X	c #E7E7E7E70000",
"%X	c #8D8D11111111",
"&X	c #87870C0C0C0C",
"*X	c #84840B0B0B0B",
"=X	c #5D5D09090909",
"-X	c #474711111111",
";X	c #171712120000",
":X	c #737364640505",
">X	c #8B8B7C7C0000",
",X	c #737368680000",
"<X	c #9C9C46464646",
"1X	c #868623232525",
"2X	c #72720F0F3838",
"3X	c #60600E0E4444",
"4X	c #515105052626",
"5X	c #2E2E2E2E0000",
"6X	c #737373730404",
"7X	c #FFFFFAFA0404",
"8X	c #FFFFFEFE0202",
"9X	c #FFFFEBEB0000",
"0X	c #282827271111",
"qX	c #7A7A7A7A3434",
"wX	c #606016163333",
"eX	c #252525258181",
"rX	c #26262626A4A4",
"tX	c #151515156565",
"yX	c #181818183636",
"uX	c #171717173535",
"iX	c #3D3D3D3D5353",
"pX	c #2C2C2C2C5151",
"aX	c #343434348080",
"sX	c #252525258787",
"dX	c #D4D4D4D41E1E",
"fX	c #FFFFFFFF0404",
"gX	c #B9B9AFAF0000",
"hX	c #7F7F77772323",
"jX	c #686868682323",
"kX	c #878700000000",
"lX	c #A7A769696969",
"zX	c #171717173333",
"xX	c #040404042222",
"cX	c #040404042424",
"vX	c #0E0E0E0E5F5F",
"bX	c #E2E2DCDC1111",
"nX	c #A2A29A9A0000",
"mX	c #737367670000",
"MX	c #4B4B48483434",
"                                                                ",
"                                                                ",
"                                                    . X .       ",
"          o O                                       + @ #       ",
"        o $ % &                                     # @ #       ",
"        $ % * = -                             ; # # : @ + # # . ",
"        & > , < 1 2                         3 3 4 4 4 @ @ @ @ : ",
"          % 5 1 6 7 %               8 9 0 q w e e r t 4 y u # . ",
"            i 6 p a s d 8       8 f g h j k l 8   z x 4 c v     ",
"              b a s n m d   8 h M N B 0         V C Z 4 A S     ",
"                D F G H J K L M P 8           I U U Y T R E     ",
"                W Q ! ~ ^ / ( ) _ ` `       ' U ] '     [ {     ",
"                } } |  ./ ..X.o.O.+.Q     @.#.$.%.      &.E     ",
"                *.=.-.;...:.X.>.,.<.s   1.2.U %.      3.R 4.    ",
"                5.N 6.z 7.X.+.8.<.9.0.q.$.w.)         e.r.S     ",
"                t.y.q u.i.H 8.9.p.p.p.a.s.1.        d.f.g.h.    ",
"              W 6.q   j.k.8.9.p.p.l.l.: z.x.x.      c.v.b.n.    ",
"            8 m.m.5.  ` M.9.p.l.l.l.l.N.B.B.V.      C.Z.A.A.    ",
"            S.y.D.      F.G.H.J.l.l.p.p.V.V.      f K.A.L.P.    ",
"          I.6.l         @.P w.U.Y.T.R.0.E.    W.Q.C.!.A.~.      ",
"          M y.8         ^.$.W.@.  k M   F.      A./.A.(.W.      ",
"            -.    )._.U.U.`.@.    V.V.        '.A.].A.C.        ",
"        [.t 5.  V U.$.{.@.              d.f f }.A./.|.P.f d.    ",
"      ;  X.X3 XXoXOXi.                P./.L.L.(.A.(.L.(.].P.    ",
"         X+X@XoX`.%.                  P.#X$X$X$XA.A.$X$XL.P.    ",
"+ %X%X&X X X*X=X-X                P.Q.;X:X>X,X].A.}.c.c.Q.f     ",
". : <X1X X2X3X4X4X3.          C.5X6X#X7X8X9X0X~.A.qX            ",
"      ;  XwXeXrXtXyXuXiXpXaXsXdXfXfX8XgXhXc.  jXA.jX            ",
"        kXlXe.#.f.f.zXxXcXvXvXbXnXmXMXP.      C.C.C.            ",
"      ; kX:             3.3.  P.f d.                            ",
"        ; ;                                                     ",
"                                                                "};
