/* XPM */
static char * image_name[] = {
"32 32 239 2",
"  	c #C1C1C1C1C1C1",
". 	c #BBBBBCBCBCBC",
"X 	c #BCBCBEBEBEBE",
"o 	c #A9A9AAAAADAD",
"O 	c #ACACAFAFB1B1",
"+ 	c #9E9EA3A3A6A6",
"@ 	c #ACACB0B0B4B4",
"# 	c #BABABBBBBCBC",
"$ 	c #B9B9B9B9BABA",
"% 	c #B0B0B2B2B3B3",
"& 	c #A1A1A6A6AAAA",
"* 	c #AEAEB3B3B6B6",
"= 	c #A2A2A5A5A7A7",
"- 	c #949496969898",
"; 	c #ABABADADAEAE",
": 	c #99999C9C9F9F",
"> 	c #A6A6ABABAEAE",
", 	c #A6A6AAAAADAD",
"< 	c #929296969999",
"1 	c #96969A9A9C9C",
"2 	c #929293939494",
"3 	c #5B5B5E5E6161",
"4 	c #7C7C80808282",
"5 	c #97979B9B9E9E",
"6 	c #8F8F93939696",
"7 	c #9A9A9E9EA1A1",
"8 	c #98989B9B9D9D",
"9 	c #25257777B0B0",
"0 	c #8D8DAFAFC7C7",
"q 	c #9D9D9D9D9D9D",
"w 	c #575757575757",
"e 	c #1A1A1D1D1F1F",
"r 	c #252529292C2C",
"t 	c #47474C4C4F4F",
"y 	c #AAAAAEAEB1B1",
"u 	c #7B7B7F7F8282",
"i 	c #86868B8B8E8E",
"p 	c #98989D9DA0A0",
"a 	c #909094949797",
"s 	c #AFAFB1B1B1B1",
"d 	c #575779799191",
"f 	c #05057575C4C4",
"g 	c #38389191D0D0",
"h 	c #AFAFB5B5B9B9",
"j 	c #434347474A4A",
"k 	c #000000000000",
"l 	c #080809090A0A",
"z 	c #1F1F23232525",
"x 	c #9D9DA1A1A5A5",
"c 	c #82828D8D9595",
"v 	c #000048487B7B",
"b 	c #01017979CECE",
"n 	c #04047F7FD5D5",
"m 	c #69699898B9B9",
"M 	c #010101010202",
"N 	c #404042424444",
"B 	c #97979C9C9F9F",
"V 	c #B2B2B6B6BABA",
"C 	c #B2B2B8B8BCBC",
"Z 	c #8B8B90909494",
"A 	c #939398989A9A",
"S 	c #101043436767",
"D 	c #00005A5A9A9A",
"F 	c #01017A7ACFCF",
"G 	c #05058585DEDE",
"H 	c #23237B7BB8B8",
"J 	c #AFAFB7B7BDBD",
"K 	c #7A7A7C7C7D7D",
"L 	c #A3A3A8A8ABAB",
"P 	c #ABABB0B0B3B3",
"I 	c #9A9A9D9D9F9F",
"U 	c #5A5A73738383",
"Y 	c #000047477A7A",
"T 	c #00006666AEAE",
"R 	c #07078787E1E1",
"E 	c #00007575C7C7",
"W 	c #111111111111",
"Q 	c #696969696969",
"! 	c #ACACB1B1B5B5",
"~ 	c #88888C8C8F8F",
"^ 	c #9E9EA4A4A7A7",
"/ 	c #94949E9EA6A6",
"( 	c #101048486F6F",
") 	c #000057579595",
"_ 	c #00006A6AB5B5",
"` 	c #00007D7DD5D5",
"' 	c #23237A7AB7B7",
"] 	c #AFAFAFAFAFAF",
"[ 	c #3D3D00000000",
"{ 	c #3B3B11111111",
"} 	c #A1A1A6A6A9A9",
"| 	c #A7A7ABABAFAF",
" .	c #A0A0A6A6AAAA",
"..	c #A3A3A9A9ADAD",
"X.	c #242452527272",
"o.	c #00005D5D9E9E",
"O.	c #00006D6DBABA",
"+.	c #00007B7BD1D1",
"@.	c #00008080D9D9",
"#.	c #00007474C5C5",
"$.	c #7A7AA0A0BABA",
"%.	c #8C8C8C8C8C8C",
"&.	c #E4E400000000",
"*.	c #E6E600000000",
"=.	c #E1E123232323",
"-.	c #DEDE34343434",
";.	c #D1D17A7A7A7A",
":.	c #C7C79D9D9D9D",
">.	c #ABAB97979A9A",
",.	c #8B8B9A9AA4A4",
"<.	c #00003F3F6B6B",
"1.	c #000053538E8E",
"2.	c #00006464AAAA",
"3.	c #00006F6FBDBD",
"4.	c #01018282DDDD",
"5.	c #00008080DADA",
"6.	c #11117171B4B4",
"7.	c #AFAFB8B8BEBE",
"8.	c #E7E700000000",
"9.	c #E8E800000000",
"0.	c #EBEB00000000",
"q.	c #EDED00000000",
"w.	c #EFEF00000000",
"e.	c #F0F000000000",
"r.	c #E9E911111111",
"t.	c #B2B23B3B3C3C",
"y.	c #A9A9A5A5A9A9",
"u.	c #9B9BA0A0A3A3",
"i.	c #9F9FA5A5A8A8",
"p.	c #9F9FA7A7ADAD",
"a.	c #00003A3A6363",
"s.	c #00007272C3C3",
"d.	c #00008181DCDC",
"f.	c #00007E7ED7D7",
"g.	c #57578D8DB2B2",
"h.	c #E9E900000000",
"j.	c #F1F100000000",
"k.	c #D4D400000000",
"l.	c #777700000000",
"z.	c #6E6E11111111",
"x.	c #000050508888",
"c.	c #00005E5EA1A1",
"v.	c #00007272C2C2",
"b.	c #01018181DADA",
"n.	c #D6D657575757",
"m.	c #ECEC00000000",
"M.	c #F4F400000000",
"N.	c #A8A88C8C8C8C",
"B.	c #8A8A9999A3A3",
"V.	c #00003B3B6464",
"C.	c #000056569191",
"Z.	c #00006060A3A3",
"A.	c #00006B6BB6B6",
"S.	c #00007373C4C4",
"D.	c #00007C7CD2D2",
"F.	c #00007C7CD4D4",
"G.	c #DFDF00000000",
"H.	c #D3D300000000",
"J.	c #F3F300000000",
"K.	c #F5F500000000",
"L.	c #F7F700000000",
"P.	c #E4E446464646",
"I.	c #C6C6AFAFAFAF",
"U.	c #3F3F62627B7B",
"Y.	c #000041416E6E",
"T.	c #00004F4F8686",
"R.	c #00008282DEDE",
"E.	c #00007777CBCB",
"W.	c #00006969B2B2",
"Q.	c #9D9DAFAFBCBC",
"!.	c #A2A200000000",
"~.	c #666600000000",
"^.	c #848400000000",
"/.	c #F8F800000000",
"(.	c #E9E934343434",
").	c #404065657F7F",
"_.	c #000046467777",
"`.	c #00006767B0B0",
"'.	c #00007C7CD3D3",
"].	c #9D9DB1B1BFBF",
"[.	c #767623232323",
"{.	c #808069696969",
"}.	c #A1A19D9D9D9D",
"|.	c #F6F600000000",
" X	c #D3D37A7A7A7A",
".X	c #00004A4A7E7E",
"XX	c #00006060A4A4",
"oX	c #00007777CACA",
"OX	c #00008383DFDF",
"+X	c #AFAFB9B9C1C1",
"@X	c #B8B8AFAFAFAF",
"#X	c #91918C8C8C8C",
"$X	c #9D9D11111111",
"%X	c #11115A5A8D8D",
"&X	c #000058589797",
"*X	c #00006363A9A9",
"=X	c #00007070BFBF",
"-X	c #00007B7BD2D2",
";X	c #00008383DEDE",
":X	c #34348F8FCECE",
">X	c #B5B500000000",
",X	c #F2F200000000",
"<X	c #9D9DADADB7B7",
"1X	c #23236F6FA5A5",
"2X	c #00008484E0E0",
"3X	c #00008383E0E0",
"4X	c #11111D1D2525",
"5X	c #232323232323",
"6X	c #575734343434",
"7X	c #DADA00000000",
"8X	c #EEEE00000000",
"9X	c #E6E611111111",
"0X	c #23237C7CBBBB",
"qX	c #23238F8FDBDB",
"wX	c #00003C3C6666",
"eX	c #474723232323",
"rX	c #EAEA00000000",
"tX	c #DCDC34343434",
"yX	c #9D9DB3B3C1C1",
"uX	c #7A7AA9A9C9C9",
"iX	c #393934343434",
"pX	c #727211111111",
"aX	c #DEDE23232323",
"sX	c #E5E500000000",
"dX	c #E0E011111111",
"fX	c #B7B79D9D9D9D",
"gX	c #E3E300000000",
"hX	c #E2E200000000",
"jX	c #A7A79D9D9D9D",
"kX	c #4F4F11111111",
"lX	c #797900000000",
"zX	c #8B8B00000000",
"xX	c #D1D100000000",
"cX	c #E1E100000000",
"vX	c #C3C3AFAFAFAF",
"bX	c #414111111111",
"nX	c #686800000000",
"mX	c #BDBD00000000",
"MX	c #B4B4AFAFAFAF",
"                        . X                                     ",
"                        o O                                     ",
"                        + @ #     $ %                           ",
"                      % & * = $   - ;                           ",
"                      : > * , ; = < 1 $                         ",
"                    2 3 4 @ > 5 6 1 7 8     9 0                 ",
"                q w e r t @ y u i 5 p a s d f g h               ",
"              j k l z j 6 h x 4 6 5 : < c v b n m               ",
"          w k k M N B * V C c Z A 5 : < S D F G H J             ",
"      w k k k k K L P h C I i < 5 7 + U Y T b R E m             ",
"  w W k k k Q   x > ! V y ~ B ^ & L / ( ) _ F G ` ' J           ",
"] W [ { K     $ } | ! V : p x  .& ..X.Y o.O.+.G @.#.$.          ",
"  %.&.*.=.-.;.:.>.y * o < 7 +  .L ,.<.1.2.3.+.4.5.F 6.7.        ",
"    8.9.0.q.w.e.r.t.y.= 5 u.i.& p.a.v D T s.F 4.d.f.s.g.        ",
"    h.0.q.w.j.k.l.z.o p 7 + i.y y <.x.c._ v.+.b.4.5.F _ 7.      ",
"  n.0.m.w.j.M.*.*.N.X , u.+  .B.V.v C.Z.A.S.D.b.4.d.F.v.g.      ",
"  -.m.G.H.J.K.L.P.I.    y +  .U.Y.T.D 2.O.#.D.@.R.d.f.E.W.Q.    ",
"  G.!.~.^.G.K.L./.(.I.  $ ,  .)._.1.o.`.O.E '.5.R.R.5.'.S.].    ",
"  [.z.{.}.}.K.|.L.L. X      X X .XC.XXW.3.oX'.@.R.OXR.f.E.+X    ",
"  N.@X    #X$XM.M.M.M. X      h %X&X*XA.=XE.-X5.R.OX;X5.:XQ %.  ",
"              >X,X,Xj.e.;.      <X1X2.A.s.E.F.5.;X2X3Xc.4Xk 5X] ",
"              6X7X8X8X8Xm.n.9Xn.    m 0XS.E.F.5.;XqXwXk k k W q ",
"              }.eX7Xm.0.rXh.9.tX        yXuXuXuXuX5Xk k k iXq   ",
"                }.pXh.9.9.8.*.aX              w k k k k Q       ",
"                :.8.8.*.*.sX&.dX            5Xk k k W %.        ",
"              fX>XH.sXsX&.gXgXhX        K k k k k j             ",
"              jXeXkXlXzXxXhXhXcXvX  q j k k k k Q               ",
"                  jX{.{.bXnXzXmXvXQ k k k k k                   ",
"                        MXMXMXbXiXk k k k w                     ",
"                              q k k k W K                       ",
"                                j k W ]                         ",
"                                  K                             "};
