/* XPM */
static char * image_name[] = {
"32 32 253 2",
"  	c #C1C1C1C1C1C1",
". 	c #9F9FA0A0A1A1",
"X 	c #3B3B41414747",
"o 	c #4B4B53535858",
"O 	c #75757E7E8585",
"+ 	c #868690909797",
"@ 	c #B4B4B6B6B8B8",
"# 	c #AEAEAFAFAFAF",
"$ 	c #252528282B2B",
"% 	c #16161B1B1E1E",
"& 	c #5C5C65656A6A",
"* 	c #494958586262",
"= 	c #4A4A59596363",
"- 	c #8C8C8C8C8C8C",
"; 	c #000000000000",
": 	c #242424242424",
"> 	c #767677777878",
", 	c #0C0C0F0F1010",
"< 	c #0A0A0C0C0E0E",
"1 	c #60606B6B7272",
"2 	c #656571717979",
"3 	c #636363636464",
"4 	c #060607070808",
"5 	c #494957576161",
"6 	c #4B4B5A5A6464",
"7 	c #B3B3B5B5B7B7",
"8 	c #7A7A48484949",
"9 	c #1B1B0D0D0D0D",
"0 	c #38383E3E4242",
"q 	c #8B8B96969D9D",
"w 	c #38383A3A3B3B",
"e 	c #050505050606",
"r 	c #0D0D11111414",
"t 	c #464651515959",
"y 	c #242432323C3C",
"u 	c #575757575757",
"i 	c #9E9E9E9E9E9E",
"p 	c #B2B29D9D9D9D",
"a 	c #BABA57575757",
"s 	c #B7B723232323",
"d 	c #B5B500000000",
"f 	c #888800000000",
"g 	c #ACAC7A7A7A7A",
"h 	c #545452525353",
"j 	c #35353D3D4242",
"k 	c #383841414848",
"l 	c #26262E2E3434",
"z 	c #42424E4E5656",
"x 	c #474756566060",
"c 	c #3F3F4E4E5858",
"v 	c #3A3A49495353",
"b 	c #191928283333",
"n 	c #B8B846464646",
"m 	c #B6B600000000",
"M 	c #B1B101010101",
"N 	c #B9B923232323",
"B 	c #48483C3C4141",
"V 	c #2C2C35353B3B",
"C 	c #474750505656",
"Z 	c #85859595A0A0",
"A 	c #393945454E4E",
"S 	c #141421212929",
"D 	c #1B1B2C2C3838",
"F 	c #34343B3B4141",
"G 	c #030303030404",
"H 	c #ACAC46464646",
"J 	c #B7B700000000",
"K 	c #B9B900000000",
"L 	c #454511111313",
"P 	c #12121D1D2424",
"I 	c #212128282C2C",
"U 	c #92929D9DA4A4",
"Y 	c #474755556060",
"T 	c #1C1C2E2E3B3B",
"R 	c #06060A0A0C0C",
"E 	c #1C1C1C1C1C1C",
"W 	c #2D2D2D2D2D2D",
"Q 	c #C3C323232323",
"! 	c #C2C269696969",
"~ 	c #9A9A12121212",
"^ 	c #757500000000",
"/ 	c #4D4D23232323",
"( 	c #4D4D00000000",
") 	c #6D6D00000000",
"_ 	c #474755555F5F",
"` 	c #222232323D3D",
"' 	c #1F1F32324040",
"] 	c #212124242727",
"[ 	c #0E0E0D0D0D0D",
"{ 	c #8F8F00000000",
"} 	c #C4C423232323",
"| 	c #C5C500000000",
" .	c #C1C1AFAFAFAF",
"..	c #7E7E00000000",
"X.	c #BABAAFAFAFAF",
"o.	c #B1B1AFAFAFAF",
"O.	c #90908D8D8D8D",
"+.	c #3F3F4D4D5757",
"@.	c #101015151919",
"#.	c #0D0D13131818",
"$.	c #393947475050",
"%.	c #5E5E69697070",
"&.	c #060603030303",
"*.	c #919100000000",
"=.	c #C7C700000000",
"-.	c #C6C611111111",
";.	c #747474747474",
":.	c #2A2A39394444",
">.	c #313141414C4C",
",.	c #393900000000",
"<.	c #222200000000",
"1.	c #1A1A01010101",
"2.	c #AEAE00000000",
"3.	c #C9C900000000",
"4.	c #C8C800000000",
"5.	c #9A9A00000000",
"6.	c #828234343434",
"7.	c #353540404848",
"8.	c #8E8E7A7A7A7A",
"9.	c #7F7F69696969",
"0.	c #656546464646",
"q.	c #676734343434",
"w.	c #CBCB00000000",
"e.	c #9D9D00000000",
"r.	c #7D7D00000000",
"t.	c #4A4A00000000",
"y.	c #575734343434",
"u.	c #000000000101",
"i.	c #030302020202",
"p.	c #09090D0D1010",
"a.	c #171726263030",
"s.	c #CBCB8C8C8C8C",
"d.	c #313100000000",
"f.	c #A5A59D9D9D9D",
"g.	c #1A1A1B1B1D1D",
"h.	c #141419191B1B",
"j.	c #8F8F29292B2B",
"k.	c #DEDE23232323",
"l.	c #E4E400000000",
"z.	c #D3D369696969",
"x.	c #6E6E69696969",
"c.	c #434304040404",
"v.	c #D6D605050505",
"b.	c #E9E900000000",
"n.	c #E8E800000000",
"m.	c #E4E411111111",
"M.	c #080808080808",
"N.	c #0B0B0B0B0B0B",
"B.	c #1A1A19191919",
"V.	c #8F8F19191919",
"C.	c #ECEC00000000",
"Z.	c #EDED00000000",
"A.	c #E0E034343434",
"S.	c #C5C5AFAFAFAF",
"D.	c #D3D357575757",
"F.	c #E5E500000000",
"G.	c #D1D100000000",
"H.	c #0C0C0C0C0C0C",
"J.	c #21211B1B1B1B",
"K.	c #141414141414",
"L.	c #626200000000",
"P.	c #818100000000",
"I.	c #909057575757",
"U.	c #999969696969",
"Y.	c #AAAA11111111",
"T.	c #E6E600000000",
"R.	c #E7E700000000",
"E.	c #222222222222",
"W.	c #777720202020",
"Q.	c #3C3C29292929",
"!.	c #A3A390909090",
"~.	c #95958C8C8C8C",
"^.	c #767669696969",
"/.	c #D9D900000000",
"(.	c #737300000000",
").	c #7A7A00000000",
"_.	c #404040404040",
"`.	c #13130F0F0F0F",
"'.	c #8F8F8D8D8D8D",
"].	c #6B6B6B6B6B6B",
"[.	c #353508080808",
"{.	c #585828282828",
"}.	c #5E5E01010101",
"|.	c #DDDD46464646",
" X	c #D3D37B7B7B7B",
".X	c #858500000000",
"XX	c #717157575757",
"oX	c #686857575757",
"OX	c #DBDB57575757",
"+X	c #3C3C3C3C3C3C",
"@X	c #E5E534343434",
"#X	c #F1F100000000",
"$X	c #F0F000000000",
"%X	c #A0A069696969",
"&X	c #3F3F37373737",
"*X	c #CECE8C8C8C8C",
"=X	c #131312121212",
"-X	c #B1B1B1B1B1B1",
";X	c #9B9B9B9B9B9B",
":X	c #848484848484",
">X	c #B5B557575757",
",X	c #EAEA23232323",
"<X	c #E7E723232323",
"1X	c #EAEA00000000",
"2X	c #898989898989",
"3X	c #919161616161",
"4X	c #CDCD8C8C8C8C",
"5X	c #C3C300000000",
"6X	c #141407070707",
"7X	c #1E1E00000000",
"8X	c #F2F200000000",
"9X	c #DCDC00000000",
"0X	c #EAEA11111111",
"qX	c #C9C99D9D9D9D",
"wX	c #EFEF00000000",
"eX	c #28281E1E1E1E",
"rX	c #2A2A2A2A2A2A",
"tX	c #919191919191",
"yX	c #DBDB11111111",
"uX	c #464600000000",
"iX	c #D5D500000000",
"pX	c #EBEB00000000",
"aX	c #A1A19D9D9D9D",
"sX	c #A9A900000000",
"dX	c #252505050505",
"fX	c #818181818181",
"gX	c #F3F300000000",
"hX	c #A4A446464646",
"jX	c #82827A7A7A7A",
"kX	c #808011111111",
"lX	c #5B5B23232323",
"zX	c #707034343434",
"xX	c #8C8C69696969",
"cX	c #AAAA9D9D9D9D",
"vX	c #A1A1A1A1A1A1",
"bX	c #F4F400000000",
"nX	c #9C9C7A7A7A7A",
"mX	c #EEEE00000000",
"MX	c #A2A200000000",
"NX	c #6B6B23232323",
"BX	c #5C5C57575757",
"VX	c #B7B7AFAFAFAF",
"CX	c #1F1F11111111",
"ZX	c #666600000000",
"AX	c #818157575757",
"SX	c #3D3D00000000",
"DX	c #707046464646",
"FX	c #505046464646",
"GX	c #202011111111",
"HX	c #111100000000",
"JX	c #131300000000",
"KX	c #262600000000",
"LX	c #2A2A00000000",
"                                                                ",
"                        . X o O + @                             ",
"              # #       $ % & * = +                             ",
"            - ; : #   > , < 1 * = 2                             ",
"            > ; ; + # 3 4 , 5 5 = 6 7                           ",
"              8 9 0 q w e r t 5 y = u u u > - i                 ",
"      p a s d f g h j k l z x 5 c v b 4 ; ; ; u                 ",
"  n d d d m m M N B V C Z * 5 5 A S D F G G ; >                 ",
"  H d m m J K K L P I U Y Y x 5 v S T R E W ; -     Q !         ",
"  p ~ J ^ / ( ) < r j _ _ _ * A ` ' ' ] [ : ; { } } | | |  .    ",
"      ..X.  o.O.4 4 F _ _ +.x @.#.b $.%.&.; ; *.=.=.=.=.=.-. .  ",
"    o.p       ;.e e V _ c ` x R P D :.>.,.<.1.2.3.3.3.3.4.5.6.  ",
"              > G G V _ +.c 7.R S D P t 8.9.0.q.w.w.e.r.t.y.8.  ",
"              i u.i.l _ _ _ 7.p.a.D b #   s.  H ..d.0.9.f.      ",
"                g.i.h.z _ _ % r D P j.k.k.l.z.9.9.              ",
"                  x.: X 7.h.; u.u.; c.v.b.n.m.s.                ",
"                      M.G e ; ; N.; B.V.C.Z.C.A.S.              ",
"      s.D.k.k.F.G.p h M.H.H.e M.W J.K.W 2.L.t.P.I.              ",
"  U.Y.l.l.F.T.R.s i M.M.K.G e M.E.W.1.E.Q.!.f.~.f.              ",
"  ^.e.F.T./.(.).8._.M.`.'.].[.M.B.{.}.N.E.;.      |. XS.        ",
"    T.R.R..XXXoXO.M.[ oX  OXM M.B.Q.I.3 H.+X    @X#X#X$X XS.    ",
"S.T.R.n.b.%X    W M.&X  *X#X#XM.=Xw -X  ;X:X>X,X#X#X#X#X#X<XS.  ",
"  R.n.b.1X    2XM.J.3X4X$X#X5X6X=Xw -X      7Xd...8X#X#X$X9X0XqX",
"s.n.b.b.1XqX    ;X-XU.wX$X8X~ eXM.rXtX      o.g yX8X8X#XJ 7XuX6.",
"S.iXb.1XpX0Xz.      aXsXe.) ( dXM.E.fX      qX,XgXgX8X8XhX~.jXjX",
"  kX1X1XpXC.Z.|.4XS.  lXzXxXcX'.W rXvX   X@XbXgXgXgX8X| nX      ",
"  x..XiXpXC.Z.Z.mX0X|.OX X*X X*X X X X,XgXgXgXgXgXgXMXNX        ",
"    BXt.2.C.Z.Z.mXwXwX#X8XgXbXgX8X8XgXgXgXgXgXgXG.) zXVX        ",
"      x.CX}.M /.mXmXwX#XgXbXgX8X#X8X8X8X8X8XsXZXuXAX            ",
"        o.BXCX<.( ^ M =.=.9X9Xw.w.K sX5.ZX,.SXDXVX              ",
"            aXjXFXGXHXHXHXJX1.7X<.KXLXy.0.8.cX                  ",
"                    o.aXO.jXjXjXaXf.                            "};
