/* XPM */
static char * newtonGroup_xpm[] = {
"15 15 2 1",
" 	c #FFFFFFFFFFFF",
".	c #000000000000",
"    .......    ",
"  ...     ...  ",
" ...        .. ",
".....  ..    ..",
".  ... ..     .",
".   .....     .",
".    ....     .",
".  ......     .",
".  .........  .",
".       ...   .",
"..      .... ..",
" .      . .... ",
" ..        ... ",
"  ...     ...  ",
"    .......    "};
