/* XPM */
static char * image_name[] = {
"32 32 226 2",
"  	c #C1C1C1C1C1C1",
". 	c #8C8CAEAEC5C5",
"X 	c #5757A4A4D9D9",
"o 	c #4646A6A6E8E8",
"O 	c #4646ABABE8E8",
"+ 	c #8C8CB9B9D1D1",
"@ 	c #8C8CA8A8BBBB",
"# 	c #23238383C6C6",
"$ 	c #00008686E4E4",
"% 	c #00009292F9F9",
"& 	c #00009A9AFFFF",
"* 	c #0000A2A2FFFF",
"= 	c #0000AAAAFFFF",
"- 	c #3434B1B1EEEE",
"; 	c #8C8CA2A2B1B1",
": 	c #00006767B0B0",
"> 	c #00007878CDCD",
", 	c #00008787E6E6",
"< 	c #00009090F6F6",
"1 	c #00009C9CFFFF",
"2 	c #0202A6A6FFFF",
"3 	c #0707B0B0FFFF",
"4 	c #0606B4B4FFFF",
"5 	c #0202B1B1FFFF",
"6 	c #2323AEAEF3F3",
"7 	c #8C8C9C9CA8A8",
"8 	c #000052528C8C",
"9 	c #00006868B0B0",
"0 	c #00007575C7C7",
"q 	c #00008484E0E0",
"w 	c #00008D8DEFEF",
"e 	c #01019696FCFC",
"r 	c #3737DDDDFFFF",
"t 	c #3D3DE3E3FFFF",
"y 	c #1B1BC8C8FFFF",
"u 	c #AFAFBDBDC6C6",
"i 	c #575778788F8F",
"p 	c #000050508888",
"a 	c #00006262A7A7",
"s 	c #00007070BEBE",
"d 	c #00007D7DD5D5",
"f 	c #00008888E7E7",
"g 	c #00009191F6F6",
"h 	c #1212ACACFEFE",
"j 	c #4747E2E2FFFF",
"k 	c #6B6BFCFCFFFF",
"l 	c #0808B1B1FFFF",
"z 	c #4646AAAAE8E8",
"x 	c #AFAFB2B2B5B5",
"c 	c #000032325555",
"v 	c #00004B4B8080",
"b 	c #00005A5A9A9A",
"n 	c #00006A6AB5B5",
"m 	c #00008080DADA",
"M 	c #04049595F8F8",
"N 	c #1414ACACFEFE",
"B 	c #2D2DC9C9FFFF",
"V 	c #2525C5C5FFFF",
"C 	c #0808AAAAFFFF",
"Z 	c #2323A2A2F3F3",
"A 	c #9D9DA4A4A9A9",
"S 	c #000030305151",
"D 	c #000044447474",
"F 	c #000053538E8E",
"G 	c #00006161A5A5",
"H 	c #00006B6BB6B6",
"J 	c #00008080D9D9",
"K 	c #00008686E5E5",
"L 	c #01019090F4F4",
"P 	c #02029595FBFB",
"I 	c #05059C9CFDFD",
"U 	c #9D9DB6B6C7C7",
"Y 	c #7A7A88889292",
"T 	c #00002D2D4E4E",
"R 	c #000037375E5E",
"E 	c #000046467878",
"W 	c #000056569393",
"Q 	c #00006C6CB8B8",
"! 	c #00007373C5C5",
"~ 	c #00007C7CD2D2",
"^ 	c #00008282DEDE",
"/ 	c #00008E8EF2F2",
"( 	c #00008A8AEBEB",
") 	c #6969A1A1C9C9",
"_ 	c #8C8C96969E9E",
"` 	c #00002B2B4949",
"' 	c #000035355A5A",
"] 	c #00003D3D6868",
"[ 	c #000047477979",
"{ 	c #000054549090",
"} 	c #00006868B1B1",
"| 	c #00007272C2C2",
" .	c #00007878CCCC",
"..	c #00007C7CD3D3",
"X.	c #00008181DCDC",
"o.	c #00007E7ED6D6",
"O.	c #69699D9DC1C1",
"+.	c #9D9DA4A4A8A8",
"@.	c #111138385353",
"#.	c #000038385F5F",
"$.	c #00005B5B9C9C",
"%.	c #00006464ABAB",
"&.	c #00006A6AB4B4",
"*.	c #00007070BFBF",
"=.	c #00007474C5C5",
"-.	c #7A7A9D9DB5B5",
";.	c #343450506464",
":.	c #00002F2F5050",
">.	c #00003A3A6363",
",.	c #000045457676",
"<.	c #00004E4E8686",
"1.	c #000055559191",
"2.	c #00005D5D9E9E",
"3.	c #00006262A6A6",
"4.	c #00006565ACAC",
"5.	c #00006464A7A7",
"6.	c #8C8C9898A0A0",
"7.	c #111139395555",
"8.	c #000031315353",
"9.	c #000036365C5C",
"0.	c #000039396262",
"q.	c #00003B3B6565",
"w.	c #000040406D6D",
"e.	c #000043437272",
"r.	c #000049497D7D",
"t.	c #000050508989",
"y.	c #000052528888",
"u.	c #000060608C8C",
"i.	c #000057578181",
"p.	c #00002A2A4747",
"a.	c #000030305252",
"s.	c #000036365B5B",
"d.	c #00003A3A6464",
"f.	c #000047476969",
"g.	c #00004F4F6666",
"h.	c #0F0F69695757",
"j.	c #2B2B8C8C2B2B",
"k.	c #AFAFBABAAFAF",
"l.	c #8C8C97979F9F",
"z.	c #000032325656",
"x.	c #000034345A5A",
"c.	c #000035355B5B",
"v.	c #000031315454",
"b.	c #000036364444",
"n.	c #00004F4F0000",
"m.	c #2B2B95952B2B",
"M.	c #2B2B8A8A2B2B",
"N.	c #464664647979",
"B.	c #00002C2C4B4B",
"V.	c #69697B7B8888",
"C.	c #464659594646",
"Z.	c #000028280000",
"A.	c #000052520000",
"S.	c #282893932828",
"D.	c #57576A6A5757",
"F.	c #00002D2D0000",
"G.	c #191983831919",
"H.	c #404096964040",
"J.	c #AFAFB2B2AFAF",
"K.	c #000031310000",
"L.	c #010151510101",
"P.	c #19198D8D1919",
"I.	c #343450503434",
"U.	c #343478783434",
"Y.	c #00002B2B0000",
"T.	c #010152520101",
"R.	c #181885851818",
"E.	c #0C0C69690C0C",
"W.	c #000045450000",
"Q.	c #000066660000",
"!.	c #9D9DAFAF9D9D",
"~.	c #46465C5C4646",
"^.	c #00002F2F0000",
"/.	c #000058580000",
"(.	c #10105A5A1010",
").	c #00005C5C0000",
"_.	c #000063630000",
"`.	c #8C8C95958C8C",
"'.	c #000037370000",
"].	c #000049490000",
"[.	c #000060600000",
"{.	c #57578E8E5757",
"}.	c #232342422323",
"|.	c #00002C2C0000",
" X	c #00003B3B0000",
".X	c #000047470000",
"XX	c #000065650000",
"oX	c #AFAFB9B9AFAF",
"OX	c #7A7A87877A7A",
"+X	c #11112F2F1111",
"@X	c #000022220000",
"#X	c #000024240000",
"$X	c #00002A2A0000",
"%X	c #000036360000",
"&X	c #00004C4C0000",
"*X	c #00005E5E0000",
"=X	c #8C8CA8A88C8C",
"-X	c #696975756969",
";X	c #111130301111",
":X	c #000025250000",
">X	c #000032320000",
",X	c #00004B4B0000",
"<X	c #9D9DA2A29D9D",
"1X	c #11113A3A1111",
"2X	c #111161611111",
"3X	c #6E6EA0A06E6E",
"4X	c #11113C3C1111",
"5X	c #020260600202",
"6X	c #111184841111",
"7X	c #39398C8C3939",
"8X	c #7A7AA4A47A7A",
"9X	c #02025F5F0202",
"0X	c #69699D9D6969",
"qX	c #8C8C94948C8C",
"wX	c #000046460000",
"eX	c #00005A5A0000",
"rX	c #A5A5BABAA5A5",
"tX	c #000026260000",
"yX	c #00005F5F0000",
"uX	c #111179791111",
"iX	c #9D9DB2B29D9D",
"pX	c #7A7A84847A7A",
"aX	c #111136361111",
"sX	c #00003A3A0000",
"dX	c #8C8C93938C8C",
"fX	c #11114E4E1111",
"          . X o O O +                                           ",
"      @ # $ % & * = = - +                                       ",
"    ; : > , < 1 2 3 4 5 6 +                                     ",
"  7 8 9 0 q w e e r t y 5 6 u                                   ",
"  i p a s d f g h j k r l 2 z                                   ",
"x c v b n 0 m f M N B V C * Z u                                 ",
"A S D F G H 0 J K L P I & & P U                                 ",
"Y T R E W a Q ! ~ ^ f w / / ( )                                 ",
"_ ` ' ] [ { G } |  ...m X.X.o.O.                                ",
"+.@.c #.] E 8 $.%.&.*.! =.| H -.                                ",
"  ;.:.' >.] ,.<.1.2.3.4.4.5.b                                   ",
"  6.7.8.9.0.q.w.e.r.t.y.u.i.i.                                  ",
"    Y p.a.s.#.0.d.] d.f.g.h.j.k.                                ",
"      l.@.:.z.x.' 9.c.v.b.n.m.M.k.                              ",
"        A N.7.B.T T ;.V.C.Z.A.S.S.k.                            ",
"              x A         D.F.n.G.H.k.    J.                    ",
"                            D.K.L.P.P.k.I.U.                    ",
"                              I.Y.T.R.E.W.Q.!.                  ",
"                                ~.^./.(.)._._.                  ",
"                                `.^.'.].A.[.{.                  ",
"                                }.Z.|. X.X/.XXoX                ",
"                              OX+X@X#X$X%X&X*X=X                ",
"                                  -XC.;X:X>X,X{.                ",
"                                      <X`.I.1X2X3XoX            ",
"                                            J.4X5X6X7X8XoX      ",
"                                              ~. X9XS.P.P.0X    ",
"                                              qXZ.wX).j.j.3X    ",
"                                                +XK..XeXG.rX    ",
"                                                C.tX%X,XyXuXiX  ",
"                                                pX@X@XaXsX[.[.  ",
"                                                  J.  dXaXfX    ",
"                                                                "};
