/* XPM */
static char * newtonIcon_xpm[] = {
"11 11 2 1",
" 	c #000000000000",
".	c #FFFFFFFFFFFF",
"  .........",
"   ..  ....",
".   .  ....",
"..     ....",
"...    ....",
".      ....",
".         .",
"......   ..",
"......    .",
"...... .   ",
".........  "};
