/* XPM */
static char * noshadow_xpm[] = {
"18 18 5 1",
" 	c #DADADADAAAAA",
".	c #B6B6B6B6AAAA",
"X	c #DADADADAFFFF",
"o	c #FFFFFFFFFFFF",
"O	c #000000000000",
" . ..X  X.X . . . ",
".X. XX.. Xo.X X.XX",
" .X.X.X X.XX . o. ",
".X. .X. .X. .X. .X",
"X.X.OOOOX.X.X.X.X.",
". .XOXXXOOOX.O.X. ",
"X.X.XOX o XOO.X.X.",
".X. .XOOOOOXOO. .X",
"X.X.X.XOOOo OOX.X.",
". .X. .XOXXXOXOX. ",
"X.X.X.X.XOXOO O.X.",
".X. .X. OXOOOX O.X",
"X.X.X.XOX.XOO oOX.",
". .X. OX. .X.OOO. ",
"X.X.XOX.X.X.X.X.X.",
".X. OO. .X. .X. .X",
"X.X.X.X.X.X.X.X.X.",
". .X. .X. .X. .X. "};
