/* XPM */
static char * toggleOnManip_xpm[] = {
"13 13 2 1 6 6",
" 	c #FFFFFFFFFFFF",
".	c #000000000000",
"    .....    ",
"  ...   ...  ",
" ..       .. ",
" .   ...   . ",
"..  .....  ..",
".  .......  .",
".  .......  .",
"..  .....  ..",
" .   ...   . ",
" ..       .. ",
"  ...   ...  ",
"    .....    ",
"             "};
