/* XPM */
static char * openComponentUp_xpm[] = {
"25 8 3 1",
".	s bg c grey",
"X	c black",
" 	c white",
".........................",
".......... X. X. X. X. X.",
"....X.... X. X. X. X. X..",
"...XXX...X. X. X. X. X...",
"..XXXXX... X. X. X. X. X.",
".XXXXXXX. X. X. X. X. X..",
".........X. X. X. X. X...",
"........................."};
