/* XPM */
static char * pick_xpm[] = {
"16 16 2 1",
" 	s bg	c #FFFFFFFFFFFF",
".	s c1	c #000000000000",
"                ",
"                ",
"  .....         ",
"  .   .         ",
"  . . .         ",
"  .  ...        ",
"  ........      ",
"     .......    ",
"      .....     ",
"      .....     ",
"       .....    ",
"       .  ...   ",
"           ...  ",
"            ..  ",
"                ",
"                "};
