/* XPM */
static char * pinMultilister2_xpm[] = {
"16 16 40 1",
" 	s bg	c #FFFF0000FFFF",
".	s c1	c #FFFFFFFFFFFF",
"X	s c2	c #4B4B64644A4A",
"o	s c3	c #000000000000",
"O	s c4	c #87878C8C8787",
"+	s c5	c #1E1E23231F1F",
"@	s c6	c #000001010000",
"#	s c7	c #292936362B2B",
"$	s c8	c #000002020000",
"%	s c9	c #000008080000",
"&	s c10	c #00000F0F0000",
"*	s c11	c #00000A0A0000",
"=	s c12	c #101038381111",
"-	s c13	c #000021210000",
";	s c14	c #00001B1B0000",
":	s c15	c #0A0A25250B0B",
"?	s c16	c #00002D2D0000",
">	s c17	c #000026260000",
",	s c18	c #000023230000",
"<	s c19	c #000044440000",
"1	s c20	c #000045450000",
"2	s c21	c #00000C0C0000",
"3	s c22	c #0A0A3E3E0B0B",
"4	s c23	c #000027270000",
"5	s c24	c #060648480606",
"6	s c25	c #9A9ADADA9A9A",
"7	s c26	c #252566662525",
"8	s c27	c #000030300000",
"9	s c28	c #000004040000",
"0	s c29	c #000009090000",
"q	s c30	c #000018180000",
"w	s c31	c #000010100000",
"e	s c32	c #E1E1E7E7E0E0",
"r	s c33	c #DFDFE6E6DEDE",
"t	s c34	c #737394947373",
"y	s c35	c #4A4A67674A4A",
"u	s c36	c #242449492424",
"i	s c37	c #7F7F9A9A7F7F",
"p	s c38	c #9D9DACAC9D9D",
"a	s c39	c #747487877474",
"                ",
"                ",
"                ",
"                ",
"     ......     ",
"    .Xooooo.    ",
"    .O+oo@#.    ",
"     ..$%..     ",
"      .oo.      ",
"      .&*.      ",
"     .=-;:.     ",
"     .o?>o.     ",
"    .o,<123.    ",
"   .o456789o.   ",
"   .oo0?qw@o.   ",
"   .ertyuipa.   "};
