/* XPM */
static char * pinMultilister_xpm[] = {
"16 16 49 1",
" 	s bg	c #FFFF0000FFFF",
".	s c1	c #FFFFFFFFFFFF",
"X	s c2	c #4C4C85854C4C",
"o	s c3	c #8989BFBF8989",
"O	s c4	c #000000000000",
"+	s c5	c #00000C0C0000",
"@	s c6	c #9898CBCB9797",
"#	s c7	c #666664646767",
"$	s c8	c #00004B4B0000",
"%	s c9	c #000043430000",
"&	s c10	c #000003030000",
"*	s c11	c #545497975656",
"=	s c12	c #00003E3E0000",
"-	s c13	c #1C1CC1C11C1C",
";	s c14	c #000063630000",
":	s c15	c #00002A2A0000",
"?	s c16	c #000071710000",
">	s c17	c #000072720000",
",	s c18	c #000020200000",
"<	s c19	c #03034D4D0404",
"1	s c20	c #00005A5A0000",
"2	s c21	c #1818A3A31818",
"3	s c22	c #00000F0F0000",
"4	s c23	c #525299995353",
"5	s c24	c #00006E6E0000",
"6	s c25	c #000058580000",
"7	s c26	c #000047470000",
"8	s c27	c #00008A8A0000",
"9	s c28	c #09095D5D0B0B",
"0	s c29	c #000064640000",
"q	s c30	c #05059D9D0505",
"w	s c31	c #3737DFDF3737",
"e	s c32	c #0505CECE0505",
"r	s c33	c #000029290000",
"t	s c34	c #00004A4A0000",
"y	s c35	c #000093930000",
"u	s c36	c #8282FFFF8282",
"i	s c37	c #0B0B98980B0B",
"p	s c38	c #000049490000",
"a	s c39	c #2A2A55552A2A",
"s	s c40	c #000055550000",
"d	s c41	c #00006F6F0000",
"f	s c42	c #00005B5B0000",
"g	s c43	c #272782822828",
"h	s c44	c #000032320000",
"j	s c45	c #00002C2C0000",
"k	s c46	c #00001B1B0000",
"l	s c47	c #323262623333",
"z	s c48	c #545475755353",
"        .Xo..   ",
"        .OO+@.  ",
"        .#$%&*. ",
"        .=-;OO. ",
"       .:?>,..  ",
"    ...<123.    ",
"   .456786O.    ",
"  .9&0qwer.     ",
"   ..tyuip.     ",
"    .Oasdfg.    ",
"    .OOOhjk.    ",
"    .O...lz.    ",
"   .OO.  ..     ",
"   .O.          ",
"  .O.           ",
"   .            "};
