/* XPM */
static char * pivotIcon_xpm[] = {
/* play pixmap
 * width height ncolors chars_per_pixel */
"7 6 2 1 3 3",
" 	s c1	m white	c white",
".	s c0	m black	c black",
/* pixels */
"       ",
"   .   ",
"  ...  ",
" ..... ",
"  ...  ",
"   .   ",
"       "};
