/* XPM */
static char * image_name[] = {
"32 32 228 2",
"  	c #C1C1C1C1C1C1",
". 	c #575757575757",
"X 	c #232323232323",
"o 	c #8C8C8C8C8C8C",
"O 	c #111111111111",
"+ 	c #0C0C0C0C1919",
"@ 	c #8E8E93939797",
"# 	c #9D9D9D9DB2B2",
"$ 	c #797979799E9E",
"% 	c #676767679898",
"& 	c #686868689A9A",
"* 	c #676767679696",
"= 	c #555555559090",
"- 	c #444444448A8A",
"; 	c #565656569595",
": 	c #20201F1F3131",
"> 	c #4F4F4F4F8B8B",
", 	c #050541418E8E",
"< 	c #09095D5D9E9E",
"1 	c #00006A6AB6B6",
"2 	c #00006B6BB8B8",
"3 	c #00006B6BB7B7",
"4 	c #050548489D9D",
"5 	c #0C0C0C0C6060",
"6 	c #757575758080",
"7 	c #252525252525",
"8 	c #1D1D17172323",
"9 	c #9B9B9B9B9F9F",
"0 	c #9D9D9D9D9D9D",
"q 	c #3E3E3E3E8484",
"w 	c #03035656A5A5",
"e 	c #00006F6FBEBE",
"r 	c #00006F6FBDBD",
"t 	c #00007070BEBE",
"y 	c #0F0F0F0F7777",
"u 	c #646464648282",
"i 	c #AEAEAEAEAFAF",
"p 	c #000000000000",
"a 	c #696969696969",
"s 	c #040409091414",
"d 	c #757575757E7E",
"f 	c #686868689F9F",
"g 	c #080829297878",
"h 	c #00007070BFBF",
"j 	c #05054C4CA2A2",
"k 	c #202020207979",
"l 	c #05050F0F1A1A",
"z 	c #010106060A0A",
"x 	c #15151F1F2828",
"c 	c #7B7B7B7B7D7D",
"v 	c #111125258C8C",
"b 	c #00006F6FBCBC",
"n 	c #01017070BEBE",
"m 	c #01017070BFBF",
"M 	c #02027171BEBE",
"N 	c #0C0C25258585",
"B 	c #676767679393",
"V 	c #010101010101",
"C 	c #040404040B0B",
"Z 	c #585858585858",
"A 	c #0E0E38388D8D",
"S 	c #00006D6DBABA",
"D 	c #01016E6EBABA",
"F 	c #01016E6EBBBB",
"G 	c #02026F6FBBBB",
"H 	c #03037070BDBD",
"J 	c #05057272BFBF",
"K 	c #06067373C0C0",
"L 	c #07076969B7B7",
"P 	c #101010108080",
"I 	c #020202021010",
"U 	c #030303030303",
"Y 	c #6B6B6B6B7272",
"T 	c #04045959A2A2",
"R 	c #01016D6DB9B9",
"E 	c #02026E6EBABA",
"W 	c #05057171BCBC",
"Q 	c #07077272BEBE",
"! 	c #08087575C0C0",
"~ 	c #0A0A7676C3C3",
"^ 	c #0B0B5D5DAEAE",
"/ 	c #2D2D2D2D9292",
"( 	c #070716162121",
") 	c #49494B4B4E4E",
"_ 	c #010101010B0B",
"` 	c #0A0A0E0E1010",
"' 	c #101032324C4C",
"] 	c #04046F6FBBBB",
"[ 	c #02026E6EB9B9",
"{ 	c #03036F6FBABA",
"} 	c #04047070BBBB",
"| 	c #0A0A7676C2C2",
" .	c #0C0C7878C4C4",
"..	c #14142C2C8D8D",
"X.	c #020209090F0F",
"o.	c #0E0E18183636",
"O.	c #08084A4A8484",
"+.	c #08087474BFBF",
"@.	c #0A0A7575C0C0",
"#.	c #0C0C7777C3C3",
"$.	c #0E0E7979C5C5",
"%.	c #232323239797",
"&.	c #535353538181",
"*.	c #1F1F2B2B9E9E",
"=.	c #02026F6FBDBD",
"-.	c #0E0E6C6CBABA",
";.	c #0E0E1B1B8484",
":.	c #898989899D9D",
">.	c #01016F6FBCBC",
",.	c #06067474C1C1",
"<.	c #09097676C3C3",
"1.	c #0B0B7878C5C5",
"2.	c #0D0D5151A5A5",
"3.	c #43434343A6A6",
"4.	c #9D9D9D9DB4B4",
"5.	c #11111B1B7B7B",
"6.	c #01016363AFAF",
"7.	c #02027272C1C1",
"8.	c #03037171BFBF",
"9.	c #05057272C0C0",
"0.	c #454545458383",
"q.	c #242424248888",
"w.	c #060645459595",
"e.	c #00007171C1C1",
"r.	c #DBDB0A0A1111",
"t.	c #C5C514142222",
"y.	c #999929294646",
"u.	c #01017272C1C1",
"i.	c #03037373C2C2",
"p.	c #06067676C4C4",
"a.	c #09096A6AB9B9",
"s.	c #0A0A23237979",
"d.	c #00007373C5C5",
"f.	c #F0F000000000",
"g.	c #676706060909",
"h.	c #08086767AFAF",
"j.	c #01017373C3C3",
"k.	c #02027474C3C3",
"l.	c #03037474C4C4",
"z.	c #08084F4FA7A7",
"x.	c #131313137C7C",
"c.	c #AEAEAEAEB2B2",
"v.	c #8C8C8C8CAEAE",
"b.	c #0C0C21218181",
"n.	c #02025B5BA5A5",
"m.	c #575749497C7C",
"M.	c #929202020404",
"N.	c #484806060A0A",
"B.	c #09096868B0B0",
"V.	c #00007373C3C3",
"C.	c #0C0C28288A8A",
"Z.	c #323232327C7C",
"A.	c #0E0E0E0E6E6E",
"S.	c #01016666B7B7",
"D.	c #161641416F6F",
"F.	c #333305050909",
"G.	c #6B6B04040606",
"H.	c #A7A702020303",
"J.	c #212147477979",
"K.	c #01016666B9B9",
"L.	c #535353537D7D",
"P.	c #68686868A1A1",
"I.	c #0D0D0D0D6969",
"U.	c #00007272C3C3",
"Y.	c #202031315353",
"T.	c #252526264141",
"R.	c #393905050909",
"E.	c #3B3B1B1B2F2F",
"W.	c #07077272C2C2",
"Q.	c #0A0A27278383",
"!.	c #0E0E0E0E6F6F",
"~.	c #212121218080",
"^.	c #07072D2D7979",
"/.	c #00007272C1C1",
"(.	c #00007272C2C2",
").	c #05057272C2C2",
"_.	c #09096767B0B0",
"`.	c #131351518B8B",
"'.	c #101010107C7C",
"].	c #545454548383",
"[.	c #333333338888",
"{.	c #0C0C0C0C6363",
"}.	c #04044E4E9D9D",
"|.	c #05057171C0C0",
" X	c #01017171C1C1",
".X	c #080841419F9F",
"XX	c #0E0E0E0E7171",
"oX	c #AEAEAEAEB4B4",
"OX	c #9C9C9C9CA8A8",
"+X	c #101010107D7D",
"@X	c #0C0C0C0C5D5D",
"#X	c #00006E6EBCBC",
"$X	c #00007070C0C0",
"%X	c #00007171C0C0",
"&X	c #646464647E7E",
"*X	c #1D1D1D1D5E5E",
"=X	c #0A0A33339595",
"-X	c #06064B4BA5A5",
";X	c #04045656ABAB",
":X	c #00006E6EBBBB",
">X	c #01016262B2B2",
",X	c #0D0D1B1B8080",
"<X	c #0D0D0D0D6565",
"1X	c #9B9B9B9BA4A4",
"2X	c #3D3D3D3D5757",
"3X	c #1A1A1A1A4C4C",
"4X	c #0B0B0B0B5858",
"5X	c #0E0E0E0E6C6C",
"6X	c #04045656ACAC",
"7X	c #0B0B19197373",
"8X	c #0F0F0F0F7373",
"9X	c #AEAEAEAEB0B0",
"0X	c #636363637575",
"qX	c #3F3F3F3F6666",
"wX	c #1C1C1C1C5757",
"eX	c #0C0C0C0C5F5F",
"rX	c #0F0F0F0F7979",
"tX	c #08083E3E9D9D",
"yX	c #2F2F2F2F6B6B",
"uX	c #9A9A9A9A9D9D",
"iX	c #888888888E8E",
"pX	c #0C0C27278C8C",
"aX	c #080839399595",
"sX	c #636363637878",
"dX	c #080808084545",
"fX	c #0C0C19197676",
"gX	c #0C0C22228585",
"hX	c #626262627070",
"                                                                ",
"                                                                ",
"                                                                ",
"              . X o                                             ",
"              O + @               # $ % & * = = = = - - - ; *   ",
"              O : :             > , < 1 1 1 1 2 2 2 3 1 4 5 6   ",
"      7 . o   X 8 9 0 X o     q w e e r e t r t r e t e y u     ",
"    i 7 p O a p + X p s d   f g e t t t t h h h h h h j k       ",
"        . X p p l z x c   # v b b r r r n t n n m M M N B       ",
"          0 p p V C Z i   $ A S D F G G H H M J K K L P 6       ",
"        . p p I z O U 7 Y k T R R E G G W W Q K ! ~ ^ /         ",
"    0 X p ( ) X _ 0 7 V ` ' ] R [ [ { } W Q Q ! |  .....        ",
"      X X.o   7 p     c o.O.E R [ [ { } W Q +.@.#.$.%.&.        ",
"      i 0     X p     # *.=.D D G G H W J Q ! |  .-.;.:.        ",
"              c a       A M >.r >.H M M J K ,.<.1.2.3.          ",
"                    4.5.6.7.t m m M M 8.9.,.,.<.1...0.          ",
"                    q.w.e.r.r.t.y.y.u.7.i.i.p.p.a.a.u           ",
"                  f s.d.y.f.f.f.f.g.h.u.j.i.k.l.z.x.c.          ",
"                v.b.n.m.f.f.f.f.M.N.B.V.V.j.j.j.C.Z.            ",
"              v.A.S.V.D.F.G.M.H.N.J.i.V.V.V.V.K.P L.            ",
"            P.I.K.U.U.< Y.T.F.R.E.W.V.V.V.V.V.Q.!.c.            ",
"        4.~.^.n.e.e./.(.).)._.`.).W.U.(.U.U.K.'.].              ",
"    # [.{.}.h t t h h h |.|.|.|.|. Xe./.(.(..XXXoX              ",
"  OX+X@Xw.#X#Xb b r r r n n m 8.8.$X$X%X%XS.P P                 ",
"  &X*X{.XX'.=X-X;XS :X#X#Xb b r r r e t >X,X<X1X                ",
"    i d 2X3X4X5Xy ;.=X6X>XS :X:X:X:X#Xb 7X8XL.                  ",
"            9X0XqXwXeX5XrX'.tX;X>XS S w rXyX                    ",
"                  uXiX2XY.4XI.8XrXpXaX!.5 9                     ",
"                          1XsXqXdX@XfXgX&X                      ",
"                                uXhXL.; i                       ",
"                                                                ",
"                                                                "};
