/* XPM */
static char * image_name[] = {
"32 32 255 2",
"  	c #D4D4D4D4C4C4",
". 	c #D4D4D4D4C2C2",
"X 	c #D5D5D4D4BCBC",
"o 	c #D7D7D5D5B3B3",
"O 	c #DADAD6D6A7A7",
"+ 	c #DCDCD7D79B9B",
"@ 	c #DFDFD8D89191",
"# 	c #E0E0D9D98B8B",
"$ 	c #E1E1D9D98686",
"% 	c #DFDFD9D98D8D",
"& 	c #DEDED8D89696",
"* 	c #DBDBD7D7A0A0",
"= 	c #D8D8D6D6ADAD",
"- 	c #D6D6D5D5B7B7",
"; 	c #D4D4D4D4BFBF",
": 	c #D4D4D4D4C3C3",
"> 	c #D5D5D4D4BEBE",
", 	c #D8D8D5D5B0B0",
"< 	c #DCDCD7D79D9D",
"1 	c #E0E0D9D98989",
"2 	c #E5E5DBDB7676",
"3 	c #E8E8DCDC6464",
"4 	c #EBEBDDDD5959",
"5 	c #ECECDEDE5454",
"6 	c #EAEADDDD5C5C",
"7 	c #E7E7DCDC6B6B",
"8 	c #E3E3DADA7B7B",
"9 	c #DADAD6D6A4A4",
"0 	c #D7D7D5D5B5B5",
"q 	c #E7E7DCDC6969",
"w 	c #EEEEDFDF4C4C",
"e 	c #F3F3E1E13333",
"r 	c #F7F7E2E22222",
"t 	c #F8F8E3E31F1F",
"y 	c #F6F6E2E22828",
"u 	c #F1F1E0E03C3C",
"i 	c #EBEBDDDD5858",
"p 	c #E5E5DBDB7575",
"a 	c #DFDFD8D88F8F",
"s 	c #D4D4D4D4C0C0",
"d 	c #D8D8D5D5AFAF",
"f 	c #E0E0D9D98D8D",
"g 	c #E7E7DCDC6C6C",
"h 	c #EFEFDFDF4545",
"j 	c #F8F8E3E31E1E",
"k 	c #FEFEE5E50303",
"l 	c #FEFEE5E50000",
"z 	c #FFFFE5E50000",
"x 	c #FCFCE4E40D0D",
"c 	c #F5F5E1E12D2D",
"v 	c #ECECDEDE5555",
"b 	c #E4E4DADA7A7A",
"n 	c #DDDDD8D89898",
"m 	c #E3E3DADA7C7C",
"M 	c #ECECDEDE5252",
"N 	c #F7F7E2E22121",
"B 	c #FFFFE4E40000",
"V 	c #FFFFE3E30000",
"C 	c #FFFFE2E20000",
"Z 	c #FCFCE5E50909",
"A 	c #F2F2E0E03636",
"S 	c #E8E8DCDC6565",
"D 	c #E1E1D9D98888",
"F 	c #D5D5D4D4BBBB",
"G 	c #E6E6DBDB6E6E",
"H 	c #F1F1E0E03E3E",
"J 	c #FCFCE5E50A0A",
"K 	c #FFFFDEDE0000",
"L 	c #FFFFDCDC0000",
"P 	c #FFFFDFDF0000",
"I 	c #ECECDEDE5353",
"U 	c #E3E3DADA7D7D",
"Y 	c #DCDCD7D79C9C",
"T 	c #F3F3E1E13232",
"R 	c #FFFFD9D90000",
"E 	c #FFFFD5D50000",
"W 	c #FFFFDBDB0000",
"Q 	c #FFFFE1E10000",
"! 	c #FBFBE4E41212",
"~ 	c #EEEEDFDF4A4A",
"^ 	c #E4E4DADA7878",
"/ 	c #D6D6D5D5B8B8",
"( 	c #DBDBD7D7A2A2",
") 	c #E8E8DCDC6868",
"_ 	c #FDFDE5E50606",
"` 	c #FFFFE0E00000",
"' 	c #FFFFD6D60000",
"] 	c #FBFBE4E41010",
"[ 	c #E6E6DBDB6F6F",
"{ 	c #FBFBE4E40E0E",
"} 	c #FEFEE5E50101",
"| 	c #E2E2DADA7F7F",
" .	c #D6D6D4D4BABA",
"..	c #BBBBC5C5BFBF",
"X.	c #9A9AB6B6A6A6",
"o.	c #C9C9CFCF8181",
"O.	c #F7F7E2E22323",
"+.	c #FDFDE5E50707",
"@.	c #FDFDE5E50808",
"#.	c #F2F2E0E03939",
"$.	c #C7C7CBCBBEBE",
"%.	c #31316F6F9696",
"&.	c #00006D6DBABA",
"*.	c #00008282DDDD",
"=.	c #00008888E7E7",
"-.	c #5252A2A2B0B0",
";.	c #D4D4D3D35151",
":.	c #F7F7E3E32020",
">.	c #FCFCE4E40C0C",
",.	c #FEFEE5E50202",
"<.	c #F4F4E1E13030",
"1.	c #EBEBDDDD5757",
"2.	c #DDDDD7D79A9A",
"3.	c #C7C7C9C9BBBB",
"4.	c #252553537171",
"5.	c #00005C5C9C9C",
"6.	c #00007474C6C6",
"7.	c #07078F8FEAEA",
"8.	c #1C1CADADFDFD",
"9.	c #06069595F5F5",
"0.	c #52529E9EA8A8",
"q.	c #EDEDDEDE4E4E",
"w.	c #F3F3E1E13535",
"e.	c #F6F6E2E22626",
"r.	c #F5F5E2E22B2B",
"t.	c #F0F0E0E04040",
"y.	c #EBEBDDDD5A5A",
"u.	c #E4E4DBDB7777",
"i.	c #DEDED8D89393",
"p.	c #D9D9D6D6A9A9",
"a.	c #9595A0A09C9C",
"s.	c #000038386060",
"d.	c #000058589696",
"f.	c #00006C6CB9B9",
"g.	c #0A0A8888DFDF",
"h.	c #3333BABAF7F7",
"j.	c #05058B8BE9E9",
"k.	c #00007777CACA",
"l.	c #B0B0BDBD7A7A",
"z.	c #E8E8DCDC6666",
"x.	c #E9E9DDDD6060",
"c.	c #E6E6DBDB6D6D",
"v.	c #DEDED8D89595",
"b.	c #636376767C7C",
"n.	c #000032325555",
"m.	c #00004B4B8080",
"M.	c #00005F5FA2A2",
"N.	c #01017575C6C6",
"B.	c #00007575C7C7",
"V.	c #00006868B1B1",
"C.	c #82829F9F9090",
"Z.	c #DEDED8D89292",
"A.	c #E0E0D9D98A8A",
"S.	c #DFDFD8D88E8E",
"D.	c #DDDDD8D89797",
"F.	c #D6D6D5D5B9B9",
"G.	c #636375757A7A",
"H.	c #00002A2A4848",
"J.	c #00003A3A6363",
"K.	c #00004A4A7E7E",
"L.	c #000057579494",
"P.	c #00005C5C9D9D",
"I.	c #000050508888",
"U.	c #9595A6A6A7A7",
"Y.	c #A2A2A8A8A1A1",
"T.	c #0C0C2F2F4747",
"R.	c #00002C2C4A4A",
"E.	c #000034345959",
"W.	c #00003D3D6868",
"Q.	c #000041416F6F",
"!.	c #00003F3F6C6C",
"~.	c #0C0C3A3A5A5A",
"^.	c #D4D4BBBBACAC",
"/.	c #D5D5C7C7B8B8",
"(.	c #70707E7E7F7F",
").	c #0C0C2E2E4545",
"_.	c #000026264242",
"`.	c #000027274343",
"'.	c #000021213939",
"].	c #898992928E8E",
"[.	c #DBDBA2A29595",
"{.	c #D2D23F3F3A3A",
"}.	c #B1B10E0E0C0C",
"|.	c #A0A008080505",
" X	c #A7A708080606",
".X	c #C8C812120F0F",
"XX	c #E2E25A5A4F4F",
"oX	c #D7D79B9B8E8E",
"OX	c #A2A2A8A8A0A0",
"+X	c #575768686D6D",
"@X	c #4A4A5E5E6666",
"#X	c #636372727575",
"$X	c #BBBBBEBEB1B1",
"%X	c #D9D94B4B4545",
"&X	c #797907070505",
"*X	c #343416160F0F",
"=X	c #20201F1F1616",
"-X	c #4F4F14140E0E",
";X	c #B0B013130C0C",
":X	c #E3E354544B4B",
">X	c #D2D2BBBBACAC",
",X	c #DBDB57575050",
"<X	c #5A5A0B0B0707",
"1X	c #21211F1F1616",
"2X	c #27271D1D1515",
"3X	c #909011110C0C",
"4X	c #DFDF5C5C5454",
"5X	c #CBCBC7C7B8B8",
"6X	c #DBDBA2A29696",
"7X	c #A8A804040303",
"8X	c #21211F1F1717",
"9X	c #2A2A1E1E1515",
"0X	c #CFCF0B0B0707",
"qX	c #D6D6AEAEA1A1",
"wX	c #E1E172726868",
"eX	c #848409090606",
"rX	c #212120201717",
"tX	c #919110100B0B",
"yX	c #C2C257575050",
"uX	c #DADA72726868",
"iX	c #98980B0B0808",
"pX	c #93930F0F0B0B",
"aX	c #BDBD57575050",
"sX	c #CBCBA2A29595",
"dX	c #E2E212120F0F",
"fX	c #434318181111",
"gX	c #D1D104040303",
"hX	c #A7A77C7C7373",
"jX	c #D3D366665E5E",
"kX	c #C6C615150E0E",
"lX	c #454518181111",
"zX	c #2E2E1E1E1616",
"xX	c #9C9C0D0D0909",
"cX	c #A9A932322E2E",
"vX	c #C6C65C5C5454",
"bX	c #D7D70F0F0909",
"nX	c #929215150F0F",
"mX	c #5B5B17171111",
"MX	c #39391C1C1414",
"NX	c #36361C1C1414",
"BX	c #525218181111",
"VX	c #CBCB04040303",
"CX	c #898919191717",
"ZX	c #C3C3BBBBACAC",
"AX	c #B4B489897E7E",
"SX	c #ACAC2B2B2626",
"DX	c #C6C619191414",
"FX	c #CFCF09090606",
"GX	c #D0D006060303",
"HX	c #B6B603030202",
"JX	c #989819191717",
"KX	c #9C9C70706767",
"LX	c #CACAC7C7B8B8",
"PX	c #B0B0A2A29595",
"IX	c #C1C1BBBBACAC",
"                                                                ",
"                                  . X o O + @ # $ % & * = - ; : ",
"                                  > , < 1 2 3 4 5 6 7 8 @ 9 0 . ",
"                                  - * $ q w e r t y u i p a O s ",
"                                  d f g h j k l z z x c v b n > ",
"                                  O m M N z B V C V z Z A S D F ",
"                                  * G H J B C K L P V z j I U F ",
"                                  Y q T k B P R E W Q z ! ~ ^ / ",
"                                  ( ) T _ B ` R ' L Q z ] ~ ^ / ",
"                                  9 [ H { z C P K ` V } j v |  .",
"                                ..X.o.M O.+.B V V B z @.#.S # F ",
"                            $.%.&.*.=.-.;.:.>.,.z l { <.1.8 2.> ",
"                          3.4.5.6.7.8.9.0.q.w.e.r r.t.y.u.i.p.s ",
"                          a.s.d.f.g.h.j.k.l.z.6 6 x.c.| v.O - . ",
"                          b.n.m.M.&.N.B.V.C.Z.# A.S.D.9 d F.s : ",
"                          G.H.J.K.L.P.P.I.U.                    ",
"                          Y.T.R.E.W.Q.!.~.3.                    ",
"                ^./.        (.)._.`.`.'.].                      ",
"          [.{.}.|. X.XXXoX    OX+X@X#X$X                        ",
"      /.%X&X*X=X=X=X=X-X;X:X>X                                  ",
"      ,X<X=X=X=X1X1X1X1X2X3X4X5X                                ",
"    6X7X=X=X1X1X1X1X8X8X8X9X0XqX                                ",
"    wXeX=X1X1X1X8X8X8XrXrXrXtXyX                                ",
"    uXiX1X1X1X8X8XrXrXrXrXrXpXaX                                ",
"    sXdXfX8X8X8XrXrXrXrXrXrXgXhX                                ",
"      jXkXlXrXrXrXrXrXrXzXxXcX                                  ",
"        vXbXnXmXMXNXBXpXVXCXZX                                  ",
"          AXSXDXFXGXHXJXKX                                      ",
"              LXPXPXIX                                          ",
"                                                                ",
"                                                                ",
"                                                                "};
