/* XPM */
static char * radialIcon_xpm[] = {
"11 11 4 1",
" 	c #FFFFFFFFFFFF",
".	c #000000000000",
"X	c #FFFFEDEDFFFF",
"o	c #FFFFF0F0FFFF",
"     .     ",
" .. ... .. ",
" ..  .  .. ",
"   . . .   ",
" .  ...  . ",
"...........",
" .  ...  . ",
" X . . .   ",
" ..  .  .. ",
" .. ...o.. ",
"     .     "};
