/* XPM */
static char * radialGroup_xpm[] = {
"15 15 4 1",
" 	c #FFFFFFFFFFFF",
".	c #000000000000",
"X	c #FFFFEDEDFFFF",
"o	c #FFFFF0F0FFFF",
"    .......    ",
"  ...     ...  ",
" ..    .    .. ",
".. .. ... .. ..",
".  ..  .  ..  .",
".    . . .    .",
".  .  ...  .  .",
". ........... .",
".  .  ...  .  .",
".  X . . .    .",
".. ..  .  .. ..",
" . .. ...o.. . ",
" ..    .    .. ",
"  ..       ..  ",
"   .........   "};
