/* XPM */
static char * ripple_xpm[] = {
"32 32 246 2",
"  	c #C1C1C1C1C1C1",
". 	c #C0C0C0C0C0C0",
"X 	c #BFBFC0C0BFBF",
"o 	c #BABABFBFBABA",
"O 	c #B6B6BEBEB6B6",
"+ 	c #BDBDC0C0BDBD",
"@ 	c #B2B2BDBDB2B2",
"# 	c #8F8FB5B58F8F",
"$ 	c #7676ADAD7676",
"% 	c #6D6DAAAA6D6D",
"& 	c #545499995454",
"* 	c #5D5DA2A25D5D",
"= 	c #7979ADAD7979",
"- 	c #9C9CB7B79C9C",
"; 	c #BEBEC0C0BEBE",
": 	c #A4A4BABAA4A4",
"> 	c #7272ADAD7272",
", 	c #45458E8E4545",
"< 	c #21216C6C2121",
"1 	c #141468681414",
"2 	c #090974740909",
"3 	c #0D0D82820D0D",
"4 	c #000073730000",
"5 	c #17177F7F1717",
"6 	c #09096B6B0909",
"7 	c #23238F8F2323",
"8 	c #5151A1A15151",
"9 	c #7D7DB3B37D7D",
"0 	c #444498984444",
"q 	c #252571712525",
"w 	c #10105D5D1010",
"e 	c #020289890202",
"r 	c #0202AAAA0202",
"t 	c #0101ADAD0101",
"y 	c #00009A9A0000",
"u 	c #000096960000",
"i 	c #000092920000",
"p 	c #00007D7D0000",
"a 	c #020276760202",
"s 	c #181890901818",
"d 	c #4A4A9E9E4A4A",
"f 	c #8585B1B18585",
"g 	c #6F6FB0B06F6F",
"h 	c #353593933535",
"j 	c #010147470101",
"k 	c #0B0B66660B0B",
"l 	c #0C0CB1B10C0C",
"z 	c #0000B5B50000",
"x 	c #010172720101",
"c 	c #000029290000",
"v 	c #000026260000",
"b 	c #000035350000",
"n 	c #01016D6D0101",
"m 	c #000085850000",
"M 	c #020286860202",
"N 	c #050581810505",
"B 	c #0A0A85850A0A",
"V 	c #06068B8B0606",
"C 	c #2D2D96962D2D",
"Z 	c #7777B2B27777",
"A 	c #292993932929",
"S 	c #0000D3D30000",
"D 	c #08081A1A0000",
"F 	c #070760600707",
"G 	c #00008F8F0000",
"H 	c #00007C7C0000",
"J 	c #000051510000",
"K 	c #000063630000",
"L 	c #000083830000",
"P 	c #1C1C9B9B1C1C",
"I 	c #01018D8D0000",
"U 	c #010165650101",
"Y 	c #00004D4D0000",
"T 	c #0000A6A60000",
"R 	c #0000C5C50000",
"E 	c #00005B5B0000",
"W 	c #0E0EA8A80E0E",
"Q 	c #000075750000",
"! 	c #000084840000",
"~ 	c #090999990909",
"^ 	c #9F9FB8B89F9F",
"/ 	c #21219A9A2121",
"( 	c #000077770000",
") 	c #000081810000",
"_ 	c #000031310000",
"` 	c #00009F9F0000",
"' 	c #00003B3B0000",
"] 	c #000045450000",
"[ 	c #000079790000",
"{ 	c #000074740000",
"} 	c #000072720000",
"| 	c #00008E8E0000",
" .	c #222294942222",
"..	c #6F6FAEAE6F6F",
"X.	c #151593931515",
"o.	c #000056560000",
"O.	c #0000B0B00000",
"+.	c #040450500404",
"@.	c #00008C8C0000",
"#.	c #0C0C98980C0C",
"$.	c #0909A1A10909",
"%.	c #00009C9C0000",
"&.	c #18188B8B1818",
"*.	c #6565ABAB6565",
"=.	c #161694941616",
"-.	c #15155B5B1515",
";.	c #000068680000",
":.	c #01019B9B0101",
">.	c #000042420000",
",.	c #000038380000",
"<.	c #0000A2A20000",
"1.	c #0707ACAC0707",
"2.	c #00003D3D0000",
"3.	c #00008B8B0000",
"4.	c #141489891414",
"5.	c #6666A9A96666",
"6.	c #040473730404",
"7.	c #00004A4A0000",
"8.	c #1F1F8E8E1F1F",
"9.	c #8E8EB3B38E8E",
"0.	c #33339F9F3333",
"q.	c #010184840101",
"w.	c #02027E7E0202",
"e.	c #040490900000",
"r.	c #010197970101",
"t.	c #010198980000",
"y.	c #04048E8E0404",
"u.	c #181894941818",
"i.	c #070740400707",
"p.	c #01015D5D0101",
"a.	c #1B1BB3B31B1B",
"s.	c #1F1FCFCF1F1F",
"d.	c #000094940000",
"f.	c #1818BABA1818",
"g.	c #353595953535",
"h.	c #9595B5B59595",
"j.	c #6060A6A66161",
"k.	c #0C0C91910606",
"l.	c #050597970505",
"z.	c #03038E8E0303",
"x.	c #101089891010",
"c.	c #8888B1B18888",
"v.	c #5656A0A05656",
"b.	c #7070AAAA7070",
"n.	c #BCBCBBBBB9B9",
"m.	c #AFAFA5A59F9F",
"M.	c #9A9A97979595",
"N.	c #A2A294948F8F",
"B.	c #B9B9BBBBB6B6",
"V.	c #BFBFBCBCBCBC",
"C.	c #96964E4E4E4E",
"Z.	c #ABAB27272727",
"A.	c #939305050606",
"S.	c #11111313A8A8",
"D.	c #616108086161",
"F.	c #B1B104040404",
"G.	c #B8B84E4E4E4E",
"H.	c #BCBC99999999",
"J.	c #B5B5ABABABAB",
"K.	c #909027272727",
"L.	c #BCBC04040404",
"P.	c #AFAF3D3D3D3D",
"I.	c #5A5A30305D5D",
"U.	c #51514242CDCD",
"Y.	c #B7B715151515",
"T.	c #BEBEBCBCBCBC",
"R.	c #A2A239393939",
"E.	c #C3C304040404",
"W.	c #BEBE76767676",
"Q.	c #555553539090",
"!.	c #03030101F2F2",
"~.	c #27272727F2F2",
"^.	c #ABAB99999999",
"/.	c #8B8B27272727",
"(.	c #BABA15151515",
").	c #C0C099999999",
"_.	c #898960606060",
"`.	c #B8B804040404",
"'.	c #53535353A0A0",
"].	c #09090808FAFA",
"[.	c #9A9A04040404",
"{.	c #C7C73D3D3D3D",
"}.	c #95952B2B2B2B",
"|.	c #CDCD3D3D3D3D",
" X	c #0C0C0606F8F8",
".X	c #9B9B60606060",
"XX	c #C7C704040404",
"oX	c #BDBDBCBCBCBC",
"OX	c #59591A1A0D0D",
"+X	c #39395A5A3434",
"@X	c #3D3D72723D3D",
"#X	c #2B2B7D7D2B2B",
"$X	c #2B2B8D8D2B2B",
"%X	c #08084F4F5151",
"&X	c #0C0C5F5F7878",
"*X	c #13139A9A2C2C",
"=X	c #3232A5A53030",
"-X	c #48487D7D3030",
";X	c #8B8B26260000",
":X	c #BDBD97979595",
">X	c #05053E3E0000",
",X	c #000053530202",
"<X	c #111177770B0B",
"1X	c #0B0B3E3E7373",
"2X	c #0B0B4E4E8888",
"3X	c #020291910808",
"4X	c #050598980505",
"5X	c #98988C8C7272",
"6X	c #3D3D98983D3D",
"7X	c #3E3EA0A04141",
"8X	c #090923236B6B",
"9X	c #05050505FDFD",
"0X	c #12123939BDBD",
"qX	c #2C2C78783232",
"wX	c #3F3F7C7C4A4A",
"eX	c #383831311C1C",
"rX	c #A5A50C0C0000",
"tX	c #BBBB85858383",
"yX	c #83832B2B2B2B",
"uX	c #CDCD2B2B2B2B",
"iX	c #2B2B2B2B8A8A",
"pX	c #1D1D2020F6F6",
"aX	c #C0C0BCBCBCBC",
"sX	c #C3C387878787",
"dX	c #32323131F0F0",
"fX	c #A1A104040404",
"gX	c #939339393939",
"hX	c #C8C804040404",
"jX	c #42423D3D7D7D",
"kX	c #35353B3BEFEF",
"lX	c #AFAF04040404",
"zX	c #B9B93D3D3D3D",
"xX	c #484815153F3F",
"cX	c #06060000B8B8",
"vX	c #737339398383",
"bX	c #A8A84E4E4E4E",
"nX	c #A9A904040404",
"mX	c #B5B527272727",
"MX	c #8F8F60606060",
"NX	c #4F4F00001515",
"BX	c #040400007676",
"VX	c #969600001515",
"CX	c #9F9F04040404",
"ZX	c #B9B9B8B8B8B8",
"AX	c #9E9E95959D9D",
"SX	c #A7A795959595",
"                          . X o O + X                           ",
"                    o @ # $ % & & * = - @ +                     ",
"                ; : > , < 1 2 3 4 5 6 7 8 = : ;                 ",
"            . @ 9 0 q w e r t y u i p a a s d f O               ",
"            @ g h j k l z x c v b n m M N B V C = @             ",
"          o Z A 1 6 z S j D F G H J K p H L P I C = ;           ",
"        . - 8 U Y T R E b r W G m H E Q ! Q ~ i e 8 ^ .         ",
"        X 9 / J ( z ) _ ` T ' ] [ { } ( u n ) u |  .f X         ",
"        O ..X.o.| O.F +.i @.o.#.r @.] u $.J } %.| &.% o         ",
"        O *.=.K m y 2 -.p ;.H :.$.>.,.<.1.2.Q <.3.4.5.o         ",
"        o > / } ) @.! k 6.} 7.,.b >.<.t m _ i T 3.8.= X         ",
"        . 9.0.q.n 3.p w.n Q 3.e.r.R O.Q c K t y N 0 ^ .         ",
"          O 5.P p p @.n [ p ! t.t.y.] c U t r ) A $ O           ",
"          . : * u.q.m 3.} J 7.,.b i.p.a.s.` q.7 *.@ .           ",
"            X @ 5.A y.| d.t.y ` %.t s.f.i B g...@ .             ",
"              . o h.j.C X.k.l.t.r.l.z.x.g.5.h.+                 ",
"                  X o ^ c.% * v.d * b.9.^ O .                   ",
"                        . n.m.M.N.B.; .                         ",
"                      V.C.Z.A.S.D.F.G.H.                        ",
"                    J.K.L.P.I.I.U.C.Z.Y.H.                      ",
"                  T.R.E.W.  Q.!.~.  ^./.(.).                    ",
"                  _.`.W.    '.].].    ^.[.{.                    ",
"                  }.|.         X X      .XXXH.                  ",
"                oXOX+X@X#X$X%X&X*X*X8 =X-X;X:X                  ",
"                m.D >X,XK <X1X2X3X4X~ u @.k.5X                  ",
"                oXA.A.j.6X7X8X9X0XqXwXwXeXrXtX                  ",
"                  yXuX      iX!.pX      C.XXaX                  ",
"                  _.`.sX    iX!.dX    ^.fXG.                    ",
"                  oXgXhXW.  jXjXkX  N.fXY.J.                    ",
"                    T.OXlXzXxXcXvXbXnXmXJ.                      ",
"                      T.MX/.NXBXVXCXbXJ.                        ",
"                          oXZXAXSXT.                            "};
