/* XPM */
static char * image_name[] = {
"32 32 241 2",
"  	c #C1C1C1C1C1C1",
". 	c #8C8CA2A2B2B2",
"X 	c #7A7A9B9BB1B1",
"o 	c #8C8CA3A3B3B3",
"O 	c #9D9DADADB7B7",
"+ 	c #7A7A9090A0A0",
"@ 	c #23236C6CA0A0",
"# 	c #00006060A3A3",
"$ 	c #00006767AFAF",
"% 	c #00006969B2B2",
"& 	c #00006B6BB7B7",
"* 	c #00006464ABAB",
"= 	c #AFAFB6B6BBBB",
"- 	c #46467D7DA3A3",
"; 	c #00006060A4A4",
": 	c #00006868B2B2",
"> 	c #00006F6FBEBE",
", 	c #00007373C4C4",
"< 	c #00007474C6C6",
"1 	c #00007676C9C9",
"2 	c #00007575C7C7",
"3 	c #00007272C1C1",
"4 	c #00006A6AB4B4",
"5 	c #46468585B1B1",
"6 	c #AFAFB7B7BDBD",
"7 	c #11115A5A8D8D",
"8 	c #00006161A5A5",
"9 	c #00007272C2C2",
"0 	c #00007676CACA",
"q 	c #00007A7ACFCF",
"w 	c #00007B7BD1D1",
"e 	c #00007C7CD3D3",
"r 	c #00007B7BD2D2",
"t 	c #00007979CECE",
"y 	c #00007676C8C8",
"u 	c #00006E6EBBBB",
"i 	c #11116969A7A7",
"p 	c #9D9DADADB8B8",
"a 	c #111153538282",
"s 	c #00005D5D9E9E",
"d 	c #00007171C0C0",
"f 	c #00007777CACA",
"g 	c #00007A7AD0D0",
"h 	c #00007D7DD5D5",
"j 	c #00008080D9D9",
"k 	c #00008080DADA",
"l 	c #00007E7ED6D6",
"z 	c #00007878CCCC",
"x 	c #000056569393",
"c 	c #00006464AAAA",
"v 	c #00006D6DB9B9",
"b 	c #00007D7DD4D4",
"n 	c #00008282DEDE",
"m 	c #00008484E0E0",
"M 	c #00008383DFDF",
"N 	c #00008282DDDD",
"B 	c #00007F7FD8D8",
"V 	c #00007575C8C8",
"C 	c #00006767B0B0",
"Z 	c #343468688D8D",
"A 	c #00005B5B9A9A",
"S 	c #00006666ADAD",
"D 	c #00006F6FBDBD",
"F 	c #00007E7ED7D7",
"G 	c #03038686E3E3",
"H 	c #0C0C9090EDED",
"J 	c #09098D8DE9E9",
"K 	c #00008181DBDB",
"L 	c #00006E6EBCBC",
"P 	c #34347676A5A5",
"I 	c #9D9DA7A7AEAE",
"U 	c #00004A4A7E7E",
"Y 	c #00005D5D9F9F",
"T 	c #00007070BEBE",
"R 	c #02028484DEDE",
"E 	c #14149898F3F3",
"W 	c #2D2DB2B2FDFD",
"Q 	c #14149797F0F0",
"! 	c #03038484DEDE",
"~ 	c #00005C5C9D9D",
"^ 	c #9D9DA9A9B1B1",
"/ 	c #00004C4C8282",
"( 	c #00006666AEAE",
") 	c #00006F6FBCBC",
"_ 	c #05058686E0E0",
"` 	c #5F5FE2E2FFFF",
"' 	c #6060E3E3FFFF",
"] 	c #2828ABABF9F9",
"[ 	c #08088989E3E3",
"{ 	c #00007979CDCD",
"} 	c #00005E5EA0A0",
"| 	c #9D9D9D9D9D9D",
" .	c #97978C8C8C8C",
"..	c #AFAFAFAFAFAF",
"X.	c #57576C6C7B7B",
"o.	c #00004B4B8080",
"O.	c #00005B5B9C9C",
"+.	c #00007474C5C5",
"@.	c #00007878CDCD",
"#.	c #06068585DEDE",
"$.	c #2A2AABABF9F9",
"%.	c #8C8CA0A0AFAF",
"&.	c #232323232323",
"*.	c #000000000000",
"=.	c #00000D0D1616",
"-.	c #000047477979",
";.	c #00006363A8A8",
":.	c #00006A6AB5B5",
">.	c #03037E7ED5D5",
",.	c #13139191EAEA",
"<.	c #2424A3A3F6F6",
"1.	c #01017E7ED6D6",
"2.	c #010101010101",
"3.	c #030302020202",
"4.	c #020202020202",
"5.	c #03030F0F1818",
"6.	c #000040406E6E",
"7.	c #000051518B8B",
"8.	c #00006565ACAC",
"9.	c #00006D6DBABA",
"0.	c #00007171C1C1",
"q.	c #02027C7CD2D2",
"w.	c #06068282D8D8",
"e.	c #000054548F8F",
"r.	c #8C8C00000000",
"t.	c #1A1A00000000",
"y.	c #020200000000",
"u.	c #00002B2B4949",
"i.	c #000057579494",
"p.	c #00007070BFBF",
"a.	c #00007373C3C3",
"s.	c #00006868B0B0",
"d.	c #00005F5FA2A2",
"f.	c #23235F5F8A8A",
"g.	c #D1D18C8C8C8C",
"h.	c #FFFF00000000",
"j.	c #EEEE34343434",
"k.	c #C6C6AFAFAFAF",
"l.	c #00003D3D6868",
"z.	c #00004F4F8686",
"x.	c #000058589696",
"c.	c #00006969B3B3",
"v.	c #000054548E8E",
"b.	c #696985859999",
"n.	c #E8E846464646",
"m.	c #000043437373",
"M.	c #00004E4E8585",
"N.	c #00006262A6A6",
"B.	c #00006868B1B1",
"V.	c #00005F5FA1A1",
"C.	c #000052528C8C",
"Z.	c #E2E257575757",
"A.	c #11113D3D5D5D",
"S.	c #000040406D6D",
"D.	c #000058589595",
"F.	c #00003D3D6767",
"G.	c #DDDD69696969",
"H.	c #E2E257575858",
"J.	c #AFAFB3B3B5B5",
"K.	c #343457576F6F",
"L.	c #00003B3B6565",
"P.	c #000046467777",
"I.	c #00004C4C8181",
"U.	c #000050508989",
"Y.	c #000053538D8D",
"T.	c #00004E4E8484",
"R.	c #000048487A7A",
"E.	c #F9F911111111",
"W.	c #FFFF00000101",
"Q.	c #D9D974747575",
"!.	c #69697B7B8888",
"~.	c #343459597272",
"^.	c #000037375D5D",
"/.	c #000039396161",
"(.	c #34345E5E7C7C",
").	c #343447475454",
"_.	c #050508080A0A",
"`.	c #DBDB00000000",
"'.	c #A6A600000101",
"].	c #606000000000",
"[.	c #A9A99D9D9D9D",
"{.	c #9D9DA4A4A8A8",
"}.	c #8C8C94949B9B",
"|.	c #696979798585",
" X	c #8C8C96969D9D",
".X	c #000001010202",
"XX	c #030308080A0A",
"oX	c #C9C900000000",
"OX	c #949400000000",
"+X	c #B8B800000000",
"@X	c #535323232323",
"#X	c #858569696969",
"$X	c #121211111111",
"%X	c #5F5F34343434",
"&X	c #3B3B00000000",
"*X	c #AAAA23232323",
"=X	c #151511111111",
"-X	c #B3B3AFAFAFAF",
";X	c #D2D211111111",
":X	c #E8E847474848",
">X	c #C7C7ADADAEAE",
",X	c #B9B923232323",
"<X	c #D7D77B7B7B7B",
"1X	c #030301010101",
"2X	c #888846464646",
"3X	c #C6C600000000",
"4X	c #F3F325252626",
"5X	c #D0D058585959",
"6X	c #717111111212",
"7X	c #FFFF02020303",
"8X	c #FFFF02020404",
"9X	c #9E9E11111111",
"0X	c #4A4A00000000",
"qX	c #606034343434",
"wX	c #ECEC00000000",
"eX	c #E6E64F4F5050",
"rX	c #E6E650505151",
"tX	c #CECE17171818",
"yX	c #FFFF03030505",
"uX	c #7F7F11111111",
"iX	c #696969696969",
"pX	c #8B8B46464646",
"aX	c #C7C700000000",
"sX	c #FFFF06060909",
"dX	c #FFFF04040707",
"fX	c #5B5B5B5B5B5B",
"gX	c #747457575757",
"hX	c #676711111111",
"jX	c #B6B600000000",
"kX	c #EDED00000000",
"lX	c #B4B4AFAFAFAF",
"zX	c #6C6C46464646",
"xX	c #464611111111",
"cX	c #828200000000",
"vX	c #CACA00000000",
"bX	c #959500000000",
"nX	c #DADA00000000",
"mX	c #787857575757",
"MX	c #6D6D46464646",
"NX	c #7F7F69696969",
"BX	c #898900000000",
"                                                                ",
"                                . X o O                         ",
"                          + @ # $ % & * * * =                   ",
"                        - ; : > , < 1 2 3 4 5 6                 ",
"                      7 8 & 9 0 q w e r t y u i p               ",
"                    a s 4 d f g h j k j l w z u u               ",
"                  + x c v 2 t b j n m M N B q V C X             ",
"                  Z A S D V w F N G H J G K b f L P             ",
"                I U Y C T 1 w B R E W W Q ! h t d ~ =           ",
"                ^ / s ( ) 1 q F _ W ` ' ] [ h { D } O           ",
"  |  . . .|  ...X.o.O.* v +.@.b #.$.` ' ] #.r V D ; %.          ",
"  &.*.*.*.*.*.*.=.-.x ;.:.d 2 q >.,.<.<.,.1.@.9 :.Y =           ",
"    *.*.2.2.3.4.5.6.7.Y 8.9.0.1 { q.w.w.>.z < ) 8.e.            ",
"    &.&.&.r.t.y.*.u.U i.# $ & p.+.1 f f 2 a.> s.d.f.            ",
"        g.h.j.k...X.l.z.x.8 ( c.9.> > > u v $ ; v.b.            ",
"        n.h.h.j.k.    m.M.i.} N.* B.c.% ( ;.V.C.C.              ",
"        h.h.h.h.Z.k.  A.S.o.e.D.s s } Y Y x.C.F...              ",
"      G.h.h.h.h.h.H.  J.K.L.P.I.U.Y.7.U.T.R.u.*.&...            ",
"      E.h.h.h.h.h.W.Q.    !.~.^./.F.S.L.(.).*.2._._.            ",
"    g.h.h.h.h.h.`.'.].[.      {.}.|. XJ.      .XXX*.*.          ",
"      oXOXoXh.h.+X@X#X                      ..$X*.2.*. .        ",
"    %X&X%X*Xh.h.h.G.                          | =Xy.2.$X|       ",
"          -X;Xh.h.h.:X>X            ,X:XQ.<Xk.   .=X1X2.&...    ",
"            2X3Xh.h.h.4X5X5X        6X7X8Xh.h.E.n.9X0X1X*.&...  ",
"              qXwXh.h.W.7X8X4XeXeXrXtXyXh.h.h.h.h.h.uX*.4.2.iX  ",
"              -XpXaXh.h.W.yXyXsXsXdX8Xh.h.h.h.h.h.h...&.*.fX    ",
"                  gXhXjXkXh.h.h.h.h.h.h.h.h.h.h.*X    | |       ",
"                    lXzXxXcXOX+X`.vXvXbXnXh.h.h.                ",
"                        lX .mXzXqXMXMXNXBXh.*X                  ",
"                                        6X*X                    ",
"                                         .                      ",
"                                                                "};
