/* XPM */
static char * rotatePivot_xpm[] = {
/* play pixmap
 * width height ncolors chars_per_pixel */
"11 11 2 1 5 5",
".	s c0	m black	c black",
" 	s bg	m white	c white",
/* pixels */
"           ",
"    ...    ",
"  ..   ..  ",
"  .  .  .  ",
" .  ...  . ",
" . ..... . ",
" .  ...  . ",
"  .  .  .  ",
"  ..   ..  ",
"    ...    ",
"           "};
