/* XPM */
static char * image_name[] = {
"32 32 230 2",
"  	c #C1C1C1C1C1C1",
". 	c #B3B3B3B3B4B4",
"X 	c #A9A9A9A9AAAA",
"o 	c #B3B3B4B4B4B4",
"O 	c #B8B8B8B8B8B8",
"+ 	c #A4A4A5A5A6A6",
"@ 	c #A3A3A4A4A5A5",
"# 	c #9F9FA0A0A1A1",
"$ 	c #A0A0A1A1A2A2",
"% 	c #A3A3A3A3A4A4",
"& 	c #ADADADADAEAE",
"* 	c #BCBCBCBCBCBC",
"= 	c #AFAFAFAFAFAF",
"- 	c #A3A3A4A4A4A4",
"; 	c #A9A9AAAAAAAA",
": 	c #A9A9AAAAABAB",
"> 	c #AAAAABABABAB",
", 	c #AEAEAEAEAFAF",
"< 	c #B7B7B8B8B8B8",
"1 	c #848486868787",
"2 	c #8C8C8D8D8F8F",
"3 	c #979799999A9A",
"4 	c #8C8C8E8E8F8F",
"5 	c #99999B9B9C9C",
"6 	c #9B9B9C9C9D9D",
"7 	c #B2B2B3B3B3B3",
"8 	c #A2A2A3A3A4A4",
"9 	c #8D8D8E8E8F8F",
"0 	c #868688888A8A",
"q 	c #868688888989",
"w 	c #929293939494",
"e 	c #9E9E9F9FA0A0",
"r 	c #949495959696",
"t 	c #868687878989",
"y 	c #878789898A8A",
"u 	c #4A4A7B7B9D9D",
"i 	c #59597E7E9797",
"p 	c #68687D7D8C8C",
"a 	c #777782828989",
"s 	c #818183838585",
"d 	c #959596969797",
"f 	c #858587878888",
"g 	c #00006D6DBABA",
"h 	c #00007F7FD8D8",
"j 	c #00007F7FD9D9",
"k 	c #00008080D9D9",
"l 	c #00007E7ED6D6",
"z 	c #01017575C7C7",
"x 	c #3B3B8080B1B1",
"c 	c #595980809C9C",
"v 	c #54547A7A9595",
"b 	c #77777F7F8585",
"n 	c #979798989999",
"m 	c #7F7F81818282",
"M 	c #00007E7ED7D7",
"N 	c #00008080DADA",
"B 	c #00008181DBDB",
"V 	c #00008181DCDC",
"C 	c #00008282DDDD",
"Z 	c #1D1D8282C9C9",
"A 	c #AAAAB7B7C0C0",
"S 	c #9D9D9E9E9E9E",
"D 	c #0D0D6666A5A5",
"F 	c #00008080DBDB",
"G 	c #00008282DEDE",
"H 	c #00008383DFDF",
"J 	c #00008A8AEBEB",
"K 	c #696977778181",
"L 	c #00007C7CD4D4",
"P 	c #B6B6B6B6B6B6",
"I 	c #808082828383",
"U 	c #343471719C9C",
"Y 	c #00008383DEDE",
"T 	c #4646A1A1E0E0",
"R 	c #A4A4A4A4A5A5",
"E 	c #969698989898",
"W 	c #28282C2C2E2E",
"Q 	c #00006464ABAB",
"! 	c #57577D7D9797",
"~ 	c #8C8C8C8C8C8C",
"^ 	c #99999A9A9B9B",
"/ 	c #5D5D5F5F6060",
"( 	c #09092B2B4343",
") 	c #00007D7DD5D5",
"_ 	c #00008A8AEAEA",
"` 	c #000000000000",
"' 	c #232323232323",
"] 	c #575757575757",
"[ 	c #696969696969",
"{ 	c #989899999A9A",
"} 	c #1D1D1F1F2020",
"| 	c #03034E4E8383",
" .	c #00007F7FD7D7",
"..	c #11118F8FE6E6",
"X.	c #111111111111",
"o.	c #151500000000",
"O.	c #2D2D2F2F3030",
"+.	c #979799999999",
"@.	c #69696C6C6E6E",
"#.	c #181823232C2C",
"$.	c #00007979CECE",
"%.	c #34349494D7D7",
"&.	c #B8B823232323",
"*.	c #A3A323232323",
"=.	c #3E3E40404242",
"-.	c #10101D1D2626",
";.	c #01016B6BB6B6",
":.	c #00008484E0E0",
">.	c #00008787E6E6",
",.	c #00008686E4E4",
"<.	c #00008585E2E2",
"1.	c #DEDE34343434",
"2.	c #EAEA00000000",
"3.	c #E2E223232323",
"4.	c #0E0E10101111",
"5.	c #121214141515",
"6.	c #111152527F7F",
"7.	c #00005E5EA0A0",
"8.	c #00006868B1B1",
"9.	c #01017C7CD3D3",
"0.	c #00008282DCDC",
"q.	c #02028D8DEDED",
"w.	c #02028989E8E8",
"e.	c #0B0BA8A8D1D1",
"r.	c #A4A4C1C1C6C6",
"t.	c #D0D07A7A7A7A",
"y.	c #0A0A0B0B0B0B",
"u.	c #00005D5D9F9F",
"i.	c #00005E5EA1A1",
"p.	c #00005D5D9E9E",
"a.	c #00006666AEAE",
"s.	c #02028282DADA",
"d.	c #04048686DFDF",
"f.	c #7373FFFFFBFB",
"g.	c #8F8FDDDDD5D5",
"h.	c #E9E900000000",
"j.	c #BBBBBBBBBBBB",
"k.	c #020203030303",
"l.	c #666668686969",
"z.	c #89898C8C8D8D",
"x.	c #0F0F60609999",
"c.	c #00005F5FA1A1",
"v.	c #00005E5E9F9F",
"b.	c #00005C5C9D9D",
"n.	c #2F2FC9C9BBBB",
"m.	c #6969FFFFF3F3",
"M.	c #C1C145454444",
"N.	c #E8E800000000",
"B.	c #E6E611111111",
"V.	c #C4C4AFAFAFAF",
"C.	c #2A2A2B2B2C2C",
"Z.	c #939395959595",
"A.	c #848486868888",
"S.	c #3D3D6F6F9393",
"D.	c #0F0F6464A0A0",
"F.	c #00005F5FA2A2",
"G.	c #7B7B00000000",
"H.	c #9F9F00000000",
"J.	c #D7D700000000",
"K.	c #D4D469696969",
"L.	c #424243434343",
"P.	c #7C7C90909F9F",
"I.	c #3C3C72729898",
"U.	c #0F0F64649F9F",
"Y.	c #808069696969",
"T.	c #C5C500000000",
"R.	c #B1B1B2B2B2B2",
"E.	c #B4B487878888",
"W.	c #ADAD51515252",
"Q.	c #98985F5F6060",
"!.	c #8A8A95959C9C",
"~.	c #3C3C72729797",
"^.	c #0F0F63639F9F",
"/.	c #00006868B0B0",
"(.	c #969669696969",
").	c #828211111111",
"_.	c #6D6D23232323",
"`.	c #C7C79D9D9D9D",
"'.	c #D7D75B5B5B5B",
"].	c #E6E602020303",
"[.	c #E5E500000000",
"{.	c #929257575757",
"}.	c #83838E8E9595",
"|.	c #80809595A3A3",
" X	c #C8C89D9D9D9D",
".X	c #B4B4AFAFAFAF",
"XX	c #757523232323",
"oX	c #DFDF11111111",
"OX	c #E2E200000000",
"+X	c #E3E300000000",
"@X	c #E5E501010101",
"#X	c #E9E906060505",
"$X	c #C0C001010303",
"%X	c #A9A98C8C8D8D",
"&X	c #B1B1AFAFAFAF",
"*X	c #D9D934343434",
"=X	c #E4E400000000",
"-X	c #E6E603030606",
";X	c #E3E316161919",
":X	c #DBDB3D3D3F3F",
">X	c #D0D075757777",
",X	c #C4C4AEAEAEAE",
"<X	c #D3D300000000",
"1X	c #E7E700000000",
"2X	c #D8D850505252",
"3X	c #CCCC8E8E8D8D",
"4X	c #B7B78C8C8C8C",
"5X	c #E6E600000000",
"6X	c #D6D657575757",
"7X	c #B5B59D9D9D9D",
"8X	c #E8E802020101",
"9X	c #CDCD23232323",
"0X	c #CDCD11111111",
"qX	c #9F9F11111111",
"wX	c #7E7E69696969",
"eX	c #7E7E11111111",
"rX	c #AFAF00000000",
"tX	c #B8B88C8C8C8C",
"yX	c #E0E011111111",
"uX	c #8F8F69696969",
"iX	c #A6A69D9D9D9D",
"pX	c #898934343434",
"aX	c #909011111111",
"sX	c #C2C200000000",
"dX	c #BCBC7A7A7A7A",
"fX	c #787834343434",
"gX	c #9D9D23232323",
"hX	c #D5D500000000",
"jX	c #717157575757",
"kX	c #B1B169696969",
"                . X o O                                         ",
"                + @ @ # $ % & * O                               ",
"              = - + @ @ @ @ @ @ @ $ ; : > ,                     ",
"            < % - + 1 2 3 4 5 6 @ @ @ @ @ # ; ,                 ",
"            7 8 8 9 0 q q q q q q w 4 e 6 @ @ r                 ",
"            6 8 8 t y u u u i p a q q q s 2 d 5                 ",
"          : 8 8 r f q g h j k l z z x c v b q n                 ",
"          n 8 8 m f f M h h k N B V V C B Z Z A                 ",
"        , 8 8 S 1 1 D M h h k N F B V C G H J                   ",
"        6 8 8 f 1 K L M h j k N F V V C G H H                   ",
"      P 8 8 8 I 1 U M M h j k N F B V C G Y T                   ",
"      R 8 8 E 1 W Q l M h h j N N B V C G Y ! ~ =               ",
"      8 8 ^ t / ( ) l M h h j N N B V C C _ ` ` ` ' ] [ ~       ",
"    n { S 4 1 } | l l M  .h j k N B B V C ..[ ' X.` o.` ` O.    ",
"    O ^ +.s @.#.$.B l M M h j k N F B V C %.    = &.*.O.X.O.    ",
"      S 8 8 =.-.;.l :.>.,.H h j N N B V <.<.    1.2.3.          ",
"        - w 4.5.6.7.7.8.g 9.0.q.w.<.V e.e.r.    2.2.2.t.        ",
"        7 ] y.O.O.u.i.7.7.u.p.a.z s.d.d.f.g.1.h.h.2.2.2.        ",
"        j.k.y.l.z.x.c.c.7.7.v.u.p.b.b.n.m.M.N.h.h.2.2.B.V.      ",
"          k.C.Z.A.S.D.F.F.i.7.7.u.p.p.i.i.G.H.J.h.2.2.2.K.      ",
"        ' ` L.P X # P.v I.D.U.i.7.7.u.7.7.Y.Y.h.h.h.J.T.3.      ",
"      ~ ` ` S       R.E.W.Q.!.! ~.^.^./.    (.N.h.h.).)._.      ",
"      L.` O.  `.'.3.3.].[.{., , + { }.|.      N.N.h. X  .X      ",
"    S ` ` XXoXOX+X@X#X].$X%X      j.P O     &.N.N.B.            ",
"    ] ` ` &X*XOX+X+X=X].-X;X:X>X,X        &X<X1XN.3.            ",
"  S ` ` L.  V.*XOX+X+X=X[.@X].].-X;X2X3XV.4X5X1X1X6X            ",
"  [ ` ` S     7XoX+X+X=X=X[.[.5X1X1X#X8Xh.9X1X1X1X1X            ",
"  S [ ]         V.0X+XqXwXeXrX<X5X1X1XN.N.h.h.h.2. X            ",
"                  tXyXuX    iXuXpXaXsX1XN.N.h.h.h.              ",
"                    dXiX          iXwXfXgXsXhXN.3.              ",
"                                          iXjXpXkX              ",
"                                                                "};
