/* XPM */
static char * scalePivot_xpm[] = {
/* play pixmap
 * width height ncolors chars_per_pixel */
"11 11 2 1 5 5",
" 	s bg	m white	c white",
".	s c0	m black	c black",
/* pixels */
"     .     ",
"    . .    ",
"   .   .   ",
"  .  .  .  ",
" .  ...  . ",
".  .....  .",
" .  ...  . ",
"  .  .  .  ",
"   .   .   ",
"    . .    ",
"     .     "};
