/* XPM */
static char * selectHandleRoot_xpm[] = {
/* selection handle
 * width height ncolors chars_per_pixel center_x center_y */
"14 14 2 1 7 7",
".  s c0    m black c black",
"   s bg    m white c white",
"      ..      ",
"      ..      ",
"      ..      ",
"      ..      ",
"    ......    ",
"    .    .    ",
".....    .....",
".....    .....",
"    .    .    ",
"    ......    ",
"      ..      ",
"      ..      ",
"      ..      ",
"      ..      "};
