/* XPM */
static char * Move_S_xpm[] = {
"32 32 183 2",
"  	c #C1C1C1C1C1C1",
". 	c #C8C8C8C8C0C0",
"X 	c #C8C8C8C8B8B8",
"o 	c #C0C0C8C8B8B8",
"O 	c #C0C0C0C0B8B8",
"+ 	c #B8B8C0C0B0B0",
"@ 	c #B8B8B8B8B0B0",
"# 	c #B0B0B8B8B0B0",
"$ 	c #A8A8B0B0A8A8",
"% 	c #A0A0A8A8A0A0",
"& 	c #B0B0B0B0A8A8",
"* 	c #A8A8A8A8A0A0",
"= 	c #B0B0B0B0B0B0",
"- 	c #9898A0A0A0A0",
"; 	c #A0A0A0A0A0A0",
": 	c #9898A0A09898",
"? 	c #909090909090",
"> 	c #A0A0A0A09898",
", 	c #909098989090",
"< 	c #888890909090",
"1 	c #808088888888",
"2 	c #787880808080",
"3 	c #808080808080",
"4 	c #808088888080",
"5 	c #888890908888",
"6 	c #9090B0B0B8B8",
"7 	c #7070A0A0B8B8",
"8 	c #50509898C0C0",
"9 	c #A8A8C0C0C0C0",
"0 	c #C8C8D0D0C0C0",
"q 	c #909098989898",
"w 	c #585880809090",
"e 	c #505080809898",
"r 	c #38387878A0A0",
"t 	c #28287878B0B0",
"y 	c #08087070B8B8",
"u 	c #00007070B8B8",
"i 	c #00007070C0C0",
"p 	c #38388888C0C0",
"a 	c #C0C0C8C8C0C0",
"s 	c #A8A8A8A8A8A8",
"d 	c #989898989898",
"f 	c #303060608080",
"g 	c #00006868B8B8",
"h 	c #7070A0A0C0C0",
"j 	c #404058587070",
"k 	c #00005858A0A0",
"l 	c #08087878C0C0",
"z 	c #484860607070",
"x 	c #000050508080",
"c 	c #20208080C0C0",
"v 	c #B8B8C0C0B8B8",
"b 	c #585868687878",
"n 	c #101040406868",
"m 	c #00006060A8A8",
"M 	c #585870707878",
"N 	c #181840406060",
"B 	c #000058589090",
"V 	c #181840405858",
"C 	c #000048487070",
"Z 	c #00006868B0B0",
"A 	c #00007070C8C8",
"S 	c #10108888D0D0",
"D 	c #30309090D0D0",
"F 	c #C0C0C0C0B0B0",
"G 	c #888888888888",
"H 	c #585868687070",
"J 	c #181838385858",
"K 	c #080838386060",
"L 	c #00006060A0A0",
"P 	c #18189090D8D8",
"I 	c #18189898D8D8",
"U 	c #18189090D0D0",
"Y 	c #20209090D0D0",
"T 	c #18188080C0C0",
"R 	c #08087070B0B0",
"E 	c #38388080A8A8",
"W 	c #080838385858",
"Q 	c #000050508888",
"! 	c #00007878C8C8",
"~ 	c #10108888C8C8",
"^ 	c #08086868B0B0",
"/ 	c #000058589898",
"( 	c #000050509090",
") 	c #7878A0A0B0B0",
"_ 	c #B0B0B8B8A8A8",
"` 	c #909090908888",
"' 	c #202040405858",
"] 	c #000040406868",
"[ 	c #08086060A0A0",
"{ 	c #080858589090",
"} 	c #D0D0C8C8C0C0",
"| 	c #D0D0C0C0B0B0",
" .	c #D0D0C8C8B8B8",
"..	c #383858586868",
"X.	c #000038386060",
"o.	c #000048488080",
"O.	c #48488080A0A0",
"+.	c #D0D0B0B0A0A0",
"@.	c #D8D8A0A09090",
"#.	c #D8D898989090",
"$.	c #D8D8B8B8A8A8",
"%.	c #A8A8B0B0A0A0",
"&.	c #606070707878",
"*.	c #000038385858",
"=.	c #9090B0B0B0B0",
"-.	c #C8C8B8B8B0B0",
";.	c #D0D0A0A09090",
":.	c #D8D888888080",
"?.	c #E0E080807878",
">.	c #E8E878787070",
",.	c #E0E090908080",
"<.	c #080858589898",
"1.	c #D0D088888080",
"2.	c #E0E068686060",
"3.	c #F0F060605858",
"4.	c #F0F058585050",
"5.	c #E8E858585858",
"6.	c #303050506868",
"7.	c #50508888A8A8",
"8.	c #C8C888887878",
"9.	c #D8D850504848",
"0.	c #F0F048484040",
"q.	c #F8F840403838",
"w.	c #F0F038383030",
"e.	c #E0E070706868",
"r.	c #787890909090",
"t.	c #383878789898",
"y.	c #60609090A8A8",
"u.	c #8888A0A0A8A8",
"i.	c #C0C0A0A09090",
"p.	c #D0D048484848",
"a.	c #F0F030303030",
"s.	c #F8F828282828",
"d.	c #F8F820202020",
"f.	c #F0F028282828",
"g.	c #D8D888887878",
"h.	c #080840406868",
"j.	c #080858588888",
"k.	c #70709090A8A8",
"l.	c #A0A0B0B0B0B0",
"z.	c #B0B050504848",
"x.	c #E0E020202020",
"c.	c #F8F820201818",
"v.	c #F8F818181818",
"b.	c #F8F818181010",
"n.	c #E8E850504848",
"m.	c #D8D8B0B0A0A0",
"M.	c #D0D0B8B8A8A8",
"N.	c #B8B880807878",
"B.	c #B0B020202020",
"V.	c #F8F810101010",
"C.	c #F8F808080808",
"Z.	c #F0F018181010",
"A.	c #E0E080807070",
"S.	c #E8E818181818",
"D.	c #D8D878787070",
"F.	c #C0C0B8B8A8A8",
"G.	c #989838383030",
"H.	c #E0E008080808",
"J.	c #F8F808080000",
"K.	c #F0F008080808",
"L.	c #E8E800000000",
"P.	c #E8E818181010",
"I.	c #D0D0C0C0B8B8",
"U.	c #909070706868",
"Y.	c #C0C020201818",
"T.	c #F0F000000808",
"R.	c #A8A890908888",
"E.	c #E8E818182020",
"W.	c #F0F020202020",
"Q.	c #E8E808080808",
"!.	c #D8D880807878",
"~.	c #B8B890908888",
"^.	c #A8A840403838",
"/.	c #A0A028282020",
"(.	c #A8A818181818",
").	c #989808080808",
"_.	c #A8A800000000",
"`.	c #B8B800000808",
"'.	c #C8C828282828",
"].	c #B8B8A8A8A0A0",
"[.	c #A8A8A0A09090",
"                                                                ",
"                                                                ",
"          . X o O + + O                                         ",
"    O @ # # # # # $ $ % @ & $ * X                               ",
"  X # # # = % - - - - - ; % : ? > * > , &                       ",
"  X # # # = - - - : < 1 2 3 1 2 4 < < < 5 # 6 7 8 9             ",
"  0 & # # & - - - q 2 2 2 1 1 2 w e r t y u i i i p a           ",
"    # # # # s - - d 2 2 2 1 f g u i i i i i i i i i h           ",
"    @ # # # % - - - 2 2 2 1 j k u u i i i i i i i i l 9         ",
"    @ = # # $ - - ; 2 1 3 1 z x g u u i i i i i i i i c a       ",
"    O & + v $ % % % < 2 3 1 b n m u u u i i i i i i i i h       ",
"    X & O O @ % $ & , 4 5 5 M N B u u u i i i i i i i i l 9     ",
"      @ @ O O & @ @ > 3 5 5 b V C Z u u i i i i i i i A S D     ",
"      F + O O & @ @ * 3 5 G H J K L u u i i i P I U Y T R E     ",
"      o @ O O + @ @ @ 5 G 5 H J W Q ! P S ~ y ^ / ( ( ( ( )     ",
"        + O O + @ # _ ` G 5 2 ' W ] [ B Q Q Q Q ( ( ( ( { a     ",
"  } |  .o O X o & _ _ : 1 5 5 ..W X.o.Q Q Q Q Q ( ( ( ( O.      ",
" .+.@.#.$.      @ _ _ %.1 5 5 &.W *.Q Q Q Q Q Q ( ( ( ( =.      ",
"-.;.:.?.>.,.|   o o X X 5 5 5 5 W X.Q Q Q Q Q ( ( ( ( <.        ",
"  | 1.2.3.4.5.@.        > 5 5 ? 6.X.Q Q Q Q ( ( ( ( ( 7.        ",
"    X 8.9.0.q.w.e.|     @ _ o 0 r.X.Q Q Q ( ( ( t.y.u.a         ",
"        i.p.a.s.d.f.g. .        o h.Q j.O.k.l.o                 ",
"          X z.x.c.v.b.n.m.    M.M.l.v                           ",
"              N.B.V.V.C.Z.A.m.S.D.                              ",
"                F.G.H.J.C.K.K.L.P.I.                            ",
"                    U.Y.C.K.T.L.L.D.                            ",
"                      R.K.K.L.L.L.E. .                          ",
"                     .W.K.T.L.L.Q.Q.!.                          ",
"                    ~.^./.(.)._.`.`.'.                          ",
"                              F.].[.[.                          ",
"                                                                ",
"                                                                "};
