/* XPM */
static char * setEdPaintMode_xpm[] = {
"16 16 99 2",
"  	s bg	c #FFFFFFFFFFFF",
". 	s c1	c #151585851515",
"X 	s c2	c #0000C3C30000",
"o 	s c3	c #6565F1F16363",
"O 	s c4	c #2A2A50502828",
"+ 	s c5	c #000014140000",
"@ 	s c6	c #0000ABAB0000",
"# 	s c7	c #0000ADAD0000",
"$ 	s c8	c #ACACE6E6AAAA",
"% 	s c9	c #0000AFAF0000",
"& 	s c10	c #0000DEDE0000",
"* 	s c11	c #7777A1A17777",
"= 	s c12	c #000046460000",
"- 	s c13	c #0000DDDD0000",
"; 	s c14	c #0000E1E10000",
": 	s c15	c #00000F0F0000",
"? 	s c16	c #000025250000",
"> 	s c17	c #00002F2F0000",
", 	s c18	c #B9B9D0D0B7B7",
"< 	s c19	c #E7E7FFFFFFFF",
"1 	s c20	c #E9E996969696",
"2 	s c21	c #00005D5D0000",
"3 	s c22	c #0000FFFF0000",
"4 	s c23	c #000095950000",
"5 	s c24	c #000031310000",
"6 	s c25	c #0000ACAC0000",
"7 	s c26	c #000000000000",
"8 	s c27	c #72726A6A7272",
"9 	s c28	c #F8F800000000",
"0 	s c29	c #5F5F00000000",
"q 	s c30	c #00002B2B0000",
"w 	s c31	c #00006E6E0000",
"e 	s c32	c #000098980000",
"r 	s c33	c #030386860101",
"t 	s c34	c #000037370000",
"y 	s c35	c #00005A5A0000",
"u 	s c36	c #000077770000",
"i 	s c37	c #0000EFEF0000",
"p 	s c38	c #0000F7F70000",
"a 	s c39	c #FFFFFFFFFEFE",
"s 	s c40	c #F7F7FFFFFFFF",
"d 	s c41	c #A5A500000000",
"f 	s c42	c #FFFF00000000",
"g 	s c43	c #00000B0B0000",
"h 	s c44	c #111153530C0C",
"j 	s c45	c #000030300000",
"k 	s c46	c #0E0E40400C0C",
"l 	s c47	c #191910101717",
"z 	s c48	c #00003A3A0000",
"x 	s c49	c #0000B3B30000",
"c 	s c50	c #0000CECE0000",
"v 	s c51	c #C2C2FFFFF6F6",
"b 	s c52	c #DFDF00000000",
"n 	s c53	c #FBFB00000000",
"m 	s c54	c #A8A824242424",
"M 	s c55	c #FFFFE6E6FFFF",
"N 	s c56	c #00005F5F0000",
"B 	s c57	c #0E0EFFFF0F0F",
"V 	s c58	c #1A1A6F6F1919",
"C 	s c59	c #00002C2C0000",
"Z 	s c60	c #00004B4B0000",
"A 	s c61	c #79799C9C7979",
"S 	s c62	c #EAEA00000000",
"D 	s c63	c #D7D700000000",
"F 	s c64	c #F8F8FFFFFFFF",
"G 	s c65	c #FEFEFFFFFFFF",
"H 	s c66	c #00009E9E0000",
"J 	s c67	c #0000DFDF0000",
"K 	s c68	c #0404A4A40202",
"L 	s c69	c #000042420000",
"P 	s c70	c #7474C4C4CBCB",
"I 	s c71	c #FFFF53538484",
"U 	s c72	c #CACAC3C3CDCD",
"Y 	s c73	c #000009090000",
"T 	s c74	c #00004C4C0000",
"R 	s c75	c #000055550000",
"E 	s c76	c #0000D4D40000",
"W 	s c77	c #494976760000",
"Q 	s c78	c #FFFF0A0A3737",
"! 	s c79	c #6E6E06060909",
"~ 	s c80	c #11111D1D1111",
"^ 	s c81	c #57575E5E5757",
"/ 	s c82	c #000022220000",
"( 	s c83	c #000085850000",
") 	s c84	c #1B1B8A8A0000",
"_ 	s c85	c #FFFFFFFF1D1D",
"` 	s c86	c #FFFFFFFF0000",
"' 	s c87	c #9E9E07071111",
"] 	s c88	c #000007070000",
"[ 	s c89	c #030300000000",
"{ 	s c90	c #FFFFBEBE0000",
"} 	s c91	c #FFFFC3C34747",
"| 	s c92	c #121220203232",
" .	s c93	c #1F1F03030404",
"..	s c94	c #3D3D65653D3D",
"X.	s c95	c #0000FFFFFFFF",
"o.	s c96	c #0101AFAFF8F8",
"O.	s c97	c #00000000DDDD",
"+.	s c98	c #04045F5FC6C6",
"              . X o             ",
"            O + @ # $           ",
"  % & * = - ; : ? > ,       < 1 ",
"2 X 3 4 5 6 & ? 7 8         9 0 ",
"q w e r 7 t y u i p a   s d f   ",
"  7 g h j k l z x c v   b n m   ",
"    M N p B V 7 C Z A S f D F G ",
"      > H J K 2 L P I U f     G ",
"      7 Y T R E 3 W Q f !       ",
"        ~ ^ / ( ) _ ` '         ",
"              ] [ { }           ",
"              7 7 |             ",
"            7  .7 ..            ",
"          < X.7 7               ",
"          o.X.7                 ",
"        O.+.                    "};
