/* XPM */
static char * setEdSelectNEMode_xpm[] = {
"16 16 4 1",
" 	s bg	c #0000FFFF0000",
".	s c1	c #00000000FFFF",
"X	s c2	c #FFFFFFFFFFFF",
"o	s c3	c #000000000000",
"                ",
"      .....     ",
"    .......     ",
"   ...          ",
"  ..            ",
" ...     ...... ",
" ..     ....... ",
" ..    ...      ",
" ..   ..        ",
" ..  ... XXX    ",
" ..  ..  XooXX  ",
"     ..  XoooooX",
"     ..   XoooX ",
"     ..   XooooX",
"     ..   XoXooo",
"           X XoX"};
