/* XPM */
static char * setEdListPartMode_xpm[] = {
"16 16 2 1",
" 	s bg	c #0000FFFF0000",
".	s c1	c #00000000FFFF",
"   ....         ",
"  ......        ",
" ..    ..       ",
"..      ..      ",
"..      ..      ",
"..      ..      ",
"..      ..      ",
" ..    ..       ",
"  ......  ....  ",
"   ....  ..  .. ",
"        ..    ..",
"        .      .",
"        .      .",
"        ..    ..",
"         ..  .. ",
"          ....  "};
