/* XPM */
static char * setEdListView_xpm[] = {
"23 23 5 1",
" 	c #787877777777",
".	c #000000000000",
"X	c #FFFFFFFFFFFF",
"o	c #0000FFFFFFFF",
"O	c #00000000FFFF",
" . . . . . . . . . . .X",
".                    .X",
" ..... ...    ...   . X",
".                  .ooX",
" ..... ...    ... . ooX",
".                .   OX",
" ..... ...    . .   ooX",
".              .o  oo X",
" ..... ...    .oo oo  X",
".            .  oOo   X",
" ..... ...  .   ooo   X",
".          .   oo o   X",
" ..... .. .oo oo  o  oX",
".        . oooo   oo oX",
" .....  .   Oo     oOoX",
".      .   oooo    oooX",
" .... .   oo  o   oo oX",
".    .oo oo   oo oo   X",
" .. . oooo     ooOo   X",
".  .   oOo     oo ooo X",
"  .   oo oo   oo    oOX",
"..  ooo   oo o       oX",
"XXXXXXXXXXXXXXXXXXXXXXX"};
