/* XPM */
static char * setEdCollapseCmd_xpm[] = {
"20 20 2 1",
" 	s bg	c #C1C1C1C1C1C1",
".	s c1	c #000000000000",
"                    ",
"                    ",
" ..                 ",
" ..  .............. ",
" ..  .............. ",
" ..                 ",
"                    ",
"                    ",
" ..                 ",
" ..  .............. ",
" ..  .............. ",
" ..                 ",
"                    ",
"                    ",
" ..                 ",
" ..  .............. ",
" ..  .............. ",
" ..                 ",
"                    ",
"                    "};
