/* XPM */
static char * setEdTableView_xpm[] = {
"23 23 5 1",
" 	c #FFFFFFFFFFFF",
".	c #000000000000",
"X	c #787877777777",
"o	c #0000FFFFFFFF",
"O	c #00000000FFFF",
"                       ",
" .....................X",
" .    .     .     . .XX",
" ...................ooX",
" .    .     .     .Xooo",
" .    .     .    .XXXOo",
" ................XXXooX",
" .    .     .  .oXXooXX",
" .    .     . .ooXooXXX",
" .............XXoOoXXXX",
" .    .     .XXXoooXXXX",
" .    .    .XXXooXoXXXo",
" ..........ooXooXXoXXoo",
" .    .  .XooooXXXooXoX",
" .    . .XXXOoXXXXXoOoX",
" .......XXXooooXXXXoooX",
" .    .XXXooXXoXXXooXoo",
" .   .ooXooXXXooXooXXXX",
" ....XooooXXXXXooOoXXXX",
" . .XXXoOoXXXXXooXoooXo",
" ..XXXooXooXXXooXXXXoOo",
" .XXoooXXXooXoXXXXXXXoX",
" oXooXXXXXXoOooooXXXooX"};
