/* XPM */
static char * setEdScrollCmd_xpm[] = {
"20 20 6 1",
" 	s bg	c #0000FFFF0000",
".	s c1	c #000000000000",
"X	s c2	c #6A6A6A6A6A6A",
"o	s c3	c #FFFFFFFFFFFF",
"O	s c4	c #A1A1A1A1A1A1",
"+	s c5	c #FFFF00000000",
"            .XXXXXo ",
"            .XXXXXo ",
"            .XXXXXo ",
"            ooooooo ",
"            oOOOOO. ",
"            oOOOOO. ",
" oooooooooo oOOOOO. ",
" ++++++++++ oooooo. ",
" ++++++++++ o...... ",
" ++++++++++ oOOOOO. ",
" ++++++++++ oooooo. ",
" oooooooooo o...... ",
"            oOOOOO. ",
"            oOOOOO. ",
"            oOOOOO. ",
"            oOOOOO. ",
"            ....... ",
"            .XXXXXo ",
"            .XXXXXo ",
"            .XXXXXo "};
