/* XPM */
static char *dummy[]={
"12 12 67 2",
".v c #090909",
".s c #151515",
"## c #1c1c1c",
".o c #232323",
".u c #272727",
".P c #282828",
".t c #2a2a2a",
".F c #303030",
".X c #373737",
"#. c #3b3b3b",
".T c #414141",
".3 c #494949",
".R c #4a4a4a",
".r c #4c4c4c",
".M c #555555",
".0 c #565656",
".f c #585859",
".J c #595959",
".p c #5a5a5a",
".I c #5b5b5b",
".m c #5f5f5f",
".k c #606060",
".K c #616161",
".w c #626262",
".h c #63576f",
".D c #666666",
".l c #686868",
".g c #6a6a6b",
".1 c #6b6b6b",
".e c #6c6c6c",
".d c #6d6d6e",
".9 c #707070",
".# c #716280",
".8 c #737373",
".6 c #7c7b7b",
".4 c #7f7f7f",
".5 c #807f7f",
".i c #808080",
".W c #818080",
".E c #828282",
".7 c #838383",
"#a c #878787",
".Y c #888787",
".A c #8a8a8a",
".j c #8c8c8c",
".2 c #8d8d8d",
"Qt c #8e77a4",
".Q c #8e8e8e",
".x c #939393",
".b c #949494",
".U c #989898",
".Z c #9c9b9b",
".V c #9d9c9c",
".B c #9d9d9d",
".c c #9e89b4",
".q c #9f9f9f",
".L c #a09f9f",
".C c #a0a0a0",
".a c #a3a3a3",
".O c #a4a3a3",
".S c #a5a4a4",
".n c #a5a5a5",
".H c #a9a9a9",
".N c #aaaaaa",
".z c #ababab",
".y c #b0b0b0",
".G c #b3b3b3",
"QtQtQtQt.#.a.b.cQtQtQtQt",
"QtQtQt.#.d.e.f.g.hQtQtQt",
"QtQtQt.i.e.h.h.j.kQtQtQt",
"QtQtQt.l.mQtQt.n.oQtQtQt",
"QtQtQt.l.p.#.#.q.oQtQtQt",
"QtQt.h.r.s.t.t.u.v.i.#Qt",
"QtQt.w.x.y.z.A.B.C.D.EQt",
"QtQt.F.G.H.I.J.K.L.M.kQt",
"QtQt.F.N.O.P.Q.R.S.M.kQt",
"QtQt.T.U.V.W.X.Y.Z.0.1Qt",
"QtQt.2.3.4.5.6.7.8.T.hQt",
"QtQtQt.9#.######.R#aQtQt"};
