/* XPM */
static char * shotSnapToNext_xpm[] = {
"20 20 6 1",
" 	c None",
".	c #C1C1C1",
"+	c #C32626",
"@	c #416F90",
"#	c #A7D3F0",
"$	c #73A6CA",
"..........+.........",
".......+..+.........",
"@######.+.+...@#####",
"@$$$$$#..++...@$$$$$",
"@$$$$$#++++...@$$$$$",
"@$$$$$#..++...@$$$$$",
"@@@@@@#.+.+...@@@@@@",
".......+..+.........",
"..........+@########",
"..........+@$$$$$$$#",
"..........+@$$$$$$$#",
"..........+@$$$$$$$#",
"..........+@@@@@@@@@",
"..........+.........",
"..........+..@######",
"..........+..@$$$$$#",
"..........+..@$$$$$#",
"..........+..@$$$$$#",
"..........+..@@@@@@@",
"..........+........."};
