/* XPM */
static char *dummy[]={
"12 12 66 2",
".u c #090909",
".r c #151515",
"#. c #1c1c1c",
".o c #232323",
".t c #272727",
".O c #282828",
".s c #2a2a2a",
".E c #303030",
".W c #373737",
".9 c #3b3b3b",
".S c #414141",
".2 c #494949",
".Q c #4a4a4a",
".q c #4c4c4c",
".L c #555555",
".Z c #565656",
".e c #585859",
".I c #595959",
".p c #5a5a5a",
".H c #5b5b5b",
".m c #5f5f5f",
".k c #606060",
".J c #616161",
".v c #626262",
".C c #666666",
".l c #686868",
".f c #6a6a6b",
".0 c #6b6b6b",
".d c #6c6c6c",
".c c #6d6d6e",
".8 c #707070",
".7 c #737373",
"Qt c #73a6ca",
".i c #7a9eb7",
".# c #7b99af",
".5 c #7c7b7b",
".3 c #7f7f7f",
".4 c #807f7f",
".h c #808080",
".V c #818080",
".D c #828282",
".6 c #838383",
"## c #878787",
".X c #888787",
".z c #8a8a8a",
".j c #8c8c8c",
".1 c #8d8d8d",
".P c #8e8e8e",
".w c #939393",
".b c #949494",
".T c #989898",
".Y c #9c9b9b",
".U c #9d9c9c",
".A c #9d9d9d",
".g c #9f9f9f",
".K c #a09f9f",
".B c #a0a0a0",
".a c #a3a3a3",
".N c #a4a3a3",
".R c #a5a4a4",
".n c #a5a5a5",
".G c #a9a9a9",
".M c #aaaaaa",
".y c #ababab",
".x c #b0b0b0",
".F c #b3b3b3",
"QtQtQtQt.#.a.b.#QtQtQtQt",
"QtQtQt.#.c.d.e.f.gQtQtQt",
"QtQtQt.h.d.i.i.j.kQtQtQt",
"QtQtQt.l.mQtQt.n.oQtQtQt",
"QtQtQt.l.p.#.#.g.oQtQtQt",
"QtQt.i.q.r.s.s.t.u.h.iQt",
"QtQt.v.w.x.y.z.A.B.C.DQt",
"QtQt.E.F.G.H.I.J.K.L.kQt",
"QtQt.E.M.N.O.P.Q.R.L.kQt",
"QtQt.S.T.U.V.W.X.Y.Z.0Qt",
"QtQt.1.2.3.4.5.6.7.S.#Qt",
"QtQtQt.8.9#.#.#..Q##QtQt"};
