/* XPM */
static char * surfaceEmitterIcon_xpm[] = {
"11 11 2 1",
" 	c #FFFFFFFFFFFF",
".	c #000000000000",
"           ",
"    ...    ",
"  ..   ..  ",
"  . ... .  ",
" . .   . . ",
" . .   . . ",
" . .   . . ",
"  . ... .  ",
"  ..   ..  ",
"    ...    ",
"           "};
