/* XPM */
static char * image_name[] = {
"32 32 213 2",
"  	c #C1C1C1C1C1C1",
". 	c #9A9A9A9AB1B1",
"X 	c #696969699A9A",
"o 	c #5D5D5D5D8A8A",
"O 	c #BCBCBCBCBFBF",
"+ 	c #AAAAAAAAB6B6",
"@ 	c #707070709999",
"# 	c #47476060A4A4",
"$ 	c #10104242A1A1",
"% 	c #04046363BABA",
"& 	c #020252529999",
"* 	c #404043437A7A",
"= 	c #82828282A2A2",
"- 	c #6C6C6E6EA7A7",
"; 	c #121239399898",
": 	c #07074F4FABAB",
"> 	c #0C0C3C3C9595",
", 	c #090939398080",
"< 	c #080832327B7B",
"1 	c #030347478F8F",
"2 	c #404042427373",
"3 	c #94949494ADAD",
"4 	c #67676A6A9999",
"5 	c #202047479999",
"6 	c #02026565B9B9",
"7 	c #00006C6CBDBD",
"8 	c #11114848A9A9",
"9 	c #29292C2C7474",
"0 	c #363636364949",
"q 	c #414141414444",
"w 	c #434343434343",
"e 	c #404040404242",
"r 	c #333336365555",
"t 	c #28282B2B7171",
"y 	c #ABABABABBABA",
"u 	c #95959595B1B1",
"i 	c #68686B6B9F9F",
"p 	c #1D1D44449494",
"a 	c #05054F4FA5A5",
"s 	c #00007777CDCD",
"d 	c #00007A7AD0D0",
"f 	c #060631317777",
"g 	c #4B4B4B4B6565",
"h 	c #909090909090",
"j 	c #ACACACACACAC",
"k 	c #BABABABABABA",
"l 	c #545454545454",
"z 	c #666666666666",
"x 	c #AAAAAAAAB7B7",
"c 	c #82828282A1A1",
"v 	c #575759599191",
"b 	c #1D1D44449393",
"n 	c #04045555ACAC",
"m 	c #06065656B4B4",
"M 	c #0E0E22227B7B",
"N 	c #0E0E2C2C6A6A",
"B 	c #04045757AFAF",
"V 	c #00007070C1C1",
"C 	c #313134347878",
"Z 	c #BDBDBDBDBDBD",
"A 	c #89898989B1B1",
"S 	c #0C0C3B3B9494",
"D 	c #05054F4FA6A6",
"F 	c #01017373CACA",
"G 	c #080837378E8E",
"H 	c #16161A1A6A6A",
"J 	c #2C2C2C2C4C4C",
"K 	c #414141414545",
"L 	c #404040404141",
"P 	c #17171A1A5353",
"I 	c #02026A6AC4C4",
"U 	c #020240407E7E",
"Y 	c #707070709898",
"T 	c #AFAFAFAFAFAF",
"R 	c #424242427777",
"E 	c #05055959B7B7",
"W 	c #01016868BABA",
"Q 	c #222241419F9F",
"! 	c #363636365757",
"~ 	c #7A7A7A7A7C7C",
"^ 	c #474747474747",
"/ 	c #2B2B2B2B3737",
"( 	c #070744449696",
") 	c #00007777CBCB",
"_ 	c #090933337676",
"` 	c #99999999B1B1",
"' 	c #747474747474",
"] 	c #2A2A2A2A4545",
"[ 	c #08084545ABAB",
"{ 	c #040448489595",
"} 	c #626262629696",
"| 	c #9E9E9E9E9E9E",
" .	c #232326264A4A",
"..	c #04045F5FBBBB",
"X.	c #00006A6AB8B8",
"o.	c #2F2F32326A6A",
"O.	c #AAAAAAAAB9B9",
"+.	c #3E3E3E3E4242",
"@.	c #080833338C8C",
"#.	c #060636368484",
"$.	c #83838383AEAE",
"%.	c #363636363C3C",
"&.	c #111130307E7E",
"*.	c #020247478686",
"=.	c #565657578787",
"-.	c #0D0D10106161",
";.	c #0D0D3B3B9A9A",
":.	c #82828282A6A6",
">.	c #292929294040",
",.	c #07073E3E9999",
"<.	c #00007878CDCD",
"1.	c #080829295E5E",
"2.	c #98989898AFAF",
"3.	c #2C2C2C2C3E3E",
"4.	c #5F5F5F5F8282",
"5.	c #626262626262",
"6.	c #0F0F12124444",
"7.	c #02026A6AC2C2",
"8.	c #00007171C2C2",
"9.	c #2D2D40407373",
"0.	c #ABABABABB9B9",
"q.	c #939393939393",
"w.	c #0D0D1E1E7777",
"e.	c #00007777CECE",
"r.	c #00007B7BD0D0",
"t.	c #020250509393",
"y.	c #414142427878",
"u.	c #212121213F3F",
"i.	c #05055555B2B2",
"p.	c #00007979CDCD",
"a.	c #040434347272",
"s.	c #707070709C9C",
"d.	c #363636363B3B",
"f.	c #0A0A19195D5D",
"g.	c #03036A6AC5C5",
"h.	c #00007B7BD1D1",
"j.	c #01017272C2C2",
"k.	c #1E1E34346C6C",
"l.	c #303030303F3F",
"z.	c #090933338B8B",
"x.	c #01017B7BD1D1",
"c.	c #01017C7CD1D1",
"v.	c #020257579A9A",
"b.	c #343437377474",
"n.	c #161619194B4B",
"m.	c #03036C6CC3C3",
"M.	c #01017C7CD2D2",
"N.	c #02027D7DD2D2",
"B.	c #040456569E9E",
"V.	c #47474A4A8080",
"C.	c #363636363D3D",
"Z.	c #0C0C1C1C6C6C",
"A.	c #02027878CFCF",
"S.	c #02027C7CD2D2",
"D.	c #02027D7DD3D3",
"F.	c #03037E7ED4D4",
"G.	c #050555559B9B",
"H.	c #0E0E33337D7D",
"J.	c #393945457F7F",
"K.	c #28282F2F7575",
"L.	c #18184343A1A1",
"P.	c #111125256A6A",
"I.	c #89898989AEAE",
"U.	c #707070707070",
"Y.	c #121212124040",
"T.	c #08085C5CBEBE",
"R.	c #03037D7DD3D3",
"E.	c #04047E7ED4D4",
"W.	c #05058080D5D5",
"Q.	c #07078181D7D7",
"!.	c #08088383D9D9",
"~.	c #0A0A7373C7C7",
"^.	c #0B0B49499999",
"/.	c #1F1F3B3BA4A4",
"(.	c #7E7E7E7EAEAE",
").	c #2C2C2C2C4444",
"_.	c #18185555C2C2",
"`.	c #04047F7FD4D4",
"'.	c #05058080D6D6",
"].	c #09096E6EC6C6",
"[.	c #0D0D38389191",
"{.	c #151524248686",
"}.	c #4D4D4D4D7F7F",
"|.	c #98989898ABAB",
" X	c #2C2C2C2C6C6C",
".X	c #0B0B5F5FC5C5",
"XX	c #07076E6EC6C6",
"oX	c #0B0B3B3B9494",
"OX	c #27272A2A7E7E",
"+X	c #4B4B4B4B7575",
"@X	c #878787878989",
"#X	c #313131314949",
"$X	c #1B1B3737A7A7",
"%X	c #02027979D0D0",
"&X	c #04046B6BC1C1",
"*X	c #0A0A41419A9A",
"=X	c #212124247777",
"-X	c #696969698989",
";X	c #A3A3A3A3A5A5",
":X	c #5A5A5A5A7777",
">X	c #0D0D2B2B8B8B",
",X	c #03036A6AC1C1",
"<X	c #090940409494",
"1X	c #17171A1A7A7A",
"2X	c #646464648E8E",
"3X	c #222222225858",
"4X	c #09094343A2A2",
"5X	c #0D0D2B2B8585",
"6X	c #2D2D2D2D7878",
"7X	c #AAAAAAAAB3B3",
"8X	c #363636363E3E",
"9X	c #2C2C2C2C4A4A",
"0X	c #6F6F6F6F8585",
"                                                                ",
"                                                                ",
"                                                                ",
"                                    . X o O                     ",
"                              + @ # $ % & * O                   ",
"                        O = - ; : : > , < 1 2 O                 ",
"                  O 3 4 5 6 7 8 9 0 q w e r t y                 ",
"            O u i p a s d d f g h j k h l z                     ",
"      x c v b n m M N B d d V C O       Z Z                     ",
"    A S D F G H J K L P I d d U Y                               ",
"  T R E W Q ! ~ j j ^ / ( d d ) _ `                             ",
"  ' ] [ { } Z       | w  ...d d X.o.O.                          ",
"  h +.@.#.$.        Z l %.&.s d d *.=.                          ",
"  j L -.;.:.          h w >.,.d d <.1.2.                        ",
"  Z ^ 3.4.O           Z 5.L 6.7.d d 8.9.0.                      ",
"    q.z T               T ^ q w.e.d r.t.y.O                     ",
"                          ' w u.i.d r.p.a.s.                    ",
"                          Z l d.f.g.r.h.j.k.`                   ",
"                            | w l.z.h.x.c.v.b.0.                ",
"                            Z 5.L n.m.x.M.N.B.V.x     + O       ",
"                              h w C.Z.A.S.D.F.G.H.J.K.L.P.I.    ",
"                              Z U.w Y.T.N.R.E.W.Q.!.~.^./.(.    ",
"                                h w )._.N.R.`.'.].[.{.}.|.      ",
"                                k w  X.XD.E.XXoXOX+X@XT         ",
"                                j #X$X%X&X*X=X-X;X              ",
"                              T :X>X,X<X1X2X;X                  ",
"                            Z l 3X4X5X6X7X                      ",
"                            h w 8X9X0XZ                         ",
"                            Z h h T                             ",
"                                                                ",
"                                                                ",
"                                                                "};
