/* XPM */
static char * image_name[] = {
"32 32 251 2",
"  	c #C1C1C1C1C1C1",
". 	c #C2C2AFAFAFAF",
"X 	c #D7D723232323",
"o 	c #C3C39D9D9D9D",
"O 	c #C1C18C8C8C8C",
"+ 	c #DFDF00000000",
"@ 	c #BBBB00000000",
"# 	c #898923232323",
"$ 	c #BABA7A7A7B7B",
"% 	c #D4D400000000",
"& 	c #ABAB00000000",
"* 	c #83834B4B4E4E",
"= 	c #B9B99D9D9D9D",
"- 	c #C6C6AFAFAFAF",
"; 	c #D3D357575757",
": 	c #E6E635353535",
"> 	c #D3D363636363",
", 	c #B4B49D9D9D9D",
"< 	c #C6C600000000",
"1 	c #C7C78C8C8C8C",
"2 	c #BDBD9D9D9D9D",
"3 	c #CDCD00000000",
"4 	c #CACA00000000",
"5 	c #CBCB13131313",
"6 	c #F3F300000000",
"7 	c #E1E101010101",
"8 	c #E7E72D2D2D2D",
"9 	c #B9B948484A4A",
"0 	c #D9D901010101",
"q 	c #8B8B02020303",
"w 	c #E5E505050606",
"e 	c #A8A869696969",
"r 	c #9B9B69696969",
"t 	c #DCDC00000000",
"y 	c #C5C500000000",
"u 	c #D1D100000000",
"i 	c #A0A07B7B7B7B",
"p 	c #B9B924242424",
"a 	c #929234343434",
"s 	c #D3D305050505",
"d 	c #D8D874747474",
"f 	c #DADA57575757",
"g 	c #E7E724242424",
"h 	c #7E7E11111111",
"j 	c #DBDB00000000",
"k 	c #858511111111",
"l 	c #6E6E02020404",
"z 	c #B6B67A7A7A7A",
"x 	c #9D9D7A7A7A7A",
"c 	c #787805050909",
"v 	c #9E9E00000000",
"b 	c #A8A88C8C8C8C",
"n 	c #DDDD00000000",
"m 	c #E9E923232323",
"M 	c #EEEE11111111",
"N 	c #E9E935353535",
"B 	c #CCCC9D9D9D9D",
"V 	c #BABAAFAFAFAF",
"C 	c #E4E40B0B0D0D",
"Z 	c #ADAD8C8C8C8C",
"A 	c #94947A7A7A7A",
"S 	c #7B7B4C4C5151",
"D 	c #8C8C57575757",
"F 	c #ABAB9D9D9D9D",
"G 	c #BCBC11111111",
"H 	c #BDBDAFAFAFAF",
"J 	c #BABA8C8C8C8C",
"K 	c #A9A900000000",
"L 	c #808000000000",
"P 	c #ADAD00000000",
"I 	c #BDBD8D8D8D8D",
"U 	c #A1A123232323",
"Y 	c #D7D700000000",
"T 	c #A2A211111111",
"R 	c #C6C669696969",
"E 	c #9C9C57575757",
"W 	c #B7B757575757",
"Q 	c #EAEA0A0A0A0A",
"! 	c #C4C46A6A6B6B",
"~ 	c #D4D411111111",
"^ 	c #A9A930303939",
"/ 	c #D4D446464646",
"( 	c #D1D19B9B9B9B",
") 	c #AEAE9D9D9D9D",
"_ 	c #C2C200000000",
"` 	c #C5C505050808",
"' 	c #B7B7AFAFB0B0",
"] 	c #8D8DB5B5D1D1",
"[ 	c #5757A0A0D4D4",
"{ 	c #3434A1A1EAEA",
"} 	c #3B3BACACEEEE",
"| 	c #4646B0B0E8E8",
" .	c #8C8CBABAD1D1",
"..	c #BEBE04040404",
"X.	c #E0E057575757",
"o.	c #A5A569696969",
"O.	c #B7B734343434",
"+.	c #21218282DCDC",
"@.	c #0B0B9393F9F9",
"#.	c #00009F9FFFFF",
"$.	c #0505ABABFFFF",
"%.	c #1212B1B1FFFF",
"&.	c #0C0CB2B2FFFF",
"*.	c #6A6AB8B8DDDD",
"=.	c #AFAFBDBDC6C6",
"-.	c #8E8E60606666",
";.	c #B5B504040808",
":.	c #B0B023232323",
">.	c #B6B6AFAFAFAF",
",.	c #D6D634343434",
"<.	c #E3E300000000",
"1.	c #10106C6CB7B7",
"2.	c #00008181DDDD",
"3.	c #01019191F6F6",
"4.	c #2323D2D2FFFF",
"5.	c #1313C2C2FFFF",
"6.	c #6161B3B3E2E2",
"7.	c #8F8F72727878",
"8.	c #94940A0A1111",
"9.	c #E6E640404040",
"0.	c #E5E515151515",
"q.	c #D9D923232323",
"w.	c #D1D18D8D8D8D",
"e.	c #E6E601010101",
"r.	c #AFAFB3B3B5B5",
"t.	c #00006969B3B3",
"y.	c #00007A7AD0D0",
"u.	c #00008B8BECEC",
"i.	c #00009797FCFC",
"p.	c #1B1BBDBDFFFF",
"a.	c #5F5FF6F6FFFF",
"s.	c #3737E2E2FFFF",
"d.	c #1414A5A5FFFF",
"f.	c #8F8F5E5E6363",
"g.	c #9E9E05050505",
"h.	c #B4B403030404",
"j.	c #B6B601010101",
"k.	c #D5D505050505",
"l.	c #E2E218181818",
"z.	c #D6D67B7B7B7B",
"x.	c #DDDD6C6C6C6C",
"c.	c #69697F7F8F8F",
"v.	c #00005F5FA2A2",
"b.	c #00007171C1C1",
"n.	c #00008E8EF2F2",
"m.	c #0808A0A0FDFD",
"M.	c #2929C7C7FFFF",
"N.	c #1F1FC1C1FFFF",
"B.	c #0303A7A7FFFF",
"V.	c #6B6BAAAAD8D8",
"C.	c #CFCF38383A3A",
"Z.	c #C7C703030404",
"A.	c #8A8A11111111",
"S.	c #595967677D7D",
"D.	c #06063F3F6B6B",
"F.	c #000056569393",
"G.	c #00006464ABAB",
"H.	c #00007676C9C9",
"J.	c #00007F7FD8D8",
"K.	c #01019797FBFB",
"L.	c #3F3F9595D8D8",
"P.	c #C1C119191919",
"I.	c #6B6B70708282",
"U.	c #090938385F5F",
"Y.	c #000044447373",
"T.	c #00006565ACAC",
"R.	c #00006F6FBEBE",
"E.	c #00007979CECE",
"W.	c #00008585E3E3",
"Q.	c #06068383DFDF",
"!.	c #3C3C8888C4C4",
"~.	c #A7A757575757",
"^.	c #929269696969",
"/.	c #87871E1E2424",
"(.	c #818107070D0D",
").	c #D5D500000000",
"_.	c #ACAC11111111",
"`.	c #F2F21F1F1F1F",
"'.	c #E2E258585858",
"].	c #EDED00000000",
"[.	c #7B7B7D7D8B8B",
"{.	c #181832325656",
"}.	c #000038386060",
"|.	c #000047477979",
" X	c #000052528C8C",
".X	c #00007474C6C6",
"XX	c #09096C6CB9B9",
"oX	c #57578888ABAB",
"OX	c #ACAC09091010",
"+X	c #C2C234343434",
"@X	c #888800000000",
"#X	c #949413131313",
"$X	c #9D9DA4A4A9A9",
"%X	c #35353D3D5A5A",
"&X	c #0D0D34345959",
"*X	c #000040406D6D",
"=X	c #00004C4C8282",
"-X	c #00005D5D9E9E",
";X	c #1D1D53538D8D",
":X	c #AFAFB5B5B9B9",
">X	c #9F9F7E7E8080",
",X	c #969669696969",
"<X	c #8E8E69696969",
"1X	c #E4E423232323",
"2X	c #CDCD55555858",
"3X	c #000034345959",
"4X	c #00003C3C6666",
"5X	c #000044447474",
"6X	c #282840406D6D",
"7X	c #656575758888",
"8X	c #B9B900000000",
"9X	c #B0B011111111",
"0X	c #7A7A88889191",
"qX	c #1D1D38385353",
"wX	c #00002B2B4A4A",
"eX	c #12122C2C4B4B",
"rX	c #7A7A87879090",
"tX	c #F9F914141414",
"yX	c #EFEF29292929",
"uX	c #A5A514141414",
"iX	c #878757575757",
"pX	c #A3A369696969",
"aX	c #9D9D23232323",
"sX	c #B8B86A6A6B6B",
"dX	c #6B6B79798585",
"fX	c #63636B6B7979",
"gX	c #61615F5F6F6F",
"hX	c #BFBF57575757",
"jX	c #999900000000",
"kX	c #A6A601010101",
"lX	c #ACAC7A7A7A7A",
"zX	c #A3A300000000",
"xX	c #F2F204040606",
"cX	c #DCDC06060606",
"vX	c #B7B769696969",
"bX	c #A1A157575757",
"nX	c #F1F125252525",
"mX	c #F0F030303333",
"MX	c #BFBF36363737",
"NX	c #9F9F12121313",
"BX	c #C3C300000000",
"VX	c #C4C446464646",
"CX	c #C9C923232323",
"ZX	c #C1C100000000",
"AX	c #E0E011111111",
"SX	c #C3C358585858",
"DX	c #A9A957575757",
"FX	c #B7B78C8C8C8C",
"GX	c #C4C434343434",
"HX	c #979734343434",
"JX	c #F0F00B0B0B0B",
"                                                                ",
"                    . X o                                       ",
"                  O + @ #                                       ",
"                $ % & * = -       ; : >         , < 1           ",
"              2 3 4 5 6 7 8 .   9 0 q w -       e 3 3           ",
"              r 4 t @ q y u   i < p a s d f g . h j .           ",
"              , k l * p u u     z = x c 5 @ v b a n .           ",
"          m M N B   V & C Z           A S D F V G j H           ",
"      J % K L 0 f     P t I                   U Y T             ",
"      V R E W Q !   o ~ ^                   V @ 0 / ( -         ",
"          ) _ ` ,     2 ' ] [ { } |  .      r _ t P ..X.        ",
"          o.Y O.          +.@.#.$.%.&.*.=.  -.;.:.>.K ,.        ",
"            <.9         1.2.3.#.&.4.5.&.6.  7.8.9.0.t q.w.B     ",
"            e.o     r.r.t.y.u.i.p.a.s.&.d.]   f.g.h.j.k.5 l.z.  ",
"            Q x.    c.c.v.b.2.n.m.M.N.B.#.V.    i C.Z.E x A.0.- ",
"          x ..>     S.D.F.G.H.J.u.3.K.i.@.L.    X k.P.:   a % . ",
"  z .         d w.o I.U.Y.F.T.R.E.2.W.W.Q.!.    ~.^./.<.  (.).  ",
"  _.`.'.w./ ].<.<.5 [.{.}.|. Xv.t.R.b..XXXoX      ) OXq.$ y +X  ",
"  r _.j n P @Xa #X+X$X%X&X}.*X=X X-X-Xv.;X:X      >X@ ~ 7 y 2   ",
"    >.,XD <XH 1Xe.Z.2X2X%X{.3X}.4XY.5X6X7X        i K 0 8Xz     ",
"            9X4 h h ;.I 0XqXwXeXwXeXwXrX    V N tXyXuXiXF       ",
"          pX3 aX  b v sX  $XdXfXgXdXr.      hX< jXkX:           ",
"          ~.Y J   lXzX9                 $ w xXcXvXkXq.          ",
"          bXQ nXf lXO.z       C.mXmX-   MX3 NXBXVXkX,.          ",
"            ^ K Q 1           CX@ cXnX-   z 8X).9 ZX/           ",
"              o.j j         R H F * 4 x.  bXy AXn 4 I           ",
"            = _ @         SX% O   >.#XM   ^.;.0 j.J             ",
"            ! 5 DX      >.8X,.>.    q AX    A x )               ",
"              =         >.& X.    FXZXGX                        ",
"                          HXJXmXg e.3 FX                        ",
"                          >.>.j.ZX_.lX                          ",
"                              F F                               "};
