/* XPM */
static char * image_name[] = {
"32 32 255 2",
"  	c #C1C1C1C1C1C1",
". 	c #9D9DB0B0BDBD",
"X 	c #57579595C0C0",
"o 	c #23238686CCCC",
"O 	c #11118383D3D3",
"+ 	c #23238F8FDBDB",
"@ 	c #46469999D3D3",
"# 	c #7A7AA8A8C9C9",
"$ 	c #AFAFB9B9C0C0",
"% 	c #46468080A9A9",
"& 	c #00007070BFBF",
"* 	c #00008383DFDF",
"= 	c #00008C8CEEEE",
"- 	c #00009393F9F9",
"; 	c #00009393FAFA",
": 	c #00008E8EF2F2",
"> 	c #34349595D8D8",
", 	c #9D9DB4B4C4C4",
"< 	c #46467A7A9F9F",
"1 	c #00006C6CB9B9",
"2 	c #00007E7ED6D6",
"3 	c #00008A8AEBEB",
"4 	c #00009494FBFB",
"5 	c #00009898FFFF",
"6 	c #00009B9BFFFF",
"7 	c #00009D9DFFFF",
"8 	c #00009A9AFFFF",
"9 	c #00009292F7F7",
"0 	c #9D9DB3B3C1C1",
"q 	c #7A7A9494A6A6",
"w 	c #00006161A4A4",
"e 	c #00007575C7C7",
"r 	c #00008282DEDE",
"t 	c #00008E8EF3F3",
"y 	c #00009595FDFD",
"u 	c #03039F9FFFFF",
"i 	c #1010AEAEFFFF",
"p 	c #1212B1B1FFFF",
"a 	c #0505A3A3FFFF",
"s 	c #00009999FFFF",
"d 	c #00009090F5F5",
"f 	c #46469292C8C8",
"g 	c #464679799D9D",
"h 	c #00006666ADAD",
"j 	c #00007777CBCB",
"k 	c #01019696FDFD",
"l 	c #0D0DA7A7FFFF",
"z 	c #4343DFDFFFFF",
"x 	c #5454EDEDFFFF",
"c 	c #1A1AB7B7FFFF",
"v 	c #01019B9BFFFF",
"b 	c #00009191F7F7",
"n 	c #00007F7FD9D9",
"m 	c #8C8CAAAABFBF",
"M 	c #AFAFB5B5AFAF",
"N 	c #8C8C9D9D8C8C",
"B 	c #AFAFB3B3B6B6",
"V 	c #00004A4A7E7E",
"C 	c #00006464AAAA",
"Z 	c #00007575C8C8",
"A 	c #00008C8CEFEF",
"S 	c #00009494FAFA",
"D 	c #0E0EA6A6FEFE",
"F 	c #4242DBDBFFFF",
"G 	c #5858EDEDFFFF",
"H 	c #1A1AB5B5FFFF",
"J 	c #02029B9BFFFF",
"K 	c #00009292F8F8",
"L 	c #00008484E1E1",
"P 	c #57579292BCBC",
"I 	c #575780805757",
"U 	c #23235C5C2323",
"Y 	c #696986866969",
"T 	c #AFAFB4B4AFAF",
"R 	c #8C8C9999A3A3",
"E 	c #000045457676",
"W 	c #00006060A4A4",
"Q 	c #00007171C1C1",
"! 	c #00007F7FD8D8",
"~ 	c #00008888E8E8",
"^ 	c #00008F8FF3F3",
"/ 	c #02029696FBFB",
"( 	c #0A0AA0A0FEFE",
") 	c #1818B0B0FFFF",
"_ 	c #07079E9EFEFE",
"` 	c #00008F8FEEEE",
"' 	c #00008383DBDB",
"] 	c #46468989B8B8",
"[ 	c #AFAFB8B8AFAF",
"{ 	c #10105C5C1010",
"} 	c #04044F4F0404",
"| 	c #00004A4A0000",
" .	c #343466663434",
"..	c #9D9DA9A99D9D",
"X.	c #8C8C9A9AA3A3",
"o.	c #000044447373",
"O.	c #00005A5A9A9A",
"+.	c #00006B6BB6B6",
"@.	c #00008181DBDB",
"#.	c #00008787E7E7",
"$.	c #00008D8DF0F0",
"%.	c #00009191F6F6",
"&.	c #00008F8FF0F0",
"*.	c #00008D8DE6E6",
"=.	c #05058989C6C6",
"-.	c #111151512424",
";.	c #343463633434",
":.	c #46466E6E4646",
">.	c #575778785757",
",.	c #78789D9D7878",
"<.	c #5D5DA9A95D5D",
"1.	c #3B3B87873B3B",
"2.	c #171763631717",
"3.	c #070752520707",
"4.	c #23235E5E2323",
"5.	c #7A7A92927A7A",
"6.	c #A8A8ACACAFAF",
"7.	c #101046466D6D",
"8.	c #000050508989",
"9.	c #00006363A9A9",
"0.	c #00007878CDCD",
"q.	c #00008585E2E2",
"w.	c #00008888E7E7",
"e.	c #00008989E9E9",
"r.	c #00008686E5E5",
"t.	c #00008686E0E0",
"y.	c #00008282D5D5",
"u.	c #000068688080",
"i.	c #00003A3A0000",
"p.	c #00003D3D0000",
"a.	c #00003F3F0000",
"s.	c #000041410000",
"d.	c #0E0E52520E0E",
"f.	c #41418B8B4141",
"g.	c #5757A1A15757",
"h.	c #5B5BA6A65B5B",
"j.	c #494995954949",
"k.	c #242470702424",
"l.	c #090953530909",
"z.	c #464671714646",
"x.	c #BEBEBEBEBEBE",
"c.	c #A0A0A0A0A0A0",
"v.	c #8C8C8C8C8C8C",
"b.	c #232348486262",
"n.	c #000044447474",
"m.	c #000056569393",
"M.	c #00006565ACAC",
"N.	c #00006D6DB9B9",
"B.	c #00007474C5C5",
"V.	c #00007B7BD1D1",
"C.	c #00007B7BD2D2",
"Z.	c #00007C7CD4D4",
"A.	c #00007878CACA",
"S.	c #00007272BEBE",
"D.	c #00004A4A6969",
"F.	c #111130301111",
"G.	c #111134341111",
"H.	c #00002A2A0000",
"J.	c #00002F2F0000",
"K.	c #030348480303",
"L.	c #05054B4B0505",
"P.	c #101057571010",
"I.	c #1D1D65651D1D",
"U.	c #2E2E78782E2E",
"Y.	c #43438D8D4343",
"T.	c #262672722626",
"R.	c #1D1D5F5F1D1D",
"E.	c #87879D9D8787",
"W.	c #B8B8B8B8B8B8",
"Q.	c #7D7D7D7D7D7D",
"!.	c #636363636363",
"~.	c #484855555F5F",
"^.	c #0C0C3E3E6060",
"/.	c #000043437373",
"(.	c #000053538E8E",
").	c #00006060A3A3",
"_.	c #00006666AEAE",
"`.	c #00006F6FBDBD",
"'.	c #00006868B0B0",
"].	c #00005B5B9B9B",
"[.	c #464676769797",
"{.	c #AFAFB1B1AFAF",
"}.	c #8C8C93938C8C",
"|.	c #7A7A84847A7A",
" X	c #111148481111",
".X	c #000040400000",
"XX	c #07074B4B0707",
"oX	c #0F0F53530F0F",
"OX	c #111159591111",
"+X	c #595980805959",
"@X	c #B0B0B8B8B0B0",
"#X	c #939393939393",
"$X	c #686868686868",
"%X	c #606060606060",
"&X	c #3C3C50505E5E",
"*X	c #000038385F5F",
"=X	c #000041416F6F",
"-X	c #00004E4E8585",
";X	c #000055559191",
":X	c #00005D5D9F9F",
">X	c #00005E5EA0A0",
",X	c #000059599898",
"<X	c #000052528C8C",
"1X	c #11114B4B7373",
"2X	c #9D9DA6A6ACAC",
"3X	c #111143431111",
"4X	c #000035350000",
"5X	c #000034340000",
"6X	c #000031310000",
"7X	c #000032320000",
"8X	c #00002E2E0000",
"9X	c #232346462323",
"0X	c #69697D7D6969",
"qX	c #8C8C99998C8C",
"wX	c #989898989898",
"eX	c #656565656565",
"rX	c #484856565F5F",
"tX	c #0C0C3C3C5F5F",
"yX	c #00003A3A6464",
"uX	c #00003F3F6B6B",
"iX	c #000046467777",
"pX	c #000049497D7D",
"aX	c #000045457575",
"sX	c #00003D3D6868",
"dX	c #0D0D3B3B5C5C",
"fX	c #11113A3A1111",
"gX	c #000024240000",
"hX	c #000021210000",
"jX	c #00001F1F0000",
"kX	c #46465A5A4646",
"lX	c #B0B0B0B0B0B0",
"zX	c #737373737373",
"xX	c #54545B5B5F5F",
"cX	c #30304A4A5C5C",
"vX	c #242444445B5B",
"bX	c #18183E3E5858",
"nX	c #0C0C37375656",
"mX	c #242442425656",
"MX	c #595960606565",
"NX	c #B3B3B3B3B3B3",
"BX	c #23233B3B2323",
"VX	c #343448483434",
"CX	c #575765655757",
"ZX	c #9D9DA2A29D9D",
"AX	c #BBBBBBBBBBBB",
"SX	c #848484848484",
"DX	c #646464646464",
"FX	c #6B6B6B6B6B6B",
"GX	c #909090909090",
"HX	c #AAAAAAAAAAAA",
"JX	c #9A9A9A9A9A9A",
"KX	c #9C9C9C9C9C9C",
"LX	c #969696969696",
"PX	c #A4A4A4A4A4A4",
"IX	c #BABABABABABA",
"                                                                ",
"                                                                ",
"                                                                ",
"                                                                ",
"                                                                ",
"                                                                ",
"                                                                ",
"                                                                ",
"            . X o O + @ # $                                     ",
"          % & * = - ; - : > ,                                   ",
"        < 1 2 3 4 5 6 7 8 9 + 0                                 ",
"      q w e r t y u i p a s d f                                 ",
"      g h j * t k l z x c v b n m         M N                   ",
"    B V C Z * A S D F G H J K L P         I U Y T               ",
"    R E W Q ! ~ ^ / ( ) _ 4 ` ' ]       [ { } |  ...            ",
"    X.o.O.+.j @.#.$.%.%.%.&.*.=.-.;.:.>.,.<.1.2.3.4.5.          ",
"    6.7.8.9.& 0.! q.w.e.r.t.y.u.i.p.a.s.d.f.g.h.j.k.l.z.M       ",
"x.c.v.b.n.m.M.N.B.V.C.Z.C.A.S.D.F.G.H.J.p.K.L.P.I.U.Y.T.R.E.    ",
"W.Q.!.~.^./.(.)._.N.`.& N.'.].[.  {.}.|. Xa.a..X.Xa.s.XXoXOX+X@X",
"#X$X%X%X&X*X=X-X;XO.:X>X,X<X1X2X        3X4X5X4X6X7XJ.8X9X0XqX  ",
"wXeX%X%X%XrXtXyXuXiXpXaXsXdX2X          fXH.gXhXjXkX|.{.        ",
"lXv.zX%X%X%XxXcXvXbXnXmXMXNX            BXVXCXZX                ",
"  AXc.SX$XDX%X%X%X%XFXGXW.                                      ",
"        lXHXJXKXLXPXIX                                          ",
"                                                                ",
"                                                                ",
"                                                                ",
"                                                                ",
"                                                                ",
"                                                                ",
"                                                                ",
"                                                                "};
