/* XPM */
static char * uniformGroup_xpm[] = {
"15 15 2 1",
" 	c #FFFFFFFFFFFF",
".	c #000000000000",
"    .......    ",
"  ...     ...  ",
" ..         .. ",
"..  ..       ..",
".  ....  ..   .",
". ..  ..  ..  .",
". .    ...... .",
". .    ...... .",
". ..  ..  ..  .",
".  ....  ..   .",
"..  ..       ..",
" .           . ",
" ..         .. ",
"  ...     ...  ",
"    .......    "};
