/* XPM */
static char *unlock_mono[] = {
/* width height num_colors chars_per_pixel */
"  20 20 2 1 10 7",
/* colors */
". 	s bg c #FFFFFFFFFFFF",
"b	c #000000000000",
/* pixels */
"....................",
"........bbbbb.......",
".......bbbbbbb......",
"......bbbb..bbb.....",
".....bbbb....bbb....",
".....bbb......bbb...",
"..............bbb...",
"..............bbb...",
".............bbb....",
"............bbbb....",
"...bbbbbbbbbbbbbb...",
"...bbbbbbbbbbbbbb...",
"...bbbb......bbbb...",
"...bbbb.bbbb.bbbb...",
"...bbbb.bbbb.bbbb...",
"...bbbb.bbbb.bbbb...",
"...bbbb......bbbb...",
"...bbbbbbbbbbbbbb...",
"...bbbbbbbbbbbbbb...",
"...................."
};
