/* XPM */
static char * vCVIcon_xpm[] = {
/* play pixmap
 * width height ncolors chars_per_pixel */
"7 7 2 1 3 3",
" 	s c0	m black	c black",
".	s c1	m white	c white",
/* pixels */
" ..... ",
" ..... ",
". ... .",
". ... .",
".. . ..",
".. . ..",
"... ..."};
