/* XPM */
static char * verticalCloseBar_xpm[] = {
"7 190 3 1",
" 	s bg c #999999999999",
".	c #4C4C4C4C4C4C",
"X	c #ECECECECECEC",
"       ",
" ..... ",
"  ...X ",
"   .X  ",
"       ",
"       ",
"    X  ",
" X   . ",
"  .    ",
"    X  ",
" X   . ",
"  .    ",
"    X  ",
" X   . ",
"  .    ",
"    X  ",
" X   . ",
"  .    ",
"    X  ",
" X   . ",
"  .    ",
"    X  ",
" X   . ",
"  .    ",
"    X  ",
" X   . ",
"  .    ",
"    X  ",
" X   . ",
"  .    ",
"    X  ",
" X   . ",
"  .    ",
"    X  ",
" X   . ",
"  .    ",
"    X  ",
" X   . ",
"  .    ",
"    X  ",
" X   . ",
"  .    ",
"    X  ",
" X   . ",
"  .    ",
"    X  ",
" X   . ",
"  .    ",
"    X  ",
" X   . ",
"  .    ",
"    X  ",
" X   . ",
"  .    ",
"    X  ",
" X   . ",
"  .    ",
"    X  ",
" X   . ",
"  .    ",
"    X  ",
" X   . ",
"  .    ",
"    X  ",
" X   . ",
"  .    ",
"    X  ",
" X   . ",
"  .    ",
"    X  ",
" X   . ",
"  .    ",
"    X  ",
" X   . ",
"  .    ",
"    X  ",
" X   . ",
"  .    ",
"    X  ",
" X   . ",
"  .    ",
"    X  ",
" X   . ",
"  .    ",
"    X  ",
" X   . ",
"  .    ",
"    X  ",
" X   . ",
"  .    ",
"    X  ",
" X   . ",
"  .    ",
"    X  ",
" X   . ",
"  .    ",
"    X  ",
" X   . ",
"  .    ",
"    X  ",
" X   . ",
"  .    ",
"    X  ",
" X   . ",
"  .    ",
"    X  ",
" X   . ",
"  .    ",
"    X  ",
" X   . ",
"  .    ",
"    X  ",
" X   . ",
"  .    ",
"    X  ",
" X   . ",
"  .    ",
"    X  ",
" X   . ",
"  .    ",
"    X  ",
" X   . ",
"  .    ",
"    X  ",
" X   . ",
"  .    ",
"    X  ",
" X   . ",
"  .    ",
"    X  ",
" X   . ",
"  .    ",
"    X  ",
" X   . ",
"  .    ",
"    X  ",
" X   . ",
"  .    ",
"    X  ",
" X   . ",
"  .    ",
"    X  ",
" X   . ",
"  .    ",
"    X  ",
" X   . ",
"  .    ",
"    X  ",
" X   . ",
"  .    ",
"    X  ",
" X   . ",
"  .    ",
"    X  ",
" X   . ",
"  .    ",
"    X  ",
" X   . ",
"  .    ",
"    X  ",
" X   . ",
"  .    ",
"    X  ",
" X   . ",
"  .    ",
"    X  ",
" X   . ",
"  .    ",
"    X  ",
" X   . ",
"  .    ",
"    X  ",
" X   . ",
"  .    ",
"    X  ",
" X   . ",
"  .    ",
"    X  ",
" X   . ",
"  .    ",
"    X  ",
" X   . ",
"  .    ",
"    X  ",
" X   . ",
"  .    ",
"    X  ",
" X   . ",
"  .    ",
"    X  "};
