/* XPM */
static char * vortexIcon_xpm[] = {
"11 11 6 1",
" 	c #FFFFFFFFFFFF",
".	c #FFFFF8F8FFFF",
"X	c #000000000000",
"o	c #000009090000",
"O	c #FFFFF7F7FFFF",
"+	c #FFFFF2F2FFFF",
" .XX   XXX ",
" X   oX   X",
" X  XO     ",
"  X X  XXX ",
"  X XXX   X",
"X  XXXXX  X",
"X   XXX X  ",
" XXX  X X  ",
"      X  X ",
"X   XX   X ",
" XXX   XX+ "};
