/* XPM */
static char * vortexGroup_xpm[] = {
"15 15 6 1",
" 	c #FFFFFFFFFFFF",
".	c #000000000000",
"X	c #FFFFF8F8FFFF",
"o	c #000009090000",
"O	c #FFFFF7F7FFFF",
"+	c #FFFFF2F2FFFF",
"    .......    ",
"  ...     ...  ",
" ..X..   .. .. ",
".. .   o.    ..",
".  .  .O      .",
".   . . ....  .",
".   . ...   . .",
". .  .....  . .",
". .   ... .   .",
".  .... . .   .",
"..      .  . ..",
" .    ..   . . ",
" .. ..   ..+.. ",
"  ...     ...  ",
"    .......    "};
