/* XPM */
static char * image_name[] = {
"32 32 197 2",
"  	c #C1C1C1C1C1C1",
". 	c #69698C8C6969",
"X 	c #11113E3E1111",
"o 	c #000027270000",
"O 	c #AFAFB2B2AFAF",
"+ 	c #8C8CA1A18C8C",
"@ 	c #8C8C98988C8C",
"# 	c #11112D2D1111",
"$ 	c #46466A6A4646",
"% 	c #AFAFB6B6AFAF",
"& 	c #00002B2B0000",
"* 	c #00002F2F0000",
"= 	c #696983836969",
"- 	c #7A7A86867A7A",
"; 	c #7A7A8A8A7A7A",
": 	c #232355552323",
"> 	c #8C8C94948C8C",
", 	c #34344B4B3434",
"< 	c #575775755757",
"1 	c #7A7A96967A7A",
"2 	c #000026260000",
"3 	c #34345B5B3434",
"4 	c #00001E1E0000",
"5 	c #00002E2E0000",
"6 	c #000033330000",
"7 	c #343457573434",
"8 	c #343460603434",
"9 	c #9D9DABAB9D9D",
"0 	c #7A7A8E8E7A7A",
"q 	c #7A7A92927A7A",
"w 	c #464673734646",
"e 	c #464677774646",
"r 	c #464666664646",
"t 	c #464659594646",
"y 	c #111136361111",
"u 	c #69697B7B6969",
"i 	c #34344F4F3434",
"p 	c #000023230000",
"a 	c #9D9DA7A79D9D",
"s 	c #696988886969",
"d 	c #9D9DA3A39D9D",
"f 	c #69697F7F6969",
"g 	c #46465E5E4646",
"h 	c #464662624646",
"j 	c #8C8C9D9D8C8C",
"k 	c #575770705757",
"l 	c #23234E4E4343",
"z 	c #57579B9BCACA",
"x 	c #34348E8EC9C9",
"c 	c #00005D5D8686",
"v 	c #6969A3A3C5C5",
"b 	c #8C8CB3B3CECE",
"n 	c #232340402323",
"m 	c #57579090B7B7",
"M 	c #00007A7AD0D0",
"N 	c #00008A8AEBEB",
"B 	c #00009696FDFD",
"V 	c #00009D9DFFFF",
"C 	c #0000A0A0FFFF",
"Z 	c #00009E9EFFFF",
"A 	c #34349292BDBD",
"S 	c #232347473A3A",
"D 	c #57577D7D5757",
"F 	c #232367678B8B",
"G 	c #00006F6FBEBE",
"H 	c #00008282DDDD",
"J 	c #00008E8EF1F1",
"K 	c #00009999FEFE",
"L 	c #0505A4A4FFFF",
"P 	c #0A0AAFAFFFFF",
"I 	c #0505ABABFFFF",
"U 	c #0000A3A3FFFF",
"Y 	c #4646A8A8E8E8",
"T 	c #AFAFBCBCC5C5",
"R 	c #46466E6E4646",
"E 	c #23234C4C5656",
"W 	c #00005A5A9A9A",
"Q 	c #00007272C3C3",
"! 	c #00008D8DF0F0",
"~ 	c #03039999FDFD",
"^ 	c #1F1FBDBDFFFF",
"/ 	c #4343E4E4FFFF",
"( 	c #1F1FC2C2FFFF",
") 	c #0404A7A7FFFF",
"_ 	c #34349393D0D0",
"` 	c #AFAFB2B2B4B4",
"' 	c #00003E3E6A6A",
"] 	c #00005B5B9C9C",
"[ 	c #00006E6EBBBB",
"{ 	c #00007D7DD6D6",
"} 	c #00008787E6E6",
"| 	c #05059797F8F8",
" .	c #2C2CC5C5FFFF",
"..	c #6464F4F4FFFF",
"X.	c #4141E0E0FFFF",
"o.	c #0808A7A7FFFF",
"O.	c #00009C9CFFFF",
"+.	c #343462624848",
"@.	c #696977776969",
"#.	c #696979797F7F",
"$.	c #00003D3D6868",
"%.	c #000059599797",
"&.	c #00006767B0B0",
"*.	c #00007676C9C9",
"=.	c #00008080D9D9",
"-.	c #00008A8AEAEA",
";.	c #0B0B9C9CFAFA",
":.	c #1C1CB1B1FEFE",
">.	c #1212AAAAFFFF",
",.	c #03039A9AFFFF",
"<.	c #00009494FBFB",
"1.	c #00008C8CEEEE",
"2.	c #7A7AA7A7C7C7",
"3.	c #00003C3C0000",
"4.	c #34344D4D5050",
"5.	c #000033335757",
"6.	c #000050508888",
"7.	c #00005E5EA0A0",
"8.	c #00006B6BB7B7",
"9.	c #00007F7FD8D8",
"0.	c #00008686E4E4",
"q.	c #01018D8DEFEF",
"w.	c #01019090F4F4",
"e.	c #00008F8FF4F4",
"r.	c #00008B8BECEC",
"t.	c #00008282DEDE",
"y.	c #57579696C2C2",
"u.	c #232351512323",
"i.	c #69697A7A8585",
"p.	c #00002C2C4B4B",
"a.	c #000040406C6C",
"s.	c #000054548F8F",
"d.	c #00006060A3A3",
"f.	c #00006C6CB8B8",
"g.	c #00007373C4C4",
"h.	c #00007B7BD2D2",
"j.	c #00008181DBDB",
"k.	c #00008080DADA",
"l.	c #00007979CECE",
"z.	c #232370708F8F",
"x.	c #575768685757",
"c.	c #111142421111",
"v.	c #8C8C95959C9C",
"b.	c #00002A2A4848",
"n.	c #000045457676",
"m.	c #000055559090",
"M.	c #00005F5FA2A2",
"N.	c #00006E6EBCBC",
"B.	c #00007474C5C5",
"V.	c #00007171C0C0",
"C.	c #00006767AFAF",
"Z.	c #69698B8B9F9F",
"A.	c #343453533434",
"S.	c #57576C6C5757",
"D.	c #000026263A3A",
"F.	c #00002D2D4D4D",
"G.	c #000035355A5A",
"H.	c #000045457575",
"J.	c #00004F4F8686",
"K.	c #000058589696",
"L.	c #00005D5D9F9F",
"P.	c #00006262A7A7",
"I.	c #00006565ACAC",
"U.	c #00006464ABAB",
"Y.	c #00004F4F8787",
"T.	c #11113A3A1111",
"R.	c #34344D4D5656",
"E.	c #00002A2A4747",
"W.	c #00002E2E4F4F",
"Q.	c #000034345858",
"!.	c #000046467777",
"~.	c #00004A4A7E7E",
"^.	c #000051518B8B",
"/.	c #000051518A8A",
"(.	c #000049497C7C",
").	c #11113A3A3F3F",
"_.	c #343464643434",
"`.	c #46465E5E6F6F",
"'.	c #000029294646",
"].	c #00002E2E4E4E",
"[.	c #000031315454",
"{.	c #000038386060",
"}.	c #00003B3B6565",
"|.	c #111137375151",
" X	c #575779795757",
".X	c #23233C3C2323",
"XX	c #23234C4C4040",
"oX	c #111135354E4E",
"OX	c #00002B2B4949",
"+X	c #000027274242",
"@X	c #464660606767",
"#X	c #696981817A7A",
"$X	c #000022222222",
"%X	c #46465C5C6767",
"&X	c #7A7A87879090",
"*X	c #404054544040",
"=X	c #343468683434",
"                . X o                                 O         ",
"                  + @                     + # $   % & *     = - ",
"            ; : +                 > , <   1 2 3   1 4 :   % 5 6 ",
"            7 2 &                 + 2 8   9 4 0   q , q   w 4 e ",
"              e r           t 7     y r                   % u % ",
"                          9 i p a                               ",
"          0 8 s %           + # >                               ",
"          , 2 4       d r %                                     ",
"          9 . f       g 4 h O   O O   j 4 7     d O             ",
"                      9 k l z x c v b a 4 <   9 4 n             ",
"          9 f f         m M N B V C Z A S a   u 4 D     a       ",
"          t 4 4 O   - F G H J K L P I U Y T   a =     R 4 -     ",
"O         @ s +     E W Q H ! ~ ^ / ( ) Z _ >       + 2 & 1     ",
";                 ` ' ] [ { } |  ...X.o.O.! +.        @.9     s ",
"            9 < n #.$.%.&.*.=.-.;.:.>.,.<.1.2.            9 3.p ",
"  q O       u 4 o 4.5.6.7.8.*.9.0.q.w.e.r.t.y.% r O       - 2 : ",
"u.4 u         f 9 i.p.a.s.d.f.g.h.9.j.j.k.l.z.& 4 x.        9   ",
"# c.9             v.b.5.n.m.M.&.N.g.g.B.V.C.Z.A.s 9             ",
"q     9 S.O       S.D.F.G.H.J.K.L.P.I.U.d.Y.                  @ ",
"    + T.4 j         R.E.W.Q.' !.~.^./.^.(.).    q = >           ",
"    > # _.    k >     `.'.].[.Q.{.{.}.5.|.-   O # 4 ,           ",
"      a      X4 S.  d .XXXoXE.OXOXOX+X@X        = = j           ",
"            X o 9   ; 4 =   #X$X%X&X*XA.O                       ",
"              a     r .X9     O     h 2 .X      0  X9           ",
"                                      k O       p 4 .X          ",
"                              @ 4 s             + . @           ",
"                              % y & O                           ",
"  f d               O   r o %   h @.          A.=X+             ",
" X4 =X  + .Xs   = 4 1   8 4 q                 X 2 y             ",
"3.5 +   R 4 .   R 4 s    X.XO                 9 3 -             ",
"> ;     X o     $ , a                       a                   ",
"          O                               n & s                 "};
