/* XPM */
static char * wndIcon4_xpm[] = {
"15 15 3 1",
" 	s bg	c #FFFF00000000",
".	s c1	c #000000000000",
"X	s c2	c #FFFFFFFFFFFF",
"               ",
"..............X",
"..............X",
"..............X",
".XXXXXXXXXXXX.X",
".X           .X",
".X           .X",
".X           .X",
".X           .X",
".X           .X",
".X           .X",
".X           .X",
"..............X",
"XXXXXXXXXXXXXX ",
"               "};
