/* XPM */
static char *magick[] = {
/* columns rows colors chars-per-pixel */
"32 32 253 2",
"   c Gray0",
".  c Gray2",
"X  c #050102",
"o  c #05020a",
"O  c #070808",
"+  c #0b0305",
"@  c #080000",
"#  c #0a050e",
"$  c #0c0c0c",
"%  c #0c090f",
"&  c #0c0418",
"*  c #170000",
"=  c #110000",
"-  c #11040e",
";  c #1a0000",
":  c #130a11",
">  c #121215",
",  c #111019",
"<  c #1d1d1d",
"1  c #180824",
"2  c #1d0c35",
"3  c #191929",
"4  c #220000",
"5  c #2d0000",
"6  c #300000",
"7  c #380000",
"8  c #311e32",
"9  c #262525",
"0  c #2f2f2f",
"q  c #212b37",
"w  c #2d213a",
"e  c #302e2e",
"r  c Gray21",
"t  c #393939",
"y  c #1f3b4d",
"u  c #271c71",
"i  c #242546",
"p  c #23224a",
"a  c #222650",
"s  c #2a2d52",
"d  c #3b2f5b",
"f  c #3f3561",
"g  c #244c52",
"h  c #364b4f",
"j  c #3b4e57",
"k  c #550000",
"l  c #5d0000",
"z  c #580000",
"x  c #433f3f",
"c  c #5e1e65",
"v  c #5f2358",
"b  c #4f2861",
"n  c #464646",
"m  c #494646",
"M  c #4a4949",
"N  c #41465e",
"B  c #554f4f",
"V  c #515151",
"C  c #5a5757",
"Z  c Gray37",
"A  c #605a5a",
"S  c #6e6d6d",
"D  c Gray39",
"F  c #7f687f",
"G  c Gray45",
"H  c #777676",
"J  c #7c7b7b",
"K  c #362ea5",
"L  c #451caa",
"P  c #5e11ac",
"I  c #7010ba",
"U  c #6b269b",
"Y  c #6737bb",
"T  c #7834b3",
"R  c #5d1dc2",
"E  c #4132cd",
"W  c #4832d0",
"Q  c #423dd4",
"!  c #5521c5",
"~  c #562cd3",
"^  c #5436ce",
"/  c #593bda",
"(  c #6615c0",
")  c #6d18c5",
"_  c #791ac9",
"`  c #652ecc",
"'  c #6429d2",
"]  c #6a30c9",
"[  c #6d37dc",
"{  c #50448e",
"}  c #6b418b",
"|  c #7556ab",
" . c #6963be",
".. c #6573ac",
"X. c #5b4dc5",
"o. c #5550d0",
"O. c #5e5ede",
"+. c #4846e0",
"@. c #4e51e0",
"#. c #425be3",
"$. c #524be8",
"%. c #5b5cef",
"&. c #4e60ee",
"*. c #4479e8",
"=. c #4c78ef",
"-. c #4d7df1",
";. c #5564f1",
":. c #5676f4",
">. c #5873f1",
",. c #557af4",
"<. c #6448c4",
"1. c #6e4cd1",
"2. c #6b5dcb",
"3. c #735bc4",
"4. c #6551e5",
"5. c #615ce1",
"6. c #685ef0",
"7. c #7145e2",
"8. c #7a5ce4",
"9. c #7454e1",
"0. c #6a64c6",
"q. c #7868ce",
"w. c #7a6bc4",
"e. c #7b6dd9",
"r. c #7b78cf",
"t. c #6b66ee",
"y. c #6d79ee",
"u. c #736fec",
"i. c #7a6ce0",
"p. c #7e7dee",
"a. c #7a77e8",
"s. c #7d74f4",
"d. c #757bf4",
"f. c #6991bd",
"g. c #4f89ec",
"h. c #4e8af2",
"j. c #4c90f0",
"k. c #5f82f4",
"l. c #6c8ad2",
"z. c #7788d8",
"x. c #6b80f6",
"c. c #6d89f3",
"v. c #6d98e9",
"b. c #6398f4",
"n. c #6a9af3",
"m. c #738cf3",
"M. c #7e9ae6",
"N. c #6eabee",
"B. c #6cb9e9",
"V. c #6ab5ec",
"C. c #7cabeb",
"Z. c #71bbe1",
"A. c #77b8e9",
"S. c #7bcddf",
"D. c #7cd2dc",
"F. c #75c1e7",
"G. c #7dc4e2",
"H. c #72cbe2",
"J. c #880000",
"K. c #940000",
"L. c #9a0000",
"P. c #a60000",
"I. c #ba0000",
"U. c #c50000",
"Y. c #c00000",
"T. c #ca0000",
"R. c #e70000",
"E. c #ef0000",
"W. c #f40000",
"Q. c #f10000",
"!. c Red",
"~. c #f90000",
"^. c #823fb9",
"/. c #8f21cd",
"(. c #8834da",
"). c #a62ec7",
"_. c #8959b0",
"`. c #8164be",
"'. c #8a79b3",
"]. c #8057c1",
"[. c #9558c0",
"{. c #9d59dd",
"}. c #8844e2",
"|. c #8853e0",
" X c #8765cd",
".X c #826fc5",
"XX c #8f6bcc",
"oX c #8b64ce",
"OX c #8564db",
"+X c #8671c0",
"@X c #817ade",
"#X c #9668ce",
"$X c #906fd0",
"%X c #916bdc",
"&X c #9074cd",
"*X c #977ac1",
"=X c #a049de",
"-X c #bb46c8",
";X c #af60c8",
":X c #838282",
">X c #8e8c8c",
",X c #939393",
"<X c #9d9c9c",
"1X c #8f9bbf",
"2X c Gray65",
"3X c #a8a5a5",
"4X c Gray68",
"5X c #b5b4b4",
"6X c #b1b1b1",
"7X c #bbb7b7",
"8X c #8a82c7",
"9X c #8f8ec6",
"0X c #8082d3",
"qX c #8c94ce",
"wX c #8e92d7",
"eX c #9585cd",
"rX c #959dc8",
"tX c #949dd6",
"yX c #8faed6",
"uX c #86b8df",
"iX c #96a6d3",
"pX c #81afee",
"aX c #8ea7e1",
"sX c #8face1",
"dX c #81b1e9",
"fX c #92a8e8",
"gX c #88cfd2",
"hX c #8bcbdc",
"jX c #c0bcbc",
"kX c #c2c1c1",
"lX c Gray78",
"zX c #cdcccc",
"xX c #cbcbcb",
"cX c #d3cccc",
"vX c #d2d2d2",
"bX c Gray84",
"nX c #d7d3d3",
"mX c #dad6d6",
"MX c #dadada",
"NX c #dedddd",
"BX c #dedada",
"VX c #e0dede",
"CX c #e2e1e1",
"ZX c Gray90",
"AX c #e4e3e3",
"SX c #e9e7e7",
"DX c #eaeaea",
"FX c #eeeeee",
"GX c #ecebeb",
"HX c Gray95",
"JX c #f6f6f6",
"KX c Gray98",
"LX c #fefefe",
/* pixels */
"                                                                ",
"                                                                ",
"                                                                ",
"                                                                ",
"                                                                ",
"                                                                ",
"                                                      o # o     ",
"      M ,X2X,XV .             @ ;           1 b } | w.r.z.0X+Xw ",
"  $ 6XLXLXLXLXLXzX9           * ~.P.7       '.rXyXuXG.G.S.D.gXh ",
"  6XLXLXLXLXLXLXKXMX9         * !.!.!.T.l @ rXiXsXdXA.F.H.D.hXj ",
"M LXLXKXDXAXJXLXKXJXzX.       * !.!.!.U.l + 9XtXaXC.N.V.B.C.fXN ",
"4XLXJXFXDXMXbXAXLXJXVXM       * E.K.5     . 8XqXwXM.n.b.m.e.OXd ",
"AXLXFXvXHXCXFXNXKXAX:XB       @ ;         % .X&X%Xa.m.x. .f { s ",
"zXLXHXMXHXzXvXVXJXAX3X5Xe     * W.L.6     # ].#X%Xi.p.c.l...f.g ",
"G JXDXAXCX5XvXAXKXJXSXcXjXC   ; !.!.!.U.l - ^._.oX8.t.k.n.pXZ.g ",
"  :XNXAXDX>XbXHXJXJXHXnX3XkXx ; !.!.!.Y.z - T _.`.8.%.;.:.m.v.y ",
"    D NXHXCXlXDXJXJXHXmX3X0   * Q.K.5     # Y 3.eXa.>.=.-.x.u.a ",
"    < NXNXFXNXCXJXKXHXnXm     @ =         # <.X.$X@Xg.j.h.d.u.p ",
"    t NXMXMXFXHXKXKXHXcXA     * R.J.4     # 2.o.1.O.*.-.,.s.0.3 ",
"    <XNXNXFXFXFXJXKXJXMX>X    * !.!.!.I.k % q.5.4.@.#.&.;.s.z.q ",
"  < bXzXxXCXDXDXFXKXCXH >     * !.!.!.U.z :  X9.7./ Q +.$.6.y.i ",
"  :X5X7XkXNXFXDXGXlX9         * W.L.6     , XX|.}.[ W E ~ ' ` 2 ",
"0 5X<X4XkXCXVX<XS               =         , *X{.=X(.' ! ( I P 1 ",
"$ n G J >XZ r                             O F ;X-X)./._ ) R L & ",
"      < .                                     8 v c U ] ^ K u o ",
"                                                                ",
"                                                                ",
"                                                                ",
"                                                                ",
"                                                                ",
"                                                                ",
"                                                                "
};
