/* XPM */
static char *magick[] = {
/* columns rows colors chars-per-pixel */
"32 32 242 2",
"   c Gray0",
".  c #020502",
"X  c #040504",
"o  c #020902",
"O  c #030e03",
"+  c #050905",
"@  c #040f04",
"#  c #080908",
"$  c #0a0d0a",
"%  c Gray5",
"&  c #041104",
"*  c #041404",
"=  c #071c07",
"-  c #061906",
";  c #0a110a",
":  c #0a150a",
">  c #0d110d",
",  c #0d160d",
"<  c #0b1a0b",
"1  c #101010",
"2  c #121612",
"3  c #161716",
"4  c #131b13",
"5  c #141814",
"6  c #141e14",
"7  c #191919",
"8  c #181f18",
"9  c Gray12",
"0  c #092109",
"q  c #092509",
"w  c #0e220e",
"e  c #092909",
"r  c #0c2d0c",
"t  c #0c2c0c",
"y  c #0b310b",
"u  c #0d360d",
"i  c #0f3f0f",
"p  c #0e3a0e",
"a  c #102010",
"s  c #162216",
"d  c #162616",
"f  c #122812",
"g  c #1f221f",
"h  c #182818",
"j  c #192d19",
"k  c #123312",
"l  c #123812",
"z  c #103e10",
"x  c #153d15",
"c  c #183b18",
"v  c #1e381e",
"b  c #202520",
"n  c #272727",
"m  c #213121",
"M  c #233923",
"N  c #373737",
"B  c #323232",
"V  c #363c36",
"C  c #3a3a3a",
"Z  c #3c3c3c",
"A  c #3a3d3a",
"S  c #0f430f",
"D  c #104410",
"F  c #114911",
"G  c #124c12",
"H  c #144e14",
"J  c #125112",
"K  c #145314",
"L  c #155515",
"P  c #155a15",
"I  c #155e15",
"U  c #1c591c",
"Y  c #1d5c1d",
"T  c #176417",
"R  c #166216",
"E  c #186618",
"W  c #1f611f",
"Q  c #196919",
"!  c #196e19",
"~  c #1f6f1f",
"^  c #1b721b",
"/  c #1b761b",
"(  c #1e721e",
")  c #1e761e",
"_  c #1b791b",
"`  c #1e7a1e",
"'  c #1e7d1e",
"]  c #224022",
"[  c #244324",
"{  c #2f452f",
"}  c #2c492c",
"|  c #2b5d2b",
" . c #365536",
".. c #375f37",
"X. c #3b573b",
"o. c #226122",
"O. c #216721",
"+. c #256425",
"@. c #226a22",
"#. c #226e22",
"$. c #246a24",
"%. c #2d612d",
"&. c #2e6b2e",
"*. c #2e6c2e",
"=. c #217121",
"-. c #217f21",
";. c #316731",
":. c #326932",
">. c #396839",
",. c #434343",
"<. c #464646",
"1. c #494949",
"2. c #4c4c4c",
"3. c Gray34",
"4. c Gray32",
"5. c #585858",
"6. c Gray37",
"7. c #426342",
"8. c #426442",
"9. c #447444",
"0. c #516651",
"q. c #586a58",
"w. c #557555",
"e. c #5e7b5e",
"r. c Gray39",
"t. c Gray40",
"y. c #6a6a6a",
"u. c #6c6c6c",
"i. c #667066",
"p. c #6f726f",
"a. c #717271",
"s. c #747e74",
"d. c #7b7b7b",
"f. c #7c7c7c",
"g. c #1e811e",
"h. c #1e851e",
"j. c #1f891f",
"k. c #1f8e1f",
"l. c #218221",
"z. c #248324",
"x. c #258625",
"c. c #218921",
"v. c #218f21",
"b. c #258925",
"n. c #258c25",
"m. c #298a29",
"M. c #298f29",
"N. c #219121",
"B. c #229522",
"V. c #269726",
"C. c #239923",
"Z. c #259825",
"A. c #2e912e",
"S. c #319231",
"D. c #339633",
"F. c #369736",
"G. c #339933",
"H. c #379d37",
"J. c #399e39",
"K. c #27a127",
"L. c #29a429",
"P. c #2fbf2f",
"I. c #2bb32b",
"U. c #31a031",
"Y. c #3cae3c",
"T. c #30b330",
"R. c #34c234",
"E. c #31c631",
"W. c #35cd35",
"Q. c #34d534",
"!. c #3cd13c",
"~. c #38dc38",
"^. c #39e339",
"/. c #3ee63e",
"(. c #3be93b",
"). c #478547",
"_. c #558e55",
"`. c #41a541",
"'. c #44a644",
"]. c #44a944",
"[. c #4bae4b",
"{. c #4fb14f",
"}. c #4eba4e",
"|. c #5ca75c",
" X c #50b650",
".X c #5abd5a",
"XX c #6b9b6b",
"oX c #738473",
"OX c #768076",
"+X c #748474",
"@X c #788478",
"#X c #6dbc6d",
"$X c #70b270",
"%X c #44d044",
"&X c #49de49",
"*X c #5bc05b",
"=X c #58d958",
"-X c #43ec43",
";X c #43f343",
":X c #4ff04f",
">X c #4ff44f",
",X c #53f953",
"<X c #60c460",
"1X c #68cb68",
"2X c #68cc68",
"3X c #68db68",
"4X c #74cc74",
"5X c #73d773",
"6X c #6de16d",
"7X c #6eeb6e",
"8X c Gray51",
"9X c #868686",
"0X c #848f84",
"qX c Gray54",
"wX c #8d8d8d",
"eX c #839383",
"rX c #869786",
"tX c #8c968c",
"yX c #8d9d8d",
"uX c #929292",
"iX c Gray59",
"pX c #9a9a9a",
"aX c #9d9d9d",
"sX c #949c94",
"dX c #84a284",
"fX c #87ae87",
"gX c #8eb08e",
"hX c #96a296",
"jX c #9aa09a",
"kX c #98a798",
"lX c #9ea09e",
"zX c #9da59d",
"xX c #90b390",
"cX c #a1a2a1",
"vX c #a5a5a5",
"bX c #aaaeaa",
"nX c #babbba",
"mX c Gray74",
"MX c #8dc28d",
"NX c #c3c3c3",
"BX c #c6c6c6",
"VX c #cacaca",
/* pixels */
"BXVXVXVXVXVXVXVXBXBXBXBXNXmXd.7                           1 5.iX",
"BXVXVXVXVXVXVXVXVXBXBXBXBXmXd.7                           1 5.iX",
"VXVXVXVXVXVXVXVXVXBXBXBXNXmXd.7                           1 5.iX",
"VXVXVXVXVXVXVXVXVXVXBXBXBXmXf.7                           1 5.iX",
"VXVXVXVXVXVXVXVXVXVXBXBXmXbXp.g $ # X .                   1 5.iX",
"VXVXVXVXVXVXVXVXVXBXnXjXOXq.X.[ v j d s $                 1 5.iX",
"VXVXVXVXVXVXVXVXNXbX+X7.| o.@.@.U x f d 6 ; +             1 5.iX",
"BXVXVXVXVXVXVXNXjXe.:.@.~ ( ) ) Q G r : $ > , +           1 5.iX",
"BXVXVXVXVXVXBXjXw.&.=.) ` ` ' ` ^ P i 0 o X $ > #         1 5.iX",
"BXVXVXVXVXBXbXe.*.=.) ` ' -.g.' ) E G y * . X > 5 #       1 5.iX",
"BXVXVXVXVXnXoX;.@.) ' z.m.m.x.z.` Q L i 0 o   + 2 2 X     1 5.iX",
"BXBXVXVXBXjX8.O.) ` x.F.`.`.D.b.' ! I F r & . . $ s >     1 3.iX",
"NXBXBXBXmX@X%.( ` -.S.{.1X<X`.M.' ^ T J p = o . + d d X   1 3.iX",
"aXcXcXcXiX0.+.( ` z.F..X5X2X].M.g./ Q P S e & o O a M g 9 n 4.d.",
"Z Z C C A } $.) ` z.S.[.*X XH.n.g._ ! R G u = & & w  .i.a.y.2.B ",
"X X X X > ] @.) ' z.b.D.J.G.M.c.h.' / ! P S e = = t ..eXaXwX2.% ",
"        $ ] @.) ' g.z.b.b.c.c.j.j.h.g._ Q J u e e l >.rXcXwX2.# ",
"        # v o.) ' ' g.g.h.h.h.j.k.k.j.h./ I D p z Y ).yXcXwX<.# ",
"X       X h c L ( ' g.g.g.h.j.v.N.B.B.v.g.E K L ( U.|.hXaXwX<.# ",
"X       . 6 s 0 D E ` g.g.h.j.N.B.C.C.B.h.^ ) V.R.%X$XjXaXwX<.# ",
"          $ 5 $ & e F E / g.j.N.B.C.C.B.N.K.P.~.-X=XfXjXaXwX<.# ",
"X           ; > X . O 0 p G I Q / _ h.B.I.Q.(.;X:X4XkXaXaXqX<.# ",
"            + : $ X     . O - q u G ! Z.E.^.;X,X6XxXjXaXpXqX<.# ",
"              + > > +     . o O 0 D ( L.W./.>X7XMXzXaXaXpXqX<.# ",
"                # 5 3 $ + . o + q H z.T.!.&X3XMXzXaXaXpXpXqX<.# ",
"                  # 3 8 6 , ; < k o.A.Y.}.#XgXzXaXaXpXpXiX9X,.# ",
"                    X > 6 s m {  .9._.XXdXjXjXaXaXpXpXpXiX9X,.# ",
"X                       . $ V s.0XtXsXjXjXaXaXaXaXpXpXiXiX9X,.# ",
"X   X X X X X X X X X X X # C qXaXaXaXaXpXpXpXiXiXiXuXuXuX8X,.# ",
"C C C N N N N N N N N N N N <.r.u.u.y.y.y.y.y.r.r.r.r.r.r.5.<.B ",
"qXwXwXwXwXwXwXwXwXwXqXqXqX9X6.n 7 7 7 7 7 7 7 3 7 3 3 3 3 9 2.a.",
"cXvXvXvXvXvXvXvXvXcXcXcXcXaXr.3                           % 2.8X"
};
