/* XPM */
static char *magick[] = {
/* columns rows colors chars-per-pixel */
"32 32 256 2",
"   c Gray0",
".  c #070707",
"X  c #080000",
"o  c #090909",
"O  c Gray5",
"+  c Gray6",
"@  c #120000",
"#  c #170000",
"$  c #1a0000",
"%  c #1d0000",
"&  c #1e0000",
"*  c Gray11",
"=  c #1d1d1d",
"-  c #240000",
";  c #270000",
":  c #2b0000",
">  c #2d0000",
",  c #340000",
"<  c #3b0000",
"1  c #3d0000",
"2  c #272727",
"3  c #282828",
"4  c #2a2a2a",
"5  c #2c2c2c",
"6  c #2d2d2d",
"7  c Gray18",
"8  c #2f2f2f",
"9  c Gray19",
"0  c #353535",
"q  c #373737",
"w  c #3c3c3c",
"e  c #3f3f3f",
"r  c #400000",
"t  c #4a0000",
"y  c #4b0000",
"u  c #4e0000",
"i  c #4f0000",
"p  c #510000",
"a  c #520000",
"s  c #530000",
"d  c #550000",
"f  c #570000",
"g  c #580000",
"h  c #590000",
"j  c #5a0000",
"k  c #5e0000",
"l  c #630000",
"z  c #640000",
"x  c #6c0000",
"c  c #6d0000",
"v  c #6f0000",
"b  c #700000",
"n  c #710000",
"m  c #730000",
"M  c #740000",
"N  c #750000",
"B  c #780000",
"V  c #790000",
"C  c #7b0000",
"Z  c #7d0000",
"A  c #7f0000",
"S  c #414141",
"D  c #434343",
"F  c #444444",
"G  c Gray28",
"H  c #494949",
"J  c Gray29",
"K  c #4b4b4b",
"L  c Gray30",
"P  c Gray31",
"I  c #535353",
"U  c Gray33",
"Y  c #555555",
"T  c #565656",
"R  c #5b5b5b",
"E  c Gray36",
"W  c Gray37",
"Q  c Gray40",
"!  c #676767",
"~  c #686868",
"^  c #6a6a6a",
"/  c Gray42",
"(  c #6c6c6c",
")  c #6d6d6d",
"_  c #727272",
"`  c Gray45",
"'  c #767676",
"]  c #797979",
"[  c Gray48",
"{  c Gray",
"}  c Gray50",
"|  c #810000",
" . c #830000",
".. c #860000",
"X. c #880000",
"o. c #8b0000",
"O. c #8c0000",
"+. c #8d0000",
"@. c #8e0000",
"#. c #900000",
"$. c #910000",
"%. c #920000",
"&. c #940000",
"*. c #950000",
"=. c #970000",
"-. c #980000",
";. c #990000",
":. c #9a0000",
">. c #9b0000",
",. c #9c0000",
"<. c #9e0000",
"1. c #9f0000",
"2. c #a00000",
"3. c #a10000",
"4. c #a20000",
"5. c #a30000",
"6. c #a40000",
"7. c #a50000",
"8. c #a60000",
"9. c #a70000",
"0. c #a80000",
"q. c #a90000",
"w. c #aa0000",
"e. c #ab0000",
"r. c #ac0000",
"t. c #ad0000",
"y. c #af0000",
"u. c #b10000",
"i. c #b20000",
"p. c #b30000",
"a. c #b40000",
"s. c #b50000",
"d. c #b60000",
"f. c #b70000",
"g. c #b80000",
"h. c #b90000",
"j. c #ba0000",
"k. c #bb0000",
"l. c #bc0000",
"z. c #bd0000",
"x. c #be0000",
"c. c #bf0000",
"v. c #c00000",
"b. c #c10000",
"n. c #c20000",
"m. c #c30000",
"M. c #c40000",
"N. c #c50000",
"B. c #c60000",
"V. c #c70000",
"C. c #c80000",
"Z. c #c90000",
"A. c #ca0000",
"S. c #cb0000",
"D. c #808080",
"F. c #818181",
"G. c #868686",
"H. c #898989",
"J. c Gray54",
"K. c #8b8b8b",
"L. c Gray55",
"P. c #8d8d8d",
"I. c #8e8e8e",
"U. c Gray56",
"Y. c #909090",
"T. c Gray57",
"R. c #939393",
"E. c #979797",
"W. c Gray60",
"Q. c #9b9b9b",
"!. c Gray61",
"~. c #9d9d9d",
"^. c Gray62",
"/. c #9f9f9f",
"(. c Gray63",
"). c #a2a2a2",
"_. c Gray64",
"`. c #a5a5a5",
"'. c Gray65",
"]. c #a7a7a7",
"[. c #a9a9a9",
"{. c #aaaaaa",
"}. c Gray67",
"|. c #acacac",
" X c Gray68",
".X c #aeaeae",
"XX c #afafaf",
"oX c Gray69",
"OX c #b1b1b1",
"+X c Gray70",
"@X c #b4b4b4",
"#X c #b6b6b6",
"$X c Gray72",
"%X c #b9b9b9",
"&X c #bbbbbb",
"*X c #bcbcbc",
"=X c Gray74",
"-X c #bebebe",
";X c Gray75",
":X c #c0c0c0",
">X c #c1c1c1",
",X c Gray76",
"<X c #c3c3c3",
"1X c Gray77",
"2X c #c5c5c5",
"3X c #c6c6c6",
"4X c Gray78",
"5X c #c8c8c8",
"6X c Gray79",
"7X c #cacaca",
"8X c Gray80",
"9X c #cdcdcd",
"0X c #cecece",
"qX c Gray81",
"wX c #d0d0d0",
"eX c Gray82",
"rX c #d2d2d2",
"tX c #d3d3d3",
"yX c Gray83",
"uX c Gray84",
"iX c #d7d7d7",
"pX c #d8d8d8",
"aX c Gray85",
"sX c #dadada",
"dX c Gray86",
"fX c gainsboro",
"gX c #dddddd",
"hX c Gray87",
"jX c #dfdfdf",
"kX c Gray88",
"lX c #e1e1e1",
"zX c #e2e2e2",
"xX c Gray89",
"cX c #e4e4e4",
"vX c Gray90",
"bX c #e6e6e6",
"nX c #e7e7e7",
"mX c Gray91",
"MX c #e9e9e9",
"NX c #eaeaea",
"BX c Gray92",
"VX c #ececec",
"CX c Gray93",
"ZX c #eeeeee",
"AX c #efefef",
"SX c Gray94",
"DX c #f1f1f1",
"FX c #f3f3f3",
"GX c #f4f4f4",
"HX c Gray96",
"JX c #f6f6f6",
"KX c #f8f8f8",
"LX c #f9f9f9",
"PX c Gray98",
"IX c #fdfdfd",
"UX c #fefefe",
/* pixels */
"                                                                ",
"                                                                ",
"                            7.rXrX7X,X                          ",
"                    s.p.s.s.s.bXMXZXZXZXMXlX7X                  ",
"              s.s.p.r.7.7.7.q.sXlXMXSXJXLXLXSXMXrXH.            ",
"            z.s.q.,.&.%.+.+.&.,XqXsXbXZXLXIXIXLXSXlX,X          ",
"        k.z.p.7.&.o.B b c b M (.OX,XrXlXZXLXIXIXLXZXhX;X        ",
"        m.k.r.-.| c k u t u p [ L./.$XqXhXZXJXLXLXJXMXsX$X      ",
"      B.m.s.3.o.M j 1 > ; ; : G E ` Y..X1XsXMXSXJXJXZXlX1XQ.    ",
"    B.Z.m.s.7.+.b t ; X       . * 0 R F.`.,XsXbXZXZXMXlXrXOX^   ",
"    B.Z.m.s.7.%.M u &                 w [ `.1XsXbXMXbXhXqX@XY.  ",
"    Z.Z.B.z.p.3.+.c <                   6 H.;XiXlXbXlXhXqX@XY.J ",
"  q.Z.Z.Z.m.k.r.3.%.B p                   [.qXsXlXlXhXrX1XOXY.J ",
"  s.B.Z.Z.B.m.k.p.7.-.%.| b           .X;XrXsXhXhXhXsXqX;X[.L.G ",
"  q.m.Z.Z.Z.B.m.z.s.p.q.7.3.,.1X1X1XqXrXiXhXhXhXhXsXrX1X@X(.{ 0 ",
"  &.k.B.Z.Z.Z.B.m.m.z.k.s.p.p.hXhXhXhXhXlXlXlXhXiXrX7X;X[.L.^ 3 ",
"    r.z.m.B.B.B.B.B.m.z.z.k.k.bXbXbXbXlXlXhXhXsXrX1X;X.X/.{ I + ",
"    -.p.k.z.m.B.B.m.m.m.m.z.z.MXMXbXbXlXhXsXiXrX1X;XOX/.L.( 9   ",
"      ,.r.s.k.z.z.z.z.z.z.z.k.bXbXlXlXsXiXrX7X1X;X.X/.H.' L     ",
"      A -.7.p.s.s.s.s.k.k.s.s.lXhXsXsXrXqX1X;X@X[.Q.H.` U 6     ",
"        M %.3.7.q.r.r.p.r.r.r.iXrXqXqX1X;X@X[.(.Q.G.( L 6       ",
"          c o.%.&.,.,.3.3.3.3.1X,X;X$XOX[.(.E.H.{ Q J *         ",
"            z b A ..+.%.%.%.+.OX.X[.`./.Y.G.[ ( E w +           ",
"              , f l c B B B B Y.Y.L.H.F.` Q U S 6               ",
"                  @ r p j j f ^ ^ ^ Q U G 9 *                   ",
"                        # $ & 2 3 6 6 o                         ",
"                                                                ",
"                                                                ",
"                                                                ",
"                                                                ",
"                                                                ",
"                                                                "
};
