/* XPM */
static char *magick[] = {
/* columns rows colors chars-per-pixel */
"32 32 208 2",
"   c Gray0",
".  c #010101",
"X  c #020202",
"o  c Gray1",
"O  c #040404",
"+  c Gray2",
"@  c #060606",
"#  c #070707",
"$  c Gray3",
"%  c #090909",
"&  c Gray4",
"*  c Gray5",
"=  c #101010",
"-  c #151515",
";  c #161616",
":  c #181818",
">  c #191919",
",  c #1b1b1b",
"<  c Gray11",
"1  c #1d1d1d",
"2  c Gray12",
"3  c Gray13",
"4  c #222222",
"5  c Gray14",
"6  c Gray15",
"7  c #272727",
"8  c #282828",
"9  c #2a2a2a",
"0  c #2c2c2c",
"q  c Gray19",
"w  c #313131",
"e  c #323232",
"r  c Gray20",
"t  c Gray21",
"y  c Gray22",
"u  c Gray23",
"i  c #3c3c3c",
"p  c Gray24",
"a  c #3e3e3e",
"s  c #3f3f3f",
"d  c #414141",
"f  c Gray26",
"g  c #434343",
"h  c #444444",
"j  c Gray27",
"k  c #464646",
"l  c #484848",
"z  c #494949",
"x  c #4b4b4b",
"c  c #4c4c4c",
"v  c Gray30",
"b  c #4e4e4e",
"n  c Gray31",
"m  c #505050",
"M  c #515151",
"N  c Gray32",
"B  c Gray33",
"V  c #555555",
"C  c #565656",
"Z  c Gray34",
"A  c #585858",
"S  c Gray35",
"D  c #5a5a5a",
"F  c #5b5b5b",
"G  c Gray36",
"H  c Gray37",
"J  c #5f5f5f",
"K  c #606060",
"L  c Gray38",
"P  c #626262",
"I  c #646464",
"U  c #656565",
"Y  c Gray40",
"T  c #686868",
"R  c #6a6a6a",
"E  c Gray42",
"W  c #6c6c6c",
"Q  c #6d6d6d",
"!  c Gray43",
"~  c #6f6f6f",
"^  c Gray44",
"/  c #717171",
"(  c Gray45",
")  c #747474",
"_  c Gray46",
"`  c #767676",
"'  c #777777",
"]  c Gray47",
"[  c #797979",
"{  c #7b7b7b",
"}  c #7c7c7c",
"|  c Gray49",
" . c Gray",
".. c Gray50",
"X. c #808080",
"o. c #818181",
"O. c Gray51",
"+. c #838383",
"@. c #848484",
"#. c Gray52",
"$. c #868686",
"%. c Gray53",
"&. c #888888",
"*. c #898989",
"=. c Gray54",
"-. c #8b8b8b",
";. c Gray55",
":. c #8d8d8d",
">. c #8e8e8e",
",. c Gray56",
"<. c #909090",
"1. c Gray57",
"2. c #929292",
"3. c #939393",
"4. c Gray58",
"5. c #959595",
"6. c Gray59",
"7. c #979797",
"8. c #989898",
"9. c Gray60",
"0. c #9a9a9a",
"q. c #9b9b9b",
"w. c Gray61",
"e. c #9d9d9d",
"r. c Gray62",
"t. c #9f9f9f",
"y. c #a0a0a0",
"u. c Gray63",
"i. c #a2a2a2",
"p. c Gray64",
"a. c #a4a4a4",
"s. c #a5a5a5",
"d. c Gray65",
"f. c #a7a7a7",
"g. c Gray66",
"h. c #a9a9a9",
"j. c #aaaaaa",
"k. c Gray67",
"l. c #acacac",
"z. c Gray68",
"x. c #aeaeae",
"c. c #afafaf",
"v. c Gray69",
"b. c #b1b1b1",
"n. c #b2b2b2",
"m. c Gray70",
"M. c #b4b4b4",
"N. c Gray71",
"B. c #b6b6b6",
"V. c #b7b7b7",
"C. c Gray72",
"Z. c #b9b9b9",
"A. c Gray73",
"S. c #bbbbbb",
"D. c #bcbcbc",
"F. c Gray74",
"G. c #bebebe",
"H. c Gray75",
"J. c #c0c0c0",
"K. c #c1c1c1",
"L. c Gray76",
"P. c #c3c3c3",
"I. c Gray77",
"U. c #c6c6c6",
"Y. c Gray78",
"T. c #c8c8c8",
"R. c Gray79",
"E. c #cacaca",
"W. c #cbcbcb",
"Q. c Gray80",
"!. c #cdcdcd",
"~. c #cecece",
"^. c Gray81",
"/. c #d0d0d0",
"(. c Gray82",
"). c #d2d2d2",
"_. c #d3d3d3",
"`. c Gray83",
"'. c #d5d5d5",
"]. c Gray84",
"[. c #d7d7d7",
"{. c #d8d8d8",
"}. c Gray85",
"|. c #dadada",
" X c Gray86",
".X c gainsboro",
"XX c #dddddd",
"oX c Gray87",
"OX c #dfdfdf",
"+X c Gray88",
"@X c #e1e1e1",
"#X c #e2e2e2",
"$X c #e6e6e6",
"%X c Gray91",
"&X c #e9e9e9",
"*X c Gray92",
"=X c #ececec",
"-X c Gray93",
";X c #eeeeee",
":X c #efefef",
">X c Gray94",
",X c #f4f4f4",
"<X c Gray96",
"1X c #f6f6f6",
"2X c #f8f8f8",
"3X c Gray98",
"4X c #fbfbfb",
"5X c Gray100",
/* pixels */
"                                                                ",
"                                                                ",
"                                                                ",
"  @ $ $ $ $ $ $ $ $ $ * $                                       ",
"< ~ ' ' ' ' ' ' ' ' ' | L $                                     ",
"4 0.i.i.i.i.i.t.i.i.i.s.3.s                                     ",
": >.4.4.4.4.4.4.4.4.4.4.0.R                                     ",
"= -.4.3.4.4.4.4.4.3.4.4.0.(               8 m L S u $           ",
"$ -.4.3.3.3.3.3.3.3.3.3.4.R           7 ( n.+X<X-X!.4.g         ",
"  -.3.3.3.3.>.3.3.3.>.3.3.U         e i.$X-X*X*X*X<X5XXXH       ",
"  @.3.3.>.3.3.>.3.>.>.3.>.H       4 0.P.Y.!.(.(.'.'.'.*X XS     ",
"  | >.>.>.>.>.>.>.>.>.3.-.V     @ U 4.l.S.F.P.Y.Y.Y.Y.Y.'.S.:   ",
"  ' >.>.>.>.>.>.>.>.>.>.@.c     : R 3.s.l.n.M.S.S.M.S.S.F.M.~   ",
"  ~ -.>.-.-.-.-.>.-.-.>.+.g     8 U @.4.i.s.s.k.k.k.k.k.k.l.-.  ",
"@ R -.-.-.-.-.-.-.-.-.>.+.s   $ 8 H | -.3.3.0.0.0.0.0.0.0.t.-.@ ",
"@.-.-.-.-.@.-.-.-.-.-.>.' m >.+.s V ( | +.@.-.-.-.-.-.-.-.-.-.@.",
"<Xl.-.-.-.@.-.-.-.-.@.-.( L 5X-XL c U ( ] ] | | | | | | | | 0.4X",
"4XM.-.@.@.@.@.@.@.@.@.-.~ H 5X<X0.s m L R ~ ( ( ( ( ( ( ~ ' M.5X",
"<XM.-.@.@.@.@.@.@.@.+.-.~ S 4X-XXXs s c V S H H H H H H V ~ >X4X",
"-XM.-.+.@.@.@.@.+.+.+.-.~ V XX'. Xi.e e g x x c c c x s c M.4X<X",
"+Xn.-.+.+.+.+.+.+.+.+.@.( V l.s.i.s.~ 0 7 e t u u e 8 j t.+X$X*X",
"Y.s.@.@.>.>.>.>.>.>.>.3.] c U U U H S t < - - : : 7 g ] l.F.Y.(.",
"k.4.+.L c x x j x x x x c x c m m x g s 0 < : : < e V ] -.0.k.M.",
"M.k.>.U c j j j j j g j V ' ' ' ( ~ R L S V m m V L R ] -.0.s.n.",
"Y.S.s.t.4.4.3.3.3.>.3.4.t.s.i.t.0.4.3.3.>.-.-.>.>.3.4.t.i.k.n.M.",
"P.F.S.M.n.n.l.k.k.l.l.n.M.M.n.n.n.n.l.k.k.k.k.k.l.l.n.n.M.S.F.P.",
"E.Y.Y.P.P.F.F.F.F.F.F.P.P.P.P.P.P.F.F.F.F.F.S.F.F.P.P.P.Y.E.E.!.",
"!.!.!.E.E.E.E.E.E.E.E.!.E.E.E.E.E.E.E.E.E.Y.E.E.E.E.!.!.!.(.(.(.",
"'.(.(.(.(.(.(.(.(.(.(.(.(.(.(.(.(.(.(.(.(.(.(.!.(.(.(.'.'.'.'. X",
"'. X X'.'.'.'.'.'.'. X'.'.'.'. X'.'.'.'.'.'. X X'.'. X X X X XXX",
" XXX X X XXX X XXX X XXXXX XXX X X X X XXXXXXXXXXXXXXXXXXXXXXXXX",
"XXXX+XXXXXXXXXXXXXXXXX+XXXXXXXXXXXXXXXXXXXXXXXXXXX+X+X+X+X+X+X+X"
};
