/* XPM */
static char *magick[] = {
/* columns rows colors chars-per-pixel */
"32 32 256 2",
"   c Gray0",
".  c #330000",
"X  c #660000",
"o  c #990000",
"O  c #cc0000",
"+  c Red",
"@  c #003300",
"#  c #333300",
"$  c #663300",
"%  c #993300",
"&  c #cc3300",
"*  c #ff3300",
"=  c #006600",
"-  c #336600",
";  c #666600",
":  c #996600",
">  c #cc6600",
",  c #ff6600",
"<  c #009900",
"1  c #339900",
"2  c #669900",
"3  c #999900",
"4  c #cc9900",
"5  c #ff9900",
"6  c #00cc00",
"7  c #33cc00",
"8  c #66cc00",
"9  c #99cc00",
"0  c #cccc00",
"q  c #ffcc00",
"w  c Green",
"e  c #33ff00",
"r  c #66ff00",
"t  c #99ff00",
"y  c #ccff00",
"u  c Yellow",
"i  c #000033",
"p  c #330033",
"a  c #660033",
"s  c #990033",
"d  c #cc0033",
"f  c #ff0033",
"g  c #003333",
"h  c Gray20",
"j  c #663333",
"k  c #993333",
"l  c #cc3333",
"z  c #ff3333",
"x  c #006633",
"c  c #336633",
"v  c #666633",
"b  c #996633",
"n  c #cc6633",
"m  c #ff6633",
"M  c #009933",
"N  c #339933",
"B  c #669933",
"V  c #999933",
"C  c #cc9933",
"Z  c #ff9933",
"A  c #00cc33",
"S  c #33cc33",
"D  c #66cc33",
"F  c #99cc33",
"G  c #cccc33",
"H  c #ffcc33",
"J  c #00ff33",
"K  c #33ff33",
"L  c #66ff33",
"P  c #99ff33",
"I  c #ccff33",
"U  c #ffff33",
"Y  c #000066",
"T  c #330066",
"R  c #660066",
"E  c #990066",
"W  c #cc0066",
"Q  c #ff0066",
"!  c #003366",
"~  c #333366",
"^  c #663366",
"/  c #993366",
"(  c #cc3366",
")  c #ff3366",
"_  c #006666",
"`  c #336666",
"'  c Gray40",
"]  c #996666",
"[  c #cc6666",
"{  c #ff6666",
"}  c #009966",
"|  c #339966",
" . c #669966",
".. c #999966",
"X. c #cc9966",
"o. c #ff9966",
"O. c #00cc66",
"+. c #33cc66",
"@. c #66cc66",
"#. c #99cc66",
"$. c #cccc66",
"%. c #ffcc66",
"&. c #00ff66",
"*. c #33ff66",
"=. c #66ff66",
"-. c #99ff66",
";. c #ccff66",
":. c #ffff66",
">. c #000099",
",. c #330099",
"<. c #660099",
"1. c #990099",
"2. c #cc0099",
"3. c #ff0099",
"4. c #003399",
"5. c #333399",
"6. c #663399",
"7. c #993399",
"8. c #cc3399",
"9. c #ff3399",
"0. c #006699",
"q. c #336699",
"w. c #666699",
"e. c #996699",
"r. c #cc6699",
"t. c #ff6699",
"y. c #009999",
"u. c #339999",
"i. c #669999",
"p. c Gray60",
"a. c #cc9999",
"s. c #ff9999",
"d. c #00cc99",
"f. c #33cc99",
"g. c #66cc99",
"h. c #99cc99",
"j. c #cccc99",
"k. c #ffcc99",
"l. c #00ff99",
"z. c #33ff99",
"x. c #66ff99",
"c. c #99ff99",
"v. c #ccff99",
"b. c #ffff99",
"n. c #0000cc",
"m. c #3300cc",
"M. c #6600cc",
"N. c #9900cc",
"B. c #cc00cc",
"V. c #ff00cc",
"C. c #0033cc",
"Z. c #3333cc",
"A. c #6633cc",
"S. c #9933cc",
"D. c #cc33cc",
"F. c #ff33cc",
"G. c #0066cc",
"H. c #3366cc",
"J. c #6666cc",
"K. c #9966cc",
"L. c #cc66cc",
"P. c #ff66cc",
"I. c #0099cc",
"U. c #3399cc",
"Y. c #6699cc",
"T. c #9999cc",
"R. c #cc99cc",
"E. c #ff99cc",
"W. c #00cccc",
"Q. c #33cccc",
"!. c #66cccc",
"~. c #99cccc",
"^. c Gray80",
"/. c #ffcccc",
"(. c #00ffcc",
"). c #33ffcc",
"_. c #66ffcc",
"`. c #99ffcc",
"'. c #ccffcc",
"]. c #ffffcc",
"[. c Blue",
"{. c #3300ff",
"}. c #6600ff",
"|. c #9900ff",
" X c #cc00ff",
".X c Magenta",
"XX c #0033ff",
"oX c #3333ff",
"OX c #6633ff",
"+X c #9933ff",
"@X c #cc33ff",
"#X c #ff33ff",
"$X c #0066ff",
"%X c #3366ff",
"&X c #6666ff",
"*X c #9966ff",
"=X c #cc66ff",
"-X c #ff66ff",
";X c #0099ff",
":X c #3399ff",
">X c #6699ff",
",X c #9999ff",
"<X c #cc99ff",
"1X c #ff99ff",
"2X c #00ccff",
"3X c #33ccff",
"4X c #66ccff",
"5X c #99ccff",
"6X c #ccccff",
"7X c #ffccff",
"8X c Cyan",
"9X c #33ffff",
"0X c #66ffff",
"qX c #99ffff",
"wX c #ccffff",
"eX c Gray100",
"rX c #000032",
"tX c #330032",
"yX c #660032",
"uX c #990032",
"iX c #cc0032",
"pX c #ff0032",
"aX c #003332",
"sX c #333332",
"dX c #663332",
"fX c #993332",
"gX c #cc3332",
"hX c #ff3332",
"jX c #006632",
"kX c #336632",
"lX c #666632",
"zX c #996632",
"xX c #cc6632",
"cX c #ff6632",
"vX c #009932",
"bX c #339932",
"nX c #669932",
"mX c #999932",
"MX c #cc9932",
"NX c #ff9932",
"BX c #00cc32",
"VX c #33cc32",
"CX c #66cc32",
"ZX c #99cc32",
"AX c #cccc32",
"SX c #ffcc32",
"DX c #00ff32",
"FX c #33ff32",
"GX c #66ff32",
"HX c #99ff32",
"JX c #ccff32",
"KX c #ffff32",
"LX c #000065",
"PX c #330065",
"IX c #660065",
"UX c #990065",
/* pixels */
"                                                                ",
"                                                                ",
"                                                                ",
"                                                                ",
"                            ' ^.^.^.p.' '                       ",
"                      ' eX^.eX^.^.p.^.p.p.'                     ",
"                  ' eXeXeXeXeXeXeX^.^.p.p.p.' h h               ",
"                  eXeXeXeXeXeXeX^.^.^.^.p.^.p.' h               ",
"                eXeXeXeXeXeXeX^.eX^.^.^.p.^.p.h h ' h           ",
"              eXeXeXeXeXeXeX^.eXeXeX^.^.^.^.p.h ' h h           ",
"              eXeXeXeXeXeXeXeX^.eX^.^.^.p.p.p.' h h '           ",
"            eXeXeXeXeXeXeXeX^.eXeXeX^.p.p.p.p.p.' ' h           ",
"          ' eXeXeXeXeXeXeXeXeXeXeXeX^.p.p.p.p.p.p.' h           ",
"          eXeXeXeXeXeXeXeXeXeXeXeX^.^.p.p.p.p.p.p.' h           ",
"        ' eXeXeXeXeXeXeXeX^.eX^.eXeX^.p.p.p.p.p.p.p.'           ",
"        p.eXeXeXeXeXeXeXeXeXeXeXeXeXeXp.p.p.p.p.p.' ' h         ",
"        ' eXeXeXeXeX^.eXeX^.eXeXeX^.eXp.p.p.p.' h ' h h         ",
"          eXeXeXeXeX^.^.^.eX^.eX^.eXeXp.p.h h ' ' h ' '         ",
"          ' eXeXeX^.^.eX^.^.eX^.^.eX^.' h ' ' h ' ' h ' h       ",
"          p.eXeXeX^.eX^.^.eX^.^.eX^.^.' h ' h ' h h ' h h       ",
"            eXeXeX^.^.^.eX^.^.^.^.^.^.' ' h ' ' ' ' '           ",
"            ' eX^.^.eX^.^.^.eX^.eX^.eXp.h ' ' h h h             ",
"              eXp.^.^.^.eX^.^.^.^.^.^.p.' h ' h                 ",
"              ' p.p.p.p.p.^.^.^.eX^.eXp.h '                     ",
"              p.p.^.p.p.p.p.p.p.p.^.^.p.                        ",
"                ' p.p.p.^.p.p.^.p.p.p.'                         ",
"                  h h p.' p.^.p.p.p.^.h                         ",
"                        h h ' ' p.p.p.                          ",
"                              h h h '                           ",
"                                                                ",
"                                                                ",
"                                                                "
};
