/* XPM */
static char *magick[] = {
/* columns rows colors chars-per-pixel */
"32 32 255 2",
"   c Gray0",
".  c #020205",
"X  c #090811",
"o  c #0f0e1d",
"O  c #121123",
"+  c #15152b",
"@  c #191933",
"#  c #1c1c39",
"$  c #201d3b",
"%  c #25244a",
"&  c #272a4f",
"*  c #2d2953",
"=  c #2f335f",
"-  c #33305f",
";  c #372c6f",
":  c #382e6f",
">  c #34356b",
",  c #37396f",
"<  c #373e6f",
"1  c #3a346d",
"2  c #383c6f",
"3  c #373973",
"4  c #393973",
"5  c #3d397b",
"6  c #453a73",
"7  c #47368f",
"8  c #453b8f",
"9  c #4a3f8f",
"0  c #48398f",
"q  c #46438f",
"w  c #474c8f",
"e  c #484283",
"r  c #49458f",
"t  c #484d8f",
"y  c #434385",
"u  c #47528f",
"i  c #48508f",
"p  c #574993",
"a  c #504e9b",
"s  c #4b55ab",
"d  c #4e59b3",
"f  c #5641af",
"g  c #5548af",
"h  c #5943af",
"j  c #5354ac",
"k  c #5859b3",
"l  c #6754ab",
"z  c #695cb3",
"x  c #467fff",
"c  c #4d77ff",
"v  c #4a79ff",
"b  c #4f7dff",
"n  c #4e79ff",
"m  c #5b6dff",
"M  c #5c73e9",
"N  c #5376ff",
"B  c #5471ff",
"V  c #567eff",
"C  c #5872ff",
"Z  c #5e72ff",
"A  c #675fff",
"S  c #6f55ff",
"D  c #695dff",
"F  c #6f5dff",
"G  c #774cff",
"H  c #7e4dff",
"J  c #7c4bff",
"K  c #7454ff",
"L  c #755cff",
"P  c #7e51ff",
"I  c #7a54ff",
"U  c #7e5aff",
"Y  c #7d5cff",
"T  c #795aff",
"R  c #6763c3",
"E  c #706adb",
"W  c #6166ff",
"Q  c #6764ff",
"!  c #646dff",
"~  c #6b60ff",
"^  c #6b6dff",
"/  c #6375ea",
"(  c #6e71e9",
")  c #6272ff",
"_  c #6574ff",
"`  c #627dff",
"'  c #637cff",
"]  c #6d70ff",
"[  c #6c7dff",
"{  c #736cff",
"}  c #7c63ff",
"|  c #786dff",
" . c #7c6aff",
".. c #7771ff",
"X. c #747fff",
"o. c #7b74ff",
"O. c #7a7eff",
"+. c #7d7eff",
"@. c #7d7bff",
"#. c #4981ff",
"$. c #4985ff",
"%. c #4e83ff",
"&. c #5181ff",
"*. c #5483ff",
"=. c #5189ff",
"-. c #568eff",
";. c #548bff",
":. c #5981ff",
">. c #5e82ff",
",. c #5c8bff",
"<. c #5c93ff",
"1. c #6586ff",
"2. c #6381ff",
"3. c #6188ff",
"4. c #638fff",
"5. c #658dff",
"6. c #6e80ff",
"7. c #6984ff",
"8. c #6e8cff",
"9. c #6494ff",
"0. c #629aff",
"q. c #659aff",
"w. c #649dff",
"e. c #6b9dff",
"r. c #7181ff",
"t. c #7484ff",
"y. c #748cff",
"u. c #7a81ff",
"i. c #7d80ff",
"p. c #7b86ff",
"a. c #798eff",
"s. c #7889ff",
"d. c #7391ff",
"f. c #7494ff",
"g. c #759dff",
"h. c #7a96ff",
"j. c #7d9eff",
"k. c #799bff",
"l. c #6da7ff",
"z. c #6aa1ff",
"x. c #76a6ff",
"c. c #73a3ff",
"v. c #76aeff",
"b. c #70aaff",
"n. c #7aa2ff",
"m. c #79a6ff",
"M. c #7fa1ff",
"N. c #7da7ff",
"B. c #7eadff",
"V. c #7bacff",
"C. c #7cb1ff",
"Z. c #7cb4ff",
"A. c #7eb8ff",
"S. c #814fff",
"D. c #844cff",
"F. c #894eff",
"G. c #8354ff",
"H. c #8259ff",
"J. c #825eff",
"K. c #8c53ff",
"L. c #8b5bff",
"P. c #925dff",
"I. c #935aff",
"U. c #8369d3",
"Y. c #8167ff",
"T. c #8463ff",
"R. c #826cff",
"E. c #846dff",
"W. c #8864ff",
"Q. c #8a6dff",
"!. c #807aed",
"~. c #8473ff",
"^. c #807eff",
"/. c #867eff",
"(. c #8e72f5",
"). c #8e70ff",
"_. c #8976ff",
"`. c #8b7cff",
"'. c #9561ff",
"]. c #936dff",
"[. c #9862ff",
"{. c #9b64ff",
"}. c #9b6cff",
"|. c #9171e1",
" X c #9276fd",
".X c #937aff",
"XX c #9e71ff",
"oX c #9a7eff",
"OX c #a067ff",
"+X c #a36cff",
"@X c #a372ff",
"#X c #a57eff",
"$X c #a27bfc",
"%X c #a972ff",
"&X c #aa77ff",
"*X c #ad76ff",
"=X c #a97eff",
"-X c #ad7aff",
";X c #b177ff",
":X c #b279ff",
">X c #b17eff",
",X c #b57fff",
"<X c #b47aff",
"1X c #8281ff",
"2X c #8681ff",
"3X c #8484ff",
"4X c #858eff",
"5X c #878aff",
"6X c #8e83ff",
"7X c #8a89ff",
"8X c #8c8cff",
"9X c #8492ff",
"0X c #8392ff",
"qX c #829eff",
"wX c #859bff",
"eX c #8e95ff",
"rX c #8993ff",
"tX c #8c9dff",
"yX c #9382ff",
"uX c #9580ff",
"iX c #928eff",
"pX c #9a84ff",
"aX c #998aff",
"sX c #9391ff",
"dX c #969bff",
"fX c #9d94ff",
"gX c #9a9dff",
"hX c #9d99ff",
"jX c #9b99ff",
"kX c #86a5ff",
"lX c #83a2ff",
"zX c #81a9ff",
"xX c #81aeff",
"cX c #85adff",
"vX c #8ba7ff",
"bX c #8eaaff",
"nX c #8aadff",
"mX c #81b2ff",
"MX c #83b4ff",
"NX c #92a5ff",
"BX c #93a2ff",
"VX c #a685ff",
"CX c #a183ff",
"ZX c #a28cff",
"AX c #a48bff",
"SX c #a08bff",
"DX c #aa82ff",
"FX c #ac86ff",
"GX c #ab8dff",
"HX c #a392ff",
"JX c #a990ff",
"KX c #b281ff",
"LX c #b187ff",
"PX c #b582ff",
"IX c #b088ff",
/* pixels */
"          y R e % X                                             ",
"          t eXZXVX$XU.p * o                                     ",
"          i vXgXJXLX,X<X&X XE a - O                             ",
"          u MXNXjXAX=X%X+X'.~.8XSXDX|.l 1 + .                   ",
"          u MXnXtXiXoX}.P.K.R.kXgXGXKX;X@X~.!.z 6 $ .           ",
"          u A.C.lX9X/.Q.L.D.Y.zXbXfXCX+X[.T.eXHXPX-X(.%         ",
"          u Z.v.c.d.X.| Y J } xXcXwX6X].K.J.kXdXVX@X'.1         ",
"          u v.l.q.4.' ^ F G  .B.V.k.u. .P Y xXkX8X].K.:         ",
"          t g.q.<.;.V C W S  .m.b.9.2.^ K Y B.x.s. .H ;         ",
"          w y.,.=.$.x v B Q | k.q.-.&.C A } m.e.1.! K ;         ",
"          5 i.u.r.[ ' ` ' [ @.s.3.*.#.v m | f.<.%.N D 5         ",
"          , 7XpXVXDX=X#XoX`.^.1X1X1X^.+.O.O.u.7.:.V _ q         ",
"          2 tXhXJXLX,X:X%X}.~.rXHXLXPX:X@X_.7XCXDX#X.Xr         ",
"          < cXNXhXAX#X@X{.I.Y.wXBXHXDX%X{.T.wXHXFX*X{.9         ",
"          < MXnXtXsXuX].P.F.T.zXbXdXpX].K.H.zXNXaX}.K.0         ",
"          < MXMXlX0X1XE.H.D.Y N.xXwX3XE.G.G.zXzX4XE.S.7         ",
"          < Z.C.c.d.r.{ L G Y N.v.g.6.{ K I N.x.8.^ K 7         ",
"          < V.b.e.4.2.) Q K } n.l.9.:.Z A T k.w.,.C D 8         ",
"          , x.z.<.;.&.N m D  .h.0.;.%.c m { d.-.#.n ) q         ",
"          , f.<.;.$.x v N _ o.p.1.:.:.` [ +.i.i.^././.r         ",
"          , u.r.6.6.X.O.+.^.^.1X6XpX#X=X$X_.5XAXKX:X}.9         ",
"          , 1XyXCXDX>X>X&XXX~.4XfXGXKX*XOXW.wXgXAX@XI.h         ",
"          , rXfXGXIXKX*X+XP.T.qXNXfXCXXXP.G.lXbXiX).G.f         ",
"          , kXBXhXZXCXXX[.K.J.qXnXtX6XQ.G.S.M.N.a...I f         ",
"          = cXnXNXsXyX).L.D.H.M.MXj.p.| K H j.b.5.) D g         ",
"          & MXMXkX9X1X .Y H Y M.v.e.1._ D T k.w.;.n m j         ",
"          & Z.C.n.d.r.] ~ K Y j.l.<.*.N m { a.,.:.M s %         ",
"          & C.v.z.9.>.Z W D } h.q.;.#.b ' ( j > +               ",
"          & m.l.<.-.&.n B ! ..p.7./ s > +                       ",
"          & g.q.-.$.#.b ' / j > +                               ",
"          & y.1.2./ d 3 @                                       ",
"          # k 4 @ .                                             "
};
