/* XPM */
static char *magick[] = {
/* columns rows colors chars-per-pixel */
"32 32 170 2",
"   c #00007f",
".  c #01017f",
"X  c #010180",
"o  c #020280",
"O  c #040481",
"+  c #050581",
"@  c #080883",
"#  c #0a0a84",
"$  c #0c0c85",
"%  c #0e0e86",
"&  c #0f0f87",
"*  c #101087",
"=  c #111188",
"-  c #131388",
";  c #141489",
":  c #18188b",
">  c #1c1c8d",
",  c #1d1d8d",
"<  c #1d1d8e",
"1  c #1e1e8e",
"2  c #1f1f8e",
"3  c #1f1f8f",
"4  c #20208f",
"5  c #222290",
"6  c #232391",
"7  c #272793",
"8  c #282893",
"9  c #292994",
"0  c #2a2a94",
"q  c #2e2e96",
"w  c #2f2f96",
"e  c #303097",
"r  c #333399",
"t  c #343499",
"y  c #38389b",
"u  c #3d3d9e",
"i  c #40409f",
"p  c #4848a3",
"a  c #4c4ca5",
"s  c #4d4da6",
"d  c #4e4ea6",
"f  c #4f4fa6",
"g  c #5151a7",
"h  c #5454a9",
"j  c #5858ab",
"k  c #5d5dae",
"l  c #5e5eae",
"z  c #6060af",
"x  c #6262b0",
"c  c #6464b1",
"v  c #6565b2",
"b  c #6666b2",
"n  c #6969b4",
"m  c #6b6bb5",
"M  c #6c6cb5",
"N  c #6d6db6",
"B  c #6f6fb7",
"V  c #7070b7",
"C  c #7171b8",
"Z  c #7777bb",
"A  c #7878bb",
"S  c #7979bc",
"D  c #7d7dbe",
"F  c #7e7ebe",
"G  c #7f7fbf",
"H  c #8080bf",
"J  c #8989c4",
"K  c #8d8dc5",
"L  c #8f8fc7",
"P  c #9090c7",
"I  c #9a9acc",
"U  c #9b9bcd",
"Y  c #9c9ccd",
"T  c #9f9fcf",
"R  c #a0a0cf",
"E  c #a1a1d0",
"W  c #a9a9d4",
"Q  c #adadd6",
"!  c #aeaed6",
"~  c #afafd7",
"^  c #b0b0d7",
"/  c #b1b1d8",
"(  c #b2b2d8",
")  c #b2b2d9",
"_  c #b4b4da",
"`  c #b5b5da",
"'  c #b7b7db",
"]  c #b8b8db",
"[  c #bdbdde",
"{  c #bfbfdf",
"}  c Gray78",
"|  c #cacaca",
" . c #cbcbcb",
".. c Gray80",
"X. c #cdcdcd",
"o. c #cecece",
"O. c #d2d2d2",
"+. c #d3d3d3",
"@. c Gray83",
"#. c #d5d5d5",
"$. c Gray84",
"%. c #d7d7d7",
"&. c #d8d8d8",
"*. c #dadada",
"=. c Gray86",
"-. c gainsboro",
";. c #dddddd",
":. c Gray87",
">. c #dfdfdf",
",. c #c2c2e0",
"<. c #c5c5e2",
"1. c #c7c7e3",
"2. c #cacae4",
"3. c #cccce5",
"4. c #cccce6",
"5. c #d0d0e7",
"6. c #d4d4e9",
"7. c #d4d4ea",
"8. c #d5d5ea",
"9. c #d7d7eb",
"0. c #d8d8eb",
"q. c #dbdbed",
"w. c #dedeee",
"e. c #dedeef",
"r. c #dfdfef",
"t. c Gray88",
"y. c #e1e1e1",
"u. c Gray89",
"i. c #e4e4e4",
"p. c Gray90",
"a. c #e6e6e6",
"s. c #e7e7e7",
"d. c Gray91",
"f. c #eaeaea",
"g. c Gray92",
"h. c #ececec",
"j. c Gray93",
"k. c #eeeeee",
"l. c #efefef",
"z. c #e1e1f0",
"x. c #e2e2f0",
"c. c #e7e7f3",
"v. c #e8e8f3",
"b. c #e9e9f4",
"n. c #eaeaf5",
"m. c #efeff5",
"M. c #efeff7",
"N. c Gray94",
"B. c #f1f1f1",
"V. c Gray95",
"C. c #f3f3f3",
"Z. c #f4f4f4",
"A. c #f6f6f6",
"S. c Gray97",
"D. c #f2f2f8",
"F. c #f2f2f9",
"G. c #f6f6fb",
"H. c #f7f7fb",
"J. c #f8f8f8",
"K. c #f9f9f9",
"L. c Gray98",
"P. c #fbfbfb",
"I. c #fafafc",
"U. c #fbfbfd",
"Y. c Gray99",
"T. c #fdfdfd",
"R. c #fcfcfe",
"E. c #fdfdfe",
"W. c #fefefe",
"Q. c Gray100",
/* pixels */
"Q.Q.Q.Q.Q.Q.Q.Q.Q.Q.Q.Q.Q.Q.Q.Q.Q.Q.Q.Q.Q.Q.Q.Q.Q.Q.Q.Q.Q.Q.Q.Q.",
"Q.Q.Q.Q.Q.Q.Q.Q.Q.Q.Q.Q.Q.Q.Q.Q.Q.Q.Q.Q.Q.Q.Q.Q.Q.Q.Q.Q.Q.Q.Q.Q.",
"Q.Q.Q.Q.Q.Q.Q.Q.Q.Q.Q.Q.l.a.a.o.=.=.a.f.V.Q.Q.Q.Q.Q.Q.U.Q.Q.Q.Q.",
"Q.Q.Q.Q.Q.Q.Q.Q.J.J.:.#.Q. .#.a.+.o.#. . .+.:.Q.Q.G * o u 0.Q.Q.",
"Q.Q.Q.Q.Q.Q.Q.Q.a.o.:. .l.Q.Q.Q.Q.Q.Q.Q.&. .o.Q.J         3 G.Q.",
"Q.Q.Q.Q.Q.Q.Q.=.#.y.J.J.Q.Q.Q.Q.Q.Q.Q.Q.Q.Q.Q.Q.7           ) Q.",
"Q.Q.Q.Q.Q.J.#.#.A.Q.Q.Q.e.J d 8 > 8 d J e.Q.Q.Q.3           W Q.",
"Q.Q.Q.Q.Q.#.:.Q.Q.Q.x.j o                 j x.Q.m         $ n.Q.",
"Q.Q.Q.Q.a.} l.Q.Q.) *                       $ ) F.p     - ` Q.Q.",
"Q.Q.Q.V.+.V.Q.Q.W O                 o c ` ) h O W Q.9.<.m.Q.Q.Q.",
"Q.Q.Q.:.o.l.Q.5.@                   L Q.Q.Q.Q.V @ 5.Q.Q.=.A.Q.Q.",
"Q.Q.V.=.:.J.Q.t                   ; U.Q.Q.Q.Q.m.O r Q.Q.Q.Q.Q.Q.",
"Q.Q.y.#.J.Q.^                     e Q.Q.Q.Q.Q.Q.;   ~ Q.Q.#.Q.Q.",
"Q.Q.:.:.Q.Q.d                     # F.Q.Q.Q.Q.e.    d Q.Q.A.Q.Q.",
"Q.Q.y.#.Q.U.$                       l Q.Q.Q.G.p     $ U.Q.Q.a.Q.",
"Q.Q.=.V.Q.q.      L :                 w G S 6         q.Q.Q.y.Q.",
"Q.Q. .l.Q.2.      { 4                                 2.Q.Q.A.Q.",
"Q.y.o.A.Q.3.      { 4       z p   e Z O I ,.<.g       3.Q.Q.+.Q.",
"Q.V.:.V.Q.v.      { 4       H z   i T 9 A   w {       c.Q.Q.Q.Q.",
"Q.Q.Q.Q.Q.Q.3     { 4       H z   i T o x T ` {     3 Q.Q.A.a.Q.",
"Q.Q.Q.a.Q.Q.N     { 4       H z   d T c I $ 6 {     m Q.Q.V.J.Q.",
"Q.Q.Q.a.Q.Q.9.o   { P H H h m ` g ] T x ~ d R 9.- o 9.Q.Q.f.Q.Q.",
"Q.Q.Q.J.A.Q.Q.c   e i i i 9 O l N 3 8 o j N 3 c 3 c Q.Q.Q.:.Q.Q.",
"Q.Q.Q.Q.=.Q.Q.F.8                               8 F.Q.Q.V.Q.Q.Q.",
"Q.Q.Q.Q.Q.V.Q.Q.e.6                           6 e.Q.Q.A.y.Q.Q.Q.",
"Q.Q.Q.Q.Q.#.Q.Q.Q.n.p                       p n.Q.Q.A.J.Q.Q.Q.Q.",
"Q.Q.Q.Q.Q.Q.l.J.Q.Q.Q.~ y               y ~ Q.Q.Q.Q.=.Q.Q.Q.Q.Q.",
"Q.Q.Q.Q.Q.Q.Q.y.Q.Q.Q.Q.Q.e.E G C G E e.Q.Q.Q.Q.l.a.Q.Q.Q.Q.Q.Q.",
"Q.Q.Q.Q.Q.Q.Q.Q.a.y.Q.Q.Q.Q.Q.Q.Q.Q.Q.Q.Q.Q.Q.V.V.Q.Q.Q.Q.Q.Q.Q.",
"Q.Q.Q.Q.Q.Q.Q.Q.Q.Q.l.=.Q.Q.Q.Q.Q.Q.Q.Q.A.A.y.A.Q.Q.Q.Q.Q.Q.Q.Q.",
"Q.Q.Q.Q.Q.Q.Q.Q.Q.Q.Q.Q.J.+.J.y.f.V.#.Q.:.Q.Q.Q.Q.Q.Q.Q.Q.Q.Q.Q.",
"Q.Q.Q.Q.Q.Q.Q.Q.Q.Q.Q.Q.Q.Q.Q.Q.Q.Q.Q.Q.Q.Q.Q.Q.Q.Q.Q.Q.Q.Q.Q.Q."
};
