/* XPM */
static char *magick[] = {
/* columns rows colors chars-per-pixel */
"32 32 252 2",
"   c Gray0",
".  c #010000",
"X  c #010100",
"o  c #090200",
"O  c #0b0000",
"+  c #0e0100",
"@  c #0d0402",
"#  c #130000",
"$  c #140400",
"%  c #170b05",
"&  c #141107",
"*  c #260100",
"=  c #2f0200",
"-  c #2a0801",
";  c #340200",
":  c #390200",
">  c #3b0200",
",  c #3a2d16",
"<  c #430300",
"1  c #440300",
"2  c #450300",
"3  c #470400",
"4  c #4e0400",
"5  c #510500",
"6  c #550500",
"7  c #570500",
"8  c #560800",
"9  c #590400",
"0  c #5f0600",
"q  c #5f0900",
"w  c #501003",
"e  c #4f2514",
"r  c #562711",
"t  c #620600",
"y  c #660600",
"u  c #650900",
"i  c #670800",
"p  c #6c0700",
"a  c #6c0800",
"s  c #6e0900",
"d  c #700800",
"f  c #720800",
"g  c #740800",
"h  c #780700",
"j  c #780800",
"k  c #7a0900",
"l  c #7b0a00",
"z  c #7d0900",
"x  c #7f0800",
"c  c #7f0a00",
"v  c #615829",
"b  c #800800",
"n  c #810800",
"m  c #830900",
"M  c #830e00",
"N  c #840b00",
"B  c #860900",
"V  c #840c00",
"C  c #840f00",
"Z  c #870d00",
"A  c #8b0900",
"S  c #8b0a00",
"D  c #8a0c00",
"F  c #8b0d00",
"G  c #8d0a00",
"H  c #8e0d00",
"J  c #851301",
"K  c #900900",
"L  c #920a00",
"P  c #980a00",
"I  c #980b00",
"U  c #980d00",
"Y  c #990c00",
"T  c #9d0b00",
"R  c #9f0c00",
"E  c #921001",
"W  c #941101",
"Q  c #971a05",
"!  c #9d1401",
"~  c #9e1601",
"^  c #9f1b04",
"/  c #8c2f0f",
"(  c #963011",
")  c #a20d00",
"_  c #a60b00",
"`  c #a40c00",
"'  c #a40d00",
"]  c #aa0f00",
"[  c #ad0d00",
"{  c #a91301",
"}  c #ab1000",
"|  c #ac1100",
" . c #ae1401",
".. c #b10f00",
"X. c #b50e00",
"o. c #b71000",
"O. c #b71301",
"+. c #b51401",
"@. c #b71601",
"#. c #b81702",
"$. c #bd1100",
"%. c #be1000",
"&. c #bb1e03",
"*. c #bd1b02",
"=. c #ad2f0b",
"-. c #be2e07",
";. c #987930",
":. c #c11300",
">. c #c01401",
",. c #c71300",
"<. c #c71400",
"1. c #c61900",
"2. c #cb1401",
"3. c #cc1401",
"4. c #c91f02",
"5. c #cd1a01",
"6. c #d51701",
"7. c #d71601",
"8. c #d31900",
"9. c #d41801",
"0. c #da1901",
"q. c #db1801",
"w. c #d91c02",
"e. c #cb2d07",
"r. c #d32503",
"t. c #da2003",
"y. c #df2906",
"u. c #df3308",
"i. c #e21a01",
"p. c #e71a01",
"a. c #e71b01",
"s. c #e61c00",
"d. c #e91c01",
"f. c #e81d02",
"g. c #f01f02",
"h. c #e62003",
"j. c #ec2002",
"k. c #ed2302",
"l. c #ec2504",
"z. c #e43006",
"x. c #f72102",
"c. c #f52703",
"v. c #f52e06",
"b. c #fb2102",
"n. c #fa2202",
"m. c #fb2402",
"M. c #fe2301",
"N. c #fe2302",
"B. c #ff2603",
"V. c #ff2902",
"C. c #ff2a03",
"Z. c #fd2e06",
"A. c #ff2c05",
"S. c #ff2e04",
"D. c #fe3106",
"F. c #ff3307",
"G. c #ff3405",
"H. c #ff3506",
"J. c #ff3607",
"K. c #fb3508",
"L. c #ff3408",
"P. c #ff3906",
"I. c #ff3e07",
"U. c #ff3c08",
"Y. c #ff3c09",
"T. c #ff3f08",
"R. c #d24d1e",
"E. c #df4f1e",
"W. c #d8511c",
"Q. c #ce5527",
"!. c #d1542d",
"~. c #e4551f",
"^. c #eb551d",
"/. c #ff410d",
"(. c #ff430d",
"). c #ff4408",
"_. c #ff470a",
"`. c #ff470f",
"'. c #ff490a",
"]. c #ff490b",
"[. c #ff480d",
"{. c #f14713",
"}. c #ff4310",
"|. c #ff4710",
" X c #ff4911",
".X c #ff4a11",
"XX c #ff4f10",
"oX c #ff500d",
"OX c #ff530e",
"+X c #ff540e",
"@X c #ff570f",
"#X c #ff5113",
"$X c #ff5313",
"%X c #ff5511",
"&X c #ff5613",
"*X c #ff5713",
"=X c #ff5516",
"-X c #ff5616",
";X c #ff5a10",
":X c #ff5c11",
">X c #ff5d11",
",X c #ff5e11",
"<X c #ff5e13",
"1X c #ff5f16",
"2X c #ff5a19",
"3X c #fd5a1d",
"4X c #ff5c19",
"5X c #ff5d1e",
"6X c #ff5f1f",
"7X c #ff6213",
"8X c #ff6014",
"9X c #ff6514",
"0X c #ff6515",
"qX c #ff6417",
"wX c #ff6615",
"eX c #ff6319",
"rX c #ff631b",
"tX c #ff6519",
"yX c #ff651a",
"uX c #ff6816",
"iX c #ff6a17",
"pX c #ff6d1a",
"aX c #ff6f1b",
"sX c #ff6c1f",
"dX c #ff701d",
"fX c #fe781f",
"gX c #fe7a1e",
"hX c #fe6625",
"jX c #ff6c25",
"kX c #ff6d25",
"lX c #ff6c26",
"zX c #fe692b",
"xX c #ff7521",
"cX c #fe7720",
"vX c #ff712e",
"bX c #ff752a",
"nX c #ff7c21",
"mX c #ff7d23",
"MX c #ff7e20",
"NX c #ab8043",
"BX c #ac9346",
"VX c #be8c40",
"CX c #ff8226",
"ZX c #ff802c",
"AX c #ff8825",
"SX c #fe8f2c",
"DX c #ff9029",
"FX c #ffa536",
"GX c #e79e45",
"HX c #ffad48",
"JX c #ffc978",
"KX c #ffd865",
/* pixels */
"                                                                ",
"                                                                ",
"                                                                ",
"                                                                ",
"                                                                ",
"                                                                ",
"                                                    q < ; *     ",
"                                                ^ i 6 3 > =     ",
"              /                             w M s t 6 4 1 > #   ",
"              ( =.-.e.u.z.r.*.@.+       Q E k f p y 0 9 5 1 O   ",
"                E.{. X`.(.F.5.O.] ' U G n h g f f f f s i 8     ",
"                        NXl.8.:...' I S c h k k c V V V J @     ",
"                        L.h.q.3.$.[ T L B n c B H W ~ O         ",
"                      A.k.f.i.7.,.X._ I L S n D ~               ",
"                  (.F.A.m.x.a.q.2.$...) R U D &.                ",
"               X(.U.U.U.C.g.f.a.7.<.X.{ | {                     ",
"          lX%X].%XpXJXP.C.N.N.n.s.9.>.@. .                      ",
"      r -X-X9XmXv :X'.I.).J.B.n.k.w.1.#.-                       ",
"    ~.4XeXCX  mX:X+X7XKX'.J.A.C.c.t.4.$                         ",
"    ^.ZXBXFX9X:X9XDXgXoX).'.oXJ.v.y.                            ",
"      GXdXiX9XAX;.iX;X+XSXxX[.K.}.                              ",
"    hXeXyXmX  gX:X8XdX  xX#X|.                                  ",
"  Q.W.lX, HXyX%X1X& VXsX-X5X                                    ",
"        zX3X2XbX  vXlX5X                                        ",
"        % R.      !.e                                           ",
"                                                                ",
"                                                                ",
"                                                                ",
"                                                                ",
"                                                                ",
"                                                                ",
"                                                                "
};
