/* XPM */
static char *magick[] = {
/* columns rows colors chars-per-pixel */
"32 32 151 2",
"   c Gray0",
".  c #010101",
"X  c #020202",
"o  c Gray1",
"O  c #040404",
"+  c Gray2",
"@  c #060606",
"#  c #070707",
"$  c #090909",
"%  c Gray4",
"&  c #0b0b0b",
"*  c #0c0c0c",
"=  c #101010",
"-  c #111111",
";  c Gray7",
":  c #131313",
">  c Gray8",
",  c #161616",
"<  c Gray11",
"1  c #1e1e1e",
"2  c Gray13",
"3  c Gray14",
"4  c #252525",
"5  c Gray15",
"6  c #272727",
"7  c #282828",
"8  c Gray16",
"9  c #2a2a2a",
"0  c Gray17",
"q  c #2c2c2c",
"w  c #2d2d2d",
"e  c Gray18",
"r  c #2f2f2f",
"t  c #313131",
"y  c #343434",
"u  c #353535",
"i  c Gray23",
"p  c Gray26",
"a  c #434343",
"s  c Gray27",
"d  c #464646",
"f  c #484848",
"g  c #494949",
"h  c #4b4b4b",
"j  c Gray30",
"k  c #4e4e4e",
"l  c Gray31",
"z  c #515151",
"x  c Gray32",
"c  c Gray33",
"v  c #555555",
"b  c Gray34",
"n  c #585858",
"m  c #5a5a5a",
"M  c #5b5b5b",
"N  c #5d5d5d",
"B  c Gray37",
"V  c #606060",
"C  c Gray39",
"Z  c #656565",
"A  c Gray40",
"S  c Gray41",
"D  c #6a6a6a",
"F  c Gray42",
"G  c #6c6c6c",
"H  c #6f6f6f",
"J  c Gray44",
"K  c #767676",
"L  c Gray48",
"P  c Gray49",
"I  c Gray52",
"U  c Gray55",
"Y  c #8d8d8d",
"T  c Gray56",
"R  c #939393",
"E  c Gray58",
"W  c #989898",
"Q  c Gray60",
"!  c Gray62",
"~  c #a0a0a0",
"^  c Gray64",
"/  c Gray65",
"(  c #aaaaaa",
")  c Gray67",
"_  c Gray68",
"`  c #aeaeae",
"'  c #afafaf",
"]  c Gray69",
"[  c #b1b1b1",
"{  c #b2b2b2",
"}  c Gray70",
"|  c #b4b4b4",
" . c Gray71",
".. c Gray72",
"X. c #b9b9b9",
"o. c Gray73",
"O. c #bcbcbc",
"+. c Gray74",
"@. c #bebebe",
"#. c #c1c1c1",
"$. c #c3c3c3",
"%. c Gray77",
"&. c #c6c6c6",
"*. c Gray78",
"=. c #cacaca",
"-. c Gray80",
";. c #cdcdcd",
":. c #cecece",
">. c Gray81",
",. c #d0d0d0",
"<. c #d3d3d3",
"1. c Gray83",
"2. c #d5d5d5",
"3. c Gray84",
"4. c #d8d8d8",
"5. c Gray85",
"6. c Gray86",
"7. c gainsboro",
"8. c #dddddd",
"9. c Gray87",
"0. c #e1e1e1",
"q. c #e2e2e2",
"w. c Gray89",
"e. c #e4e4e4",
"r. c Gray90",
"t. c #e6e6e6",
"y. c #e7e7e7",
"u. c Gray91",
"i. c #e9e9e9",
"p. c #eaeaea",
"a. c Gray92",
"s. c #ececec",
"d. c Gray93",
"f. c #eeeeee",
"g. c #efefef",
"h. c Gray94",
"j. c #f1f1f1",
"k. c Gray95",
"l. c #f3f3f3",
"z. c #f4f4f4",
"x. c Gray96",
"c. c #f6f6f6",
"v. c Gray97",
"b. c #f8f8f8",
"n. c #f9f9f9",
"m. c Gray98",
"M. c #fbfbfb",
"N. c Gray99",
"B. c #fdfdfd",
"V. c #fefefe",
"C. c Gray100",
/* pixels */
"                                                                ",
"                                                                ",
"                                                                ",
"                                                                ",
"                                                                ",
"                                                                ",
"        o # # # # # # # # # # + .                               ",
"      o e C F F F F F F F F D l -                               ",
"      @ M 1.a.a.a.a.a.a.a.a.i.) 4             X @ # O           ",
"      X j 6.C.C.C.C.C.C.C.C.B.X.7         @ < p C S v e *       ",
"      . s 3.V.C.C.C.C.C.C.C.B.X.7       = k Q :.t.p.8. .B ;     ",
"      . i -.V.C.C.C.C.C.C.C.B.X.7     @ k &.z.B.V.C.V.n.;.B *   ",
"    . . q O.B.C.C.C.C.C.C.C.B.X.7     < Q z.V.C.C.C.V.B.n...y . ",
": w p s C ;.B.C.C.C.C.C.C.C.B.$.g 7 8 b >.B.C.C.C.C.B.M.M.e.K w ",
"I o.<.3.8.z.V.C.C.C.C.C.C.C.V.p.$.X.X.-.l.V.C.C.C.C.V.B.N.c.1.o.",
"g.N.V.C.C.C.C.C.C.C.C.C.C.C.V.V.B.B.B.B.V.C.C.C.C.C.C.V.V.V.B.B.",
"V.C.C.C.C.C.C.C.C.C.C.C.C.C.V.V.V.C.C.C.C.C.C.C.C.C.C.C.C.C.C.C.",
"C.C.C.C.C.C.C.C.C.C.C.C.C.C.V.M.N.V.C.V.V.V.V.C.C.C.C.C.C.C.C.C.",
"C.C.C.V.V.V.V.C.C.C.C.C.C.C.B.f.j.V.V.c.q.1.w.b.B.B.m.b.N.V.V.C.",
"C.C.V.N.a.9.c.C.C.C.C.C.C.C.M.w.i.B.d.' Z d A ~ @.@./ ! *.h.B.V.",
"C.V.N.0.T L 5.v.v.v.v.v.v.v.z.8.u.M.=.z * X $ < e e 1 < f ^ s.V.",
"V.N.w.Y q e P R R R R R R E ~ #.a.N.,.N ; X             & c -.N.",
"B.r.R r + @ - : : : : : > 2 V %.v.V.k.O.F t , % @ O @ * 3 J 2.N.",
"y.W y # .               & a ) h.V.V.V.v.9.| U G m x n H W >.x.V.",
"+.Z u q 0 9 8 7 6 5 4 7 h ^ a.B.V.C.V.V.V.m.j.y.9.5.7.t.k.M.V.V.",
"4.+. .} { [ ] ` _ ) ( _ %.a.B.V.C.C.C.C.C.V.V.V.V.V.V.V.V.V.C.C.",
"N.M.m.m.m.m.m.n.n.n.n.n.M.V.V.C.C.C.C.C.C.C.C.C.C.C.C.C.C.C.C.C.",
"C.C.C.C.C.C.C.C.C.C.C.C.C.C.C.C.C.C.C.C.C.C.C.C.C.C.C.C.C.C.C.C.",
"C.C.C.C.C.C.C.C.C.C.C.C.C.C.C.C.C.C.C.C.C.C.C.C.C.C.C.C.C.C.C.C.",
"C.C.C.C.C.C.C.C.C.C.C.C.C.C.C.C.C.C.C.C.C.C.C.C.C.C.C.C.C.C.C.C.",
"C.C.C.C.C.C.C.C.C.C.C.C.C.C.C.C.C.C.C.C.C.C.C.C.C.C.C.C.C.C.C.C.",
"C.C.C.C.C.C.C.C.C.C.C.C.C.C.C.C.C.C.C.C.C.C.C.C.C.C.C.C.C.C.C.C."
};
