/* XPM */
static char *magick[] = {
/* columns rows colors chars-per-pixel */
"32 32 252 2",
"   c Gray0",
".  c #040001",
"X  c #090001",
"o  c #0a0206",
"O  c #0b050b",
"+  c #0b0b0b",
"@  c #0c0617",
"#  c #150b0f",
"$  c #110a13",
"%  c #1c131b",
"&  c #1c1b1c",
"*  c #1a1a1b",
"=  c #151515",
"-  c #0f0b3a",
";  c #150f34",
":  c #150c39",
">  c #1e1228",
",  c #1f1a21",
"<  c #1e1525",
"1  c #1a1339",
"2  c #201b1f",
"3  c #271d30",
"4  c #281b3a",
"5  c #2a2326",
"6  c #383235",
"7  c #1f184e",
"8  c #1d1751",
"9  c #251d58",
"0  c #231b57",
"q  c #3b1443",
"w  c #2e254a",
"e  c #2f2354",
"r  c #3c2f5c",
"t  c #670b0c",
"y  c #6b0c0c",
"u  c #730a0a",
"i  c #7b0f0f",
"p  c #751415",
"a  c #7d1a1b",
"s  c #7c1920",
"d  c #4d3e72",
"f  c #473866",
"g  c #484345",
"h  c #49494a",
"j  c #535355",
"k  c #575659",
"l  c #5a565b",
"z  c #5b5a5d",
"x  c #4f476f",
"c  c #4d4263",
"v  c #53436f",
"b  c #5e5d61",
"n  c #605f63",
"m  c #655279",
"M  c #626266",
"N  c #666569",
"B  c #68666a",
"V  c #6a636d",
"C  c #6a696d",
"Z  c #6d6c6f",
"A  c #6d6c72",
"S  c #6d6379",
"D  c #796369",
"F  c #706f74",
"G  c #726f78",
"H  c #727175",
"J  c #757376",
"K  c #767379",
"L  c #79767b",
"P  c #7a797d",
"I  c #7b797d",
"U  c #403680",
"Y  c #554986",
"T  c #725f80",
"R  c #655689",
"E  c #7c6889",
"W  c #7e7c81",
"Q  c #7c718b",
"!  c #831414",
"~  c #8f1213",
"^  c #8d1d1d",
"/  c #9b0e0e",
"(  c #922222",
")  c #89363a",
"_  c #a71717",
"`  c #b10f0f",
"'  c #b51010",
"]  c #bb1515",
"[  c #a72d31",
"{  c #a23032",
"}  c #b8262f",
"|  c #b62429",
" . c #b92c33",
".. c #936a6f",
"X. c #b67477",
"o. c #c80f0f",
"O. c #c61818",
"+. c #de1617",
"@. c #d81818",
"#. c #c1343d",
"$. c #c63232",
"%. c #d72626",
"&. c #e01515",
"*. c #e01e1f",
"=. c #eb1c1c",
"-. c #f71e1e",
";. c #fd1414",
":. c #fd1c1c",
">. c #e93131",
",. c #e83a3a",
"<. c #f62626",
"1. c #fe2323",
"2. c #fe2c2d",
"3. c #fa2f30",
"4. c #fe3335",
"5. c #ff3638",
"6. c #fe393b",
"7. c #ea2727",
"8. c #f83e40",
"9. c #cd4040",
"0. c #d64243",
"q. c #d44f4f",
"w. c #d64551",
"e. c #d35050",
"r. c #d65a5a",
"t. c #dd5362",
"y. c #fe4343",
"u. c #fe4b4b",
"i. c #f24649",
"p. c #ff5454",
"a. c #e7585b",
"s. c #ff6363",
"d. c #ff7373",
"f. c #817e82",
"g. c #817f84",
"h. c #857a8f",
"j. c #89758a",
"k. c #8c7b8a",
"l. c #84718c",
"z. c #807698",
"x. c #887e98",
"c. c #8b7498",
"v. c #987f8e",
"b. c #937c8a",
"n. c #8579a5",
"m. c #848185",
"M. c #858489",
"N. c #89868b",
"B. c #8b898e",
"V. c #8b8791",
"C. c #8e8c92",
"Z. c #94838e",
"A. c #948790",
"S. c #918e93",
"D. c #9b8c95",
"F. c #9a8592",
"G. c #949196",
"H. c #96949c",
"J. c #99969c",
"K. c #9c989d",
"L. c #9989a9",
"P. c #9997a0",
"I. c #9e9ba3",
"U. c #a08f9b",
"Y. c #a3949d",
"T. c #a08daa",
"R. c #a29fa4",
"E. c #ac9ba4",
"W. c #a794b2",
"Q. c #a3a0a5",
"!. c #a6a4aa",
"~. c #aba5aa",
"^. c #ada9af",
"/. c #adadb2",
"(. c #aca8b6",
"). c #b6a3ab",
"_. c #b6a3b0",
"`. c #b2aeb4",
"'. c #bba9b0",
"]. c #b3a2bb",
"[. c #b3b1b6",
"{. c #b6b4b9",
"}. c #bab5bb",
"|. c #bbb9be",
" X c #a696c2",
".X c #ada3c9",
"XX c #b2a8c0",
"oX c #bfafc3",
"OX c #b4a9cb",
"+X c #b3a5d0",
"@X c #bebdc2",
"#X c #bbb2d7",
"$X c #dd96a8",
"%X c #d89eb8",
"&X c #c0acb6",
"*X c #c0adbb",
"=X c #c3b0b6",
"-X c #cab6be",
";X c #d7a1b1",
":X c #d1acbb",
">X c #e1899c",
",X c #c1bfc5",
"<X c #c4bcc3",
"1X c #c4bec8",
"2X c #cbbbc6",
"3X c #c9bccd",
"4X c #c3bcdc",
"5X c #d1bfc6",
"6X c #c3c1c6",
"7X c #c5c3c9",
"8X c #cac5cc",
"9X c #ccc8ce",
"0X c #ceccd7",
"qX c #cdcbd2",
"wX c #d4c7ce",
"eX c #d3c2d0",
"rX c #d1ced5",
"tX c #d4cbd4",
"yX c #daccd6",
"uX c #dbccda",
"iX c #d4cadc",
"pX c #d3d0d7",
"aX c #d6d2d9",
"sX c #dad5dc",
"dX c #dbd8de",
"fX c #c5c0e3",
"gX c #cfcbed",
"hX c #cbc4e4",
"jX c #d4cde4",
"kX c #d3ceec",
"lX c #d5d3e1",
"zX c #dad4e3",
"xX c #dbd5e8",
"cX c #ddd9e6",
"vX c #ddd8ec",
"bX c #dbd6f4",
"nX c #ddd8f5",
"mX c #e1d4dd",
"MX c #e2d6e2",
"NX c #e4dbe3",
"BX c #e3dcea",
"VX c #e9dde6",
"CX c #e9dfe9",
"ZX c #e2def2",
"AX c #e3defa",
"SX c #e7e0ec",
"DX c #ebe3ec",
"FX c #e7e0f5",
"GX c #e5e1fa",
"HX c #ece5f3",
"JX c #eae4f8",
"KX c #eee8f2",
/* pixels */
"NX<X=                                                           ",
"NXDX`.+                                                         ",
"VXDXVXK.                                                        ",
"mXDXDXsXN.                                                      ",
"mXVXVXMXiX1X1X7X9XtXrXrXtXtX9X8X<X{.^.Q.K.G.N.m.L H Z B M z *   ",
"sXMXVXMXzXcXcXSXSXDXKXKXKXDXSXMXaX9X<X{.^.Q.J.S.N.m.L H Z B &   ",
"yXmXMXMXxXZXZXJXJXKXKXKXKXDXSXMXaX9X<X{.^.Q.J.S.N.m.L H Z B &   ",
"wXyXmXzXzXGXGXJXHXHXKXKXDXDXVXsXrX9X<X{.^.R.J.S.N.W L H Z B &   ",
"5XtXyXuXjXAXAXAXZXZXHXCXCXVXMXsXtX8X|.[.~.R.J.C.M.f.L H Z B &   ",
"-X2X5XiXhXbXnXnXvXBXBXBXMXmXsXyXwX<X{.`.~.I.G.B.M.I L H Z N &   ",
"&X2X2X3X4XgXkXkXjXjXjXiXuXtXtX8X<X-X`.^.Q.K.G.B.m.I K F C N &   ",
"_.&X*X<X#XfX%X>X$X;X:X2X3X1X2X<X|.`.^.!.I.J.S.N.m.I H F C N &   ",
").)._.].+X#Xt.:.2.5.5.5.5.6.i.a.~.~.!.I.J.G.B.M.W I H A C M &   ",
"E.E.E.W. X.Xw.;.;.;.1.4.6.5.4.2.X.K.K.H.G.C.N.m.W L H A B M &   ",
"U.U.U.T.n.n.#.:.:.1.1.:.-.<.3.4.0.S.S.S.C.B.M.W I K H C N M *   ",
"D.F.F.L.R x } <.2.4.4.2.<.=.+.+.*...B.N.M.M.g.W I K A C N M *   ",
"A.Z.v.c.d w | 5.6.u.u.y.5.7.@.@.o.{ f.m.g.g.W I K H A C M n *   ",
"Z.b.b.E r 1  .y.p.s.s.p.y.>.%.O.o.' D W W L L L H A A B M b *   ",
"k.k.j.m e : #.p.s.d.d.s.u.,.%.O.] ` ) K W L K K H A C N M b *   ",
"k.j.E v 9 - [ 9.e.r.r.e.0.$.| _ _ / ~ V L L K H G A C N M z *   ",
"k.j.T f 7 : ^ ^ ( ( ( ( ^ ! ! i u u u z G K H G A A C N M z *   ",
"h.l.m r 8 q s s a a a a p p y y t t t V V.P.J.H.H.S.C.B.M.W h O ",
"x.Q m Y U 0 ; @ O o o o . . . . o $ , l J.,X6X@X@X{.[.`.^.!.Q.J.",
"L.OX.Xz.c 4 > $ o o X . X X X X X o O 2 f.7X8X7X6X@X@X|.{.`./.!.",
"bXbXjXXXS 3 > % $ # % 5 6 g l B L N.J./.qXrXqX9X7X6X@X@X@X{.`./.",
"xXxXxXlX(.I.!.oX7XrXsXsXsXdXdXdXsXaXaXpXrXqXqX8X7X6X@X@X|.{.[./.",
"lXlXlXlXlXlXlXlXzXlXsXsXsXsXaXaXpXrXqXqX9X7X7X7X6X@X@X|.}.{.[./.",
"0X0X0X0X0X0X0X0XrXrXrXrXrXqXqXqXqX8X8X7X7X6X,X@X@X@X|.{.{.[.[./.",
"b b b b n n b b b b b b b b b z z z z z z l l l k k j j j j j j ",
"                                                                ",
"                                                                ",
"                                                                "
};
