/* XPM */
static char * std_xpm[] = {
"32 32 81 1",
" 	c None",
".	c #7E7E7E",
"+	c #737373",
"@	c #5A5A5A",
"#	c #5D5D5D",
"$	c #696969",
"%	c #7A7A7A",
"&	c #4D4D4D",
"*	c #464646",
"=	c #494949",
"-	c #555555",
";	c #616161",
">	c #686868",
",	c #606060",
"'	c #474747",
")	c #484848",
"!	c #5E5E5E",
"~	c #848484",
"{	c #4A4A4A",
"]	c #4C4C4C",
"^	c #454545",
"/	c #888888",
"(	c #505050",
"_	c #515151",
":	c #4B4B4B",
"<	c #6F6F6F",
"[	c #6C6C6C",
"}	c #636363",
"|	c #525252",
"1	c #545454",
"2	c #535353",
"3	c #4E4E4E",
"4	c #969696",
"5	c #565656",
"6	c #585858",
"7	c #575757",
"8	c #6E6E6E",
"9	c #727272",
"0	c #595959",
"a	c #A3A3A3",
"b	c #5C5C5C",
"c	c #949494",
"d	c #6A6A6A",
"e	c #757575",
"f	c #767676",
"g	c #707070",
"h	c #676767",
"i	c #5F5F5F",
"j	c #777777",
"k	c #A2A2A2",
"l	c #AAAAAA",
"m	c #909090",
"n	c #7C7C7C",
"o	c #6D6D6D",
"p	c #626262",
"q	c #9A9A9A",
"r	c #9E9E9E",
"s	c #9C9C9C",
"t	c #929292",
"u	c #868686",
"v	c #747474",
"w	c #646464",
"x	c #797979",
"y	c #8B8B8B",
"z	c #979797",
"A	c #666666",
"B	c #4F4F4F",
"C	c #8C8C8C",
"D	c #8F8F8F",
"E	c #7D7D7D",
"F	c #818181",
"G	c #959595",
"H	c #989898",
"I	c #939393",
"J	c #7F7F7F",
"K	c #A0A0A0",
"L	c #808080",
"M	c #898989",
"N	c #717171",
"O	c #5B5B5B",
"P	c #7B7B7B",
"................................",
"................................",
"................................",
"................................",
"................................",
".............+@@#$%.............",
"...........%&***=-;>............",
"..........,*'))'**=!~%..........",
".........%*{&&]{)*^),/..........",
"........%)&(__(&:='^=<[.........",
"........}&|1--2_3:)'*(4%........",
"........{|566751(&{'^)89........",
".......+]50@@@6-|(]=**2a%.......",
".......}|0b##b@7-_&{'^:c9.......",
".......--!defghi023:)*)j+.......",
".......&6fklkmno,5(]=*'p~.......",
".......&0/qrstuvw6(&=*'@........",
".......&0xytzcyxA6_]=**0x.......",
".......B7w~C4zDE$0(])**6%.......",
".......0-bFyGHIJd6(])*'@F.......",
".......<|@graKGJ$6B])*)h9.......",
".......%:5bdLMJN;-3{)^{~o.......",
"........3|70OOO@5_]=**(q%.......",
"........+:1577-1_3:)*)}j........",
".........13|222_B]=**&Iv........",
".........%)]B(B3:=)^)}>.........",
"..........%)={:{)'*'6P..........",
"...........%&^****{$w...........",
".............+(&_BOv............",
"................................",
"................................",
"................................"};
