/* XPM */
static char *magick[] = {
/* columns rows colors chars-per-pixel */
"32 32 256 2",
"   c Gray0",
".  c #020502",
"X  c #040504",
"o  c #030d03",
"O  c #050905",
"+  c #020a02",
"@  c #090a09",
"#  c #0a0d0a",
"$  c #0d0f0d",
"%  c #041204",
"&  c #041604",
"*  c #041904",
"=  c #061d06",
"-  c #0b110b",
";  c #0d120d",
":  c #0d150d",
">  c #0b150b",
",  c #0a1a0a",
"<  c #111111",
"1  c #141714",
"2  c #131713",
"3  c #131913",
"4  c #151915",
"5  c #141f14",
"6  c #191b19",
"7  c #072307",
"8  c #0b240b",
"9  c #0a2a0a",
"0  c #0a340a",
"q  c #0d3c0d",
"w  c #152315",
"e  c #172917",
"r  c #1a221a",
"t  c #1a241a",
"y  c #192c19",
"u  c #113c11",
"i  c #153615",
"p  c #212621",
"a  c #212b21",
"s  c #292f29",
"d  c #243424",
"f  c #253f25",
"g  c #2a322a",
"h  c #383a38",
"j  c #3a3d3a",
"k  c #3c3c3c",
"l  c #343c34",
"z  c #0c440c",
"x  c #0e4d0e",
"c  c #0f530f",
"v  c #0f5a0f",
"b  c #104610",
"n  c #114b11",
"m  c #145414",
"M  c #185c18",
"N  c #146514",
"B  c #136c13",
"V  c #196d19",
"C  c #1c641c",
"Z  c #157a15",
"A  c #1e741e",
"S  c #1c781c",
"D  c #205420",
"F  c #3b403b",
"G  c #3b4e3b",
"H  c #335233",
"J  c #206420",
"K  c #266b26",
"L  c #267326",
"P  c #3b663b",
"I  c #3e6f3e",
"U  c #317731",
"Y  c #3e7c3e",
"T  c #414f41",
"R  c #4a574a",
"E  c #4b5b4b",
"W  c #505b50",
"Q  c #5b5e5b",
"!  c #595a59",
"~  c #4e6c4e",
"^  c #4b654b",
"/  c #4f704f",
"(  c #437a43",
")  c #546254",
"_  c #526b52",
"`  c #5c655c",
"'  c #5c625c",
"]  c #537553",
"[  c #527252",
"{  c #646e64",
"}  c #647f64",
"|  c #6b756b",
" . c #707470",
".. c Gray49",
"X. c #158615",
"o. c #168a16",
"O. c #1b8f1b",
"+. c #1a851a",
"@. c #179917",
"#. c #1c941c",
"$. c #1e9b1e",
"%. c #1b9c1b",
"&. c #1aa31a",
"*. c #1cac1c",
"=. c #1eb11e",
"-. c #1cba1c",
";. c #238823",
":. c #209520",
">. c #249b24",
",. c #309730",
"<. c #25a425",
"1. c #2aad2a",
"2. c #24ab24",
"3. c #23b423",
"4. c #26be26",
"5. c #33a433",
"6. c #36b436",
"7. c #3dbe3d",
"8. c #32bb32",
"9. c #1ec21e",
"0. c #1ecc1e",
"q. c #24cc24",
"w. c #2bc22b",
"e. c #2fcc2f",
"r. c #21d421",
"t. c #27de27",
"y. c #20df20",
"u. c #2cda2c",
"i. c #30c930",
"p. c #34c634",
"a. c #37da37",
"s. c #38d538",
"d. c #3eda3e",
"f. c #33d633",
"g. c #22e622",
"h. c #25e425",
"j. c #26eb26",
"k. c #23ea23",
"l. c #2ee32e",
"z. c #26f626",
"x. c #26fa26",
"c. c #26fe26",
"v. c #29fe29",
"b. c #2eff2e",
"n. c #28f928",
"m. c #2bf52b",
"M. c #36e536",
"N. c #32e832",
"B. c #39e639",
"V. c #37f737",
"C. c #32ff32",
"Z. c #35ff35",
"A. c #3cf43c",
"S. c #39ff39",
"D. c #3eff3e",
"F. c #4d8b4d",
"G. c #499d49",
"H. c #558755",
"J. c #5b875b",
"K. c #579d57",
"L. c #4ca44c",
"P. c #41b841",
"I. c #6c826c",
"U. c #6d916d",
"Y. c #779777",
"T. c #749c74",
"R. c #799579",
"E. c #799d79",
"W. c #778877",
"Q. c #65ad65",
"!. c #67b067",
"~. c #76a176",
"^. c #76a476",
"/. c #7aa67a",
"(. c #7aa27a",
"). c #44cb44",
"_. c #4bdc4b",
"`. c #5ed05e",
"'. c #41ed41",
"]. c #41ff41",
"[. c #44fc44",
"{. c #49ff49",
"}. c #4dfd4d",
"|. c #44f144",
" X c #51ea51",
".X c #54fc54",
"XX c #59fe59",
"oX c #5fff5f",
"OX c #78c978",
"+X c #6bed6b",
"@X c #67ff67",
"#X c #6bff6b",
"$X c #74ff74",
"%X c #8d8e8d",
"&X c #829082",
"*X c #8f918f",
"=X c #8b9c8b",
"-X c #909590",
";X c #929a92",
":X c #989a98",
">X c #9a9d9a",
",X c #83ac83",
"<X c #83b083",
"1X c #9ca39c",
"2X c #9eac9e",
"3X c #a2a2a2",
"4X c #a4a4a4",
"5X c #a7a9a7",
"6X c #a8aca8",
"7X c #abb4ab",
"8X c #adb9ad",
"9X c #a4b2a4",
"0X c #bebebe",
"qX c #88cd88",
"wX c #96c496",
"eX c #9dd49d",
"rX c #9cdb9c",
"tX c #83ff83",
"yX c #88f888",
"uX c #9fe49f",
"iX c #94e994",
"pX c #9ff89f",
"aX c #a9dea9",
"sX c #a4d9a4",
"dX c #a4e4a4",
"fX c #a7e9a7",
"gX c #ade5ad",
"hX c #ade9ad",
"jX c #adf2ad",
"kX c #b4e7b4",
"lX c #b2eab2",
"zX c #baebba",
"xX c #b5f7b5",
"cX c #bcf6bc",
"vX c #bcfabc",
"bX c #b3fcb3",
"nX c #c6c6c6",
"mX c #c0c0c0",
"MX c #c7c8c7",
"NX c #cacaca",
"BX c #cbcccb",
"VX c #cccdcc",
"CX c #c3fbc3",
"ZX c #c9fec9",
"AX c #ceffce",
"SX c #caf4ca",
"DX c #d1f4d1",
"FX c #d6fed6",
"GX c #d3fcd3",
"HX c #d9ffd9",
"JX c #d8f9d8",
"KX c #e3fee3",
"LX c #e9fee9",
"PX c #edfeed",
"IX c #f3fff3",
"UX c #f6fef6",
/* pixels */
"nXBXBXBXBXBXBXMXMXMXnXnXnX0X..6                           < ! :X",
"BXBXBXBXBXBXBXBXBXMXMXnXnX0X..6                           < ! :X",
"MXBXBXBXBXBXBXBXBXMXBXnXnX0X..6                           < ! :X",
"BXBXBXVXBXBXBXBXBXBXBXBXnX0X..6                           < ! >X",
"BXVXVXVXVXVXBXBXBXBXBXnX0X6X .p # @ X .                   < ! >X",
"BXVXVXVXVXVXVXBXVXBX0X1XR.J.Y K D i e w -                 < Q >X",
"MXBXVXVXVXVXVXBXnX8XT.G.6.i.u.u.3.V i e 5 - O             < Q 1X",
"BXBXVXVXVXVXVXnX2XQ.).B.V.C.C.b.j.&.x = # ; : O           < Q 1X",
"MXBXBXBXVXVXnX2XQ._.[.D.S.Z.C.b.z.0.Z 0 o X # ; @         < Q 1X",
"MXBXBXBXBXBX8X!._.}.[.D.S.Z.C.b.x.y.@.c = . X ; 3 @       < ' 2X",
"nXBXBXBXBX0X~.).}.{.].D.S.S.C.b.c.g.*.B 0 o   O 2 3 X     < ' 2X",
"nXBXBXBXBX2XL.'.{.].].{..X.XD.C.c.g.-.Z z & . . # t :     < ` 2X",
"nXnXBXBX0XR.7.[.].D.[.oX$X#X}.C.c.g.-.o.c 7 + . O e e X   < ` 2X",
"3X3X3X3X:XH.s.D.S.S.{.@XtX$X}.C.x.g.9.@.N 0 % + o w f d a g ) &X",
"k k k k F U M.S.Z.Z.].XX@XXX].b.x.g.9.@.B z = % % 8 P ~.,XY.) l ",
"X X X X : L N.Z.C.C.Z.D.[.D.C.v.z.g.9.&.Z n 9 = = 9 I eXcXsX_ $ ",
"        # K l.C.b.b.b.b.b.b.v.c.z.g.q.*.+.M 0 9 9 u ( aXZXgX_ # ",
"        @ M w.m.b.v.v.v.v.c.c.c.z.h.q.3.#.N b q u M K.zXAXgX[ # ",
"X       X y C =.j.v.v.v.c.c.c.c.z.h.q.3.#.V m m A 5.OXDXGXlX[ # ",
"X       . w e q X.q.j.x.x.x.x.z.j.t.q.3.:.S S >.p._.dXKXGXlX] # ",
"          # 4 # % z X.-.r.g.h.h.t.q.4.2.<.1.i.B.|.+XSXPXHXlX] # ",
"X           - ; . . = 0 v Z O.%.$.>.>.<.w.M.A.[..XpXLXPXHXlX] # ",
"            O > # X     + % 7 9 q m S <.f.A.[.XXyXHXUXLXGXhX] # ",
"              O ; ; O .   . + o 7 n S 1.a.'..XtXAXUXIXKXAXhX[ # ",
"                @ 4 1 # O . + o 7 m ;.8.d. XyXZXUXUXLXGXZXdX[ # ",
"                  @ 1 r 5 : - , i J ,.P.`.iXGXIXIXLXHXAXCXdX~ # ",
"                    X ; w w d H P F.!.qXkXJXLXLXKXGXAXCXvXdX~ # ",
"X                         # G <XeXaXzXSXGXGXGXGXAXZXCXvXbXrX^ @ ",
"X   X   X   X X . X X . X @ T wXkXcXcXcXcXCXCXcXcXxXxXjXfXwXE # ",
"k h k k k k h k h k k k k k R I.R.E.(./././././.^.^.~.T.U.} R l ",
"%X%X*X*X*X*X*X*X*X-X;X;X;X=X{ s r r r t t t t t t r r r 6 p E W.",
"4X5X5X5X5X6X6X6X7X7X7X7X7X9X| 4                           ; E =X"
};
