/* XPM */
static char * render_ilrPtmShader_xpm[] = {
"32 32 294 2",
"  	c None",
". 	c #000000",
"+ 	c #0A0806",
"@ 	c #766856",
"# 	c #4E4434",
"$ 	c #201A14",
"% 	c #020200",
"& 	c #1A1610",
"* 	c #BAAA96",
"= 	c #BDAF9B",
"- 	c #C1B39F",
"; 	c #B7A993",
"> 	c #8D7E69",
", 	c #5F5343",
"' 	c #322B20",
") 	c #070605",
"! 	c #1D1913",
"~ 	c #BCAC98",
"{ 	c #C0B29E",
"] 	c #C4B5A2",
"^ 	c #C6B7A4",
"/ 	c #9C8B74",
"( 	c #6F624F",
"_ 	c #433B2D",
": 	c #15120D",
"< 	c #BBAB97",
"[ 	c #BEB09C",
"} 	c #C2B5A0",
"| 	c #C5B6A3",
"1 	c #B3A38D",
"2 	c #877965",
"3 	c #5A4F3E",
"4 	c #29231B",
"5 	c #BCAE9A",
"6 	c #C7B8A5",
"7 	c #CBBEAB",
"8 	c #CDC0AF",
"9 	c #D0C4B2",
"0 	c #9C8C76",
"a 	c #6D604D",
"b 	c #3E3528",
"c 	c #0B0A07",
"d 	c #BFB19D",
"e 	c #C3B6A1",
"f 	c #CCBFAC",
"g 	c #CFC3B1",
"h 	c #CEC1B0",
"i 	c #CDC0AD",
"j 	c #A19079",
"k 	c #C7BAA7",
"l 	c #D1C5B3",
"m 	c #A2917C",
"n 	c #D2C6B4",
"o 	c #1C1812",
"p 	c #D3C7B5",
"q 	c #A09078",
"r 	c #565556",
"s 	c #555555",
"t 	c #545454",
"u 	c #545354",
"v 	c #5C5A59",
"w 	c #7A7670",
"x 	c #7F7A75",
"y 	c #837E79",
"z 	c #84807B",
"A 	c #85807B",
"B 	c #86827C",
"C 	c #87837D",
"D 	c #87837E",
"E 	c #84817B",
"F 	c #86837D",
"G 	c #87847F",
"H 	c #898580",
"I 	c #888681",
"J 	c #888480",
"K 	c #88847F",
"L 	c #86837E",
"M 	c #84827C",
"N 	c #7A756E",
"O 	c #4E4E4E",
"P 	c #4D4D4D",
"Q 	c #4D4C4D",
"R 	c #6C6C6C",
"S 	c #6B6B6B",
"T 	c #6B6B6C",
"U 	c #727170",
"V 	c #8C8883",
"W 	c #918C86",
"X 	c #938F89",
"Y 	c #9B9790",
"Z 	c #9C9892",
"` 	c #9E9A94",
" .	c #9E9B96",
"..	c #9D9994",
"+.	c #9B9792",
"@.	c #9E9994",
"#.	c #9F9B96",
"$.	c #A09C97",
"%.	c #A09C99",
"&.	c #9F9C98",
"*.	c #9F9C97",
"=.	c #9D9A94",
"-.	c #9C9893",
";.	c #908B85",
">.	c #656464",
",.	c #646464",
"'.	c #636364",
").	c #636363",
"!.	c #848484",
"~.	c #838483",
"{.	c #010101",
"].	c #080808",
"^.	c #2E2D2C",
"/.	c #8F8A88",
"(.	c #9A9792",
"_.	c #B5B2AC",
":.	c #706D6B",
"<.	c #B5B1AD",
"[.	c #B4B1AC",
"}.	c #B3B0AB",
"|.	c #66635F",
"1.	c #7A7A7B",
"2.	c #9A9A9A",
"3.	c #999A9A",
"4.	c #383635",
"5.	c #B0ADAA",
"6.	c #CDCBC5",
"7.	c #393837",
"8.	c #CCC9C4",
"9.	c #CBC7C1",
"0.	c #CAC6C1",
"a.	c #333230",
"b.	c #919191",
"c.	c #919291",
"d.	c #B1B1B1",
"e.	c #B0B0B1",
"f.	c #B4B2B1",
"g.	c #92908C",
"h.	c #070707",
"i.	c #C9C5C1",
"j.	c #C6C3BE",
"k.	c #C1BFBB",
"l.	c #C6C3BF",
"m.	c #D3CFC9",
"n.	c #DBD6D0",
"o.	c #E2DDD8",
"p.	c #E5E2DD",
"q.	c #1F1E1E",
"r.	c #030303",
"s.	c #D2CEC9",
"t.	c #DFDBD6",
"u.	c #CDCAC5",
"v.	c #161616",
"w.	c #A9A9A9",
"x.	c #A9A8A9",
"y.	c #BABABA",
"z.	c #BDBCBB",
"A.	c #999693",
"B.	c #0B0B0B",
"C.	c #D3D0CB",
"D.	c #D2CFCB",
"E.	c #CFCCC8",
"F.	c #CCC9C6",
"G.	c #DAD6D1",
"H.	c #E5E1DB",
"I.	c #ECE9E3",
"J.	c #F0EDE8",
"K.	c #747370",
"L.	c #928F8C",
"M.	c #EEEAE5",
"N.	c #908E8A",
"O.	c #595959",
"P.	c #4B4A48",
"Q.	c #D2CFCA",
"R.	c #D1CECA",
"S.	c #CECBC8",
"T.	c #D7D3CE",
"U.	c #E1DDD7",
"V.	c #E9E5DF",
"W.	c #EDE9E3",
"X.	c #BFBCB7",
"Y.	c #403F3E",
"Z.	c #3F3F3D",
"`.	c #020202",
" +	c #989898",
".+	c #0E0E0D",
"++	c #494846",
"@+	c #C7C3C0",
"#+	c #D4D1CC",
"$+	c #D3D0CC",
"%+	c #DBD7D2",
"&+	c #E2DED8",
"*+	c #E7E2DC",
"=+	c #3A3937",
"-+	c #C5C1BC",
";+	c #373635",
">+	c #ACACAC",
",+	c #C4C2C0",
"'+	c #D9D5D1",
")+	c #D9D5D0",
"!+	c #D8D4CF",
"~+	c #D7D4CF",
"{+	c #D6D3CE",
"]+	c #D5D2CD",
"^+	c #DEDBD5",
"/+	c #D9D4CE",
"(+	c #898783",
"_+	c #817F7C",
":+	c #AFAFAF",
"<+	c #C4C3C1",
"[+	c #DAD6D2",
"}+	c #D8D5D0",
"|+	c #D0CDC9",
"1+	c #DAD6D0",
"2+	c #D6D3CD",
"3+	c #C8C5C0",
"4+	c #D9D6D1",
"5+	c #CECBC7",
"6+	c #E9E4DE",
"7+	c #3C3B39",
"8+	c #3D3C3B",
"9+	c #DCD8D3",
"0+	c #B4B4B4",
"a+	c #D8D5CF",
"b+	c #D3CFCB",
"c+	c #CBC8C5",
"d+	c #C9C6C4",
"e+	c #C9C7C4",
"f+	c #E5E0DA",
"g+	c #8A8784",
"h+	c #8C8A86",
"i+	c #B8B8B8",
"j+	c #D1CEC9",
"k+	c #CDCBC7",
"l+	c #D2CECA",
"m+	c #DEDAD5",
"n+	c #E6E2DC",
"o+	c #E8E3DD",
"p+	c #D6D2CE",
"q+	c #CDCAC6",
"r+	c #CCCAC6",
"s+	c #251F17",
"t+	c #736553",
"u+	c #6F6351",
"v+	c #695D4B",
"w+	c #675A49",
"x+	c #4A4032",
"y+	c #4B4133",
"z+	c #564A3A",
"A+	c #594D3D",
"B+	c #584C3C",
"C+	c #5E5242",
"D+	c #92826C",
"E+	c #A5947F",
"F+	c #A69580",
"G+	c #241E16",
"H+	c #6D614F",
"I+	c #6C5F4C",
"J+	c #665948",
"K+	c #5D5141",
"L+	c #54493A",
"M+	c #5C5040",
"N+	c #786A58",
"O+	c #A4937E",
"P+	c #A79681",
"Q+	c #2E271E",
"R+	c #716451",
"S+	c #685C4A",
"T+	c #5B503F",
"U+	c #605444",
"V+	c #998973",
"W+	c #6A5E4C",
"X+	c #615545",
"Y+	c #635645",
"Z+	c #655847",
"`+	c #81735F",
" @	c #726552",
".@	c #645746",
"+@	c #7F715F",
"@@	c #443B2E",
"#@	c #2D261D",
"$@	c #504536",
"%@	c #40372A",
"&@	c #2C251C",
"*@	c #18140E",
"=@	c #030301",
"-@	c #2B241B",
";@	c #524738",
">@	c #3F3629",
",@	c #17130D",
"'@	c #050403",
")@	c #211D15",
"!@	c #463C2E",
"~@	c #312A1F",
". . . . . + @ # $ % . . . . . . . . . . . . . . . . . . . . . . ",
". . . . . & * = - ; > , ' ) . . . . . . . . . . . . . . . . . . ",
". . . . . ! * ~ { ] ^ - { ~ / ( _ : . . . . . . . . . . . . . . ",
". . . . . ! * < [ } ^ ] { { { { { | 1 2 3 4 % . . . . . . . . . ",
". . . . . ! * * 5 { | 6 } { { { { ^ 7 7 8 9 ] 0 a b c . . . . . ",
". . . . . ! * * < d e 6 ^ { { { { ^ f f g 9 9 g h i j . . . . . ",
". . . . . ! * * * = - | k e { { { 6 f i l l l 9 h 8 m . . . . . ",
". . . . . ! * * * ~ d e 6 6 - { { 6 f h n l l 9 g h m . . . . . ",
". . . . . o ; * * * [ - | k ] { { k f 9 p p n l 9 8 q . . . . . ",
"r s t t u v w x y z A B C D D B E F G H I I J K L M N O P P P Q ",
"R S T S S U G I V W X Y Z `  ...+.@.#.$.%.&.*. .=.-.;.>.,.'.).).",
"!.~.. . . {.].^./.(.. . . . . . . . _.. . . :.<.[.}.|.. . . 1.1.",
"2.3.. . . . . . 4.5.. . . . . . . . 6.. . . 7.8.9.0.a.. . . b.c.",
"d.d.. . e.f.g.. h.i.j.k.l.. . m.n.o.p.. . q.r.s.t.u.r.v.. . w.x.",
"y.y.. . y.z.A.. B.C.D.E.F.. . G.H.I.J.. . K.. L.M.N.. O.. . y.y.",
"y.y.. . . . . . P.D.Q.R.S.. . T.U.V.W.. . X.{.Y.I.Z.`. +. . y.y.",
"y.y.. . . . .+++@+#+$+D.R.. . $+%+&+*+. . m.=+r.-+r.;+>+. . y.y.",
"y.y.. . y.,+G.'+)+!+~+{+$+. . E.]+%+^+. . /+(+. a.. _+:+. . y.y.",
"y.y.. . y.<+[+G.'+}+!+~+]+. . F.|+#+{+. . 1+2+`.. `.3+d.. . y.y.",
"y.y.. . y.<+%+G.4+)+!+T.]+. . 5+F.5+E.. . )+6+7+. 8+9+0+. . y.y.",
"y.y.. . y.,+%+G.'+a+~+{+b+. . S.c+d+e+. . ~+f+g+. h+9+i+. . y.y.",
"y.y.y.y.y.,+G.'+}+!+T.]+j+j+E.F.k+5+5+F.F.l+m+n+o+6+[+y.y.y.y.y.",
"y.y.y.y.y.,+'+}+!+T.p+C.|+E.q+E.j+|+|+|+E.r+#+f+n+*+)+y.y.y.y.y.",
". . . . . s+t+u+a v+w+3 x+y+z+A+B+z+z+z+B+B+C+D+E+F+t+. . . . . ",
". . . . . G+u+H+I+v+J+K+L+B+3 3 A+B+A+B+A+M+C+N+O+P+a . . . . . ",
". . . . . Q+R+( a S+, T+3 T+M+M+3 3 3 3 T+C+U+w+V+P+S+. . . . . ",
". . . . . Q+R+( W+X+C+M+M+K+C+C+M+M+K+K+K+, Y+Z+`+P+v+. . . . . ",
". . . . . Q+ @I+.@, , C+C+, U+, C+C+, , , X+Z+w+a +@@@. . . . . ",
". . . . . #@H+J+.@X+U+, , X+Y+U+U+U+U+U+$@%@&@*@=@. . . . . . . ",
". . . . . -@S+J+Z+.@Y+X+Y+.@.@;@>@-@,@=@. . . . . . . . . . . . ",
". . . . . 4 W+S+J+.@L+>@&@*@'@. . . . . . . . . . . . . . . . . ",
". . . . . )@!@~@& '@. . . . . . . . . . . . . . . . . . . . . . "};
