/* XPM */
static char *magick[] = {
/* columns rows colors chars-per-pixel */
"32 32 254 2",
"   c Gray0",
".  c #030304",
"X  c #0a0a0c",
"o  c #0b0b13",
"O  c #151418",
"+  c #070150",
"@  c #171747",
"#  c #1a1a47",
"$  c #1c1b47",
"%  c #1b1b44",
"&  c #090168",
"*  c #0b017e",
"=  c #6f0808",
"-  c #690c1e",
";  c #740b0b",
":  c #7b0f0f",
">  c #7f1212",
",  c #6b0c23",
"<  c #7c182f",
"1  c #75142c",
"2  c #7e1b31",
"3  c #545477",
"4  c #585777",
"5  c #595977",
"6  c #5e5d77",
"7  c #090382",
"8  c #0d0191",
"9  c #0601b4",
"0  c #3a12b0",
"q  c #0a04c5",
"w  c #0701d1",
"e  c #0a01de",
"r  c #0701e4",
"t  c #0701fd",
"y  c #0d07f0",
"u  c #0b01ff",
"i  c #180bec",
"p  c #1005ff",
"a  c #140cfe",
"s  c #1c14ff",
"d  c #1f1aff",
"f  c #2117ff",
"g  c #241bff",
"h  c #291fff",
"j  c #2a22ff",
"k  c #3027ff",
"l  c #3828ff",
"z  c #3732ff",
"x  c #3c31ff",
"c  c #4534ff",
"v  c #4d3eff",
"b  c #47478b",
"n  c #4a43ff",
"m  c #5544ff",
"M  c #544aff",
"N  c #5e5ce7",
"B  c #5a55ff",
"V  c #5c5bff",
"C  c #6757ff",
"Z  c #6c55ff",
"A  c #635bf7",
"S  c #7159ff",
"D  c #6361e7",
"F  c #6867e7",
"G  c #6e6ce7",
"H  c #6262ff",
"J  c #6665ff",
"K  c #6463ff",
"L  c #6866ff",
"P  c #6b64fc",
"I  c #6a69ff",
"U  c #6c6bff",
"Y  c #6e6cff",
"T  c #7b65e8",
"R  c #7560ff",
"E  c #7169f7",
"W  c #706fff",
"Q  c #7d65ff",
"!  c #7b6bff",
"~  c #7472e7",
"^  c #7775e8",
"/  c #7b79e7",
"(  c #7271ff",
")  c #7573ff",
"_  c #7675ff",
"`  c #7976ff",
"'  c #7f76ff",
"]  c #7a79ff",
"[  c #7d7aff",
"{  c #7e7dff",
"}  c #8c1c1e",
"|  c #841616",
" . c #9b0e0e",
".. c #911f1f",
"X. c #901220",
"o. c #912222",
"O. c #a81717",
"+. c #b20f0f",
"@. c #b61014",
"#. c #bb1515",
"$. c #b72424",
"%. c #bb2455",
"&. c #a22f68",
"*. c #af2d63",
"=. c #c80f0f",
"-. c #c61818",
";. c #d71818",
":. c #de162e",
">. c #c63232",
",. c #d72626",
"<. c #e61919",
"1. c #fc1212",
"2. c #fc1c1c",
"3. c #ff1727",
"4. c #f81e38",
"5. c #e83131",
"6. c #e83a3a",
"7. c #fe2222",
"8. c #fe2e2e",
"9. c #f42525",
"0. c #fe3333",
"q. c #f63434",
"w. c #e72727",
"e. c #c6325b",
"r. c #c12d67",
"t. c #c83574",
"y. c #e01e51",
"u. c #fd1962",
"i. c #ff2577",
"p. c #cd4040",
"a. c #d44f4f",
"s. c #d44242",
"d. c #d25050",
"f. c #d55a5a",
"g. c #da4664",
"h. c #dd537c",
"j. c #fd4343",
"k. c #fe4b4b",
"l. c #ff5454",
"z. c #ff6363",
"x. c #ff7373",
"c. c #8b3884",
"v. c #827fa7",
"b. c #936add",
"n. c #8073ff",
"m. c #817fff",
"M. c #857dff",
"N. c #8b76ff",
"B. c #8e7cff",
"V. c #9177ff",
"C. c #937dff",
"Z. c #b875f2",
"A. c #f62785",
"S. c #fe29ba",
"D. c #fa2fd3",
"F. c #fe33c9",
"G. c #fe2de9",
"H. c #fe31e6",
"J. c #ff35fe",
"K. c #fb3cfe",
"L. c #da43d3",
"P. c #e657f1",
"I. c #f245ff",
"U. c #9c97b7",
"Y. c #8281e7",
"T. c #8a88e7",
"R. c #8582ff",
"E. c #8382ff",
"W. c #8986ff",
"Q. c #8b84fe",
"!. c #8d8aff",
"~. c #8c8bff",
"^. c #9384ff",
"/. c #928eff",
"(. c #9c84ff",
"). c #9a8cff",
"_. c #9391e7",
"`. c #9b99e7",
"'. c #9492ff",
"]. c #9996ff",
"[. c #9998f6",
"{. c #9e9aff",
"}. c #9d9bff",
"|. c #a28fff",
" X c #a594ff",
".X c #a19dff",
"XX c #ac9bff",
"oX c #b0aac5",
"OX c #a4a2e7",
"+X c #adaae7",
"@X c #a5a2ff",
"#X c #aba5ff",
"$X c #adabff",
"%X c #b1aee9",
"&X c #b2a4ff",
"*X c #b1afff",
"=X c #b4acff",
"-X c #b8a5ff",
";X c #bba9ff",
":X c #b7b3e7",
">X c #bab7e7",
",X c #b6b5ff",
"<X c #b3b2ff",
"1X c #b9b6ff",
"2X c #beb6ff",
"3X c #bebdff",
"4X c #bbb9ff",
"5X c #df97ff",
"6X c #c0b9d6",
"7X c #c1afff",
"8X c #c0bce7",
"9X c #c5b4ff",
"0X c #c1beff",
"qX c #c5bcff",
"wX c #cbb7ff",
"eX c #ccbcff",
"rX c #d5afff",
"tX c #d8a1ff",
"yX c #e088ff",
"uX c #e0a4fe",
"iX c #c6c2e7",
"pX c #cbc5e7",
"aX c #cfc9e7",
"sX c #c2c1ff",
"dX c #c4c2ff",
"fX c #c7c5ff",
"gX c #c8c6ff",
"hX c #cbc3ff",
"jX c #cdcaff",
"kX c #ceccff",
"lX c #cac9ff",
"zX c #d3cee7",
"xX c #d4c2ff",
"cX c #d1ceff",
"vX c #d4cbff",
"bX c #dbcdff",
"nX c #d6d2ff",
"mX c #d6d5ff",
"MX c #d3d1ff",
"NX c #d9d6ff",
"BX c #dcd3ff",
"VX c #dbd8ff",
"CX c #ded9ff",
"ZX c #e3d6ff",
"AX c #e3dbff",
"SX c #e9deff",
"DX c #eadcff",
"FX c #e7e1ff",
"GX c #e9e1ff",
"HX c #ede6ff",
"JX c #ebe4ff",
"KX c #efe9ff",
"LX c #f1e4ff",
"PX c #f1eaff",
/* pixels */
"CX6XO                                                           ",
"AXSXoXX                                                         ",
"AXGXSXU..                                                       ",
"AXSXSXBXv.                                                      ",
"ZXSXSXBXhX%X>XiXpXaXzXzXzXzXaXiX8X:X+XOX`._.T.Y./ ~ G F D N %   ",
"BXDXSXZXvXkXVXAXAXGXHXKXKXJXFXAXnXjX0X,X$X@X]./.W.m.] ( Y L $   ",
"bXZXDXZXBXjXNXFXGXHXJXKXKXJXGXAXBXjX0X,X$X@X]./.W.m.] ( Y L $   ",
"vXBXZXZXBXHXFXGXPXJXKXJXJXLXSXBXnXhX0X<X$X.X]./.W.m.] ( Y L $   ",
"eXbXbXbXvXPXAXNXAXJXJXJXJXLXZXBXvXhX2X*X#X.X].~.W.m.` ( U J $   ",
"9XeXxXxXhXVXCXCXCXAXJXGXZXZXBXhXhXqX1X$X@X{.'.!.R.{ ` ( U J $   ",
"7X9XwXeXqXcXNXnXBXvXvXvXbXbXvXhXqX2X=X#X@X{.'.W.R.[ _ W I J $   ",
";X;X7XwX9XCXuXyX5XtXrXeXhXqXqXeX2X*X$X@X{.]./.W.m.] ) Y I J $   ",
"&X-X-X;X&X=Xh.u.S.J.J.J.J.K.I.P.#X#X@X{.].'.!.R.[ _ ( Y I K $   ",
"XXXXXX X X#Xg.1.1.3.i.F.K.J.J.G.Z..X].'.'.~.W.E.] _ ( Y L K $   ",
" X X). XB.M.e.2.2.7.7.2.4.A.D.H.L././.!.!.W.R.{ ] ) W U J K $   ",
").).(.(.C n %.7.8.0.0.8.9.<.<.:.y.b.!.!.W.R.E.{ ` ( Y I J K $   ",
"^.^.C.V.v k %.0.j.k.k.j.q.w.;.;.=.&.m.W.R.R.E.[ _ ( Y I J K $   ",
"^.C.C.Q c g r.j.l.l.z.l.j.5.,.-.=.@.T R.m.[ { ` ) W Y I J V $   ",
"B.B.N.C l a t.l.z.x.x.z.l.6.,.-.#.+.c.` [ ` ` ) ( Y I L K V $   ",
"C.N.! m j a *.p.d.f.f.a.s.>.$.O.O. .X.P ` ) ) _ W Y I J K V @   ",
"C.N.R c s i } ..o.o.o...} | > : ; ; = A Y Y ( ` Y Y Y J K V @   ",
"^.N.Z x s 0 < 2 2 2 2 2 1 1 , , , , - E W.].}.{.}.'.W.R.E.] b o ",
"M.n.S M z g s a p u u t t r w 9 q a d B {.dXfXsX2X4X<X$X$X@X@X[.",
"Q.&X&Xn.n g s a p u u t e 8 * & + 7 y g Q.jXjXgXsX3X3X4X,X<X$X@X",
"CXCXvX=XP h f s a a s j z n B P ^ W.].$XjXcXkXlXgXfXsX3X4X,X<X$X",
"NXVXCXnX*X{.#X1XgXcXnXNXNXNXVXVXVXVXNXnXjXlXlXlXfXsX0X3X4X,X<X*X",
"MXnXmXmXmXNXNXNXmXNXNXNXNXNXmXnXMXkXjXjXlXgXfXdXsXsX3X4X1X,X<X*X",
"jXjXjXkXkXkXkXkXcXcXcXcXcXkXjXjXgXfXdXsXsXsX0X0X3X2X4X,X,X<X*X$X",
"6 6 6 6 6 6 6 6 6 6 6 6 6 6 6 6 5 5 5 5 5 5 4 3 3 3 3 3 3 3 3 3 ",
"                                                                ",
"                                                                ",
"                                                                "
};
