/* XPM */
static char *magick[] = {
/* columns rows colors chars-per-pixel */
"32 32 41 1",
"  c Gray0",
". c Gray33",
"X c #555555",
"o c #585858",
"O c Gray35",
"+ c #5d5d5d",
"@ c Gray38",
"# c #646464",
"$ c Gray40",
"% c #686868",
"& c #6a6a6a",
"* c Gray42",
"= c Gray43",
"- c #717171",
"; c #767676",
": c Gray48",
"> c #848484",
", c Gray52",
"< c #868686",
"1 c #888888",
"2 c Gray54",
"3 c #929292",
"4 c #939393",
"5 c Gray59",
"6 c Gray61",
"7 c Gray64",
"8 c #aaaaaa",
"9 c #bbbbbb",
"0 c #c3c3c3",
"q c Gray80",
"w c Gray81",
"e c Gray83",
"r c #dadada",
"t c Gray89",
"y c #e4e4e4",
"u c #e6e6e6",
"i c Gray93",
"p c #f4f4f4",
"a c #fbfbfb",
"s c Gray99",
"d c Gray100",
/* pixels */
"                                ",
"                                ",
"            6886dddd            ",
"         6888999dddddddd        ",
"       8889w99wwddddddddue      ",
"     36889wwwwywdddddddsudir    ",
"    36889wwwwyptdddddddsddirr   ",
"   368899wwwtptpdddddddddddiir  ",
"   66889wwwtpapaddddddddddiirrq ",
"  366899wwtpaadddddddddddddiiiq ",
"  368:,;47ypddptddddddddddiirrr0",
" <3-:&,;;>3pt       dd51:::=rrqq",
" 2O-@&&==::1         511====##q0",
" *O-@##==::::11    11::===####+0",
" %*O++##=====:=:::=:::=====#++++",
" %*O++##=##============#####++oo",
"  Xoo++#+###=###==#######++++ooo",
"  Xoo+++++###+##########+++++oXX",
"  $Xoo+o+++##+++###++++#++ooooX ",
"   .Xo+oo+++#+++++#++++++ooooo  ",
"    XXXXooo+ooo++++ooo+++ooXXX  ",
"     XXXXoooooooo++ooooooXXXX   ",
"      X.XXooXXoooooXXXoooX..    ",
"       X.XXXXXXXXooXXXXXX.      ",
"         X.X...XXXX.....X       ",
"            XX....XXX           ",
"                                ",
"                                ",
"                                ",
"                                ",
"                                ",
"                                "
};
