/* XPM */
static char *magick[] = {
/* columns rows colors chars-per-pixel */
"32 32 140 2",
"   c Gray0",
".  c #010101",
"X  c #020202",
"o  c Gray1",
"O  c #040404",
"+  c Gray2",
"@  c #060606",
"#  c #070707",
"$  c Gray3",
"%  c #090909",
"&  c #0b0b0b",
"*  c #0c0c0c",
"=  c #0e0e0e",
"-  c Gray6",
";  c #101010",
":  c #111111",
">  c Gray7",
",  c Gray8",
"<  c #151515",
"1  c #161616",
"2  c Gray9",
"3  c #181818",
"4  c #191919",
"5  c Gray10",
"6  c #1b1b1b",
"7  c Gray11",
"8  c #1d1d1d",
"9  c Gray12",
"0  c #202020",
"q  c Gray13",
"w  c #222222",
"e  c #232323",
"r  c #252525",
"t  c #272727",
"y  c #282828",
"u  c Gray16",
"i  c #2a2a2a",
"p  c Gray17",
"a  c #2c2c2c",
"s  c #2d2d2d",
"d  c Gray18",
"f  c Gray19",
"g  c #313131",
"h  c #323232",
"j  c Gray20",
"k  c #343434",
"l  c #353535",
"z  c Gray21",
"x  c #373737",
"c  c Gray22",
"v  c #393939",
"b  c #3a3a3a",
"n  c Gray23",
"m  c #3c3c3c",
"M  c Gray24",
"N  c #3e3e3e",
"B  c #3f3f3f",
"V  c Gray25",
"C  c #414141",
"Z  c Gray26",
"A  c #434343",
"S  c #444444",
"D  c Gray27",
"F  c #464646",
"G  c Gray28",
"H  c #484848",
"J  c #494949",
"K  c Gray29",
"L  c #4b4b4b",
"P  c #4c4c4c",
"I  c Gray30",
"U  c #4e4e4e",
"Y  c Gray31",
"T  c #505050",
"R  c #515151",
"E  c Gray32",
"W  c #535353",
"Q  c Gray33",
"!  c #555555",
"~  c #565656",
"^  c Gray34",
"/  c #585858",
"(  c Gray35",
")  c #5a5a5a",
"_  c #5b5b5b",
"`  c Gray36",
"'  c #5d5d5d",
"]  c Gray37",
"[  c #5f5f5f",
"{  c #606060",
"}  c Gray38",
"|  c #626262",
" . c Gray39",
".. c #646464",
"X. c #656565",
"o. c Gray40",
"O. c #676767",
"+. c #686868",
"@. c Gray41",
"#. c #6a6a6a",
"$. c Gray42",
"%. c #6c6c6c",
"&. c #6d6d6d",
"*. c Gray43",
"=. c #6f6f6f",
"-. c Gray44",
";. c #717171",
":. c #727272",
">. c Gray45",
",. c #747474",
"<. c Gray46",
"1. c #767676",
"2. c #777777",
"3. c Gray47",
"4. c #797979",
"5. c Gray48",
"6. c #7b7b7b",
"7. c #7c7c7c",
"8. c Gray49",
"9. c Gray",
"0. c Gray50",
"q. c #808080",
"w. c #818181",
"e. c #838383",
"r. c #848484",
"t. c Gray52",
"y. c #868686",
"u. c Gray53",
"i. c #888888",
"p. c #898989",
"a. c Gray54",
"s. c #8b8b8b",
"d. c Gray55",
"f. c #8d8d8d",
"g. c Gray56",
"h. c #909090",
"j. c Gray57",
"k. c #979797",
"l. c Gray60",
"z. c #9a9a9a",
/* pixels */
"                                                                ",
"                                                                ",
"                                %                               ",
"                      * V O.8.t.t.q.-.' k %                     ",
"                  : { h.k.h.a.q.q.q.q.q.q.,.L *                 ",
"                B h.k.a.t.8.8.6.6.6.,.,.-.,.,.@.p               ",
"              ) l.f.t.q.8.8.6.6.,.,.,.-.-.*.@.*.*.v             ",
"            ) l.a.q.8.8.8.8.6.6.,.-.-.-.*.*.@.O.O.@.k           ",
"          V k.t.q.8.8.8.8.8.6.,.,.-.*.*.@.@.@.O.{ { { e         ",
"        * f.a.q.8.8.8.8.8.6.6.,.-.-.*.@.@.O.O.O.{ { ' W @       ",
"        ' f.q.8.8.8.8.8.6.6.,.,.-.*.@.@.O.O.{ { ' ' ) ) g       ",
"      * t.q.8.6.6.6.6.6.,.,.,.-.*.*.@.O.{ { { ' ' ) ! W L @     ",
"      v f.6.6.,.,.,.,.,.,.,.-.*.*.@.O.{ { { ' ) ) ! W P L 3     ",
"      ' t.6.,.,.,.,.,.-.-.-.*.*.@.O.{ { ' ' ) ) ! W P L S 9     ",
"      -.8.,.-.-.-.-.-.*.*.*.@.@.O.O.{ ' ' ) ) ! W P L S B e     ",
"      ,.6.-.-.-.*.*.*.*.*.@.O.O.{ { ' ' ) ) ! W W P L V v 3     ",
"    @ -.,.-.*.*.@.@.@.@.O.O.{ { ' ' ' ) ) ! W W P L S B g 1     ",
"      *.-.*.*.@.@.O.O.O.{ { { ' ' ) ) ! ! W W P L V B k p *     ",
"      { -.@.@.@.O.O.O.{ { ' ' ' ) ) ! ! W W P L S V v g e @     ",
"      L -.O.O.O.O.{ { ' ' ' ) ) ! ! ! W P P L S V B k p 1       ",
"      p *.O.O.{ { ' ' ' ) ) ) ! ! W W P L L S V v k s e %       ",
"      @ { { ' { ' ' ) ) ) ! ! W W P P L S S V B k s r :         ",
"        v { ' ' ) ) ! ! ! W W P P L L S V B v k s r 3           ",
"        % ! ' ! ! ! W W W P P L L S V V B v k s r 3 @           ",
"          e ) ! W P P P L L S S V V B v k s p e 3 %             ",
"            p W L L S L S V V V B v k g s p e 1 @               ",
"              r V V V B B B v v k g s p e 3 *                   ",
"                : p g k g g g s p r e 3 : @                     ",
"                    % 1 3 9 9 3 1 : %                           ",
"                                                                ",
"                                                                ",
"                                                                "
};
