/* XPM */
static char *magick[] = {
/* columns rows colors chars-per-pixel */
"32 32 226 2",
"   c Gray0",
".  c #010101",
"X  c #020202",
"o  c Gray1",
"O  c #040404",
"+  c Gray2",
"@  c #060606",
"#  c #070707",
"$  c Gray3",
"%  c #090909",
"&  c Gray4",
"*  c #0b0b0b",
"=  c #0c0c0c",
"-  c Gray5",
";  c #0e0e0e",
":  c Gray6",
">  c #101010",
",  c #111111",
"<  c Gray7",
"1  c #131313",
"2  c Gray8",
"3  c #151515",
"4  c #161616",
"5  c Gray9",
"6  c #181818",
"7  c #191919",
"8  c #1b1b1b",
"9  c Gray11",
"0  c #1d1d1d",
"q  c #1e1e1e",
"w  c Gray12",
"e  c #202020",
"r  c Gray13",
"t  c #222222",
"y  c #232323",
"u  c Gray14",
"i  c #252525",
"p  c Gray15",
"a  c #272727",
"s  c #282828",
"d  c Gray16",
"f  c #2a2a2a",
"g  c Gray17",
"h  c #2c2c2c",
"j  c #2d2d2d",
"k  c Gray18",
"l  c #2f2f2f",
"z  c Gray19",
"x  c #313131",
"c  c #323232",
"v  c Gray20",
"b  c #343434",
"n  c #353535",
"m  c Gray21",
"M  c #373737",
"N  c Gray22",
"B  c #393939",
"V  c #3a3a3a",
"C  c Gray23",
"Z  c #3c3c3c",
"A  c Gray24",
"S  c #3e3e3e",
"D  c #3f3f3f",
"F  c Gray25",
"G  c #414141",
"H  c Gray26",
"J  c #434343",
"K  c #444444",
"L  c Gray27",
"P  c #464646",
"I  c Gray28",
"U  c #484848",
"Y  c #494949",
"T  c Gray29",
"R  c #4b4b4b",
"E  c #4c4c4c",
"W  c Gray30",
"Q  c #4e4e4e",
"!  c Gray31",
"~  c #505050",
"^  c #515151",
"/  c Gray32",
"(  c #535353",
")  c Gray33",
"_  c #555555",
"`  c #565656",
"'  c Gray34",
"]  c #585858",
"[  c Gray35",
"{  c #5a5a5a",
"}  c #5b5b5b",
"|  c Gray36",
" . c #5d5d5d",
".. c #5f5f5f",
"X. c #606060",
"o. c Gray38",
"O. c #626262",
"+. c Gray39",
"@. c #646464",
"#. c #656565",
"$. c Gray40",
"%. c #676767",
"&. c #686868",
"*. c Gray41",
"=. c #6a6a6a",
"-. c Gray42",
";. c #6c6c6c",
":. c #6d6d6d",
">. c Gray43",
",. c #6f6f6f",
"<. c Gray44",
"1. c #717171",
"2. c #727272",
"3. c Gray45",
"4. c #747474",
"5. c Gray46",
"6. c #767676",
"7. c Gray47",
"8. c #797979",
"9. c Gray48",
"0. c #7b7b7b",
"q. c #7c7c7c",
"w. c Gray49",
"e. c Gray",
"r. c Gray50",
"t. c #808080",
"y. c #818181",
"u. c Gray51",
"i. c #838383",
"p. c #848484",
"a. c Gray52",
"s. c #868686",
"d. c Gray53",
"f. c #888888",
"g. c #898989",
"h. c Gray54",
"j. c #8b8b8b",
"k. c Gray55",
"l. c #8d8d8d",
"z. c #8e8e8e",
"x. c Gray56",
"c. c #909090",
"v. c Gray57",
"b. c #929292",
"n. c #939393",
"m. c Gray58",
"M. c #959595",
"N. c Gray59",
"B. c #979797",
"V. c #989898",
"C. c Gray60",
"Z. c #9a9a9a",
"A. c #9b9b9b",
"S. c Gray61",
"D. c #9d9d9d",
"F. c Gray62",
"G. c #9f9f9f",
"H. c #a0a0a0",
"J. c Gray63",
"K. c #a2a2a2",
"L. c Gray64",
"P. c #a4a4a4",
"I. c #a5a5a5",
"U. c Gray65",
"Y. c #a7a7a7",
"T. c Gray66",
"R. c #a9a9a9",
"E. c #aaaaaa",
"W. c Gray67",
"Q. c #acacac",
"!. c Gray68",
"~. c #aeaeae",
"^. c #afafaf",
"/. c Gray69",
"(. c #b1b1b1",
"). c #b2b2b2",
"_. c Gray70",
"`. c #b4b4b4",
"'. c Gray71",
"]. c #b6b6b6",
"[. c #b7b7b7",
"{. c Gray72",
"}. c #b9b9b9",
"|. c Gray73",
" X c #bbbbbb",
".X c #bcbcbc",
"XX c Gray74",
"oX c #bebebe",
"OX c Gray75",
"+X c #c0c0c0",
"@X c #c1c1c1",
"#X c Gray76",
"$X c #c3c3c3",
"%X c Gray77",
"&X c #c5c5c5",
"*X c #c6c6c6",
"=X c Gray78",
"-X c #c8c8c8",
";X c Gray79",
":X c #cacaca",
">X c #cbcbcb",
",X c #cdcdcd",
"<X c #d3d3d3",
"1X c #d5d5d5",
"2X c #d7d7d7",
"3X c #d8d8d8",
"4X c Gray85",
"5X c #dddddd",
"6X c Gray87",
"7X c #dfdfdf",
"8X c Gray89",
"9X c #e6e6e6",
"0X c #e7e7e7",
"qX c #eaeaea",
"wX c Gray92",
"eX c Gray93",
"rX c #eeeeee",
"tX c #efefef",
"yX c Gray95",
"uX c #f6f6f6",
"iX c Gray98",
"pX c #fbfbfb",
"aX c Gray99",
"sX c #fdfdfd",
"dX c #fefefe",
"fX c Gray100",
/* pixels */
"                                                                ",
"                      @ * ; ; < ; * @                           ",
"                @ ; 6 r a d d d a r q 2 ; @                     ",
"              ; r h M S S S S S B M h d r 6 ; @                 ",
"            6 z S L U E ~ ~ E E U L F B z d q 2 *               ",
"          q B U ~ { | X.X.X.X.| { ~ E U F M h a 6 *             ",
"        6 S ~ | @.-.:.:.1.:.:.-.@.X.{ ) E L B z a 6 ;           ",
"      ; S ) @.:.1.7.7.r.r.r.7.6.1.:.@.X.{ ~ L S z a 6 *         ",
"      z ~ @.6.7.y.s.j.j.j.s.s.y.r.6.1.-.X.{ ~ U S z a 2 @       ",
"    2 E @.7.j.j.z.v.v.B.B.v.v.z.s.y.r.6.:.@.{ ~ L B h r <       ",
"    z | 1.j.D.B.C.D.D.D.D.D.C.B.v.j.s.r.6.:.@.{ E L M d 6 *     ",
"  @ U -.r.B..X!.I.I.R.R.I.I.J.D.C.v.z.s.r.6.-.X.) E S z r <     ",
"  < { 6.j.D.4X6X{.!.(.(.!.!.R.I.J.C.B.z.s.r.1.-.| ~ U B d 6 @   ",
"  r @.r.v.J.4XaXrX-X{.{.].].(.!.I.J.C.v.j.y.7.:.@.{ ~ S h q *   ",
"  d :.s.B.I.%XaXaXaX8X-X.X{.].(.!.I.J.C.v.s.r.6.1.-.) F z r <   ",
"  h 1.j.D.R.].8XaXaXaXaXqX1X%X{.].!.I.D.C.B.v.v.j.1.) L M a 2   ",
"  h 1.z.D.!.].%XrXaXaXaXaXaXaXuX8X8X4X1X1X4X<X{.z.-.) U B d 2   ",
"  a 1.z.J.!.{.+X-XqXaXaXaXaXaXaXaXaXaXaXaXaX8XI.r.@.{ U S d 6 @ ",
"  2 :.z.J.(.{.+X%X,X4XrXaXaXaXaXaXaXaXaXuX1XJ.s.1.@.{ E B h 2 @ ",
"  @ X.j.D.!.{.+X%X-X,X,X1X6X8XrXrXqX6X-X!.C.j.r.1.@.{ U S d 2   ",
"    F y.C.R.]..X%X-X,X-X-X-X%X+X.X{.!.I.D.v.j.r.1.@.{ U B a <   ",
"    q 6.v.J.(.{.+X%X-X-X-X%X+X+X{.(.R.I.D.v.s.r.1.X.) L M r ;   ",
"      ) s.C.R.]..X+X%X%X%X+X.X{.].(.R.J.C.z.s.7.:.X.~ F z q @   ",
"      6 1.z.D.R.].{..X.X+X.X.X].(.!.I.D.B.j.r.6.-.| E S d 2     ",
"        B 7.v.J.R.(.].].{.].].(.!.I.D.B.z.s.7.:.X.) L M r *     ",
"        @ E r.v.D.I.R.!.!.!.!.R.I.D.C.v.s.r.6.@.{ U B d <       ",
"          @ E 7.j.B.D.J.I.I.J.D.C.B.z.s.r.6.-.| ~ F h 6         ",
"            @ L 1.y.j.v.B.B.B.v.z.j.y.7.1.-.| ~ F z 6 @         ",
"                d | 1.r.y.s.s.y.r.7.6.:.@.{ E S h 2 @           ",
"                  * M { @.-.:.:.-.@.X.{ E F M r ;               ",
"                      @ q M L E E U F B h q ;                   ",
"                              @ * * * @                         "
};
