/* XPM */
static char * render_ilrPtmFile_xpm[] = {
"32 32 258 2",
"  	c None",
". 	c #101098",
"+ 	c #1018A0",
"@ 	c #1010A0",
"# 	c #1818A0",
"$ 	c #101898",
"% 	c #1820A0",
"& 	c #25274D",
"* 	c #27294F",
"= 	c #282B51",
"- 	c #2A2D53",
"; 	c #2C2F55",
"> 	c #2E3056",
", 	c #2F3258",
"' 	c #31345C",
") 	c #33365E",
"! 	c #35385D",
"~ 	c #37395F",
"{ 	c #393B64",
"] 	c #3A3D65",
"^ 	c #3D3F67",
"/ 	c #3E4066",
"( 	c #404269",
"_ 	c #41446B",
": 	c #44466B",
"< 	c #464771",
"[ 	c #474972",
"} 	c #494C71",
"| 	c #4B4D74",
"1 	c #4D4F75",
"2 	c #4E507A",
"3 	c #505379",
"4 	c #52547A",
"5 	c #54567C",
"6 	c #565781",
"7 	c #575A80",
"8 	c #595B82",
"9 	c #5B5E83",
"0 	c #5D5E88",
"a 	c #3F426A",
"b 	c #44466C",
"c 	c #45456E",
"d 	c #474A6F",
"e 	c #494B71",
"f 	c #484B73",
"g 	c #4A4C75",
"h 	c #4E5177",
"i 	c #505278",
"j 	c #52527A",
"k 	c #54547C",
"l 	c #55557E",
"m 	c #54577D",
"n 	c #5A5981",
"o 	c #585A84",
"p 	c #5D5F86",
"q 	c #5C5E87",
"r 	c #616289",
"s 	c #60628B",
"t 	c #63668D",
"u 	c #65688E",
"v 	c #656890",
"w 	c #676992",
"x 	c #6B6D94",
"y 	c #6D6F96",
"z 	c #6F7197",
"A 	c #707299",
"B 	c #72729B",
"C 	c #72749A",
"D 	c #76769E",
"E 	c #7578A0",
"F 	c #797CA2",
"G 	c #5C5E84",
"H 	c #5E6086",
"I 	c #000000",
"J 	c #000001",
"K 	c #050507",
"L 	c #1E1F2B",
"M 	c #606386",
"N 	c #6C6F95",
"O 	c #9EA07C",
"P 	c #515269",
"Q 	c #838C96",
"R 	c #879595",
"S 	c #898BB2",
"T 	c #55566D",
"U 	c #9294BA",
"V 	c #9496BC",
"W 	c #777BA1",
"X 	c #787DA3",
"Y 	c #292B37",
"Z 	c #868AB1",
"` 	c #BABB95",
" .	c #2F302D",
"..	c #9DAE9D",
"+.	c #A2B79F",
"@.	c #A6B6AD",
"#.	c #2D2E39",
"$.	c #AFB1D7",
"%.	c #B0B3D9",
"&.	c #9395BC",
"*.	c #9597BD",
"=.	c #9A9CC3",
"-.	c #9A9DC1",
";.	c #72738E",
">.	c #060607",
",.	c #A4A6CC",
"'.	c #A5A7CD",
").	c #A6A9D0",
"!.	c #A9ABD1",
"~.	c #CFCDA9",
"{.	c #D2CEAB",
"].	c #D3D3AD",
"^.	c #D5D5AF",
"/.	c #1B1B17",
"(.	c #020302",
"_.	c #ABBBA8",
":.	c #BCD1B7",
"<.	c #AEC4AC",
"[.	c #020303",
"}.	c #19191E",
"|.	c #BFC1E7",
"1.	c #ADB2D7",
"2.	c #AFB4D7",
"3.	c #B4BAE0",
"4.	c #B3B8DC",
"5.	c #8488A2",
"6.	c #0A0A0C",
"7.	c #BEC2E6",
"8.	c #BFC4EA",
"9.	c #C6C8DE",
"0.	c #DEDEBA",
"a.	c #DEE0BA",
"b.	c #5C6157",
"c.	c #717F70",
"d.	c #BDD2B8",
"e.	c #72806F",
"f.	c #5C665E",
"g.	c #C1C6EA",
"h.	c #C1C4EA",
"i.	c #444553",
"j.	c #D2D4CD",
"k.	c #99A495",
"l.	c #010101",
"m.	c #333932",
"n.	c #333931",
"o.	c #020202",
"p.	c #9CB198",
"q.	c #0C0D0F",
"r.	c #424450",
"s.	c #B4B9DB",
"t.	c #D7D9C6",
"u.	c #DCDEBA",
"v.	c #D4D7B8",
"w.	c #ACBCA8",
"x.	c #2E332E",
"y.	c #A0B19B",
"z.	c #30362E",
"A.	c #B0C6AA",
"B.	c #C4C8EC",
"C.	c #C4C6EA",
"D.	c #C1C8EA",
"E.	c #C4C8EA",
"F.	c #C1C8EC",
"G.	c #BFC8D7",
"H.	c #BDD0C1",
"I.	c #C1CDDC",
"J.	c #D7D7C6",
"K.	c #DEDCBA",
"L.	c #DCDCBA",
"M.	c #D4D4B8",
"N.	c #BFC6B5",
"O.	c #AFC1AB",
"P.	c #6D7A6C",
"Q.	c #292E28",
"R.	c #6F7D6C",
"S.	c #B1CAAD",
"T.	c #BFD9C4",
"U.	c #BFC6D7",
"V.	c #BACBBD",
"W.	c #BFD7C4",
"X.	c #C4CDE0",
"Y.	c #D2D4D2",
"Z.	c #B8C6B5",
"`.	c #B2C4AD",
" +	c #A9BEA8",
".+	c #ADC2A8",
"++	c #B4CDB0",
"@+	c #BFDCBA",
"#+	c #C1D9CB",
"$+	c #C4CBEC",
"%+	c #C4CBEF",
"&+	c #BAC6BD",
"*+	c #BACDB8",
"=+	c #BDD4B8",
"-+	c #BFD9BA",
";+	c #C1D7C8",
">+	c #CBD4D4",
",+	c #B8C4B5",
"'+	c #B8C8B5",
")+	c #B5C8B3",
"!+	c #BAD0B8",
"~+	c #30362F",
"{+	c #313730",
"]+	c #B7D1B2",
"^+	c #BFD9B8",
"/+	c #BFDCBD",
"(+	c #C6CDEF",
"_+	c #C6CBEF",
":+	c #BFC8D9",
"<+	c #BAC6BF",
"[+	c #BDD7B8",
"}+	c #C4D9C4",
"|+	c #C1C6B5",
"1+	c #BAC8B5",
"2+	c #B8CEB6",
"3+	c #707D6D",
"4+	c #717F6E",
"5+	c #BBD2B6",
"6+	c #BFDCB8",
"7+	c #C1C8D9",
"8+	c #BAC8BF",
"9+	c #BACBB8",
"0+	c #BAD0B5",
"a+	c #C4D7BF",
"b+	c #BFC6B8",
"c+	c #BACBB5",
"d+	c #BACDB5",
"e+	c #BDD0B8",
"f+	c #C8D0F1",
"g+	c #C6D0EF",
"h+	c #C1CBDC",
"i+	c #B8C1B5",
"j+	c #BDD9B8",
"k+	c #CBD2F3",
"l+	c #C4CBDC",
"m+	c #BFD7B8",
"n+	c #C4CDE3",
"o+	c #BAC6C4",
"p+	c #B5C1B5",
"q+	c #B5C1B3",
"r+	c #B8BFB5",
"s+	c #185810",
"t+	c #103008",
"u+	c #083000",
"v+	c #103808",
"w+	c #104008",
"x+	c #104808",
"y+	c #184808",
"z+	c #185008",
"A+	c #185808",
"B+	c #186010",
"C+	c #206010",
"D+	c #206810",
"E+	c #207010",
"F+	c #207810",
"G+	c #082800",
"H+	c #082808",
"I+	c #186008",
". . . . . . . . . . . . . . . . . . . . . . . . . . . . . . . . ",
"+ @ . + + + @ # + . + . . @ + + # @ + + + + . + + + + . . $ + # ",
"# % # # # # # # # # # # # # # # # # # # # # # # # # # # # # # # ",
"& * = - ; > , ' ) ! ~ { ] ^ / ( _ : < [ } | 1 2 3 4 5 6 7 8 9 0 ",
"a b c d e f g h i j k l m n o p q r s t u v w x y z A B C D E F ",
"G H I I I J K L M N I I I I I I I I O I I I P Q R S T I I I U V ",
"W X I I I I I I Y Z I I I I I I I I ` I I I  ...+.@.#.I I I $.%.",
"&.*.I I =.-.;.I >.,.'.).!.I I ~.{.].^.I I /.(._.:.<.[.}.I I |.|.",
"1.2.I I 3.4.5.I 6.7.8.8.9.I I 0.0.0.a.I I b.I c.d.e.I f.I I 8.8.",
"g.h.I I I I I I i.g.g.g.j.I I 0.0.0.0.I I k.l.m.d.n.o.p.I I h.h.",
"g.g.I I I I q.r.s.g.g.g.t.I I 0.0.u.v.I I w.x.(.y.(.z.A.I I g.g.",
"B.B.I I C.D.E.F.G.H.I.F.J.I I K.L.M.N.I I O.P.I Q.I R.S.I I T.B.",
"B.B.I I B.B.B.U.V.d.W.X.Y.I I L.v.N.Z.I I `. +o.I o..+++I I @+#+",
"$+$+I I $+%+U.&+*+=+-+;+>+I I v.N.,+'+I I )+!+~+I {+=+]+I I ^+/+",
"(+_+I I _+:+<+*+!+=+[+-+}+I I |+,+Z.1+I I 2+!+3+I 4+=+5+I I ^+6+",
"(+(+(+(+7+8+9+0+d.=+[+^+@+a+b+,+Z.'+c+d+d+!+e+d.d.d.=+=+[+[+^+^+",
"f+(+g+h+<+9+*+e+d.=+[+^+[+'+i+Z.1+c+c+*+!+!+e+d.d.=+=+=+[+[+j+^+",
"f+f+I I I I I I I =+[+I I i+,+I I c+*+!+!+!+d.I I I I I I I [+^+",
"k+l+I I I I I I I =+=+I I ,+'+I I d+*+!+!+e+d.I I I I I I I m+^+",
"n+<+I I *+!+d.d.=+d.'+I I Z.1+I I *+!+!+!+e+d.I I =+=+=+=+[+[+[+",
"o+'+I I !+d.d.d.d.1+p+I I 1+c+I I *+0+!+!+d.d.I I =+=+=+[+[+[+m+",
"Z.c+I I I I I I 1+q+,+I I c+c+I I *+!+!+!+d.d.I I I I I I I [+m+",
"c+d+I I I I I I p+i+Z.I I c+d+I I !+!+!+e+d.d.I I I I I I I [+[+",
"d+*+I I d.d.1+r+i+Z.'+I I c+d+I I !+!+!+d.d.d.I I =+=+=+=+[+[+[+",
"0+!+I I d.c+i+i+Z.Z.'+I I d+d+I I !+!+d.d.d.d.I I =+=+=+[+[+[+[+",
"!+!+I I c+p+i+,+Z.1+c+I I d+*+I I I I I I I d.I I I I I I I [+[+",
"e+d.I I p+p+,+Z.1+c+c+I I d+*+I I I I I I I d.I I I I I I I [+[+",
"d.d.c+p+i+,+Z.'+c+c+d+d+*+!+!+!+!+e+d.d.d.d.d.=+=+=+=+=+[+[+[+[+",
"d.c+p+q+,+Z.'+'+c+c+*+d+d+0+!+!+!+d.d.d.d.d.=+=+=+=+=+=+[+[+[+[+",
"s+t+u+v+w+x+y+z+z+A+A+A+s+B+B+B+C+C+D+D+D+D+D+E+E+E+E+E+E+F+F+F+",
"t+G+v+w+w+x+z+z+A+A+A+s+B+B+C+C+C+D+D+D+D+D+E+E+E+E+E+E+F+F+F+F+",
"H+v+w+w+y+z+z+z+A+A+A+I+B+B+B+B+D+D+D+D+D+E+E+E+E+E+E+E+F+F+F+F+"};
