/* XPM */
static char *magick[] = {
/* columns rows colors chars-per-pixel */
"32 32 202 2",
"   c Gray0",
".  c #010101",
"X  c #020202",
"o  c Gray1",
"O  c #040404",
"+  c Gray2",
"@  c #060606",
"#  c #070707",
"$  c Gray3",
"%  c #090909",
"&  c Gray4",
"*  c #0b0b0b",
"=  c #0c0c0c",
"-  c Gray5",
";  c #101010",
":  c #111111",
">  c Gray7",
",  c #131313",
"<  c Gray8",
"1  c #151515",
"2  c #161616",
"3  c Gray9",
"4  c #181818",
"5  c #1b1b1b",
"6  c Gray11",
"7  c #1d1d1d",
"8  c #1e1e1e",
"9  c Gray12",
"0  c #202020",
"q  c #222222",
"w  c Gray15",
"e  c #272727",
"r  c #282828",
"t  c Gray16",
"y  c #2a2a2a",
"u  c Gray17",
"i  c #2d2d2d",
"p  c #2f2f2f",
"a  c #313131",
"s  c #323232",
"d  c Gray21",
"f  c Gray22",
"g  c #393939",
"h  c #3a3a3a",
"j  c Gray23",
"k  c #3c3c3c",
"l  c #3e3e3e",
"z  c #3f3f3f",
"x  c Gray25",
"c  c Gray26",
"v  c #434343",
"b  c #444444",
"n  c Gray27",
"m  c #464646",
"M  c Gray28",
"N  c #484848",
"B  c #494949",
"V  c Gray29",
"C  c #4c4c4c",
"Z  c Gray30",
"A  c #505050",
"S  c Gray32",
"D  c #535353",
"F  c Gray33",
"G  c Gray35",
"H  c #5b5b5b",
"J  c Gray37",
"K  c #606060",
"L  c Gray38",
"P  c Gray39",
"I  c #656565",
"U  c Gray40",
"Y  c #686868",
"T  c Gray41",
"R  c #6a6a6a",
"E  c Gray42",
"W  c #6c6c6c",
"Q  c #6d6d6d",
"!  c Gray44",
"~  c #717171",
"^  c #727272",
"/  c Gray45",
"(  c #747474",
")  c Gray46",
"_  c #767676",
"`  c #777777",
"'  c Gray47",
"]  c #7b7b7b",
"[  c #7c7c7c",
"{  c Gray",
"}  c #808080",
"|  c #818181",
" . c #838383",
".. c #848484",
"X. c Gray52",
"o. c #898989",
"O. c Gray55",
"+. c Gray56",
"@. c #909090",
"#. c #929292",
"$. c #939393",
"%. c Gray59",
"&. c #979797",
"*. c #989898",
"=. c #9b9b9b",
"-. c Gray61",
";. c #9d9d9d",
":. c Gray62",
">. c #9f9f9f",
",. c #a0a0a0",
"<. c #a2a2a2",
"1. c #a4a4a4",
"2. c #a5a5a5",
"3. c Gray65",
"4. c #a7a7a7",
"5. c Gray66",
"6. c #a9a9a9",
"7. c #aaaaaa",
"8. c Gray67",
"9. c #acacac",
"0. c Gray68",
"q. c #aeaeae",
"w. c #afafaf",
"e. c Gray69",
"r. c #b1b1b1",
"t. c #b2b2b2",
"y. c Gray70",
"u. c #b4b4b4",
"i. c Gray71",
"p. c #b6b6b6",
"a. c #b7b7b7",
"s. c Gray72",
"d. c #b9b9b9",
"f. c Gray73",
"g. c #bbbbbb",
"h. c #bcbcbc",
"j. c Gray74",
"k. c Gray75",
"l. c #c0c0c0",
"z. c #c1c1c1",
"x. c Gray76",
"c. c #c3c3c3",
"v. c Gray77",
"b. c #c5c5c5",
"n. c #c6c6c6",
"m. c Gray78",
"M. c #c8c8c8",
"N. c Gray79",
"B. c #cacaca",
"V. c #cbcbcb",
"C. c Gray80",
"Z. c #cdcdcd",
"A. c #cecece",
"S. c Gray81",
"D. c #d0d0d0",
"F. c Gray82",
"G. c #d2d2d2",
"H. c #d3d3d3",
"J. c Gray83",
"K. c #d5d5d5",
"L. c Gray84",
"P. c #d7d7d7",
"I. c #d8d8d8",
"U. c Gray85",
"Y. c #dadada",
"T. c Gray86",
"R. c gainsboro",
"E. c #dddddd",
"W. c Gray87",
"Q. c #dfdfdf",
"!. c Gray88",
"~. c #e1e1e1",
"^. c #e2e2e2",
"/. c Gray89",
"(. c #e4e4e4",
"). c Gray90",
"_. c #e6e6e6",
"`. c #e7e7e7",
"'. c Gray91",
"]. c #e9e9e9",
"[. c #eaeaea",
"{. c Gray92",
"}. c #ececec",
"|. c Gray93",
" X c #eeeeee",
".X c #efefef",
"XX c Gray94",
"oX c #f1f1f1",
"OX c Gray95",
"+X c #f3f3f3",
"@X c #f4f4f4",
"#X c Gray96",
"$X c #f6f6f6",
"%X c Gray97",
"&X c #f8f8f8",
"*X c #f9f9f9",
"=X c Gray98",
"-X c #fbfbfb",
";X c Gray99",
":X c #fdfdfd",
">X c #fefefe",
",X c Gray100",
/* pixels */
"            ; 6 f E E f         4 6 z z z f z z u *         - ; ",
"        O f 8.T.OX,X,X!.V       f d.$X$X$X$X$XOXc.1           * ",
"      6 k.,X,X,X,X,X,X,X,Xk.6 ; e.,X,X,X&X,X,X,X).q           O ",
"      d.,X,X,X,X,X,X,X,X,X,Xp.8.,X[.T.[.[..X!.G.[.C.            ",
"      n.,X,X,X,X,X,X,X,X,X,XC.n.8.M W d.!.G.#.u d C.z           ",
"      >.,X,X,X,X,X,X,X,X,X,XT.!.n.9.d.L.,X.Xk.#.>.OX+.          ",
"      ^ ,X,X,X,X,X,X,X,X,X,X{ <.,X&XOX.X{ e.,X$X,X$XM         ; ",
"      z ,X,X,X,X,X,X,X,X,X,Xa f ,X&XG.W   u 9.OX,X9.          6 ",
"      ; [.,X,X,X,X,X,X,X,X!.  M ,X[.n.' a D <.!.,Xe.        O 1 ",
"      z .X,X,X,X,X,X,X,X,X.Xf W ,XE.[.).k.L.[.!.OXG.        * - ",
"      Z ,X&X8.c c c c 2.&X,XV P &X!.[.>._ | G.[..XM.O       - O ",
"      E &X2.z         c 2.$Xe 6 OX[.E.p.&.2.C.).&Xo.        * O ",
"      f ,X[.O         ; OXOX* O M.,X&XOXE.[.&X,X,XV         * * ",
"        W E.e         a $X>.    u G.&X,X,X,X&X!.E           * O ",
"  1 u   * &.M.k.d._   6 V         * u J { ,X$XG.>.D             ",
"  p.&X{ G.,X,X,X,X!.z                   H &X,X,X,X,X<.=.I       ",
"6 ,X,X,X,XOX[.)..X&X,Xe.f *       ; H E.,X.X!.T.!.OX,X,XOXe     ",
"z ,X,X,XOXT.c.e.k.L.$X,XL.;       #.,X,X[.M.p.e.k.T.OX,XM.u     ",
"D ,X,X$X!.k.8.9.9.p.T.,Xd.        Z $X$XM.d.c.C.d.k.!.,X{       ",
"D ,X&X.XG.<.C.E.c.c.!.,Xe.        6 .XOXG.k.C.[.T.8.L.,X&.      ",
"M ,X$X).n.2.G.G.M.G.OX,X&XP     ; 2.,X&X[.C.G.T.C.2.C..XL.D     ",
"6 ).).T.C.p.C.W k.!.OX$X,X,X6   W ,X,X$X.X!.#.+.T.d.C.!.C.u     ",
"  6 | T.G.C.).8.2.T.OXOX&X,X..E e.,X$XOX.XC.&.G.k.>.!.c.1       ",
"    { !.L.G.L.&X[.G.).$X&XOXT.<.$X&X&XOXE.L.$X&X_ c &.I         ",
"    V ).L.G.C.M.).G.[.,X,X&Xe.p OX&X,X&XE.L.L.n._ 2.D           ",
"    P [.G.G.L.L.E.!.OX&X,X,X#.* !.,X,X,X&X[.T.G.8.E.#.O         ",
"    ^ [.L.G.T.)..X.X.XOX,X,XI   9.,X,X[.#.e.L.M.=.L.L.d.1       ",
"  4 n.E.M.M.L.).[.[.).&X,X&X^   H M.G.z   p E.).L.M.C.!.z       ",
"  z ).n.d.d.C.[..X$X&X,X=.d         ;     | &XE.n.d.k.T.^       ",
"  O f { d.p.M..X)._ E c                   ^ ,X!.c.p.9.P e       ",
"      ; #.c.L.,X_                         - d.&XM.k.I           ",
"        6 E &.P ;                           p .._ z *           "
};
