/* XPM */
static char * render_ilrHwBakeVisualizer_xpm[] = {
"32 33 263 2",
"  	c None",
". 	c #003A00",
"+ 	c #013B01",
"@ 	c #4E764E",
"# 	c #9BB29B",
"$ 	c #275827",
"% 	c #749474",
"& 	c #1C501C",
"* 	c #5E835E",
"= 	c #184D18",
"- 	c #8CA68C",
"; 	c #85A185",
"> 	c #91AA91",
", 	c #053F05",
"' 	c #829F82",
") 	c #FFFFFF",
"! 	c #436F43",
"~ 	c #C0CEC0",
"{ 	c #0C450C",
"] 	c #F9FAF9",
"^ 	c #C7D4C7",
"/ 	c #618561",
"( 	c #FEFEFE",
"_ 	c #2E5E2E",
": 	c #FBFBFB",
"< 	c #C3D1C3",
"[ 	c #094309",
"} 	c #84A184",
"| 	c #A7BCA7",
"1 	c #89A589",
"2 	c #E2E9E2",
"3 	c #09440A",
"4 	c #CBD8CB",
"5 	c #F7F9F7",
"6 	c #ADC0AD",
"7 	c #F5F7F5",
"8 	c #A4B9A4",
"9 	c #8FA98F",
"0 	c #094409",
"a 	c #0A4309",
"b 	c #09430A",
"c 	c #0F480F",
"d 	c #87A387",
"e 	c #98B098",
"f 	c #FBFCFB",
"g 	c #A6BBA6",
"h 	c #5D835D",
"i 	c #174E17",
"j 	c #8BA68B",
"k 	c #587F58",
"l 	c #215521",
"m 	c #688C68",
"n 	c #6A8D6A",
"o 	c #306130",
"p 	c #1F531F",
"q 	c #577E57",
"r 	c #C6D3C6",
"s 	c #1F541F",
"t 	c #3D6A3D",
"u 	c #FDFDFD",
"v 	c #346334",
"w 	c #698C69",
"x 	c #E6ECE6",
"y 	c #1F531E",
"z 	c #275927",
"A 	c #517951",
"B 	c #7B9A7B",
"C 	c #3C693C",
"D 	c #668966",
"E 	c #7A987A",
"F 	c #739373",
"G 	c #336233",
"H 	c #658965",
"I 	c #2F5E2F",
"J 	c #2E5F2F",
"K 	c #2E5E2F",
"L 	c #2F5F2F",
"M 	c #2F5E2E",
"N 	c #2F5F2E",
"O 	c #376437",
"P 	c #839F83",
"Q 	c #8AA48A",
"R 	c #719171",
"S 	c #85A085",
"T 	c #6E8F6E",
"U 	c #3D683D",
"V 	c #ABBDAB",
"W 	c #BBCABB",
"X 	c #B2C4B2",
"Y 	c #8FA88F",
"Z 	c #4C754C",
"` 	c #3E693E",
" .	c #C5D2C5",
"..	c #EEF2EE",
"+.	c #416B41",
"@.	c #3E6A3E",
"#.	c #5F825F",
"$.	c #92AA92",
"%.	c #CED9CE",
"&.	c #3E693F",
"*.	c #4D754D",
"=.	c #D7DFD6",
"-.	c #F2F5F2",
";.	c #769576",
">.	c #3F693F",
",.	c #3E6A3F",
"'.	c #466F46",
").	c #8CA58C",
"!.	c #759375",
"~.	c #466F47",
"{.	c #A1B6A1",
"].	c #FCFDFC",
"^.	c #587D58",
"/.	c #D0DAD0",
"(.	c #476F46",
"_.	c #B9C8B9",
":.	c #DCE3DC",
"<.	c #BECCBE",
"[.	c #CDD8CD",
"}.	c #FAFBFA",
"|.	c #537953",
"1.	c #4E744E",
"2.	c #5B7E5B",
"3.	c #B4C4B4",
"4.	c #DFE5DF",
"5.	c #D1DBD1",
"6.	c #D2DCD2",
"7.	c #4E734E",
"8.	c #F4F6F4",
"9.	c #C0CDC0",
"0.	c #507550",
"a.	c #90A890",
"b.	c #8FA78F",
"c.	c #4F744E",
"d.	c #567956",
"e.	c #D1DAD1",
"f.	c #EDF0ED",
"g.	c #577A57",
"h.	c #6F8C6F",
"i.	c #98AE98",
"j.	c #D4DDD4",
"k.	c #D7DFD7",
"l.	c #638463",
"m.	c #597C59",
"n.	c #9EB29E",
"o.	c #799479",
"p.	c #5E7F5E",
"q.	c #9FB39F",
"r.	c #829C82",
"s.	c #A9BBA9",
"t.	c #698869",
"u.	c #D6DED6",
"v.	c #CAD5CA",
"w.	c #F6F7F6",
"x.	c #CBD6CB",
"y.	c #A0B3A0",
"z.	c #739073",
"A.	c #5F805F",
"B.	c #668466",
"C.	c #748F74",
"D.	c #BAC8BA",
"E.	c #D2DAD2",
"F.	c #D8E0D8",
"G.	c #668465",
"H.	c #779177",
"I.	c #EAEEEA",
"J.	c #DAE1DA",
"K.	c #889F88",
"L.	c #6D8A6D",
"M.	c #6E8A6D",
"N.	c #6D8A6E",
"O.	c #DBE2DB",
"P.	c #ECF0EC",
"Q.	c #7F987F",
"R.	c #A1B4A2",
"S.	c #6E8A6E",
"T.	c #759075",
"U.	c #B3C1B2",
"V.	c #E7EBE7",
"W.	c #8FA58F",
"X.	c #768F76",
"Y.	c #B1BFB1",
"Z.	c #91A591",
"`.	c #B3C1B3",
" +	c #7C947C",
".+	c #DCE2DC",
"++	c #869C86",
"@+	c #ABBAAB",
"#+	c #D8DFD8",
"$+	c #DDE3DD",
"%+	c #7D957D",
"&+	c #8BA18B",
"*+	c #FDFEFD",
"=+	c #C1CCC1",
"-+	c #E1E7E1",
";+	c #D4DCD4",
">+	c #DEE4DE",
",+	c #9AAC9A",
"'+	c #C4CFC4",
")+	c #859B85",
"!+	c #D1D9D1",
"~+	c #869A85",
"{+	c #859A85",
"]+	c #859A86",
"^+	c #E4E9E4",
"/+	c #F2F4F2",
"(+	c #ACBAAC",
"_+	c #869A86",
":+	c #E0E5E0",
"<+	c #ADBAAC",
"[+	c #B8C4B8",
"}+	c #859B86",
"|+	c #8DA08D",
"1+	c #C1CBC1",
"2+	c #F8F9F8",
"3+	c #91A391",
"4+	c #E2E7E2",
"5+	c #92A492",
"6+	c #F6F8F6",
"7+	c #FAFAFA",
"8+	c #BFCABF",
"9+	c #A1B1A1",
"0+	c #A3B2A3",
"a+	c #C7D0C7",
"b+	c #DCE1DC",
"c+	c #95A596",
"d+	c #95A595",
"e+	c #96A595",
"f+	c #A3B2A4",
"g+	c #D7DDD7",
"h+	c #95A695",
"i+	c #96A695",
"j+	c #95A696",
"k+	c #E4E8E4",
"l+	c #BCC7BD",
"m+	c #A7B4A7",
"n+	c #9DAB9D",
"o+	c #E6E9E6",
"p+	c #F5F6F5",
"q+	c #B8C2B8",
"r+	c #DFE3DF",
"s+	c #BBC5BB",
"t+	c #EBEDEB",
"u+	c #E2E6E2",
"v+	c #AFBAAF",
"w+	c #A5B0A5",
"x+	c #ADB7AD",
"y+	c #B2BCB2",
"z+	c #B1BBB1",
"A+	c #AAB4AA",
"B+	c #ADB6AD",
"C+	c #B4BBB4",
"D+	c #BDC1BD",
"E+	c #BDC1BC",
"F+	c #C4C6C4",
"G+	c #CACACB",
"H+	c #CACBCB",
"I+	c #CBCACA",
"J+	c #CBCACB",
"K+	c #CBCBCA",
"L+	c #CBCBCB",
"M+	c #CACACA",
"N+	c #CCCCCC",
". . . . . . . . . . . . . . . . . . . . . . . . . . . . . . . . ",
". . . . . . . . . . . . . . . . . . . . . . . . . . . . . . . . ",
". . . . . . . . . . . . . . . . . . . . . . . . . . . . . . . . ",
"+ @ # $ + % # & # * = # - + ; > + + + + + + + + + + + + + + + + ",
", ' ) ! , ~ ) { ] ^ / ) ( _ : < , , , , , , , , , , , , , , , , ",
"[ } ) | 1 2 ) 3 4 5 6 7 ) 8 ) 9 [ 0 [ a [ [ b b [ [ [ a [ [ [ b ",
"c d ) ) ) ) ) c e ) f g 2 f ) h c c c c c c c c c c c c c c c c ",
"i j ) k l ^ ) i m ) ) n 8 ) ) o i i i i i i i i i i i i i i i i ",
"p 9 ) q p r ) s t ) u v w ) x p p p p p p p p y p p p p p p p p ",
"z A B C z D B z z E F z G B H z z z z z z z z z z z z z z z z z ",
"I J K L L M I I I M K I L L I K L L I M M I I L J I L N L K I M ",
"O O P Q R O O O O O O S Q T O % Q % O O O U E V W X Y Z O O O O ",
"` `  .) ..+.` ` ` @.#.) ) $.@.%.) %.` &.*.=.) ) ) ) ) -.;.` >.,.",
"'.'.).) ) !.~.'.'.'.{.) ].^.'./.) /.'.(._.) ( :.<.[.}.) -.|.(.'.",
"1.1.2.f ) 3.1.1.1.1.4.) 5.1.1.6.) 6.1.7.8.) 9.0.1.7.a.) ) b.1.c.",
"d.d.d.e.) f.g.d.d.h.) ) i.d.d.j.) j.d.d.5 ) k.l.d.d.m.n.n.o.d.d.",
"p.p.p.q.) ) r.p.p.s.) : t.p.p.u.) u.p.p.v.) ) w.x.y.z.A.p.p.p.p.",
"B.B.B.C.u ) D.B.B.4.) E.B.B.B.F.) F.B.G.H.I.) ) ) ) ( J.K.B.B.B.",
"L.M.L.N.O.) P.N.Q.( ) R.M.S.L.J.) J.N.L.L.T.U.V.) ) ) ) f W.L.S.",
"X.X.X.X.Y.) ) Z.`.) ]  +X.X.X..+) .+X.X.X.X.X.X.++@+#+) ) $+X.X.",
"%+%+%+%+&+*+) =+-+) ;+%+%+%+%+>+) >+%+,+'+E.)+%+%+%+%+!+) }.%+%+",
"~+{+~+~+]+^+) /+( ) (+_+{+~+]+:+) :+~+<+) ) [+}+{+~+]+!+) ] {+_+",
"|+|+|+|+|+1+) ) ) 2+3+|+|+|+|+4+) 4+|+5+6+) 7+8+9+0+a+u ) b+|+|+",
"c+d+c+e+d+f+( ) ) g+h+c+c+i+j+k+) k+i+d+l+u ) ) ) ) ) ) 2+m+j+d+",
"n+n+n+n+n+n+o+p+p+q+n+n+n+n+n+r+p+r+n+n+n+s+t+}.( *+2+u+v+n+n+n+",
"w+w+w+w+w+w+w+w+w+w+w+w+w+w+w+w+w+w+w+w+w+w+w+x+y+z+A+w+w+w+w+w+",
"B+B+B+B+B+B+B+B+B+B+B+B+B+B+B+B+B+B+B+B+B+B+B+B+B+B+B+B+B+B+B+B+",
"C+C+C+C+C+C+C+C+C+C+C+C+C+C+C+C+C+C+C+C+C+C+C+C+C+C+C+C+C+C+C+C+",
"D+D+D+D+D+E+D+D+D+D+D+D+D+D+D+D+D+D+D+E+D+D+D+D+D+D+D+D+D+D+D+D+",
"F+F+F+F+F+F+F+F+F+F+F+F+F+F+F+F+F+F+F+F+F+F+F+F+F+F+F+F+F+F+F+F+",
"G+H+I+H+J+J+G+K+I+H+K+K+J+L+L+H+J+H+J+I+L+L+J+L+K+I+K+K+L+M+G+J+",
"N+N+N+N+N+N+N+N+N+N+N+N+N+N+N+N+N+N+N+N+N+N+N+N+N+N+N+N+N+N+N+N+",
"N+N+N+N+N+N+N+N+N+N+N+N+N+N+N+N+N+N+N+N+N+N+N+N+N+N+N+N+N+N+N+N+"};
