/* XPM */
static char *hwvis[] = {
/* columns rows colors chars-per-pixel */
"32 32 142 2",
"   c #000000",
".  c #050B05",
"X  c #0A0D0A",
"o  c #0A140A",
"O  c #0C1D0C",
"+  c #1B1D1B",
"@  c #0F200F",
"#  c #013B01",
"$  c #102C10",
"%  c #1F211F",
"&  c #1A2B1A",
"*  c #153115",
"=  c #193319",
"-  c #1E3C1E",
";  c #242424",
":  c #252C25",
">  c #2A2B2A",
",  c #323232",
"<  c #064006",
"1  c #0A440A",
"2  c #0E480E",
"3  c #134C13",
"4  c #184F18",
"5  c #165016",
"6  c #1B531B",
"7  c #1F581F",
"8  c #264F26",
"9  c #2E462E",
"0  c #2C4B2C",
"q  c #215521",
"w  c #245A24",
"e  c #2A5C2A",
"r  c #324332",
"t  c #355A35",
"y  c #266026",
"u  c #2C632C",
"i  c #326332",
"p  c #346A34",
"a  c #3C643C",
"s  c #3B6B3C",
"d  c #3D723C",
"f  c #434443",
"g  c #464946",
"h  c #4C4C4C",
"j  c #4F504F",
"k  c #505750",
"l  c #545C54",
"z  c #436D43",
"x  c #4F6E4F",
"c  c #437243",
"v  c #447844",
"b  c #4C754B",
"n  c #4B7C4B",
"m  c #576457",
"M  c #5D615D",
"N  c #5D685D",
"B  c #50754F",
"V  c #537C53",
"C  c #626462",
"Z  c #656C65",
"A  c #6A6C6A",
"S  c #657265",
"D  c #697269",
"F  c #717971",
"G  c #7B7B7B",
"H  c #4F834F",
"J  c #528353",
"K  c #558A55",
"L  c #5D825C",
"P  c #5B8A5B",
"I  c #658565",
"U  c #648A64",
"Y  c #6C8B6C",
"T  c #639263",
"R  c #679A67",
"E  c #6C956C",
"W  c #6B9B6B",
"Q  c #748F74",
"!  c #788078",
"~  c #729272",
"^  c #759B75",
"/  c #7C957B",
"(  c #799A79",
")  c #6AA06A",
"_  c #76A176",
"`  c #7CA47C",
"'  c #80AF7F",
"]  c #828482",
"[  c #828882",
"{  c #888888",
"}  c #839C83",
"|  c #8D918D",
" . c #889C87",
".. c #8B9A8B",
"X. c #949594",
"o. c #989898",
"O. c #84A285",
"+. c #82AB82",
"@. c #8BA38B",
"#. c #8CAA8C",
"$. c #8BB08B",
"%. c #94A594",
"&. c #93AC93",
"*. c #98AC97",
"=. c #9CAC9C",
"-. c #93B293",
";. c #97BB97",
":. c #9BB29B",
">. c #A0B49F",
",. c #A1AFA1",
"<. c gray68",
"1. c #A4B1A4",
"2. c #A3BAA3",
"3. c #ACB5AC",
"4. c #ABBBAB",
"5. c gray70",
"6. c #B3BBB3",
"7. c gray73",
"8. c #ACC1AC",
"9. c #B4C3B4",
"0. c #B6CAB6",
"q. c #BCC3BC",
"w. c #BAC9BA",
"e. c #C3C6C3",
"r. c #C3CBC3",
"t. c #CBCCCB",
"y. c #C4D1C4",
"u. c #CBD2CB",
"i. c #CED8CE",
"p. c #D0CFCF",
"a. c #D0D0CF",
"s. c #D1D2D1",
"d. c #D4DCD4",
"f. c #D9DDD9",
"g. c #DCE3DC",
"h. c #E2E6E2",
"j. c #E5EAE5",
"k. c #EAECEA",
"l. c #EDF0ED",
"z. c #F2F4F2",
"x. c #F5F8F5",
"c. c #FDFEFD",
/* pixels */
"# # # # # # # # # # # < < < < < < < < # < # # # # # # # # # # # ",
"# # # # # # # # # < 1 1 1 2 2 1 2 1 1 1 < < # # # # # # # # # # ",
"# # # # # # # # 1 1 2 2 3 3 3 3 3 3 3 2 1 1 < < # # # # # # # # ",
"# b =.w # / 2.e @.r o X . . : m 3 6 5 5 5 2 2 1 < # # # # # # # ",
"< } c.c 1 u.k.@ : F t c.c.0 r.C . $ 7 7 7 6 5 5 2 2 1 # # # # # ",
"< O.c.8.&.t.; o u.x.9.x.c.9.c.y.8 O o w y w 7 7 5 3 3 2 # 1 1 3 ",
"2 O.c.c.j.; 6.* ;.c.c.9.j.c.c.c.@.i = O u i u y w 7 4 4 2 2 3 2 ",
"4 #.c.U @ ! c.- P c.c._ w.c.c.c.^ d v & 4 s p p u u e w 4 4 4 4 ",
"q *.c.x X u.c.0 c c.c.V #.c.l.P J K K H X c v d s p i u w q q 6 ",
"e V #.& & K ` t a *.&.H U 4.:.T R W W ) 9 0 H n v c s p i e e e ",
"i p s X 0 t a z b V P T W W ^ _ ` ' ' ' L & P K H n v d s i t e ",
"s d @.+ ~ z b V P T W 8.w.4.#.0.y.w.:.;.#.o 4.u.d.i.8.U c z a i ",
"z b q.r x.V L T W _ :.c.c.y.:.k.c.k.8.8.w.o c.c.c.c.c.x.O.c c s ",
"B V &., c.*.E ^ +.#.u.c.c.8.2.k.c.l.w.w.f.+ c.k.g.g.c.c.c.L B z ",
"V L ~ % c.i.` +.&.:.k.c.k.4.9.l.c.l.y.u.e.f g.` ^ ~ 8.c.c.:.V B ",
"I U Y j 7.z.#.:.:.0.c.c.d.w.w.z.c.l.i.d.G { j.-.` ( ^ 0.9.O.S V ",
"I Y ~ ..h c.w.2.8.d.c.c.y.y.u.z.c.x.d.d.+ j.c.x.g.y.&.^ E U I L ",
"Y ~ ( &.g <.g.0.w.z.c.l.u.u.d.z.c.x.g.C k l.c.c.c.c.c.k.=.Q Y I ",
"~ / ( O.s.; e.w.i.c.c.h.d.g.f.x.c.x.|   N 4.i.l.c.c.c.c.c.=.Q Y ",
"/ } @.@.i.s.> | j.c.c.d.g.g.h.x.c.G       Z 2.2.8.u.j.c.c.j./ Q ",
"}  .@.&.2.c.h.f f 5.j.h.j.j.d.X.> C l       D 2.:.:.*.h.c.x.} / ",
" .@.%.=.:.l.c.x.e.C % % > + % A f.k.6.Z       S 2.:.:.g.c.c. . .",
"@.%.&.=.,.f.c.c.c.c.q.6.3.9.9.l.c.l.q.w.!       F w.g.c.c.g.....",
"%.%.=.>.2.w.c.c.c.j.q.q.q.w.q.l.c.k.q.q.f.]       o.c.c.c.3.%.%.",
"=.=.,.2.3.6.l.x.x.d.w.r.r.r.r.k.c.k.w.e.e.d.G       X.k.6.=.=.=.",
"<.,.1.3.3.6.9.w.w.r.r.r.r.r.r.t.r.t.r.r.r.r.w.C       Z ,.1.<.,.",
"3.3.3.5.6.6.q.q.e.r.r.u.u.u.u.u.u.u.y.u.r.r.w.q.M       [ 3.3.3.",
"6.6.6.6.6.q.q.e.r.r.t.u.u.u.u.u.u.u.u.u.y.r.e.q.q.M   g 6.6.6.6.",
"q.q.q.7.q.q.e.e.e.t.u.u.s.s.s.s.u.s.u.u.t.t.e.e.q.7.{ 7.q.7.q.q.",
"e.e.e.e.e.e.e.r.t.t.t.s.s.s.s.s.s.s.s.s.t.t.t.e.e.e.e.e.e.e.e.e.",
"t.t.t.t.e.t.t.t.t.t.p.s.s.s.s.s.s.s.p.p.p.t.t.t.t.t.t.t.t.t.t.t.",
"t.t.t.t.p.t.t.t.t.t.t.t.t.p.t.p.p.t.t.t.p.t.t.t.t.t.t.t.t.t.t.t."
};
