/* XPM */
static char *turtle_logo[] = {
/* columns rows colors chars-per-pixel */
"48 48 256 2",
"   c #252122",
".  c #2B2728",
"X  c #2A2627",
"o  c #312D2E",
"O  c #343131",
"+  c #383536",
"@  c #3B3839",
"#  c #413E3E",
"$  c #423F40",
"%  c #494546",
"&  c #4A4748",
"*  c #4D4A4B",
"=  c #454243",
"-  c #514E4E",
";  c #565353",
":  c #585555",
">  c #5D5A5A",
",  c #615F5F",
"<  c #625F60",
"1  c #646262",
"2  c #6D6A6A",
"3  c #6A6768",
"4  c #726E6E",
"5  c #726F70",
"6  c #747171",
"7  c #787473",
"8  c #7C7A7A",
"9  c #7C7777",
"0  c #9C2B0E",
"q  c #96250B",
"w  c #9E2D10",
"e  c #9F3820",
"r  c #A9370F",
"t  c #A8360F",
"y  c #A53310",
"u  c #A93611",
"i  c #AD3B12",
"p  c #B23C13",
"a  c #B83F16",
"s  c #BE3C18",
"d  c #AB401D",
"f  c #B54314",
"g  c #BB4315",
"h  c #BD4A14",
"j  c #BD4818",
"k  c #AA4629",
"l  c #A54D3B",
"z  c #AA523E",
"x  c #B64B23",
"c  c #B04F31",
"v  c #B95936",
"b  c #BF5729",
"n  c #BD613F",
"m  c #807D7D",
"M  c #AC5540",
"N  c #AF6051",
"B  c #BB6951",
"V  c #BF7866",
"C  c #C33916",
"Z  c #C23B19",
"A  c #C93F17",
"S  c #C5411A",
"D  c #C14A16",
"F  c #C44B18",
"G  c #C9441A",
"H  c #CC4B1B",
"J  c #CD4517",
"K  c #C65216",
"L  c #C85517",
"P  c #CD521A",
"I  c #CD5919",
"U  c #D04E1B",
"Y  c #D3531C",
"T  c #D5591C",
"R  c #D95518",
"E  c #D95B1C",
"W  c #C24F20",
"Q  c #C45626",
"!  c #D6621A",
"~  c #DD621D",
"^  c #DD6A1C",
"/  c #CA602E",
"(  c #C96536",
")  c #DD6C20",
"_  c #DC6522",
"`  c #D77435",
"'  c #E05E18",
"]  c #E2651B",
"[  c #E46B1E",
"{  c #E8651C",
"}  c #EA6B1A",
"|  c #E5721E",
" . c #EB721D",
".. c #EC781D",
"X. c #F17519",
"o. c #F47A1A",
"O. c #E56B21",
"+. c #E86D20",
"@. c #EB6C36",
"#. c #E57420",
"$. c #EB7420",
"%. c #ED7920",
"&. c #E67B2E",
"*. c #E17332",
"=. c #ED7337",
"-. c #EE7938",
";. c #E27D38",
":. c #F27C21",
">. c #F27F2C",
",. c #F07E38",
"<. c #C46E51",
"1. c #CC714A",
"2. c #C4785C",
"3. c #D67945",
"4. c #D97851",
"5. c #C76D47",
"6. c #EC6E52",
"7. c #E07B41",
"8. c #EF7953",
"9. c #EE7352",
"0. c #F07E53",
"q. c #F5801F",
"w. c #EF812C",
"e. c #ED8037",
"r. c #F48123",
"t. c #F28338",
"y. c #F68A3A",
"u. c #F48935",
"i. c #F4903E",
"p. c #DB834C",
"a. c #D58259",
"s. c #C4806C",
"d. c #C38A7D",
"f. c #C88A76",
"g. c #D68869",
"h. c #DD8A71",
"j. c #DC9C7B",
"k. c #D99978",
"l. c #E98744",
"z. c #E18C56",
"x. c #E78453",
"c. c #E6955B",
"v. c #F38741",
"b. c #F18353",
"n. c #F58C54",
"m. c #F4984B",
"M. c #EE826E",
"N. c #E68F61",
"B. c #E49B6C",
"V. c #EA9667",
"C. c #E59779",
"Z. c #F1876E",
"A. c #F18570",
"S. c #F38B70",
"D. c #F4966A",
"F. c #F69271",
"G. c #F19D76",
"H. c #F5A15A",
"J. c #EDA26E",
"K. c #ECAB7B",
"L. c #E9A573",
"P. c #858283",
"I. c #898584",
"U. c #8C8A8B",
"Y. c #898788",
"T. c #918986",
"R. c #948C8A",
"E. c #918F90",
"W. c #9B908B",
"Q. c #989696",
"!. c #9C9B9B",
"~. c #979495",
"^. c #A0928C",
"/. c #AA978D",
"(. c #A69891",
"). c #A99E99",
"_. c #B99989",
"`. c #B29B92",
"'. c #BEA18E",
"]. c #BCA598",
"[. c #B6A294",
"{. c #A3A2A2",
"}. c #ABA9AA",
"|. c #B3B1B1",
" X c #BBBABA",
".X c #C49285",
"XX c #CD9586",
"oX c #C29E8B",
"OX c #CF9E93",
"+X c #D09C82",
"@X c #C9A58C",
"#X c #C6A694",
"$X c #DCA38A",
"%X c #D8A989",
"&X c #D2A296",
"*X c #DAA99A",
"=X c #DEB28E",
"-X c #D6B195",
";X c #C7B0AC",
":X c #D4AEA5",
">X c #DEB8AD",
",X c #D7B3A9",
"<X c #DABBB5",
"1X c #C2B9B6",
"2X c #EF9A8B",
"3X c #F49B8D",
"4X c #F19B83",
"5X c #E5A48B",
"6X c #E6A888",
"7X c #E7AE99",
"8X c #E2B39E",
"9X c #E7B294",
"0X c #F1B28C",
"qX c #F1B39E",
"wX c #E6BBA8",
"eX c #E7BDB1",
"rX c #F4AFA1",
"tX c #F4B4AC",
"yX c #F7B9AF",
"uX c #E4C1B5",
"iX c #EBC9BB",
"pX c #E5C3B8",
"aX c #F3C7AA",
"sX c #F0C8B3",
"dX c #F5D2BD",
"fX c #C3C2C3",
"gX c #CBCACA",
"hX c #C8C6C7",
"jX c #D5D4D4",
"kX c #DCDCDC",
"lX c #E5CAC3",
"zX c #EAD2CC",
"xX c #EBD5D0",
"cX c #ECD9D4",
"vX c #EEDDD9",
"bX c #E0DFDF",
"nX c #F2C6C3",
"mX c #F5C9C8",
"MX c #F1C9C6",
"NX c #F2CFD0",
"BX c #F7D8C4",
"VX c #F4D7C8",
"CX c #F4D0D1",
"ZX c #F0DED9",
"AX c #F2E1DC",
"SX c #F7E0D3",
"DX c #E2E2E2",
"FX c #EDECED",
"GX c #E8E7E7",
"HX c #F3E6E1",
"JX c #F4E9E6",
"KX c #F8ECE8",
"LX c #F8F0EE",
"PX c #F3F3F3",
"IX c #FAF5F3",
"UX c #FEFEFE",
/* pixels */
"mXNXNXNXNXNXNXNXCXCXCXCXCXCXCXCXCXCXCXCXCXCXCXCXCXCXCXCXCXCXCXCXCXNXNXCXCXCXMXyX7X5X4Xk.h.h.g.4.",
"MXmXMXMXmXmXmXNXmXmXmXmXmXmXmXmXmXmXmXmXmXmXmXmXmXmXmXmXmXmXmXmXmXnXrXG.x.*._ E T T P H U H H G ",
"tXtXwXtXtXtXtXtXtXtXtXtXtXtXtXtXyXyXyXyXyXyXyXyXyXtXyXtXtXtXrXG.l.$.| [ ^ ~ ~ ~ E E E Y Y K H G ",
"2X2X2X2X2X2X3X2X2X3X3X3X3XyX3X3X3X3X3X3X3X3X3X3X3X3X3X3XF.v.:.o.$. . .[ O.[ [ ~ ~ E E T T Y H H ",
"A.A.0.A.8.4X8.A.A.A.S.S.S.<X;X4XA.F.F.F.F.F.F.F.F.F.n.w.o.%.:.$.%...$.$.[ [ [ [ ~ ~ E ! T P U H ",
"6.6.9.9.8.8.8.8.b.b.n.n.x.`.; T.4Xb.n.n.n.n.n.n.y.w.o.:.:.:.:.o.%.$.$. ...[ [ [ [ ~ ~ E E T U U ",
"6.@.@.=.=.-.8.0.e.t.t.u.e.`.gXU.4 6Xe.y.i.i.u.r.:.:.q.:.:.:.:.:.o.%.$... .$.[ [ [ ~ ~ E E T Y Q ",
"{ { +.+.$.$.%.o.r.r.r.r.r./. XUXE.1 J...r.r.q.r.r.:.:.r.r.:.:.:.:.:.:.%.$. .$.[ [ ~ ] E E T Y Y ",
"' { { } X.X.X.X.o.o.:.o.X._.}.UXUXP.4 c.#.r.r.r.r.r.q.r.r.q.q.r.o.%.:.%.%...$.[ [ ^ [ ~ _ E E P ",
"' +.{ +.} } X.X.o.:.o.o.o.@XE.UXUXIX: W.e.r.r.r.r.r.r.i.u.r.r.%.r.%.%.:.:.%. .$.O.[ [ ~ E E T T ",
"{ { } } X.X.X.o.o.o.o.o...%X2 UXUXUXkXo ].#.%.r.r.H.[.9 8 [.K.w.%.r.:.%.o.%.$... .[ ] ~ ~ E T T ",
"{ { { X.X.X.X.o.o.o.q.o...L.; UXUXUXUXI., z...r.m.T.I.FXkXU.- W.J.%.:.:.%.%.%.$. .O.[ O.] ~ E T ",
"{ { } } X.X.X.o.o.o.o.q.o.y.1 kXUXUXUXGX. @X^ %.-X> UXUXUXUXFXm ; -X&.%.:.:.:.%.$.| [ [ O.E E T ",
"{ { } } X.X.o.o.o.o.o.q.o...W.Q.UXUXUXUX< 9 ` &.I.}.UXUXUXUXUXUXhX& [.l...:...$...O.[ [ ] ~ E E ",
"{ } } X.X.X.X.o.o.o.o.o.o...%X& UXUXUXUX{.O k.z.: DXUXUXUXkXUXUXUXGX: W.l. .%...$.$.[ [ ] ~ E E ",
"{ } } } X.X.X.o.o.o.q.q.q...c.;  XUXUXUXkX  @Xk.# IXUXUXGX. 7 jXUXUXIX1 (.;.| %.$. .+.[ O.~ ~ E ",
"' } } } X.o.o.o.o.q.q.q.r.r.#.).; UXUXUXUXO W.+X= UXUXUX{.o *   * Q.DXIX2 ].) .... .O.[ ] ~ ~ E ",
"} } X.X.X.X.X.o.o.q.q.r.r.r...B.% {.UXUXUX; 5 :X% UXUXUX* 7 V _.T.1 + & P.& %X~ $.$.$.[ O.] ~ E ",
"' } } X.X.X.X.o.o.q.r.r.r.r.r.) ].o kXUXUX4 -  X* UXUX|.X _.i p f n s._./.W.|.B.[  .[ [ [ ~ ~ E ",
"} } } } X.X.o.X.o.q.r.r.r.r.r.r.p.6 % PXUXI.> 5 6 UXFX@ 5 v f L L K D f i i b 3.^ O. .+.[ ] ~ E ",
"' } } } X.X.X.o.q.q.q.r.r.r.r.r.^ j.& , UXUXUXUXUXUX X. m 2.L [ | ^ ^ ! I L L I ^ [  .O.[ ] ~ E ",
"} } } X.X.X.X.o.o.q.r.r.r.r.r.r...%X; kXUXUXUXUXUXUXUXgXO 9 p.| r.%.%...| [ [ [ [ [ +.[ [ ~ ~ E ",
"' } } } X.X.o.o.:.r.r.r.r.u.r.r.m.5 jXUXUXUXUXUXUXUXUXUXhX  [.) %.r.r.:.:.:...$...$.[ [ ] _ E E ",
"' ' } X.X...:.:.:.:.r.r.r.r.r.r.=X8 UXUXUXUXUXUXUXUXUXUXUX, 3 ;.| %.r.r.:.:.:.$.$.$.| O.O.~ ~ E ",
"} } } } X.X.o.o.o.>.r.r.r.r.r.r.'.!.UXUXUXUXUXUXUXUXUXUXUXI.; a.^ %.:.:.:.:.:.:.$.$.O.[ ' O.E E ",
"' ' } } } X...q.o.>.o.r.r.r.r.:.@XP.UXUXUXUXUXUXUXUXUXUXUX2 3 ( ! %.:.:.:.:.:.$. .$.[ O.O._ E E ",
"' } } }  ...o...:.:.:.:.r.r.r.:.K.* FXUXUXUXUXUXUXUXUXUXDX. W.j E %.:.:.:.:.:.$.$.[ O.{ E E E T ",
"} ' } } } ....q.:.o.>.>.r.r.r.>.&.(.; DXUXUXUXUXUX!.2 jX= : s.h ~ %.:.:.:.:.%.$.$.O.O.{ ~ _ E E ",
"' ] { {  .$.%.:.:.:.:.:.:.r.r.:.#.p.W.2 hX}.!.gX}.  Q.: > f.i L [ :.:.:.:.%.$.$.+.O.[ ] O.E E Y ",
"' ] ] } +.$.$.:.:.:.:.:.:.r.r.:.%._ k.# {.5 U.jX8 4 {.  /.r h ! +.:.:.:.%.$.$.$.[ [ O.] E E T Y ",
"' ' ' { +.+.$.$.X.:.>.:.:.>.r.r.:.| @X9 UXUXjX|.jXUXUX2 R.f I | $.:.:.:.%.$.$.[ O.{ ~ _ E E E Y ",
"R ' ' { O.+.$.$.:.:.:.o.>.o.:.:.:.:.'.Q.UXUXI.X I.UXUXY.Y.j ! $.:.:.:.%.$.$.$.O.[ O.~ E E E Y Y ",
"' ' R } { O.+.+.$.%.%.:.:.:.:.:.:.:.5X= {. X X8 |.|.!.O `.h ~ ..:.%.:.$.$.+.O.[ O.~ ~ E E R T U ",
"R R E ~ O.O.O.+.+.+. . .$.$.:.:.:.%.*.].1 > UX|.UX* 2 `.v K ^ ..%.%.+.+.$.O.O.[ O.~ ~ E E R Y W ",
"R R E ~ O.~ O.0XZXBXBXBXVXaXO.+.:.%.| I 5.).8 = 1 I.B r f L ]  .D.aXBX_ O.] O.V.N.T T T Y Y U U ",
"R R E ~ ~ ~ @.UXAXIXUXUXvXUX3.E [ ..| ~ K x g..Xf.c r f a.SXz.p.UXUXUXW I ~ ~ 4.h.P Y Y Y U U U ",
"R R R E E O.7.ZXv pXUXcXe cX*X8XdX) J.sX9X/ $XuX2.pX+XwXUXUXMX( j.UXUXu 1.sXBX5XW F H Y Y U W G ",
"J J Y E E E E Q g uXUXxXq d AXUXJX( LXUXiX$XUXUXUXUXIXk.UXUX&Xx g.UXUXM IXeXB UX*Xf F Y U U J G ",
"R R Y R E E E Y K iXUXcXq f 5XUXZXt wXUX>Xk UXUXd.zX*Xc UXUXz t a.UXUX:XUXHXlXUXcXu S H U G H G ",
"J J Y Y Y E E E T VXUXJXw j 5XUXZX0 <XUX,Xk UXUXN q u v UXUXz u g.UXUX<XUX,Xl l k u Z H G W G A ",
"A U U U Y Y E E a.UXUXUXV f j.UXUXXXLXUXcXV UXUX&Xu j Q UXUXMX,X8XUXUX:XUXPX.XOXXXu g W G W A Z ",
"A U G U U Y Y Y 5XZXHXZX&Xp Q iXZXd.>XxX&XXXAXHXzXk K T 7XKXvXV MXHXZX_.V HXPXeXc p Z A A A A Z ",
"A G U U U Y U Y U g y 0 y f H F p u u u u i i u y p K T G p y y u y w w e w q w w p Z W Z Z Z Z ",
"A A G G G U U U U F g a j H P P F G G W F F F F D F T E Y F S G j j a a s s p s s s Z S Z Z Z Z ",
"Z A Z G W G U U U U W U H Y Y E Y Y E T Y E E T T Y E E E Y Y Y H H H H G W G G Z Z Z Z Z Z Z Z ",
"Z Z Z A G G G U U U U U Y Y T Y E Y E Y T Y E E T E E Y Y Y Y Y Y U Y H U G G G G Z Z Z Z Z Z Z ",
"C Z Z Z A G G G G H U U U U Y Y Y Y Y Y Y Y Y Y Y T Y Y U U U U U H H H G G W Z Z Z Z s Z Z Z Z ",
"Z Z Z Z Z Z A G G G H J U W U U U U Y Y Y Y Y Y U Y U U U U U U H H G G G G A Z Z Z s s s s s s "
};
