/* XPM */
static char *magick[] = {
/* columns rows colors chars-per-pixel */
"32 32 5 1",
"  c Gray0",
". c #646464",
"X c #979797",
"o c #cacaca",
"O c Gray100",
/* pixels */
"                                ",
"                                ",
"                                ",
"                                ",
"                 ............   ",
"                 ............   ",
"            XXXXXXXXXXXX.....   ",
"            XXXXXXXXXXXX.....   ",
"       ooooooooooooXXXXX.....   ",
"       ooooooooooooXXXXX.....   ",
"  OOOOOOOOOOOOoooooXXXXX.....   ",
"  OOOOOOOOOOOOoooooXXXXX.....   ",
"  OOOOOOOOOOOOoooooXXXXX.....   ",
"  OOOOOOOOOOOOoooooXXXXX.....   ",
"  OOOOOOOOOOOOoooooXXXXX.....   ",
"  OOOOOOOOOOOOoooooXXXXX.....   ",
"  OOOOOOOOOOOOoooooXXXXX.....   ",
"  OOOOOOOOOOOOoooooXXXXX.....   ",
"  OOOOOOOOOOOOoooooXXXXX.....   ",
"  OOOOOOOOOOOOoooooXXXXX.....   ",
"  OOOOOOOOOOOOoooooXXXXX.....   ",
"  OOOOOOOOOOOOoooooXXXXX.....   ",
"  OOOOOOOOOOOOoooooXXXXX.....   ",
"  OOOOOOOOOOOOoooooXXXXX        ",
"  OOOOOOOOOOOOoooooXXXXX        ",
"  OOOOOOOOOOOOooooo             ",
"  OOOOOOOOOOOOooooo             ",
"  OOOOOOOOOOOO                  ",
"  OOOOOOOOOOOO                  ",
"                                ",
"                                ",
"                                "
};
