/* XPM */
static char *magick[] = {
/* columns rows colors chars-per-pixel */
"32 32 256 2",
"   c Gray0",
".  c #800000",
"X  c #008000",
"o  c #808000",
"O  c #000080",
"+  c #800080",
"@  c #008080",
"#  c #c0c0c0",
"$  c #c0dcc0",
"%  c #a6caf0",
"&  c #402000",
"*  c #602000",
"=  c #802000",
"-  c #a02000",
";  c #c02000",
":  c #e02000",
">  c #004000",
",  c #204000",
"<  c #404000",
"1  c #604000",
"2  c #804000",
"3  c #a04000",
"4  c #c04000",
"5  c #e04000",
"6  c #006000",
"7  c #206000",
"8  c #406000",
"9  c #606000",
"0  c #806000",
"q  c #a06000",
"w  c #c06000",
"e  c #e06000",
"r  c #008000",
"t  c #208000",
"y  c #408000",
"u  c #608000",
"i  c #808000",
"p  c #a08000",
"a  c #c08000",
"s  c #e08000",
"d  c #00a000",
"f  c #20a000",
"g  c #40a000",
"h  c #60a000",
"j  c #80a000",
"k  c #a0a000",
"l  c #c0a000",
"z  c #e0a000",
"x  c #00c000",
"c  c #20c000",
"v  c #40c000",
"b  c #60c000",
"n  c #80c000",
"m  c #a0c000",
"M  c #c0c000",
"N  c #e0c000",
"B  c #00e000",
"V  c #20e000",
"C  c #40e000",
"Z  c #60e000",
"A  c #80e000",
"S  c #a0e000",
"D  c #c0e000",
"F  c #e0e000",
"G  c #000040",
"H  c #200040",
"J  c #400040",
"K  c #600040",
"L  c #800040",
"P  c #a00040",
"I  c #c00040",
"U  c #e00040",
"Y  c #002040",
"T  c #202040",
"R  c #402040",
"E  c #602040",
"W  c #802040",
"Q  c #a02040",
"!  c #c02040",
"~  c #e02040",
"^  c #004040",
"/  c #204040",
"(  c Gray25",
")  c #604040",
"_  c #804040",
"`  c #a04040",
"'  c #c04040",
"]  c #e04040",
"[  c #006040",
"{  c #206040",
"}  c #406040",
"|  c #606040",
" . c #806040",
".. c #a06040",
"X. c #c06040",
"o. c #e06040",
"O. c #008040",
"+. c #208040",
"@. c #408040",
"#. c #608040",
"$. c #808040",
"%. c #a08040",
"&. c #c08040",
"*. c #e08040",
"=. c #00a040",
"-. c #20a040",
";. c #40a040",
":. c #60a040",
">. c #80a040",
",. c #a0a040",
"<. c #c0a040",
"1. c #e0a040",
"2. c #00c040",
"3. c #20c040",
"4. c #40c040",
"5. c #60c040",
"6. c #80c040",
"7. c #a0c040",
"8. c #c0c040",
"9. c #e0c040",
"0. c #00e040",
"q. c #20e040",
"w. c #40e040",
"e. c #60e040",
"r. c #80e040",
"t. c #a0e040",
"y. c #c0e040",
"u. c #e0e040",
"i. c #000080",
"p. c #200080",
"a. c #400080",
"s. c #600080",
"d. c #800080",
"f. c #a00080",
"g. c #c00080",
"h. c #e00080",
"j. c #002080",
"k. c #202080",
"l. c #402080",
"z. c #602080",
"x. c #802080",
"c. c #a02080",
"v. c #c02080",
"b. c #e02080",
"n. c #004080",
"m. c #204080",
"M. c #404080",
"N. c #604080",
"B. c #804080",
"V. c #a04080",
"C. c #c04080",
"Z. c #e04080",
"A. c #006080",
"S. c #206080",
"D. c #406080",
"F. c #606080",
"G. c #806080",
"H. c #a06080",
"J. c #c06080",
"K. c #e06080",
"L. c #008080",
"P. c #208080",
"I. c #408080",
"U. c #608080",
"Y. c #808080",
"T. c #a08080",
"R. c #c08080",
"E. c #e08080",
"W. c #00a080",
"Q. c #20a080",
"!. c #40a080",
"~. c #60a080",
"^. c #80a080",
"/. c #a0a080",
"(. c #c0a080",
"). c #e0a080",
"_. c #00c080",
"`. c #20c080",
"'. c #40c080",
"]. c #60c080",
"[. c #80c080",
"{. c #a0c080",
"}. c #c0c080",
"|. c #e0c080",
" X c #00e080",
".X c #20e080",
"XX c #40e080",
"oX c #60e080",
"OX c #80e080",
"+X c #a0e080",
"@X c #c0e080",
"#X c #e0e080",
"$X c #0000c0",
"%X c #2000c0",
"&X c #4000c0",
"*X c #6000c0",
"=X c #8000c0",
"-X c #a000c0",
";X c #c000c0",
":X c #e000c0",
">X c #0020c0",
",X c #2020c0",
"<X c #4020c0",
"1X c #6020c0",
"2X c #8020c0",
"3X c #a020c0",
"4X c #c020c0",
"5X c #e020c0",
"6X c #0040c0",
"7X c #2040c0",
"8X c #4040c0",
"9X c #6040c0",
"0X c #8040c0",
"qX c #a040c0",
"wX c #c040c0",
"eX c #e040c0",
"rX c #0060c0",
"tX c #2060c0",
"yX c #4060c0",
"uX c #6060c0",
"iX c #8060c0",
"pX c #a060c0",
"aX c #c060c0",
"sX c #e060c0",
"dX c #0080c0",
"fX c #2080c0",
"gX c #4080c0",
"hX c #6080c0",
"jX c #8080c0",
"kX c #a080c0",
"lX c #c080c0",
"zX c #e080c0",
"xX c #00a0c0",
"cX c #20a0c0",
"vX c #40a0c0",
"bX c #60a0c0",
"nX c #80a0c0",
"mX c #a0a0c0",
"MX c #c0a0c0",
"NX c #e0a0c0",
"BX c #00c0c0",
"VX c #20c0c0",
"CX c #40c0c0",
"ZX c #60c0c0",
"AX c #80c0c0",
"SX c #a0c0c0",
"DX c #fffbf0",
"FX c #a0a0a4",
"GX c #808080",
"HX c Red",
"JX c Green",
"KX c Yellow",
"LX c Blue",
"PX c Magenta",
"IX c Cyan",
"UX c Gray100",
/* pixels */
"                                                                ",
"        DXFX( ( FX$ UXUXUXUXUXUXUXUXUXUXUXUXUXUXUXUXUXUX        ",
"    # UX$ FXT T T Y.DXUXUXUXUXUXUXUXUXUXUXUXUXUXUXUXUXUXUX#     ",
"    UXUX$ Y.( Y.( T Y.$ UXUXUXUXUXUXUXUXUXUXUXUXUXUXUXUXUXUX    ",
"  UXUXDX$ Y.( FX# | T F.$ UXUXUXUXUXUXUXUXUXUXUXUXUXUXUXUXUXUX  ",
"  UXUXDX# HXHXFXDX# ( T FXDXUXUXUXUXDXDXDXUXUXUXHXHXUXUXUXUXUX  ",
"  UXUXUXHXHXHXHXUXUXFXT ( FXDXUXDXFXY.| F.FX$ HXHXHXHXUXUXUXUX  ",
"  UXUXUX$ HXHXHXHXUXDXF.T F.$ DXFX( ( ( T T HXHXHXHXUXUXUXUXUX  ",
"  UXUXUX$ # HXHXHXHXUX# ( T FX# ( ( FX# FXHXHXHXHX# DXUXUXUXUX  ",
"  UXUXUXDX# ( HXHXHXHXDXF.  | F.T FXDXUXHXHXHXHXT ( # DXUXUXUX  ",
"  UXUXUXDXDX| T HXHXHXHXFXT T T ( # UXHXHXHXHX$ Y.T ( FXDXUXUX  ",
"  UXUXUXDXDXY.T Y.HXHXHXHXT     ( DXHXHXHXHX$ DXDXFX( ( # UXUX  ",
"  UXUXUXUXUX# ( ( # HXHXHXHX    | HXHXHXHXT | FX# $ Y.T | $ UX  ",
"  UXUXUXUXUXDXY.T F.DXHXHXHXHX  HXHXHXHXT       T | Y.( T Y.DX  ",
"  UXUXUXUXUXUX# T T # DXHXHXHXHXHXHXHX|   ( F.( T   T T   T FX  ",
"  UXUXUXUXUXUXDXF.T | # DXHXHXHXHXHXY.T T FXDXDX# FXY.F.| ( |   ",
"  UXUXUXUXUXUXUXFXT T FXDXHXHXHXHXHXY.T T Y.DXUXUXUXDXDX$ # #   ",
"  UXUXUXUXUXUXDXY.T F.# HXHXHXHXHXHXHXF.T ( # UXUXUXUXUXUXUXUX  ",
"  UXUXUXUXUXUX$ ( ( # HXHXHXHXUXHXHXHXHX(   Y.DXUXUXUXUXUXUXUX  ",
"  UXUXUXUXUXUX# T Y.HXHXHXHXUXUXUXHXHXHXHX  | DXUXUXUXUXUXUXUX  ",
"  UXUXUXUXUXUX# T HXHXHXHXUXUXUXUXUXHXHXHXHXF.DXUXUXUXUXUXUXUX  ",
"  UXUXUXUXUXUX# HXHXHXHXUXUXUXUXUXDXUXHXHXHXHXDXUXUXUXUXUXUXUX  ",
"  UXUXUXUXUXUXHXHXHXHX$ DXDXUXDX# FX# | HXHXHXHXUXUXUXUXUXUXUX  ",
"  UXUXUXUXUXHXHXHXHXT Y.FXFX# FX| F.F.  T HXHXHXHXUXUXUXUXUXUX  ",
"  UXUXUXUXHXHXHXHXY.T | Y.Y.FXFXY.Y.(   Y.$ HXHXHXHXUXUXUXUXUX  ",
"  UXUXUXHXHXHXHXDXY.T FXDX# Y.FXDX# F.T Y.UXUXHXHXHXHXUXUXUXUX  ",
"  UXUXUXUXHXHXUXDXY.T FX$ FX| Y.$ $ F.  FXUXUXUXHXHXUXUXUXUXUX  ",
"  UXUXUXUXUXUXUXUXFXT ( F.Y.Y.Y.F.( T ( # UXUXUXUXUXUXUXUXUXUX  ",
"    UXUXUXUXUXUXUX$ F.T T F.Y.Y.T   ( FXDXUXUXUXUXUXUXUXUXUX    ",
"    # UXUXUXUXUXUXUXDXFX| T T T ( Y.# DXUXUXUXUXUXUXUXUXUX#     ",
"        UXUXUXUXUXUXUXUX# FXF.Y.# DXUXUXUXUXUXUXUXUXUXUX        ",
"                                                                "
};
