/* XPM */
static char * turtlePCShapeIcon_xpm[] = {
"32 32 125 2",
"  	c None",
". 	c #494949",
"+ 	c #49494B",
"@ 	c #49494A",
"# 	c #4F4F4F",
"$ 	c #575757",
"% 	c #4E4E4E",
"& 	c #777777",
"* 	c #616161",
"= 	c #4A4A4A",
"- 	c #6E6E6E",
"; 	c #BEBEBE",
"> 	c #D7D7D7",
", 	c #7F7F7F",
"' 	c #919191",
") 	c #DBDBDB",
"! 	c #D0D0D0",
"~ 	c #535353",
"{ 	c #DADADA",
"] 	c #9C9C9C",
"^ 	c #565656",
"/ 	c #B5B5B5",
"( 	c #595959",
"_ 	c #7A7A7A",
": 	c #373737",
"< 	c #383838",
"[ 	c #5C5C5C",
"} 	c #454545",
"| 	c #C3C3C3",
"1 	c #C8C8C8",
"2 	c #898989",
"3 	c #444444",
"4 	c #A2A2A2",
"5 	c #000000",
"6 	c #333333",
"7 	c #0F0F0F",
"8 	c #202020",
"9 	c #737373",
"0 	c #8D8D8D",
"a 	c #404040",
"b 	c #8A8A8A",
"c 	c #AAAAAA",
"d 	c #3C3C3C",
"e 	c #242424",
"f 	c #010101",
"g 	c #0D0D0D",
"h 	c #606060",
"i 	c #717171",
"j 	c #686868",
"k 	c #0C0C0C",
"l 	c #040404",
"m 	c #2C2C2C",
"n 	c #929292",
"o 	c #FFFFFF",
"p 	c #E5E5E5",
"q 	c #1B1B1B",
"r 	c #A1A1A1",
"s 	c #F8F8F8",
"t 	c #FEFEFE",
"u 	c #E0E0E0",
"v 	c #3E3E3E",
"w 	c #C6C6C6",
"x 	c #808080",
"y 	c #EBEBEB",
"z 	c #424242",
"A 	c #5B5B5B",
"B 	c #DEDEDE",
"C 	c #F6F6F6",
"D 	c #E4E4E4",
"E 	c #FBFBFB",
"F 	c #8B8B8B",
"G 	c #343434",
"H 	c #1F1F1F",
"I 	c #353535",
"J 	c #555555",
"K 	c #7B7B7B",
"L 	c #080808",
"M 	c #121212",
"N 	c #CACACA",
"O 	c #CECECE",
"P 	c #E1E1E1",
"Q 	c #F3F3F3",
"R 	c #909090",
"S 	c #FDFDFD",
"T 	c #828282",
"U 	c #E6E6E6",
"V 	c #6F6F6F",
"W 	c #3D3D3D",
"X 	c #252525",
"Y 	c #B8B8B8",
"Z 	c #070707",
"` 	c #020202",
" .	c #545454",
"..	c #5A5A5A",
"+.	c #B2B2B2",
"@.	c #0E0E0E",
"#.	c #A3A3A3",
"$.	c #636363",
"%.	c #BFBFBF",
"&.	c #D2D2D2",
"*.	c #7C7C7C",
"=.	c #666666",
"-.	c #7E7E7E",
";.	c #DCDCDC",
">.	c #4C4C4C",
",.	c #101010",
"'.	c #BDBDBD",
").	c #050505",
"!.	c #727272",
"~.	c #0B0B0B",
"{.	c #151515",
"].	c #191919",
"^.	c #060606",
"/.	c #2F2F2F",
"(.	c #626262",
"_.	c #A0A0A0",
":.	c #676767",
"<.	c #9E9E9E",
"[.	c #181818",
"}.	c #848484",
"|.	c #464646",
"1.	c #1E1E1E",
"2.	c #C0C0C0",
"3.	c #6A6A6A",
"4.	c #9F9F9F",
". . . . . . . . . . . . . . . . . . . . . . . + + @ . . . . . . ",
". . . . . . . . . # $ . . . . . . . . % & * . . . . . . . . . . ",
". = - - = . . . # ; > , . . . . . . . ' ) ! ~ . . . . . . . . . ",
". - { { - . . . $ > ) ] . . . # $ . . ' ) ! ~ . ^ / / ^ . . . . ",
". - { { - . . . . , ] ( . . # ; > , . % & * . . _ ) ) _ . . . . ",
": < [ [ < : : : : : : : : : } | 1 2 : : : : : : 3 4 4 3 : : : : ",
"5 5 5 5 5 5 5 5 5 5 5 5 5 5 5 6 # 7 5 5 5 5 5 5 5 5 5 5 5 5 5 5 ",
"5 5 5 5 5 5 5 8 ~ 8 5 5 5 5 5 5 5 5 5 5 5 5 5 5 5 5 5 5 5 5 5 5 ",
"5 5 5 5 5 5 5 9 0 9 5 5 5 5 5 5 5 5 5 5 5 5 5 5 5 5 5 5 5 5 5 5 ",
"5 5 5 5 8 a a b c b d e f 5 5 5 5 5 5 5 5 g a [ h % i j k 5 5 5 ",
"5 5 l m n o o o o o o o p - f 5 5 5 5 q r s o o o o t u v 5 5 5 ",
"5 5 } 0 w o o o o o o o o o x 5 5 5 6 y o o o o o o o o z 5 5 5 ",
"5 5 } 0 w o o o a a A B o o C g 5 7 D o o E F G H I & u a 5 5 5 ",
"5 5 l m n o o o 5 5 5 J o o o : 5 K o o o [ 5 5 5 5 5 L M 5 5 5 ",
"5 5 5 5 x o o o 5 5 5 $ o o o : 5 N o o O 5 5 5 5 5 5 5 5 5 5 5 ",
"5 5 5 5 x o o o a a A P o o C g 5 Q o o R 5 5 5 5 5 5 5 5 5 5 5 ",
"5 5 5 5 x o o o o o o o o o x 5 5 S o o T 5 5 5 5 5 5 5 5 5 5 5 ",
"5 5 5 5 x o o o o o o o U V f 5 5 y o o ] 5 5 5 5 5 5 5 5 5 5 5 ",
"5 5 5 5 x o o o a a W X f 5 5 5 5 Y o o D Z 5 5 5 `  .9 8 5 5 5 ",
"5 5 5 5 x o o o 5 5 5 5 5 5 5 5 5 ..o o o +.@.5 5 7 b #.$.5 5 5 ",
"5 5 5 5 x o o o 5 5 5 5 5 5 5 5 5 ` %.o o o &.*.=.-.;.t >.5 5 5 ",
"5 5 5 5 x o o o 5 5 5 5 5 5 5 5 5 5 ,.'.o o o o o o o o a 5 5 5 ",
"5 5 5 5 h %.%.%.5 5 5 5 5 5 5 g ).5 5 ` ..'.C o o E N !.~.5 5 5 ",
"5 5 5 5 5 5 5 5 5 5 5 5 5 5 6 2 i ).5 5 5 5 ` {.].^.5 5 k /.k 5 ",
"5 5 5 5 5 5 5 5 5 5 5 5 5 5 # 0 2 g 5 5 5 5 5 5 5 5 5 5 j 0 j 5 ",
"5 5 7 # 6 5 5 5 5 ` 7 ` 5 5 7 # 6 5 5 5 5 5 5 ).g 5 5 5 j 0 j 5 ",
"M M (._.] 8 M M M :.<.:.M M M M M M M M M M [.}.] |.M M 1.z 1.M ",
". . , > ; # . . . 2.) 2.. . . . . . . . . . $ > ) ] . . . . . . ",
". . . $ # . . . . 3.4.3.. . . . . . . . . . . , ] ( . . . . . . ",
". . . . . . . . . . . . . . . . . . . . . . . . . . . . . . . . ",
". . . . . . . . . . . . . . . . . . . . . . . . . . . . . . . . ",
". . . . . . . . . . . . . . . . . . . . . . . . . . . . . . . . "};
