/* XPM */
static char * turtlePCBakeIcon_xpm[] = {
"32 32 397 2",
"  	c None",
". 	c #4C0F1C",
"+ 	c #3A262A",
"@ 	c #3A262B",
"# 	c #3B272B",
"$ 	c #3B272C",
"% 	c #3C282C",
"& 	c #3C282D",
"* 	c #3D292D",
"= 	c #3E2A2E",
"- 	c #3E2A2F",
"; 	c #3F2B2F",
"> 	c #422E32",
", 	c #422E33",
"' 	c #432F33",
") 	c #443034",
"! 	c #443035",
"~ 	c #453135",
"{ 	c #463136",
"] 	c #463236",
"^ 	c #463237",
"/ 	c #463337",
"( 	c #493539",
"_ 	c #4A3539",
": 	c #4A3639",
"< 	c #4A363A",
"[ 	c #4A363B",
"} 	c #4B363B",
"| 	c #4B373B",
"1 	c #4C373C",
"2 	c #4C383C",
"3 	c #4C383D",
"4 	c #4D383D",
"5 	c #4D393D",
"6 	c #4D3A3D",
"7 	c #4E3A3E",
"8 	c #4F3A3F",
"9 	c #513C41",
"0 	c #513D41",
"a 	c #513D42",
"b 	c #513E42",
"c 	c #523E42",
"d 	c #533E43",
"e 	c #533F43",
"f 	c #5E4B4F",
"g 	c #5E4C50",
"h 	c #544044",
"i 	c #554044",
"j 	c #554045",
"k 	c #554145",
"l 	c #564246",
"m 	c #594449",
"n 	c #594549",
"o 	c #D5D0D1",
"p 	c #CCC6C7",
"q 	c #A69B9D",
"r 	c #614E52",
"s 	c #5A464B",
"t 	c #5B464B",
"u 	c #604D51",
"v 	c #B0A6A8",
"w 	c #EFEDED",
"x 	c #FFFFFF",
"y 	c #F0EFEF",
"z 	c #ABA0A2",
"A 	c #5C484C",
"B 	c #998C8F",
"C 	c #D6D0D2",
"D 	c #D2CDCE",
"E 	c #BFB7B9",
"F 	c #85767A",
"G 	c #5D494D",
"H 	c #5E4A4E",
"I 	c #604C50",
"J 	c #604D50",
"K 	c #614D51",
"L 	c #E2DEDF",
"M 	c #D9D5D6",
"N 	c #F6F5F5",
"O 	c #D9D4D5",
"P 	c #624F53",
"Q 	c #645054",
"R 	c #D6D1D2",
"S 	c #B2A8AA",
"T 	c #A79C9E",
"U 	c #C3BBBD",
"V 	c #D0CACB",
"W 	c #634F54",
"X 	c #B1A7A9",
"Y 	c #F6F4F4",
"Z 	c #E5E1E2",
"` 	c #FEFEFE",
" .	c #88787C",
"..	c #655155",
"+.	c #655156",
"@.	c #675358",
"#.	c #685458",
"$.	c #8E7F82",
"%.	c #695559",
"&.	c #817074",
"*.	c #837276",
"=.	c #A09396",
"-.	c #F6F5F6",
";.	c #7B696D",
">.	c #6A565A",
",.	c #6A575A",
"'.	c #6B575B",
").	c #6E5B5F",
"!.	c #B5ABAD",
"~.	c #DAD5D6",
"{.	c #6C575C",
"].	c #6C585C",
"^.	c #E4E1E1",
"/.	c #6D595D",
"(.	c #6F5B60",
"_.	c #705C60",
":.	c #948588",
"<.	c #715D60",
"[.	c #7A686C",
"}.	c #8F7F83",
"|.	c #CEC7C8",
"1.	c #CAC2C4",
"2.	c #725E62",
"3.	c #735F63",
"4.	c #B9AFB1",
"5.	c #95868A",
"6.	c #9B8D90",
"7.	c #746064",
"8.	c #756064",
"9.	c #776367",
"0.	c #776368",
"a.	c #CBC4C6",
"b.	c #BCB2B4",
"c.	c #E1DDDE",
"d.	c #F1EEEF",
"e.	c #7D696D",
"f.	c #DCD7D8",
"g.	c #BEB4B6",
"h.	c #79656A",
"i.	c #7A666A",
"j.	c #BDB3B5",
"k.	c #DDD7D9",
"l.	c #7E6B6F",
"m.	c #7B676C",
"n.	c #7B686C",
"o.	c #7C686C",
"p.	c #7E6A6E",
"q.	c #7F6B6E",
"r.	c #7F6B6F",
"s.	c #F8F7F8",
"t.	c #DCD6D7",
"u.	c #958488",
"v.	c #806C70",
"w.	c #D4CECF",
"x.	c #CEC6C8",
"y.	c #816D71",
"z.	c #816D72",
"A.	c #826D72",
"B.	c #C0B6B8",
"C.	c #E8E4E5",
"D.	c #A29396",
"E.	c #A89A9D",
"F.	c #EAE7E7",
"G.	c #C2B8BA",
"H.	c #836F74",
"I.	c #846F74",
"J.	c #867276",
"K.	c #867376",
"L.	c #A59699",
"M.	c #887377",
"N.	c #887378",
"O.	c #B7AAAD",
"P.	c #928084",
"Q.	c #897579",
"R.	c #8B767B",
"S.	c #8A757A",
"T.	c #C4BABC",
"U.	c #E2DDDE",
"V.	c #8A767A",
"W.	c #C9C0C2",
"X.	c #DFDADB",
"Y.	c #8B777B",
"Z.	c #8B777C",
"`.	c #8E797E",
" +	c #8E7A7E",
".+	c #AB9C9F",
"++	c #8F7B7F",
"@+	c #8F7B80",
"#+	c #907B80",
"$+	c #927E83",
"%+	c #E7E3E4",
"&+	c #EFECED",
"*+	c #C0B4B7",
"=+	c #B8ACAE",
"-+	c #CCC3C5",
";+	c #DAD3D4",
">+	c #917D81",
",+	c #C8BEC0",
"'+	c #F1EFEF",
")+	c #C8BDC0",
"!+	c #F7F6F6",
"~+	c #CFC6C8",
"{+	c #937E82",
"]+	c #937F83",
"^+	c #958186",
"/+	c #968286",
"(+	c #B0A1A4",
"_+	c #978386",
":+	c #978387",
"<+	c #9D8A8E",
"[+	c #D5CDCE",
"}+	c #FAF9F9",
"|+	c #FBFAFA",
"1+	c #988488",
"2+	c #CCC2C4",
"3+	c #F5F3F4",
"4+	c #D7CFD0",
"5+	c #9F8C90",
"6+	c #9A868A",
"7+	c #9D898D",
"8+	c #9E8A8E",
"9+	c #9E8A8F",
"0+	c #9E8B8F",
"a+	c #9F8B8F",
"b+	c #A18E91",
"c+	c #AC9B9E",
"d+	c #A28E92",
"e+	c #A08C90",
"f+	c #A08C91",
"g+	c #A18C91",
"h+	c #A18D91",
"i+	c #A49095",
"j+	c #A59195",
"k+	c #A59295",
"l+	c #A59296",
"m+	c #A69296",
"n+	c #A69297",
"o+	c #A79297",
"p+	c #A79397",
"q+	c #A89498",
"r+	c #A89499",
"s+	c #A99599",
"t+	c #AA9599",
"u+	c #A9959A",
"v+	c #AA969A",
"w+	c #AC989C",
"x+	c #AC989D",
"y+	c #A9B2A8",
"z+	c #A7C0AF",
"A+	c #ABA0A0",
"B+	c #AD999D",
"C+	c #AAB3B4",
"D+	c #A8C1C0",
"E+	c #ADA1A4",
"F+	c #AE9A9E",
"G+	c #AE9A9F",
"H+	c #AF9B9F",
"I+	c #B09CA0",
"J+	c #B09CA1",
"K+	c #B69DA8",
"L+	c #CDA3C6",
"M+	c #C3A1B9",
"N+	c #B19DA1",
"O+	c #997B81",
"P+	c #988686",
"Q+	c #8CE4B1",
"R+	c #8CE6B2",
"S+	c #91B99E",
"T+	c #997B82",
"U+	c #98868B",
"V+	c #8DE4DD",
"W+	c #8CE7DF",
"X+	c #92BAB8",
"Y+	c #9A7C82",
"Z+	c #9B7C82",
"`+	c #9B7C83",
" @	c #A89085",
".@	c #D1C98B",
"+@	c #C2B489",
"@@	c #9C7E84",
"#@	c #9C7D84",
"$@	c #C988BE",
"%@	c #E98FE8",
"&@	c #E78FE6",
"*@	c #A4808F",
"=@	c #9D7E85",
"-@	c #4B1720",
";@	c #36BB6A",
">@	c #32DF7A",
",@	c #425D3F",
"'@	c #4B1723",
")@	c #36BBB2",
"!@	c #32DFD1",
"~@	c #425D60",
"{@	c #A28828",
"]@	c #E4E631",
"^@	c #DFDF30",
"/@	c #5A231E",
"(@	c #841B65",
"_@	c #E130DE",
":@	c #C72ABC",
"<@	c #521024",
"[@	c #492325",
"}@	c #4C101C",
"|@	c #49232E",
"1@	c #501422",
"2@	c #622C40",
"3@	c #4D101D",
"4@	c #622734",
"5@	c #561A27",
"6@	c #835D23",
"7@	c #C6BB2C",
"8@	c #52171D",
"9@	c #502A2C",
"0@	c #54232B",
"a@	c #5B122F",
"b@	c #4A2627",
"c@	c #3D7E4D",
"d@	c #44593E",
"e@	c #9E78AE",
"f@	c #B897EB",
"g@	c #8C4F5D",
"h@	c #D08598",
"i@	c #C47F91",
"j@	c #4E111E",
"k@	c #7B3F4C",
"l@	c #33CE71",
"m@	c #4FCC7F",
"n@	c #63373E",
"o@	c #4F1320",
"p@	c #458957",
"q@	c #30D070",
"r@	c #B190D6",
"s@	c #B796EB",
"t@	c #A46373",
"u@	c #D08397",
"v@	c #D08498",
"w@	c #36D174",
"x@	c #725857",
"y@	c #501522",
"z@	c #5F7E60",
"A@	c #713F5B",
"B@	c #9871A7",
"C@	c #632734",
"D@	c #511723",
"E@	c #501D25",
"F@	c #532F30",
"G@	c #4C101D",
"H@	c #4D111F",
"I@	c #73628F",
"J@	c #898BC3",
"K@	c #7C5C73",
"L@	c #511321",
"M@	c #8F4B5B",
"N@	c #44BD72",
"O@	c #35D072",
"P@	c #526B4F",
"Q@	c #561C2F",
"R@	c #713E63",
"S@	c #49212F",
"T@	c #4B1624",
"U@	c #521C2F",
"V@	c #838BCE",
"W@	c #838CD0",
"X@	c #9A96C0",
"Y@	c #7F404E",
"Z@	c #4A8F5D",
"`@	c #A37DBF",
" #	c #425566",
".#	c #32CAE0",
"+#	c #36A9BE",
"@#	c #78404C",
"##	c #D28B9D",
"$#	c #513030",
"%#	c #B291D2",
"&#	c #65321F",
"*#	c #7C5322",
"=#	c #51161C",
"-#	c #3C7C8E",
";#	c #31D0E6",
">#	c #53181E",
",#	c #77454F",
"'#	c #4C121F",
")#	c #3C8294",
"!#	c #36ACC0",
"~#	c #463B4A",
"{#	c #703F51",
"]#	c #9E7A9C",
"^#	c #703F50",
"/#	c #561E1D",
"(#	c #D8D52F",
"_#	c #967826",
":#	c #492432",
"<#	c #492331",
"[#	c #31CCE2",
"}#	c #3C8092",
"|#	c #5D261E",
". . . . . . . . . . . . . . . . . . . . . . . . . . . . . . . . ",
"+ @ @ @ @ # # # $ % % % % & & & & * * * = = = = = - - - - ; ; ; ",
"> > > > , , , , ' ' ' ) ) ) ) ! ! ! ! ! ~ ~ ~ { ] ] ] ] ^ ^ ^ / ",
"( _ : < < < < [ } } | | | | 1 2 2 2 3 4 4 5 5 5 5 6 7 7 7 7 8 8 ",
"9 0 0 0 a b c c c d d d d e e e f g h h i j j j j k k k k l l l ",
"m m m n o o o o p q r s t u v w x x y z A B C C C D E F G G G H ",
"I I J K x x L M N x O P Q R x w S T U V W X x Y O Z x `  .....+.",
"@.#.#.#.x x $.%.&.x x *.=.x -.;.>.,.'.).'.!.x ~.{.].^.x S /././.",
"(.(.(._.x x :.<.[.x x }.|.x 1.2.2.2.2.2.3.4.x Z 5.=.N x 6.7.7.8.",
"9.9.0.0.x x a.b.c.x d.e.f.x g.h.h.h.i.i.i.j.x x x x x k.l.m.n.o.",
"p.q.r.r.x x x x s.t.u.v.w.x x.y.y.z.z.z.A.B.x C.D.E.F.x G.H.H.I.",
"J.J.J.K.x x L.M.N.N.N.N.O.x N P.Q.Q.Q.R.S.T.x U.V.V.W.x X.Y.Y.Z.",
"`.`.`. +x x .+++++++@+#+$+%+x &+*+=+-+;+>+,+x '+)+-+!+x ~+{+$+]+",
"^+/+/+/+x x (+/+/+_+:+:+:+<+[+}+x x |+~+1+2+x x x ` 3+4+5+6+6+6+",
"7+7+7+7+8+8+8+8+9+9+9+0+0+a+a+b+c+c+d+e+f+f+f+g+h+h+h+d+d+d+d+d+",
"i+i+i+j+j+k+l+m+m+m+m+n+n+n+o+p+p+p+q+q+q+q+r+r+r+r+s+s+s+t+u+v+",
"w+x+y+z+A+B+B+C+D+E+F+F+F+G+G+G+G+H+H+H+H+I+I+I+I+J+J+K+L+M+N+N+",
"O+P+Q+R+S+T+U+V+W+X+Y+Y+Z+`+`+`+`+ @.@+@@@#@@@@@@@@@@@$@%@&@*@=@",
". -@;@>@,@. '@)@!@~@. . . . . . . {@]@^@/@. . . . . . (@_@:@<@. ",
". . -@[@}@. . '@|@}@1@2@1@. 3@4@5@6@^@7@8@. . . }@9@0@. a@<@. . ",
". . . . b@c@d@}@. . e@f@e@. g@h@i@5@/@8@j@k@k@j@d@l@m@n@. . o@. ",
". . . . p@q@l@9@. . r@s@r@. t@u@h@4@. . k@v@v@k@c@q@w@x@. . y@. ",
". . . . z@w@m@0@. . A@B@A@. C@t@g@3@. . k@v@v@k@b@p@z@D@. . . . ",
". . . . D@x@n@. . . . . . . . . E@F@G@. j@k@k@j@. . . . . . . . ",
". . . . . . H@I@J@K@. L@M@M@L@E@N@O@P@. . . . Q@R@Q@. . . . . . ",
". . }@S@T@. U@V@W@X@. Y@u@u@Y@F@O@q@Z@. . . . `@s@`@. . . . . . ",
". .  #.#+#T@H@I@J@K@. @#####@#G@P@Z@$#. . . . %#s@%#. &#*#=#. . ",
". . -#;#.#S@. . . }@/@>#,#,#3@. . . . '#)#!#~#{#]#^#/#(#]@_#. . ",
". . :#-# #}@. . . 6@^@7@8@. . . . . . <#[#;#}#. . . /#(#]@_#. . ",
". . . . . . . . . {@]@^@/@. . . . . . '#)#!#~#. . . . &#*#=#. . ",
". . . . . . . . . |#{@6@}@. . . . . . . . . . . . . }@. . . . . ",
". . . . . . . . . . . . . . . . . . . . . . . . . . . . . . . . "};
