/* XPM */
static char * 3DfluidSuVolumeTool_xpm[] = {
"32 32 290 2",
"  	c #C1C1C1C1C1C1",
". 	c #BFBFBFBFBFBF",
"X 	c #B1B1B1B1B1B1",
"o 	c #8B8B8B8B8B8B",
"O 	c #848484848484",
"+ 	c #686868686868",
"@ 	c #808080808080",
"# 	c #A1A1A1A1A1A1",
"$ 	c #BCBCBCBCBCBC",
"% 	c #BDBDBDBDBDBD",
"& 	c #868686868686",
"* 	c #454545454545",
"= 	c #646464646464",
"- 	c #8E8E8E8E8E8E",
"; 	c #B8B8B8B8B8B8",
": 	c #B9B9B9B9B9B9",
"> 	c #9D9D9D9D9D9D",
", 	c #7E7E7E7E7E7E",
"< 	c #656565656565",
"1 	c #A0A0A0A0A0A0",
"2 	c #B7B7B7B7B7B7",
"3 	c #858585858585",
"4 	c #1F1F1F1F1F1F",
"5 	c #080808080808",
"6 	c #191919191919",
"7 	c #030303030303",
"8 	c #020202020202",
"9 	c #212121212121",
"0 	c #747474747474",
"q 	c #BABABABABABA",
"w 	c #7C7C7C7C7C7C",
"e 	c #B5B5B5B5B5B5",
"r 	c #171717171818",
"t 	c #595975758E8E",
"y 	c #5F5F9090B9B9",
"u 	c #3C3C48485151",
"i 	c #0F0F0F0F0F0F",
"p 	c #252525252525",
"a 	c #787878787878",
"s 	c #B6B6B6B6B6B6",
"d 	c #9A9A9A9A9A9A",
"f 	c #A7A7A7A7A7A7",
"g 	c #8C8C8C8C8C8C",
"h 	c #000000000000",
"j 	c #8080DFDFFEFE",
"k 	c #D4D4F1F1FAFA",
"l 	c #F8F8FCFCFEFE",
"z 	c #CECEE4E4F6F6",
"x 	c #8181BEBEF2F2",
"c 	c #5E5E9191BDBD",
"v 	c #393946465252",
"b 	c #060607070707",
"n 	c #0D0D0D0D0D0D",
"m 	c #2A2A2A2A2A2A",
"M 	c #7A7A7A7A7A7A",
"N 	c #A3A3A3A3A3A3",
"B 	c #818181818181",
"V 	c #5F5F5F5F5F5F",
"C 	c #7B7B7B7B7B7B",
"Z 	c #666666666666",
"A 	c #636363636363",
"S 	c #4A4AD2D2FFFF",
"D 	c #5A5AD6D6FFFF",
"F 	c #9696E5E5FFFF",
"G 	c #D6D6F3F3FCFC",
"H 	c #F5F5FAFAFDFD",
"J 	c #C8C8E2E2F6F6",
"K 	c #7B7BBBBBF1F1",
"L 	c #5B5B9191BFBF",
"P 	c #323242425151",
"I 	c #060606060606",
"U 	c #0A0A0A0A0A0A",
"Y 	c #040404040404",
"T 	c #2D2D2D2D2D2D",
"R 	c #777777777777",
"E 	c #6A6A6A6A6A6A",
"W 	c #606060606060",
"Q 	c #494949494949",
"! 	c #696969696969",
"~ 	c #878787878787",
"^ 	c #5E5ED7D7FFFF",
"/ 	c #9C9CE6E6FFFF",
"( 	c #DADAF5F5FEFE",
") 	c #F3F3FAFAFDFD",
"_ 	c #C3C3E0E0F6F6",
"` 	c #7B7BBABAEFEF",
"' 	c #57579191C2C2",
"] 	c #2B2B40405252",
"[ 	c #040405050606",
"{ 	c #070707070808",
"} 	c #6C6C6C6C6C6C",
"| 	c #939393939393",
" .	c #32328F8FAEAE",
"..	c #3F3FB4B4DADA",
"X.	c #5E5ECACAEEEE",
"o.	c #7B7BC8C8E1E1",
"O.	c #5353D1D1FBFB",
"+.	c #6161D8D8FFFF",
"@.	c #A3A3E8E8FFFF",
"#.	c #DFDFF7F7FFFF",
"$.	c #EEEEF9F9FDFD",
"%.	c #B8B8DDDDF6F6",
"&.	c #7171B0B0D9D9",
"*.	c #3B3B64648080",
"=.	c #ADADADADADAD",
"-.	c #3A3AA4A4C7C7",
";.	c #747464645E5E",
":.	c #646453534E4E",
">.	c #747479797A7A",
",.	c #909090909090",
"<.	c #8E8E8D8D8E8E",
"1.	c #7272B1B1C6C6",
"2.	c #5757B5B5D5D5",
"3.	c #68689292A0A0",
"4.	c #7E7E87878A8A",
"5.	c #4A4A9191BBBB",
"6.	c #7070C5C5E1E1",
"7.	c #BFBFA5A59D9D",
"8.	c #F5F5F5F5F5F5",
"9.	c #CCCCCCCCCCCC",
"0.	c #8C8C8C8C8A8A",
"q.	c #868686868585",
"w.	c #959595959797",
"e.	c #6C6C7B7B8080",
"r.	c #8A8AA1A1A6A6",
"t.	c #6F6F84848B8B",
"y.	c #3B3B69697878",
"u.	c #2C2C7E7E9999",
"i.	c #3C3CABABD0D0",
"p.	c #5454CECEF6F6",
"a.	c #4A4AA7A7F9F9",
"s.	c #7A7AA0A0B1B1",
"d.	c #FFFFFFFFFFFF",
"f.	c #F8F8F8F8F8F8",
"g.	c #D0D0D0D0D0D0",
"h.	c #777776767777",
"j.	c #4E4E4E4E4F4F",
"k.	c #959594949494",
"l.	c #C0C0B1B1AEAE",
"z.	c #5F5FC2C2E3E3",
"x.	c #5555D0D0F9F9",
"c.	c #D2D2D8D8DCDC",
"v.	c #CDCDF2F2FFFF",
"b.	c #2121AEAEDADA",
"n.	c #2F2FA2A2BABA",
"m.	c #8989C9C9CACA",
"M.	c #FFFFF4F4E0E0",
"N.	c #FFFFEFEFDFDF",
"B.	c #DEDEDDDDDCDC",
"V.	c #7F7F7F7F7F7F",
"C.	c #FCFCCDCDB1B1",
"Z.	c #5C5CC2C2E4E4",
"A.	c #CDCDF6F6FFFF",
"S.	c #00001010A0A0",
"D.	c #69699595CFCF",
"F.	c #4A4A8B8BCDCD",
"G.	c #00006C6CC1C1",
"H.	c #09098989BFBF",
"J.	c #ADADEEEEDCDC",
"K.	c #FCFCFFFFFFFF",
"L.	c #FFFFFFFFF5F5",
"P.	c #A4A4ACACB5B5",
"I.	c #4A4AA9A9FCFC",
"U.	c #00008585C6C6",
"Y.	c #FFFFE5E5F5F5",
"T.	c #FFFFFAFAF9F9",
"R.	c #8484B6B6F3F3",
"E.	c #00006161C3C3",
"W.	c #4C4CC2C2CFCF",
"Q.	c #7F7F7F7F7979",
"!.	c #FFFFEEEEEDED",
"~.	c #EDEDD0D0C6C6",
"^.	c #C3C3B6B6AFAF",
"/.	c #5E5EC6C6E9E9",
"(.	c #6767D2D2EFEF",
").	c #00002727AAAA",
"_.	c #31314E4EA9A9",
"`.	c #51515A5AA4A4",
"'.	c #9B9BA2A2C7C7",
"].	c #C0C0D8D8FAFA",
"[.	c #4B4BABABDDDD",
"{.	c #050542425D5D",
"}.	c #B8B8F7F7F5F5",
"|.	c #DFDFE9E9E6E6",
" X	c #FFFFFFFFD7D7",
".X	c #8181D7D7E8E8",
"XX	c #56568A8AACAC",
"oX	c #4B4BD2D2FFFF",
"OX	c #00005454C3C3",
"+X	c #96966969BCBC",
"@X	c #FFFFFFFFFDFD",
"#X	c #A9A9A4A4DEDE",
"$X	c #31315E5EBBBB",
"%X	c #0C0C51519E9E",
"&X	c #B9B9E7E7D4D4",
"*X	c #696974747C7C",
"=X	c #5E5E9292DBDB",
"-X	c #3B3BB2B2D1D1",
";X	c #7373CECEE7E7",
":X	c #2020D1D1FFFF",
">X	c #B8B8ACACB0B0",
",X	c #6B6BB4B4E1E1",
"<X	c #BABAC1C1B8B8",
"1X	c #FFFFFFFFFCFC",
"2X	c #76767B7BCCCC",
"3X	c #00003232B1B1",
"4X	c #212152526363",
"5X	c #FFFFFFFFF2F2",
"6X	c #A3A3D0D0F7F7",
"7X	c #F7F7FFFFFFFF",
"8X	c #FEFED0D0B3B3",
"9X	c #5454BEBEDDDD",
"0X	c #FFFFD3D3BCBC",
"qX	c #F7F7FCFCFFFF",
"wX	c #ADADACACAAAA",
"eX	c #FFFFFFFFF4F4",
"rX	c #FFFFEBEBD3D3",
"tX	c #313144447272",
"yX	c #00003D3DA1A1",
"uX	c #6060A8A8DADA",
"iX	c #F1F1FFFFFFFF",
"pX	c #FFFFFFFFC3C3",
"aX	c #5555CDCDFFFF",
"sX	c #F0F0D3D3C4C4",
"dX	c #F2F2EDEDF2F2",
"fX	c #E3E3EAEAEFEF",
"gX	c #ECECF5F5F6F6",
"hX	c #6B6B70706B6B",
"jX	c #73736C6C5C5C",
"kX	c #77778383C5C5",
"lX	c #7777CFCFF3F3",
"zX	c #7171FFFFFFFF",
"xX	c #76769F9FBEBE",
"cX	c #0B0B10101010",
"vX	c #B4B49D9D8484",
"bX	c #D9D9BBBBAEAE",
"nX	c #A9A99D9D8F8F",
"mX	c #55554D4D4141",
"MX	c #11110A0A0B0B",
"NX	c #62625E5E6767",
"BX	c #B6B6A3A38383",
"VX	c #808063635D5D",
"CX	c #7F7F3A3A2A2A",
"ZX	c #8A8A57573A3A",
"AX	c #4A4AABABFEFE",
"SX	c #40409E9ECBCB",
"DX	c #58587F7F9595",
"FX	c #70706C6C6767",
"GX	c #5A5A8C8CABAB",
"HX	c #37375E5E6D6D",
"JX	c #6868AEAEC1C1",
"KX	c #373779799292",
"LX	c #48489D9DBCBC",
"PX	c #3A3AA4A4CACA",
"IX	c #5454CDCDF7F7",
"UX	c #4A4AACACFFFF",
"YX	c #373740404343",
"TX	c #595989899898",
"RX	c #5454C9C9EFEF",
"EX	c #252569697F7F",
"WX	c #383838383838",
"QX	c #0B0B0B0B0B0B",
"!X	c #33333D3D4040",
"~X	c #565688889999",
"^X	c #5252C5C5EAEA",
"/X	c #989898989898",
"(X	c #3C3C3C3C3C3C",
")X	c #070707070707",
"_X	c #33333D3D4141",
"`X	c #505081819191",
"'X	c #282863637676",
"]X	c #111111111212",
"[X	c #959595959595",
"{X	c #828282828282",
"}X	c #050505050505",
"|X	c #2F2F39393C3C",
" o	c #4F4F80809191",
".o	c #4E4EC1C1E7E7",
"Xo	c #4848A6A6F7F7",
"oo	c #B3B3B3B3B3B3",
"Oo	c #5D5D5D5D5D5D",
"+o	c #3F3F3F3F3F3F",
"@o	c #616161616161",
"#o	c #404044444949",
"$o	c #3F3F42424646",
"%o	c #303032323535",
"&o	c #4C4C4C4C4C4C",
"*o	c #727272727272",
"=o	c #484848484848",
"-o	c #979797979797",
"                                                                ",
"                                .                               ",
"                        X o O + + @ # $                         ",
"                  % & * = - ;   : > , < , 1 $                   ",
"            2 3 4 5 6 7 8 9 0 q       $ 1 , < w > :             ",
"          e o 9 r t y u 5 i 8 8 p a s       % # @ < w d :       ",
"      f @ + g h j k l z x c v b n 8 7 m M s       % N B V C f   ",
"    Z A d %   h S S D F G H J K L P I U 8 Y T C s   # R E # W   ",
"    Q 0 ! ~ f h S S S S S ^ / ( ) _ ` ' ] [ { Y h } R > .   W   ",
"    W   s | R h  ...X.o.O.S S S +.@.#.$.%.&.*.h h =.        W   ",
"    W         h -.;.:.>.,.<.1.S S S S 2.3.4.5.h h           W   ",
"    W         h 6.7.8.9.0.q.w.e.r.t.y.u.i.p.a.h h           W   ",
"    W         h s.d.d.d.d.f.g.h.j.k.l.z.S x.a.h h           W   ",
"    W         h c.v.b.n.m.M.N.B.V.d.d.C.Z.x.a.h h           W   ",
"    W         h A.S.D.F.G.H.J.d.V.d.K.L.P.x.I.h h           W   ",
"    W         h U.Y.d.T.d.R.E.W.Q.d.!.~.^./.I.h h           W   ",
"    W         h (.d.)._.`.'.].[.{.}.|. X.XXXI.h h           W   ",
"    W         h oXOX+X@X#X$X%X&X*X=X-X;X:X>XI.h h           W   ",
"    W         h S ,Xd.<X1Xd.2X3X4X5Xd.6X7X8XI.h h           W   ",
"    W         h S 9X0XqXwXd.eXrXtXyXuXiXpXaXI.h h           W   ",
"    W         h S S h sXdXfXgXhXjXd.kXlXzXxXI.h h           W   ",
"    W         h S S S cXvXbXnXmXMXNXBXVXCXZXAXh h           W   ",
"    W         h S S S S SXDXFXGXHXJXKXLXPXIXUXh h           W   ",
"    W         h YXTXRXS S S S S EXS S S S x.UXh h           !   ",
"    W         s 0 WXQX!X~X^XS S EXS S S S x.UXh h       % /XA   ",
"    W @ # %         s C (X)X_X`X'XS S S S x.UX]Xh   $ [X+ B e   ",
"    $ d w < , # $         s {X(X}X|X o.oS x.Xoh h - + 3 oo      ",
"          $ > , = , > $         Oo{X+oQXWX@o#o$o%oo s           ",
"                $ # , < w > :   W     q M &o+o*o:               ",
"                      % # @ < w =o~ ~ , ! [X$                   ",
"                            % N -od d N %                       ",
"                                                                "};
