/* XPM */
static char *fluidtoPoly[] = {
/* width height num_colors chars_per_pixel */
"    32    32      256            2",
/* colors */
"`` c #c1c1c1",
"`. c #c1c1c1",
"`# c #dd0407",
"`a c #9c0608",
"`b c #e91e22",
"`c c #d8282c",
"`d c #d35b5d",
"`e c #7b4748",
"`f c #e8060e",
"`g c #e80d15",
"`h c #c40b10",
"`i c #6a060a",
"`j c #e7141d",
"`k c #5a0b0d",
"`l c #e8373d",
"`m c #996567",
"`n c #bdb1b2",
"`o c #db1427",
"`p c #fffafb",
"`q c #d9d5d6",
"`r c #c2bcbe",
"`s c #faf7f8",
"`t c #827479",
"`u c #c3b5bb",
"`v c #cdbfc5",
"`w c #e7dee2",
"`x c #8e898c",
"`y c #c4acbc",
"`z c #fdf6fd",
"`A c #d2cdd2",
"`B c #cac5ca",
"`C c #fffbff",
"`D c #fffdff",
"`E c #b3b1b3",
"`F c #b3abb5",
"`G c #9985a0",
"`H c #685371",
"`I c #f3eff5",
"`J c #c1bfc3",
"`K c #71687d",
"`L c #604594",
"`M c #484351",
"`N c #c4c1cb",
"`O c #9f9ba9",
"`P c #170947",
"`Q c #4e3f7e",
"`R c #867fa2",
"`S c #7a739d",
"`T c #0f006a",
"`U c #27188c",
"`V c #acabb2",
"`W c #c0bfc6",
"`X c #493ea7",
"`Y c #373071",
"`Z c #2d2b44",
"`0 c #140d6a",
"`1 c #c6c5d5",
"`2 c #020059",
"`3 c #0b0a2f",
"`4 c #191852",
"`5 c #8281c3",
"`6 c #040579",
"`7 c #b4b4bc",
"`8 c #bebec0",
".` c #d6d6d7",
".. c #c2c2c3",
".# c #181a75",
".a c #171d6c",
".b c #020845",
".c c #06179b",
".d c #1a2a9b",
".e c #7e7f86",
".f c #e3e5f1",
".g c #031155",
".h c #011873",
".i c #142b87",
".j c #111d4f",
".k c #2a48b2",
".l c #5a6aa3",
".m c #041b64",
".n c #082a9c",
".o c #143fc1",
".p c #183596",
".q c #022584",
".r c #193587",
".s c #52596c",
".t c #0a2876",
".u c #102d73",
".v c #0136a9",
".w c #132c62",
".x c #224693",
".y c #021945",
".z c #1253d5",
".A c #295ec9",
".B c #b7b8ba",
".C c #2a57a9",
".D c #042a66",
".E c #0c3c87",
".F c #184ba1",
".G c #6f91c7",
".H c #609af1",
".I c #9aa2ae",
".J c #002557",
".K c #0f3d7b",
".L c #457ecd",
".M c #bfc2c6",
".N c #0655b3",
".O c #5195ea",
".P c #468cd8",
".Q c #3a6da4",
".R c #59a5f7",
".S c #5898e1",
".T c #aecff5",
".U c #a4c0e0",
".V c #1869ba",
".W c #3478bc",
".X c #4688c9",
".Y c #88b6e4",
".Z c #bcc3ca",
".0 c #cacbcc",
".1 c #3d99ec",
".2 c #388ad5",
".3 c #04355f",
".4 c #62b5fe",
".5 c #3d8bc7",
".6 c #4a98d6",
".7 c #50a0de",
".8 c #63717c",
"#` c #2a87c6",
"#. c #f3faff",
"## c #509ecf",
"#a c #1894de",
"#b c #199ce4",
"#c c #2092d0",
"#d c #1e7cb2",
"#e c #3d9ed5",
"#f c #3f95c8",
"#g c #b7bec2",
"#h c #43a8de",
"#i c #8db5c9",
"#j c #a4b5be",
"#k c #31a4da",
"#l c #75bcdd",
"#m c #a3c5d5",
"#n c #45a3c9",
"#o c #92c6db",
"#p c #aebdc3",
"#q c #d5dadc",
"#r c #389ac0",
"#s c #58cbf7",
"#t c #4eb4da",
"#u c #68d1f9",
"#v c #7dc1db",
"#w c #8cd2ed",
"#x c #b7d2dc",
"#y c #daeaf0",
"#z c #5cb9d8",
"#A c #dbe4e7",
"#B c #76cee6",
"#C c #b7e7f4",
"#D c #00495c",
"#E c #54b3c9",
"#F c #67b7cc",
"#G c #c1d8de",
"#H c #93e5f6",
"#I c #68e4fc",
"#J c #58e2f6",
"#K c #73c4d1",
"#L c #f7feff",
"#M c #95d5dd",
"#N c #89c9ce",
"#O c #b8e0e4",
"#P c #96a0a1",
"#Q c #8ad5da",
"#R c #c9ebed",
"#S c #76fafe",
"#T c #b5cfd0",
"#U c #64feff",
"#V c #afdadb",
"#W c #c2fefd",
"#X c #bacfcf",
"#Y c #e5f9f9",
"#Z c #bec4c4",
"#0 c #fbffff",
"#1 c #dadcdc",
"#2 c #979898",
"#3 c #85d4cf",
"#4 c #c2c7c6",
"#5 c #b1cac4",
"#6 c #dff4ef",
"#7 c #c7cbca",
"#8 c #f9fffc",
"a` c #eceeed",
"a. c #bfc8c3",
"a# c #c2d0c7",
"aa c #cad8cf",
"ab c #e5e9e6",
"ac c #778178",
"ad c #bbc4bb",
"ae c #bfc5bf",
"af c #fcfffc",
"ag c #b5bfb4",
"ah c #d3e5cf",
"ai c #aab1a8",
"aj c #565955",
"ak c #c3d0be",
"al c #b1b5af",
"am c #a5aba1",
"an c #f8fdf4",
"ao c #848780",
"ap c #b6c4a0",
"aq c #fdfef9",
"ar c #75776c",
"as c #d3d3cb",
"at c #c1c1bd",
"au c #c3c3c1",
"av c #f2f2f1",
"aw c #cac9b4",
"ax c #deddd4",
"ay c #fffdf1",
"az c #9a9485",
"aA c #efe8da",
"aB c #cccac6",
"aC c #fffefc",
"aD c #c5c4c2",
"aE c #e4e0d9",
"aF c #f7f3ed",
"aG c #756959",
"aH c #756e66",
"aI c #666360",
"aJ c #b3aea9",
"aK c #ded5ce",
"aL c #f6ece5",
"aM c #a2a09f",
"aN c #d4c1bb",
"aO c #bfb9b7",
"aP c #e4c7bf",
"aQ c #411006",
"aR c #fdf4f2",
"aS c #caadaa",
"aT c #c4b9b8",
"aU c #d4c9c8",
"aV c #c8bebd",
"aW c #d0c0bf",
"aX c #e61008",
"aY c #692220",
"aZ c #c69b99",
"a0 c #c70906",
"a1 c #e50a08",
"a2 c #cf8c8b",
"a3 c #a89b9b",
"a4 c #c6c2c2",
"a5 c #bbbaba",
"a6 c #ffffff",
"a7 c #c4c4c4",
"a8 c #ffffff",
/* pixels */
"`````````Ba5`n`u`8aBaO`F`EaJaiag``.Bal`u````````````````````````",
"``````a5#1avab#qaE#8a`a#al`8`w`z`sa`aB`E````````````````````````",
"````a5ab#8af#8#0av#La`axas#A#L`D`C`sax#p.B``````````````````````",
"```B.0aCaqaCaCa6`CaRaE.``waFaC`D#0a`aE#X#jaT````````````````````",
"```n`w`z`I.f#A#x#1aLaRaFa`aRa6#Laqabax#X#iaO````````````````````",
"``#j#V#C#H#w#K#B#Q#K#o#A`pa6#8ayaL`waK#X#F.B`r``````````````````",
"#p#O#W#B#r#d#`#`#n#B#H#K#N#R#.#0aL`waA#y#z``````````````````````",
"#T#C#c.P.Y.T.T.Y.1.V.W#v#M#Q#M#O#C#R#6#H#w#g`r``#Z``````````````",
"#C#k.7#Laq#0`Dan`D#y#o.7.2.6#l#M#o#w#B#l`wa#.B````ae````````````",
"#M#eanaC#W#u#t#r#n#M#R#R#x.U.U.Y#w#C#G#.aL#mag``````````````````",
"#o#v#6#H#`#d.N.V.V.N.V#E#3#VabaR`p`z#LaRaE#o`r``````````````````",
"#o#Q#w.N.G.faqaq#Y.T.W.N.V#r#F#v#G#yahaa#m#m````````````````````",
"#5#B#e#iayaAaEaF`C`pay`w.U.L.V.W.G#iaa#m.G`R`EasaU``````````````",
"aN#i#e`w`w`Aas#1avav`qaTaUaK``ag`V.I`5`U.g.#`X`Q#2`A`waU````````",
"`8#j#lax`qasak`A#AaE`q#PacaMaO`O.l.A.c.n#c`6.1.k.q.u.l#p````````",
"```r#N`V.0.`as`1`A#q```O`t`t`H.C#b.N.C#U#U`6.R.4.2.z`6`Q`Bae````",
"```Z`B#P`ta4`BaW```Eamaoac`t.K.N.k.p###U.7`6.P.O.W.p`2`3.IaU````",
"`````M`8`xajac#2`V`x`tao`E`S#s.V`T.i#``A.k`U.r.x.E.t.g`3.8aU````",
"````aWaZ#Z#2.eaI`KaoaJ`N`y.Q#U.C.F#t.5.X#f.t.b.C.W.S.W.b`Z#4````",
"``aV`#`oa2```Wa4aD```````G#t#J.q.2#S#U#S#U.q.r.4.H.4.R.q`3#P````",
"```ia0a1`#`d`n```````````S#J#h.F#h#S#u#I#I.v.i.O.6.P.H.C.b.s`A`8",
"``az`ka0`#`#`caS````````.l#S.V.F#s#S#s#u#I.n.a.S.S.L.H.L.g`M#qaD",
"```r`t`ka0`f`f`daS`````A`Q#a.N.W#u#I#s#I#J.v.#.S.O.P.O.O.x`Zag`v",
"`````NaMaQ`a`#`#`jaZ``a2aw`6`6#h#S#S#J#I#I.v.m.S.R.7.4.R.k`PaGai",
"```````Wa3aQ`a`fa1`b`c`laP`R`6.v.1#s#S#S#U.N.#.4.H.L.C.h.b`MaG`O",
"````````#Z`xaQ`a`f`fa1`ba2ah`Y`6.v.d.E#``A.o`0.C.i.t.m.b`ZaHaI.e",
"`````````vaZ`c`faX`fa1`g`daA#2`3.D.C.t.i.p.i.b.J.y.J.b`ZaIaHaj.e",
"```````````e`ia0a0`ga1`g`gaZaE`M.m.5.X.Q.Q.w.b#D#D.3.j`MaH`Maj`O",
"``````````a3`i`k`k`i`aa0`h`dah`F`4.h.2.2#f.D.y.3.J.b`ZaIajaI#2#g",
"```````````v#4aJ`m`eaY`k`i`m`W`A`R.a.x.C.A.m`3.g`P`Zajar.e``````",
"```````````````Jae```WaM`m`e````aBap`x`S`L`Y`3`H`xazaJ`1`A``````",
"`````````````````````````````````````raV````aeaDaeauau``````````"
};
