/* XPM */
static char * resampleFluid_xpm[] = {
"32 32 255 2",
"  	c #C1C1C1C1C1C1",
". 	c #C3C3C2C2C0C0",
"X 	c #D3D3A6A69797",
"o 	c #B8B847474949",
"O 	c #A9A934342B2B",
"+ 	c #B4B461615555",
"@ 	c #AAAA6E6E6969",
"# 	c #BEBE9696A1A1",
"$ 	c #CACABDBDB4B4",
"% 	c #C2C2C1C1C0C0",
"& 	c #B1B192928989",
"* 	c #D2D24F4F5A5A",
"= 	c #A6A605051515",
"- 	c #898908080303",
"; 	c #939302020101",
": 	c #CECE73737070",
"> 	c #CACAC7C7D3D3",
", 	c #C3C3C2C2B8B8",
"< 	c #898981818B8B",
"1 	c #7D7D83838E8E",
"2 	c #838385858080",
"3 	c #858585858585",
"4 	c #828282828282",
"5 	c #C7C7C8C8C0C0",
"6 	c #CACACFCFC4C4",
"7 	c #CDCDCFCFCCCC",
"8 	c #D4D4D5D5D3D3",
"9 	c #DFDFDCDCDCDC",
"0 	c #D2D2C8C8C7C7",
"q 	c #999931312C2C",
"w 	c #A4A400000505",
"e 	c #B4B402020101",
"r 	c #B2B226260B0B",
"t 	c #A8A8A4A4B2B2",
"y 	c #D1D1CECED5D5",
"u 	c #DADAD7D7C8C8",
"i 	c #C7C7C7C7C7C7",
"p 	c #E6E6E8E8E7E7",
"a 	c #E4E4E6E6EDED",
"s 	c #D5D5E3E3E5E5",
"d 	c #E0E0EDEDEDED",
"f 	c #F9F9F8F8FEFE",
"g 	c #F6F6F1F1F5F5",
"h 	c #91916E6E7373",
"j 	c #BDBD02020202",
"k 	c #BABA1E1E1212",
"l 	c #E9E9E7E7D9D9",
"z 	c #F5F5F2F2E2E2",
"x 	c #E9E9E9E9EBEB",
"c 	c #FAFAF9F9F9F9",
"v 	c #FFFFFFFFFFFF",
"b 	c #FEFEF5F5F6F6",
"n 	c #F6F6FDFDF6F6",
"m 	c #F4F4F7F7EFEF",
"M 	c #F3F3EFEFF1F1",
"N 	c #FEFEFDFDF9F9",
"B 	c #FEFEF2F2F3F3",
"V 	c #ECECEDEDE5E5",
"C 	c #E4E4E5E5E2E2",
"Z 	c #D8D800000000",
"A 	c #D4D409090000",
"S 	c #D5D500000101",
"D 	c #FEFEFFFFFCFC",
"F 	c #F9F9FEFEFEFE",
"G 	c #F6F6F7F7F6F6",
"H 	c #FFFFFDFDFFFF",
"J 	c #FCFCFFFFFFFF",
"K 	c #FFFFF9F9FEFE",
"L 	c #FFFFFAFAF9F9",
"P 	c #F9F9F5F5F4F4",
"I 	c #F3F3F5F5F4F4",
"U 	c #E4E4D0D0D2D2",
"Y 	c #C9C904040101",
"T 	c #D4D401010B0B",
"R 	c #E8E8B1B1B1B1",
"E 	c #C2C2C2C2C2C2",
"W 	c #878784848181",
"Q 	c #DDDDDEDEEAEA",
"! 	c #EDEDEDEDECEC",
"~ 	c #FEFEFEFEF5F5",
"^ 	c #F3F3FFFFFFFF",
"/ 	c #FDFDF3F3FEFE",
"( 	c #F2F2F1F1F7F7",
") 	c #DBDB55556B6B",
"_ 	c #D6D600000606",
"` 	c #D8D803030000",
"' 	c #DDDD00000000",
"] 	c #EAEAF4F4DCDC",
"[ 	c #8F8F82827F7F",
"{ 	c #7B7B8A8A7C7C",
"} 	c #E8E8DFDFE5E5",
"| 	c #F8F8F5F5F0F0",
" .	c #EDEDA2A29595",
"..	c #EAEAEBEBF5F5",
"X.	c #E5E5F3F3E6E6",
"o.	c #DFDF05050000",
"O.	c #DADA00000000",
"+.	c #E0E000000101",
"@.	c #F4F4E7E7E6E6",
"#.	c #828286868585",
"$.	c #B7B7C5C5BABA",
"%.	c #CDCDECECE6E6",
"&.	c #B5B5D6D6E6E6",
"*.	c #E2E297979999",
"=.	c #ACACDADAE9E9",
"-.	c #AEAED2D2D8D8",
";.	c #CECEDCDCD8D8",
":.	c #FAFAF2F2F0F0",
">.	c #D9D901010808",
",.	c #DADA01010606",
"<.	c #F1F100000000",
"1.	c #CACAD4D4D8D8",
"2.	c #838384848A8A",
"3.	c #D8D8E1E1E2E2",
"4.	c #9696E6E6EEEE",
"5.	c #A7A7E7E7F7F7",
"6.	c #BCBCF3F3F6F6",
"7.	c #C8C8DEDEF1F1",
"8.	c #D9D903030404",
"9.	c #DDDD04040D0D",
"0.	c #B5B58E8E7C7C",
"q.	c #8C8CDBDBF0F0",
"w.	c #7070D0D0E6E6",
"e.	c #8181D1D1DFDF",
"r.	c #D4D4D9D9E4E4",
"t.	c #FEFEFEFEFCFC",
"y.	c #E4E400000000",
"u.	c #F2F2E6E6F3F3",
"i.	c #EBEBE3E3E2E2",
"p.	c #C5C5D7D7CBCB",
"a.	c #9696CFCFE5E5",
"s.	c #777782829494",
"d.	c #E5E5F9F9F7F7",
"f.	c #C5C5F1F1FAFA",
"g.	c #D0D030303434",
"h.	c #FCFC03030000",
"j.	c #DADA00000202",
"k.	c #A2A2D1D1DFDF",
"l.	c #A9A9E4E4EAEA",
"z.	c #C0C0EAEAFCFC",
"x.	c #D8D826260606",
"c.	c #FBFB4A4A5656",
"v.	c #FFFF04040606",
"b.	c #E1E124242222",
"n.	c #DFDFE6E6D4D4",
"m.	c #838382828585",
"M.	c #6F6F84849191",
"N.	c #A6A6D7D7F1F1",
"B.	c #4F4FA4A4D6D6",
"V.	c #21219696DBDB",
"C.	c #D3D304040000",
"Z.	c #FFFF03030000",
"A.	c #353567679797",
"S.	c #5B5BC4C4DCDC",
"D.	c #B4B480808E8E",
"F.	c #DDDD03030101",
"G.	c #DBDB03030000",
"H.	c #DEDE03030909",
"J.	c #9C9CDADAF4F4",
"K.	c #757582828686",
"L.	c #DADAF5F5FAFA",
"P.	c #7676B7B7E7E7",
"I.	c #BCBCDBDBDFDF",
"U.	c #FBFB0D0D0B0B",
"Y.	c #FDFD00000404",
"T.	c #E5E501010505",
"R.	c #2D2D69699999",
"E.	c #9E9ED4D4ECEC",
"W.	c #D8D8E6E6E9E9",
"Q.	c #DBDB0A0A0606",
"!.	c #FDFD00000C0C",
"~.	c #FDFD00000000",
"^.	c #FCFC08080000",
"/.	c #D2D20B0B0C0C",
"(.	c #575767677676",
").	c #7B7B85858787",
"_.	c #464662628888",
"`.	c #E0E072727B7B",
"'.	c #D2D201010000",
"].	c #DADA05050000",
"[.	c #D5D506060000",
"{.	c #8A8AC4C4E6E6",
"}.	c #8B8B63636666",
"|.	c #DCDC00001010",
" X	c #F0F0E6E6DADA",
".X	c #FAFADBDBD6D6",
"XX	c #DFDF00000C0C",
"oX	c #D0D0E9E9ECEC",
"OX	c #C6C6E8E8EDED",
"+X	c #FDFD08081010",
"@X	c #AFAFCBCBE0E0",
"#X	c #53535F5F7575",
"$X	c #FBFBF7F7EBEB",
"%X	c #D8D895959090",
"&X	c #D3D317171818",
"*X	c #ECECE2E2E9E9",
"=X	c #64647A7A8585",
"-X	c #8E8ED5D5E2E2",
";X	c #D8D8EEEEFAFA",
":X	c #C9C9F4F4EBEB",
">X	c #B7B718182C2C",
",X	c #DEDE02020202",
"<X	c #FAFA00000000",
"1X	c #444470709F9F",
"2X	c #DADA02020303",
"3X	c #0A0A7070C5C5",
"4X	c #DCDC00000202",
"5X	c #38386D6D8D8D",
"6X	c #B7B7E5E5EDED",
"7X	c #DCDCD9D9D4D4",
"8X	c #7A7A9898A7A7",
"9X	c #84848A8A8080",
"0X	c #54548383AFAF",
"qX	c #82829898ADAD",
"wX	c #78788A8A8C8C",
"eX	c #676761616F6F",
"rX	c #B4B4C6C6EAEA",
"tX	c #D3D302020707",
"yX	c #EDEDF3F3FFFF",
"uX	c #5C5CA8A8BFBF",
"iX	c #A3A3C5C5CECE",
"pX	c #323245455454",
"aX	c #DADA00000C0C",
"sX	c #D9D9D7D7D8D8",
"dX	c #B9B9B9B9BDBD",
"fX	c #BDBDC7C7C8C8",
"gX	c #404044445050",
"hX	c #AFAFB5B5B4B4",
"jX	c #B1B1ABABA5A5",
"kX	c #B3B3AFAFB0B0",
"lX	c #A7A74D4D5454",
"zX	c #C1C151513939",
"xX	c #A6A6A3A3A6A6",
"cX	c #9D9DA0A09E9E",
"vX	c #B1B1B3B3AFAF",
"bX	c #515144444646",
"nX	c #434342424343",
"mX	c #3C3C43434141",
"MX	c #4A4A47474B4B",
"NX	c #BABA02020C0C",
"BX	c #BFBFC4C4C0C0",
"VX	c #ABABB0B0AAAA",
"CX	c #9D9D95959A9A",
"ZX	c #97978D8D9696",
"AX	c #505042423D3D",
"SX	c #D7D735355C5C",
"DX	c #999904040F0F",
"FX	c #9E9E41413A3A",
"GX	c #565636364141",
"HX	c #B0B0A1A19898",
"JX	c #C3C3C1C1C6C6",
"KX	c #BBBBBEBECDCD",
"LX	c #979715151313",
"PX	c #C1C1C3C3C2C2",
"IX	c #47473E3E3F3F",
"                                                                ",
"                                                                ",
"                    X o O O + @ # $                             ",
"              % & * = - ; ; - ; - o : > , < 1 2 3               ",
"              4 5 6 7 8 9 0 & q - w e r t y 8 u i 3             ",
"            3 p a a s d a f g 9 h j e e k l z x p 8 4           ",
"        4 3 c v b n m M n N B V C O Z A S * D F M p 9 3         ",
"      4 x G v H J H K L P D I x C U j Y j T R J G x 9 3         ",
"    W Q ! H ~ ^ F F J ~ / ( d l a V ) _ ` ' ) ^ g ] s [         ",
"    { } | N K K J  .b b H m / ..z X  .o.O.S +.@.M l } #.        ",
"    [ l c @.%.&.*.Y =.-.;.@.:.N G P G >.A ,.<  .! } @.1.2.      ",
"  2.3.4.5.4.6.7.8.9.0.4.q.w.e.r.b t.z ) Z y.8.) u.a i.p.a.#.    ",
"s.1.4.L d.f.w.g.h._ j.k.l.z.z.w.e.x.c.x.v.O.v.b.l n.z %.w.m.    ",
"M.N.d.4.B.V.h Z C.Z.>.@ A.S.=.%.5.D.Y F.G.>.G.T H.b.*.z.J.1     ",
"K.L.l.V.P.I.U.O.Y.T.h.x.P.A.R.A.E.W.Q.' !.` ~.+.^./.U l.(.Q ).  ",
"2 L._.S.b `.'.v.].>.[._ X n f.{.R.A.}.j.|.' C.~.>.: a.(.(  XW   ",
"m.q._.L..XXX~.[.Z.Z !.G.].r.d oX..OXJ.x.~.+.Y.' +X@X(.f ( p 4   ",
"< #XE.$X%X&XT.y.S Y H.` T D.e.l.l.&.W  .` ~.' [  .~ ~ z *XQ {   ",
"=X-XE.;X:XS.V.>X~.,X<Xx.c.x.1XB.-Xl.e.@X'.2X!.g.c L P V @.7.2.  ",
"M.4.a.L.S.3X{.) >.4X[.* ;XN.B.R.R.5X{.6X0.S /.7XL.d u.p 3.8X9X  ",
"s.k.N.5.1X&.B *.Y.Z y.` t.L :.d.N.B.A.A.0Xo.%XoXOXI.&.8XqXI.wX  ",
"  s.q.eXrXz V u ].tX+.8  ./ yXV M @.3.-XP.}.R.A.B.uX8XiXr.9 pX  ",
"  K.=.#X&.X.*Xi.* ].aXC.) ! V sXdXu 9 u sXsXu > 7 > y fXpXgX    ",
"    K.w.a a l a R S e j.j U C y hXjXdXy 0 y 7 5 kXt pXpXpX%     ",
"    K.fXs ;.sXC l lX>.` +.zXC 8 hXxXcXvXjXbXnXnXmXMXcX%         ",
"      ).).dX9 9 9 U r NXj e $ BXVXCXZXCXAX& @ SX%               ",
"        % MX7 7 Q u sXr e w DXFXh xXMXGXHXFX) %                 ",
"      JX    nXvXKX$.6 0 @ o ; DX; ; LX- DX*   %                 ",
"              nXAXmXxX$.dXHX}.lX+ O q o X PXPX                  ",
"              %     nXbXIXmX  BX%     5                         ",
"                        % %                                     ",
"                                                                "};
