/* XPM */
static char * creatVolumeLight_xpm[] = {
"33 32 76 1",
" 	c #C1C1C1C1C1C1",
".	c #AEAEAEAEAEAE",
"X	c #535353535353",
"o	c #2B2B2B2B2B2B",
"O	c #242424242424",
"+	c #393939393939",
"@	c #3C3C3C3C3C3C",
"#	c #777775755F5F",
"$	c #AFAFAFAFAFAF",
"%	c #2D2D2D2D2D2D",
"&	c #5B5B58582D2D",
"*	c #A7A79D9D1C1C",
"=	c #62625B5B0505",
"-	c #222220200A0A",
";	c #92928A8A1E1E",
":	c #575753532828",
">	c #333333333333",
",	c #474747474747",
"<	c #282828282828",
"1	c #93938B8B1F1F",
"2	c #FFFFECEC0000",
"3	c #73736B6B0000",
"4	c #2E2E2A2A0000",
"5	c #B3B3A7A71111",
"6	c #3C3C3A3A2525",
"7	c #4A4A4A4A4A4A",
"8	c #2E2E2E2E2E2E",
"9	c #83837C7C2626",
"0	c #888880801515",
"q	c #262626262626",
"w	c #B1B1B1B1B1B1",
"e	c #797979797979",
"r	c #464644442E2E",
"t	c #5C5C55550000",
"y	c #62625D5D1D1D",
"u	c #747474747474",
"i	c #3D3D3D3D3D3D",
"p	c #919189891D1D",
"a	c #99998F8F0E0E",
"s	c #484848484848",
"d	c #222222222222",
"f	c #242423230D0D",
"g	c #454540400000",
"h	c #1C1C1A1A0505",
"j	c #3A3A37370C0C",
"k	c #3E3E3E3E3E3E",
"l	c #8A8A81811616",
"z	c #94948A8A0909",
"x	c #5E5E5C5C4747",
"c	c #808080808080",
"v	c #393938382222",
"b	c #EAEAD9D90202",
"n	c #474744441919",
"m	c #767676767676",
"M	c #B0B0B0B0B0B0",
"N	c #373737373737",
"B	c #85857D7D1212",
"V	c #7C7C73730808",
"C	c #414141414141",
"Z	c #272727272727",
"A	c #6B6B64640E0E",
"S	c #E8E8D7D70101",
"D	c #7B7B72720707",
"F	c #2A2A2A2A2A2A",
"G	c #3B3B3B3B3B3B",
"H	c #1E1E1E1E1E1E",
"J	c #7F7F77770B0B",
"K	c #494944440303",
"L	c #333330300505",
"P	c #7C7C74740808",
"I	c #31312F2F1A1A",
"U	c #838383838383",
"Y	c #5F5F5F5F5F5F",
"T	c #313131313131",
"R	c #5E5E5E5E5E5E",
"E	c #868686868686",
"                                 ",
"                                 ",
"                                 ",
"                                 ",
"                                 ",
"                                 ",
"                                 ",
"                                 ",
"                                 ",
"             .XoO+@#$            ",
"             %&*=-;:>,           ",
"            <1223422567          ",
"          .89222342220qw         ",
"          er2222t42222yu         ",
"          ip2222222222as         ",
"          dfgg42222ttghq         ",
"          +jt3322223gtg8         ",
"          kl2222222222zx         ",
"          cvb222t42222nm         ",
"          MNB22234222VCw         ",
"            ZAS23g22DF           ",
"             GHJKLPI>            ",
"             MUY@TRE             ",
"                                 ",
"                                 ",
"                                 ",
"                                 ",
"                                 ",
"                                 ",
"                                 ",
"                                 ",
"                                 "};
