/* XPM */
static char * connectEmitter_xpm[] = {
"32 32 160 2",
"  	c #C3C3C2C2C0C0",
". 	c #B8B8BABAB9B9",
"X 	c #BCBCB8B8B9B9",
"o 	c #BBBBAFAFB3B3",
"O 	c #C3C3B2B2B8B8",
"+ 	c #BCBCBDBDC2C2",
"@ 	c #CACAC9C9C7C7",
"# 	c #BEBEBABAB7B7",
"$ 	c #B1B1ACACB2B2",
"% 	c #B5B5B0B0B4B4",
"& 	c #B0B0B0B0A8A8",
"* 	c #AFAFB2B2A7A7",
"= 	c #B6B6BDBDB6B6",
"- 	c #C1C1C2C2BCBC",
"; 	c #B7B7B8B8BDBD",
": 	c #B1B1B2B2ADAD",
"> 	c #C2C2B7B7BDBD",
", 	c #C1C1C1C1C1C1",
"< 	c #C0C0BFBFBDBD",
"1 	c #000000000000",
"2 	c #FFFFFFFFFFFF",
"3 	c #BABAC3C3BEBE",
"4 	c #ABABBDBDC1C1",
"5 	c #B5B5CFCFD0D0",
"6 	c #BABAEAEAECEC",
"7 	c #9B9BD2D2D7D7",
"8 	c #8C8CC8C8E2E2",
"9 	c #19190E0EE6E6",
"0 	c #9797C2C2D5D5",
"q 	c #7F7F7A7ACDCD",
"w 	c #B1B1CACAC4C4",
"e 	c #D4D4C1C1BBBB",
"r 	c #BEBEC0C0BFBF",
"t 	c #BCBCBCBCBABA",
"y 	c #828282828181",
"u 	c #20201F1F1F1F",
"i 	c #242426262727",
"p 	c #7A7A79797878",
"a 	c #B2B2B1B1AFAF",
"s 	c #BABAB9B9BEBE",
"d 	c #B6B6B5B5B3B3",
"f 	c #666665656464",
"g 	c #0B0B0A0A0A0A",
"h 	c #33333C3C4444",
"j 	c #3B3B7676BFBF",
"k 	c #4C4CACACFEFE",
"l 	c #2B2B3B3B4848",
"z 	c #08080A0A0B0B",
"x 	c #383837373737",
"c 	c #737373737171",
"v 	c #A7A7A6A6A4A4",
"b 	c #3B3B3A3A4B4B",
"n 	c #0E0E0E0E0E0E",
"m 	c #3C3C52526565",
"M 	c #4A4A9797DADA",
"N 	c #4A4AACACFFFF",
"B 	c #4747A6A6F6F6",
"V 	c #38387878AEAE",
"C 	c #26263D3D5151",
"Z 	c #08080A0A0C0C",
"A 	c #323234343535",
"S 	c #8B8B8B8B8989",
"D 	c #434343434242",
"F 	c #222223232323",
"G 	c #5F5F7A7A9090",
"H 	c #4B4BA8A8F6F6",
"J 	c #4D4DB2B2FDFD",
"K 	c #5050BFBFF5F5",
"L 	c #38387B7BA7A7",
"P 	c #8080DEDEFEFE",
"I 	c #D4D4F1F1FAFA",
"U 	c #F8F8FCFCFDFD",
"Y 	c #CECEE4E4F6F6",
"T 	c #8888C5C5FAFA",
"R 	c #5252B9B9FAFA",
"E 	c #5050C8C8FBFB",
"W 	c #4848C6C6F7F7",
"Q 	c #40409696D5D5",
"! 	c #40408080C8C8",
"~ 	c #4A4AD2D2FFFF",
"^ 	c #5A5AD6D6FFFF",
"/ 	c #9696E5E5FFFF",
"( 	c #D6D6F2F2FCFC",
") 	c #F5F5FAFAFDFD",
"_ 	c #C8C8E2E2F5F5",
"` 	c #8383C3C3F9F9",
"' 	c #4D4DCDCDFCFC",
"] 	c #4848C0C0F5F5",
"[ 	c #41419191D3D3",
"{ 	c #3C3C7878C1C1",
"} 	c #44448282CFCF",
"| 	c #4B4B8D8DDCDC",
" .	c #5E5ED7D7FFFF",
"..	c #9C9CE6E6FFFF",
"X.	c #CFCFEEEEFAFA",
"o.	c #41418B8BD0D0",
"O.	c #3C3C7777C1C1",
"+.	c #43438181CECE",
"@.	c #49498A8ADADA",
"#.	c #4A4A8B8BDBDB",
"$.	c #4A4A8D8DDEDE",
"%.	c #C0C0C6C6C6C6",
"&.	c #3B3B8989D4D4",
"*.	c #42428080CCCC",
"=.	c #49498A8AD9D9",
"-.	c #43439B9BE9E9",
";.	c #4949CBCBFBFB",
":.	c #4343ABABE7E7",
">.	c #41419494E1E1",
",.	c #3B3B7A7AC3C3",
"<.	c #4A4A9393E3E3",
"1.	c #4949C7C7FAFA",
"2.	c #4545AAAAEBEB",
"3.	c #43439898E3E3",
"4.	c #4646A4A4F0F0",
"5.	c #4848BDBDF9F9",
"6.	c #3B3B7D7DC6C6",
"7.	c #4A4AA5A5F7F7",
"8.	c #4A4AAAAAFDFD",
"9.	c #4A4AA2A2F4F4",
"0.	c #4A4A9A9AEBEB",
"q.	c #4A4A9090E0E0",
"w.	c #4848C0C0F8F8",
"e.	c #4444A3A3EAEA",
"r.	c #43439696E4E4",
"t.	c #4646ABABF1F1",
"y.	c #4A4AC6C6FDFD",
"u.	c #4A4A9696E7E7",
"i.	c #4A4A9E9EF0F0",
"p.	c #4A4AA8A8FAFA",
"a.	c #4A4A9696E8E8",
"s.	c #181838385353",
"d.	c #4646A3A3EFEF",
"f.	c #4747B2B2F2F2",
"g.	c #4A4ACDCDFEFE",
"h.	c #4C4C8F8FDBDB",
"j.	c #4A4A60607777",
"k.	c #060606060606",
"l.	c #35353E3E4141",
"z.	c #585888889797",
"x.	c #5454C9C9EFEF",
"c.	c #49498D8DD9D9",
"v.	c #46465E5E7777",
"b.	c #424242424141",
"n.	c #A8A8A7A7A5A5",
"m.	c #B5B5B5B5B3B3",
"M.	c #33333C3C3F3F",
"N.	c #565687879898",
"B.	c #5252C4C4EAEA",
"V.	c #46468C8CD8D8",
"C.	c #3A3A52526A6A",
"Z.	c #494949494848",
"A.	c #A4A4A3A3A2A2",
"S.	c #3B3B3B3B3B3B",
"D.	c #070707070707",
"F.	c #33333D3D4040",
"G.	c #3E3E70709494",
"H.	c #545453535252",
"J.	c #ABABAAAAA8A8",
"K.	c #828281817F7F",
"        . X o O + @ # $ % & * = - ; : >         ,       , , , , ",
"  < < < < < 1 1 1 < < < < < < < < < < < < < < < < < < < < < < < ",
"  < < < 1 1 2 1 2 1 1 < < < < < < < < < < < < < < < < < < < < < ",
"  < < 1 2 2 2 1 2 2 2 1 < < < < < < < < < < < < < < < < < < < < ",
"  < < 1 2 2 2 1 2 2 2 1 < < < < < < < < < < < < < < < < < < < < ",
"3 < 1 2 2 2 1 1 1 2 2 2 1 < < < < < < < < < < < < < < < < < < < ",
"4 < 1 1 1 1 1 1 1 1 1 1 1 < < < < < < < < < < < < < < < < < < < ",
"5 < 1 2 2 2 1 1 1 2 2 2 1 < < < < < < < < < < < < < < < < < < < ",
"6 < < 1 2 2 2 1 2 2 2 1 < < < < < < < < < < < < < < < < < < < < ",
"7 < < 1 2 2 2 1 2 2 2 1 < < < < < < < < < < < < < < < < < < < < ",
"8 < < < 1 1 2 1 2 1 9 < < < < < < < < < < < < < < < < < < < < < ",
"0 < < < < < 1 1 1 < < 9 < < q < < < < < < < < < < < < < < < < < ",
"w < < < < < < < < < < < 9 q 9 < < < < < < < < < < < < < < < < < ",
"e < < < < < < < < < < < q 9 9 q < < < < < < < < < < < < < < < < ",
"r < < < < < < < < < < q 9 9 9 9 < < < t y u i p a < < < < < < < ",
"  < < < < < < < < < < < < q 9 9 s d f g h j k l z x c a < < < < ",
"  < < < < < < < < < < < < < < v b n m M N j N N B V C Z A S < < ",
"  < < < < < < < < < < < < < D F G H N N N j N N N N J K L 1 < < ",
"  < < < < < < < < < < < < < 1 P I U Y T N j N N R E W Q ! 1 < < ",
"  < < < < < < < < < < < < < 1 ~ ~ ^ / ( ) _ ` ' ] [ { } | 1 < < ",
"  < < < < < < < < < < < < < 1 ~ ~ ~ ~ ~  ...X.o.O.+.@.#.$.1 < < ",
"%.< < < < < < < < < < < < < 1 ~ ~ ~ ~ ~ ~ &.j *.=.#.#.#.$.1 < < ",
"  < < < < < < < < < < < < < 1 ~ ~ ~ ~ ~ ~ -.j #.#.#.#.#.$.1 < < ",
"  < < < < < < < < < < < < < 1 ~ ~ ~ ~ ;.:.>.,.<.#.#.#.#.$.1 < < ",
"  < < < < < < < < < < < < < 1 ~ ~ 1.2.3.4.5.6.7.8.9.0.q.$.1 < < ",
"  < < < < < < < < < < < < < 1 w.e.r.t.y.~ ~ j #.$.u.i.p.a.1 < < ",
"  < < < < < < < < < < < < < s.d.f.g.~ ~ ~ ~ j #.#.#.#.h.j.k.< < ",
"  < < < < < < < < < < < < < 1 l.z.x.~ ~ ~ ~ j #.#.c.v.n b.n.< < ",
"  < < < < < < < < < < < < < m.c x g M.N.B.~ j V.C.n Z.A.< < < < ",
"  < < < < < < < < < < < < < < < < m.p S.D.F.G.n H.J.< < < < < < ",
"3 < < < < < < < < < < < < < < < < < < < m.K.S.a < < < < < < < < ",
"  < < < < < < < < < < < < < < < < < < < < < < < < < < < < < < < "};
