/* XPM */
static char * fluidCacheAppend_xpm[] = {
"32 32 79 1",
"  	c #C1C1C1C1C1C1",
".	c #000000000000",
"X	c #858585858585",
"o	c #FFFFFFFFFFFF",
"O	c #D4D4D4D4D4D4",
"+	c #C4C4F0F0FFFF",
"@	c #DDDDF6F6FFFF",
"#	c #AAAAE7E7FDFD",
"$	c #212154546666",
"%	c #CBCBCBCBCBCB",
"&	c #CFCFCFCFCFCF",
"*	c #7575DCDCFEFE",
"=	c #7575DBDBFEFE",
"-	c #7575DADAFDFD",
";	c #7575D9D9FCFC",
":	c #6868D2D2FAFA",
">	c #151535354040",
",	c #C7C7C7C7C7C7",
"<	c #BFBFBFBFBFBF",
"1	c #BEBEBEBEBEBE",
"2	c #5353D3D3FEFE",
"3	c #5353D2D2FDFD",
"4	c #5353D1D1FCFC",
"5	c #5353D0D0FCFC",
"6	c #5252CCCCF9F9",
"7	c #5151C8C8F7F7",
"8	c #0B0B1C1C2222",
"9	c #B9B9B9B9B9B9",
"0	c #B8B8B8B8B8B8",
"q	c #5353D2D2FEFE",
"w	c #5353CFCFFBFB",
"e	c #5151C7C7F5F5",
"r	c #5050C2C2F1F1",
"t	c #04040A0A0C0C",
"y	c #B7B7B7B7B7B7",
"u	c #5353D1D1FDFD",
"i	c #5252CECEFBFB",
"p	c #5151CBCBF8F8",
"a	c #5050C1C1F1F1",
"s	c #4F4FBBBBECEC",
"d	c #000001010101",
"f	c #B6B6B6B6B6B6",
"g	c #5252D0D0FCFC",
"h	c #5252CECEFAFA",
"j	c #5252CBCBF9F9",
"k	c #5151C9C9F6F6",
"l	c #5050C5C5F4F4",
"z	c #5050BFBFEFEF",
"x	c #4F4FB8B8EBEB",
"c	c #4D4DB2B2E6E6",
"v	c #B5B5B5B5B5B5",
"b	c #5252CBCBF8F8",
"n	c #5252C9C9F7F7",
"m	c #5151C6C6F5F5",
"M	c #4F4FBDBDEEEE",
"N	c #4E4EB6B6E9E9",
"B	c #4D4DB1B1E4E4",
"V	c #4C4CA8A8E0E0",
"C	c #0B0B1B1B2121",
"Z	c #B4B4B4B4B4B4",
"A	c #5151C5C5F4F4",
"S	c #4F4FBEBEEFEF",
"D	c #4F4FB9B9EBEB",
"F	c #4E4EB3B3E7E7",
"G	c #4C4CADADE1E1",
"H	c #4C4CA6A6DEDE",
"J	c #4B4BA0A0D9D9",
"K	c #141432323E3E",
"L	c #B3B3B3B3B3B3",
"P	c #B2B2B2B2B2B2",
"I	c #4F4FBCBCEEEE",
"U	c #4E4EB8B8EAEA",
"Y	c #4D4DAFAFE4E4",
"T	c #4C4CA9A9E0E0",
"R	c #4B4BA3A3DADA",
"E	c #49499C9CD6D6",
"W	c #48489A9AD5D5",
"Q	c #20204D4D6060",
"!	c #B1B1B1B1B1B1",
"                                ",
"                                ",
"                                ",
"                                ",
"                                ",
"                                ",
"                                ",
"                                ",
"                                ",
" .....................XXXXXXXXX ",
" .oo.oo.oo.oo.oo.oo.ooXOOXOOXOX ",
" .....................XXXXXXXXX ",
" .+@@@@@@@#.+@@@@@@@#$%&&&&&&&X ",
" .#****=-;:.#****=-;:>,<<<<<11X ",
" .#22234567.#222345678,999.900X ",
" .#2q34w6er.#2q34w6ert,999.00yX ",
" .#3u5ipeas.#3u5ipeasd,9.....fX ",
" .#ghjklzxc.#ghjklzxct,900.ffvX ",
" .#bnmaMNBV.#bnmaMNBVC,00y.vZZX ",
" .#ArSDFGHJ.#ArSDFGHJK,yffvZLPX ",
" .#IUFYTREW.#IUFYTREWQ,fvZZPP!X ",
" .....................XXXXXXXXX ",
" .oo.oo.oo.oo.oo.oo.ooXOOXOOXOX ",
" .....................XXXXXXXXX ",
"                                ",
"                                ",
"                                ",
"                                ",
"                                ",
"                                ",
"                                ",
"                                "};
