/* XPM */
static char * getWebFluidExampls_xpm[] = {
"32 32 162 2",
"  	c #C1C1C1C1C1C1",
". 	c #C0C0BFBFBDBD",
"X 	c #000000000000",
"o 	c #25255A5AC6C6",
"O 	c #26265C5CC7C7",
"+ 	c #26265E5EC9C9",
"@ 	c #28286060CACA",
"# 	c #29296363CDCD",
"$ 	c #2B2B6767CFCF",
"% 	c #2C2C6969D1D1",
"& 	c #2D2D6D6DD4D4",
"* 	c #2F2F7171D6D6",
"= 	c #31317575D8D8",
"- 	c #32327979DBDB",
"; 	c #34347D7DDEDE",
": 	c #37378181E1E1",
"> 	c #38388585E4E4",
", 	c #3A3A8989E7E7",
"< 	c #3C3C8D8DEAEA",
"1 	c #3E3E9191ECEC",
"2 	c #3F3F9595EFEF",
"3 	c #41419999F1F1",
"4 	c #43439C9CF4F4",
"5 	c #4444A0A0F6F6",
"6 	c #4545A2A2F9F9",
"7 	c #4747A6A6FBFB",
"8 	c #4848A8A8FCFC",
"9 	c #4949AAAAFDFD",
"0 	c #D4D4D0D0C8C8",
"q 	c #AAAAAFAFB0B0",
"w 	c #70707E7E8D8D",
"e 	c #84848B8B8E8E",
"r 	c #474762624E4E",
"t 	c #909099999A9A",
"y 	c #2E2E40405454",
"u 	c #64646D6D7070",
"i 	c #6F6F6C6C7C7C",
"p 	c #B0B0ACACA6A6",
"a 	c #949490908989",
"s 	c #A4A4A1A19B9B",
"d 	c #FFFFFFFFFFFF",
"f 	c #6D6D6B6B6565",
"g 	c #45458787C7C7",
"h 	c #8686DFDFFEFE",
"j 	c #9B9BC8C8D8D8",
"k 	c #B0B0B6B6B9B9",
"l 	c #BDBDBDBDBDBD",
"z 	c #B9B9B9B9B8B8",
"x 	c #D7D7D6D6D6D6",
"c 	c #BFBFC0C0C0C0",
"v 	c #9696A5A5A9A9",
"b 	c #AAAAAAAAA9A9",
"n 	c #C9C9C9C9C9C9",
"m 	c #C4C4C4C4C5C5",
"M 	c #A0A0B6B6BDBD",
"N 	c #8989D6D6F5F5",
"B 	c #9A9AC8C8D8D8",
"V 	c #B8B8B9B9BABA",
"C 	c #F4F4F4F4F4F4",
"Z 	c #FBFBFBFBFCFC",
"A 	c #F5F5F5F5F4F4",
"S 	c #E7E7E7E7E5E5",
"D 	c #C0C0C2C2C2C2",
"F 	c #E8E8E8E8E9E9",
"G 	c #FFFFFFFFFDFD",
"H 	c #CCCCD0D0CCCC",
"J 	c #9A9AC0C0CFCF",
"K 	c #B2B2AAAAA7A7",
"L 	c #EDEDE4E4E2E2",
"P 	c #FFFFFFFFFCFC",
"I 	c #F8F8F7F7F0F0",
"U 	c #FFFFEFEFEAEA",
"Y 	c #F3F3E5E5DFDF",
"T 	c #F1F1EEEEEDED",
"R 	c #FAFAF7F7F6F6",
"E 	c #D2D2DBDBDADA",
"W 	c #9494B1B1BEBE",
"Q 	c #BBBBB9B9BBBB",
"! 	c #DFDFFAFAFAFA",
"~ 	c #7878CACAE2E2",
"^ 	c #4141A8A8C7C7",
"/ 	c #4B4BADADC6C6",
"( 	c #9292D2D2D9D9",
") 	c #C4C4EAEAE0E0",
"_ 	c #FCFCFDFDF5F5",
"` 	c #FFFFFDFDFDFD",
"' 	c #EAEADCDCDADA",
"] 	c #F0F0D8D8C9C9",
"[ 	c #6A6AAFAFC8C8",
"{ 	c #C4C4D5D5E5E5",
"} 	c #3D3D9898D8D8",
"| 	c #56569595CFCF",
" .	c #5E5EA2A2D8D8",
"..	c #6161A2A2DDDD",
"X.	c #27277D7DC9C9",
"o.	c #2A2A9A9AD0D0",
"O.	c #6D6DC9C9D4D4",
"+.	c #B4B4E8E8E6E6",
"@.	c #E5E5FDFDF7F7",
"#.	c #DFDFE7E7E4E4",
"$.	c #CFCFF0F0F3F3",
"%.	c #5E5EC0C0E8E8",
"&.	c #5555A6A6DCDC",
"*.	c #8383AAAADEDE",
"=.	c #EBEBF8F8FBFB",
"-.	c #D3D3F6F6F1F1",
";.	c #C7C7D1D1EBEB",
":.	c #A2A2C7C7EAEA",
">.	c #6B6BAAAAD8D8",
",.	c #54549E9ED6D6",
"<.	c #6060ACACD7D7",
"1.	c #28287979BEBE",
"2.	c #7E7E72726666",
"3.	c #8181C3C3DEDE",
"4.	c #E2E2ECECF4F4",
"5.	c #36368F8FCECE",
"6.	c #4A4A5757AEAE",
"7.	c #45455454ABAB",
"8.	c #30305C5CB2B2",
"9.	c #4E4E9595BABA",
"0.	c #9C9CC6C6D7D7",
"q.	c #D1D1EFEFE8E8",
"w.	c #E8E8F8F8F4F4",
"e.	c #94948A8A8484",
"r.	c #8F8FD7D7E6E6",
"t.	c #37378484CBCB",
"y.	c #7D7D8686CBCB",
"u.	c #FFFFFFFFF4F4",
"i.	c #C4C4DDDDF9F9",
"p.	c #80807F7FC8C8",
"a.	c #4E4E7979C6C6",
"s.	c #55559999C3C3",
"d.	c #1919AAAA1919",
"f.	c #8282B5B5D1D1",
"g.	c #6969B7B7E4E4",
"h.	c #FFFFFFFFECEC",
"j.	c #C3C3C7C7C6C6",
"k.	c #E4E4E0E0E0E0",
"l.	c #E6E6DFDFD2D2",
"z.	c #DFDFD2D2C1C1",
"x.	c #C2C2C3C3D5D5",
"c.	c #A4A4A9A9C8C8",
"v.	c #8787B3B3D6D6",
"b.	c #9696C2C2D0D0",
"n.	c #E7E7D7D7D1D1",
"m.	c #D9D9D9D9DADA",
"M.	c #CECECDCDCCCC",
"N.	c #ECECECECEDED",
"B.	c #C3C3C6C6C6C6",
"V.	c #606060606060",
"C.	c #898982827B7B",
"Z.	c #7D7DAEAEDADA",
"A.	c #9292B6B6CFCF",
"S.	c #5C5C63636767",
"D.	c #BCBCB9B9B8B8",
"F.	c #C9C9C5C5C7C7",
"G.	c #B6B6B3B3B4B4",
"H.	c #898989898585",
"J.	c #5A5A59595A5A",
"K.	c #6C6C6B6B6E6E",
"L.	c #F5F5F4F4F5F5",
"P.	c #FCFCFCFCFCFC",
"  . . . . . . . . . . . . . . . . . . . . . . . . . . . . . . . ",
"  . . . . . . . . . . . . . . . . . . . . . . . . . . . . . . . ",
"  . . . . . . . . . . . . . . . . . . . . . . . . . . . . . . . ",
"  . X X X X X X X X X X X X X X X X X X X X X X X X X X X X . . ",
"  . X o o O + @ # $ % & * = - ; : > , < 1 2 3 4 5 6 7 8 9 X . . ",
"  . X 0 0 0 0 0 0 0 0 0 0 0 0 0 0 0 0 0 0 0 0 0 0 0 q w e X . . ",
"  . X 0 r 0 0 r 0 0 r 0 0 r 0 0 0 0 0 0 0 0 0 0 0 0 t y u X . . ",
"  . X 0 r 0 0 r 0 0 i 0 0 i 0 0 0 0 0 0 0 0 0 0 0 0 p a s X . . ",
"  . X 0 0 0 0 d d d d d d d d d d d d d d 0 0 0 0 0 0 0 0 X . . ",
"  . X 0 0 0 0 0 0 0 0 0 0 0 0 0 0 0 0 0 0 0 0 0 0 0 0 0 0 X . . ",
"  . X 0 f f f f f f f f f f f f f f f f f f f f f f f f 0 X . . ",
"  . X 0 f d d d d d d d d d d d d d d d d d d d d d d d 0 X . . ",
"  . X 0 f d d d d g g g g g g g g g g g g g g g d d d d 0 X . . ",
"  . X 0 f d d d d g h j k l z x c v b n m M N g d d d d 0 X . . ",
"  . X 0 f d d d d g B V C Z A d S D F d G H J g d d d d 0 X . . ",
"  . X 0 f d d d d g K L d P I U Y T d d R E W g d d d d 0 X . . ",
"  . X 0 f d d d d g Q ! ~ ^ / ( ) _ d ` ' ] [ g d d d d 0 X . . ",
"  . X 0 f d d d d g { } |  ...X.o.O.+.@.#.$.%.g d d d d 0 X . . ",
"  . X 0 f d d d d g &.*.d =.-.;.:.>.,.<.1.2.2.2.d d d d 0 X . . ",
"  . X 0 f d d d d g 3.4.5.6.7.8.9.0.q.w.e.d d d d d d d 0 X . . ",
"  . X 0 f d d d d g r.t.y.u.d i.p.a.1.s.1.d d.d.d.d d d 0 X . . ",
"  . X 0 f d d d d g f.g.h.j.k.d l.z.x.c.2.d d.d.d.d d d 0 X . . ",
"  . X 0 f d d d d g v.b.n.m.M.N.B.V.C.e.2.d d.d.d.d d d 0 X . . ",
"  . X 0 f d d d d g Z.A.S.D.F.G.H.J.K.2.2.d d.d.d.d d d 0 X . . ",
"  . X 0 f d d d d g g g g g g g g g d d d d d.d.d.d d d d X . . ",
"  . X 0 f d d d d d d d d d L.P.d d d d.d.d.d.d.d.d.d.d.d X . . ",
"  . X 0 0 0 0 0 0 0 0 0 0 0 0 0 0 0 d d d.d.d.d.d.d.d.d d X . . ",
"  . X X X X X X X X X X X X X X X X X d d d.d.d.d.d.d d X X . . ",
"  . . . . . . . . . . . . . . . . . . . . d d.d.d.d . . . . . . ",
"  . . . . . . . . . . . . . . . . . . . . . d d.d . . . . . . . ",
"  . . . . . . . . . . . . . . . . . . . . . . d . . . . . . . . ",
"  . . . . . . . . . . . . . . . . . . . . . . . . . . . . . . . "};
