/* XPM */
static char * fluidCacheTruncate_xpm[] = {
"32 32 82 1",
" 	c #C1C1C1C1C1C1",
".	c #C0C0BFBFBDBD",
"X	c #C0C0C0C0C0C0",
"o	c #000000000000",
"O	c #858585858585",
"+	c #FFFFFFFFFFFF",
"@	c #D4D4D4D4D4D4",
"#	c #C4C4F0F0FFFF",
"$	c #DDDDF6F6FFFF",
"%	c #AAAAE7E7FDFD",
"&	c #212154546666",
"*	c #CBCBCBCBCBCB",
"=	c #CFCFCFCFCFCF",
"-	c #7575DCDCFEFE",
";	c #7575DBDBFEFE",
":	c #7575DADAFDFD",
">	c #7575D9D9FCFC",
",	c #6868D2D2FAFA",
"<	c #151535354040",
"1	c #C7C7C7C7C7C7",
"2	c #BFBFBFBFBFBF",
"3	c #BEBEBEBEBEBE",
"4	c #5353D3D3FEFE",
"5	c #5353D2D2FDFD",
"6	c #5353D1D1FCFC",
"7	c #5353D0D0FCFC",
"8	c #5252CCCCF9F9",
"9	c #5151C8C8F7F7",
"0	c #0B0B1C1C2222",
"q	c #B9B9B9B9B9B9",
"w	c #B8B8B8B8B8B8",
"e	c #5353D2D2FEFE",
"r	c #5353CFCFFBFB",
"t	c #5151C7C7F5F5",
"y	c #5050C2C2F1F1",
"u	c #04040A0A0C0C",
"i	c #B7B7B7B7B7B7",
"p	c #5353D1D1FDFD",
"a	c #5252CECEFBFB",
"s	c #5151CBCBF8F8",
"d	c #5050C1C1F1F1",
"f	c #4F4FBBBBECEC",
"g	c #000001010101",
"h	c #B6B6B6B6B6B6",
"j	c #5252D0D0FCFC",
"k	c #5252CECEFAFA",
"l	c #5252CBCBF9F9",
"z	c #5151C9C9F6F6",
"x	c #5050C5C5F4F4",
"c	c #5050BFBFEFEF",
"v	c #4F4FB8B8EBEB",
"b	c #4D4DB2B2E6E6",
"n	c #B5B5B5B5B5B5",
"m	c #5252CBCBF8F8",
"M	c #5252C9C9F7F7",
"N	c #5151C6C6F5F5",
"B	c #4F4FBDBDEEEE",
"V	c #4E4EB6B6E9E9",
"C	c #4D4DB1B1E4E4",
"Z	c #4C4CA8A8E0E0",
"A	c #0B0B1B1B2121",
"S	c #B4B4B4B4B4B4",
"D	c #5151C5C5F4F4",
"F	c #4F4FBEBEEFEF",
"G	c #4F4FB9B9EBEB",
"H	c #4E4EB3B3E7E7",
"J	c #4C4CADADE1E1",
"K	c #4C4CA6A6DEDE",
"L	c #4B4BA0A0D9D9",
"P	c #141432323E3E",
"I	c #B3B3B3B3B3B3",
"U	c #B2B2B2B2B2B2",
"Y	c #4F4FBCBCEEEE",
"T	c #4E4EB8B8EAEA",
"R	c #4D4DAFAFE4E4",
"E	c #4C4CA9A9E0E0",
"W	c #4B4BA3A3DADA",
"Q	c #49499C9CD6D6",
"!	c #48489A9AD5D5",
"~	c #20204D4D6060",
"^	c #B1B1B1B1B1B1",
"/	c #C3C3C2C2C0C0",
"                                ",
"                                ",
"                                ",
"                                ",
"                                ",
"                                ",
"                                ",
"                                ",
"......................XXXXXXXXXX",
".oooooooooooooooooooooOOOOOOOOOX",
".o++o++o++o++o++o++o++O@@O@@O@OX",
".oooooooooooooooooooooOOOOOOOOOX",
".o#$$$$$$$%o#$$$$$$$%&*=======OX",
".o%----;:>,o%----;:>,<12222233OX",
".o%44456789o%4445678901qqqqqwwOX",
".o%4e56r8tyo%4e56r8tyu1qqqqwwiOX",
".o%5p7astdfo%5p7astdfg1qqqwwihOX",
".o%jklzxcvbo%jklzxcvbu1qwwihhnOX",
".o%mMNdBVCZo%mMNdBVCZA1wwihnSSOX",
".o%DyFGHJKLo%DyFGHJKLP1ihhnSIUOX",
".o%YTHREWQ!o%YTHREWQ!~1hnSSUU^OX",
".oooooooooooooooooooooOOOOOOOOOX",
".o++o++o++o++o++o++o++O@@O@@O@OX",
".oooooooooooooooooooooOOOOOOOOOX",
"......................XXXXXXXXXX",
"                                ",
"                                ",
"                                ",
"                                ",
"                                ",
"                                ",
"                                "};
