/* XPM */
static char * fluids_xpm[] = {
"32 32 253 2",
"  	c #C1C1C1C1C1C1",
". 	c #C0C0C0C0C0C0",
"X 	c #BBBBBBBBBBBB",
"o 	c #BDBDBDBDBDBD",
"O 	c #BBBBBBBBBCBC",
"+ 	c #BEBEBDBDBEBE",
"@ 	c #BABABABABABA",
"# 	c #B6B6B6B6B6B6",
"$ 	c #B2B2B3B3B3B3",
"% 	c #B5B5B5B5B5B5",
"& 	c #B6B6B8B8B6B6",
"* 	c #B9B9B9B9B9B9",
"= 	c #BFBFBFBFBFBF",
"- 	c #C2C2C2C2C2C2",
"; 	c #C8C8C8C8C7C7",
": 	c #CBCBCBCBCBCB",
"> 	c #C4C4C4C4C4C4",
", 	c #C4C4C6C6C5C5",
"< 	c #CECED0D0D0D0",
"1 	c #D9D9D8D8D8D8",
"2 	c #D7D7D7D7D7D7",
"3 	c #D4D4D3D3D3D3",
"4 	c #D6D6D6D6D5D5",
"5 	c #DFDFE0E0DEDE",
"6 	c #E8E8E9E9E7E7",
"7 	c #CECECECECDCD",
"8 	c #D5D5D5D5D5D5",
"9 	c #E2E2E2E2E1E1",
"0 	c #E5E5E5E5E4E4",
"q 	c #DBDBDBDBD7D7",
"w 	c #C8C8C8C8C5C5",
"e 	c #B8B8B8B8B6B6",
"r 	c #C7C7C7C7C7C7",
"t 	c #DBDBDBDBDADA",
"y 	c #EFEFEFEFEEEE",
"u 	c #FBFBFCFCFBFB",
"i 	c #FAFAFAFAFAFA",
"p 	c #F6F6F6F6F6F6",
"a 	c #ECECECECEBEB",
"s 	c #EAEAEAEAE9E9",
"d 	c #F2F2F1F1F0F0",
"f 	c #FBFBFCFCFCFC",
"g 	c #DEDEDDDDDDDD",
"h 	c #D2D2D2D2D1D1",
"j 	c #DFDFDFDFDFDF",
"k 	c #F1F1F1F1F0F0",
"l 	c #FCFCFCFCFBFB",
"z 	c #F5F5F5F5F2F2",
"x 	c #C7C7C8C8C4C4",
"c 	c #DBDBD9D9DADA",
"v 	c #FEFEFEFEFEFE",
"b 	c #FFFFFFFFFFFF",
"n 	c #FBFBFBFBFAFA",
"m 	c #EFEFEFEFECEC",
"M 	c #E3E3E3E3DFDF",
"N 	c #B7B7BDBDC0C0",
"B 	c #B9B9BABAB9B9",
"V 	c #FDFDFCFCFDFD",
"C 	c #F8F8F9F9F9F9",
"Z 	c #F3F3F3F3F2F2",
"A 	c #EDEDEDEDEBEB",
"S 	c #EDEDEEEEECEC",
"D 	c #CDCDD6D6D7D7",
"F 	c #AEAECACAD1D1",
"G 	c #AFAFB5B5B9B9",
"H 	c #F1F1F3F3F3F3",
"J 	c #EFEFF0F0EEEE",
"K 	c #F0F0F0F0EDED",
"L 	c #EEEEEDEDEDED",
"P 	c #E6E6E6E6E6E6",
"I 	c #E7E7E8E8E6E6",
"U 	c #DFDFDFDFDBDB",
"Y 	c #D3D3D5D5D2D2",
"T 	c #9898BABAC6C6",
"R 	c #E6E6EAEAEDED",
"E 	c #D9D9E8E8EEEE",
"W 	c #BEBEDFDFE6E6",
"Q 	c #A8A8D3D3DEDE",
"! 	c #A5A5D0D0D9D9",
"~ 	c #9A9ACBCBD8D8",
"^ 	c #8B8BC3C3D6D6",
"/ 	c #9F9FCBCBD4D4",
"( 	c #BCBCCFCFD4D4",
") 	c #D8D8DEDEE0E0",
"_ 	c #E5E5E5E5E3E3",
"` 	c #F0F0EFEFEFEF",
"' 	c #DCDCDBDBD9D9",
"] 	c #B3B3C8C8CCCC",
"[ 	c #AEAEB1B1B4B4",
"{ 	c #9595D2D2E3E3",
"} 	c #9A9ADEDEF2F2",
"| 	c #8E8EE1E1F7F7",
" .	c #9595DBDBECEC",
"..	c #8383D1D1E4E4",
"X.	c #7A7ACACAE2E2",
"o.	c #8686CCCCDCDC",
"O.	c #6F6FC3C3DBDB",
"+.	c #8383C8C8D5D5",
"@.	c #B0B0D1D1DADA",
"#.	c #E1E1E7E7E5E5",
"$.	c #F3F3F2F2F1F1",
"%.	c #F4F4F2F2F2F2",
"&.	c #7B7BC1C1D5D5",
"*.	c #A1A1AAAAB4B4",
"=.	c #A6A6C2C2CCCC",
"-.	c #9C9CD8D8E9E9",
";.	c #CBCBE9E9F5F5",
":.	c #B8B8E6E6F2F2",
">.	c #6A6AB8B8D8D8",
",.	c #5454A9A9CFCF",
"<.	c #7D7DCACADCDC",
"1.	c #B4B4D6D6E0E0",
"2.	c #DDDDEBEBEEEE",
"3.	c #F4F4F8F8F7F7",
"4.	c #DBDBDBDBD9D9",
"5.	c #7575BABAD6D6",
"6.	c #C0C0BEBEBFBF",
"7.	c #BABAC2C2C3C3",
"8.	c #5454ABABD8D8",
"9.	c #49499A9AD2D2",
"0.	c #55559F9FD5D5",
"q.	c #3C3C8989C9C9",
"w.	c #8989CBCBE2E2",
"e.	c #8B8BCCCCDCDC",
"r.	c #D4D4EAEAF3F3",
"t.	c #E7E7F0F0F3F3",
"y.	c #ACACE0E0EEEE",
"u.	c #B4B4DFDFE5E5",
"i.	c #6868A8A8DDDD",
"p.	c #9999D3D3E9E9",
"a.	c #BFBFDFDFF3F3",
"s.	c #D9D9EEEEF8F8",
"d.	c #B8B8DCDCF0F0",
"f.	c #9999CBCBE7E7",
"g.	c #3B3B8181D0D0",
"h.	c #2E2E7D7DCACA",
"j.	c #9898D1D1DEDE",
"k.	c #9494D6D6E8E8",
"l.	c #A0A0D2D2E3E3",
"z.	c #B0B0B9B9BDBD",
"x.	c #A1A1DEDEEEEE",
"c.	c #4B4BA7A7D5D5",
"v.	c #F0F0F6F6F9F9",
"b.	c #E3E3EFEFF5F5",
"n.	c #C9C9E2E2EBEB",
"m.	c #7777B6B6E0E0",
"M.	c #42429797C5C5",
"N.	c #A5A5D9D9E4E4",
"B.	c #CFCFDDDDE4E4",
"V.	c #D3D3D6D6D6D6",
"C.	c #A5A5BABAC2C2",
"Z.	c #B7B7DFDFECEC",
"A.	c #7373C5C5DFDF",
"S.	c #7676AAAAD8D8",
"D.	c #9C9CC0C0CCCC",
"F.	c #3A3A8B8BC0C0",
"G.	c #8282C6C6DADA",
"H.	c #9090C6C6D9D9",
"J.	c #D3D3E2E2E5E5",
"K.	c #F8F8F9F9FAFA",
"L.	c #F6F6F7F7F9F9",
"P.	c #EDEDEBEBEDED",
"I.	c #DEDEDDDDDEDE",
"U.	c #9292BBBBD3D3",
"Y.	c #7E7EC4C4DEDE",
"T.	c #8888C6C6DDDD",
"R.	c #5858B3B3D9D9",
"E.	c #42428181BFBF",
"W.	c #50508B8BCCCC",
"Q.	c #2D2D7474B9B9",
"!.	c #6363B2B2C7C7",
"~.	c #C1C1C1C1C0C0",
"^.	c #B8B8CCCCE1E1",
"/.	c #D4D4E3E3EAEA",
"(.	c #B5B5D6D6EEEE",
").	c #8888B9B9E0E0",
"_.	c #27276262B8B8",
"`.	c #6262ABABCFCF",
"'.	c #8181C5C5D2D2",
"].	c #8D8DCACAD3D3",
"[.	c #9393C5C5D6D6",
"{.	c #DCDCDEDEDEDE",
"}.	c #8686B3B3D5D5",
"|.	c #5F5F9898C4C4",
" X	c #8787BEBECECE",
".X	c #979796969797",
"XX	c #C4C4C4C4C3C3",
"oX	c #DCDCDCDCDCDC",
"OX	c #E8E8E7E7E7E7",
"+X	c #D1D1D3D3D4D4",
"@X	c #C6C6CDCDD1D1",
"#X	c #7A7AABABCACA",
"$X	c #54548080BBBB",
"%X	c #8888ABABC6C6",
"&X	c #777777777878",
"*X	c #BCBCBEBEBEBE",
"=X	c #D2D2D8D8DCDC",
"-X	c #D7D7D5D5D6D6",
";X	c #D6D6D3D3D4D4",
":X	c #EDEDECECEDED",
">X	c #ABABABABACAC",
",X	c #BABAB9B9B9B9",
"<X	c #BEBEBCBCBCBC",
"1X	c #9D9DA7A7B1B1",
"2X	c #A4A4A8A8AAAA",
"3X	c #9A9A9E9EA5A5",
"4X	c #868686868888",
"5X	c #909090908F8F",
"6X	c #AFAFAFAFAFAF",
"7X	c #D6D6D4D4D4D4",
"8X	c #E1E1E0E0E0E0",
"9X	c #E4E4E2E2E4E4",
"0X	c #D4D4D4D4D6D6",
"qX	c #BBBBBCBCBBBB",
"wX	c #9E9E9D9D9D9D",
"eX	c #A1A1A1A1A2A2",
"rX	c #7C7C7F7F8181",
"tX	c #797979797A7A",
"yX	c #717171717171",
"uX	c #8D8D8E8E8D8D",
"iX	c #858584848585",
"pX	c #919191919090",
"aX	c #919191919393",
"sX	c #8A8A8B8B8C8C",
"dX	c #818180808181",
"fX	c #757575757575",
"gX	c #A5A5A6A6A5A5",
"hX	c #C2C2C2C2C1C1",
"jX	c #C3C3C3C3C3C3",
"kX	c #CACACACAC9C9",
"lX	c #C6C6C6C6C6C6",
"zX	c #A8A8A7A7A6A6",
"xX	c #7B7B7A7A7B7B",
"cX	c #747472727474",
"vX	c #7C7C7B7B7E7E",
"bX	c #787876767A7A",
"nX	c #C4C4C3C3C2C2",
"mX	c #A5A5A7A7A8A8",
"MX	c #B1B1B4B4B2B2",
"NX	c #B5B5B2B2B2B2",
"BX	c #979799999797",
"VX	c #585859595858",
"CX	c #626263636464",
"ZX	c #C1C1C1C1C2C2",
"AX	c #9F9FA1A19F9F",
"SX	c #BDBDBEBEBDBD",
"DX	c #C1C1C2C2C1C1",
"FX	c #B8B8BABABBBB",
"GX	c #666665656666",
"HX	c #757578787878",
"JX	c #999999999999",
"KX	c #898989898A8A",
"LX	c #BCBCBBBBBBBB",
"                                                                ",
"                  . X X o o X O .                               ",
"            . + @ # $ % & * # # X + o X * * @ * * @ =           ",
"          o @ o o o + - ; : > X % % % # X   , > o # # +         ",
"      - o - < 1 1 2 3 4 5 6 5 7 = * X , 8 9 0 9 q w e & .       ",
"    . O r t y u i p a s d f y g h : < j k u l z 6 q x & O       ",
"  . * = c k v b b b n z z p a 5 1 2 j y v b b u m M < N B       ",
"  + & : 0 i b b b b V C Z A 0 g t 9 A C b b b u S M D F G =     ",
"  O @ 3 a u V v f H S J K L s P P s k n b b b p I U Y F T e     ",
"  & o 1 R E W Q ! ~ ^ / ( ) _ a ` k Z n v b n y _ ' Y ] T [     ",
"  % ] { } | }  ...X...o.X.O.+.@.#.$.p i V n %.s 9 q 3 ] &.*.    ",
"- =.-.;.:.-.>.,.,.,.,.>.<.{ { X.<.1.2.3.f C S 9 4.t M 1.5.T 6.. ",
"7.~ :...8.9.9.9.0.0.9.q.q.,.&.{ w.<.e.-.:.r.t.6 0 s 2.y.w.=.* O ",
"=.u.X.9.i.p.a.s.s.;.d.f.i.g.h.9.5.j.Q j.{ k. .} y.:.y.p.l.( z.X ",
"! x.c.i.r.v v v.b.t.t.2.E n.p.m.0.M.9.>.~ 1.u.N.N.p.w.f.B.V.C.O ",
"Q X.8.Z.3.s.:.|  ...A.O.o.l.1.Q @.f.m.S.i.i.m.f.l.f.d.E 0 D D.+ ",
"Q A.m.r.;.:.x.A.M.M.F.F.M.,.>.G.o.H.@.J.2.E E b.v.K.L.P.I.( U.= ",
"~ Y.T.Z.x.R.q.E.E.E.W.W.E.Q.Q.M.!.&.5.^ @.B.R %.L.C Z _ 2 @.U.~.",
"/ G.G.N.c.h.S.^./.E r.;.(.).W._._.F.`.'.].[./ 1.n./.) D @.^ =.  ",
"] ^ G.X.q.U.{.j 9 I y p L.t./.1.}.W.E.Q.E.|. X/ ! / ~ ^ 5.U..XO ",
"XXD.A.8.}.j g c 4.oX9 L Z P.OX{.+X@X=.#X|.$X$X$X|.#X#X%XC.[ &X  ",
"- *X X,.[.=Xc -X3 ;Xt OX:X0 oXr >X,X<X,XG z.[ 1X1X*.2X3X4X5X6X  ",
"  *XT 5.( V.V.3 < 7 7X8X9Xg 0XqXwX.XeX>X6X[ 2XeX5X4XrXtXyXuX>   ",
"  *XC. X] , : < 7 : 7 ;X1 8 7 ,X.X4XiXpXaXsXdXtXfXyXfXiXgXhXjX  ",
"  ~.7.D.C.2X*Xr kXw r kXkXlX* zXuXxXcXvXvXbXfX&XtXiX$ - nX> -   ",
"    hX7.=.rXmXMX+ 6.6.<X@ NXzXBX4XdXVXCXcXyXxXpXzX,XZX  - -   = ",
"      - - N CXsXwXAX>X6X>XwX.X5XiXvX  r O * X SX. DXDX      = @ ",
"  ~.~.~.~.DXFXGXHXyXsXJX.XKXuX5XeXLX> jX- - -                   ",
"                * 5XxXtXiXJX6X* > jX-                           ",
"      . . . . . . - - jXlXr lX, jX-                             ",
".       . . ~.    ~.. ~.- - - -                                 ",
". . ~.~.        ~.. .                                           "};
