/* XPM */
static char * procduraltoGrid_xpm[] = {
"32 32 255 2",
"  	c #C1C1C1C1C1C1",
". 	c #C0C0BFBFBDBD",
"X 	c #0E0E00000000",
"o 	c #020207070F0F",
"O 	c #000003030000",
"+ 	c #080800000000",
"@ 	c #050502020000",
"# 	c #000004040E0E",
"$ 	c #030301010000",
"% 	c #BABAC1C1BDBD",
"& 	c #1F1F20202424",
"* 	c #060623233636",
"= 	c #050525252525",
"- 	c #0A0A28282A2A",
"; 	c #060629292222",
": 	c #070719193535",
"> 	c #232319193232",
", 	c #CBCBC0C0C8C8",
"< 	c #111101010202",
"1 	c #00000A0A1414",
"2 	c #000003030505",
"3 	c #000001010202",
"4 	c #000001010D0D",
"5 	c #000004041A1A",
"6 	c #080806061111",
"7 	c #27275050A2A2",
"8 	c #2A2A5A5ABDBD",
"9 	c #37375757C1C1",
"0 	c #23235858C5C5",
"q 	c #2E2E5656B6B6",
"w 	c #B6B6C5C5C6C6",
"e 	c #5050B1B1F8F8",
"r 	c #4949AFAFFFFF",
"t 	c #4343ACACFFFF",
"y 	c #3E3EB2B2FFFF",
"u 	c #4545AEAEF9F9",
"i 	c #111123233D3D",
"p 	c #B2B2CACABBBB",
"a 	c #000007070101",
"s 	c #4949D5D5E9E9",
"d 	c #5151D7D7FCFC",
"f 	c #5656D5D5FFFF",
"g 	c #5F5FD3D3FCFC",
"h 	c #5757C4C4EFEF",
"j 	c #00000D0D0D0D",
"k 	c #000004040000",
"l 	c #21215E5EBBBB",
"z 	c #17176363D1D1",
"x 	c #1A1A5959C9C9",
"c 	c #1D1D5555CCCC",
"v 	c #31315D5DBBBB",
"b 	c #0B0B00000404",
"n 	c #0B0B20203939",
"m 	c #4848ADADFFFF",
"M 	c #4545AEAEFFFF",
"N 	c #4848ABABFFFF",
"B 	c #4242B3B3FFFF",
"V 	c #4949AEAEF9F9",
"C 	c #C7C7C2C2B7B7",
"Z 	c #5B5BDDDDFFFF",
"A 	c #5353D3D3FBFB",
"S 	c #5252CFCFF2F2",
"D 	c #4A4AD4D4FFFF",
"F 	c #070700000000",
"G 	c #2B2B5959C1C1",
"H 	c #1C1C5D5DCBCB",
"J 	c #1F1F5C5CD0D0",
"K 	c #25255757BCBC",
"L 	c #BEBEC4C4C1C1",
"P 	c #10101F1F3434",
"I 	c #4545B2B2FFFF",
"U 	c #4242B2B2FCFC",
"Y 	c #4040B1B1FFFF",
"T 	c #4141B3B3FCFC",
"R 	c #4C4CADADFDFD",
"E 	c #14141B1B3838",
"W 	c #B6B6C5C5BBBB",
"Q 	c #000008080303",
"! 	c #4E4ECFCFF6F6",
"~ 	c #5151D6D6FFFF",
"^ 	c #4E4ED7D7FBFB",
"/ 	c #5858D0D0FBFB",
"( 	c #5656D1D1FDFD",
") 	c #28285A5ACBCB",
"_ 	c #1F1F5B5BC9C9",
"` 	c #23235757CDCD",
"' 	c #1B1B6262BDBD",
"] 	c #1D1D5E5EC3C3",
"[ 	c #070700000707",
"{ 	c #B4B4C2C2CFCF",
"} 	c #0E0E24242B2B",
"| 	c #4A4AACACFFFF",
" .	c #4C4CB1B1FDFD",
"..	c #0C0C1B1B2C2C",
"X.	c #C0C0C2C2C1C1",
"o.	c #4D4DD1D1FFFF",
"O.	c #4E4ED7D7FDFD",
"+.	c #5151D1D1FFFF",
"@.	c #4848D3D3FAFA",
"#.	c #010106060A0A",
"$.	c #2B2B5757D3D3",
"%.	c #25255A5AC1C1",
"&.	c #26265D5DB8B8",
"*.	c #000000000707",
"=.	c #4C4CA7A7FBFB",
"-.	c #4545B5B5FFFF",
";.	c #4343ADADF4F4",
":.	c #4040AEAEFEFE",
">.	c #060629293D3D",
",.	c #5959C9C9F9F9",
"<.	c #5B5BD5D5FAFA",
"1.	c #5B5BC6C6F0F0",
"2.	c #050500000808",
"3.	c #000000000404",
"4.	c #060602020000",
"5.	c #B2B2CACAB2B2",
"6.	c #19191F1F3535",
"7.	c #13131B1B3232",
"8.	c #181812123434",
"9.	c #0C0C25254242",
"0.	c #BEBEB5B5B8B8",
"q.	c #090901010D0D",
"w.	c #00000A0A0000",
"e.	c #050501010E0E",
"r.	c #0B0B00000000",
"t.	c #B7B7C0C0C2C2",
"y.	c #C8C8CACAC4C4",
"u.	c #BDBDBBBBC5C5",
"i.	c #BBBBC4C4CBCB",
"p.	c #BCBCC9C9B5B5",
"a.	c #CACAC5C5C0C0",
"s.	c #C8C8BEBEC5C5",
"d.	c #B4B4D2D2B8B8",
"f.	c #C5C5C8C8C3C3",
"g.	c #C1C1C1C1C3C3",
"h.	c #C5C5B4B4ADAD",
"j.	c #D0D0C9C9D0D0",
"k.	c #C0C0C9C9B6B6",
"l.	c #C1C1BEBEB4B4",
"z.	c #C2C2BCBCC4C4",
"x.	c #C2C2C5C5D2D2",
"c.	c #BDBDC7C7C7C7",
"v.	c #19192A2A3030",
"b.	c #0F0F24243939",
"n.	c #0E0E23233A3A",
"m.	c #C2C2C0C0C3C3",
"M.	c #010100000909",
"N.	c #000005050303",
"B.	c #030300000505",
"V.	c #060604040000",
"C.	c #090903030303",
"Z.	c #020200000B0B",
"A.	c #000009090000",
"S.	c #050500000404",
"D.	c #31315858ABAB",
"F.	c #26265252C1C1",
"G.	c #2E2E5F5FC6C6",
"H.	c #C9C9BDBDBDBD",
"J.	c #4F4FA8A8FFFF",
"K.	c #4242B0B0FFFF",
"L.	c #000006060606",
"P.	c #4D4DD5D5F6F6",
"I.	c #5050D6D6F9F9",
"U.	c #4A4AD1D1FFFF",
"Y.	c #6161CACAFEFE",
"T.	c #13136161C6C6",
"R.	c #24246060C6C6",
"E.	c #BEBEC4C4B6B6",
"W.	c #4141B6B6FDFD",
"Q.	c #5252DADAFCFC",
"!.	c #4C4CD3D3FFFF",
"~.	c #5656D2D2F9F9",
"^.	c #4E4ED9D9FDFD",
"/.	c #5353D1D1FFFF",
"(.	c #2B2B4E4ED0D0",
").	c #20206161CACA",
"_.	c #2B2B5555CBCB",
"`.	c #222229293636",
"'.	c #4040B2B2FFFF",
"].	c #5252ACACFEFE",
"[.	c #4646D5D5F3F3",
"{.	c #5252D6D6FDFD",
"}.	c #5050D2D2FFFF",
"|.	c #1D1D19193E3E",
" X	c #BDBDC3C3C2C2",
".X	c #030305050000",
"XX	c #4545B1B1FCFC",
"oX	c #4141B3B3F9F9",
"OX	c #010102020606",
"+X	c #5252D3D3FDFD",
"@X	c #030303030000",
"#X	c #4242B4B4F3F3",
"$X	c #4646B2B2FAFA",
"%X	c #4D4DADADF9F9",
"&X	c #050504040C0C",
"*X	c #4F4FD3D3FFFF",
"=X	c #000008080707",
"-X	c #1E1E1C1C2A2A",
";X	c #181820202D2D",
":X	c #171725253232",
">X	c #C9C9BABAB5B5",
",X	c #0D0D00000707",
"<X	c #060604040707",
"1X	c #000006060303",
"2X	c #000001010000",
"3X	c #C4C4C9C9BCBC",
"4X	c #050500000606",
"5X	c #020208080000",
"6X	c #B2B2C2C2B5B5",
"7X	c #C4C4C2C2C4C4",
"8X	c #C7C7C1C1C1C1",
"9X	c #CACAB6B6B5B5",
"0X	c #C3C3C4C4B4B4",
"qX	c #C2C2C2C2BCBC",
"wX	c #BCBCC1C1C4C4",
"eX	c #C5C5C0C0C7C7",
"rX	c #C1C1BFBFC9C9",
"tX	c #000004040808",
"yX	c #040400000000",
"uX	c #060600000404",
"iX	c #010100000E0E",
"pX	c #373729294040",
"aX	c #3A3A29292F2F",
"sX	c #292929292C2C",
"dX	c #25252C2C2E2E",
"fX	c #363627272222",
"gX	c #2B2B34342929",
"hX	c #2D2D30301D1D",
"jX	c #000000001212",
"kX	c #5858AEAEF4F4",
"lX	c #31312C2C2C2C",
"zX	c #5A5ACBCBF3F3",
"xX	c #282831313939",
"cX	c #010100000A0A",
"vX	c #22225B5BC6C6",
"bX	c #23235C5CC3C3",
"nX	c #4545D7D7FEFE",
"mX	c #020204040303",
"MX	c #4343A7A7FCFC",
"NX	c #4C4CABABF5F5",
"BX	c #4E4ED2D2F8F8",
"VX	c #4C4CABABFBFB",
"CX	c #020202020404",
"ZX	c #C6C6C4C4C7C7",
"AX	c #313128282121",
"SX	c #5353D2D2FFFF",
"DX	c #29295D5DB3B3",
"FX	c #27276161C5C5",
"GX	c #24245F5FADAD",
"HX	c #5151D4D4FEFE",
"JX	c #0E0E07070000",
"KX	c #000003030C0C",
"LX	c #020200000303",
"PX	c #050508080000",
"IX	c #3E3E26262626",
"                                                                ",
"                                                                ",
"                                                                ",
"                                                                ",
"                                                                ",
"          X o O + @ # $   & * = - ; : >   < 1 2 3 4 5 X         ",
"          6 7 8 9 0 q 4   * e r t y u i   a s d f g h j         ",
"          k l z x c v b   n m M N B V >   X Z A S D f a         ",
"          F G H G J K $   P I U Y T R E   Q ! ~ ^ / ( O         ",
"          k ) _ ` ' ] [   } B y | V  ...  + o.O.+.@.f O         ",
"          #.8 0 $.%.&.*.  P =.-.;.I :.>.  o ,.f / <.1.j         ",
"          F # O $ 2.3.4.  6.7.8.> : 9.n   q.O w.k + e.r.        ",
"                                                                ",
"          X o O + @ # $   & * = - ; : >   < 1 2 3 4 5 X         ",
"          6 7 8 9 0 q 4   * e r t y u i   a s d f g h j         ",
"          k l z x c v b   n m M N B V >   X Z A S D f a         ",
"          F G H G J K $   P I U Y T R E   Q ! ~ ^ / ( O         ",
"          k ) _ ` ' ] [   } B y | V  ...  + o.O.+.@.f O         ",
"          #.8 0 $.%.&.*.  P =.-.;.I :.>.  o ,.f / <.1.j         ",
"          F # O $ 2.3.4.  6.7.8.> : 9.n   q.O w.k + e.r.        ",
"                                                                ",
"          X o O + @ # $   & * = - ; : >   < 1 2 3 4 5 X         ",
"          6 7 8 9 0 q 4   * e r t y u i   a s d f g h j         ",
"          k l z x c v b   n m M N B V >   X Z A S D f a         ",
"          F G H G J K $   P I U Y T R E   Q ! ~ ^ / ( O         ",
"          k ) _ ` ' ] [   } B y | V  ...  + o.O.+.@.f O         ",
"          #.8 0 $.%.&.*.  P =.-.;.I :.>.  o ,.f / <.1.j         ",
"          F # O $ 2.3.4.  6.7.8.> : 9.n   q.O w.k + e.r.        ",
"                                                                ",
"                                                                ",
"                                                                ",
"                                                                "};
